<?xml version="1.0" encoding="utf-8" standalone="no"?>
<!DOCTYPE svg PUBLIC "-//W3C//DTD SVG 1.1//EN"
  "http://www.w3.org/Graphics/SVG/1.1/DTD/svg11.dtd">
<svg xmlns:xlink="http://www.w3.org/1999/xlink" width="864pt" height="720pt" viewBox="0 0 864 720" xmlns="http://www.w3.org/2000/svg" version="1.1">
 <metadata>
  <rdf:RDF xmlns:dc="http://purl.org/dc/elements/1.1/" xmlns:cc="http://creativecommons.org/ns#" xmlns:rdf="http://www.w3.org/1999/02/22-rdf-syntax-ns#">
   <cc:Work>
    <dc:type rdf:resource="http://purl.org/dc/dcmitype/StillImage"/>
    <dc:date>2022-04-19T13:13:07.963602</dc:date>
    <dc:format>image/svg+xml</dc:format>
    <dc:creator>
     <cc:Agent>
      <dc:title>Matplotlib v3.5.1, https://matplotlib.org/</dc:title>
     </cc:Agent>
    </dc:creator>
   </cc:Work>
  </rdf:RDF>
 </metadata>
 <defs>
  <style type="text/css">*{stroke-linejoin: round; stroke-linecap: butt}</style>
 </defs>
 <g id="figure_1">
  <g id="patch_1">
   <path d="M 0 720 
L 864 720 
L 864 0 
L 0 0 
z
" style="fill: #ffffff"/>
  </g>
  <g id="axes_1">
   <g id="patch_2">
    <path d="M 108 338.4 
L 304.941176 338.4 
L 304.941176 86.4 
L 108 86.4 
z
" style="fill: #ffffff"/>
   </g>
   <g id="matplotlib.axis_1">
    <g id="xtick_1">
     <g id="line2d_1">
      <defs>
       <path id="mc51dffec47" d="M 0 0 
L 0 3.5 
" style="stroke: #000000; stroke-width: 0.8"/>
      </defs>
      <g>
       <use xlink:href="#mc51dffec47" x="164.396722" y="338.4" style="stroke: #000000; stroke-width: 0.8"/>
      </g>
     </g>
     <g id="text_1">
      <text style="font: 10px 'sans-serif'; text-anchor: middle" x="164.396722" y="352.998437" transform="rotate(-0, 164.396722, 352.998437)">−0.10</text>
     </g>
    </g>
    <g id="xtick_2">
     <g id="line2d_2">
      <g>
       <use xlink:href="#mc51dffec47" x="223.154575" y="338.4" style="stroke: #000000; stroke-width: 0.8"/>
      </g>
     </g>
     <g id="text_2">
      <text style="font: 10px 'sans-serif'; text-anchor: middle" x="223.154575" y="352.998437" transform="rotate(-0, 223.154575, 352.998437)">−0.05</text>
     </g>
    </g>
    <g id="xtick_3">
     <g id="line2d_3">
      <g>
       <use xlink:href="#mc51dffec47" x="281.912428" y="338.4" style="stroke: #000000; stroke-width: 0.8"/>
      </g>
     </g>
     <g id="text_3">
      <text style="font: 10px 'sans-serif'; text-anchor: middle" x="281.912428" y="352.998437" transform="rotate(-0, 281.912428, 352.998437)">0.00</text>
     </g>
    </g>
    <g id="text_4">
     <text style="font: 10px 'sans-serif'; text-anchor: middle" x="206.470588" y="366.676562" transform="rotate(-0, 206.470588, 366.676562)">mu</text>
    </g>
   </g>
   <g id="matplotlib.axis_2">
    <g id="ytick_1">
     <g id="line2d_4">
      <defs>
       <path id="m5bc75b076b" d="M 0 0 
L -3.5 0 
" style="stroke: #000000; stroke-width: 0.8"/>
      </defs>
      <g>
       <use xlink:href="#m5bc75b076b" x="108" y="326.981006" style="stroke: #000000; stroke-width: 0.8"/>
      </g>
     </g>
     <g id="text_5">
      <text style="font: 10px 'sans-serif'; text-anchor: end" x="101" y="330.780225" transform="rotate(-0, 101, 330.780225)">0</text>
     </g>
    </g>
    <g id="ytick_2">
     <g id="line2d_5">
      <g>
       <use xlink:href="#m5bc75b076b" x="108" y="274.814434" style="stroke: #000000; stroke-width: 0.8"/>
      </g>
     </g>
     <g id="text_6">
      <text style="font: 10px 'sans-serif'; text-anchor: end" x="101" y="278.613653" transform="rotate(-0, 101, 278.613653)">2</text>
     </g>
    </g>
    <g id="ytick_3">
     <g id="line2d_6">
      <g>
       <use xlink:href="#m5bc75b076b" x="108" y="222.647862" style="stroke: #000000; stroke-width: 0.8"/>
      </g>
     </g>
     <g id="text_7">
      <text style="font: 10px 'sans-serif'; text-anchor: end" x="101" y="226.447081" transform="rotate(-0, 101, 226.447081)">4</text>
     </g>
    </g>
    <g id="ytick_4">
     <g id="line2d_7">
      <g>
       <use xlink:href="#m5bc75b076b" x="108" y="170.48129" style="stroke: #000000; stroke-width: 0.8"/>
      </g>
     </g>
     <g id="text_8">
      <text style="font: 10px 'sans-serif'; text-anchor: end" x="101" y="174.280509" transform="rotate(-0, 101, 174.280509)">6</text>
     </g>
    </g>
    <g id="ytick_5">
     <g id="line2d_8">
      <g>
       <use xlink:href="#m5bc75b076b" x="108" y="118.314718" style="stroke: #000000; stroke-width: 0.8"/>
      </g>
     </g>
     <g id="text_9">
      <text style="font: 10px 'sans-serif'; text-anchor: end" x="101" y="122.113937" transform="rotate(-0, 101, 122.113937)">8</text>
     </g>
    </g>
   </g>
   <g id="line2d_9">
    <path d="M 116.951872 97.854545 
L 120.038657 110.582172 
L 123.125559 120.558663 
L 126.212344 128.41148 
L 129.299247 135.786999 
L 132.386032 142.54437 
L 135.472934 148.078539 
L 138.559837 154.626174 
L 141.646622 159.937931 
L 144.733524 164.933845 
L 147.82031 169.762174 
L 150.907212 174.2714 
L 153.994115 178.739467 
L 157.0809 182.935486 
L 160.167802 187.14778 
L 163.254587 190.810108 
L 166.341466 194.799468 
L 169.428322 198.611906 
L 172.515177 202.295622 
L 175.602033 206.079368 
L 178.688888 209.410621 
L 181.775732 212.750742 
L 184.862588 216.208447 
L 187.949443 219.596744 
L 191.036299 222.718783 
L 194.123154 226.173618 
L 197.209998 229.342059 
L 200.296854 232.571874 
L 203.383709 235.686558 
L 206.470565 238.874979 
L 209.55742 241.934548 
L 212.644264 244.920354 
L 215.73112 247.87606 
L 218.817975 250.807899 
L 221.904831 253.667541 
L 224.991686 256.436412 
L 228.07853 259.276647 
L 231.165386 262.418431 
L 234.252241 265.33955 
L 237.339097 268.343432 
L 240.42594 271.415365 
L 243.512796 274.064488 
L 246.599651 276.742745 
L 249.686507 279.449043 
L 252.773363 282.193344 
L 255.860206 284.914404 
L 258.947062 287.715801 
L 262.033917 289.726953 
L 265.120773 292.425191 
L 268.207628 295.065471 
L 271.294477 297.778629 
L 274.38133 300.442802 
L 277.468183 303.158917 
L 280.555037 305.910873 
L 283.64189 308.78991 
L 286.728743 311.770666 
L 289.815596 315.001216 
L 292.902449 318.803998 
L 295.989305 326.103176 
" clip-path="url(#p177e19f7c8)" style="fill: none; stroke: #ff0000; stroke-width: 1.5; stroke-linecap: square"/>
   </g>
   <g id="line2d_10">
    <path d="M 116.951872 99.290561 
L 120.038657 110.854455 
L 123.125559 120.154007 
L 126.212344 128.618634 
L 129.299247 136.255794 
L 132.386032 142.773694 
L 135.472934 149.511346 
L 138.559837 154.350395 
L 141.646622 159.68461 
L 144.733524 164.807367 
L 147.82031 169.546961 
L 150.907212 174.220069 
L 153.994115 178.48792 
L 157.0809 182.752563 
L 160.167802 186.730551 
L 163.254587 191.081922 
L 166.341466 194.816214 
L 169.428322 198.546254 
L 172.515177 202.218389 
L 175.602033 205.698317 
L 178.688888 209.324885 
L 181.775732 212.860527 
L 184.862588 216.261552 
L 187.949443 219.613176 
L 191.036299 223.131264 
L 194.123154 226.235696 
L 197.209998 229.317515 
L 200.296854 232.584081 
L 203.383709 235.63027 
L 206.470565 238.618163 
L 209.55742 241.718187 
L 212.644264 244.754777 
L 215.73112 247.73135 
L 218.817975 250.677744 
L 221.904831 253.950283 
L 224.991686 256.863499 
L 228.07853 259.736912 
L 231.165386 262.475579 
L 234.252241 265.28128 
L 237.339097 268.014495 
L 240.42594 270.819231 
L 243.512796 273.501636 
L 246.599651 276.591593 
L 249.686507 279.102344 
L 252.773363 281.69544 
L 255.860206 284.803472 
L 258.947062 287.518325 
L 262.033917 289.71845 
L 265.120773 292.38737 
L 268.207628 295.057073 
L 271.294477 297.728001 
L 274.38133 300.427386 
L 277.468183 303.137038 
L 280.555037 305.898601 
L 283.64189 308.758677 
L 286.728743 311.77215 
L 289.815596 314.995392 
L 292.902449 318.795148 
L 295.989305 326.103017 
" clip-path="url(#p177e19f7c8)" style="fill: none; stroke: #008000; stroke-width: 1.5; stroke-linecap: square"/>
   </g>
   <g id="line2d_11">
    <path d="M 116.951872 284.564366 
L 120.038657 287.1042 
L 123.125559 289.243238 
L 126.212344 291.086936 
L 129.299247 292.788974 
L 132.386032 294.273765 
L 135.472934 295.905536 
L 138.559837 297.373399 
L 141.646622 298.584524 
L 144.733524 299.885767 
L 147.82031 301.076072 
L 150.907212 302.243545 
L 153.994115 303.244686 
L 157.0809 304.211539 
L 160.167802 305.211079 
L 163.254587 306.272721 
L 166.341466 307.19434 
L 169.428322 308.090121 
L 172.515177 308.921995 
L 175.602033 309.783111 
L 178.688888 310.443689 
L 181.775732 311.119909 
L 184.862588 311.954668 
L 187.949443 312.697196 
L 191.036299 313.409421 
L 194.123154 314.128177 
L 197.209998 314.629882 
L 200.296854 315.359608 
L 203.383709 315.882401 
L 206.470565 316.448001 
L 209.55742 317.0309 
L 212.644264 317.565589 
L 215.73112 318.051127 
L 218.817975 318.507801 
L 221.904831 319.149129 
L 224.991686 319.539515 
L 228.07853 319.975093 
L 231.165386 320.466239 
L 234.252241 320.927047 
L 237.339097 321.391728 
L 240.42594 321.889523 
L 243.512796 322.18989 
L 246.599651 322.638058 
L 249.686507 322.912045 
L 252.773363 323.22007 
L 255.860206 323.652312 
L 258.947062 323.983121 
L 262.033917 324.14683 
L 265.120773 324.446216 
L 268.207628 324.725831 
L 271.294477 325.001925 
L 274.38133 325.260371 
L 277.468183 325.508526 
L 280.555037 325.744468 
L 283.64189 325.975227 
L 286.728743 326.193599 
L 289.815596 326.403363 
L 292.902449 326.617105 
L 295.989305 326.945455 
" clip-path="url(#p177e19f7c8)" style="fill: none; stroke: #0000ff; stroke-width: 1.5; stroke-linecap: square"/>
   </g>
   <g id="patch_3">
    <path d="M 108 338.4 
L 108 86.4 
" style="fill: none; stroke: #000000; stroke-width: 0.8; stroke-linejoin: miter; stroke-linecap: square"/>
   </g>
   <g id="patch_4">
    <path d="M 304.941176 338.4 
L 304.941176 86.4 
" style="fill: none; stroke: #000000; stroke-width: 0.8; stroke-linejoin: miter; stroke-linecap: square"/>
   </g>
   <g id="patch_5">
    <path d="M 108 338.4 
L 304.941176 338.4 
" style="fill: none; stroke: #000000; stroke-width: 0.8; stroke-linejoin: miter; stroke-linecap: square"/>
   </g>
   <g id="patch_6">
    <path d="M 108 86.4 
L 304.941176 86.4 
" style="fill: none; stroke: #000000; stroke-width: 0.8; stroke-linejoin: miter; stroke-linecap: square"/>
   </g>
   <g id="text_10">
    <text style="font: 12px 'sans-serif'; text-anchor: middle" x="206.470588" y="80.4" transform="rotate(-0, 206.470588, 80.4)">eps = 0.100000</text>
   </g>
   <g id="legend_1">
    <g id="patch_7">
     <path d="M 254.103676 138.434375 
L 297.941176 138.434375 
Q 299.941176 138.434375 299.941176 136.434375 
L 299.941176 93.4 
Q 299.941176 91.4 297.941176 91.4 
L 254.103676 91.4 
Q 252.103676 91.4 252.103676 93.4 
L 252.103676 136.434375 
Q 252.103676 138.434375 254.103676 138.434375 
z
" style="fill: #ffffff; opacity: 0.8; stroke: #cccccc; stroke-linejoin: miter"/>
    </g>
    <g id="line2d_12">
     <path d="M 256.103676 99.498438 
L 266.103676 99.498438 
L 276.103676 99.498438 
" style="fill: none; stroke: #ff0000; stroke-width: 1.5; stroke-linecap: square"/>
    </g>
    <g id="text_11">
     <text style="font: 10px 'sans-serif'; text-anchor: start" x="284.103676" y="102.998438" transform="rotate(-0, 284.103676, 102.998438)">xx</text>
    </g>
    <g id="line2d_13">
     <path d="M 256.103676 114.176563 
L 266.103676 114.176563 
L 276.103676 114.176563 
" style="fill: none; stroke: #008000; stroke-width: 1.5; stroke-linecap: square"/>
    </g>
    <g id="text_12">
     <text style="font: 10px 'sans-serif'; text-anchor: start" x="284.103676" y="117.676563" transform="rotate(-0, 284.103676, 117.676563)">yy</text>
    </g>
    <g id="line2d_14">
     <path d="M 256.103676 128.854688 
L 266.103676 128.854688 
L 276.103676 128.854688 
" style="fill: none; stroke: #0000ff; stroke-width: 1.5; stroke-linecap: square"/>
    </g>
    <g id="text_13">
     <text style="font: 10px 'sans-serif'; text-anchor: start" x="284.103676" y="132.354688" transform="rotate(-0, 284.103676, 132.354688)">zz</text>
    </g>
   </g>
  </g>
  <g id="axes_2">
   <g id="patch_8">
    <path d="M 344.329412 338.4 
L 541.270588 338.4 
L 541.270588 86.4 
L 344.329412 86.4 
z
" style="fill: #ffffff"/>
   </g>
   <g id="matplotlib.axis_3">
    <g id="xtick_4">
     <g id="line2d_15">
      <g>
       <use xlink:href="#mc51dffec47" x="400.726134" y="338.4" style="stroke: #000000; stroke-width: 0.8"/>
      </g>
     </g>
     <g id="text_14">
      <text style="font: 10px 'sans-serif'; text-anchor: middle" x="400.726134" y="352.998437" transform="rotate(-0, 400.726134, 352.998437)">−0.10</text>
     </g>
    </g>
    <g id="xtick_5">
     <g id="line2d_16">
      <g>
       <use xlink:href="#mc51dffec47" x="459.483987" y="338.4" style="stroke: #000000; stroke-width: 0.8"/>
      </g>
     </g>
     <g id="text_15">
      <text style="font: 10px 'sans-serif'; text-anchor: middle" x="459.483987" y="352.998437" transform="rotate(-0, 459.483987, 352.998437)">−0.05</text>
     </g>
    </g>
    <g id="xtick_6">
     <g id="line2d_17">
      <g>
       <use xlink:href="#mc51dffec47" x="518.241839" y="338.4" style="stroke: #000000; stroke-width: 0.8"/>
      </g>
     </g>
     <g id="text_16">
      <text style="font: 10px 'sans-serif'; text-anchor: middle" x="518.241839" y="352.998437" transform="rotate(-0, 518.241839, 352.998437)">0.00</text>
     </g>
    </g>
    <g id="text_17">
     <text style="font: 10px 'sans-serif'; text-anchor: middle" x="442.8" y="366.676562" transform="rotate(-0, 442.8, 366.676562)">mu</text>
    </g>
   </g>
   <g id="matplotlib.axis_4">
    <g id="ytick_6">
     <g id="line2d_18">
      <g>
       <use xlink:href="#m5bc75b076b" x="344.329412" y="326.946593" style="stroke: #000000; stroke-width: 0.8"/>
      </g>
     </g>
     <g id="text_18">
      <text style="font: 10px 'sans-serif'; text-anchor: end" x="337.329412" y="330.745812" transform="rotate(-0, 337.329412, 330.745812)">0</text>
     </g>
    </g>
    <g id="ytick_7">
     <g id="line2d_19">
      <g>
       <use xlink:href="#m5bc75b076b" x="344.329412" y="291.141987" style="stroke: #000000; stroke-width: 0.8"/>
      </g>
     </g>
     <g id="text_19">
      <text style="font: 10px 'sans-serif'; text-anchor: end" x="337.329412" y="294.941206" transform="rotate(-0, 337.329412, 294.941206)">50</text>
     </g>
    </g>
    <g id="ytick_8">
     <g id="line2d_20">
      <g>
       <use xlink:href="#m5bc75b076b" x="344.329412" y="255.337381" style="stroke: #000000; stroke-width: 0.8"/>
      </g>
     </g>
     <g id="text_20">
      <text style="font: 10px 'sans-serif'; text-anchor: end" x="337.329412" y="259.1366" transform="rotate(-0, 337.329412, 259.1366)">100</text>
     </g>
    </g>
    <g id="ytick_9">
     <g id="line2d_21">
      <g>
       <use xlink:href="#m5bc75b076b" x="344.329412" y="219.532775" style="stroke: #000000; stroke-width: 0.8"/>
      </g>
     </g>
     <g id="text_21">
      <text style="font: 10px 'sans-serif'; text-anchor: end" x="337.329412" y="223.331994" transform="rotate(-0, 337.329412, 223.331994)">150</text>
     </g>
    </g>
    <g id="ytick_10">
     <g id="line2d_22">
      <g>
       <use xlink:href="#m5bc75b076b" x="344.329412" y="183.728169" style="stroke: #000000; stroke-width: 0.8"/>
      </g>
     </g>
     <g id="text_22">
      <text style="font: 10px 'sans-serif'; text-anchor: end" x="337.329412" y="187.527388" transform="rotate(-0, 337.329412, 187.527388)">200</text>
     </g>
    </g>
    <g id="ytick_11">
     <g id="line2d_23">
      <g>
       <use xlink:href="#m5bc75b076b" x="344.329412" y="147.923563" style="stroke: #000000; stroke-width: 0.8"/>
      </g>
     </g>
     <g id="text_23">
      <text style="font: 10px 'sans-serif'; text-anchor: end" x="337.329412" y="151.722782" transform="rotate(-0, 337.329412, 151.722782)">250</text>
     </g>
    </g>
    <g id="ytick_12">
     <g id="line2d_24">
      <g>
       <use xlink:href="#m5bc75b076b" x="344.329412" y="112.118957" style="stroke: #000000; stroke-width: 0.8"/>
      </g>
     </g>
     <g id="text_24">
      <text style="font: 10px 'sans-serif'; text-anchor: end" x="337.329412" y="115.918176" transform="rotate(-0, 337.329412, 115.918176)">300</text>
     </g>
    </g>
   </g>
   <g id="line2d_25">
    <path d="M 353.281283 97.854545 
L 356.368068 102.540509 
L 359.454971 107.638799 
L 362.541756 110.71957 
L 365.628659 113.661491 
L 368.715444 117.613031 
L 371.802346 118.614486 
L 374.889249 124.974816 
L 377.976034 128.486746 
L 381.062936 131.533933 
L 384.149721 135.273796 
L 387.236624 138.44279 
L 390.323526 142.636082 
L 393.410311 146.489016 
L 396.497214 150.536512 
L 399.583999 153.223003 
L 402.670878 157.398393 
L 405.757734 161.442881 
L 408.844589 165.646055 
L 411.931445 170.220452 
L 415.0183 174.245892 
L 418.105144 178.419707 
L 421.191999 182.623669 
L 424.278855 186.992762 
L 427.365711 190.751171 
L 430.452566 195.63986 
L 433.53941 200.644413 
L 436.626265 204.90287 
L 439.713121 209.775089 
L 442.799976 214.802056 
L 445.886832 219.286225 
L 448.973676 223.856038 
L 452.060531 228.600936 
L 455.147387 233.41286 
L 458.234242 237.03822 
L 461.321098 241.719529 
L 464.407942 246.418167 
L 467.494797 251.559494 
L 470.581653 256.226624 
L 473.668508 261.035541 
L 476.755352 265.679506 
L 479.842208 270.379712 
L 482.929063 273.981198 
L 486.015919 278.900385 
L 489.102774 283.570315 
L 492.189618 286.897938 
L 495.276474 291.143641 
L 498.363329 295.028577 
L 501.450185 298.988524 
L 504.53704 302.755462 
L 507.623889 306.461804 
L 510.710742 309.906401 
L 513.797595 313.225323 
L 516.884448 316.317394 
L 519.971301 319.192762 
L 523.058155 321.720725 
L 526.145008 323.967118 
L 529.231861 325.768354 
L 532.318717 326.919098 
" clip-path="url(#p66d5d52bf6)" style="fill: none; stroke: #ff0000; stroke-width: 1.5; stroke-linecap: square"/>
   </g>
   <g id="line2d_26">
    <path d="M 353.281283 101.223974 
L 356.368068 103.826611 
L 359.454971 106.437124 
L 362.541756 111.532621 
L 365.628659 114.877058 
L 368.715444 118.248992 
L 371.802346 123.434931 
L 374.889249 123.967632 
L 377.976034 127.573371 
L 381.062936 130.991637 
L 384.149721 134.442341 
L 387.236624 138.200321 
L 390.323526 141.815154 
L 393.410311 145.765691 
L 396.497214 149.131897 
L 399.583999 154.015359 
L 402.670878 157.517193 
L 405.757734 161.292717 
L 408.844589 165.413326 
L 411.931445 169.095471 
L 415.0183 174.047964 
L 418.105144 178.743452 
L 421.191999 182.786222 
L 424.278855 187.108482 
L 427.365711 192.094631 
L 430.452566 195.856836 
L 433.53941 200.590348 
L 436.626265 204.949846 
L 439.713121 209.606807 
L 442.799976 213.990151 
L 445.886832 218.633435 
L 448.973676 223.33816 
L 452.060531 228.168058 
L 455.147387 233.020299 
L 458.234242 237.896456 
L 461.321098 243.069506 
L 464.407942 247.802875 
L 467.494797 251.709229 
L 470.581653 256.044758 
L 473.668508 260.055963 
L 476.755352 263.892355 
L 479.842208 268.687043 
L 482.929063 273.509995 
L 486.015919 277.86213 
L 489.102774 282.075151 
L 492.189618 286.558826 
L 495.276474 290.548096 
L 498.363329 295.00443 
L 501.450185 298.878553 
L 504.53704 302.731251 
L 507.623889 306.311969 
L 510.710742 309.861101 
L 513.797595 313.160567 
L 516.884448 316.280609 
L 519.971301 319.099455 
L 523.058155 321.724937 
L 526.145008 323.94881 
L 529.231861 325.741507 
L 532.318717 326.918625 
" clip-path="url(#p66d5d52bf6)" style="fill: none; stroke: #008000; stroke-width: 1.5; stroke-linecap: square"/>
   </g>
   <g id="line2d_27">
    <path d="M 353.281283 248.415205 
L 356.368068 252.068206 
L 359.454971 255.43202 
L 362.541756 258.437788 
L 365.628659 261.146721 
L 368.715444 263.553486 
L 371.802346 266.602907 
L 374.889249 269.335335 
L 377.976034 271.393427 
L 381.062936 273.825798 
L 384.149721 276.064224 
L 387.236624 278.295645 
L 390.323526 280.136976 
L 393.410311 281.919895 
L 396.497214 283.862503 
L 399.583999 286.068389 
L 402.670878 287.881469 
L 405.757734 289.668155 
L 408.844589 291.317473 
L 411.931445 293.096682 
L 415.0183 294.309449 
L 418.105144 295.606227 
L 421.191999 297.402415 
L 424.278855 298.95612 
L 427.365711 300.441167 
L 430.452566 301.974112 
L 433.53941 302.898007 
L 436.626265 304.504846 
L 439.713121 305.530591 
L 442.799976 306.703428 
L 445.886832 307.938229 
L 448.973676 309.05148 
L 452.060531 310.040174 
L 455.147387 310.960316 
L 458.234242 312.416038 
L 461.321098 313.174237 
L 464.407942 314.071522 
L 467.494797 315.131882 
L 470.581653 316.118664 
L 473.668508 317.123313 
L 476.755352 318.223431 
L 479.842208 318.786072 
L 482.929063 319.759248 
L 486.015919 320.263366 
L 489.102774 320.864737 
L 492.189618 321.801014 
L 495.276474 322.465261 
L 498.363329 322.722191 
L 501.450185 323.30952 
L 504.53704 323.844787 
L 507.623889 324.366992 
L 510.710742 324.840089 
L 513.797595 325.27997 
L 516.884448 325.678983 
L 519.971301 326.048515 
L 523.058155 326.365276 
L 526.145008 326.626989 
L 529.231861 326.828307 
L 532.318717 326.945455 
" clip-path="url(#p66d5d52bf6)" style="fill: none; stroke: #0000ff; stroke-width: 1.5; stroke-linecap: square"/>
   </g>
   <g id="patch_9">
    <path d="M 344.329412 338.4 
L 344.329412 86.4 
" style="fill: none; stroke: #000000; stroke-width: 0.8; stroke-linejoin: miter; stroke-linecap: square"/>
   </g>
   <g id="patch_10">
    <path d="M 541.270588 338.4 
L 541.270588 86.4 
" style="fill: none; stroke: #000000; stroke-width: 0.8; stroke-linejoin: miter; stroke-linecap: square"/>
   </g>
   <g id="patch_11">
    <path d="M 344.329412 338.4 
L 541.270588 338.4 
" style="fill: none; stroke: #000000; stroke-width: 0.8; stroke-linejoin: miter; stroke-linecap: square"/>
   </g>
   <g id="patch_12">
    <path d="M 344.329412 86.4 
L 541.270588 86.4 
" style="fill: none; stroke: #000000; stroke-width: 0.8; stroke-linejoin: miter; stroke-linecap: square"/>
   </g>
   <g id="text_25">
    <text style="font: 12px 'sans-serif'; text-anchor: middle" x="442.8" y="80.4" transform="rotate(-0, 442.8, 80.4)">eps = 0.010000</text>
   </g>
   <g id="legend_2">
    <g id="patch_13">
     <path d="M 490.433088 138.434375 
L 534.270588 138.434375 
Q 536.270588 138.434375 536.270588 136.434375 
L 536.270588 93.4 
Q 536.270588 91.4 534.270588 91.4 
L 490.433088 91.4 
Q 488.433088 91.4 488.433088 93.4 
L 488.433088 136.434375 
Q 488.433088 138.434375 490.433088 138.434375 
z
" style="fill: #ffffff; opacity: 0.8; stroke: #cccccc; stroke-linejoin: miter"/>
    </g>
    <g id="line2d_28">
     <path d="M 492.433088 99.498438 
L 502.433088 99.498438 
L 512.433088 99.498438 
" style="fill: none; stroke: #ff0000; stroke-width: 1.5; stroke-linecap: square"/>
    </g>
    <g id="text_26">
     <text style="font: 10px 'sans-serif'; text-anchor: start" x="520.433088" y="102.998438" transform="rotate(-0, 520.433088, 102.998438)">xx</text>
    </g>
    <g id="line2d_29">
     <path d="M 492.433088 114.176563 
L 502.433088 114.176563 
L 512.433088 114.176563 
" style="fill: none; stroke: #008000; stroke-width: 1.5; stroke-linecap: square"/>
    </g>
    <g id="text_27">
     <text style="font: 10px 'sans-serif'; text-anchor: start" x="520.433088" y="117.676563" transform="rotate(-0, 520.433088, 117.676563)">yy</text>
    </g>
    <g id="line2d_30">
     <path d="M 492.433088 128.854688 
L 502.433088 128.854688 
L 512.433088 128.854688 
" style="fill: none; stroke: #0000ff; stroke-width: 1.5; stroke-linecap: square"/>
    </g>
    <g id="text_28">
     <text style="font: 10px 'sans-serif'; text-anchor: start" x="520.433088" y="132.354688" transform="rotate(-0, 520.433088, 132.354688)">zz</text>
    </g>
   </g>
  </g>
  <g id="axes_3">
   <g id="patch_14">
    <path d="M 580.658824 338.4 
L 777.6 338.4 
L 777.6 86.4 
L 580.658824 86.4 
z
" style="fill: #ffffff"/>
   </g>
   <g id="matplotlib.axis_5">
    <g id="xtick_7">
     <g id="line2d_31">
      <g>
       <use xlink:href="#mc51dffec47" x="637.055546" y="338.4" style="stroke: #000000; stroke-width: 0.8"/>
      </g>
     </g>
     <g id="text_29">
      <text style="font: 10px 'sans-serif'; text-anchor: middle" x="637.055546" y="352.998437" transform="rotate(-0, 637.055546, 352.998437)">−0.10</text>
     </g>
    </g>
    <g id="xtick_8">
     <g id="line2d_32">
      <g>
       <use xlink:href="#mc51dffec47" x="695.813398" y="338.4" style="stroke: #000000; stroke-width: 0.8"/>
      </g>
     </g>
     <g id="text_30">
      <text style="font: 10px 'sans-serif'; text-anchor: middle" x="695.813398" y="352.998437" transform="rotate(-0, 695.813398, 352.998437)">−0.05</text>
     </g>
    </g>
    <g id="xtick_9">
     <g id="line2d_33">
      <g>
       <use xlink:href="#mc51dffec47" x="754.571251" y="338.4" style="stroke: #000000; stroke-width: 0.8"/>
      </g>
     </g>
     <g id="text_31">
      <text style="font: 10px 'sans-serif'; text-anchor: middle" x="754.571251" y="352.998437" transform="rotate(-0, 754.571251, 352.998437)">0.00</text>
     </g>
    </g>
    <g id="text_32">
     <text style="font: 10px 'sans-serif'; text-anchor: middle" x="679.129412" y="366.676562" transform="rotate(-0, 679.129412, 366.676562)">mu</text>
    </g>
   </g>
   <g id="matplotlib.axis_6">
    <g id="ytick_13">
     <g id="line2d_34">
      <g>
       <use xlink:href="#m5bc75b076b" x="580.658824" y="326.945639" style="stroke: #000000; stroke-width: 0.8"/>
      </g>
     </g>
     <g id="text_33">
      <text style="font: 10px 'sans-serif'; text-anchor: end" x="573.658824" y="330.744858" transform="rotate(-0, 573.658824, 330.744858)">0</text>
     </g>
    </g>
    <g id="ytick_14">
     <g id="line2d_35">
      <g>
       <use xlink:href="#m5bc75b076b" x="580.658824" y="290.501971" style="stroke: #000000; stroke-width: 0.8"/>
      </g>
     </g>
     <g id="text_34">
      <text style="font: 10px 'sans-serif'; text-anchor: end" x="573.658824" y="294.30119" transform="rotate(-0, 573.658824, 294.30119)">5000</text>
     </g>
    </g>
    <g id="ytick_15">
     <g id="line2d_36">
      <g>
       <use xlink:href="#m5bc75b076b" x="580.658824" y="254.058303" style="stroke: #000000; stroke-width: 0.8"/>
      </g>
     </g>
     <g id="text_35">
      <text style="font: 10px 'sans-serif'; text-anchor: end" x="573.658824" y="257.857522" transform="rotate(-0, 573.658824, 257.857522)">10000</text>
     </g>
    </g>
    <g id="ytick_16">
     <g id="line2d_37">
      <g>
       <use xlink:href="#m5bc75b076b" x="580.658824" y="217.614635" style="stroke: #000000; stroke-width: 0.8"/>
      </g>
     </g>
     <g id="text_36">
      <text style="font: 10px 'sans-serif'; text-anchor: end" x="573.658824" y="221.413853" transform="rotate(-0, 573.658824, 221.413853)">15000</text>
     </g>
    </g>
    <g id="ytick_17">
     <g id="line2d_38">
      <g>
       <use xlink:href="#m5bc75b076b" x="580.658824" y="181.170966" style="stroke: #000000; stroke-width: 0.8"/>
      </g>
     </g>
     <g id="text_37">
      <text style="font: 10px 'sans-serif'; text-anchor: end" x="573.658824" y="184.970185" transform="rotate(-0, 573.658824, 184.970185)">20000</text>
     </g>
    </g>
    <g id="ytick_18">
     <g id="line2d_39">
      <g>
       <use xlink:href="#m5bc75b076b" x="580.658824" y="144.727298" style="stroke: #000000; stroke-width: 0.8"/>
      </g>
     </g>
     <g id="text_38">
      <text style="font: 10px 'sans-serif'; text-anchor: end" x="573.658824" y="148.526517" transform="rotate(-0, 573.658824, 148.526517)">25000</text>
     </g>
    </g>
    <g id="ytick_19">
     <g id="line2d_40">
      <g>
       <use xlink:href="#m5bc75b076b" x="580.658824" y="108.28363" style="stroke: #000000; stroke-width: 0.8"/>
      </g>
     </g>
     <g id="text_39">
      <text style="font: 10px 'sans-serif'; text-anchor: end" x="573.658824" y="112.082849" transform="rotate(-0, 573.658824, 112.082849)">30000</text>
     </g>
    </g>
   </g>
   <g id="line2d_41">
    <path d="M 589.610695 97.854545 
L 592.69748 102.315469 
L 595.784383 107.277639 
L 598.871168 110.225276 
L 601.95807 113.043538 
L 605.044855 116.917208 
L 608.131758 117.792002 
L 611.21866 124.14785 
L 614.305445 127.610145 
L 617.392348 130.603263 
L 620.479133 134.313301 
L 623.566036 137.445343 
L 626.652938 141.6317 
L 629.739723 145.475778 
L 632.826626 149.519349 
L 635.913411 152.178862 
L 639.00029 156.36019 
L 642.087145 160.411778 
L 645.174001 164.630206 
L 648.260856 169.227429 
L 651.347712 173.273113 
L 654.434556 177.471059 
L 657.521411 181.696411 
L 660.608267 186.093559 
L 663.695122 189.870289 
L 666.781978 194.799732 
L 669.868822 199.856583 
L 672.955677 204.144326 
L 676.042533 209.066481 
L 679.129388 214.145635 
L 682.216244 218.670262 
L 685.303088 223.285051 
L 688.389943 228.080746 
L 691.476799 232.945903 
L 694.563654 236.592894 
L 697.65051 241.328457 
L 700.737354 246.079764 
L 703.824209 251.277432 
L 706.911065 255.993841 
L 709.99792 260.853597 
L 713.084764 265.541623 
L 716.171619 270.299934 
L 719.258475 273.927216 
L 722.345331 278.909007 
L 725.432186 283.633251 
L 728.51903 286.977438 
L 731.605885 291.263549 
L 734.692741 295.201783 
L 737.779596 299.196927 
L 740.866452 302.995203 
L 743.9533 306.728952 
L 747.040154 310.194847 
L 750.127007 313.52988 
L 753.21386 316.630434 
L 756.300713 319.504229 
L 759.387566 322.017566 
L 762.47442 324.233746 
L 765.561273 325.974921 
L 768.648128 326.943304 
" clip-path="url(#p9a097ce0ad)" style="fill: none; stroke: #ff0000; stroke-width: 1.5; stroke-linecap: square"/>
   </g>
   <g id="line2d_42">
    <path d="M 589.610695 101.278209 
L 592.69748 103.630138 
L 595.784383 106.053569 
L 598.871168 111.05539 
L 601.95807 114.280144 
L 605.044855 117.564666 
L 608.131758 122.707669 
L 611.21866 123.120066 
L 614.305445 126.678134 
L 617.392348 130.049319 
L 620.479133 133.464455 
L 623.566036 137.197526 
L 626.652938 140.794808 
L 629.739723 144.737284 
L 632.826626 148.086967 
L 635.913411 152.985944 
L 639.00029 156.481839 
L 642.087145 160.259298 
L 645.174001 164.393176 
L 648.260856 168.081494 
L 651.347712 173.07209 
L 654.434556 177.800802 
L 657.521411 181.862011 
L 660.608267 186.212073 
L 663.695122 191.239988 
L 666.781978 195.021091 
L 669.868822 199.801699 
L 672.955677 204.192213 
L 676.042533 208.895123 
L 679.129388 213.318145 
L 682.216244 218.005165 
L 685.303088 222.757274 
L 688.389943 227.639705 
L 691.476799 232.54597 
L 694.563654 237.46725 
L 697.65051 242.704424 
L 700.737354 247.490498 
L 703.824209 251.429767 
L 706.911065 255.808503 
L 709.99792 259.855711 
L 713.084764 263.720977 
L 716.171619 268.575485 
L 719.258475 273.446998 
L 722.345331 277.851288 
L 725.432186 282.110022 
L 728.51903 286.631901 
L 731.605885 290.656806 
L 734.692741 295.177191 
L 737.779596 299.084929 
L 740.866452 302.970553 
L 743.9533 306.576326 
L 747.040154 310.148709 
L 750.127007 313.463917 
L 753.21386 316.592955 
L 756.300713 319.409176 
L 759.387566 322.021854 
L 762.47442 324.215087 
L 765.561273 325.947567 
L 768.648128 326.942822 
" clip-path="url(#p9a097ce0ad)" style="fill: none; stroke: #008000; stroke-width: 1.5; stroke-linecap: square"/>
   </g>
   <g id="line2d_43">
    <path d="M 589.610695 247.397785 
L 592.69748 251.082167 
L 595.784383 254.480357 
L 598.871168 257.518811 
L 601.95807 260.256059 
L 605.044855 262.688747 
L 608.131758 265.778069 
L 611.21866 268.546082 
L 614.305445 270.627993 
L 617.392348 273.092189 
L 620.479133 275.360108 
L 623.566036 277.621467 
L 626.652938 279.486428 
L 629.739723 281.292299 
L 632.826626 283.261438 
L 635.913411 285.499538 
L 639.00029 287.337699 
L 642.087145 289.149445 
L 645.174001 290.821772 
L 648.260856 292.626819 
L 651.347712 293.855102 
L 654.434556 295.169341 
L 657.521411 296.992581 
L 660.608267 298.56912 
L 663.695122 300.075912 
L 666.781978 301.631773 
L 669.868822 302.567529 
L 672.955677 304.199061 
L 676.042533 305.238952 
L 679.129388 306.428882 
L 682.216244 307.682019 
L 685.303088 308.811554 
L 688.389943 309.814404 
L 691.476799 310.74758 
L 694.563654 312.226231 
L 697.65051 312.994777 
L 700.737354 313.905045 
L 703.824209 314.981438 
L 706.911065 315.98302 
L 709.99792 317.002866 
L 713.084764 318.119945 
L 716.171619 318.689953 
L 719.258475 319.677919 
L 722.345331 320.188508 
L 725.432186 320.798134 
L 728.51903 321.748609 
L 731.605885 322.422246 
L 734.692741 322.681791 
L 737.779596 323.277231 
L 740.866452 323.819699 
L 743.9533 324.348841 
L 747.040154 324.827989 
L 750.127007 325.27328 
L 753.21386 325.676898 
L 756.300713 326.050358 
L 759.387566 326.369913 
L 762.47442 326.633122 
L 765.561273 326.834137 
L 768.648128 326.945455 
" clip-path="url(#p9a097ce0ad)" style="fill: none; stroke: #0000ff; stroke-width: 1.5; stroke-linecap: square"/>
   </g>
   <g id="patch_15">
    <path d="M 580.658824 338.4 
L 580.658824 86.4 
" style="fill: none; stroke: #000000; stroke-width: 0.8; stroke-linejoin: miter; stroke-linecap: square"/>
   </g>
   <g id="patch_16">
    <path d="M 777.6 338.4 
L 777.6 86.4 
" style="fill: none; stroke: #000000; stroke-width: 0.8; stroke-linejoin: miter; stroke-linecap: square"/>
   </g>
   <g id="patch_17">
    <path d="M 580.658824 338.4 
L 777.6 338.4 
" style="fill: none; stroke: #000000; stroke-width: 0.8; stroke-linejoin: miter; stroke-linecap: square"/>
   </g>
   <g id="patch_18">
    <path d="M 580.658824 86.4 
L 777.6 86.4 
" style="fill: none; stroke: #000000; stroke-width: 0.8; stroke-linejoin: miter; stroke-linecap: square"/>
   </g>
   <g id="text_40">
    <text style="font: 12px 'sans-serif'; text-anchor: middle" x="679.129412" y="80.4" transform="rotate(-0, 679.129412, 80.4)">eps = 0.001000</text>
   </g>
   <g id="legend_3">
    <g id="patch_19">
     <path d="M 726.7625 138.434375 
L 770.6 138.434375 
Q 772.6 138.434375 772.6 136.434375 
L 772.6 93.4 
Q 772.6 91.4 770.6 91.4 
L 726.7625 91.4 
Q 724.7625 91.4 724.7625 93.4 
L 724.7625 136.434375 
Q 724.7625 138.434375 726.7625 138.434375 
z
" style="fill: #ffffff; opacity: 0.8; stroke: #cccccc; stroke-linejoin: miter"/>
    </g>
    <g id="line2d_44">
     <path d="M 728.7625 99.498438 
L 738.7625 99.498438 
L 748.7625 99.498438 
" style="fill: none; stroke: #ff0000; stroke-width: 1.5; stroke-linecap: square"/>
    </g>
    <g id="text_41">
     <text style="font: 10px 'sans-serif'; text-anchor: start" x="756.7625" y="102.998438" transform="rotate(-0, 756.7625, 102.998438)">xx</text>
    </g>
    <g id="line2d_45">
     <path d="M 728.7625 114.176563 
L 738.7625 114.176563 
L 748.7625 114.176563 
" style="fill: none; stroke: #008000; stroke-width: 1.5; stroke-linecap: square"/>
    </g>
    <g id="text_42">
     <text style="font: 10px 'sans-serif'; text-anchor: start" x="756.7625" y="117.676563" transform="rotate(-0, 756.7625, 117.676563)">yy</text>
    </g>
    <g id="line2d_46">
     <path d="M 728.7625 128.854688 
L 738.7625 128.854688 
L 748.7625 128.854688 
" style="fill: none; stroke: #0000ff; stroke-width: 1.5; stroke-linecap: square"/>
    </g>
    <g id="text_43">
     <text style="font: 10px 'sans-serif'; text-anchor: start" x="756.7625" y="132.354688" transform="rotate(-0, 756.7625, 132.354688)">zz</text>
    </g>
   </g>
  </g>
  <g id="axes_4">
   <g id="patch_20">
    <path d="M 108 640.8 
L 304.941176 640.8 
L 304.941176 388.8 
L 108 388.8 
z
" style="fill: #ffffff"/>
   </g>
   <g id="matplotlib.axis_7">
    <g id="xtick_10">
     <g id="line2d_47">
      <g>
       <use xlink:href="#mc51dffec47" x="164.396722" y="640.8" style="stroke: #000000; stroke-width: 0.8"/>
      </g>
     </g>
     <g id="text_44">
      <text style="font: 10px 'sans-serif'; text-anchor: middle" x="164.396722" y="655.398438" transform="rotate(-0, 164.396722, 655.398438)">−0.10</text>
     </g>
    </g>
    <g id="xtick_11">
     <g id="line2d_48">
      <g>
       <use xlink:href="#mc51dffec47" x="223.154575" y="640.8" style="stroke: #000000; stroke-width: 0.8"/>
      </g>
     </g>
     <g id="text_45">
      <text style="font: 10px 'sans-serif'; text-anchor: middle" x="223.154575" y="655.398438" transform="rotate(-0, 223.154575, 655.398438)">−0.05</text>
     </g>
    </g>
    <g id="xtick_12">
     <g id="line2d_49">
      <g>
       <use xlink:href="#mc51dffec47" x="281.912428" y="640.8" style="stroke: #000000; stroke-width: 0.8"/>
      </g>
     </g>
     <g id="text_46">
      <text style="font: 10px 'sans-serif'; text-anchor: middle" x="281.912428" y="655.398438" transform="rotate(-0, 281.912428, 655.398438)">0.00</text>
     </g>
    </g>
    <g id="text_47">
     <text style="font: 10px 'sans-serif'; text-anchor: middle" x="206.470588" y="669.076563" transform="rotate(-0, 206.470588, 669.076563)">mu</text>
    </g>
   </g>
   <g id="matplotlib.axis_8">
    <g id="ytick_20">
     <g id="line2d_50">
      <g>
       <use xlink:href="#m5bc75b076b" x="108" y="629.34563" style="stroke: #000000; stroke-width: 0.8"/>
      </g>
     </g>
     <g id="text_48">
      <text style="font: 10px 'sans-serif'; text-anchor: end" x="101" y="633.144848" transform="rotate(-0, 101, 633.144848)">0.0</text>
     </g>
    </g>
    <g id="ytick_21">
     <g id="line2d_51">
      <g>
       <use xlink:href="#m5bc75b076b" x="108" y="592.895457" style="stroke: #000000; stroke-width: 0.8"/>
      </g>
     </g>
     <g id="text_49">
      <text style="font: 10px 'sans-serif'; text-anchor: end" x="101" y="596.694676" transform="rotate(-0, 101, 596.694676)">0.5</text>
     </g>
    </g>
    <g id="ytick_22">
     <g id="line2d_52">
      <g>
       <use xlink:href="#m5bc75b076b" x="108" y="556.445285" style="stroke: #000000; stroke-width: 0.8"/>
      </g>
     </g>
     <g id="text_50">
      <text style="font: 10px 'sans-serif'; text-anchor: end" x="101" y="560.244503" transform="rotate(-0, 101, 560.244503)">1.0</text>
     </g>
    </g>
    <g id="ytick_23">
     <g id="line2d_53">
      <g>
       <use xlink:href="#m5bc75b076b" x="108" y="519.995112" style="stroke: #000000; stroke-width: 0.8"/>
      </g>
     </g>
     <g id="text_51">
      <text style="font: 10px 'sans-serif'; text-anchor: end" x="101" y="523.794331" transform="rotate(-0, 101, 523.794331)">1.5</text>
     </g>
    </g>
    <g id="ytick_24">
     <g id="line2d_54">
      <g>
       <use xlink:href="#m5bc75b076b" x="108" y="483.544939" style="stroke: #000000; stroke-width: 0.8"/>
      </g>
     </g>
     <g id="text_52">
      <text style="font: 10px 'sans-serif'; text-anchor: end" x="101" y="487.344158" transform="rotate(-0, 101, 487.344158)">2.0</text>
     </g>
    </g>
    <g id="ytick_25">
     <g id="line2d_55">
      <g>
       <use xlink:href="#m5bc75b076b" x="108" y="447.094767" style="stroke: #000000; stroke-width: 0.8"/>
      </g>
     </g>
     <g id="text_53">
      <text style="font: 10px 'sans-serif'; text-anchor: end" x="101" y="450.893986" transform="rotate(-0, 101, 450.893986)">2.5</text>
     </g>
    </g>
    <g id="ytick_26">
     <g id="line2d_56">
      <g>
       <use xlink:href="#m5bc75b076b" x="108" y="410.644594" style="stroke: #000000; stroke-width: 0.8"/>
      </g>
     </g>
     <g id="text_54">
      <text style="font: 10px 'sans-serif'; text-anchor: end" x="101" y="414.443813" transform="rotate(-0, 101, 414.443813)">3.0</text>
     </g>
    </g>
    <g id="text_55">
     <text style="font: 10px 'sans-serif'; text-anchor: start" x="108" y="385.8" transform="rotate(-0, 108, 385.8)">1e6</text>
    </g>
   </g>
   <g id="line2d_57">
    <path d="M 116.951872 400.254545 
L 120.038657 404.713203 
L 123.125559 409.673999 
L 126.212344 412.620267 
L 129.299247 415.437282 
L 132.386032 419.310112 
L 135.472934 420.183604 
L 138.559837 426.539421 
L 141.646622 430.00124 
L 144.733524 432.993799 
L 147.82031 436.703552 
L 150.907212 439.835205 
L 153.994115 444.021507 
L 157.0809 447.865469 
L 160.167802 451.909033 
L 163.254587 454.568292 
L 166.341466 458.749637 
L 169.428322 462.801292 
L 172.515177 467.019889 
L 175.602033 471.617349 
L 178.688888 475.663246 
L 181.775732 479.861358 
L 184.862588 484.086953 
L 187.949443 488.484375 
L 191.036299 492.261342 
L 194.123154 497.191228 
L 197.209998 502.248616 
L 200.296854 506.536542 
L 203.383709 511.459283 
L 206.470565 516.53898 
L 209.55742 521.063977 
L 212.644264 525.679225 
L 215.73112 530.475411 
L 218.817975 535.341218 
L 221.904831 538.988349 
L 224.991686 543.724466 
L 228.07853 548.476256 
L 231.165386 553.674561 
L 234.252241 558.391476 
L 237.339097 563.251749 
L 240.42594 567.940218 
L 243.512796 572.699124 
L 246.599651 576.326667 
L 249.686507 581.309106 
L 252.773363 586.033894 
L 255.860206 589.378249 
L 258.947062 593.664774 
L 262.033917 597.603551 
L 265.120773 601.599051 
L 268.207628 605.397648 
L 271.294477 609.131676 
L 274.38133 612.597789 
L 277.468183 615.93298 
L 280.555037 619.033621 
L 283.64189 621.907403 
L 286.728743 624.42059 
L 289.815596 626.636462 
L 292.902449 628.377025 
L 295.989305 629.34355 
" clip-path="url(#pbbaaf72da1)" style="fill: none; stroke: #ff0000; stroke-width: 1.5; stroke-linecap: square"/>
   </g>
   <g id="line2d_58">
    <path d="M 116.951872 403.67882 
L 120.038657 406.028107 
L 123.125559 408.449711 
L 126.212344 413.450529 
L 129.299247 416.674036 
L 132.386032 419.957686 
L 135.472934 425.100295 
L 138.559837 425.511453 
L 141.646622 429.069063 
L 144.733524 432.439756 
L 147.82031 435.854554 
L 150.907212 439.587343 
L 153.994115 443.184392 
L 157.0809 447.126843 
L 160.167802 450.476322 
L 163.254587 455.375444 
L 166.341466 458.871307 
L 169.428322 462.648784 
L 172.515177 466.782817 
L 175.602033 470.47121 
L 178.688888 475.462114 
L 181.775732 480.191159 
L 184.862588 484.252583 
L 187.949443 488.602984 
L 191.036299 493.631285 
L 194.123154 497.412553 
L 197.209998 502.193722 
L 200.296854 506.58451 
L 203.383709 511.287895 
L 206.470565 515.711342 
L 209.55742 520.398761 
L 212.644264 525.151353 
L 215.73112 530.034364 
L 218.817975 534.941214 
L 221.904831 539.862862 
L 224.991686 545.100752 
L 228.07853 549.887315 
L 231.165386 553.826923 
L 234.252241 558.206105 
L 237.339097 562.253678 
L 240.42594 566.119233 
L 243.512796 570.974352 
L 246.599651 575.846363 
L 249.686507 580.251184 
L 252.773363 584.510387 
L 255.860206 589.03265 
L 258.947062 593.057916 
L 262.033917 597.578954 
L 265.120773 601.487033 
L 268.207628 605.372993 
L 271.294477 608.979016 
L 274.38133 612.551643 
L 277.468183 615.867005 
L 280.555037 618.996135 
L 283.64189 621.812334 
L 286.728743 624.424879 
L 289.815596 626.617799 
L 292.902449 628.349666 
L 295.989305 629.343068 
" clip-path="url(#pbbaaf72da1)" style="fill: none; stroke: #008000; stroke-width: 1.5; stroke-linecap: square"/>
   </g>
   <g id="line2d_59">
    <path d="M 116.951872 549.787442 
L 120.038657 553.472117 
L 123.125559 556.870673 
L 126.212344 559.909458 
L 129.299247 562.646997 
L 132.386032 565.079951 
L 135.472934 568.169679 
L 138.559837 570.938048 
L 141.646622 573.020206 
L 144.733524 575.484719 
L 147.82031 577.75294 
L 150.907212 580.0146 
L 153.994115 581.879807 
L 157.0809 583.685913 
L 160.167802 585.655323 
L 163.254587 587.893743 
L 166.341466 589.732165 
L 169.428322 591.544169 
L 172.515177 593.216722 
L 175.602033 595.022033 
L 178.688888 596.250484 
L 181.775732 597.564892 
L 184.862588 599.388414 
L 187.949443 600.965183 
L 191.036299 602.472193 
L 194.123154 604.028288 
L 197.209998 604.964168 
L 200.296854 606.595954 
L 203.383709 607.63598 
L 206.470565 608.826085 
L 209.55742 610.079417 
L 212.644264 611.20911 
L 215.73112 612.212102 
L 218.817975 613.145416 
L 221.904831 614.624294 
L 224.991686 615.392948 
L 228.07853 616.30335 
L 231.165386 617.379906 
L 234.252241 618.381636 
L 237.339097 619.401636 
L 240.42594 620.518892 
L 243.512796 621.08898 
L 246.599651 622.077091 
L 249.686507 622.587746 
L 252.773363 623.197457 
L 255.860206 624.148076 
L 258.947062 624.821808 
L 262.033917 625.08138 
L 265.120773 625.676902 
L 268.207628 626.219444 
L 271.294477 626.748656 
L 274.38133 627.227866 
L 277.468183 627.673212 
L 280.555037 628.076877 
L 283.64189 628.450377 
L 286.728743 628.769961 
L 289.815596 629.033184 
L 292.902449 629.234196 
L 295.989305 629.345455 
" clip-path="url(#pbbaaf72da1)" style="fill: none; stroke: #0000ff; stroke-width: 1.5; stroke-linecap: square"/>
   </g>
   <g id="patch_21">
    <path d="M 108 640.8 
L 108 388.8 
" style="fill: none; stroke: #000000; stroke-width: 0.8; stroke-linejoin: miter; stroke-linecap: square"/>
   </g>
   <g id="patch_22">
    <path d="M 304.941176 640.8 
L 304.941176 388.8 
" style="fill: none; stroke: #000000; stroke-width: 0.8; stroke-linejoin: miter; stroke-linecap: square"/>
   </g>
   <g id="patch_23">
    <path d="M 108 640.8 
L 304.941176 640.8 
" style="fill: none; stroke: #000000; stroke-width: 0.8; stroke-linejoin: miter; stroke-linecap: square"/>
   </g>
   <g id="patch_24">
    <path d="M 108 388.8 
L 304.941176 388.8 
" style="fill: none; stroke: #000000; stroke-width: 0.8; stroke-linejoin: miter; stroke-linecap: square"/>
   </g>
   <g id="text_56">
    <text style="font: 12px 'sans-serif'; text-anchor: middle" x="206.470588" y="382.8" transform="rotate(-0, 206.470588, 382.8)">eps = 0.000100</text>
   </g>
   <g id="legend_4">
    <g id="patch_25">
     <path d="M 254.103676 440.834375 
L 297.941176 440.834375 
Q 299.941176 440.834375 299.941176 438.834375 
L 299.941176 395.8 
Q 299.941176 393.8 297.941176 393.8 
L 254.103676 393.8 
Q 252.103676 393.8 252.103676 395.8 
L 252.103676 438.834375 
Q 252.103676 440.834375 254.103676 440.834375 
z
" style="fill: #ffffff; opacity: 0.8; stroke: #cccccc; stroke-linejoin: miter"/>
    </g>
    <g id="line2d_60">
     <path d="M 256.103676 401.898438 
L 266.103676 401.898438 
L 276.103676 401.898438 
" style="fill: none; stroke: #ff0000; stroke-width: 1.5; stroke-linecap: square"/>
    </g>
    <g id="text_57">
     <text style="font: 10px 'sans-serif'; text-anchor: start" x="284.103676" y="405.398438" transform="rotate(-0, 284.103676, 405.398438)">xx</text>
    </g>
    <g id="line2d_61">
     <path d="M 256.103676 416.576563 
L 266.103676 416.576563 
L 276.103676 416.576563 
" style="fill: none; stroke: #008000; stroke-width: 1.5; stroke-linecap: square"/>
    </g>
    <g id="text_58">
     <text style="font: 10px 'sans-serif'; text-anchor: start" x="284.103676" y="420.076563" transform="rotate(-0, 284.103676, 420.076563)">yy</text>
    </g>
    <g id="line2d_62">
     <path d="M 256.103676 431.254687 
L 266.103676 431.254687 
L 276.103676 431.254687 
" style="fill: none; stroke: #0000ff; stroke-width: 1.5; stroke-linecap: square"/>
    </g>
    <g id="text_59">
     <text style="font: 10px 'sans-serif'; text-anchor: start" x="284.103676" y="434.754687" transform="rotate(-0, 284.103676, 434.754687)">zz</text>
    </g>
   </g>
  </g>
  <g id="axes_5">
   <g id="patch_26">
    <path d="M 344.329412 640.8 
L 541.270588 640.8 
L 541.270588 388.8 
L 344.329412 388.8 
z
" style="fill: #ffffff"/>
   </g>
   <g id="matplotlib.axis_9">
    <g id="xtick_13">
     <g id="line2d_63">
      <g>
       <use xlink:href="#mc51dffec47" x="400.726134" y="640.8" style="stroke: #000000; stroke-width: 0.8"/>
      </g>
     </g>
     <g id="text_60">
      <text style="font: 10px 'sans-serif'; text-anchor: middle" x="400.726134" y="655.398438" transform="rotate(-0, 400.726134, 655.398438)">−0.10</text>
     </g>
    </g>
    <g id="xtick_14">
     <g id="line2d_64">
      <g>
       <use xlink:href="#mc51dffec47" x="459.483987" y="640.8" style="stroke: #000000; stroke-width: 0.8"/>
      </g>
     </g>
     <g id="text_61">
      <text style="font: 10px 'sans-serif'; text-anchor: middle" x="459.483987" y="655.398438" transform="rotate(-0, 459.483987, 655.398438)">−0.05</text>
     </g>
    </g>
    <g id="xtick_15">
     <g id="line2d_65">
      <g>
       <use xlink:href="#mc51dffec47" x="518.241839" y="640.8" style="stroke: #000000; stroke-width: 0.8"/>
      </g>
     </g>
     <g id="text_62">
      <text style="font: 10px 'sans-serif'; text-anchor: middle" x="518.241839" y="655.398438" transform="rotate(-0, 518.241839, 655.398438)">0.00</text>
     </g>
    </g>
    <g id="text_63">
     <text style="font: 10px 'sans-serif'; text-anchor: middle" x="442.8" y="669.076563" transform="rotate(-0, 442.8, 669.076563)">mu</text>
    </g>
   </g>
   <g id="matplotlib.axis_10">
    <g id="ytick_27">
     <g id="line2d_66">
      <g>
       <use xlink:href="#m5bc75b076b" x="344.329412" y="629.34563" style="stroke: #000000; stroke-width: 0.8"/>
      </g>
     </g>
     <g id="text_64">
      <text style="font: 10px 'sans-serif'; text-anchor: end" x="337.329412" y="633.144848" transform="rotate(-0, 337.329412, 633.144848)">0.0</text>
     </g>
    </g>
    <g id="ytick_28">
     <g id="line2d_67">
      <g>
       <use xlink:href="#m5bc75b076b" x="344.329412" y="592.895399" style="stroke: #000000; stroke-width: 0.8"/>
      </g>
     </g>
     <g id="text_65">
      <text style="font: 10px 'sans-serif'; text-anchor: end" x="337.329412" y="596.694618" transform="rotate(-0, 337.329412, 596.694618)">0.5</text>
     </g>
    </g>
    <g id="ytick_29">
     <g id="line2d_68">
      <g>
       <use xlink:href="#m5bc75b076b" x="344.329412" y="556.445168" style="stroke: #000000; stroke-width: 0.8"/>
      </g>
     </g>
     <g id="text_66">
      <text style="font: 10px 'sans-serif'; text-anchor: end" x="337.329412" y="560.244387" transform="rotate(-0, 337.329412, 560.244387)">1.0</text>
     </g>
    </g>
    <g id="ytick_30">
     <g id="line2d_69">
      <g>
       <use xlink:href="#m5bc75b076b" x="344.329412" y="519.994938" style="stroke: #000000; stroke-width: 0.8"/>
      </g>
     </g>
     <g id="text_67">
      <text style="font: 10px 'sans-serif'; text-anchor: end" x="337.329412" y="523.794157" transform="rotate(-0, 337.329412, 523.794157)">1.5</text>
     </g>
    </g>
    <g id="ytick_31">
     <g id="line2d_70">
      <g>
       <use xlink:href="#m5bc75b076b" x="344.329412" y="483.544707" style="stroke: #000000; stroke-width: 0.8"/>
      </g>
     </g>
     <g id="text_68">
      <text style="font: 10px 'sans-serif'; text-anchor: end" x="337.329412" y="487.343926" transform="rotate(-0, 337.329412, 487.343926)">2.0</text>
     </g>
    </g>
    <g id="ytick_32">
     <g id="line2d_71">
      <g>
       <use xlink:href="#m5bc75b076b" x="344.329412" y="447.094477" style="stroke: #000000; stroke-width: 0.8"/>
      </g>
     </g>
     <g id="text_69">
      <text style="font: 10px 'sans-serif'; text-anchor: end" x="337.329412" y="450.893696" transform="rotate(-0, 337.329412, 450.893696)">2.5</text>
     </g>
    </g>
    <g id="ytick_33">
     <g id="line2d_72">
      <g>
       <use xlink:href="#m5bc75b076b" x="344.329412" y="410.644246" style="stroke: #000000; stroke-width: 0.8"/>
      </g>
     </g>
     <g id="text_70">
      <text style="font: 10px 'sans-serif'; text-anchor: end" x="337.329412" y="414.443465" transform="rotate(-0, 337.329412, 414.443465)">3.0</text>
     </g>
    </g>
    <g id="text_71">
     <text style="font: 10px 'sans-serif'; text-anchor: start" x="344.329412" y="385.8" transform="rotate(-0, 344.329412, 385.8)">1e8</text>
    </g>
   </g>
   <g id="line2d_73">
    <path d="M 353.281283 400.254545 
L 356.368068 404.713211 
L 359.454971 409.674014 
L 362.541756 412.620286 
L 365.628659 415.437306 
L 368.715444 419.310143 
L 371.802346 420.183636 
L 374.889249 426.53939 
L 377.976034 430.001141 
L 381.062936 432.993778 
L 384.149721 436.703464 
L 387.236624 439.835195 
L 390.323526 444.021431 
L 393.410311 447.865399 
L 396.497214 451.908969 
L 399.583999 454.568232 
L 402.670878 458.749584 
L 405.757734 462.801246 
L 408.844589 467.01985 
L 411.931445 471.617244 
L 415.0183 475.66322 
L 418.105144 479.861339 
L 421.191999 484.086941 
L 424.278855 488.48437 
L 427.365711 492.26127 
L 430.452566 497.191163 
L 433.53941 502.24856 
L 436.626265 506.536565 
L 439.713121 511.459242 
L 442.799976 516.538946 
L 445.886832 521.06395 
L 448.973676 525.679206 
L 452.060531 530.4754 
L 455.147387 535.341141 
L 458.234242 538.988351 
L 461.321098 543.724475 
L 464.407942 548.476273 
L 467.494797 553.674586 
L 470.581653 558.391465 
L 473.668508 563.251746 
L 476.755352 567.940223 
L 479.842208 572.699135 
L 482.929063 576.326677 
L 486.015919 581.309117 
L 489.102774 586.033913 
L 492.189618 589.378273 
L 495.276474 593.664798 
L 498.363329 597.603573 
L 501.450185 601.59908 
L 504.53704 605.397682 
L 507.623889 609.13171 
L 510.710742 612.59782 
L 513.797595 615.933016 
L 516.884448 619.033655 
L 519.971301 621.907435 
L 523.058155 624.420621 
L 526.145008 626.63649 
L 529.231861 628.377046 
L 532.318717 629.343553 
" clip-path="url(#p55cffd82c1)" style="fill: none; stroke: #ff0000; stroke-width: 1.5; stroke-linecap: square"/>
   </g>
   <g id="line2d_74">
    <path d="M 353.281283 403.678826 
L 356.368068 406.028189 
L 359.454971 408.449724 
L 362.541756 413.45055 
L 365.628659 416.674062 
L 368.715444 419.957645 
L 371.802346 425.100262 
L 374.889249 425.511421 
L 377.976034 429.069036 
L 381.062936 432.439662 
L 384.149721 435.854465 
L 387.236624 439.58726 
L 390.323526 443.184315 
L 393.410311 447.126772 
L 396.497214 450.476256 
L 399.583999 455.375386 
L 402.670878 458.871255 
L 405.757734 462.648738 
L 408.844589 466.782704 
L 411.931445 470.471176 
L 415.0183 475.462087 
L 418.105144 480.19114 
L 421.191999 484.252571 
L 424.278855 488.602906 
L 427.365711 493.631215 
L 430.452566 497.412489 
L 433.53941 502.193666 
L 436.626265 506.584461 
L 439.713121 511.287853 
L 442.799976 515.711307 
L 445.886832 520.398734 
L 448.973676 525.151333 
L 452.060531 530.034279 
L 455.147387 534.941136 
L 458.234242 539.862865 
L 461.321098 545.10069 
L 464.407942 549.887262 
L 467.494797 553.826948 
L 470.581653 558.206094 
L 473.668508 562.253673 
L 476.755352 566.119235 
L 479.842208 570.974354 
L 482.929063 575.846372 
L 486.015919 580.251193 
L 489.102774 584.510395 
L 492.189618 589.032673 
L 495.276474 593.057938 
L 498.363329 597.578977 
L 501.450185 601.487061 
L 504.53704 605.37302 
L 507.623889 608.979049 
L 510.710742 612.551674 
L 513.797595 615.867041 
L 516.884448 618.99617 
L 519.971301 621.812366 
L 523.058155 624.42491 
L 526.145008 626.617827 
L 529.231861 628.349687 
L 532.318717 629.343071 
" clip-path="url(#p55cffd82c1)" style="fill: none; stroke: #008000; stroke-width: 1.5; stroke-linecap: square"/>
   </g>
   <g id="line2d_75">
    <path d="M 353.281283 549.787388 
L 356.368068 553.471996 
L 359.454971 556.870594 
L 362.541756 559.909384 
L 365.628659 562.64692 
L 368.715444 565.079878 
L 371.802346 568.169604 
L 374.889249 570.937984 
L 377.976034 573.020138 
L 381.062936 575.484662 
L 384.149721 577.75288 
L 387.236624 580.014544 
L 390.323526 581.879753 
L 393.410311 583.685862 
L 396.497214 585.655275 
L 399.583999 587.893698 
L 402.670878 589.732117 
L 405.757734 591.544123 
L 408.844589 593.216679 
L 411.931445 595.021993 
L 415.0183 596.250439 
L 418.105144 597.564856 
L 421.191999 599.388381 
L 424.278855 600.965152 
L 427.365711 602.472165 
L 430.452566 604.028262 
L 433.53941 604.964143 
L 436.626265 606.595925 
L 439.713121 607.63596 
L 442.799976 608.82606 
L 445.886832 610.079394 
L 448.973676 611.209096 
L 452.060531 612.212082 
L 455.147387 613.145398 
L 458.234242 614.624278 
L 461.321098 615.392933 
L 464.407942 616.303336 
L 467.494797 617.379894 
L 470.581653 618.381626 
L 473.668508 619.401628 
L 476.755352 620.518886 
L 479.842208 621.088967 
L 482.929063 622.077085 
L 486.015919 622.58774 
L 489.102774 623.197451 
L 492.189618 624.148071 
L 495.276474 624.821805 
L 498.363329 625.081377 
L 501.450185 625.676899 
L 504.53704 626.219442 
L 507.623889 626.748655 
L 510.710742 627.227865 
L 513.797595 627.673212 
L 516.884448 628.076877 
L 519.971301 628.450378 
L 523.058155 628.769961 
L 526.145008 629.033185 
L 529.231861 629.234197 
L 532.318717 629.345455 
" clip-path="url(#p55cffd82c1)" style="fill: none; stroke: #0000ff; stroke-width: 1.5; stroke-linecap: square"/>
   </g>
   <g id="patch_27">
    <path d="M 344.329412 640.8 
L 344.329412 388.8 
" style="fill: none; stroke: #000000; stroke-width: 0.8; stroke-linejoin: miter; stroke-linecap: square"/>
   </g>
   <g id="patch_28">
    <path d="M 541.270588 640.8 
L 541.270588 388.8 
" style="fill: none; stroke: #000000; stroke-width: 0.8; stroke-linejoin: miter; stroke-linecap: square"/>
   </g>
   <g id="patch_29">
    <path d="M 344.329412 640.8 
L 541.270588 640.8 
" style="fill: none; stroke: #000000; stroke-width: 0.8; stroke-linejoin: miter; stroke-linecap: square"/>
   </g>
   <g id="patch_30">
    <path d="M 344.329412 388.8 
L 541.270588 388.8 
" style="fill: none; stroke: #000000; stroke-width: 0.8; stroke-linejoin: miter; stroke-linecap: square"/>
   </g>
   <g id="text_72">
    <text style="font: 12px 'sans-serif'; text-anchor: middle" x="442.8" y="382.8" transform="rotate(-0, 442.8, 382.8)">eps = 0.000010</text>
   </g>
   <g id="legend_5">
    <g id="patch_31">
     <path d="M 490.433088 440.834375 
L 534.270588 440.834375 
Q 536.270588 440.834375 536.270588 438.834375 
L 536.270588 395.8 
Q 536.270588 393.8 534.270588 393.8 
L 490.433088 393.8 
Q 488.433088 393.8 488.433088 395.8 
L 488.433088 438.834375 
Q 488.433088 440.834375 490.433088 440.834375 
z
" style="fill: #ffffff; opacity: 0.8; stroke: #cccccc; stroke-linejoin: miter"/>
    </g>
    <g id="line2d_76">
     <path d="M 492.433088 401.898438 
L 502.433088 401.898438 
L 512.433088 401.898438 
" style="fill: none; stroke: #ff0000; stroke-width: 1.5; stroke-linecap: square"/>
    </g>
    <g id="text_73">
     <text style="font: 10px 'sans-serif'; text-anchor: start" x="520.433088" y="405.398438" transform="rotate(-0, 520.433088, 405.398438)">xx</text>
    </g>
    <g id="line2d_77">
     <path d="M 492.433088 416.576563 
L 502.433088 416.576563 
L 512.433088 416.576563 
" style="fill: none; stroke: #008000; stroke-width: 1.5; stroke-linecap: square"/>
    </g>
    <g id="text_74">
     <text style="font: 10px 'sans-serif'; text-anchor: start" x="520.433088" y="420.076563" transform="rotate(-0, 520.433088, 420.076563)">yy</text>
    </g>
    <g id="line2d_78">
     <path d="M 492.433088 431.254687 
L 502.433088 431.254687 
L 512.433088 431.254687 
" style="fill: none; stroke: #0000ff; stroke-width: 1.5; stroke-linecap: square"/>
    </g>
    <g id="text_75">
     <text style="font: 10px 'sans-serif'; text-anchor: start" x="520.433088" y="434.754687" transform="rotate(-0, 520.433088, 434.754687)">zz</text>
    </g>
   </g>
  </g>
  <g id="axes_6">
   <g id="patch_32">
    <path d="M 580.658824 640.8 
L 777.6 640.8 
L 777.6 388.8 
L 580.658824 388.8 
z
" style="fill: #ffffff"/>
   </g>
   <g id="matplotlib.axis_11">
    <g id="xtick_16">
     <g id="line2d_79">
      <g>
       <use xlink:href="#mc51dffec47" x="637.055546" y="640.8" style="stroke: #000000; stroke-width: 0.8"/>
      </g>
     </g>
     <g id="text_76">
      <text style="font: 10px 'sans-serif'; text-anchor: middle" x="637.055546" y="655.398438" transform="rotate(-0, 637.055546, 655.398438)">−0.10</text>
     </g>
    </g>
    <g id="xtick_17">
     <g id="line2d_80">
      <g>
       <use xlink:href="#mc51dffec47" x="695.813398" y="640.8" style="stroke: #000000; stroke-width: 0.8"/>
      </g>
     </g>
     <g id="text_77">
      <text style="font: 10px 'sans-serif'; text-anchor: middle" x="695.813398" y="655.398438" transform="rotate(-0, 695.813398, 655.398438)">−0.05</text>
     </g>
    </g>
    <g id="xtick_18">
     <g id="line2d_81">
      <g>
       <use xlink:href="#mc51dffec47" x="754.571251" y="640.8" style="stroke: #000000; stroke-width: 0.8"/>
      </g>
     </g>
     <g id="text_78">
      <text style="font: 10px 'sans-serif'; text-anchor: middle" x="754.571251" y="655.398438" transform="rotate(-0, 754.571251, 655.398438)">0.00</text>
     </g>
    </g>
    <g id="text_79">
     <text style="font: 10px 'sans-serif'; text-anchor: middle" x="679.129412" y="669.076563" transform="rotate(-0, 679.129412, 669.076563)">mu</text>
    </g>
   </g>
   <g id="matplotlib.axis_12">
    <g id="ytick_34">
     <g id="line2d_82">
      <g>
       <use xlink:href="#m5bc75b076b" x="580.658824" y="629.34563" style="stroke: #000000; stroke-width: 0.8"/>
      </g>
     </g>
     <g id="text_80">
      <text style="font: 10px 'sans-serif'; text-anchor: end" x="573.658824" y="633.144848" transform="rotate(-0, 573.658824, 633.144848)">0.0</text>
     </g>
    </g>
    <g id="ytick_35">
     <g id="line2d_83">
      <g>
       <use xlink:href="#m5bc75b076b" x="580.658824" y="592.895271" style="stroke: #000000; stroke-width: 0.8"/>
      </g>
     </g>
     <g id="text_81">
      <text style="font: 10px 'sans-serif'; text-anchor: end" x="573.658824" y="596.69449" transform="rotate(-0, 573.658824, 596.69449)">0.5</text>
     </g>
    </g>
    <g id="ytick_36">
     <g id="line2d_84">
      <g>
       <use xlink:href="#m5bc75b076b" x="580.658824" y="556.444913" style="stroke: #000000; stroke-width: 0.8"/>
      </g>
     </g>
     <g id="text_82">
      <text style="font: 10px 'sans-serif'; text-anchor: end" x="573.658824" y="560.244132" transform="rotate(-0, 573.658824, 560.244132)">1.0</text>
     </g>
    </g>
    <g id="ytick_37">
     <g id="line2d_85">
      <g>
       <use xlink:href="#m5bc75b076b" x="580.658824" y="519.994555" style="stroke: #000000; stroke-width: 0.8"/>
      </g>
     </g>
     <g id="text_83">
      <text style="font: 10px 'sans-serif'; text-anchor: end" x="573.658824" y="523.793774" transform="rotate(-0, 573.658824, 523.793774)">1.5</text>
     </g>
    </g>
    <g id="ytick_38">
     <g id="line2d_86">
      <g>
       <use xlink:href="#m5bc75b076b" x="580.658824" y="483.544197" style="stroke: #000000; stroke-width: 0.8"/>
      </g>
     </g>
     <g id="text_84">
      <text style="font: 10px 'sans-serif'; text-anchor: end" x="573.658824" y="487.343416" transform="rotate(-0, 573.658824, 487.343416)">2.0</text>
     </g>
    </g>
    <g id="ytick_39">
     <g id="line2d_87">
      <g>
       <use xlink:href="#m5bc75b076b" x="580.658824" y="447.093839" style="stroke: #000000; stroke-width: 0.8"/>
      </g>
     </g>
     <g id="text_85">
      <text style="font: 10px 'sans-serif'; text-anchor: end" x="573.658824" y="450.893058" transform="rotate(-0, 573.658824, 450.893058)">2.5</text>
     </g>
    </g>
    <g id="ytick_40">
     <g id="line2d_88">
      <g>
       <use xlink:href="#m5bc75b076b" x="580.658824" y="410.643481" style="stroke: #000000; stroke-width: 0.8"/>
      </g>
     </g>
     <g id="text_86">
      <text style="font: 10px 'sans-serif'; text-anchor: end" x="573.658824" y="414.442699" transform="rotate(-0, 573.658824, 414.442699)">3.0</text>
     </g>
    </g>
    <g id="text_87">
     <text style="font: 10px 'sans-serif'; text-anchor: start" x="580.658824" y="385.8" transform="rotate(-0, 580.658824, 385.8)">1e10</text>
    </g>
   </g>
   <g id="line2d_89">
    <path d="M 589.610695 400.254545 
L 592.69748 404.713226 
L 595.784383 409.673974 
L 598.871168 412.620257 
L 601.95807 415.437359 
L 605.044855 419.310282 
L 608.131758 420.183706 
L 611.21866 426.539482 
L 614.305445 430.001245 
L 617.392348 432.993893 
L 620.479133 436.703591 
L 623.566036 439.83526 
L 626.652938 444.021584 
L 629.739723 447.865566 
L 632.826626 451.90915 
L 635.913411 454.568349 
L 639.00029 458.749789 
L 642.087145 462.801465 
L 645.174001 467.02001 
L 648.260856 471.617494 
L 651.347712 475.663411 
L 654.434556 479.861544 
L 657.521411 484.087162 
L 660.608267 488.484533 
L 663.695122 492.261592 
L 666.781978 497.19143 
L 669.868822 502.248771 
L 672.955677 506.536718 
L 676.042533 511.459485 
L 679.129388 516.539134 
L 682.216244 521.064154 
L 685.303088 525.679426 
L 688.389943 530.475637 
L 691.476799 535.341395 
L 694.563654 538.988472 
L 697.65051 543.724613 
L 700.737354 548.476428 
L 703.824209 553.674686 
L 706.911065 558.391574 
L 709.99792 563.251865 
L 713.084764 567.940292 
L 716.171619 572.699222 
L 719.258475 576.326739 
L 722.345331 581.309161 
L 725.432186 586.033958 
L 728.51903 589.378315 
L 731.605885 593.664833 
L 734.692741 597.603593 
L 737.779596 601.599092 
L 740.866452 605.397686 
L 743.9533 609.131712 
L 747.040154 612.597813 
L 750.127007 615.933006 
L 753.21386 619.033648 
L 756.300713 621.907424 
L 759.387566 624.420612 
L 762.47442 626.636484 
L 765.561273 628.377044 
L 768.648128 629.343553 
" clip-path="url(#p8eb16980dc)" style="fill: none; stroke: #ff0000; stroke-width: 1.5; stroke-linecap: square"/>
   </g>
   <g id="line2d_90">
    <path d="M 589.610695 403.678838 
L 592.69748 406.028209 
L 595.784383 408.449679 
L 598.871168 413.450523 
L 601.95807 416.67412 
L 605.044855 419.957787 
L 608.131758 425.100349 
L 611.21866 425.511582 
L 614.305445 429.069064 
L 617.392348 432.439847 
L 620.479133 435.85459 
L 623.566036 439.587398 
L 626.652938 443.184465 
L 629.739723 447.126936 
L 632.826626 450.476432 
L 635.913411 455.375579 
L 639.00029 458.87146 
L 642.087145 462.648956 
L 645.174001 466.782937 
L 648.260856 470.471349 
L 651.347712 475.462278 
L 654.434556 480.191347 
L 657.521411 484.252792 
L 660.608267 488.603069 
L 663.695122 493.631469 
L 666.781978 497.412756 
L 669.868822 502.193877 
L 672.955677 506.584614 
L 676.042533 511.288023 
L 679.129388 515.711492 
L 682.216244 520.398935 
L 685.303088 525.151479 
L 688.389943 530.034515 
L 691.476799 534.941316 
L 694.563654 539.863062 
L 697.65051 545.100906 
L 700.737354 549.887494 
L 703.824209 553.827049 
L 706.911065 558.206209 
L 709.99792 562.253774 
L 713.084764 566.119341 
L 716.171619 570.974434 
L 719.258475 575.846447 
L 722.345331 580.251262 
L 725.432186 584.510442 
L 728.51903 589.032693 
L 731.605885 593.057957 
L 734.692741 597.578997 
L 737.779596 601.487073 
L 740.866452 605.373024 
L 743.9533 608.97905 
L 747.040154 612.551674 
L 750.127007 615.867031 
L 753.21386 618.996163 
L 756.300713 621.812354 
L 759.387566 624.424901 
L 762.47442 626.61782 
L 765.561273 628.349685 
L 768.648128 629.343071 
" clip-path="url(#p8eb16980dc)" style="fill: none; stroke: #008000; stroke-width: 1.5; stroke-linecap: square"/>
   </g>
   <g id="line2d_91">
    <path d="M 589.610695 549.787328 
L 592.69748 553.472022 
L 595.784383 556.870588 
L 598.871168 559.909381 
L 601.95807 562.646913 
L 605.044855 565.079887 
L 608.131758 568.169608 
L 611.21866 570.937984 
L 614.305445 573.020145 
L 617.392348 575.48467 
L 620.479133 577.752889 
L 623.566036 580.014561 
L 626.652938 581.879762 
L 629.739723 583.685884 
L 632.826626 585.655297 
L 635.913411 587.893714 
L 639.00029 589.732139 
L 642.087145 591.544137 
L 645.174001 593.216691 
L 648.260856 595.022011 
L 651.347712 596.250447 
L 654.434556 597.564869 
L 657.521411 599.388385 
L 660.608267 600.965162 
L 663.695122 602.472173 
L 666.781978 604.028268 
L 669.868822 604.964145 
L 672.955677 606.595933 
L 676.042533 607.635971 
L 679.129388 608.826068 
L 682.216244 610.079399 
L 685.303088 611.209098 
L 688.389943 612.212088 
L 691.476799 613.145399 
L 694.563654 614.624285 
L 697.65051 615.392928 
L 700.737354 616.303334 
L 703.824209 617.379888 
L 706.911065 618.381624 
L 709.99792 619.401629 
L 713.084764 620.518884 
L 716.171619 621.088967 
L 719.258475 622.077083 
L 722.345331 622.587736 
L 725.432186 623.197447 
L 728.51903 624.148067 
L 731.605885 624.821801 
L 734.692741 625.081373 
L 737.779596 625.676895 
L 740.866452 626.219438 
L 743.9533 626.748651 
L 747.040154 627.227862 
L 750.127007 627.673208 
L 753.21386 628.076874 
L 756.300713 628.450375 
L 759.387566 628.76996 
L 762.47442 629.033184 
L 765.561273 629.234196 
L 768.648128 629.345455 
" clip-path="url(#p8eb16980dc)" style="fill: none; stroke: #0000ff; stroke-width: 1.5; stroke-linecap: square"/>
   </g>
   <g id="patch_33">
    <path d="M 580.658824 640.8 
L 580.658824 388.8 
" style="fill: none; stroke: #000000; stroke-width: 0.8; stroke-linejoin: miter; stroke-linecap: square"/>
   </g>
   <g id="patch_34">
    <path d="M 777.6 640.8 
L 777.6 388.8 
" style="fill: none; stroke: #000000; stroke-width: 0.8; stroke-linejoin: miter; stroke-linecap: square"/>
   </g>
   <g id="patch_35">
    <path d="M 580.658824 640.8 
L 777.6 640.8 
" style="fill: none; stroke: #000000; stroke-width: 0.8; stroke-linejoin: miter; stroke-linecap: square"/>
   </g>
   <g id="patch_36">
    <path d="M 580.658824 388.8 
L 777.6 388.8 
" style="fill: none; stroke: #000000; stroke-width: 0.8; stroke-linejoin: miter; stroke-linecap: square"/>
   </g>
   <g id="text_88">
    <text style="font: 12px 'sans-serif'; text-anchor: middle" x="679.129412" y="382.8" transform="rotate(-0, 679.129412, 382.8)">eps = 0.000001</text>
   </g>
   <g id="legend_6">
    <g id="patch_37">
     <path d="M 726.7625 440.834375 
L 770.6 440.834375 
Q 772.6 440.834375 772.6 438.834375 
L 772.6 395.8 
Q 772.6 393.8 770.6 393.8 
L 726.7625 393.8 
Q 724.7625 393.8 724.7625 395.8 
L 724.7625 438.834375 
Q 724.7625 440.834375 726.7625 440.834375 
z
" style="fill: #ffffff; opacity: 0.8; stroke: #cccccc; stroke-linejoin: miter"/>
    </g>
    <g id="line2d_92">
     <path d="M 728.7625 401.898438 
L 738.7625 401.898438 
L 748.7625 401.898438 
" style="fill: none; stroke: #ff0000; stroke-width: 1.5; stroke-linecap: square"/>
    </g>
    <g id="text_89">
     <text style="font: 10px 'sans-serif'; text-anchor: start" x="756.7625" y="405.398438" transform="rotate(-0, 756.7625, 405.398438)">xx</text>
    </g>
    <g id="line2d_93">
     <path d="M 728.7625 416.576563 
L 738.7625 416.576563 
L 748.7625 416.576563 
" style="fill: none; stroke: #008000; stroke-width: 1.5; stroke-linecap: square"/>
    </g>
    <g id="text_90">
     <text style="font: 10px 'sans-serif'; text-anchor: start" x="756.7625" y="420.076563" transform="rotate(-0, 756.7625, 420.076563)">yy</text>
    </g>
    <g id="line2d_94">
     <path d="M 728.7625 431.254687 
L 738.7625 431.254687 
L 748.7625 431.254687 
" style="fill: none; stroke: #0000ff; stroke-width: 1.5; stroke-linecap: square"/>
    </g>
    <g id="text_91">
     <text style="font: 10px 'sans-serif'; text-anchor: start" x="756.7625" y="434.754687" transform="rotate(-0, 756.7625, 434.754687)">zz</text>
    </g>
   </g>
  </g>
 </g>
 <defs>
  <clipPath id="p177e19f7c8">
   <rect x="108" y="86.4" width="196.941176" height="252"/>
  </clipPath>
  <clipPath id="p66d5d52bf6">
   <rect x="344.329412" y="86.4" width="196.941176" height="252"/>
  </clipPath>
  <clipPath id="p9a097ce0ad">
   <rect x="580.658824" y="86.4" width="196.941176" height="252"/>
  </clipPath>
  <clipPath id="pbbaaf72da1">
   <rect x="108" y="388.8" width="196.941176" height="252"/>
  </clipPath>
  <clipPath id="p55cffd82c1">
   <rect x="344.329412" y="388.8" width="196.941176" height="252"/>
  </clipPath>
  <clipPath id="p8eb16980dc">
   <rect x="580.658824" y="388.8" width="196.941176" height="252"/>
  </clipPath>
 </defs>
</svg>
