<?xml version="1.0" encoding="utf-8" standalone="no"?>
<!DOCTYPE svg PUBLIC "-//W3C//DTD SVG 1.1//EN"
  "http://www.w3.org/Graphics/SVG/1.1/DTD/svg11.dtd">
<svg xmlns:xlink="http://www.w3.org/1999/xlink" width="504pt" height="504pt" viewBox="0 0 504 504" xmlns="http://www.w3.org/2000/svg" version="1.1">
 <metadata>
  <rdf:RDF xmlns:dc="http://purl.org/dc/elements/1.1/" xmlns:cc="http://creativecommons.org/ns#" xmlns:rdf="http://www.w3.org/1999/02/22-rdf-syntax-ns#">
   <cc:Work>
    <dc:type rdf:resource="http://purl.org/dc/dcmitype/StillImage"/>
    <dc:date>2022-04-24T20:30:39.242977</dc:date>
    <dc:format>image/svg+xml</dc:format>
    <dc:creator>
     <cc:Agent>
      <dc:title>Matplotlib v3.5.1, https://matplotlib.org/</dc:title>
     </cc:Agent>
    </dc:creator>
   </cc:Work>
  </rdf:RDF>
 </metadata>
 <defs>
  <style type="text/css">*{stroke-linejoin: round; stroke-linecap: butt}</style>
 </defs>
 <g id="figure_1">
  <g id="patch_1">
   <path d="M 0 504 
L 504 504 
L 504 0 
L 0 0 
z
" style="fill: #ffffff"/>
  </g>
  <g id="axes_1">
   <g id="patch_2">
    <path d="M 63 448.56 
L 453.6 448.56 
L 453.6 60.48 
L 63 60.48 
z
" style="fill: #ffffff"/>
   </g>
   <g id="PathCollection_1">
    <defs>
     <path id="C0_0_f8d8655d6d" d="M 0 0.866025 
C 0.229673 0.866025 0.449969 0.774776 0.612372 0.612372 
C 0.774776 0.449969 0.866025 0.229673 0.866025 -0 
C 0.866025 -0.229673 0.774776 -0.449969 0.612372 -0.612372 
C 0.449969 -0.774776 0.229673 -0.866025 0 -0.866025 
C -0.229673 -0.866025 -0.449969 -0.774776 -0.612372 -0.612372 
C -0.774776 -0.449969 -0.866025 -0.229673 -0.866025 0 
C -0.866025 0.229673 -0.774776 0.449969 -0.612372 0.612372 
C -0.449969 0.774776 -0.229673 0.866025 0 0.866025 
z
"/>
    </defs>
    <g clip-path="url(#pf81e272cde)">
     <use xlink:href="#C0_0_f8d8655d6d" x="80.754545" y="95.442162" style="fill: none; stroke: #ff0000"/>
    </g>
    <g clip-path="url(#pf81e272cde)">
     <use xlink:href="#C0_0_f8d8655d6d" x="83.738496" y="102.066575" style="fill: none; stroke: #ff0000"/>
    </g>
    <g clip-path="url(#pf81e272cde)">
     <use xlink:href="#C0_0_f8d8655d6d" x="86.722446" y="107.272365" style="fill: none; stroke: #ff0000"/>
    </g>
    <g clip-path="url(#pf81e272cde)">
     <use xlink:href="#C0_0_f8d8655d6d" x="89.706396" y="113.913394" style="fill: none; stroke: #ff0000"/>
    </g>
    <g clip-path="url(#pf81e272cde)">
     <use xlink:href="#C0_0_f8d8655d6d" x="92.690347" y="118.703001" style="fill: none; stroke: #ff0000"/>
    </g>
    <g clip-path="url(#pf81e272cde)">
     <use xlink:href="#C0_0_f8d8655d6d" x="95.674297" y="124.690211" style="fill: none; stroke: #ff0000"/>
    </g>
    <g clip-path="url(#pf81e272cde)">
     <use xlink:href="#C0_0_f8d8655d6d" x="98.658247" y="130.958918" style="fill: none; stroke: #ff0000"/>
    </g>
    <g clip-path="url(#pf81e272cde)">
     <use xlink:href="#C0_0_f8d8655d6d" x="101.642261" y="136.133301" style="fill: none; stroke: #ff0000"/>
    </g>
    <g clip-path="url(#pf81e272cde)">
     <use xlink:href="#C0_0_f8d8655d6d" x="104.626211" y="141.220693" style="fill: none; stroke: #ff0000"/>
    </g>
    <g clip-path="url(#pf81e272cde)">
     <use xlink:href="#C0_0_f8d8655d6d" x="107.610161" y="146.932031" style="fill: none; stroke: #ff0000"/>
    </g>
    <g clip-path="url(#pf81e272cde)">
     <use xlink:href="#C0_0_f8d8655d6d" x="110.594112" y="151.806073" style="fill: none; stroke: #ff0000"/>
    </g>
    <g clip-path="url(#pf81e272cde)">
     <use xlink:href="#C0_0_f8d8655d6d" x="113.578062" y="158.00309" style="fill: none; stroke: #ff0000"/>
    </g>
    <g clip-path="url(#pf81e272cde)">
     <use xlink:href="#C0_0_f8d8655d6d" x="116.562012" y="164.751196" style="fill: none; stroke: #ff0000"/>
    </g>
    <g clip-path="url(#pf81e272cde)">
     <use xlink:href="#C0_0_f8d8655d6d" x="119.545963" y="169.032737" style="fill: none; stroke: #ff0000"/>
    </g>
    <g clip-path="url(#pf81e272cde)">
     <use xlink:href="#C0_0_f8d8655d6d" x="122.529913" y="173.912402" style="fill: none; stroke: #ff0000"/>
    </g>
    <g clip-path="url(#pf81e272cde)">
     <use xlink:href="#C0_0_f8d8655d6d" x="125.513863" y="179.535325" style="fill: none; stroke: #ff0000"/>
    </g>
    <g clip-path="url(#pf81e272cde)">
     <use xlink:href="#C0_0_f8d8655d6d" x="128.497877" y="185.335041" style="fill: none; stroke: #ff0000"/>
    </g>
    <g clip-path="url(#pf81e272cde)">
     <use xlink:href="#C0_0_f8d8655d6d" x="131.481827" y="189.49727" style="fill: none; stroke: #ff0000"/>
    </g>
    <g clip-path="url(#pf81e272cde)">
     <use xlink:href="#C0_0_f8d8655d6d" x="134.465778" y="194.817332" style="fill: none; stroke: #ff0000"/>
    </g>
    <g clip-path="url(#pf81e272cde)">
     <use xlink:href="#C0_0_f8d8655d6d" x="137.449728" y="200.485685" style="fill: none; stroke: #ff0000"/>
    </g>
    <g clip-path="url(#pf81e272cde)">
     <use xlink:href="#C0_0_f8d8655d6d" x="140.433678" y="206.03659" style="fill: none; stroke: #ff0000"/>
    </g>
    <g clip-path="url(#pf81e272cde)">
     <use xlink:href="#C0_0_f8d8655d6d" x="143.417628" y="209.898332" style="fill: none; stroke: #ff0000"/>
    </g>
    <g clip-path="url(#pf81e272cde)">
     <use xlink:href="#C0_0_f8d8655d6d" x="146.401579" y="215.045325" style="fill: none; stroke: #ff0000"/>
    </g>
    <g clip-path="url(#pf81e272cde)">
     <use xlink:href="#C0_0_f8d8655d6d" x="149.385529" y="220.378643" style="fill: none; stroke: #ff0000"/>
    </g>
    <g clip-path="url(#pf81e272cde)">
     <use xlink:href="#C0_0_f8d8655d6d" x="152.369479" y="224.786469" style="fill: none; stroke: #ff0000"/>
    </g>
    <g clip-path="url(#pf81e272cde)">
     <use xlink:href="#C0_0_f8d8655d6d" x="155.353493" y="229.255029" style="fill: none; stroke: #ff0000"/>
    </g>
    <g clip-path="url(#pf81e272cde)">
     <use xlink:href="#C0_0_f8d8655d6d" x="158.337443" y="233.11531" style="fill: none; stroke: #ff0000"/>
    </g>
    <g clip-path="url(#pf81e272cde)">
     <use xlink:href="#C0_0_f8d8655d6d" x="161.321394" y="238.892238" style="fill: none; stroke: #ff0000"/>
    </g>
    <g clip-path="url(#pf81e272cde)">
     <use xlink:href="#C0_0_f8d8655d6d" x="164.305344" y="244.599777" style="fill: none; stroke: #ff0000"/>
    </g>
    <g clip-path="url(#pf81e272cde)">
     <use xlink:href="#C0_0_f8d8655d6d" x="167.289294" y="248.07919" style="fill: none; stroke: #ff0000"/>
    </g>
    <g clip-path="url(#pf81e272cde)">
     <use xlink:href="#C0_0_f8d8655d6d" x="170.273244" y="252.751021" style="fill: none; stroke: #ff0000"/>
    </g>
    <g clip-path="url(#pf81e272cde)">
     <use xlink:href="#C0_0_f8d8655d6d" x="173.257195" y="256.809496" style="fill: none; stroke: #ff0000"/>
    </g>
    <g clip-path="url(#pf81e272cde)">
     <use xlink:href="#C0_0_f8d8655d6d" x="176.241145" y="261.750625" style="fill: none; stroke: #ff0000"/>
    </g>
    <g clip-path="url(#pf81e272cde)">
     <use xlink:href="#C0_0_f8d8655d6d" x="179.225095" y="265.689169" style="fill: none; stroke: #ff0000"/>
    </g>
    <g clip-path="url(#pf81e272cde)">
     <use xlink:href="#C0_0_f8d8655d6d" x="182.209109" y="269.493465" style="fill: none; stroke: #ff0000"/>
    </g>
    <g clip-path="url(#pf81e272cde)">
     <use xlink:href="#C0_0_f8d8655d6d" x="185.193059" y="274.167486" style="fill: none; stroke: #ff0000"/>
    </g>
    <g clip-path="url(#pf81e272cde)">
     <use xlink:href="#C0_0_f8d8655d6d" x="188.17701" y="278.260474" style="fill: none; stroke: #ff0000"/>
    </g>
    <g clip-path="url(#pf81e272cde)">
     <use xlink:href="#C0_0_f8d8655d6d" x="191.16096" y="282.507575" style="fill: none; stroke: #ff0000"/>
    </g>
    <g clip-path="url(#pf81e272cde)">
     <use xlink:href="#C0_0_f8d8655d6d" x="194.14491" y="286.512476" style="fill: none; stroke: #ff0000"/>
    </g>
    <g clip-path="url(#pf81e272cde)">
     <use xlink:href="#C0_0_f8d8655d6d" x="197.128861" y="290.570623" style="fill: none; stroke: #ff0000"/>
    </g>
    <g clip-path="url(#pf81e272cde)">
     <use xlink:href="#C0_0_f8d8655d6d" x="200.112811" y="294.343731" style="fill: none; stroke: #ff0000"/>
    </g>
    <g clip-path="url(#pf81e272cde)">
     <use xlink:href="#C0_0_f8d8655d6d" x="203.096761" y="298.4369" style="fill: none; stroke: #ff0000"/>
    </g>
    <g clip-path="url(#pf81e272cde)">
     <use xlink:href="#C0_0_f8d8655d6d" x="206.080711" y="302.28502" style="fill: none; stroke: #ff0000"/>
    </g>
    <g clip-path="url(#pf81e272cde)">
     <use xlink:href="#C0_0_f8d8655d6d" x="209.064725" y="306.200629" style="fill: none; stroke: #ff0000"/>
    </g>
    <g clip-path="url(#pf81e272cde)">
     <use xlink:href="#C0_0_f8d8655d6d" x="212.048675" y="310.143701" style="fill: none; stroke: #ff0000"/>
    </g>
    <g clip-path="url(#pf81e272cde)">
     <use xlink:href="#C0_0_f8d8655d6d" x="215.032626" y="313.811449" style="fill: none; stroke: #ff0000"/>
    </g>
    <g clip-path="url(#pf81e272cde)">
     <use xlink:href="#C0_0_f8d8655d6d" x="218.016576" y="317.389978" style="fill: none; stroke: #ff0000"/>
    </g>
    <g clip-path="url(#pf81e272cde)">
     <use xlink:href="#C0_0_f8d8655d6d" x="221.000526" y="321.074086" style="fill: none; stroke: #ff0000"/>
    </g>
    <g clip-path="url(#pf81e272cde)">
     <use xlink:href="#C0_0_f8d8655d6d" x="223.984477" y="324.534107" style="fill: none; stroke: #ff0000"/>
    </g>
    <g clip-path="url(#pf81e272cde)">
     <use xlink:href="#C0_0_f8d8655d6d" x="226.968427" y="328.110956" style="fill: none; stroke: #ff0000"/>
    </g>
    <g clip-path="url(#pf81e272cde)">
     <use xlink:href="#C0_0_f8d8655d6d" x="229.952377" y="331.910395" style="fill: none; stroke: #ff0000"/>
    </g>
    <g clip-path="url(#pf81e272cde)">
     <use xlink:href="#C0_0_f8d8655d6d" x="232.936327" y="335.187085" style="fill: none; stroke: #ff0000"/>
    </g>
    <g clip-path="url(#pf81e272cde)">
     <use xlink:href="#C0_0_f8d8655d6d" x="235.920341" y="338.55986" style="fill: none; stroke: #ff0000"/>
    </g>
    <g clip-path="url(#pf81e272cde)">
     <use xlink:href="#C0_0_f8d8655d6d" x="238.904291" y="341.652087" style="fill: none; stroke: #ff0000"/>
    </g>
    <g clip-path="url(#pf81e272cde)">
     <use xlink:href="#C0_0_f8d8655d6d" x="241.888242" y="345.272797" style="fill: none; stroke: #ff0000"/>
    </g>
    <g clip-path="url(#pf81e272cde)">
     <use xlink:href="#C0_0_f8d8655d6d" x="244.872192" y="348.603793" style="fill: none; stroke: #ff0000"/>
    </g>
    <g clip-path="url(#pf81e272cde)">
     <use xlink:href="#C0_0_f8d8655d6d" x="247.856142" y="351.708766" style="fill: none; stroke: #ff0000"/>
    </g>
    <g clip-path="url(#pf81e272cde)">
     <use xlink:href="#C0_0_f8d8655d6d" x="250.840093" y="354.697203" style="fill: none; stroke: #ff0000"/>
    </g>
    <g clip-path="url(#pf81e272cde)">
     <use xlink:href="#C0_0_f8d8655d6d" x="253.824043" y="357.866853" style="fill: none; stroke: #ff0000"/>
    </g>
    <g clip-path="url(#pf81e272cde)">
     <use xlink:href="#C0_0_f8d8655d6d" x="256.807993" y="360.989064" style="fill: none; stroke: #ff0000"/>
    </g>
    <g clip-path="url(#pf81e272cde)">
     <use xlink:href="#C0_0_f8d8655d6d" x="259.791943" y="363.936635" style="fill: none; stroke: #ff0000"/>
    </g>
    <g clip-path="url(#pf81e272cde)">
     <use xlink:href="#C0_0_f8d8655d6d" x="262.775957" y="366.908639" style="fill: none; stroke: #ff0000"/>
    </g>
    <g clip-path="url(#pf81e272cde)">
     <use xlink:href="#C0_0_f8d8655d6d" x="265.759907" y="369.561092" style="fill: none; stroke: #ff0000"/>
    </g>
    <g clip-path="url(#pf81e272cde)">
     <use xlink:href="#C0_0_f8d8655d6d" x="268.743858" y="372.522942" style="fill: none; stroke: #ff0000"/>
    </g>
    <g clip-path="url(#pf81e272cde)">
     <use xlink:href="#C0_0_f8d8655d6d" x="271.727808" y="375.279404" style="fill: none; stroke: #ff0000"/>
    </g>
    <g clip-path="url(#pf81e272cde)">
     <use xlink:href="#C0_0_f8d8655d6d" x="274.711758" y="378.22935" style="fill: none; stroke: #ff0000"/>
    </g>
    <g clip-path="url(#pf81e272cde)">
     <use xlink:href="#C0_0_f8d8655d6d" x="277.695709" y="380.761104" style="fill: none; stroke: #ff0000"/>
    </g>
    <g clip-path="url(#pf81e272cde)">
     <use xlink:href="#C0_0_f8d8655d6d" x="280.679659" y="383.425864" style="fill: none; stroke: #ff0000"/>
    </g>
    <g clip-path="url(#pf81e272cde)">
     <use xlink:href="#C0_0_f8d8655d6d" x="283.663609" y="385.898236" style="fill: none; stroke: #ff0000"/>
    </g>
    <g clip-path="url(#pf81e272cde)">
     <use xlink:href="#C0_0_f8d8655d6d" x="286.64756" y="388.26313" style="fill: none; stroke: #ff0000"/>
    </g>
    <g clip-path="url(#pf81e272cde)">
     <use xlink:href="#C0_0_f8d8655d6d" x="289.631573" y="390.96934" style="fill: none; stroke: #ff0000"/>
    </g>
    <g clip-path="url(#pf81e272cde)">
     <use xlink:href="#C0_0_f8d8655d6d" x="292.615523" y="393.274962" style="fill: none; stroke: #ff0000"/>
    </g>
    <g clip-path="url(#pf81e272cde)">
     <use xlink:href="#C0_0_f8d8655d6d" x="295.599474" y="395.753543" style="fill: none; stroke: #ff0000"/>
    </g>
    <g clip-path="url(#pf81e272cde)">
     <use xlink:href="#C0_0_f8d8655d6d" x="298.583424" y="398.125193" style="fill: none; stroke: #ff0000"/>
    </g>
    <g clip-path="url(#pf81e272cde)">
     <use xlink:href="#C0_0_f8d8655d6d" x="301.567374" y="400.238974" style="fill: none; stroke: #ff0000"/>
    </g>
   </g>
   <g id="PathCollection_2">
    <defs>
     <path id="C1_0_3be604e4bd" d="M -0.866008 0.866008 
L 0.866043 0.866008 
L 0.866043 -0.866043 
L -0.866008 -0.866043 
z
"/>
    </defs>
    <g clip-path="url(#pf81e272cde)">
     <use xlink:href="#C1_0_3be604e4bd" x="80.754545" y="96.343112" style="fill: none; stroke: #008000"/>
    </g>
    <g clip-path="url(#pf81e272cde)">
     <use xlink:href="#C1_0_3be604e4bd" x="83.738496" y="101.447559" style="fill: none; stroke: #008000"/>
    </g>
    <g clip-path="url(#pf81e272cde)">
     <use xlink:href="#C1_0_3be604e4bd" x="86.722446" y="108.339956" style="fill: none; stroke: #008000"/>
    </g>
    <g clip-path="url(#pf81e272cde)">
     <use xlink:href="#C1_0_3be604e4bd" x="89.706396" y="114.027848" style="fill: none; stroke: #008000"/>
    </g>
    <g clip-path="url(#pf81e272cde)">
     <use xlink:href="#C1_0_3be604e4bd" x="92.690347" y="119.473319" style="fill: none; stroke: #008000"/>
    </g>
    <g clip-path="url(#pf81e272cde)">
     <use xlink:href="#C1_0_3be604e4bd" x="95.674297" y="125.009032" style="fill: none; stroke: #008000"/>
    </g>
    <g clip-path="url(#pf81e272cde)">
     <use xlink:href="#C1_0_3be604e4bd" x="98.658247" y="130.330335" style="fill: none; stroke: #008000"/>
    </g>
    <g clip-path="url(#pf81e272cde)">
     <use xlink:href="#C1_0_3be604e4bd" x="101.642261" y="137.040971" style="fill: none; stroke: #008000"/>
    </g>
    <g clip-path="url(#pf81e272cde)">
     <use xlink:href="#C1_0_3be604e4bd" x="104.626211" y="141.740629" style="fill: none; stroke: #008000"/>
    </g>
    <g clip-path="url(#pf81e272cde)">
     <use xlink:href="#C1_0_3be604e4bd" x="107.610161" y="147.617732" style="fill: none; stroke: #008000"/>
    </g>
    <g clip-path="url(#pf81e272cde)">
     <use xlink:href="#C1_0_3be604e4bd" x="110.594112" y="153.216076" style="fill: none; stroke: #008000"/>
    </g>
    <g clip-path="url(#pf81e272cde)">
     <use xlink:href="#C1_0_3be604e4bd" x="113.578062" y="158.931759" style="fill: none; stroke: #008000"/>
    </g>
    <g clip-path="url(#pf81e272cde)">
     <use xlink:href="#C1_0_3be604e4bd" x="116.562012" y="163.541104" style="fill: none; stroke: #008000"/>
    </g>
    <g clip-path="url(#pf81e272cde)">
     <use xlink:href="#C1_0_3be604e4bd" x="119.545963" y="169.596424" style="fill: none; stroke: #008000"/>
    </g>
    <g clip-path="url(#pf81e272cde)">
     <use xlink:href="#C1_0_3be604e4bd" x="122.529913" y="174.437305" style="fill: none; stroke: #008000"/>
    </g>
    <g clip-path="url(#pf81e272cde)">
     <use xlink:href="#C1_0_3be604e4bd" x="125.513863" y="180.142215" style="fill: none; stroke: #008000"/>
    </g>
    <g clip-path="url(#pf81e272cde)">
     <use xlink:href="#C1_0_3be604e4bd" x="128.497877" y="184.400894" style="fill: none; stroke: #008000"/>
    </g>
    <g clip-path="url(#pf81e272cde)">
     <use xlink:href="#C1_0_3be604e4bd" x="131.481827" y="190.12253" style="fill: none; stroke: #008000"/>
    </g>
    <g clip-path="url(#pf81e272cde)">
     <use xlink:href="#C1_0_3be604e4bd" x="134.465778" y="194.650837" style="fill: none; stroke: #008000"/>
    </g>
    <g clip-path="url(#pf81e272cde)">
     <use xlink:href="#C1_0_3be604e4bd" x="137.449728" y="200.087835" style="fill: none; stroke: #008000"/>
    </g>
    <g clip-path="url(#pf81e272cde)">
     <use xlink:href="#C1_0_3be604e4bd" x="140.433678" y="204.298417" style="fill: none; stroke: #008000"/>
    </g>
    <g clip-path="url(#pf81e272cde)">
     <use xlink:href="#C1_0_3be604e4bd" x="143.417628" y="209.722232" style="fill: none; stroke: #008000"/>
    </g>
    <g clip-path="url(#pf81e272cde)">
     <use xlink:href="#C1_0_3be604e4bd" x="146.401579" y="214.606463" style="fill: none; stroke: #008000"/>
    </g>
    <g clip-path="url(#pf81e272cde)">
     <use xlink:href="#C1_0_3be604e4bd" x="149.385529" y="219.211571" style="fill: none; stroke: #008000"/>
    </g>
    <g clip-path="url(#pf81e272cde)">
     <use xlink:href="#C1_0_3be604e4bd" x="152.369479" y="224.933536" style="fill: none; stroke: #008000"/>
    </g>
    <g clip-path="url(#pf81e272cde)">
     <use xlink:href="#C1_0_3be604e4bd" x="155.353493" y="229.5156" style="fill: none; stroke: #008000"/>
    </g>
    <g clip-path="url(#pf81e272cde)">
     <use xlink:href="#C1_0_3be604e4bd" x="158.337443" y="234.823135" style="fill: none; stroke: #008000"/>
    </g>
    <g clip-path="url(#pf81e272cde)">
     <use xlink:href="#C1_0_3be604e4bd" x="161.321394" y="238.555084" style="fill: none; stroke: #008000"/>
    </g>
    <g clip-path="url(#pf81e272cde)">
     <use xlink:href="#C1_0_3be604e4bd" x="164.305344" y="242.790025" style="fill: none; stroke: #008000"/>
    </g>
    <g clip-path="url(#pf81e272cde)">
     <use xlink:href="#C1_0_3be604e4bd" x="167.289294" y="247.81778" style="fill: none; stroke: #008000"/>
    </g>
    <g clip-path="url(#pf81e272cde)">
     <use xlink:href="#C1_0_3be604e4bd" x="170.273244" y="253.079555" style="fill: none; stroke: #008000"/>
    </g>
    <g clip-path="url(#pf81e272cde)">
     <use xlink:href="#C1_0_3be604e4bd" x="173.257195" y="257.239447" style="fill: none; stroke: #008000"/>
    </g>
    <g clip-path="url(#pf81e272cde)">
     <use xlink:href="#C1_0_3be604e4bd" x="176.241145" y="260.168539" style="fill: none; stroke: #008000"/>
    </g>
    <g clip-path="url(#pf81e272cde)">
     <use xlink:href="#C1_0_3be604e4bd" x="179.225095" y="266.222983" style="fill: none; stroke: #008000"/>
    </g>
    <g clip-path="url(#pf81e272cde)">
     <use xlink:href="#C1_0_3be604e4bd" x="182.209109" y="270.256552" style="fill: none; stroke: #008000"/>
    </g>
    <g clip-path="url(#pf81e272cde)">
     <use xlink:href="#C1_0_3be604e4bd" x="185.193059" y="274.21215" style="fill: none; stroke: #008000"/>
    </g>
    <g clip-path="url(#pf81e272cde)">
     <use xlink:href="#C1_0_3be604e4bd" x="188.17701" y="278.112056" style="fill: none; stroke: #008000"/>
    </g>
    <g clip-path="url(#pf81e272cde)">
     <use xlink:href="#C1_0_3be604e4bd" x="191.16096" y="282.496437" style="fill: none; stroke: #008000"/>
    </g>
    <g clip-path="url(#pf81e272cde)">
     <use xlink:href="#C1_0_3be604e4bd" x="194.14491" y="286.386737" style="fill: none; stroke: #008000"/>
    </g>
    <g clip-path="url(#pf81e272cde)">
     <use xlink:href="#C1_0_3be604e4bd" x="197.128861" y="290.40453" style="fill: none; stroke: #008000"/>
    </g>
    <g clip-path="url(#pf81e272cde)">
     <use xlink:href="#C1_0_3be604e4bd" x="200.112811" y="294.586662" style="fill: none; stroke: #008000"/>
    </g>
    <g clip-path="url(#pf81e272cde)">
     <use xlink:href="#C1_0_3be604e4bd" x="203.096761" y="298.316457" style="fill: none; stroke: #008000"/>
    </g>
    <g clip-path="url(#pf81e272cde)">
     <use xlink:href="#C1_0_3be604e4bd" x="206.080711" y="302.438295" style="fill: none; stroke: #008000"/>
    </g>
    <g clip-path="url(#pf81e272cde)">
     <use xlink:href="#C1_0_3be604e4bd" x="209.064725" y="306.101514" style="fill: none; stroke: #008000"/>
    </g>
    <g clip-path="url(#pf81e272cde)">
     <use xlink:href="#C1_0_3be604e4bd" x="212.048675" y="309.85081" style="fill: none; stroke: #008000"/>
    </g>
    <g clip-path="url(#pf81e272cde)">
     <use xlink:href="#C1_0_3be604e4bd" x="215.032626" y="313.487516" style="fill: none; stroke: #008000"/>
    </g>
    <g clip-path="url(#pf81e272cde)">
     <use xlink:href="#C1_0_3be604e4bd" x="218.016576" y="317.544421" style="fill: none; stroke: #008000"/>
    </g>
    <g clip-path="url(#pf81e272cde)">
     <use xlink:href="#C1_0_3be604e4bd" x="221.000526" y="321.229954" style="fill: none; stroke: #008000"/>
    </g>
    <g clip-path="url(#pf81e272cde)">
     <use xlink:href="#C1_0_3be604e4bd" x="223.984477" y="324.715831" style="fill: none; stroke: #008000"/>
    </g>
    <g clip-path="url(#pf81e272cde)">
     <use xlink:href="#C1_0_3be604e4bd" x="226.968427" y="328.204228" style="fill: none; stroke: #008000"/>
    </g>
    <g clip-path="url(#pf81e272cde)">
     <use xlink:href="#C1_0_3be604e4bd" x="229.952377" y="331.634778" style="fill: none; stroke: #008000"/>
    </g>
    <g clip-path="url(#pf81e272cde)">
     <use xlink:href="#C1_0_3be604e4bd" x="232.936327" y="335.070184" style="fill: none; stroke: #008000"/>
    </g>
    <g clip-path="url(#pf81e272cde)">
     <use xlink:href="#C1_0_3be604e4bd" x="235.920341" y="338.518994" style="fill: none; stroke: #008000"/>
    </g>
    <g clip-path="url(#pf81e272cde)">
     <use xlink:href="#C1_0_3be604e4bd" x="238.904291" y="341.911891" style="fill: none; stroke: #008000"/>
    </g>
    <g clip-path="url(#pf81e272cde)">
     <use xlink:href="#C1_0_3be604e4bd" x="241.888242" y="345.077889" style="fill: none; stroke: #008000"/>
    </g>
    <g clip-path="url(#pf81e272cde)">
     <use xlink:href="#C1_0_3be604e4bd" x="244.872192" y="348.164894" style="fill: none; stroke: #008000"/>
    </g>
    <g clip-path="url(#pf81e272cde)">
     <use xlink:href="#C1_0_3be604e4bd" x="247.856142" y="351.519993" style="fill: none; stroke: #008000"/>
    </g>
    <g clip-path="url(#pf81e272cde)">
     <use xlink:href="#C1_0_3be604e4bd" x="250.840093" y="354.607912" style="fill: none; stroke: #008000"/>
    </g>
    <g clip-path="url(#pf81e272cde)">
     <use xlink:href="#C1_0_3be604e4bd" x="253.824043" y="357.782894" style="fill: none; stroke: #008000"/>
    </g>
    <g clip-path="url(#pf81e272cde)">
     <use xlink:href="#C1_0_3be604e4bd" x="256.807993" y="360.843787" style="fill: none; stroke: #008000"/>
    </g>
    <g clip-path="url(#pf81e272cde)">
     <use xlink:href="#C1_0_3be604e4bd" x="259.791943" y="363.92378" style="fill: none; stroke: #008000"/>
    </g>
    <g clip-path="url(#pf81e272cde)">
     <use xlink:href="#C1_0_3be604e4bd" x="262.775957" y="366.713841" style="fill: none; stroke: #008000"/>
    </g>
    <g clip-path="url(#pf81e272cde)">
     <use xlink:href="#C1_0_3be604e4bd" x="265.759907" y="369.800846" style="fill: none; stroke: #008000"/>
    </g>
    <g clip-path="url(#pf81e272cde)">
     <use xlink:href="#C1_0_3be604e4bd" x="268.743858" y="372.510708" style="fill: none; stroke: #008000"/>
    </g>
    <g clip-path="url(#pf81e272cde)">
     <use xlink:href="#C1_0_3be604e4bd" x="271.727808" y="375.488263" style="fill: none; stroke: #008000"/>
    </g>
    <g clip-path="url(#pf81e272cde)">
     <use xlink:href="#C1_0_3be604e4bd" x="274.711758" y="378.038496" style="fill: none; stroke: #008000"/>
    </g>
    <g clip-path="url(#pf81e272cde)">
     <use xlink:href="#C1_0_3be604e4bd" x="277.695709" y="380.620574" style="fill: none; stroke: #008000"/>
    </g>
    <g clip-path="url(#pf81e272cde)">
     <use xlink:href="#C1_0_3be604e4bd" x="280.679659" y="383.319116" style="fill: none; stroke: #008000"/>
    </g>
    <g clip-path="url(#pf81e272cde)">
     <use xlink:href="#C1_0_3be604e4bd" x="283.663609" y="385.840206" style="fill: none; stroke: #008000"/>
    </g>
    <g clip-path="url(#pf81e272cde)">
     <use xlink:href="#C1_0_3be604e4bd" x="286.64756" y="388.706082" style="fill: none; stroke: #008000"/>
    </g>
    <g clip-path="url(#pf81e272cde)">
     <use xlink:href="#C1_0_3be604e4bd" x="289.631573" y="390.957106" style="fill: none; stroke: #008000"/>
    </g>
    <g clip-path="url(#pf81e272cde)">
     <use xlink:href="#C1_0_3be604e4bd" x="292.615523" y="393.396063" style="fill: none; stroke: #008000"/>
    </g>
    <g clip-path="url(#pf81e272cde)">
     <use xlink:href="#C1_0_3be604e4bd" x="295.599474" y="395.882787" style="fill: none; stroke: #008000"/>
    </g>
    <g clip-path="url(#pf81e272cde)">
     <use xlink:href="#C1_0_3be604e4bd" x="298.583424" y="397.987074" style="fill: none; stroke: #008000"/>
    </g>
    <g clip-path="url(#pf81e272cde)">
     <use xlink:href="#C1_0_3be604e4bd" x="301.567374" y="400.689267" style="fill: none; stroke: #008000"/>
    </g>
   </g>
   <g id="PathCollection_3">
    <path d="M 80.754545 96.104004 
L 81.620571 94.371953 
L 79.88852 94.371953 
L 80.754545 96.104004 
z
" clip-path="url(#pf81e272cde)" style="fill: none; stroke: #0000ff"/>
    <path d="M 83.738496 102.248323 
L 84.604521 100.516273 
L 82.87247 100.516273 
L 83.738496 102.248323 
z
" clip-path="url(#pf81e272cde)" style="fill: none; stroke: #0000ff"/>
    <path d="M 86.722446 107.871721 
L 87.588471 106.13967 
L 85.856421 106.13967 
L 86.722446 107.871721 
z
" clip-path="url(#pf81e272cde)" style="fill: none; stroke: #0000ff"/>
    <path d="M 89.706396 113.111547 
L 90.572422 111.379497 
L 88.840371 111.379497 
L 89.706396 113.111547 
z
" clip-path="url(#pf81e272cde)" style="fill: none; stroke: #0000ff"/>
    <path d="M 92.690347 120.293147 
L 93.556372 118.561096 
L 91.824321 118.561096 
L 92.690347 120.293147 
z
" clip-path="url(#pf81e272cde)" style="fill: none; stroke: #0000ff"/>
    <path d="M 95.674297 126.038009 
L 96.540322 124.305959 
L 94.808272 124.305959 
L 95.674297 126.038009 
z
" clip-path="url(#pf81e272cde)" style="fill: none; stroke: #0000ff"/>
    <path d="M 98.658247 131.563569 
L 99.524273 129.831519 
L 97.792222 129.831519 
L 98.658247 131.563569 
z
" clip-path="url(#pf81e272cde)" style="fill: none; stroke: #0000ff"/>
    <path d="M 101.642261 136.642233 
L 102.508286 134.910182 
L 100.776235 134.910182 
L 101.642261 136.642233 
z
" clip-path="url(#pf81e272cde)" style="fill: none; stroke: #0000ff"/>
    <path d="M 104.626211 143.674867 
L 105.492237 141.942816 
L 103.760186 141.942816 
L 104.626211 143.674867 
z
" clip-path="url(#pf81e272cde)" style="fill: none; stroke: #0000ff"/>
    <path d="M 107.610161 148.743926 
L 108.476187 147.011875 
L 106.744136 147.011875 
L 107.610161 148.743926 
z
" clip-path="url(#pf81e272cde)" style="fill: none; stroke: #0000ff"/>
    <path d="M 110.594112 154.790737 
L 111.460137 153.058686 
L 109.728086 153.058686 
L 110.594112 154.790737 
z
" clip-path="url(#pf81e272cde)" style="fill: none; stroke: #0000ff"/>
    <path d="M 113.578062 159.24425 
L 114.444087 157.512199 
L 112.712037 157.512199 
L 113.578062 159.24425 
z
" clip-path="url(#pf81e272cde)" style="fill: none; stroke: #0000ff"/>
    <path d="M 116.562012 164.100616 
L 117.428038 162.368565 
L 115.695987 162.368565 
L 116.562012 164.100616 
z
" clip-path="url(#pf81e272cde)" style="fill: none; stroke: #0000ff"/>
    <path d="M 119.545963 169.824188 
L 120.411988 168.092137 
L 118.679937 168.092137 
L 119.545963 169.824188 
z
" clip-path="url(#pf81e272cde)" style="fill: none; stroke: #0000ff"/>
    <path d="M 122.529913 176.014048 
L 123.395938 174.281997 
L 121.663888 174.281997 
L 122.529913 176.014048 
z
" clip-path="url(#pf81e272cde)" style="fill: none; stroke: #0000ff"/>
    <path d="M 125.513863 180.439696 
L 126.379889 178.707646 
L 124.647838 178.707646 
L 125.513863 180.439696 
z
" clip-path="url(#pf81e272cde)" style="fill: none; stroke: #0000ff"/>
    <path d="M 128.497877 185.996554 
L 129.363902 184.264503 
L 127.631852 184.264503 
L 128.497877 185.996554 
z
" clip-path="url(#pf81e272cde)" style="fill: none; stroke: #0000ff"/>
    <path d="M 131.481827 191.566376 
L 132.347853 189.834325 
L 130.615802 189.834325 
L 131.481827 191.566376 
z
" clip-path="url(#pf81e272cde)" style="fill: none; stroke: #0000ff"/>
    <path d="M 134.465778 197.026967 
L 135.331803 195.294916 
L 133.599752 195.294916 
L 134.465778 197.026967 
z
" clip-path="url(#pf81e272cde)" style="fill: none; stroke: #0000ff"/>
    <path d="M 137.449728 201.07361 
L 138.315753 199.341559 
L 136.583702 199.341559 
L 137.449728 201.07361 
z
" clip-path="url(#pf81e272cde)" style="fill: none; stroke: #0000ff"/>
    <path d="M 140.433678 206.318915 
L 141.299704 204.586864 
L 139.567653 204.586864 
L 140.433678 206.318915 
z
" clip-path="url(#pf81e272cde)" style="fill: none; stroke: #0000ff"/>
    <path d="M 143.417628 211.886948 
L 144.283654 210.154897 
L 142.551603 210.154897 
L 143.417628 211.886948 
z
" clip-path="url(#pf81e272cde)" style="fill: none; stroke: #0000ff"/>
    <path d="M 146.401579 216.553629 
L 147.267604 214.821578 
L 145.535553 214.821578 
L 146.401579 216.553629 
z
" clip-path="url(#pf81e272cde)" style="fill: none; stroke: #0000ff"/>
    <path d="M 149.385529 221.167355 
L 150.251554 219.435304 
L 148.519504 219.435304 
L 149.385529 221.167355 
z
" clip-path="url(#pf81e272cde)" style="fill: none; stroke: #0000ff"/>
    <path d="M 152.369479 225.444842 
L 153.235505 223.712791 
L 151.503454 223.712791 
L 152.369479 225.444842 
z
" clip-path="url(#pf81e272cde)" style="fill: none; stroke: #0000ff"/>
    <path d="M 155.353493 230.643401 
L 156.219518 228.91135 
L 154.487468 228.91135 
L 155.353493 230.643401 
z
" clip-path="url(#pf81e272cde)" style="fill: none; stroke: #0000ff"/>
    <path d="M 158.337443 235.575546 
L 159.203469 233.843495 
L 157.471418 233.843495 
L 158.337443 235.575546 
z
" clip-path="url(#pf81e272cde)" style="fill: none; stroke: #0000ff"/>
    <path d="M 161.321394 240.013356 
L 162.187419 238.281305 
L 160.455368 238.281305 
L 161.321394 240.013356 
z
" clip-path="url(#pf81e272cde)" style="fill: none; stroke: #0000ff"/>
    <path d="M 164.305344 243.873199 
L 165.171369 242.141148 
L 163.439318 242.141148 
L 164.305344 243.873199 
z
" clip-path="url(#pf81e272cde)" style="fill: none; stroke: #0000ff"/>
    <path d="M 167.289294 249.009382 
L 168.15532 247.277331 
L 166.423269 247.277331 
L 167.289294 249.009382 
z
" clip-path="url(#pf81e272cde)" style="fill: none; stroke: #0000ff"/>
    <path d="M 170.273244 252.574142 
L 171.13927 250.842092 
L 169.407219 250.842092 
L 170.273244 252.574142 
z
" clip-path="url(#pf81e272cde)" style="fill: none; stroke: #0000ff"/>
    <path d="M 173.257195 257.695681 
L 174.12322 255.96363 
L 172.391169 255.96363 
L 173.257195 257.695681 
z
" clip-path="url(#pf81e272cde)" style="fill: none; stroke: #0000ff"/>
    <path d="M 176.241145 263.013332 
L 177.10717 261.281281 
L 175.37512 261.281281 
L 176.241145 263.013332 
z
" clip-path="url(#pf81e272cde)" style="fill: none; stroke: #0000ff"/>
    <path d="M 179.225095 266.064803 
L 180.091121 264.332752 
L 178.35907 264.332752 
L 179.225095 266.064803 
z
" clip-path="url(#pf81e272cde)" style="fill: none; stroke: #0000ff"/>
    <path d="M 182.209109 271.097853 
L 183.075134 269.365802 
L 181.343084 269.365802 
L 182.209109 271.097853 
z
" clip-path="url(#pf81e272cde)" style="fill: none; stroke: #0000ff"/>
    <path d="M 185.193059 275.046878 
L 186.059085 273.314827 
L 184.327034 273.314827 
L 185.193059 275.046878 
z
" clip-path="url(#pf81e272cde)" style="fill: none; stroke: #0000ff"/>
    <path d="M 188.17701 279.306762 
L 189.043035 277.574711 
L 187.310984 277.574711 
L 188.17701 279.306762 
z
" clip-path="url(#pf81e272cde)" style="fill: none; stroke: #0000ff"/>
    <path d="M 191.16096 283.041085 
L 192.026985 281.309035 
L 190.294935 281.309035 
L 191.16096 283.041085 
z
" clip-path="url(#pf81e272cde)" style="fill: none; stroke: #0000ff"/>
    <path d="M 194.14491 287.429556 
L 195.010936 285.697506 
L 193.278885 285.697506 
L 194.14491 287.429556 
z
" clip-path="url(#pf81e272cde)" style="fill: none; stroke: #0000ff"/>
    <path d="M 197.128861 291.474045 
L 197.994886 289.741994 
L 196.262835 289.741994 
L 197.128861 291.474045 
z
" clip-path="url(#pf81e272cde)" style="fill: none; stroke: #0000ff"/>
    <path d="M 200.112811 295.505057 
L 200.978836 293.773006 
L 199.246785 293.773006 
L 200.112811 295.505057 
z
" clip-path="url(#pf81e272cde)" style="fill: none; stroke: #0000ff"/>
    <path d="M 203.096761 299.516751 
L 203.962787 297.7847 
L 202.230736 297.7847 
L 203.096761 299.516751 
z
" clip-path="url(#pf81e272cde)" style="fill: none; stroke: #0000ff"/>
    <path d="M 206.080711 303.231572 
L 206.946737 301.499522 
L 205.214686 301.499522 
L 206.080711 303.231572 
z
" clip-path="url(#pf81e272cde)" style="fill: none; stroke: #0000ff"/>
    <path d="M 209.064725 307.186952 
L 209.93075 305.454901 
L 208.1987 305.454901 
L 209.064725 307.186952 
z
" clip-path="url(#pf81e272cde)" style="fill: none; stroke: #0000ff"/>
    <path d="M 212.048675 310.876757 
L 212.914701 309.144706 
L 211.18265 309.144706 
L 212.048675 310.876757 
z
" clip-path="url(#pf81e272cde)" style="fill: none; stroke: #0000ff"/>
    <path d="M 215.032626 314.803615 
L 215.898651 313.071564 
L 214.1666 313.071564 
L 215.032626 314.803615 
z
" clip-path="url(#pf81e272cde)" style="fill: none; stroke: #0000ff"/>
    <path d="M 218.016576 318.250817 
L 218.882601 316.518766 
L 217.150551 316.518766 
L 218.016576 318.250817 
z
" clip-path="url(#pf81e272cde)" style="fill: none; stroke: #0000ff"/>
    <path d="M 221.000526 321.809479 
L 221.866552 320.077428 
L 220.134501 320.077428 
L 221.000526 321.809479 
z
" clip-path="url(#pf81e272cde)" style="fill: none; stroke: #0000ff"/>
    <path d="M 223.984477 325.643502 
L 224.850502 323.911451 
L 223.118451 323.911451 
L 223.984477 325.643502 
z
" clip-path="url(#pf81e272cde)" style="fill: none; stroke: #0000ff"/>
    <path d="M 226.968427 329.207204 
L 227.834452 327.475153 
L 226.102401 327.475153 
L 226.968427 329.207204 
z
" clip-path="url(#pf81e272cde)" style="fill: none; stroke: #0000ff"/>
    <path d="M 229.952377 332.453656 
L 230.818403 330.721605 
L 229.086352 330.721605 
L 229.952377 332.453656 
z
" clip-path="url(#pf81e272cde)" style="fill: none; stroke: #0000ff"/>
    <path d="M 232.936327 336.067682 
L 233.802353 334.335631 
L 232.070302 334.335631 
L 232.936327 336.067682 
z
" clip-path="url(#pf81e272cde)" style="fill: none; stroke: #0000ff"/>
    <path d="M 235.920341 339.421612 
L 236.786366 337.689562 
L 235.054316 337.689562 
L 235.920341 339.421612 
z
" clip-path="url(#pf81e272cde)" style="fill: none; stroke: #0000ff"/>
    <path d="M 238.904291 342.960882 
L 239.770317 341.228831 
L 238.038266 341.228831 
L 238.904291 342.960882 
z
" clip-path="url(#pf81e272cde)" style="fill: none; stroke: #0000ff"/>
    <path d="M 241.888242 346.047668 
L 242.754267 344.315617 
L 241.022216 344.315617 
L 241.888242 346.047668 
z
" clip-path="url(#pf81e272cde)" style="fill: none; stroke: #0000ff"/>
    <path d="M 244.872192 349.35215 
L 245.738217 347.6201 
L 244.006167 347.6201 
L 244.872192 349.35215 
z
" clip-path="url(#pf81e272cde)" style="fill: none; stroke: #0000ff"/>
    <path d="M 247.856142 352.462638 
L 248.722168 350.730587 
L 246.990117 350.730587 
L 247.856142 352.462638 
z
" clip-path="url(#pf81e272cde)" style="fill: none; stroke: #0000ff"/>
    <path d="M 250.840093 355.805795 
L 251.706118 354.073744 
L 249.974067 354.073744 
L 250.840093 355.805795 
z
" clip-path="url(#pf81e272cde)" style="fill: none; stroke: #0000ff"/>
    <path d="M 253.824043 358.729519 
L 254.690068 356.997468 
L 252.958017 356.997468 
L 253.824043 358.729519 
z
" clip-path="url(#pf81e272cde)" style="fill: none; stroke: #0000ff"/>
    <path d="M 256.807993 361.663651 
L 257.674019 359.9316 
L 255.941968 359.9316 
L 256.807993 361.663651 
z
" clip-path="url(#pf81e272cde)" style="fill: none; stroke: #0000ff"/>
    <path d="M 259.791943 364.603407 
L 260.657969 362.871356 
L 258.925918 362.871356 
L 259.791943 364.603407 
z
" clip-path="url(#pf81e272cde)" style="fill: none; stroke: #0000ff"/>
    <path d="M 262.775957 367.656193 
L 263.641983 365.924142 
L 261.909932 365.924142 
L 262.775957 367.656193 
z
" clip-path="url(#pf81e272cde)" style="fill: none; stroke: #0000ff"/>
    <path d="M 265.759907 370.58072 
L 266.625933 368.84867 
L 264.893882 368.84867 
L 265.759907 370.58072 
z
" clip-path="url(#pf81e272cde)" style="fill: none; stroke: #0000ff"/>
    <path d="M 268.743858 373.421069 
L 269.609883 371.689018 
L 267.877832 371.689018 
L 268.743858 373.421069 
z
" clip-path="url(#pf81e272cde)" style="fill: none; stroke: #0000ff"/>
    <path d="M 271.727808 376.048579 
L 272.593833 374.316528 
L 270.861783 374.316528 
L 271.727808 376.048579 
z
" clip-path="url(#pf81e272cde)" style="fill: none; stroke: #0000ff"/>
    <path d="M 274.711758 378.758295 
L 275.577784 377.026244 
L 273.845733 377.026244 
L 274.711758 378.758295 
z
" clip-path="url(#pf81e272cde)" style="fill: none; stroke: #0000ff"/>
    <path d="M 277.695709 381.703602 
L 278.561734 379.971551 
L 276.829683 379.971551 
L 277.695709 381.703602 
z
" clip-path="url(#pf81e272cde)" style="fill: none; stroke: #0000ff"/>
    <path d="M 280.679659 384.246349 
L 281.545684 382.514298 
L 279.813634 382.514298 
L 280.679659 384.246349 
z
" clip-path="url(#pf81e272cde)" style="fill: none; stroke: #0000ff"/>
    <path d="M 283.663609 387.007996 
L 284.529635 385.275946 
L 282.797584 385.275946 
L 283.663609 387.007996 
z
" clip-path="url(#pf81e272cde)" style="fill: none; stroke: #0000ff"/>
    <path d="M 286.64756 389.380085 
L 287.513585 387.648034 
L 285.781534 387.648034 
L 286.64756 389.380085 
z
" clip-path="url(#pf81e272cde)" style="fill: none; stroke: #0000ff"/>
    <path d="M 289.631573 391.876195 
L 290.497599 390.144144 
L 288.765548 390.144144 
L 289.631573 391.876195 
z
" clip-path="url(#pf81e272cde)" style="fill: none; stroke: #0000ff"/>
    <path d="M 292.615523 394.431468 
L 293.481549 392.699417 
L 291.749498 392.699417 
L 292.615523 394.431468 
z
" clip-path="url(#pf81e272cde)" style="fill: none; stroke: #0000ff"/>
    <path d="M 295.599474 396.616135 
L 296.465499 394.884084 
L 294.733448 394.884084 
L 295.599474 396.616135 
z
" clip-path="url(#pf81e272cde)" style="fill: none; stroke: #0000ff"/>
    <path d="M 298.583424 399.135728 
L 299.449449 397.403677 
L 297.717399 397.403677 
L 298.583424 399.135728 
z
" clip-path="url(#pf81e272cde)" style="fill: none; stroke: #0000ff"/>
    <path d="M 301.567374 401.159853 
L 302.4334 399.427802 
L 300.701349 399.427802 
L 301.567374 401.159853 
z
" clip-path="url(#pf81e272cde)" style="fill: none; stroke: #0000ff"/>
   </g>
   <g id="matplotlib.axis_1">
    <g id="xtick_1">
     <g id="line2d_1">
      <defs>
       <path id="m37bb39fd92" d="M 0 0 
L 0 3.5 
" style="stroke: #000000; stroke-width: 0.8"/>
      </defs>
      <g>
       <use xlink:href="#m37bb39fd92" x="119.124978" y="448.56" style="stroke: #000000; stroke-width: 0.8"/>
      </g>
     </g>
     <g id="text_1">
      <text style="font: 10px 'sans-serif'; text-anchor: middle" x="119.124978" y="463.158437" transform="rotate(-0, 119.124978, 463.158437)">−0.05</text>
     </g>
    </g>
    <g id="xtick_2">
     <g id="line2d_2">
      <g>
       <use xlink:href="#m37bb39fd92" x="182.469073" y="448.56" style="stroke: #000000; stroke-width: 0.8"/>
      </g>
     </g>
     <g id="text_2">
      <text style="font: 10px 'sans-serif'; text-anchor: middle" x="182.469073" y="463.158437" transform="rotate(-0, 182.469073, 463.158437)">−0.04</text>
     </g>
    </g>
    <g id="xtick_3">
     <g id="line2d_3">
      <g>
       <use xlink:href="#m37bb39fd92" x="245.813169" y="448.56" style="stroke: #000000; stroke-width: 0.8"/>
      </g>
     </g>
     <g id="text_3">
      <text style="font: 10px 'sans-serif'; text-anchor: middle" x="245.813169" y="463.158437" transform="rotate(-0, 245.813169, 463.158437)">−0.03</text>
     </g>
    </g>
    <g id="xtick_4">
     <g id="line2d_4">
      <g>
       <use xlink:href="#m37bb39fd92" x="309.157264" y="448.56" style="stroke: #000000; stroke-width: 0.8"/>
      </g>
     </g>
     <g id="text_4">
      <text style="font: 10px 'sans-serif'; text-anchor: middle" x="309.157264" y="463.158437" transform="rotate(-0, 309.157264, 463.158437)">−0.02</text>
     </g>
    </g>
    <g id="xtick_5">
     <g id="line2d_5">
      <g>
       <use xlink:href="#m37bb39fd92" x="372.501359" y="448.56" style="stroke: #000000; stroke-width: 0.8"/>
      </g>
     </g>
     <g id="text_5">
      <text style="font: 10px 'sans-serif'; text-anchor: middle" x="372.501359" y="463.158437" transform="rotate(-0, 372.501359, 463.158437)">−0.01</text>
     </g>
    </g>
    <g id="xtick_6">
     <g id="line2d_6">
      <g>
       <use xlink:href="#m37bb39fd92" x="435.845455" y="448.56" style="stroke: #000000; stroke-width: 0.8"/>
      </g>
     </g>
     <g id="text_6">
      <text style="font: 10px 'sans-serif'; text-anchor: middle" x="435.845455" y="463.158437" transform="rotate(-0, 435.845455, 463.158437)">0.00</text>
     </g>
    </g>
    <g id="text_7">
     <text style="font: 10px 'sans-serif'; text-anchor: middle" x="258.3" y="476.836563" transform="rotate(-0, 258.3, 476.836563)">mu [eV]</text>
    </g>
   </g>
   <g id="matplotlib.axis_2">
    <g id="ytick_1">
     <g id="line2d_7">
      <defs>
       <path id="m6b0bc71583" d="M 0 0 
L -3.5 0 
" style="stroke: #000000; stroke-width: 0.8"/>
      </defs>
      <g>
       <use xlink:href="#m6b0bc71583" x="63" y="445.063784" style="stroke: #000000; stroke-width: 0.8"/>
      </g>
     </g>
     <g id="text_8">
      <!-- $\mathdefault{0.0}$ -->
      <g transform="translate(40 448.863003)">
       <text>
        <tspan style="font: 10px 'DejaVu Sans'" x="0 6.362305 9.541016" y="-0.578125">0.0</tspan>
       </text>
      </g>
     </g>
    </g>
    <g id="ytick_2">
     <g id="line2d_8">
      <g>
       <use xlink:href="#m6b0bc71583" x="63" y="372.02364" style="stroke: #000000; stroke-width: 0.8"/>
      </g>
     </g>
     <g id="text_9">
      <!-- $\mathdefault{0.2}$ -->
      <g transform="translate(40.6 375.822859)">
       <text>
        <tspan style="font: 10px 'DejaVu Sans'" x="0 6.362305 9.041016" y="-0.578125">0.2</tspan>
       </text>
      </g>
     </g>
    </g>
    <g id="ytick_3">
     <g id="line2d_9">
      <g>
       <use xlink:href="#m6b0bc71583" x="63" y="298.983496" style="stroke: #000000; stroke-width: 0.8"/>
      </g>
     </g>
     <g id="text_10">
      <!-- $\mathdefault{0.4}$ -->
      <g transform="translate(40 302.782715)">
       <text>
        <tspan style="font: 10px 'DejaVu Sans'" x="0 6.362305 9.541016" y="-0.578125">0.4</tspan>
       </text>
      </g>
     </g>
    </g>
    <g id="ytick_4">
     <g id="line2d_10">
      <g>
       <use xlink:href="#m6b0bc71583" x="63" y="225.943352" style="stroke: #000000; stroke-width: 0.8"/>
      </g>
     </g>
     <g id="text_11">
      <!-- $\mathdefault{0.6}$ -->
      <g transform="translate(40 229.742571)">
       <text>
        <tspan style="font: 10px 'DejaVu Sans'" x="0 6.362305 9.541016" y="-0.578125">0.6</tspan>
       </text>
      </g>
     </g>
    </g>
    <g id="ytick_5">
     <g id="line2d_11">
      <g>
       <use xlink:href="#m6b0bc71583" x="63" y="152.903209" style="stroke: #000000; stroke-width: 0.8"/>
      </g>
     </g>
     <g id="text_12">
      <!-- $\mathdefault{0.8}$ -->
      <g transform="translate(40.3 156.702427)">
       <text>
        <tspan style="font: 10px 'DejaVu Sans'" x="0 6.362305 9.291016" y="-0.578125">0.8</tspan>
       </text>
      </g>
     </g>
    </g>
    <g id="ytick_6">
     <g id="line2d_12">
      <g>
       <use xlink:href="#m6b0bc71583" x="63" y="79.863065" style="stroke: #000000; stroke-width: 0.8"/>
      </g>
     </g>
     <g id="text_13">
      <!-- $\mathdefault{1.0}$ -->
      <g transform="translate(40 83.662283)">
       <text>
        <tspan style="font: 10px 'DejaVu Sans'" x="0 6.362305 9.541016" y="-0.578125">1.0</tspan>
       </text>
      </g>
     </g>
    </g>
    <g id="text_14">
     <text style="font: 10px 'sans-serif'; text-anchor: middle" x="33.920312" y="254.52" transform="rotate(-90, 33.920312, 254.52)">conductivity [/Ohm m]</text>
    </g>
    <g id="text_15">
     <!-- $\times\mathdefault{10^{5}}\mathdefault{}$ -->
     <g transform="translate(63 57.48)">
      <text>
       <tspan style="font: 10px 'DejaVu Sans'" x="0 8.378906 14.741211" y="-0.06406250000000036">×10</tspan>
       <tspan style="font: 7px 'DejaVu Sans'" x="21.199219" y="-3.8921875000000004">5</tspan>
      </text>
     </g>
    </g>
   </g>
   <g id="line2d_13">
    <path d="M 80.754545 92.98085 
L 90.265671 111.919087 
L 99.459759 129.737213 
L 108.653847 147.074778 
L 117.847935 163.931772 
L 126.724985 179.751479 
L 135.602035 195.123162 
L 144.479086 210.046805 
L 153.039099 224.013121 
L 161.599112 237.562795 
L 170.159124 250.695806 
L 178.719137 263.412128 
L 186.962113 275.263623 
L 195.205088 286.728666 
L 203.448063 297.807221 
L 211.374001 308.095161 
L 219.299939 318.025686 
L 227.225877 327.598741 
L 235.151815 336.81426 
L 242.760715 345.324715 
L 250.369616 353.505506 
L 257.978516 361.356528 
L 265.270379 368.57086 
L 272.562242 375.482073 
L 279.854104 382.089991 
L 287.145967 388.394395 
L 294.120793 394.140431 
L 301.095618 399.608204 
L 308.070443 404.797312 
L 315.045268 409.707227 
L 322.020094 414.33725 
L 328.677882 418.494856 
L 335.335669 422.395453 
L 341.993457 426.037479 
L 348.651245 429.418708 
L 354.991995 432.393489 
L 361.332746 435.124531 
L 367.356458 437.487311 
L 373.380171 439.615165 
L 379.086846 441.400563 
L 384.476484 442.859676 
L 389.232047 443.933371 
L 393.353534 444.656862 
L 396.52391 445.017875 
L 398.637763 445.063784 
L 435.845455 445.063784 
L 435.845455 445.063784 
" clip-path="url(#pf81e272cde)" style="fill: none; stroke: #1f77b4; stroke-width: 1.5; stroke-linecap: square"/>
   </g>
   <g id="patch_3">
    <path d="M 63 448.56 
L 63 60.48 
" style="fill: none; stroke: #000000; stroke-width: 0.8; stroke-linejoin: miter; stroke-linecap: square"/>
   </g>
   <g id="patch_4">
    <path d="M 453.6 448.56 
L 453.6 60.48 
" style="fill: none; stroke: #000000; stroke-width: 0.8; stroke-linejoin: miter; stroke-linecap: square"/>
   </g>
   <g id="patch_5">
    <path d="M 63 448.56 
L 453.6 448.56 
" style="fill: none; stroke: #000000; stroke-width: 0.8; stroke-linejoin: miter; stroke-linecap: square"/>
   </g>
   <g id="patch_6">
    <path d="M 63 60.48 
L 453.6 60.48 
" style="fill: none; stroke: #000000; stroke-width: 0.8; stroke-linejoin: miter; stroke-linecap: square"/>
   </g>
   <g id="text_16">
    <text style="font: 12px 'sans-serif'; text-anchor: middle" x="258.3" y="54.48" transform="rotate(-0, 258.3, 54.48)">compare</text>
   </g>
   <g id="legend_1">
    <g id="patch_7">
     <path d="M 375.1125 127.1925 
L 446.6 127.1925 
Q 448.6 127.1925 448.6 125.1925 
L 448.6 67.48 
Q 448.6 65.48 446.6 65.48 
L 375.1125 65.48 
Q 373.1125 65.48 373.1125 67.48 
L 373.1125 125.1925 
Q 373.1125 127.1925 375.1125 127.1925 
z
" style="fill: #ffffff; opacity: 0.8; stroke: #cccccc; stroke-linejoin: miter"/>
    </g>
    <g id="PathCollection_4">
     <path d="M 387.1125 75.319463 
C 387.342173 75.319463 387.562469 75.228213 387.724872 75.06581 
C 387.887276 74.903407 387.978525 74.68311 387.978525 74.453438 
C 387.978525 74.223765 387.887276 74.003468 387.724872 73.841065 
C 387.562469 73.678662 387.342173 73.587412 387.1125 73.587412 
C 386.882827 73.587412 386.662531 73.678662 386.500128 73.841065 
C 386.337724 74.003468 386.246475 74.223765 386.246475 74.453438 
C 386.246475 74.68311 386.337724 74.903407 386.500128 75.06581 
C 386.662531 75.228213 386.882827 75.319463 387.1125 75.319463 
L 387.1125 75.319463 
z
" style="fill: none; stroke: #ff0000"/>
    </g>
    <g id="text_17">
     <text style="font: 10px 'sans-serif'; text-anchor: start" x="405.1125" y="77.078438" transform="rotate(-0, 405.1125, 77.078438)">xx</text>
    </g>
    <g id="PathCollection_5">
     <path d="M 386.246492 89.997571 
L 387.978543 89.997571 
L 387.978543 88.26552 
L 386.246492 88.26552 
L 386.246492 89.997571 
z
" style="fill: none; stroke: #008000"/>
    </g>
    <g id="text_18">
     <text style="font: 10px 'sans-serif'; text-anchor: start" x="405.1125" y="91.756563" transform="rotate(-0, 405.1125, 91.756563)">yy</text>
    </g>
    <g id="PathCollection_6">
     <path d="M 387.1125 104.675713 
L 387.978525 102.943662 
L 386.246475 102.943662 
L 387.1125 104.675713 
z
" style="fill: none; stroke: #0000ff"/>
    </g>
    <g id="text_19">
     <text style="font: 10px 'sans-serif'; text-anchor: start" x="405.1125" y="106.434688" transform="rotate(-0, 405.1125, 106.434688)">zz</text>
    </g>
    <g id="line2d_14">
     <path d="M 377.1125 117.612813 
L 387.1125 117.612813 
L 397.1125 117.612813 
" style="fill: none; stroke: #1f77b4; stroke-width: 1.5; stroke-linecap: square"/>
    </g>
    <g id="text_20">
     <text style="font: 10px 'sans-serif'; text-anchor: start" x="405.1125" y="121.112813" transform="rotate(-0, 405.1125, 121.112813)">analytic</text>
    </g>
   </g>
  </g>
  <g id="text_21">
   <text style="font: 10px 'sans-serif'; text-anchor: start" x="378" y="10.08" transform="rotate(-0, 378, 10.08)">Gamma = 0.10 [meV]</text>
  </g>
 </g>
 <defs>
  <clipPath id="pf81e272cde">
   <rect x="63" y="60.48" width="390.6" height="388.08"/>
  </clipPath>
 </defs>
</svg>
