<?xml version="1.0" encoding="utf-8" standalone="no"?>
<!DOCTYPE svg PUBLIC "-//W3C//DTD SVG 1.1//EN"
  "http://www.w3.org/Graphics/SVG/1.1/DTD/svg11.dtd">
<svg xmlns:xlink="http://www.w3.org/1999/xlink" width="864pt" height="720pt" viewBox="0 0 864 720" xmlns="http://www.w3.org/2000/svg" version="1.1">
 <metadata>
  <rdf:RDF xmlns:dc="http://purl.org/dc/elements/1.1/" xmlns:cc="http://creativecommons.org/ns#" xmlns:rdf="http://www.w3.org/1999/02/22-rdf-syntax-ns#">
   <cc:Work>
    <dc:type rdf:resource="http://purl.org/dc/dcmitype/StillImage"/>
    <dc:date>2022-04-22T22:10:47.204321</dc:date>
    <dc:format>image/svg+xml</dc:format>
    <dc:creator>
     <cc:Agent>
      <dc:title>Matplotlib v3.5.1, https://matplotlib.org/</dc:title>
     </cc:Agent>
    </dc:creator>
   </cc:Work>
  </rdf:RDF>
 </metadata>
 <defs>
  <style type="text/css">*{stroke-linejoin: round; stroke-linecap: butt}</style>
 </defs>
 <g id="figure_1">
  <g id="patch_1">
   <path d="M 0 720 
L 864 720 
L 864 0 
L 0 0 
z
" style="fill: #ffffff"/>
  </g>
  <g id="axes_1">
   <g id="patch_2">
    <path d="M 108 640.8 
L 304.941176 640.8 
L 304.941176 86.4 
L 108 86.4 
z
" style="fill: #ffffff"/>
   </g>
   <g id="matplotlib.axis_1">
    <g id="xtick_1">
     <g id="line2d_1">
      <defs>
       <path id="m397379e783" d="M 0 0 
L 0 3.5 
" style="stroke: #000000; stroke-width: 0.8"/>
      </defs>
      <g>
       <use xlink:href="#m397379e783" x="159.362349" y="640.8" style="stroke: #000000; stroke-width: 0.8"/>
      </g>
     </g>
     <g id="text_1">
      <text style="font: 10px 'sans-serif'; text-anchor: middle" x="159.362349" y="655.398438" transform="rotate(-0, 159.362349, 655.398438)">−0.10</text>
     </g>
    </g>
    <g id="xtick_2">
     <g id="line2d_2">
      <g>
       <use xlink:href="#m397379e783" x="220.368117" y="640.8" style="stroke: #000000; stroke-width: 0.8"/>
      </g>
     </g>
     <g id="text_2">
      <text style="font: 10px 'sans-serif'; text-anchor: middle" x="220.368117" y="655.398438" transform="rotate(-0, 220.368117, 655.398438)">−0.05</text>
     </g>
    </g>
    <g id="xtick_3">
     <g id="line2d_3">
      <g>
       <use xlink:href="#m397379e783" x="281.373885" y="640.8" style="stroke: #000000; stroke-width: 0.8"/>
      </g>
     </g>
     <g id="text_3">
      <text style="font: 10px 'sans-serif'; text-anchor: middle" x="281.373885" y="655.398438" transform="rotate(-0, 281.373885, 655.398438)">0.00</text>
     </g>
    </g>
    <g id="text_4">
     <text style="font: 10px 'sans-serif'; text-anchor: middle" x="206.470588" y="669.076563" transform="rotate(-0, 206.470588, 669.076563)">mu</text>
    </g>
   </g>
   <g id="matplotlib.axis_2">
    <g id="ytick_1">
     <g id="line2d_4">
      <defs>
       <path id="mb6e9b2b081" d="M 0 0 
L -3.5 0 
" style="stroke: #000000; stroke-width: 0.8"/>
      </defs>
      <g>
       <use xlink:href="#mb6e9b2b081" x="108" y="640.8" style="stroke: #000000; stroke-width: 0.8"/>
      </g>
     </g>
     <g id="text_5">
      <text style="font: 10px 'sans-serif'; text-anchor: end" x="101" y="644.599219" transform="rotate(-0, 101, 644.599219)">−5</text>
     </g>
    </g>
    <g id="ytick_2">
     <g id="line2d_5">
      <g>
       <use xlink:href="#mb6e9b2b081" x="108" y="548.4" style="stroke: #000000; stroke-width: 0.8"/>
      </g>
     </g>
     <g id="text_6">
      <text style="font: 10px 'sans-serif'; text-anchor: end" x="101" y="552.199219" transform="rotate(-0, 101, 552.199219)">0</text>
     </g>
    </g>
    <g id="ytick_3">
     <g id="line2d_6">
      <g>
       <use xlink:href="#mb6e9b2b081" x="108" y="456" style="stroke: #000000; stroke-width: 0.8"/>
      </g>
     </g>
     <g id="text_7">
      <text style="font: 10px 'sans-serif'; text-anchor: end" x="101" y="459.799219" transform="rotate(-0, 101, 459.799219)">5</text>
     </g>
    </g>
    <g id="ytick_4">
     <g id="line2d_7">
      <g>
       <use xlink:href="#mb6e9b2b081" x="108" y="363.6" style="stroke: #000000; stroke-width: 0.8"/>
      </g>
     </g>
     <g id="text_8">
      <text style="font: 10px 'sans-serif'; text-anchor: end" x="101" y="367.399219" transform="rotate(-0, 101, 367.399219)">10</text>
     </g>
    </g>
    <g id="ytick_5">
     <g id="line2d_8">
      <g>
       <use xlink:href="#mb6e9b2b081" x="108" y="271.2" style="stroke: #000000; stroke-width: 0.8"/>
      </g>
     </g>
     <g id="text_9">
      <text style="font: 10px 'sans-serif'; text-anchor: end" x="101" y="274.999219" transform="rotate(-0, 101, 274.999219)">15</text>
     </g>
    </g>
    <g id="ytick_6">
     <g id="line2d_9">
      <g>
       <use xlink:href="#mb6e9b2b081" x="108" y="178.8" style="stroke: #000000; stroke-width: 0.8"/>
      </g>
     </g>
     <g id="text_10">
      <text style="font: 10px 'sans-serif'; text-anchor: end" x="101" y="182.599219" transform="rotate(-0, 101, 182.599219)">20</text>
     </g>
    </g>
    <g id="ytick_7">
     <g id="line2d_10">
      <g>
       <use xlink:href="#mb6e9b2b081" x="108" y="86.4" style="stroke: #000000; stroke-width: 0.8"/>
      </g>
     </g>
     <g id="text_11">
      <text style="font: 10px 'sans-serif'; text-anchor: end" x="101" y="90.199219" transform="rotate(-0, 101, 90.199219)">25</text>
     </g>
    </g>
   </g>
   <g id="line2d_11">
    <path d="M 116.951872 510.229601 
L 123.34613 511.67836 
L 129.740267 512.958618 
L 136.134525 514.123536 
L 142.528662 515.235759 
L 148.92292 516.321129 
L 155.317057 517.357744 
L 161.711267 518.468001 
L 168.105464 519.525826 
L 174.499649 520.670902 
L 180.893847 521.704867 
L 187.288044 522.860043 
L 193.68223 524.012993 
L 200.076427 525.265236 
L 206.470613 526.540538 
L 212.86481 527.973183 
L 219.258995 529.436453 
L 225.653193 530.797765 
L 232.047378 532.566412 
L 238.441576 534.226584 
L 244.835761 536.269389 
L 251.229959 538.377826 
L 257.624156 540.547177 
L 264.018342 543.227511 
L 270.412534 546.336269 
L 276.806726 550.128004 
L 283.200918 555.069427 
L 289.59511 562.791625 
L 295.989305 611.147014 
" clip-path="url(#pfb77b07945)" style="fill: none; stroke: #000000; stroke-width: 1.5; stroke-linecap: square"/>
   </g>
   <g id="line2d_12">
    <path d="M 116.951872 442.622248 
L 123.34613 443.153448 
L 129.740267 443.842663 
L 136.134525 444.41391 
L 142.528662 445.126906 
L 148.92292 445.809944 
L 155.317057 446.542235 
L 161.711267 447.510776 
L 168.105464 448.388343 
L 174.499649 449.470758 
L 180.893847 450.437635 
L 187.288044 451.542579 
L 193.68223 452.759146 
L 200.076427 454.271522 
L 206.470613 455.729933 
L 212.86481 457.591039 
L 219.258995 459.504579 
L 225.653193 461.311562 
L 232.047378 463.778526 
L 238.441576 466.233149 
L 244.835761 469.200474 
L 251.229959 472.461802 
L 257.624156 476.301292 
L 264.018342 480.683427 
L 270.412534 486.396674 
L 276.806726 493.836602 
L 283.200918 504.294139 
L 289.59511 521.998117 
L 295.989305 608.316187 
" clip-path="url(#pfb77b07945)" style="fill: none; stroke: #0000ff; stroke-width: 1.5; stroke-linecap: square"/>
   </g>
   <g id="line2d_13">
    <path d="M 116.951872 357.814046 
L 123.34613 358.321845 
L 129.740267 358.996697 
L 136.134525 359.553941 
L 142.528662 360.257879 
L 148.92292 360.931969 
L 155.317057 361.657681 
L 161.711267 362.623328 
L 168.105464 363.497188 
L 174.499649 364.578476 
L 180.893847 365.544172 
L 187.288044 366.648281 
L 193.68223 367.866529 
L 200.076427 369.384964 
L 206.470613 370.84779 
L 212.86481 372.718984 
L 219.258995 374.643416 
L 225.653193 376.461573 
L 232.047378 378.946282 
L 238.441576 381.422052 
L 244.835761 384.415091 
L 251.229959 387.710435 
L 257.624156 391.603211 
L 264.018342 396.045027 
L 270.412534 401.861346 
L 276.806726 409.473714 
L 283.200918 420.270847 
L 289.59511 438.951681 
L 295.989305 565.202818 
" clip-path="url(#pfb77b07945)" style="fill: none; stroke: #008000; stroke-width: 1.5; stroke-linecap: square"/>
   </g>
   <g id="line2d_14">
    <path d="M 116.951872 272.713477 
L 123.34613 273.221037 
L 129.740267 273.895742 
L 136.134525 274.452849 
L 142.528662 275.156694 
L 148.92292 275.83069 
L 155.317057 276.556341 
L 161.711267 277.521964 
L 168.105464 278.395779 
L 174.499649 279.477054 
L 180.893847 280.442743 
L 187.288044 281.546844 
L 193.68223 282.765108 
L 200.076427 284.283599 
L 206.470613 285.746468 
L 212.86481 287.617775 
L 219.258995 289.542311 
L 225.653193 291.360586 
L 232.047378 293.845471 
L 238.441576 296.321457 
L 244.835761 299.314755 
L 251.229959 302.610447 
L 257.624156 306.503767 
L 264.018342 310.946198 
L 270.412534 316.763576 
L 276.806726 324.377732 
L 283.200918 335.178437 
L 289.59511 353.869917 
L 295.989305 481.782481 
" clip-path="url(#pfb77b07945)" style="fill: none; stroke: #ff0000; stroke-width: 1.5; stroke-linecap: square"/>
   </g>
   <g id="line2d_15">
    <path d="M 116.951872 187.609962 
L 123.34613 188.117524 
L 129.740267 188.792223 
L 136.134525 189.349331 
L 142.528662 190.05317 
L 148.92292 190.727167 
L 155.317057 191.452819 
L 161.711267 192.418434 
L 168.105464 193.29225 
L 174.499649 194.373535 
L 180.893847 195.339216 
L 187.288044 196.443319 
L 193.68223 197.661584 
L 200.076427 199.180077 
L 206.470613 200.642948 
L 212.86481 202.514244 
L 219.258995 204.438796 
L 225.653193 206.257058 
L 232.047378 208.741954 
L 238.441576 211.217943 
L 244.835761 214.211244 
L 251.229959 217.506939 
L 257.624156 221.400264 
L 264.018342 225.842701 
L 270.412534 231.660091 
L 276.806726 239.274258 
L 283.200918 250.075 
L 289.59511 268.76659 
L 295.989305 396.696567 
" clip-path="url(#pfb77b07945)" style="fill: none; stroke: #1f77b4; stroke-width: 1.5; stroke-linecap: square"/>
   </g>
   <g id="line2d_16">
    <path d="M 116.951872 102.506491 
L 123.34613 103.014042 
L 129.740267 103.68875 
L 136.134525 104.24586 
L 142.528662 104.949709 
L 148.92292 105.623709 
L 155.317057 106.349357 
L 161.711267 107.314985 
L 168.105464 108.188797 
L 174.499649 109.270079 
L 180.893847 110.235765 
L 187.288044 111.339863 
L 193.68223 112.558134 
L 200.076427 114.076635 
L 206.470613 115.539503 
L 212.86481 117.410795 
L 219.258995 119.335343 
L 225.653193 121.153614 
L 232.047378 123.638502 
L 238.441576 126.114492 
L 244.835761 129.107787 
L 251.229959 132.403477 
L 257.624156 136.296795 
L 264.018342 140.739224 
L 270.412534 146.556605 
L 276.806726 154.170773 
L 283.200918 164.971491 
L 289.59511 183.66307 
L 295.989305 311.593198 
" clip-path="url(#pfb77b07945)" style="fill: none; stroke: #ff7f0e; stroke-width: 1.5; stroke-linecap: square"/>
   </g>
   <g id="patch_3">
    <path d="M 108 640.8 
L 108 86.4 
" style="fill: none; stroke: #000000; stroke-width: 0.8; stroke-linejoin: miter; stroke-linecap: square"/>
   </g>
   <g id="patch_4">
    <path d="M 304.941176 640.8 
L 304.941176 86.4 
" style="fill: none; stroke: #000000; stroke-width: 0.8; stroke-linejoin: miter; stroke-linecap: square"/>
   </g>
   <g id="patch_5">
    <path d="M 108 640.8 
L 304.941176 640.8 
" style="fill: none; stroke: #000000; stroke-width: 0.8; stroke-linejoin: miter; stroke-linecap: square"/>
   </g>
   <g id="patch_6">
    <path d="M 108 86.4 
L 304.941176 86.4 
" style="fill: none; stroke: #000000; stroke-width: 0.8; stroke-linejoin: miter; stroke-linecap: square"/>
   </g>
   <g id="text_12">
    <text style="font: 12px 'sans-serif'; text-anchor: middle" x="206.470588" y="80.4" transform="rotate(-0, 206.470588, 80.4)">sigma_xx</text>
   </g>
   <g id="legend_1">
    <g id="patch_7">
     <path d="M 115 635.8 
L 194.715625 635.8 
Q 196.715625 635.8 196.715625 633.8 
L 196.715625 546.73125 
Q 196.715625 544.73125 194.715625 544.73125 
L 115 544.73125 
Q 113 544.73125 113 546.73125 
L 113 633.8 
Q 113 635.8 115 635.8 
z
" style="fill: #ffffff; opacity: 0.8; stroke: #cccccc; stroke-linejoin: miter"/>
    </g>
    <g id="line2d_17">
     <path d="M 117 552.829688 
L 127 552.829688 
L 137 552.829688 
" style="fill: none; stroke: #000000; stroke-width: 1.5; stroke-linecap: square"/>
    </g>
    <g id="text_13">
     <text style="font: 10px 'sans-serif'; text-anchor: start" x="145" y="556.329688" transform="rotate(-0, 145, 556.329688)">0.100000</text>
    </g>
    <g id="line2d_18">
     <path d="M 117 567.507812 
L 127 567.507812 
L 137 567.507812 
" style="fill: none; stroke: #0000ff; stroke-width: 1.5; stroke-linecap: square"/>
    </g>
    <g id="text_14">
     <text style="font: 10px 'sans-serif'; text-anchor: start" x="145" y="571.007812" transform="rotate(-0, 145, 571.007812)">0.010000</text>
    </g>
    <g id="line2d_19">
     <path d="M 117 582.185938 
L 127 582.185938 
L 137 582.185938 
" style="fill: none; stroke: #008000; stroke-width: 1.5; stroke-linecap: square"/>
    </g>
    <g id="text_15">
     <text style="font: 10px 'sans-serif'; text-anchor: start" x="145" y="585.685938" transform="rotate(-0, 145, 585.685938)">0.001000</text>
    </g>
    <g id="line2d_20">
     <path d="M 117 596.864063 
L 127 596.864063 
L 137 596.864063 
" style="fill: none; stroke: #ff0000; stroke-width: 1.5; stroke-linecap: square"/>
    </g>
    <g id="text_16">
     <text style="font: 10px 'sans-serif'; text-anchor: start" x="145" y="600.364063" transform="rotate(-0, 145, 600.364063)">0.000100</text>
    </g>
    <g id="line2d_21">
     <path d="M 117 611.542188 
L 127 611.542188 
L 137 611.542188 
" style="fill: none; stroke: #1f77b4; stroke-width: 1.5; stroke-linecap: square"/>
    </g>
    <g id="text_17">
     <text style="font: 10px 'sans-serif'; text-anchor: start" x="145" y="615.042188" transform="rotate(-0, 145, 615.042188)">0.000010</text>
    </g>
    <g id="line2d_22">
     <path d="M 117 626.220313 
L 127 626.220313 
L 137 626.220313 
" style="fill: none; stroke: #ff7f0e; stroke-width: 1.5; stroke-linecap: square"/>
    </g>
    <g id="text_18">
     <text style="font: 10px 'sans-serif'; text-anchor: start" x="145" y="629.720313" transform="rotate(-0, 145, 629.720313)">0.000001</text>
    </g>
   </g>
  </g>
  <g id="axes_2">
   <g id="patch_8">
    <path d="M 344.329412 640.8 
L 541.270588 640.8 
L 541.270588 86.4 
L 344.329412 86.4 
z
" style="fill: #ffffff"/>
   </g>
   <g id="matplotlib.axis_3">
    <g id="xtick_4">
     <g id="line2d_23">
      <g>
       <use xlink:href="#m397379e783" x="395.691761" y="640.8" style="stroke: #000000; stroke-width: 0.8"/>
      </g>
     </g>
     <g id="text_19">
      <text style="font: 10px 'sans-serif'; text-anchor: middle" x="395.691761" y="655.398438" transform="rotate(-0, 395.691761, 655.398438)">−0.10</text>
     </g>
    </g>
    <g id="xtick_5">
     <g id="line2d_24">
      <g>
       <use xlink:href="#m397379e783" x="456.697529" y="640.8" style="stroke: #000000; stroke-width: 0.8"/>
      </g>
     </g>
     <g id="text_20">
      <text style="font: 10px 'sans-serif'; text-anchor: middle" x="456.697529" y="655.398438" transform="rotate(-0, 456.697529, 655.398438)">−0.05</text>
     </g>
    </g>
    <g id="xtick_6">
     <g id="line2d_25">
      <g>
       <use xlink:href="#m397379e783" x="517.703296" y="640.8" style="stroke: #000000; stroke-width: 0.8"/>
      </g>
     </g>
     <g id="text_21">
      <text style="font: 10px 'sans-serif'; text-anchor: middle" x="517.703296" y="655.398438" transform="rotate(-0, 517.703296, 655.398438)">0.00</text>
     </g>
    </g>
    <g id="text_22">
     <text style="font: 10px 'sans-serif'; text-anchor: middle" x="442.8" y="669.076563" transform="rotate(-0, 442.8, 669.076563)">mu</text>
    </g>
   </g>
   <g id="matplotlib.axis_4">
    <g id="ytick_8">
     <g id="line2d_26">
      <g>
       <use xlink:href="#mb6e9b2b081" x="344.329412" y="640.8" style="stroke: #000000; stroke-width: 0.8"/>
      </g>
     </g>
     <g id="text_23">
      <text style="font: 10px 'sans-serif'; text-anchor: end" x="337.329412" y="644.599219" transform="rotate(-0, 337.329412, 644.599219)">−5</text>
     </g>
    </g>
    <g id="ytick_9">
     <g id="line2d_27">
      <g>
       <use xlink:href="#mb6e9b2b081" x="344.329412" y="548.4" style="stroke: #000000; stroke-width: 0.8"/>
      </g>
     </g>
     <g id="text_24">
      <text style="font: 10px 'sans-serif'; text-anchor: end" x="337.329412" y="552.199219" transform="rotate(-0, 337.329412, 552.199219)">0</text>
     </g>
    </g>
    <g id="ytick_10">
     <g id="line2d_28">
      <g>
       <use xlink:href="#mb6e9b2b081" x="344.329412" y="456" style="stroke: #000000; stroke-width: 0.8"/>
      </g>
     </g>
     <g id="text_25">
      <text style="font: 10px 'sans-serif'; text-anchor: end" x="337.329412" y="459.799219" transform="rotate(-0, 337.329412, 459.799219)">5</text>
     </g>
    </g>
    <g id="ytick_11">
     <g id="line2d_29">
      <g>
       <use xlink:href="#mb6e9b2b081" x="344.329412" y="363.6" style="stroke: #000000; stroke-width: 0.8"/>
      </g>
     </g>
     <g id="text_26">
      <text style="font: 10px 'sans-serif'; text-anchor: end" x="337.329412" y="367.399219" transform="rotate(-0, 337.329412, 367.399219)">10</text>
     </g>
    </g>
    <g id="ytick_12">
     <g id="line2d_30">
      <g>
       <use xlink:href="#mb6e9b2b081" x="344.329412" y="271.2" style="stroke: #000000; stroke-width: 0.8"/>
      </g>
     </g>
     <g id="text_27">
      <text style="font: 10px 'sans-serif'; text-anchor: end" x="337.329412" y="274.999219" transform="rotate(-0, 337.329412, 274.999219)">15</text>
     </g>
    </g>
    <g id="ytick_13">
     <g id="line2d_31">
      <g>
       <use xlink:href="#mb6e9b2b081" x="344.329412" y="178.8" style="stroke: #000000; stroke-width: 0.8"/>
      </g>
     </g>
     <g id="text_28">
      <text style="font: 10px 'sans-serif'; text-anchor: end" x="337.329412" y="182.599219" transform="rotate(-0, 337.329412, 182.599219)">20</text>
     </g>
    </g>
    <g id="ytick_14">
     <g id="line2d_32">
      <g>
       <use xlink:href="#mb6e9b2b081" x="344.329412" y="86.4" style="stroke: #000000; stroke-width: 0.8"/>
      </g>
     </g>
     <g id="text_29">
      <text style="font: 10px 'sans-serif'; text-anchor: end" x="337.329412" y="90.199219" transform="rotate(-0, 337.329412, 90.199219)">25</text>
     </g>
    </g>
   </g>
   <g id="line2d_33">
    <path d="M 353.281283 510.245527 
L 359.675542 511.713188 
L 366.069678 512.965739 
L 372.463937 514.148267 
L 378.858074 515.261853 
L 385.252332 516.348149 
L 391.646469 517.434502 
L 398.040678 518.44537 
L 404.434876 519.525105 
L 410.829061 520.561986 
L 417.223259 521.726577 
L 423.617456 522.884125 
L 430.011642 524.096071 
L 436.405839 525.279278 
L 442.800024 526.588928 
L 449.194222 527.870492 
L 455.588407 529.275578 
L 461.982605 530.887818 
L 468.37679 532.450472 
L 474.770988 534.234164 
L 481.165173 536.15305 
L 487.55937 538.300715 
L 493.953568 540.599035 
L 500.347753 543.232931 
L 506.741946 546.340534 
L 513.136137 550.122658 
L 519.53033 555.077618 
L 525.924521 562.799184 
L 532.318717 611.150724 
" clip-path="url(#p4b673efe93)" style="fill: none; stroke: #000000; stroke-width: 1.5; stroke-linecap: square"/>
   </g>
   <g id="line2d_34">
    <path d="M 353.281283 442.719492 
L 359.675542 443.256079 
L 366.069678 443.899784 
L 372.463937 444.49559 
L 378.858074 445.19214 
L 385.252332 445.881629 
L 391.646469 446.748111 
L 398.040678 447.444934 
L 404.434876 448.380946 
L 410.829061 449.200831 
L 417.223259 450.495136 
L 423.617456 451.598722 
L 430.011642 452.944789 
L 436.405839 454.306584 
L 442.800024 455.850496 
L 449.194222 457.336158 
L 455.588407 459.102274 
L 461.982605 461.544197 
L 468.37679 463.463645 
L 474.770988 466.254669 
L 481.165173 468.854682 
L 487.55937 472.22453 
L 493.953568 476.473934 
L 500.347753 480.709074 
L 506.741946 486.418611 
L 513.136137 493.814966 
L 519.53033 504.357039 
L 525.924521 522.096074 
L 532.318717 608.681489 
" clip-path="url(#p4b673efe93)" style="fill: none; stroke: #0000ff; stroke-width: 1.5; stroke-linecap: square"/>
   </g>
   <g id="line2d_35">
    <path d="M 353.281283 357.913447 
L 359.675542 358.426179 
L 366.069678 359.055027 
L 372.463937 359.636964 
L 378.858074 360.324018 
L 385.252332 361.004652 
L 391.646469 361.866438 
L 398.040678 362.55653 
L 404.434876 363.489647 
L 410.829061 364.305058 
L 417.223259 365.602462 
L 423.617456 366.705124 
L 430.011642 368.05441 
L 436.405839 369.420487 
L 442.800024 370.969974 
L 449.194222 372.460628 
L 455.588407 374.235455 
L 461.982605 376.697681 
L 468.37679 378.626406 
L 474.770988 381.44394 
L 481.165173 384.06294 
L 487.55937 387.468411 
L 493.953568 391.779829 
L 500.347753 396.071407 
L 506.741946 401.884029 
L 513.136137 409.451233 
L 519.53033 420.337667 
L 525.924521 439.06138 
L 532.318717 569.099673 
" clip-path="url(#p4b673efe93)" style="fill: none; stroke: #008000; stroke-width: 1.5; stroke-linecap: square"/>
   </g>
   <g id="line2d_36">
    <path d="M 353.281283 272.8129 
L 359.675542 273.325393 
L 366.069678 273.954087 
L 372.463937 274.535883 
L 378.858074 275.222841 
L 385.252332 275.903389 
L 391.646469 276.765124 
L 398.040678 277.45515 
L 404.434876 278.388237 
L 410.829061 279.203605 
L 417.223259 280.50103 
L 423.617456 281.603683 
L 430.011642 282.953011 
L 436.405839 284.319126 
L 442.800024 285.868667 
L 449.194222 287.359374 
L 455.588407 289.134297 
L 461.982605 291.596727 
L 468.37679 293.525544 
L 474.770988 296.343347 
L 481.165173 298.962541 
L 487.55937 302.368374 
L 493.953568 306.680424 
L 500.347753 310.972584 
L 506.741946 316.786266 
L 513.136137 324.355242 
L 519.53033 335.245297 
L 525.924521 353.979751 
L 532.318717 486.097788 
" clip-path="url(#p4b673efe93)" style="fill: none; stroke: #ff0000; stroke-width: 1.5; stroke-linecap: square"/>
   </g>
   <g id="line2d_37">
    <path d="M 353.281283 187.709386 
L 359.675542 188.221873 
L 366.069678 188.850568 
L 372.463937 189.432365 
L 378.858074 190.119317 
L 385.252332 190.799866 
L 391.646469 191.661602 
L 398.040678 192.351628 
L 404.434876 193.284709 
L 410.829061 194.100078 
L 417.223259 195.397513 
L 423.617456 196.500168 
L 430.011642 197.849487 
L 436.405839 199.215604 
L 442.800024 200.765147 
L 449.194222 202.255856 
L 455.588407 204.030766 
L 461.982605 206.493216 
L 468.37679 208.422025 
L 474.770988 211.239833 
L 481.165173 213.859029 
L 487.55937 217.264865 
L 493.953568 221.576922 
L 500.347753 225.869083 
L 506.741946 231.68278 
L 513.136137 239.251768 
L 519.53033 250.14186 
L 525.924521 268.876425 
L 532.318717 401.016515 
" clip-path="url(#p4b673efe93)" style="fill: none; stroke: #1f77b4; stroke-width: 1.5; stroke-linecap: square"/>
   </g>
   <g id="line2d_38">
    <path d="M 353.281283 102.605909 
L 359.675542 103.118398 
L 366.069678 103.747102 
L 372.463937 104.328901 
L 378.858074 105.015857 
L 385.252332 105.696401 
L 391.646469 106.558141 
L 398.040678 107.248171 
L 404.434876 108.181255 
L 410.829061 108.996629 
L 417.223259 110.294052 
L 423.617456 111.396712 
L 430.011642 112.746049 
L 436.405839 114.112163 
L 442.800024 115.661702 
L 449.194222 117.152406 
L 455.588407 118.927326 
L 461.982605 121.389756 
L 468.37679 123.318577 
L 474.770988 126.136385 
L 481.165173 128.755567 
L 487.55937 132.161394 
L 493.953568 136.47345 
L 500.347753 140.765611 
L 506.741946 146.579302 
L 513.136137 154.148283 
L 519.53033 165.038351 
L 525.924521 183.7729 
L 532.318717 315.913192 
" clip-path="url(#p4b673efe93)" style="fill: none; stroke: #ff7f0e; stroke-width: 1.5; stroke-linecap: square"/>
   </g>
   <g id="patch_9">
    <path d="M 344.329412 640.8 
L 344.329412 86.4 
" style="fill: none; stroke: #000000; stroke-width: 0.8; stroke-linejoin: miter; stroke-linecap: square"/>
   </g>
   <g id="patch_10">
    <path d="M 541.270588 640.8 
L 541.270588 86.4 
" style="fill: none; stroke: #000000; stroke-width: 0.8; stroke-linejoin: miter; stroke-linecap: square"/>
   </g>
   <g id="patch_11">
    <path d="M 344.329412 640.8 
L 541.270588 640.8 
" style="fill: none; stroke: #000000; stroke-width: 0.8; stroke-linejoin: miter; stroke-linecap: square"/>
   </g>
   <g id="patch_12">
    <path d="M 344.329412 86.4 
L 541.270588 86.4 
" style="fill: none; stroke: #000000; stroke-width: 0.8; stroke-linejoin: miter; stroke-linecap: square"/>
   </g>
   <g id="text_30">
    <text style="font: 12px 'sans-serif'; text-anchor: middle" x="442.8" y="80.4" transform="rotate(-0, 442.8, 80.4)">sigma_yy</text>
   </g>
   <g id="legend_2">
    <g id="patch_13">
     <path d="M 351.329412 635.8 
L 431.045037 635.8 
Q 433.045037 635.8 433.045037 633.8 
L 433.045037 546.73125 
Q 433.045037 544.73125 431.045037 544.73125 
L 351.329412 544.73125 
Q 349.329412 544.73125 349.329412 546.73125 
L 349.329412 633.8 
Q 349.329412 635.8 351.329412 635.8 
z
" style="fill: #ffffff; opacity: 0.8; stroke: #cccccc; stroke-linejoin: miter"/>
    </g>
    <g id="line2d_39">
     <path d="M 353.329412 552.829688 
L 363.329412 552.829688 
L 373.329412 552.829688 
" style="fill: none; stroke: #000000; stroke-width: 1.5; stroke-linecap: square"/>
    </g>
    <g id="text_31">
     <text style="font: 10px 'sans-serif'; text-anchor: start" x="381.329412" y="556.329688" transform="rotate(-0, 381.329412, 556.329688)">0.100000</text>
    </g>
    <g id="line2d_40">
     <path d="M 353.329412 567.507812 
L 363.329412 567.507812 
L 373.329412 567.507812 
" style="fill: none; stroke: #0000ff; stroke-width: 1.5; stroke-linecap: square"/>
    </g>
    <g id="text_32">
     <text style="font: 10px 'sans-serif'; text-anchor: start" x="381.329412" y="571.007812" transform="rotate(-0, 381.329412, 571.007812)">0.010000</text>
    </g>
    <g id="line2d_41">
     <path d="M 353.329412 582.185938 
L 363.329412 582.185938 
L 373.329412 582.185938 
" style="fill: none; stroke: #008000; stroke-width: 1.5; stroke-linecap: square"/>
    </g>
    <g id="text_33">
     <text style="font: 10px 'sans-serif'; text-anchor: start" x="381.329412" y="585.685938" transform="rotate(-0, 381.329412, 585.685938)">0.001000</text>
    </g>
    <g id="line2d_42">
     <path d="M 353.329412 596.864063 
L 363.329412 596.864063 
L 373.329412 596.864063 
" style="fill: none; stroke: #ff0000; stroke-width: 1.5; stroke-linecap: square"/>
    </g>
    <g id="text_34">
     <text style="font: 10px 'sans-serif'; text-anchor: start" x="381.329412" y="600.364063" transform="rotate(-0, 381.329412, 600.364063)">0.000100</text>
    </g>
    <g id="line2d_43">
     <path d="M 353.329412 611.542188 
L 363.329412 611.542188 
L 373.329412 611.542188 
" style="fill: none; stroke: #1f77b4; stroke-width: 1.5; stroke-linecap: square"/>
    </g>
    <g id="text_35">
     <text style="font: 10px 'sans-serif'; text-anchor: start" x="381.329412" y="615.042188" transform="rotate(-0, 381.329412, 615.042188)">0.000010</text>
    </g>
    <g id="line2d_44">
     <path d="M 353.329412 626.220313 
L 363.329412 626.220313 
L 373.329412 626.220313 
" style="fill: none; stroke: #ff7f0e; stroke-width: 1.5; stroke-linecap: square"/>
    </g>
    <g id="text_36">
     <text style="font: 10px 'sans-serif'; text-anchor: start" x="381.329412" y="629.720313" transform="rotate(-0, 381.329412, 629.720313)">0.000001</text>
    </g>
   </g>
  </g>
  <g id="axes_3">
   <g id="patch_14">
    <path d="M 580.658824 640.8 
L 777.6 640.8 
L 777.6 86.4 
L 580.658824 86.4 
z
" style="fill: #ffffff"/>
   </g>
   <g id="matplotlib.axis_5">
    <g id="xtick_7">
     <g id="line2d_45">
      <g>
       <use xlink:href="#m397379e783" x="632.021173" y="640.8" style="stroke: #000000; stroke-width: 0.8"/>
      </g>
     </g>
     <g id="text_37">
      <text style="font: 10px 'sans-serif'; text-anchor: middle" x="632.021173" y="655.398438" transform="rotate(-0, 632.021173, 655.398438)">−0.10</text>
     </g>
    </g>
    <g id="xtick_8">
     <g id="line2d_46">
      <g>
       <use xlink:href="#m397379e783" x="693.02694" y="640.8" style="stroke: #000000; stroke-width: 0.8"/>
      </g>
     </g>
     <g id="text_38">
      <text style="font: 10px 'sans-serif'; text-anchor: middle" x="693.02694" y="655.398438" transform="rotate(-0, 693.02694, 655.398438)">−0.05</text>
     </g>
    </g>
    <g id="xtick_9">
     <g id="line2d_47">
      <g>
       <use xlink:href="#m397379e783" x="754.032708" y="640.8" style="stroke: #000000; stroke-width: 0.8"/>
      </g>
     </g>
     <g id="text_39">
      <text style="font: 10px 'sans-serif'; text-anchor: middle" x="754.032708" y="655.398438" transform="rotate(-0, 754.032708, 655.398438)">0.00</text>
     </g>
    </g>
    <g id="text_40">
     <text style="font: 10px 'sans-serif'; text-anchor: middle" x="679.129412" y="669.076563" transform="rotate(-0, 679.129412, 669.076563)">mu</text>
    </g>
   </g>
   <g id="matplotlib.axis_6">
    <g id="ytick_15">
     <g id="line2d_48">
      <g>
       <use xlink:href="#mb6e9b2b081" x="580.658824" y="640.8" style="stroke: #000000; stroke-width: 0.8"/>
      </g>
     </g>
     <g id="text_41">
      <text style="font: 10px 'sans-serif'; text-anchor: end" x="573.658824" y="644.599219" transform="rotate(-0, 573.658824, 644.599219)">−5</text>
     </g>
    </g>
    <g id="ytick_16">
     <g id="line2d_49">
      <g>
       <use xlink:href="#mb6e9b2b081" x="580.658824" y="548.4" style="stroke: #000000; stroke-width: 0.8"/>
      </g>
     </g>
     <g id="text_42">
      <text style="font: 10px 'sans-serif'; text-anchor: end" x="573.658824" y="552.199219" transform="rotate(-0, 573.658824, 552.199219)">0</text>
     </g>
    </g>
    <g id="ytick_17">
     <g id="line2d_50">
      <g>
       <use xlink:href="#mb6e9b2b081" x="580.658824" y="456" style="stroke: #000000; stroke-width: 0.8"/>
      </g>
     </g>
     <g id="text_43">
      <text style="font: 10px 'sans-serif'; text-anchor: end" x="573.658824" y="459.799219" transform="rotate(-0, 573.658824, 459.799219)">5</text>
     </g>
    </g>
    <g id="ytick_18">
     <g id="line2d_51">
      <g>
       <use xlink:href="#mb6e9b2b081" x="580.658824" y="363.6" style="stroke: #000000; stroke-width: 0.8"/>
      </g>
     </g>
     <g id="text_44">
      <text style="font: 10px 'sans-serif'; text-anchor: end" x="573.658824" y="367.399219" transform="rotate(-0, 573.658824, 367.399219)">10</text>
     </g>
    </g>
    <g id="ytick_19">
     <g id="line2d_52">
      <g>
       <use xlink:href="#mb6e9b2b081" x="580.658824" y="271.2" style="stroke: #000000; stroke-width: 0.8"/>
      </g>
     </g>
     <g id="text_45">
      <text style="font: 10px 'sans-serif'; text-anchor: end" x="573.658824" y="274.999219" transform="rotate(-0, 573.658824, 274.999219)">15</text>
     </g>
    </g>
    <g id="ytick_20">
     <g id="line2d_53">
      <g>
       <use xlink:href="#mb6e9b2b081" x="580.658824" y="178.8" style="stroke: #000000; stroke-width: 0.8"/>
      </g>
     </g>
     <g id="text_46">
      <text style="font: 10px 'sans-serif'; text-anchor: end" x="573.658824" y="182.599219" transform="rotate(-0, 573.658824, 182.599219)">20</text>
     </g>
    </g>
    <g id="ytick_21">
     <g id="line2d_54">
      <g>
       <use xlink:href="#mb6e9b2b081" x="580.658824" y="86.4" style="stroke: #000000; stroke-width: 0.8"/>
      </g>
     </g>
     <g id="text_47">
      <text style="font: 10px 'sans-serif'; text-anchor: end" x="573.658824" y="90.199219" transform="rotate(-0, 573.658824, 90.199219)">25</text>
     </g>
    </g>
   </g>
   <g id="line2d_55">
    <path d="M 589.610695 541.649554 
L 596.004954 543.613207 
L 602.39909 545.163599 
L 608.793349 546.987927 
L 615.187485 548.476375 
L 621.581744 550.174807 
L 627.97588 551.743918 
L 634.37009 553.374529 
L 640.764288 555.044125 
L 647.158473 556.885462 
L 653.55267 558.44528 
L 659.946868 560.469055 
L 666.341053 562.305102 
L 672.735251 564.048582 
L 679.129436 566.13567 
L 685.523634 568.228831 
L 691.917819 570.442435 
L 698.312017 572.435788 
L 704.706202 575.220864 
L 711.100399 577.609771 
L 717.494585 580.931704 
L 723.888782 584.158348 
L 730.28298 587.075288 
L 736.677165 591.552421 
L 743.071358 596.139918 
L 749.465549 601.645644 
L 755.859742 608.608485 
L 762.253933 618.841837 
L 768.648128 670.409602 
" clip-path="url(#p3a20e4e29e)" style="fill: none; stroke: #000000; stroke-width: 1.5; stroke-linecap: square"/>
   </g>
   <g id="line2d_56">
    <path d="M 589.610695 463.38328 
L 596.004954 465.129848 
L 602.39909 466.403822 
L 608.793349 468.18257 
L 615.187485 469.490148 
L 621.581744 471.152128 
L 627.97588 472.65207 
L 634.37009 474.257429 
L 640.764288 475.932632 
L 647.158473 477.873155 
L 653.55267 479.40602 
L 659.946868 481.622177 
L 666.341053 483.561029 
L 672.735251 485.361173 
L 679.129436 487.66733 
L 685.523634 489.976606 
L 691.917819 492.458142 
L 698.312017 494.592208 
L 704.706202 497.91979 
L 711.100399 500.625869 
L 717.494585 504.780817 
L 723.888782 508.787925 
L 730.28298 512.264012 
L 736.677165 518.474653 
L 743.071358 524.857599 
L 749.465549 533.025179 
L 755.859742 544.301191 
L 762.253933 563.386508 
L 768.648128 667.864849 
" clip-path="url(#p3a20e4e29e)" style="fill: none; stroke: #0000ff; stroke-width: 1.5; stroke-linecap: square"/>
   </g>
   <g id="line2d_57">
    <path d="M 589.610695 378.362422 
L 596.004954 380.105818 
L 602.39909 381.375809 
L 608.793349 383.153899 
L 615.187485 384.458902 
L 621.581744 386.120357 
L 627.97588 387.61931 
L 634.37009 389.224303 
L 640.764288 390.899567 
L 647.158473 392.841462 
L 653.55267 394.373922 
L 659.946868 396.592772 
L 666.341053 398.533055 
L 672.735251 400.333971 
L 679.129436 402.643247 
L 685.523634 404.955622 
L 691.917819 407.441054 
L 698.312017 409.577146 
L 704.706202 412.912907 
L 711.100399 415.623823 
L 717.494585 419.792035 
L 723.888782 423.812077 
L 730.28298 427.297695 
L 736.677165 433.540176 
L 743.071358 439.959365 
L 749.465549 448.187739 
L 755.859742 459.583438 
L 762.253933 479.026641 
L 768.648128 618.376439 
" clip-path="url(#p3a20e4e29e)" style="fill: none; stroke: #008000; stroke-width: 1.5; stroke-linecap: square"/>
   </g>
   <g id="line2d_58">
    <path d="M 589.610695 293.259705 
L 596.004954 295.00307 
L 602.39909 296.273021 
L 608.793349 298.051105 
L 615.187485 299.356081 
L 621.581744 301.017533 
L 627.97588 302.516476 
L 634.37009 304.121463 
L 640.764288 305.796727 
L 647.158473 307.738635 
L 653.55267 309.271091 
L 659.946868 311.489972 
L 666.341053 313.430265 
L 672.735251 315.231191 
L 679.129436 317.540493 
L 685.523634 319.852911 
L 691.917819 322.338382 
L 698.312017 324.474489 
L 704.706202 327.81033 
L 711.100399 330.5213 
L 717.494585 334.689631 
L 723.888782 338.709813 
L 730.28298 342.195528 
L 736.677165 348.43833 
L 743.071358 354.857885 
L 749.465549 363.08687 
L 755.859742 374.483793 
L 762.253933 393.930682 
L 768.648128 534.390783 
" clip-path="url(#p3a20e4e29e)" style="fill: none; stroke: #ff0000; stroke-width: 1.5; stroke-linecap: square"/>
   </g>
   <g id="line2d_59">
    <path d="M 589.610695 208.15617 
L 596.004954 209.899533 
L 602.39909 211.169485 
L 608.793349 212.947567 
L 615.187485 214.252544 
L 621.581744 215.913993 
L 627.97588 217.412937 
L 634.37009 219.017925 
L 640.764288 220.69319 
L 647.158473 222.635098 
L 653.55267 224.167554 
L 659.946868 226.386432 
L 666.341053 228.326731 
L 672.735251 230.127652 
L 679.129436 232.436962 
L 685.523634 234.749373 
L 691.917819 237.234846 
L 698.312017 239.370954 
L 704.706202 242.706797 
L 711.100399 245.417769 
L 717.494585 249.586104 
L 723.888782 253.606281 
L 730.28298 257.091996 
L 736.677165 263.3348 
L 743.071358 269.75436 
L 749.465549 277.983358 
L 755.859742 289.380293 
L 762.253933 308.827215 
L 768.648128 449.298767 
" clip-path="url(#p3a20e4e29e)" style="fill: none; stroke: #1f77b4; stroke-width: 1.5; stroke-linecap: square"/>
   </g>
   <g id="line2d_60">
    <path d="M 589.610695 123.052684 
L 596.004954 124.79605 
L 602.39909 126.066008 
L 608.793349 127.844088 
L 615.187485 129.149066 
L 621.581744 130.810519 
L 627.97588 132.309462 
L 634.37009 133.914454 
L 640.764288 135.589714 
L 647.158473 137.531627 
L 653.55267 139.06408 
L 659.946868 141.282957 
L 666.341053 143.223258 
L 672.735251 145.024181 
L 679.129436 147.33348 
L 685.523634 149.645891 
L 691.917819 152.131364 
L 698.312017 154.26747 
L 704.706202 157.603312 
L 711.100399 160.31428 
L 717.494585 164.482611 
L 723.888782 168.502786 
L 730.28298 171.988496 
L 736.677165 178.231299 
L 743.071358 184.650852 
L 749.465549 192.879837 
L 755.859742 204.276763 
L 762.253933 223.723683 
L 768.648128 364.195343 
" clip-path="url(#p3a20e4e29e)" style="fill: none; stroke: #ff7f0e; stroke-width: 1.5; stroke-linecap: square"/>
   </g>
   <g id="patch_15">
    <path d="M 580.658824 640.8 
L 580.658824 86.4 
" style="fill: none; stroke: #000000; stroke-width: 0.8; stroke-linejoin: miter; stroke-linecap: square"/>
   </g>
   <g id="patch_16">
    <path d="M 777.6 640.8 
L 777.6 86.4 
" style="fill: none; stroke: #000000; stroke-width: 0.8; stroke-linejoin: miter; stroke-linecap: square"/>
   </g>
   <g id="patch_17">
    <path d="M 580.658824 640.8 
L 777.6 640.8 
" style="fill: none; stroke: #000000; stroke-width: 0.8; stroke-linejoin: miter; stroke-linecap: square"/>
   </g>
   <g id="patch_18">
    <path d="M 580.658824 86.4 
L 777.6 86.4 
" style="fill: none; stroke: #000000; stroke-width: 0.8; stroke-linejoin: miter; stroke-linecap: square"/>
   </g>
   <g id="text_48">
    <text style="font: 12px 'sans-serif'; text-anchor: middle" x="679.129412" y="80.4" transform="rotate(-0, 679.129412, 80.4)">sigma_zz</text>
   </g>
   <g id="legend_3">
    <g id="patch_19">
     <path d="M 690.884375 182.46875 
L 770.6 182.46875 
Q 772.6 182.46875 772.6 180.46875 
L 772.6 93.4 
Q 772.6 91.4 770.6 91.4 
L 690.884375 91.4 
Q 688.884375 91.4 688.884375 93.4 
L 688.884375 180.46875 
Q 688.884375 182.46875 690.884375 182.46875 
z
" style="fill: #ffffff; opacity: 0.8; stroke: #cccccc; stroke-linejoin: miter"/>
    </g>
    <g id="line2d_61">
     <path d="M 692.884375 99.498438 
L 702.884375 99.498438 
L 712.884375 99.498438 
" style="fill: none; stroke: #000000; stroke-width: 1.5; stroke-linecap: square"/>
    </g>
    <g id="text_49">
     <text style="font: 10px 'sans-serif'; text-anchor: start" x="720.884375" y="102.998438" transform="rotate(-0, 720.884375, 102.998438)">0.100000</text>
    </g>
    <g id="line2d_62">
     <path d="M 692.884375 114.176563 
L 702.884375 114.176563 
L 712.884375 114.176563 
" style="fill: none; stroke: #0000ff; stroke-width: 1.5; stroke-linecap: square"/>
    </g>
    <g id="text_50">
     <text style="font: 10px 'sans-serif'; text-anchor: start" x="720.884375" y="117.676563" transform="rotate(-0, 720.884375, 117.676563)">0.010000</text>
    </g>
    <g id="line2d_63">
     <path d="M 692.884375 128.854688 
L 702.884375 128.854688 
L 712.884375 128.854688 
" style="fill: none; stroke: #008000; stroke-width: 1.5; stroke-linecap: square"/>
    </g>
    <g id="text_51">
     <text style="font: 10px 'sans-serif'; text-anchor: start" x="720.884375" y="132.354688" transform="rotate(-0, 720.884375, 132.354688)">0.001000</text>
    </g>
    <g id="line2d_64">
     <path d="M 692.884375 143.532812 
L 702.884375 143.532812 
L 712.884375 143.532812 
" style="fill: none; stroke: #ff0000; stroke-width: 1.5; stroke-linecap: square"/>
    </g>
    <g id="text_52">
     <text style="font: 10px 'sans-serif'; text-anchor: start" x="720.884375" y="147.032812" transform="rotate(-0, 720.884375, 147.032812)">0.000100</text>
    </g>
    <g id="line2d_65">
     <path d="M 692.884375 158.210938 
L 702.884375 158.210938 
L 712.884375 158.210938 
" style="fill: none; stroke: #1f77b4; stroke-width: 1.5; stroke-linecap: square"/>
    </g>
    <g id="text_53">
     <text style="font: 10px 'sans-serif'; text-anchor: start" x="720.884375" y="161.710938" transform="rotate(-0, 720.884375, 161.710938)">0.000010</text>
    </g>
    <g id="line2d_66">
     <path d="M 692.884375 172.889063 
L 702.884375 172.889063 
L 712.884375 172.889063 
" style="fill: none; stroke: #ff7f0e; stroke-width: 1.5; stroke-linecap: square"/>
    </g>
    <g id="text_54">
     <text style="font: 10px 'sans-serif'; text-anchor: start" x="720.884375" y="176.389063" transform="rotate(-0, 720.884375, 176.389063)">0.000001</text>
    </g>
   </g>
  </g>
 </g>
 <defs>
  <clipPath id="pfb77b07945">
   <rect x="108" y="86.4" width="196.941176" height="554.4"/>
  </clipPath>
  <clipPath id="p4b673efe93">
   <rect x="344.329412" y="86.4" width="196.941176" height="554.4"/>
  </clipPath>
  <clipPath id="p3a20e4e29e">
   <rect x="580.658824" y="86.4" width="196.941176" height="554.4"/>
  </clipPath>
 </defs>
</svg>
