<?xml version="1.0" encoding="utf-8" standalone="no"?>
<!DOCTYPE svg PUBLIC "-//W3C//DTD SVG 1.1//EN"
  "http://www.w3.org/Graphics/SVG/1.1/DTD/svg11.dtd">
<svg xmlns:xlink="http://www.w3.org/1999/xlink" width="864pt" height="720pt" viewBox="0 0 864 720" xmlns="http://www.w3.org/2000/svg" version="1.1">
 <metadata>
  <rdf:RDF xmlns:dc="http://purl.org/dc/elements/1.1/" xmlns:cc="http://creativecommons.org/ns#" xmlns:rdf="http://www.w3.org/1999/02/22-rdf-syntax-ns#">
   <cc:Work>
    <dc:type rdf:resource="http://purl.org/dc/dcmitype/StillImage"/>
    <dc:date>2022-04-19T12:44:32.321488</dc:date>
    <dc:format>image/svg+xml</dc:format>
    <dc:creator>
     <cc:Agent>
      <dc:title>Matplotlib v3.5.1, https://matplotlib.org/</dc:title>
     </cc:Agent>
    </dc:creator>
   </cc:Work>
  </rdf:RDF>
 </metadata>
 <defs>
  <style type="text/css">*{stroke-linejoin: round; stroke-linecap: butt}</style>
 </defs>
 <g id="figure_1">
  <g id="patch_1">
   <path d="M 0 720 
L 864 720 
L 864 0 
L 0 0 
z
" style="fill: #ffffff"/>
  </g>
  <g id="axes_1">
   <g id="patch_2">
    <path d="M 108 640.8 
L 304.941176 640.8 
L 304.941176 86.4 
L 108 86.4 
z
" style="fill: #ffffff"/>
   </g>
   <g id="matplotlib.axis_1">
    <g id="xtick_1">
     <g id="line2d_1">
      <defs>
       <path id="m8c623a4658" d="M 0 0 
L 0 3.5 
" style="stroke: #000000; stroke-width: 0.8"/>
      </defs>
      <g>
       <use xlink:href="#m8c623a4658" x="164.396722" y="640.8" style="stroke: #000000; stroke-width: 0.8"/>
      </g>
     </g>
     <g id="text_1">
      <text style="font: 10px 'sans-serif'; text-anchor: middle" x="164.396722" y="655.398438" transform="rotate(-0, 164.396722, 655.398438)">−0.10</text>
     </g>
    </g>
    <g id="xtick_2">
     <g id="line2d_2">
      <g>
       <use xlink:href="#m8c623a4658" x="223.154575" y="640.8" style="stroke: #000000; stroke-width: 0.8"/>
      </g>
     </g>
     <g id="text_2">
      <text style="font: 10px 'sans-serif'; text-anchor: middle" x="223.154575" y="655.398438" transform="rotate(-0, 223.154575, 655.398438)">−0.05</text>
     </g>
    </g>
    <g id="xtick_3">
     <g id="line2d_3">
      <g>
       <use xlink:href="#m8c623a4658" x="281.912428" y="640.8" style="stroke: #000000; stroke-width: 0.8"/>
      </g>
     </g>
     <g id="text_3">
      <text style="font: 10px 'sans-serif'; text-anchor: middle" x="281.912428" y="655.398438" transform="rotate(-0, 281.912428, 655.398438)">0.00</text>
     </g>
    </g>
    <g id="text_4">
     <text style="font: 10px 'sans-serif'; text-anchor: middle" x="206.470588" y="669.076563" transform="rotate(-0, 206.470588, 669.076563)">mu</text>
    </g>
   </g>
   <g id="matplotlib.axis_2">
    <g id="ytick_1">
     <g id="line2d_4">
      <defs>
       <path id="m389d9da4fa" d="M 0 0 
L -3.5 0 
" style="stroke: #000000; stroke-width: 0.8"/>
      </defs>
      <g>
       <use xlink:href="#m389d9da4fa" x="108" y="640.8" style="stroke: #000000; stroke-width: 0.8"/>
      </g>
     </g>
     <g id="text_5">
      <text style="font: 10px 'sans-serif'; text-anchor: end" x="101" y="644.599219" transform="rotate(-0, 101, 644.599219)">−5</text>
     </g>
    </g>
    <g id="ytick_2">
     <g id="line2d_5">
      <g>
       <use xlink:href="#m389d9da4fa" x="108" y="548.4" style="stroke: #000000; stroke-width: 0.8"/>
      </g>
     </g>
     <g id="text_6">
      <text style="font: 10px 'sans-serif'; text-anchor: end" x="101" y="552.199219" transform="rotate(-0, 101, 552.199219)">0</text>
     </g>
    </g>
    <g id="ytick_3">
     <g id="line2d_6">
      <g>
       <use xlink:href="#m389d9da4fa" x="108" y="456" style="stroke: #000000; stroke-width: 0.8"/>
      </g>
     </g>
     <g id="text_7">
      <text style="font: 10px 'sans-serif'; text-anchor: end" x="101" y="459.799219" transform="rotate(-0, 101, 459.799219)">5</text>
     </g>
    </g>
    <g id="ytick_4">
     <g id="line2d_7">
      <g>
       <use xlink:href="#m389d9da4fa" x="108" y="363.6" style="stroke: #000000; stroke-width: 0.8"/>
      </g>
     </g>
     <g id="text_8">
      <text style="font: 10px 'sans-serif'; text-anchor: end" x="101" y="367.399219" transform="rotate(-0, 101, 367.399219)">10</text>
     </g>
    </g>
    <g id="ytick_5">
     <g id="line2d_8">
      <g>
       <use xlink:href="#m389d9da4fa" x="108" y="271.2" style="stroke: #000000; stroke-width: 0.8"/>
      </g>
     </g>
     <g id="text_9">
      <text style="font: 10px 'sans-serif'; text-anchor: end" x="101" y="274.999219" transform="rotate(-0, 101, 274.999219)">15</text>
     </g>
    </g>
    <g id="ytick_6">
     <g id="line2d_9">
      <g>
       <use xlink:href="#m389d9da4fa" x="108" y="178.8" style="stroke: #000000; stroke-width: 0.8"/>
      </g>
     </g>
     <g id="text_10">
      <text style="font: 10px 'sans-serif'; text-anchor: end" x="101" y="182.599219" transform="rotate(-0, 101, 182.599219)">20</text>
     </g>
    </g>
    <g id="ytick_7">
     <g id="line2d_10">
      <g>
       <use xlink:href="#m389d9da4fa" x="108" y="86.4" style="stroke: #000000; stroke-width: 0.8"/>
      </g>
     </g>
     <g id="text_11">
      <text style="font: 10px 'sans-serif'; text-anchor: end" x="101" y="90.199219" transform="rotate(-0, 101, 90.199219)">25</text>
     </g>
    </g>
   </g>
   <g id="line2d_11">
    <path d="M 116.951872 508.318298 
L 120.038657 509.33711 
L 123.125559 510.168004 
L 126.212344 510.860747 
L 129.299247 511.590526 
L 132.386032 512.243556 
L 135.472934 512.8873 
L 138.559837 513.488979 
L 141.646622 514.076179 
L 144.733524 514.624622 
L 147.82031 515.194402 
L 150.907212 515.747119 
L 153.994115 516.274322 
L 157.0809 516.820324 
L 160.167802 517.342141 
L 163.254587 517.856928 
L 166.341466 518.412136 
L 169.428322 518.953112 
L 172.515177 519.475377 
L 175.602033 520.024138 
L 178.688888 520.547307 
L 181.775732 521.090264 
L 184.862588 521.628428 
L 187.949443 522.198563 
L 191.036299 522.809752 
L 194.123154 523.338557 
L 197.209998 524.048421 
L 200.296854 524.607239 
L 203.383709 525.177471 
L 206.470565 525.882452 
L 209.55742 526.506415 
L 212.644264 527.177227 
L 215.73112 527.907055 
L 218.817975 528.607909 
L 221.904831 529.35709 
L 224.991686 530.046336 
L 228.07853 530.892761 
L 231.165386 531.649019 
L 234.252241 532.499356 
L 237.339097 533.295894 
L 240.42594 534.212677 
L 243.512796 535.142706 
L 246.599651 536.120967 
L 249.686507 537.189222 
L 252.773363 538.244905 
L 255.860206 539.367606 
L 258.947062 540.519722 
L 262.033917 541.818021 
L 265.120773 543.197364 
L 268.207628 544.684882 
L 271.294477 546.3076 
L 274.38133 548.086718 
L 277.468183 550.089663 
L 280.555037 552.367316 
L 283.64189 555.037981 
L 286.728743 558.334839 
L 289.815596 562.729056 
L 292.902449 569.736444 
L 295.989305 611.869421 
" clip-path="url(#p54cd350140)" style="fill: none; stroke: #000000; stroke-width: 1.5; stroke-linecap: square"/>
   </g>
   <g id="line2d_12">
    <path d="M 116.951872 441.907919 
L 120.038657 442.206334 
L 123.125559 442.58903 
L 126.212344 442.711519 
L 129.299247 443.119436 
L 132.386032 443.420725 
L 135.472934 443.77546 
L 138.559837 444.084409 
L 141.646622 444.471186 
L 144.733524 444.727291 
L 147.82031 445.099293 
L 150.907212 445.465414 
L 153.994115 445.759695 
L 157.0809 446.210893 
L 160.167802 446.520371 
L 163.254587 446.938447 
L 166.341466 447.415825 
L 169.428322 447.890889 
L 172.515177 448.325871 
L 175.602033 448.759208 
L 178.688888 449.226628 
L 181.775732 449.69958 
L 184.862588 450.235683 
L 187.949443 450.734341 
L 191.036299 451.532036 
L 194.123154 451.992858 
L 197.209998 452.89844 
L 200.296854 453.54539 
L 203.383709 454.02491 
L 206.470565 455.049152 
L 209.55742 455.619273 
L 212.644264 456.473024 
L 215.73112 457.413876 
L 218.817975 458.305493 
L 221.904831 459.243877 
L 224.991686 460.048347 
L 228.07853 461.254305 
L 231.165386 462.403175 
L 234.252241 463.432288 
L 237.339097 464.581794 
L 240.42594 465.926534 
L 243.512796 467.219723 
L 246.599651 468.759416 
L 249.686507 470.421968 
L 252.773363 471.990092 
L 255.860206 473.698492 
L 258.947062 475.681597 
L 262.033917 478.228779 
L 265.120773 480.658897 
L 268.207628 483.359427 
L 271.294477 486.386634 
L 274.38133 489.807679 
L 277.468183 493.802799 
L 280.555037 498.568984 
L 283.64189 504.315864 
L 286.728743 511.671828 
L 289.815596 522.025864 
L 292.902449 539.02376 
L 295.989305 609.055359 
" clip-path="url(#p54cd350140)" style="fill: none; stroke: #0000ff; stroke-width: 1.5; stroke-linecap: square"/>
   </g>
   <g id="line2d_13">
    <path d="M 116.951872 357.132132 
L 120.038657 357.410764 
L 123.125559 357.781568 
L 126.212344 357.889329 
L 129.299247 358.289193 
L 132.386032 358.581811 
L 135.472934 358.929575 
L 138.559837 359.231569 
L 141.646622 359.613688 
L 144.733524 359.863034 
L 147.82031 360.23055 
L 150.907212 360.592514 
L 153.994115 360.88161 
L 157.0809 361.330801 
L 160.167802 361.63564 
L 163.254587 362.051708 
L 166.341466 362.5275 
L 169.428322 363.001232 
L 172.515177 363.434436 
L 175.602033 363.865361 
L 178.688888 364.331705 
L 181.775732 364.803263 
L 184.862588 365.339463 
L 187.949443 365.836692 
L 191.036299 366.638607 
L 194.123154 367.098084 
L 197.209998 368.008078 
L 200.296854 368.657152 
L 203.383709 369.134803 
L 206.470565 370.166327 
L 209.55742 370.735369 
L 212.644264 371.593415 
L 215.73112 372.539245 
L 218.817975 373.43545 
L 221.904831 374.378409 
L 224.991686 375.1858 
L 228.07853 376.400541 
L 231.165386 377.559243 
L 234.252241 378.592981 
L 237.339097 379.75165 
L 240.42594 381.107673 
L 243.512796 382.410704 
L 246.599651 383.965905 
L 249.686507 385.645403 
L 252.773363 387.228682 
L 255.860206 388.954922 
L 258.947062 390.964284 
L 262.033917 393.553068 
L 265.120773 396.020688 
L 268.207628 398.767353 
L 271.294477 401.852076 
L 274.38133 405.346416 
L 277.468183 409.440134 
L 280.555037 414.346309 
L 283.64189 420.29637 
L 286.728743 427.982575 
L 289.815596 438.991167 
L 292.902449 457.809149 
L 295.989305 566.090215 
" clip-path="url(#p54cd350140)" style="fill: none; stroke: #008000; stroke-width: 1.5; stroke-linecap: square"/>
   </g>
   <g id="line2d_14">
    <path d="M 116.951872 272.031892 
L 120.038657 272.310322 
L 123.125559 272.681011 
L 126.212344 272.788624 
L 129.299247 273.188399 
L 132.386032 273.480932 
L 135.472934 273.828623 
L 138.559837 274.130547 
L 141.646622 274.512618 
L 144.733524 274.761902 
L 147.82031 275.129368 
L 150.907212 275.491286 
L 153.994115 275.780332 
L 157.0809 276.229505 
L 160.167802 276.534298 
L 163.254587 276.950346 
L 166.341466 277.426116 
L 169.428322 277.89984 
L 172.515177 278.333019 
L 175.602033 278.763927 
L 178.688888 279.230255 
L 181.775732 279.701805 
L 184.862588 280.238011 
L 187.949443 280.735221 
L 191.036299 281.537179 
L 194.123154 281.996637 
L 197.209998 282.906684 
L 200.296854 283.55577 
L 203.383709 284.033409 
L 206.470565 285.065009 
L 209.55742 285.634033 
L 212.644264 286.49212 
L 215.73112 287.438014 
L 218.817975 288.334262 
L 221.904831 289.27727 
L 224.991686 290.084673 
L 228.07853 291.299512 
L 231.165386 292.458305 
L 234.252241 293.492099 
L 237.339097 294.650862 
L 240.42594 296.006997 
L 243.512796 297.310129 
L 246.599651 298.865487 
L 249.686507 300.545158 
L 252.773363 302.12859 
L 255.860206 303.855013 
L 258.947062 305.864646 
L 262.033917 308.453851 
L 265.120773 310.921862 
L 268.207628 313.668996 
L 271.294477 316.754309 
L 274.38133 320.249419 
L 277.468183 324.344158 
L 280.555037 329.251786 
L 283.64189 335.203993 
L 286.728743 342.893742 
L 289.815596 353.909535 
L 292.902449 372.748966 
L 295.989305 482.685708 
" clip-path="url(#p54cd350140)" style="fill: none; stroke: #ff0000; stroke-width: 1.5; stroke-linecap: square"/>
   </g>
   <g id="line2d_15">
    <path d="M 116.951872 186.928382 
L 120.038657 187.206813 
L 123.125559 187.577497 
L 126.212344 187.685103 
L 129.299247 188.084885 
L 132.386032 188.377413 
L 135.472934 188.725104 
L 138.559837 189.027029 
L 141.646622 189.4091 
L 144.733524 189.658384 
L 147.82031 190.025851 
L 150.907212 190.387762 
L 153.994115 190.676809 
L 157.0809 191.125982 
L 160.167802 191.430775 
L 163.254587 191.846824 
L 166.341466 192.322595 
L 169.428322 192.796319 
L 172.515177 193.229499 
L 175.602033 193.660399 
L 178.688888 194.126737 
L 181.775732 194.598287 
L 184.862588 195.134484 
L 187.949443 195.631695 
L 191.036299 196.433653 
L 194.123154 196.893123 
L 197.209998 197.80316 
L 200.296854 198.452247 
L 203.383709 198.929886 
L 206.470565 199.961488 
L 209.55742 200.530513 
L 212.644264 201.3886 
L 215.73112 202.334483 
L 218.817975 203.230732 
L 221.904831 204.17374 
L 224.991686 204.98116 
L 228.07853 206.196 
L 231.165386 207.354796 
L 234.252241 208.38858 
L 237.339097 209.547345 
L 240.42594 210.903482 
L 243.512796 212.206614 
L 246.599651 213.761975 
L 249.686507 215.441646 
L 252.773363 217.025081 
L 255.860206 218.751507 
L 258.947062 220.761138 
L 262.033917 223.350353 
L 265.120773 225.81836 
L 268.207628 228.565507 
L 271.294477 231.650824 
L 274.38133 235.145938 
L 277.468183 239.240683 
L 280.555037 244.148333 
L 283.64189 250.100556 
L 286.728743 257.790345 
L 289.815596 268.806213 
L 292.902449 287.645862 
L 295.989305 397.599965 
" clip-path="url(#p54cd350140)" style="fill: none; stroke: #1f77b4; stroke-width: 1.5; stroke-linecap: square"/>
   </g>
   <g id="line2d_16">
    <path d="M 116.951872 101.785608 
L 120.038657 102.123011 
L 123.125559 102.503307 
L 126.212344 102.706149 
L 129.299247 103.083505 
L 132.386032 103.382498 
L 135.472934 103.705116 
L 138.559837 103.874831 
L 141.646622 104.170836 
L 144.733524 104.503616 
L 147.82031 104.935044 
L 150.907212 105.282157 
L 153.994115 105.555556 
L 157.0809 106.043191 
L 160.167802 106.337501 
L 163.254587 106.8076 
L 166.341466 107.104684 
L 169.428322 107.583424 
L 172.515177 108.001971 
L 175.602033 108.453033 
L 178.688888 109.105022 
L 181.775732 109.631845 
L 184.862588 110.160291 
L 187.949443 110.749066 
L 191.036299 111.379131 
L 194.123154 112.002071 
L 197.209998 112.655773 
L 200.296854 113.35583 
L 203.383709 114.147712 
L 206.470565 114.910701 
L 209.55742 115.688891 
L 212.644264 116.319681 
L 215.73112 117.085857 
L 218.817975 117.995385 
L 221.904831 118.961718 
L 224.991686 119.922638 
L 228.07853 121.056526 
L 231.165386 122.055072 
L 234.252241 123.260079 
L 237.339097 124.395588 
L 240.42594 125.764355 
L 243.512796 127.169386 
L 246.599651 128.614292 
L 249.686507 130.221664 
L 252.773363 131.946285 
L 255.860206 133.82109 
L 258.947062 135.775335 
L 262.033917 138.235429 
L 265.120773 140.696029 
L 268.207628 143.409652 
L 271.294477 146.493595 
L 274.38133 150.032625 
L 277.468183 154.10805 
L 280.555037 158.946934 
L 283.64189 164.971851 
L 286.728743 172.73677 
L 289.815596 183.61015 
L 292.902449 202.358413 
L 295.989305 313.162886 
" clip-path="url(#p54cd350140)" style="fill: none; stroke: #ff7f0e; stroke-width: 1.5; stroke-linecap: square"/>
   </g>
   <g id="patch_3">
    <path d="M 108 640.8 
L 108 86.4 
" style="fill: none; stroke: #000000; stroke-width: 0.8; stroke-linejoin: miter; stroke-linecap: square"/>
   </g>
   <g id="patch_4">
    <path d="M 304.941176 640.8 
L 304.941176 86.4 
" style="fill: none; stroke: #000000; stroke-width: 0.8; stroke-linejoin: miter; stroke-linecap: square"/>
   </g>
   <g id="patch_5">
    <path d="M 108 640.8 
L 304.941176 640.8 
" style="fill: none; stroke: #000000; stroke-width: 0.8; stroke-linejoin: miter; stroke-linecap: square"/>
   </g>
   <g id="patch_6">
    <path d="M 108 86.4 
L 304.941176 86.4 
" style="fill: none; stroke: #000000; stroke-width: 0.8; stroke-linejoin: miter; stroke-linecap: square"/>
   </g>
   <g id="text_12">
    <text style="font: 12px 'sans-serif'; text-anchor: middle" x="206.470588" y="80.4" transform="rotate(-0, 206.470588, 80.4)">sigma_xx</text>
   </g>
   <g id="legend_1">
    <g id="patch_7">
     <path d="M 115 635.8 
L 194.715625 635.8 
Q 196.715625 635.8 196.715625 633.8 
L 196.715625 546.73125 
Q 196.715625 544.73125 194.715625 544.73125 
L 115 544.73125 
Q 113 544.73125 113 546.73125 
L 113 633.8 
Q 113 635.8 115 635.8 
z
" style="fill: #ffffff; opacity: 0.8; stroke: #cccccc; stroke-linejoin: miter"/>
    </g>
    <g id="line2d_17">
     <path d="M 117 552.829688 
L 127 552.829688 
L 137 552.829688 
" style="fill: none; stroke: #000000; stroke-width: 1.5; stroke-linecap: square"/>
    </g>
    <g id="text_13">
     <text style="font: 10px 'sans-serif'; text-anchor: start" x="145" y="556.329688" transform="rotate(-0, 145, 556.329688)">0.100000</text>
    </g>
    <g id="line2d_18">
     <path d="M 117 567.507812 
L 127 567.507812 
L 137 567.507812 
" style="fill: none; stroke: #0000ff; stroke-width: 1.5; stroke-linecap: square"/>
    </g>
    <g id="text_14">
     <text style="font: 10px 'sans-serif'; text-anchor: start" x="145" y="571.007812" transform="rotate(-0, 145, 571.007812)">0.010000</text>
    </g>
    <g id="line2d_19">
     <path d="M 117 582.185938 
L 127 582.185938 
L 137 582.185938 
" style="fill: none; stroke: #008000; stroke-width: 1.5; stroke-linecap: square"/>
    </g>
    <g id="text_15">
     <text style="font: 10px 'sans-serif'; text-anchor: start" x="145" y="585.685938" transform="rotate(-0, 145, 585.685938)">0.001000</text>
    </g>
    <g id="line2d_20">
     <path d="M 117 596.864063 
L 127 596.864063 
L 137 596.864063 
" style="fill: none; stroke: #ff0000; stroke-width: 1.5; stroke-linecap: square"/>
    </g>
    <g id="text_16">
     <text style="font: 10px 'sans-serif'; text-anchor: start" x="145" y="600.364063" transform="rotate(-0, 145, 600.364063)">0.000100</text>
    </g>
    <g id="line2d_21">
     <path d="M 117 611.542188 
L 127 611.542188 
L 137 611.542188 
" style="fill: none; stroke: #1f77b4; stroke-width: 1.5; stroke-linecap: square"/>
    </g>
    <g id="text_17">
     <text style="font: 10px 'sans-serif'; text-anchor: start" x="145" y="615.042188" transform="rotate(-0, 145, 615.042188)">0.000010</text>
    </g>
    <g id="line2d_22">
     <path d="M 117 626.220313 
L 127 626.220313 
L 137 626.220313 
" style="fill: none; stroke: #ff7f0e; stroke-width: 1.5; stroke-linecap: square"/>
    </g>
    <g id="text_18">
     <text style="font: 10px 'sans-serif'; text-anchor: start" x="145" y="629.720313" transform="rotate(-0, 145, 629.720313)">0.000001</text>
    </g>
   </g>
  </g>
  <g id="axes_2">
   <g id="patch_8">
    <path d="M 344.329412 640.8 
L 541.270588 640.8 
L 541.270588 86.4 
L 344.329412 86.4 
z
" style="fill: #ffffff"/>
   </g>
   <g id="matplotlib.axis_3">
    <g id="xtick_4">
     <g id="line2d_23">
      <g>
       <use xlink:href="#m8c623a4658" x="400.726134" y="640.8" style="stroke: #000000; stroke-width: 0.8"/>
      </g>
     </g>
     <g id="text_19">
      <text style="font: 10px 'sans-serif'; text-anchor: middle" x="400.726134" y="655.398438" transform="rotate(-0, 400.726134, 655.398438)">−0.10</text>
     </g>
    </g>
    <g id="xtick_5">
     <g id="line2d_24">
      <g>
       <use xlink:href="#m8c623a4658" x="459.483987" y="640.8" style="stroke: #000000; stroke-width: 0.8"/>
      </g>
     </g>
     <g id="text_20">
      <text style="font: 10px 'sans-serif'; text-anchor: middle" x="459.483987" y="655.398438" transform="rotate(-0, 459.483987, 655.398438)">−0.05</text>
     </g>
    </g>
    <g id="xtick_6">
     <g id="line2d_25">
      <g>
       <use xlink:href="#m8c623a4658" x="518.241839" y="640.8" style="stroke: #000000; stroke-width: 0.8"/>
      </g>
     </g>
     <g id="text_21">
      <text style="font: 10px 'sans-serif'; text-anchor: middle" x="518.241839" y="655.398438" transform="rotate(-0, 518.241839, 655.398438)">0.00</text>
     </g>
    </g>
    <g id="text_22">
     <text style="font: 10px 'sans-serif'; text-anchor: middle" x="442.8" y="669.076563" transform="rotate(-0, 442.8, 669.076563)">mu</text>
    </g>
   </g>
   <g id="matplotlib.axis_4">
    <g id="ytick_8">
     <g id="line2d_26">
      <g>
       <use xlink:href="#m389d9da4fa" x="344.329412" y="640.8" style="stroke: #000000; stroke-width: 0.8"/>
      </g>
     </g>
     <g id="text_23">
      <text style="font: 10px 'sans-serif'; text-anchor: end" x="337.329412" y="644.599219" transform="rotate(-0, 337.329412, 644.599219)">−5</text>
     </g>
    </g>
    <g id="ytick_9">
     <g id="line2d_27">
      <g>
       <use xlink:href="#m389d9da4fa" x="344.329412" y="548.4" style="stroke: #000000; stroke-width: 0.8"/>
      </g>
     </g>
     <g id="text_24">
      <text style="font: 10px 'sans-serif'; text-anchor: end" x="337.329412" y="552.199219" transform="rotate(-0, 337.329412, 552.199219)">0</text>
     </g>
    </g>
    <g id="ytick_10">
     <g id="line2d_28">
      <g>
       <use xlink:href="#m389d9da4fa" x="344.329412" y="456" style="stroke: #000000; stroke-width: 0.8"/>
      </g>
     </g>
     <g id="text_25">
      <text style="font: 10px 'sans-serif'; text-anchor: end" x="337.329412" y="459.799219" transform="rotate(-0, 337.329412, 459.799219)">5</text>
     </g>
    </g>
    <g id="ytick_11">
     <g id="line2d_29">
      <g>
       <use xlink:href="#m389d9da4fa" x="344.329412" y="363.6" style="stroke: #000000; stroke-width: 0.8"/>
      </g>
     </g>
     <g id="text_26">
      <text style="font: 10px 'sans-serif'; text-anchor: end" x="337.329412" y="367.399219" transform="rotate(-0, 337.329412, 367.399219)">10</text>
     </g>
    </g>
    <g id="ytick_12">
     <g id="line2d_30">
      <g>
       <use xlink:href="#m389d9da4fa" x="344.329412" y="271.2" style="stroke: #000000; stroke-width: 0.8"/>
      </g>
     </g>
     <g id="text_27">
      <text style="font: 10px 'sans-serif'; text-anchor: end" x="337.329412" y="274.999219" transform="rotate(-0, 337.329412, 274.999219)">15</text>
     </g>
    </g>
    <g id="ytick_13">
     <g id="line2d_31">
      <g>
       <use xlink:href="#m389d9da4fa" x="344.329412" y="178.8" style="stroke: #000000; stroke-width: 0.8"/>
      </g>
     </g>
     <g id="text_28">
      <text style="font: 10px 'sans-serif'; text-anchor: end" x="337.329412" y="182.599219" transform="rotate(-0, 337.329412, 182.599219)">20</text>
     </g>
    </g>
    <g id="ytick_14">
     <g id="line2d_32">
      <g>
       <use xlink:href="#m389d9da4fa" x="344.329412" y="86.4" style="stroke: #000000; stroke-width: 0.8"/>
      </g>
     </g>
     <g id="text_29">
      <text style="font: 10px 'sans-serif'; text-anchor: end" x="337.329412" y="90.199219" transform="rotate(-0, 337.329412, 90.199219)">25</text>
     </g>
    </g>
   </g>
   <g id="line2d_33">
    <path d="M 353.281283 508.320366 
L 356.368068 509.336077 
L 359.454971 510.14477 
L 362.541756 510.969408 
L 365.628659 511.635134 
L 368.715444 512.288888 
L 371.802346 512.894956 
L 374.889249 513.491363 
L 377.976034 514.052979 
L 381.062936 514.640415 
L 384.149721 515.180054 
L 387.236624 515.720966 
L 390.323526 516.278231 
L 393.410311 516.79995 
L 396.497214 517.348675 
L 399.583999 517.89095 
L 402.670878 518.402473 
L 405.757734 518.927719 
L 408.844589 519.475925 
L 411.931445 520.025909 
L 415.0183 520.59162 
L 418.105144 521.159824 
L 421.191999 521.731037 
L 424.278855 522.321369 
L 427.365711 522.824982 
L 430.452566 523.479795 
L 433.53941 523.96736 
L 436.626265 524.599219 
L 439.713121 525.312817 
L 442.799976 525.831743 
L 445.886832 526.566274 
L 448.973676 527.225571 
L 452.060531 527.871849 
L 455.147387 528.580415 
L 458.234242 529.311664 
L 461.321098 530.139045 
L 464.407942 530.8548 
L 467.494797 531.63646 
L 470.581653 532.532098 
L 473.668508 533.402851 
L 476.755352 534.29085 
L 479.842208 535.277095 
L 482.929063 536.236501 
L 486.015919 537.258313 
L 489.102774 538.393024 
L 492.189618 539.599388 
L 495.276474 540.793505 
L 498.363329 541.810464 
L 501.450185 543.187228 
L 504.53704 544.671495 
L 507.623889 546.290924 
L 510.710742 548.080759 
L 513.797595 550.078157 
L 516.884448 552.344521 
L 519.971301 555.027461 
L 523.058155 558.338873 
L 526.145008 562.728129 
L 529.231861 569.736708 
L 532.318717 611.872774 
" clip-path="url(#p5b44940ad8)" style="fill: none; stroke: #000000; stroke-width: 1.5; stroke-linecap: square"/>
   </g>
   <g id="line2d_34">
    <path d="M 353.281283 441.955114 
L 356.368068 442.16662 
L 359.454971 442.568161 
L 362.541756 443.064983 
L 365.628659 443.263278 
L 368.715444 443.56053 
L 371.802346 443.801562 
L 374.889249 444.086239 
L 377.976034 444.380402 
L 381.062936 444.760364 
L 384.149721 445.060717 
L 387.236624 445.392377 
L 390.323526 445.770723 
L 393.410311 446.151934 
L 396.497214 446.53557 
L 399.583999 447.009089 
L 402.670878 447.399829 
L 405.757734 447.823697 
L 408.844589 448.333238 
L 411.931445 448.770421 
L 415.0183 449.334169 
L 418.105144 449.873054 
L 421.191999 450.476703 
L 424.278855 451.023813 
L 427.365711 451.570678 
L 430.452566 452.322017 
L 433.53941 452.702516 
L 436.626265 453.526374 
L 439.713121 454.34712 
L 442.799976 454.932784 
L 445.886832 455.762418 
L 448.973676 456.583111 
L 452.060531 457.316465 
L 455.147387 458.230698 
L 458.234242 459.120914 
L 461.321098 460.258479 
L 464.407942 461.14532 
L 467.494797 462.353446 
L 470.581653 463.501528 
L 473.668508 464.866536 
L 476.755352 466.138362 
L 479.842208 467.591251 
L 482.929063 469.083485 
L 486.015919 470.617726 
L 489.102774 472.440424 
L 492.189618 474.440238 
L 495.276474 476.59135 
L 498.363329 478.201308 
L 501.450185 480.622131 
L 504.53704 483.30638 
L 507.623889 486.315965 
L 510.710742 489.780477 
L 513.797595 493.74318 
L 516.884448 498.432109 
L 519.971301 504.239852 
L 523.058155 511.704605 
L 526.145008 522.014079 
L 529.231861 539.028334 
L 532.318717 609.376565 
" clip-path="url(#p5b44940ad8)" style="fill: none; stroke: #0000ff; stroke-width: 1.5; stroke-linecap: square"/>
   </g>
   <g id="line2d_35">
    <path d="M 353.281283 357.180599 
L 356.368068 357.370001 
L 359.454971 357.760765 
L 362.541756 358.24911 
L 365.628659 358.435535 
L 368.715444 358.723956 
L 371.802346 358.956128 
L 374.889249 359.233377 
L 377.976034 359.521306 
L 381.062936 359.896512 
L 384.149721 360.191418 
L 387.236624 360.518405 
L 390.323526 360.892803 
L 393.410311 361.270978 
L 396.497214 361.651036 
L 399.583999 362.123161 
L 402.670878 362.511364 
L 405.757734 362.933121 
L 408.844589 363.441954 
L 411.931445 363.876786 
L 415.0183 364.440612 
L 418.105144 364.978993 
L 421.191999 365.583482 
L 424.278855 366.129771 
L 427.365711 366.677751 
L 430.452566 367.431335 
L 433.53941 367.809651 
L 436.626265 368.637892 
L 439.713121 369.461135 
L 442.799976 370.048494 
L 445.886832 370.880382 
L 448.973676 371.704899 
L 452.060531 372.440421 
L 455.147387 373.359564 
L 458.234242 374.253648 
L 461.321098 375.398707 
L 464.407942 376.289844 
L 467.494797 377.50858 
L 470.581653 378.663132 
L 473.668508 380.040923 
L 476.755352 381.32299 
L 479.842208 382.78857 
L 482.929063 384.29573 
L 486.015919 385.844772 
L 489.102774 387.687922 
L 492.189618 389.712319 
L 495.276474 391.894576 
L 498.363329 393.524919 
L 501.450185 395.982961 
L 504.53704 398.712775 
L 507.623889 401.779142 
L 510.710742 405.318237 
L 513.797595 409.37803 
L 516.884448 414.202622 
L 519.971301 420.215668 
L 523.058155 428.017968 
L 526.145008 438.977968 
L 529.231861 457.814807 
L 532.318717 569.504074 
" clip-path="url(#p5b44940ad8)" style="fill: none; stroke: #008000; stroke-width: 1.5; stroke-linecap: square"/>
   </g>
   <g id="line2d_36">
    <path d="M 353.281283 272.080374 
L 356.368068 272.269552 
L 359.454971 272.660205 
L 362.541756 273.148467 
L 365.628659 273.334769 
L 368.715444 273.623098 
L 371.802346 273.85518 
L 374.889249 274.132362 
L 377.976034 274.420224 
L 381.062936 274.795377 
L 384.149721 275.090231 
L 387.236624 275.417176 
L 390.323526 275.791526 
L 393.410311 276.169667 
L 396.497214 276.549695 
L 399.583999 277.021808 
L 402.670878 277.409979 
L 405.757734 277.831721 
L 408.844589 278.340547 
L 411.931445 278.775354 
L 415.0183 279.339183 
L 418.105144 279.877554 
L 421.191999 280.482057 
L 424.278855 281.028333 
L 427.365711 281.576327 
L 430.452566 282.329938 
L 433.53941 282.708223 
L 436.626265 283.536518 
L 439.713121 284.359779 
L 442.799976 284.94715 
L 445.886832 285.779064 
L 448.973676 286.603631 
L 452.060531 287.339163 
L 455.147387 288.258352 
L 458.234242 289.152477 
L 461.321098 290.297608 
L 464.407942 291.188799 
L 467.494797 292.407653 
L 470.581653 293.562258 
L 473.668508 294.94018 
L 476.755352 296.22235 
L 479.842208 297.688061 
L 482.929063 299.195371 
L 486.015919 300.744563 
L 489.102774 302.587924 
L 492.189618 304.61257 
L 495.276474 306.795147 
L 498.363329 308.425696 
L 501.450185 310.88412 
L 504.53704 313.614402 
L 507.623889 316.681353 
L 510.710742 320.221221 
L 513.797595 324.282019 
L 516.884448 329.108042 
L 519.971301 335.123242 
L 523.058155 342.929163 
L 526.145008 353.896325 
L 529.231861 372.754625 
L 532.318717 486.46426 
" clip-path="url(#p5b44940ad8)" style="fill: none; stroke: #ff0000; stroke-width: 1.5; stroke-linecap: square"/>
   </g>
   <g id="line2d_37">
    <path d="M 353.281283 186.976865 
L 356.368068 187.166037 
L 359.454971 187.55669 
L 362.541756 188.044953 
L 365.628659 188.231249 
L 368.715444 188.519579 
L 371.802346 188.751662 
L 374.889249 189.028837 
L 377.976034 189.316699 
L 381.062936 189.691859 
L 384.149721 189.986714 
L 387.236624 190.313652 
L 390.323526 190.688003 
L 393.410311 191.066144 
L 396.497214 191.446173 
L 399.583999 191.918286 
L 402.670878 192.306458 
L 405.757734 192.7282 
L 408.844589 193.237019 
L 411.931445 193.671826 
L 415.0183 194.235655 
L 418.105144 194.774027 
L 421.191999 195.378531 
L 424.278855 195.924807 
L 427.365711 196.472802 
L 430.452566 197.226413 
L 433.53941 197.604699 
L 436.626265 198.432995 
L 439.713121 199.256257 
L 442.799976 199.843628 
L 445.886832 200.675544 
L 448.973676 201.500099 
L 452.060531 202.235645 
L 455.147387 203.154836 
L 458.234242 204.048962 
L 461.321098 205.194095 
L 464.407942 206.085271 
L 467.494797 207.304126 
L 470.581653 208.458741 
L 473.668508 209.836663 
L 476.755352 211.118836 
L 479.842208 212.584547 
L 482.929063 214.091859 
L 486.015919 215.641051 
L 489.102774 217.484416 
L 492.189618 219.509062 
L 495.276474 221.691645 
L 498.363329 223.322198 
L 501.450185 225.780624 
L 504.53704 228.510913 
L 507.623889 231.577867 
L 510.710742 235.117741 
L 513.797595 239.178554 
L 516.884448 244.004575 
L 519.971301 250.019823 
L 523.058155 257.825766 
L 526.145008 268.792998 
L 529.231861 287.65152 
L 532.318717 401.382558 
" clip-path="url(#p5b44940ad8)" style="fill: none; stroke: #1f77b4; stroke-width: 1.5; stroke-linecap: square"/>
   </g>
   <g id="line2d_38">
    <path d="M 353.281283 101.793765 
L 356.368068 102.184435 
L 359.454971 102.46058 
L 362.541756 102.769377 
L 365.628659 103.022437 
L 368.715444 103.260544 
L 371.802346 103.626207 
L 374.889249 104.020369 
L 377.976034 104.300003 
L 381.062936 104.615157 
L 384.149721 104.910828 
L 387.236624 105.240202 
L 390.323526 105.607701 
L 393.410311 105.985508 
L 396.497214 106.462671 
L 399.583999 106.711607 
L 402.670878 107.296179 
L 405.757734 107.674424 
L 408.844589 108.170774 
L 411.931445 108.617142 
L 415.0183 109.055284 
L 418.105144 109.610259 
L 421.191999 110.144831 
L 424.278855 110.815778 
L 427.365711 111.294951 
L 430.452566 111.941972 
L 433.53941 112.648443 
L 436.626265 113.199118 
L 439.713121 113.799429 
L 442.799976 114.513774 
L 445.886832 115.342142 
L 448.973676 116.384874 
L 452.060531 117.140401 
L 455.147387 118.101088 
L 458.234242 119.082453 
L 461.321098 120.041788 
L 464.407942 121.08568 
L 467.494797 122.206602 
L 470.581653 123.390801 
L 473.668508 124.756687 
L 476.755352 125.844866 
L 479.842208 127.338232 
L 482.929063 128.842652 
L 486.015919 130.410826 
L 489.102774 132.357302 
L 492.189618 134.085651 
L 495.276474 136.331198 
L 498.363329 138.225786 
L 501.450185 140.678874 
L 504.53704 143.440364 
L 507.623889 146.518353 
L 510.710742 150.000915 
L 513.797595 154.09782 
L 516.884448 158.960989 
L 519.971301 164.902788 
L 523.058155 172.686879 
L 526.145008 183.662485 
L 529.231861 202.491251 
L 532.318717 314.102618 
" clip-path="url(#p5b44940ad8)" style="fill: none; stroke: #ff7f0e; stroke-width: 1.5; stroke-linecap: square"/>
   </g>
   <g id="patch_9">
    <path d="M 344.329412 640.8 
L 344.329412 86.4 
" style="fill: none; stroke: #000000; stroke-width: 0.8; stroke-linejoin: miter; stroke-linecap: square"/>
   </g>
   <g id="patch_10">
    <path d="M 541.270588 640.8 
L 541.270588 86.4 
" style="fill: none; stroke: #000000; stroke-width: 0.8; stroke-linejoin: miter; stroke-linecap: square"/>
   </g>
   <g id="patch_11">
    <path d="M 344.329412 640.8 
L 541.270588 640.8 
" style="fill: none; stroke: #000000; stroke-width: 0.8; stroke-linejoin: miter; stroke-linecap: square"/>
   </g>
   <g id="patch_12">
    <path d="M 344.329412 86.4 
L 541.270588 86.4 
" style="fill: none; stroke: #000000; stroke-width: 0.8; stroke-linejoin: miter; stroke-linecap: square"/>
   </g>
   <g id="text_30">
    <text style="font: 12px 'sans-serif'; text-anchor: middle" x="442.8" y="80.4" transform="rotate(-0, 442.8, 80.4)">sigma_yy</text>
   </g>
   <g id="legend_2">
    <g id="patch_13">
     <path d="M 351.329412 635.8 
L 431.045037 635.8 
Q 433.045037 635.8 433.045037 633.8 
L 433.045037 546.73125 
Q 433.045037 544.73125 431.045037 544.73125 
L 351.329412 544.73125 
Q 349.329412 544.73125 349.329412 546.73125 
L 349.329412 633.8 
Q 349.329412 635.8 351.329412 635.8 
z
" style="fill: #ffffff; opacity: 0.8; stroke: #cccccc; stroke-linejoin: miter"/>
    </g>
    <g id="line2d_39">
     <path d="M 353.329412 552.829688 
L 363.329412 552.829688 
L 373.329412 552.829688 
" style="fill: none; stroke: #000000; stroke-width: 1.5; stroke-linecap: square"/>
    </g>
    <g id="text_31">
     <text style="font: 10px 'sans-serif'; text-anchor: start" x="381.329412" y="556.329688" transform="rotate(-0, 381.329412, 556.329688)">0.100000</text>
    </g>
    <g id="line2d_40">
     <path d="M 353.329412 567.507812 
L 363.329412 567.507812 
L 373.329412 567.507812 
" style="fill: none; stroke: #0000ff; stroke-width: 1.5; stroke-linecap: square"/>
    </g>
    <g id="text_32">
     <text style="font: 10px 'sans-serif'; text-anchor: start" x="381.329412" y="571.007812" transform="rotate(-0, 381.329412, 571.007812)">0.010000</text>
    </g>
    <g id="line2d_41">
     <path d="M 353.329412 582.185938 
L 363.329412 582.185938 
L 373.329412 582.185938 
" style="fill: none; stroke: #008000; stroke-width: 1.5; stroke-linecap: square"/>
    </g>
    <g id="text_33">
     <text style="font: 10px 'sans-serif'; text-anchor: start" x="381.329412" y="585.685938" transform="rotate(-0, 381.329412, 585.685938)">0.001000</text>
    </g>
    <g id="line2d_42">
     <path d="M 353.329412 596.864063 
L 363.329412 596.864063 
L 373.329412 596.864063 
" style="fill: none; stroke: #ff0000; stroke-width: 1.5; stroke-linecap: square"/>
    </g>
    <g id="text_34">
     <text style="font: 10px 'sans-serif'; text-anchor: start" x="381.329412" y="600.364063" transform="rotate(-0, 381.329412, 600.364063)">0.000100</text>
    </g>
    <g id="line2d_43">
     <path d="M 353.329412 611.542188 
L 363.329412 611.542188 
L 373.329412 611.542188 
" style="fill: none; stroke: #1f77b4; stroke-width: 1.5; stroke-linecap: square"/>
    </g>
    <g id="text_35">
     <text style="font: 10px 'sans-serif'; text-anchor: start" x="381.329412" y="615.042188" transform="rotate(-0, 381.329412, 615.042188)">0.000010</text>
    </g>
    <g id="line2d_44">
     <path d="M 353.329412 626.220313 
L 363.329412 626.220313 
L 373.329412 626.220313 
" style="fill: none; stroke: #ff7f0e; stroke-width: 1.5; stroke-linecap: square"/>
    </g>
    <g id="text_36">
     <text style="font: 10px 'sans-serif'; text-anchor: start" x="381.329412" y="629.720313" transform="rotate(-0, 381.329412, 629.720313)">0.000001</text>
    </g>
   </g>
  </g>
  <g id="axes_3">
   <g id="patch_14">
    <path d="M 580.658824 640.8 
L 777.6 640.8 
L 777.6 86.4 
L 580.658824 86.4 
z
" style="fill: #ffffff"/>
   </g>
   <g id="matplotlib.axis_5">
    <g id="xtick_7">
     <g id="line2d_45">
      <g>
       <use xlink:href="#m8c623a4658" x="637.055546" y="640.8" style="stroke: #000000; stroke-width: 0.8"/>
      </g>
     </g>
     <g id="text_37">
      <text style="font: 10px 'sans-serif'; text-anchor: middle" x="637.055546" y="655.398438" transform="rotate(-0, 637.055546, 655.398438)">−0.10</text>
     </g>
    </g>
    <g id="xtick_8">
     <g id="line2d_46">
      <g>
       <use xlink:href="#m8c623a4658" x="695.813398" y="640.8" style="stroke: #000000; stroke-width: 0.8"/>
      </g>
     </g>
     <g id="text_38">
      <text style="font: 10px 'sans-serif'; text-anchor: middle" x="695.813398" y="655.398438" transform="rotate(-0, 695.813398, 655.398438)">−0.05</text>
     </g>
    </g>
    <g id="xtick_9">
     <g id="line2d_47">
      <g>
       <use xlink:href="#m8c623a4658" x="754.571251" y="640.8" style="stroke: #000000; stroke-width: 0.8"/>
      </g>
     </g>
     <g id="text_39">
      <text style="font: 10px 'sans-serif'; text-anchor: middle" x="754.571251" y="655.398438" transform="rotate(-0, 754.571251, 655.398438)">0.00</text>
     </g>
    </g>
    <g id="text_40">
     <text style="font: 10px 'sans-serif'; text-anchor: middle" x="679.129412" y="669.076563" transform="rotate(-0, 679.129412, 669.076563)">mu</text>
    </g>
   </g>
   <g id="matplotlib.axis_6">
    <g id="ytick_15">
     <g id="line2d_48">
      <g>
       <use xlink:href="#m389d9da4fa" x="580.658824" y="640.8" style="stroke: #000000; stroke-width: 0.8"/>
      </g>
     </g>
     <g id="text_41">
      <text style="font: 10px 'sans-serif'; text-anchor: end" x="573.658824" y="644.599219" transform="rotate(-0, 573.658824, 644.599219)">−5</text>
     </g>
    </g>
    <g id="ytick_16">
     <g id="line2d_49">
      <g>
       <use xlink:href="#m389d9da4fa" x="580.658824" y="548.4" style="stroke: #000000; stroke-width: 0.8"/>
      </g>
     </g>
     <g id="text_42">
      <text style="font: 10px 'sans-serif'; text-anchor: end" x="573.658824" y="552.199219" transform="rotate(-0, 573.658824, 552.199219)">0</text>
     </g>
    </g>
    <g id="ytick_17">
     <g id="line2d_50">
      <g>
       <use xlink:href="#m389d9da4fa" x="580.658824" y="456" style="stroke: #000000; stroke-width: 0.8"/>
      </g>
     </g>
     <g id="text_43">
      <text style="font: 10px 'sans-serif'; text-anchor: end" x="573.658824" y="459.799219" transform="rotate(-0, 573.658824, 459.799219)">5</text>
     </g>
    </g>
    <g id="ytick_18">
     <g id="line2d_51">
      <g>
       <use xlink:href="#m389d9da4fa" x="580.658824" y="363.6" style="stroke: #000000; stroke-width: 0.8"/>
      </g>
     </g>
     <g id="text_44">
      <text style="font: 10px 'sans-serif'; text-anchor: end" x="573.658824" y="367.399219" transform="rotate(-0, 573.658824, 367.399219)">10</text>
     </g>
    </g>
    <g id="ytick_19">
     <g id="line2d_52">
      <g>
       <use xlink:href="#m389d9da4fa" x="580.658824" y="271.2" style="stroke: #000000; stroke-width: 0.8"/>
      </g>
     </g>
     <g id="text_45">
      <text style="font: 10px 'sans-serif'; text-anchor: end" x="573.658824" y="274.999219" transform="rotate(-0, 573.658824, 274.999219)">15</text>
     </g>
    </g>
    <g id="ytick_20">
     <g id="line2d_53">
      <g>
       <use xlink:href="#m389d9da4fa" x="580.658824" y="178.8" style="stroke: #000000; stroke-width: 0.8"/>
      </g>
     </g>
     <g id="text_46">
      <text style="font: 10px 'sans-serif'; text-anchor: end" x="573.658824" y="182.599219" transform="rotate(-0, 573.658824, 182.599219)">20</text>
     </g>
    </g>
    <g id="ytick_21">
     <g id="line2d_54">
      <g>
       <use xlink:href="#m389d9da4fa" x="580.658824" y="86.4" style="stroke: #000000; stroke-width: 0.8"/>
      </g>
     </g>
     <g id="text_47">
      <text style="font: 10px 'sans-serif'; text-anchor: end" x="573.658824" y="90.199219" transform="rotate(-0, 573.658824, 90.199219)">25</text>
     </g>
    </g>
   </g>
   <g id="line2d_55">
    <path d="M 589.610695 539.441627 
L 592.69748 540.579707 
L 595.784383 541.507092 
L 598.871168 542.484518 
L 601.95807 543.344544 
L 605.044855 544.278895 
L 608.131758 545.120312 
L 611.21866 546.028659 
L 614.305445 546.793675 
L 617.392348 547.612865 
L 620.479133 548.49942 
L 623.566036 549.280716 
L 626.652938 550.220414 
L 629.739723 550.955472 
L 632.826626 551.879339 
L 635.913411 552.564887 
L 639.00029 553.36785 
L 642.087145 554.203642 
L 645.174001 555.004418 
L 648.260856 556.037178 
L 651.347712 556.857743 
L 654.434556 557.788162 
L 657.521411 558.584428 
L 660.608267 559.669844 
L 663.695122 560.269565 
L 666.781978 561.274921 
L 669.868822 562.245063 
L 672.955677 562.972857 
L 676.042533 564.199309 
L 679.129388 564.914859 
L 682.216244 566.255327 
L 685.303088 567.186771 
L 688.389943 568.322559 
L 691.476799 569.380747 
L 694.563654 570.608407 
L 697.65051 571.83022 
L 700.737354 573.025209 
L 703.824209 573.95539 
L 706.911065 575.5318 
L 709.99792 576.704386 
L 713.084764 578.081262 
L 716.171619 579.611773 
L 719.258475 580.998166 
L 722.345331 582.582567 
L 725.432186 584.291965 
L 728.51903 586.062925 
L 731.605885 587.679668 
L 734.692741 589.439236 
L 737.779596 591.482231 
L 740.866452 593.67773 
L 743.9533 596.068448 
L 747.040154 598.66931 
L 750.127007 601.567866 
L 753.21386 604.794569 
L 756.300713 608.533973 
L 759.387566 613.027996 
L 762.47442 618.731273 
L 765.561273 627.223194 
L 768.648128 671.132331 
" clip-path="url(#p0a73112bfe)" style="fill: none; stroke: #000000; stroke-width: 1.5; stroke-linecap: square"/>
   </g>
   <g id="line2d_56">
    <path d="M 589.610695 461.619804 
L 592.69748 462.466425 
L 595.784383 463.209214 
L 598.871168 464.058083 
L 601.95807 464.771285 
L 605.044855 465.649097 
L 608.131758 466.389821 
L 611.21866 467.264407 
L 614.305445 467.938165 
L 617.392348 468.693618 
L 620.479133 469.578448 
L 623.566036 470.296181 
L 626.652938 471.272753 
L 629.739723 471.944423 
L 632.826626 472.897433 
L 635.913411 473.502755 
L 639.00029 474.288064 
L 642.087145 475.127462 
L 645.174001 475.915285 
L 648.260856 477.050976 
L 651.347712 477.874241 
L 654.434556 478.856738 
L 657.521411 479.645188 
L 660.608267 480.863741 
L 663.695122 481.359508 
L 666.781978 482.459763 
L 669.868822 483.50642 
L 672.955677 484.190572 
L 676.042533 485.61722 
L 679.129388 486.280286 
L 682.216244 487.875516 
L 685.303088 488.856885 
L 688.389943 490.146309 
L 691.476799 491.313085 
L 694.563654 492.73559 
L 697.65051 494.148355 
L 700.737354 495.516034 
L 703.824209 496.474837 
L 706.911065 498.42538 
L 709.99792 499.754254 
L 713.084764 501.39266 
L 716.171619 503.271711 
L 719.258475 504.917357 
L 722.345331 506.873421 
L 725.432186 509.040683 
L 728.51903 511.303032 
L 731.605885 513.308356 
L 734.692741 515.640109 
L 737.779596 518.371055 
L 740.866452 521.376776 
L 743.9533 524.745331 
L 747.040154 528.517671 
L 750.127007 532.889106 
L 753.21386 537.952717 
L 756.300713 544.149908 
L 759.387566 552.120492 
L 762.47442 563.094397 
L 765.561273 581.275632 
L 768.648128 668.630256 
" clip-path="url(#p0a73112bfe)" style="fill: none; stroke: #0000ff; stroke-width: 1.5; stroke-linecap: square"/>
   </g>
   <g id="line2d_57">
    <path d="M 589.610695 376.605552 
L 592.69748 377.44783 
L 595.784383 378.187903 
L 598.871168 379.034881 
L 601.95807 379.745955 
L 605.044855 380.622951 
L 608.131758 381.362227 
L 611.21866 382.236327 
L 614.305445 382.908782 
L 617.392348 383.663326 
L 620.479133 384.548128 
L 623.566036 385.264956 
L 626.652938 386.242044 
L 629.739723 386.912807 
L 632.826626 387.866222 
L 635.913411 388.470409 
L 639.00029 389.255462 
L 642.087145 390.094901 
L 645.174001 390.882531 
L 648.260856 392.019665 
L 651.347712 392.842956 
L 654.434556 393.826172 
L 657.521411 394.614502 
L 660.608267 395.83494 
L 663.695122 396.329213 
L 666.781978 397.430794 
L 669.868822 398.478526 
L 672.955677 399.162043 
L 676.042533 400.591538 
L 679.129388 401.253824 
L 682.216244 402.852721 
L 685.303088 403.834796 
L 688.389943 405.126446 
L 691.476799 406.294798 
L 694.563654 407.72017 
L 697.65051 409.135782 
L 700.737354 410.50605 
L 703.824209 411.465239 
L 706.911065 413.42152 
L 709.99792 414.752796 
L 713.084764 416.395277 
L 716.171619 418.279887 
L 719.258475 419.929712 
L 722.345331 421.891903 
L 725.432186 424.066884 
L 728.51903 426.337728 
L 731.605885 428.3499 
L 734.692741 430.692048 
L 737.779596 433.435934 
L 740.866452 436.45754 
L 743.9533 439.846231 
L 747.040154 443.644168 
L 750.127007 448.050226 
L 753.21386 453.16118 
L 756.300713 459.429772 
L 759.387566 467.51962 
L 762.47442 478.725227 
L 765.561273 497.565737 
L 768.648128 619.397375 
" clip-path="url(#p0a73112bfe)" style="fill: none; stroke: #008000; stroke-width: 1.5; stroke-linecap: square"/>
   </g>
   <g id="line2d_58">
    <path d="M 589.610695 291.502889 
L 592.69748 292.345137 
L 595.784383 293.08517 
L 598.871168 293.932141 
L 601.95807 294.643194 
L 605.044855 295.520182 
L 608.131758 296.259443 
L 611.21866 297.133539 
L 614.305445 297.805979 
L 617.392348 298.560514 
L 620.479133 299.445315 
L 623.566036 300.162134 
L 626.652938 301.139228 
L 629.739723 301.809982 
L 632.826626 302.763404 
L 635.913411 303.367576 
L 639.00029 304.152626 
L 642.087145 304.992067 
L 645.174001 305.779695 
L 648.260856 306.916842 
L 651.347712 307.740134 
L 654.434556 308.723359 
L 657.521411 309.511689 
L 660.608267 310.732144 
L 663.695122 311.226398 
L 666.781978 312.327998 
L 669.868822 313.37574 
L 672.955677 314.059245 
L 676.042533 315.488769 
L 679.129388 316.151052 
L 682.216244 317.749984 
L 685.303088 318.732065 
L 688.389943 320.023734 
L 691.476799 321.192107 
L 694.563654 322.617511 
L 697.65051 324.033144 
L 700.737354 325.40344 
L 703.824209 326.362645 
L 706.911065 328.318982 
L 709.99792 329.650267 
L 713.084764 331.292798 
L 716.171619 333.177474 
L 719.258475 334.827334 
L 722.345331 336.789583 
L 725.432186 338.96464 
L 728.51903 341.235569 
L 731.605885 343.247811 
L 734.692741 345.590066 
L 737.779596 348.334082 
L 740.866452 351.355846 
L 743.9533 354.744738 
L 747.040154 358.542939 
L 750.127007 362.949354 
L 753.21386 368.060774 
L 756.300713 374.33011 
L 759.387566 382.421171 
L 762.47442 393.629175 
L 765.561273 412.47667 
L 768.648128 535.430514 
" clip-path="url(#p0a73112bfe)" style="fill: none; stroke: #ff0000; stroke-width: 1.5; stroke-linecap: square"/>
   </g>
   <g id="line2d_59">
    <path d="M 589.610695 206.399361 
L 592.69748 207.241592 
L 595.784383 207.981644 
L 598.871168 208.828606 
L 601.95807 209.539657 
L 605.044855 210.416645 
L 608.131758 211.155907 
L 611.21866 212.030003 
L 614.305445 212.702441 
L 617.392348 213.456976 
L 620.479133 214.341778 
L 623.566036 215.058597 
L 626.652938 216.035691 
L 629.739723 216.706446 
L 632.826626 217.659865 
L 635.913411 218.264041 
L 639.00029 219.049092 
L 642.087145 219.888529 
L 645.174001 220.676157 
L 648.260856 221.813305 
L 651.347712 222.636597 
L 654.434556 223.619823 
L 657.521411 224.408153 
L 660.608267 225.628604 
L 663.695122 226.122863 
L 666.781978 227.224458 
L 669.868822 228.2722 
L 672.955677 228.955712 
L 676.042533 230.385237 
L 679.129388 231.047513 
L 682.216244 232.646445 
L 685.303088 233.628535 
L 688.389943 234.920205 
L 691.476799 236.088571 
L 694.563654 237.513975 
L 697.65051 238.929609 
L 700.737354 240.299905 
L 703.824209 241.2591 
L 706.911065 243.21545 
L 709.99792 244.546735 
L 713.084764 246.189267 
L 716.171619 248.073929 
L 719.258475 249.723807 
L 722.345331 251.68605 
L 725.432186 253.861108 
L 728.51903 256.132039 
L 731.605885 258.14428 
L 734.692741 260.486537 
L 737.779596 263.230556 
L 740.866452 266.252318 
L 743.9533 269.641214 
L 747.040154 273.439413 
L 750.127007 277.845833 
L 753.21386 282.957261 
L 756.300713 289.226595 
L 759.387566 297.317678 
L 762.47442 308.525706 
L 765.561273 327.373267 
L 768.648128 450.338697 
" clip-path="url(#p0a73112bfe)" style="fill: none; stroke: #1f77b4; stroke-width: 1.5; stroke-linecap: square"/>
   </g>
   <g id="line2d_60">
    <path d="M 589.610695 121.284744 
L 592.69748 122.097212 
L 595.784383 123.057159 
L 598.871168 123.773088 
L 601.95807 124.652047 
L 605.044855 125.3737 
L 608.131758 126.055335 
L 611.21866 126.819796 
L 614.305445 127.719399 
L 617.392348 128.454445 
L 620.479133 129.056535 
L 623.566036 129.840036 
L 626.652938 130.829178 
L 629.739723 131.417112 
L 632.826626 132.246563 
L 635.913411 133.277496 
L 639.00029 133.977861 
L 642.087145 134.901394 
L 645.174001 135.75697 
L 648.260856 136.769691 
L 651.347712 137.483967 
L 654.434556 138.29467 
L 657.521411 139.287287 
L 660.608267 139.963389 
L 663.695122 141.141194 
L 666.781978 142.053816 
L 669.868822 142.879331 
L 672.955677 144.187595 
L 676.042533 145.316278 
L 679.129388 146.44676 
L 682.216244 147.42761 
L 685.303088 148.424476 
L 688.389943 150.192897 
L 691.476799 151.226881 
L 694.563654 152.297266 
L 697.65051 153.843309 
L 700.737354 154.958909 
L 703.824209 156.654751 
L 706.911065 158.048053 
L 709.99792 159.517492 
L 713.084764 161.715922 
L 716.171619 163.157779 
L 719.258475 165.196213 
L 722.345331 167.325982 
L 725.432186 168.734582 
L 728.51903 171.375524 
L 731.605885 173.429093 
L 734.692741 175.392816 
L 737.779596 178.164401 
L 740.866452 181.190715 
L 743.9533 184.56158 
L 747.040154 188.397666 
L 750.127007 192.743033 
L 753.21386 197.936332 
L 756.300713 204.203142 
L 759.387566 212.145619 
L 762.47442 223.786063 
L 765.561273 242.979895 
L 768.648128 362.674633 
" clip-path="url(#p0a73112bfe)" style="fill: none; stroke: #ff7f0e; stroke-width: 1.5; stroke-linecap: square"/>
   </g>
   <g id="patch_15">
    <path d="M 580.658824 640.8 
L 580.658824 86.4 
" style="fill: none; stroke: #000000; stroke-width: 0.8; stroke-linejoin: miter; stroke-linecap: square"/>
   </g>
   <g id="patch_16">
    <path d="M 777.6 640.8 
L 777.6 86.4 
" style="fill: none; stroke: #000000; stroke-width: 0.8; stroke-linejoin: miter; stroke-linecap: square"/>
   </g>
   <g id="patch_17">
    <path d="M 580.658824 640.8 
L 777.6 640.8 
" style="fill: none; stroke: #000000; stroke-width: 0.8; stroke-linejoin: miter; stroke-linecap: square"/>
   </g>
   <g id="patch_18">
    <path d="M 580.658824 86.4 
L 777.6 86.4 
" style="fill: none; stroke: #000000; stroke-width: 0.8; stroke-linejoin: miter; stroke-linecap: square"/>
   </g>
   <g id="text_48">
    <text style="font: 12px 'sans-serif'; text-anchor: middle" x="679.129412" y="80.4" transform="rotate(-0, 679.129412, 80.4)">sigma_zz</text>
   </g>
   <g id="legend_3">
    <g id="patch_19">
     <path d="M 690.884375 182.46875 
L 770.6 182.46875 
Q 772.6 182.46875 772.6 180.46875 
L 772.6 93.4 
Q 772.6 91.4 770.6 91.4 
L 690.884375 91.4 
Q 688.884375 91.4 688.884375 93.4 
L 688.884375 180.46875 
Q 688.884375 182.46875 690.884375 182.46875 
z
" style="fill: #ffffff; opacity: 0.8; stroke: #cccccc; stroke-linejoin: miter"/>
    </g>
    <g id="line2d_61">
     <path d="M 692.884375 99.498438 
L 702.884375 99.498438 
L 712.884375 99.498438 
" style="fill: none; stroke: #000000; stroke-width: 1.5; stroke-linecap: square"/>
    </g>
    <g id="text_49">
     <text style="font: 10px 'sans-serif'; text-anchor: start" x="720.884375" y="102.998438" transform="rotate(-0, 720.884375, 102.998438)">0.100000</text>
    </g>
    <g id="line2d_62">
     <path d="M 692.884375 114.176563 
L 702.884375 114.176563 
L 712.884375 114.176563 
" style="fill: none; stroke: #0000ff; stroke-width: 1.5; stroke-linecap: square"/>
    </g>
    <g id="text_50">
     <text style="font: 10px 'sans-serif'; text-anchor: start" x="720.884375" y="117.676563" transform="rotate(-0, 720.884375, 117.676563)">0.010000</text>
    </g>
    <g id="line2d_63">
     <path d="M 692.884375 128.854688 
L 702.884375 128.854688 
L 712.884375 128.854688 
" style="fill: none; stroke: #008000; stroke-width: 1.5; stroke-linecap: square"/>
    </g>
    <g id="text_51">
     <text style="font: 10px 'sans-serif'; text-anchor: start" x="720.884375" y="132.354688" transform="rotate(-0, 720.884375, 132.354688)">0.001000</text>
    </g>
    <g id="line2d_64">
     <path d="M 692.884375 143.532812 
L 702.884375 143.532812 
L 712.884375 143.532812 
" style="fill: none; stroke: #ff0000; stroke-width: 1.5; stroke-linecap: square"/>
    </g>
    <g id="text_52">
     <text style="font: 10px 'sans-serif'; text-anchor: start" x="720.884375" y="147.032812" transform="rotate(-0, 720.884375, 147.032812)">0.000100</text>
    </g>
    <g id="line2d_65">
     <path d="M 692.884375 158.210938 
L 702.884375 158.210938 
L 712.884375 158.210938 
" style="fill: none; stroke: #1f77b4; stroke-width: 1.5; stroke-linecap: square"/>
    </g>
    <g id="text_53">
     <text style="font: 10px 'sans-serif'; text-anchor: start" x="720.884375" y="161.710938" transform="rotate(-0, 720.884375, 161.710938)">0.000010</text>
    </g>
    <g id="line2d_66">
     <path d="M 692.884375 172.889063 
L 702.884375 172.889063 
L 712.884375 172.889063 
" style="fill: none; stroke: #ff7f0e; stroke-width: 1.5; stroke-linecap: square"/>
    </g>
    <g id="text_54">
     <text style="font: 10px 'sans-serif'; text-anchor: start" x="720.884375" y="176.389063" transform="rotate(-0, 720.884375, 176.389063)">0.000001</text>
    </g>
   </g>
  </g>
 </g>
 <defs>
  <clipPath id="p54cd350140">
   <rect x="108" y="86.4" width="196.941176" height="554.4"/>
  </clipPath>
  <clipPath id="p5b44940ad8">
   <rect x="344.329412" y="86.4" width="196.941176" height="554.4"/>
  </clipPath>
  <clipPath id="p0a73112bfe">
   <rect x="580.658824" y="86.4" width="196.941176" height="554.4"/>
  </clipPath>
 </defs>
</svg>
