<?xml version="1.0" encoding="utf-8" standalone="no"?>
<!DOCTYPE svg PUBLIC "-//W3C//DTD SVG 1.1//EN"
  "http://www.w3.org/Graphics/SVG/1.1/DTD/svg11.dtd">
<svg xmlns:xlink="http://www.w3.org/1999/xlink" width="720pt" height="360pt" viewBox="0 0 720 360" xmlns="http://www.w3.org/2000/svg" version="1.1">
 <metadata>
  <rdf:RDF xmlns:dc="http://purl.org/dc/elements/1.1/" xmlns:cc="http://creativecommons.org/ns#" xmlns:rdf="http://www.w3.org/1999/02/22-rdf-syntax-ns#">
   <cc:Work>
    <dc:type rdf:resource="http://purl.org/dc/dcmitype/StillImage"/>
    <dc:date>2022-04-24T16:45:40.040211</dc:date>
    <dc:format>image/svg+xml</dc:format>
    <dc:creator>
     <cc:Agent>
      <dc:title>Matplotlib v3.5.1, https://matplotlib.org/</dc:title>
     </cc:Agent>
    </dc:creator>
   </cc:Work>
  </rdf:RDF>
 </metadata>
 <defs>
  <style type="text/css">*{stroke-linejoin: round; stroke-linecap: butt}</style>
 </defs>
 <g id="figure_1">
  <g id="patch_1">
   <path d="M 0 360 
L 720 360 
L 720 0 
L 0 0 
z
" style="fill: #ffffff"/>
  </g>
  <g id="axes_1">
   <g id="patch_2">
    <path d="M 90 320.4 
L 343.636364 320.4 
L 343.636364 43.2 
L 90 43.2 
z
" style="fill: #ffffff"/>
   </g>
   <g id="PathCollection_1">
    <path d="M 216.818182 44.066025 
C 217.047854 44.066025 217.268151 43.974776 217.430554 43.812372 
C 217.592957 43.649969 217.684207 43.429673 217.684207 43.2 
C 217.684207 42.970327 217.592957 42.750031 217.430554 42.587628 
C 217.268151 42.425224 217.047854 42.333975 216.818182 42.333975 
C 216.588509 42.333975 216.368212 42.425224 216.205809 42.587628 
C 216.043406 42.750031 215.952156 42.970327 215.952156 43.2 
C 215.952156 43.429673 216.043406 43.649969 216.205809 43.812372 
C 216.368212 43.974776 216.588509 44.066025 216.818182 44.066025 
L 216.818182 44.066025 
z
" clip-path="url(#p188f3be1a9)" style="fill: none; stroke: #ff0000"/>
   </g>
   <g id="PathCollection_2">
    <path d="M 215.952174 44.294305 
L 217.684225 44.294305 
L 217.684225 42.562254 
L 215.952174 42.562254 
L 215.952174 44.294305 
z
" clip-path="url(#p188f3be1a9)" style="fill: none; stroke: #008000"/>
   </g>
   <g id="PathCollection_3">
    <path d="M 216.818182 44.698769 
L 217.684207 42.966718 
L 215.952156 42.966718 
L 216.818182 44.698769 
z
" clip-path="url(#p188f3be1a9)" style="fill: none; stroke: #0000ff"/>
   </g>
   <g id="matplotlib.axis_1">
    <g id="xtick_1">
     <g id="line2d_1">
      <defs>
       <path id="m14bbc86345" d="M 0 0 
L 0 3.5 
" style="stroke: #000000; stroke-width: 0.8"/>
      </defs>
      <g>
       <use xlink:href="#m14bbc86345" x="95.784069" y="320.4" style="stroke: #000000; stroke-width: 0.8"/>
      </g>
     </g>
     <g id="text_1">
      <text style="font: 10px 'sans-serif'; text-anchor: middle" x="95.784069" y="334.998438" transform="rotate(-0, 95.784069, 334.998438)">−0.059</text>
     </g>
    </g>
    <g id="xtick_2">
     <g id="line2d_2">
      <g>
       <use xlink:href="#m14bbc86345" x="136.916598" y="320.4" style="stroke: #000000; stroke-width: 0.8"/>
      </g>
     </g>
     <g id="text_2">
      <text style="font: 10px 'sans-serif'; text-anchor: middle" x="136.916598" y="334.998438" transform="rotate(-0, 136.916598, 334.998438)">−0.058</text>
     </g>
    </g>
    <g id="xtick_3">
     <g id="line2d_3">
      <g>
       <use xlink:href="#m14bbc86345" x="178.049128" y="320.4" style="stroke: #000000; stroke-width: 0.8"/>
      </g>
     </g>
     <g id="text_3">
      <text style="font: 10px 'sans-serif'; text-anchor: middle" x="178.049128" y="334.998438" transform="rotate(-0, 178.049128, 334.998438)">−0.057</text>
     </g>
    </g>
    <g id="xtick_4">
     <g id="line2d_4">
      <g>
       <use xlink:href="#m14bbc86345" x="219.181657" y="320.4" style="stroke: #000000; stroke-width: 0.8"/>
      </g>
     </g>
     <g id="text_4">
      <text style="font: 10px 'sans-serif'; text-anchor: middle" x="219.181657" y="334.998438" transform="rotate(-0, 219.181657, 334.998438)">−0.056</text>
     </g>
    </g>
    <g id="xtick_5">
     <g id="line2d_5">
      <g>
       <use xlink:href="#m14bbc86345" x="260.314186" y="320.4" style="stroke: #000000; stroke-width: 0.8"/>
      </g>
     </g>
     <g id="text_5">
      <text style="font: 10px 'sans-serif'; text-anchor: middle" x="260.314186" y="334.998438" transform="rotate(-0, 260.314186, 334.998438)">−0.055</text>
     </g>
    </g>
    <g id="xtick_6">
     <g id="line2d_6">
      <g>
       <use xlink:href="#m14bbc86345" x="301.446716" y="320.4" style="stroke: #000000; stroke-width: 0.8"/>
      </g>
     </g>
     <g id="text_6">
      <text style="font: 10px 'sans-serif'; text-anchor: middle" x="301.446716" y="334.998438" transform="rotate(-0, 301.446716, 334.998438)">−0.054</text>
     </g>
    </g>
    <g id="xtick_7">
     <g id="line2d_7">
      <g>
       <use xlink:href="#m14bbc86345" x="342.579245" y="320.4" style="stroke: #000000; stroke-width: 0.8"/>
      </g>
     </g>
     <g id="text_7">
      <text style="font: 10px 'sans-serif'; text-anchor: middle" x="342.579245" y="334.998438" transform="rotate(-0, 342.579245, 334.998438)">−0.053</text>
     </g>
    </g>
    <g id="text_8">
     <text style="font: 10px 'sans-serif'; text-anchor: middle" x="216.818182" y="348.676562" transform="rotate(-0, 216.818182, 348.676562)">mu</text>
    </g>
   </g>
   <g id="matplotlib.axis_2">
    <g id="ytick_1">
     <g id="line2d_8">
      <defs>
       <path id="ma87657528e" d="M 0 0 
L -3.5 0 
" style="stroke: #000000; stroke-width: 0.8"/>
      </defs>
      <g>
       <use xlink:href="#ma87657528e" x="90" y="317.655446" style="stroke: #000000; stroke-width: 0.8"/>
      </g>
     </g>
     <g id="text_9">
      <text style="font: 10px 'sans-serif'; text-anchor: end" x="83" y="321.454664" transform="rotate(-0, 83, 321.454664)">0</text>
     </g>
    </g>
    <g id="ytick_2">
     <g id="line2d_9">
      <g>
       <use xlink:href="#ma87657528e" x="90" y="260.352098" style="stroke: #000000; stroke-width: 0.8"/>
      </g>
     </g>
     <g id="text_10">
      <text style="font: 10px 'sans-serif'; text-anchor: end" x="83" y="264.151316" transform="rotate(-0, 83, 264.151316)">200000</text>
     </g>
    </g>
    <g id="ytick_3">
     <g id="line2d_10">
      <g>
       <use xlink:href="#ma87657528e" x="90" y="203.048749" style="stroke: #000000; stroke-width: 0.8"/>
      </g>
     </g>
     <g id="text_11">
      <text style="font: 10px 'sans-serif'; text-anchor: end" x="83" y="206.847968" transform="rotate(-0, 83, 206.847968)">400000</text>
     </g>
    </g>
    <g id="ytick_4">
     <g id="line2d_11">
      <g>
       <use xlink:href="#ma87657528e" x="90" y="145.745401" style="stroke: #000000; stroke-width: 0.8"/>
      </g>
     </g>
     <g id="text_12">
      <text style="font: 10px 'sans-serif'; text-anchor: end" x="83" y="149.54462" transform="rotate(-0, 83, 149.54462)">600000</text>
     </g>
    </g>
    <g id="ytick_5">
     <g id="line2d_12">
      <g>
       <use xlink:href="#ma87657528e" x="90" y="88.442053" style="stroke: #000000; stroke-width: 0.8"/>
      </g>
     </g>
     <g id="text_13">
      <text style="font: 10px 'sans-serif'; text-anchor: end" x="83" y="92.241272" transform="rotate(-0, 83, 92.241272)">800000</text>
     </g>
    </g>
    <g id="text_14">
     <text style="font: 10px 'sans-serif'; text-anchor: middle" x="38.745312" y="181.8" transform="rotate(-90, 38.745312, 181.8)">conductivity</text>
    </g>
   </g>
   <g id="patch_3">
    <path d="M 90 320.4 
L 90 43.2 
" style="fill: none; stroke: #000000; stroke-width: 0.8; stroke-linejoin: miter; stroke-linecap: square"/>
   </g>
   <g id="patch_4">
    <path d="M 343.636364 320.4 
L 343.636364 43.2 
" style="fill: none; stroke: #000000; stroke-width: 0.8; stroke-linejoin: miter; stroke-linecap: square"/>
   </g>
   <g id="patch_5">
    <path d="M 90 320.4 
L 343.636364 320.4 
" style="fill: none; stroke: #000000; stroke-width: 0.8; stroke-linejoin: miter; stroke-linecap: square"/>
   </g>
   <g id="patch_6">
    <path d="M 90 43.2 
L 343.636364 43.2 
" style="fill: none; stroke: #000000; stroke-width: 0.8; stroke-linejoin: miter; stroke-linecap: square"/>
   </g>
   <g id="text_15">
    <text style="font: 12px 'sans-serif'; text-anchor: middle" x="216.818182" y="37.2" transform="rotate(-0, 216.818182, 37.2)">diagonal</text>
   </g>
   <g id="legend_1">
    <g id="patch_7">
     <path d="M 292.798864 95.234375 
L 336.636364 95.234375 
Q 338.636364 95.234375 338.636364 93.234375 
L 338.636364 50.2 
Q 338.636364 48.2 336.636364 48.2 
L 292.798864 48.2 
Q 290.798864 48.2 290.798864 50.2 
L 290.798864 93.234375 
Q 290.798864 95.234375 292.798864 95.234375 
z
" style="fill: #ffffff; opacity: 0.8; stroke: #cccccc; stroke-linejoin: miter"/>
    </g>
    <g id="PathCollection_4">
     <path d="M 304.798864 58.039463 
C 305.028536 58.039463 305.248833 57.948213 305.411236 57.78581 
C 305.573639 57.623407 305.664889 57.40311 305.664889 57.173437 
C 305.664889 56.943765 305.573639 56.723468 305.411236 56.561065 
C 305.248833 56.398662 305.028536 56.307412 304.798864 56.307412 
C 304.569191 56.307412 304.348894 56.398662 304.186491 56.561065 
C 304.024088 56.723468 303.932838 56.943765 303.932838 57.173437 
C 303.932838 57.40311 304.024088 57.623407 304.186491 57.78581 
C 304.348894 57.948213 304.569191 58.039463 304.798864 58.039463 
L 304.798864 58.039463 
z
" style="fill: none; stroke: #ff0000"/>
    </g>
    <g id="text_16">
     <text style="font: 10px 'sans-serif'; text-anchor: start" x="322.798864" y="59.798437" transform="rotate(-0, 322.798864, 59.798437)">xx</text>
    </g>
    <g id="PathCollection_5">
     <path d="M 303.932856 72.717571 
L 305.664906 72.717571 
L 305.664906 70.98552 
L 303.932856 70.98552 
L 303.932856 72.717571 
z
" style="fill: none; stroke: #008000"/>
    </g>
    <g id="text_17">
     <text style="font: 10px 'sans-serif'; text-anchor: start" x="322.798864" y="74.476562" transform="rotate(-0, 322.798864, 74.476562)">yy</text>
    </g>
    <g id="PathCollection_6">
     <path d="M 304.798864 87.395713 
L 305.664889 85.663662 
L 303.932838 85.663662 
L 304.798864 87.395713 
z
" style="fill: none; stroke: #0000ff"/>
    </g>
    <g id="text_18">
     <text style="font: 10px 'sans-serif'; text-anchor: start" x="322.798864" y="89.154687" transform="rotate(-0, 322.798864, 89.154687)">zz</text>
    </g>
   </g>
  </g>
  <g id="axes_2">
   <g id="patch_8">
    <path d="M 394.363636 320.4 
L 648 320.4 
L 648 43.2 
L 394.363636 43.2 
z
" style="fill: #ffffff"/>
   </g>
   <g id="PathCollection_7">
    <path d="M 521.181818 318.526269 
C 521.411491 318.526269 521.631788 318.435019 521.794191 318.272616 
C 521.956594 318.110213 522.047844 317.889916 522.047844 317.660244 
C 522.047844 317.430571 521.956594 317.210275 521.794191 317.047871 
C 521.631788 316.885468 521.411491 316.794218 521.181818 316.794218 
C 520.952146 316.794218 520.731849 316.885468 520.569446 317.047871 
C 520.407043 317.210275 520.315793 317.430571 520.315793 317.660244 
C 520.315793 317.889916 520.407043 318.110213 520.569446 318.272616 
C 520.731849 318.435019 520.952146 318.526269 521.181818 318.526269 
L 521.181818 318.526269 
z
" clip-path="url(#p64c09da175)" style="fill: none; stroke: #ff0000"/>
   </g>
   <g id="PathCollection_8">
    <path d="M 520.31581 317.990156 
L 522.047861 317.990156 
L 522.047861 316.258106 
L 520.31581 316.258106 
L 520.31581 317.990156 
z
" clip-path="url(#p64c09da175)" style="fill: none; stroke: #008000"/>
   </g>
   <g id="PathCollection_9">
    <path d="M 521.181818 318.526269 
L 522.047844 316.794218 
L 520.315793 316.794218 
L 521.181818 318.526269 
z
" clip-path="url(#p64c09da175)" style="fill: none; stroke: #0000ff"/>
   </g>
   <g id="PathCollection_10">
    <path d="M 521.181818 319.662781 
L 522.406563 318.438036 
L 521.181818 317.213291 
L 519.957073 318.438036 
L 521.181818 319.662781 
z
" clip-path="url(#p64c09da175)" style="fill: none; stroke: #1f77b4"/>
   </g>
   <g id="PathCollection_11">
    <path d="M 521.181818 316.258123 
L 520.315793 317.990174 
L 522.047844 317.990174 
L 521.181818 316.258123 
z
" clip-path="url(#p64c09da175)" style="fill: none; stroke: #ff7f0e"/>
   </g>
   <g id="PathCollection_12">
    <path d="M 520.315793 318.438036 
L 522.047844 319.304061 
L 522.047844 317.572011 
L 520.315793 318.438036 
z
" clip-path="url(#p64c09da175)" style="fill: none; stroke: #2ca02c"/>
   </g>
   <g id="matplotlib.axis_3">
    <g id="xtick_8">
     <g id="line2d_13">
      <g>
       <use xlink:href="#m14bbc86345" x="400.147705" y="320.4" style="stroke: #000000; stroke-width: 0.8"/>
      </g>
     </g>
     <g id="text_19">
      <text style="font: 10px 'sans-serif'; text-anchor: middle" x="400.147705" y="334.998438" transform="rotate(-0, 400.147705, 334.998438)">−0.059</text>
     </g>
    </g>
    <g id="xtick_9">
     <g id="line2d_14">
      <g>
       <use xlink:href="#m14bbc86345" x="441.280234" y="320.4" style="stroke: #000000; stroke-width: 0.8"/>
      </g>
     </g>
     <g id="text_20">
      <text style="font: 10px 'sans-serif'; text-anchor: middle" x="441.280234" y="334.998438" transform="rotate(-0, 441.280234, 334.998438)">−0.058</text>
     </g>
    </g>
    <g id="xtick_10">
     <g id="line2d_15">
      <g>
       <use xlink:href="#m14bbc86345" x="482.412764" y="320.4" style="stroke: #000000; stroke-width: 0.8"/>
      </g>
     </g>
     <g id="text_21">
      <text style="font: 10px 'sans-serif'; text-anchor: middle" x="482.412764" y="334.998438" transform="rotate(-0, 482.412764, 334.998438)">−0.057</text>
     </g>
    </g>
    <g id="xtick_11">
     <g id="line2d_16">
      <g>
       <use xlink:href="#m14bbc86345" x="523.545293" y="320.4" style="stroke: #000000; stroke-width: 0.8"/>
      </g>
     </g>
     <g id="text_22">
      <text style="font: 10px 'sans-serif'; text-anchor: middle" x="523.545293" y="334.998438" transform="rotate(-0, 523.545293, 334.998438)">−0.056</text>
     </g>
    </g>
    <g id="xtick_12">
     <g id="line2d_17">
      <g>
       <use xlink:href="#m14bbc86345" x="564.677823" y="320.4" style="stroke: #000000; stroke-width: 0.8"/>
      </g>
     </g>
     <g id="text_23">
      <text style="font: 10px 'sans-serif'; text-anchor: middle" x="564.677823" y="334.998438" transform="rotate(-0, 564.677823, 334.998438)">−0.055</text>
     </g>
    </g>
    <g id="xtick_13">
     <g id="line2d_18">
      <g>
       <use xlink:href="#m14bbc86345" x="605.810352" y="320.4" style="stroke: #000000; stroke-width: 0.8"/>
      </g>
     </g>
     <g id="text_24">
      <text style="font: 10px 'sans-serif'; text-anchor: middle" x="605.810352" y="334.998438" transform="rotate(-0, 605.810352, 334.998438)">−0.054</text>
     </g>
    </g>
    <g id="xtick_14">
     <g id="line2d_19">
      <g>
       <use xlink:href="#m14bbc86345" x="646.942882" y="320.4" style="stroke: #000000; stroke-width: 0.8"/>
      </g>
     </g>
     <g id="text_25">
      <text style="font: 10px 'sans-serif'; text-anchor: middle" x="646.942882" y="334.998438" transform="rotate(-0, 646.942882, 334.998438)">−0.053</text>
     </g>
    </g>
    <g id="text_26">
     <text style="font: 10px 'sans-serif'; text-anchor: middle" x="521.181818" y="348.676562" transform="rotate(-0, 521.181818, 348.676562)">mu</text>
    </g>
   </g>
   <g id="matplotlib.axis_4">
    <g id="ytick_6">
     <g id="line2d_20">
      <g>
       <use xlink:href="#ma87657528e" x="394.363636" y="317.655446" style="stroke: #000000; stroke-width: 0.8"/>
      </g>
     </g>
     <g id="text_27">
      <text style="font: 10px 'sans-serif'; text-anchor: end" x="387.363636" y="321.454664" transform="rotate(-0, 387.363636, 321.454664)">0</text>
     </g>
    </g>
    <g id="ytick_7">
     <g id="line2d_21">
      <g>
       <use xlink:href="#ma87657528e" x="394.363636" y="260.352098" style="stroke: #000000; stroke-width: 0.8"/>
      </g>
     </g>
     <g id="text_28">
      <text style="font: 10px 'sans-serif'; text-anchor: end" x="387.363636" y="264.151316" transform="rotate(-0, 387.363636, 264.151316)">200000</text>
     </g>
    </g>
    <g id="ytick_8">
     <g id="line2d_22">
      <g>
       <use xlink:href="#ma87657528e" x="394.363636" y="203.048749" style="stroke: #000000; stroke-width: 0.8"/>
      </g>
     </g>
     <g id="text_29">
      <text style="font: 10px 'sans-serif'; text-anchor: end" x="387.363636" y="206.847968" transform="rotate(-0, 387.363636, 206.847968)">400000</text>
     </g>
    </g>
    <g id="ytick_9">
     <g id="line2d_23">
      <g>
       <use xlink:href="#ma87657528e" x="394.363636" y="145.745401" style="stroke: #000000; stroke-width: 0.8"/>
      </g>
     </g>
     <g id="text_30">
      <text style="font: 10px 'sans-serif'; text-anchor: end" x="387.363636" y="149.54462" transform="rotate(-0, 387.363636, 149.54462)">600000</text>
     </g>
    </g>
    <g id="ytick_10">
     <g id="line2d_24">
      <g>
       <use xlink:href="#ma87657528e" x="394.363636" y="88.442053" style="stroke: #000000; stroke-width: 0.8"/>
      </g>
     </g>
     <g id="text_31">
      <text style="font: 10px 'sans-serif'; text-anchor: end" x="387.363636" y="92.241272" transform="rotate(-0, 387.363636, 92.241272)">800000</text>
     </g>
    </g>
   </g>
   <g id="patch_9">
    <path d="M 394.363636 320.4 
L 394.363636 43.2 
" style="fill: none; stroke: #000000; stroke-width: 0.8; stroke-linejoin: miter; stroke-linecap: square"/>
   </g>
   <g id="patch_10">
    <path d="M 648 320.4 
L 648 43.2 
" style="fill: none; stroke: #000000; stroke-width: 0.8; stroke-linejoin: miter; stroke-linecap: square"/>
   </g>
   <g id="patch_11">
    <path d="M 394.363636 320.4 
L 648 320.4 
" style="fill: none; stroke: #000000; stroke-width: 0.8; stroke-linejoin: miter; stroke-linecap: square"/>
   </g>
   <g id="patch_12">
    <path d="M 394.363636 43.2 
L 648 43.2 
" style="fill: none; stroke: #000000; stroke-width: 0.8; stroke-linejoin: miter; stroke-linecap: square"/>
   </g>
   <g id="text_32">
    <text style="font: 10px 'sans-serif'; text-anchor: start" x="2004.316353" y="317.650002" transform="rotate(-0, 2004.316353, 317.650002)">eps = 0.000010 [eV]</text>
   </g>
   <g id="text_33">
    <text style="font: 12px 'sans-serif'; text-anchor: middle" x="521.181818" y="37.2" transform="rotate(-0, 521.181818, 37.2)">off-diagonal</text>
   </g>
   <g id="legend_2">
    <g id="patch_13">
     <path d="M 597.1625 139.26875 
L 641 139.26875 
Q 643 139.26875 643 137.26875 
L 643 50.2 
Q 643 48.2 641 48.2 
L 597.1625 48.2 
Q 595.1625 48.2 595.1625 50.2 
L 595.1625 137.26875 
Q 595.1625 139.26875 597.1625 139.26875 
z
" style="fill: #ffffff; opacity: 0.8; stroke: #cccccc; stroke-linejoin: miter"/>
    </g>
    <g id="PathCollection_13">
     <path d="M 609.1625 58.039463 
C 609.392173 58.039463 609.612469 57.948213 609.774872 57.78581 
C 609.937276 57.623407 610.028525 57.40311 610.028525 57.173437 
C 610.028525 56.943765 609.937276 56.723468 609.774872 56.561065 
C 609.612469 56.398662 609.392173 56.307412 609.1625 56.307412 
C 608.932827 56.307412 608.712531 56.398662 608.550128 56.561065 
C 608.387724 56.723468 608.296475 56.943765 608.296475 57.173437 
C 608.296475 57.40311 608.387724 57.623407 608.550128 57.78581 
C 608.712531 57.948213 608.932827 58.039463 609.1625 58.039463 
L 609.1625 58.039463 
z
" style="fill: none; stroke: #ff0000"/>
    </g>
    <g id="text_34">
     <text style="font: 10px 'sans-serif'; text-anchor: start" x="627.1625" y="59.798437" transform="rotate(-0, 627.1625, 59.798437)">xy</text>
    </g>
    <g id="PathCollection_14">
     <path d="M 608.296492 72.717571 
L 610.028543 72.717571 
L 610.028543 70.98552 
L 608.296492 70.98552 
L 608.296492 72.717571 
z
" style="fill: none; stroke: #008000"/>
    </g>
    <g id="text_35">
     <text style="font: 10px 'sans-serif'; text-anchor: start" x="627.1625" y="74.476562" transform="rotate(-0, 627.1625, 74.476562)">xz</text>
    </g>
    <g id="PathCollection_15">
     <path d="M 609.1625 87.395713 
L 610.028525 85.663662 
L 608.296475 85.663662 
L 609.1625 87.395713 
z
" style="fill: none; stroke: #0000ff"/>
    </g>
    <g id="text_36">
     <text style="font: 10px 'sans-serif'; text-anchor: start" x="627.1625" y="89.154687" transform="rotate(-0, 627.1625, 89.154687)">yx</text>
    </g>
    <g id="PathCollection_16">
     <path d="M 609.1625 102.432557 
L 610.387245 101.207812 
L 609.1625 99.983068 
L 607.937755 101.207812 
L 609.1625 102.432557 
z
" style="fill: none; stroke: #1f77b4"/>
    </g>
    <g id="text_37">
     <text style="font: 10px 'sans-serif'; text-anchor: start" x="627.1625" y="103.832812" transform="rotate(-0, 627.1625, 103.832812)">yz</text>
    </g>
    <g id="PathCollection_17">
     <path d="M 609.1625 115.019912 
L 608.296475 116.751963 
L 610.028525 116.751963 
L 609.1625 115.019912 
z
" style="fill: none; stroke: #ff7f0e"/>
    </g>
    <g id="text_38">
     <text style="font: 10px 'sans-serif'; text-anchor: start" x="627.1625" y="118.510937" transform="rotate(-0, 627.1625, 118.510937)">zx</text>
    </g>
    <g id="PathCollection_18">
     <path d="M 608.296475 130.564062 
L 610.028525 131.430088 
L 610.028525 129.698037 
L 608.296475 130.564062 
z
" style="fill: none; stroke: #2ca02c"/>
    </g>
    <g id="text_39">
     <text style="font: 10px 'sans-serif'; text-anchor: start" x="627.1625" y="133.189062" transform="rotate(-0, 627.1625, 133.189062)">zy</text>
    </g>
   </g>
  </g>
 </g>
 <defs>
  <clipPath id="p188f3be1a9">
   <rect x="90" y="43.2" width="253.636364" height="277.2"/>
  </clipPath>
  <clipPath id="p64c09da175">
   <rect x="394.363636" y="43.2" width="253.636364" height="277.2"/>
  </clipPath>
 </defs>
</svg>
