<?xml version="1.0" encoding="utf-8" standalone="no"?>
<!DOCTYPE svg PUBLIC "-//W3C//DTD SVG 1.1//EN"
  "http://www.w3.org/Graphics/SVG/1.1/DTD/svg11.dtd">
<svg xmlns:xlink="http://www.w3.org/1999/xlink" width="720pt" height="720pt" viewBox="0 0 720 720" xmlns="http://www.w3.org/2000/svg" version="1.1">
 <metadata>
  <rdf:RDF xmlns:dc="http://purl.org/dc/elements/1.1/" xmlns:cc="http://creativecommons.org/ns#" xmlns:rdf="http://www.w3.org/1999/02/22-rdf-syntax-ns#">
   <cc:Work>
    <dc:type rdf:resource="http://purl.org/dc/dcmitype/StillImage"/>
    <dc:date>2022-04-24T16:52:21.451068</dc:date>
    <dc:format>image/svg+xml</dc:format>
    <dc:creator>
     <cc:Agent>
      <dc:title>Matplotlib v3.5.1, https://matplotlib.org/</dc:title>
     </cc:Agent>
    </dc:creator>
   </cc:Work>
  </rdf:RDF>
 </metadata>
 <defs>
  <style type="text/css">*{stroke-linejoin: round; stroke-linecap: butt}</style>
 </defs>
 <g id="figure_1">
  <g id="patch_1">
   <path d="M 0 720 
L 720 720 
L 720 0 
L 0 0 
z
" style="fill: #ffffff"/>
  </g>
  <g id="axes_1">
   <g id="patch_2">
    <path d="M 90 640.8 
L 648 640.8 
L 648 86.4 
L 90 86.4 
z
" style="fill: #ffffff"/>
   </g>
   <g id="PathCollection_1">
    <path d="M 115.363636 87.266025 
C 115.593309 87.266025 115.813606 87.174776 115.976009 87.012372 
C 116.138412 86.849969 116.229662 86.629673 116.229662 86.4 
C 116.229662 86.170327 116.138412 85.950031 115.976009 85.787628 
C 115.813606 85.625224 115.593309 85.533975 115.363636 85.533975 
C 115.133964 85.533975 114.913667 85.625224 114.751264 85.787628 
C 114.588861 85.950031 114.497611 86.170327 114.497611 86.4 
C 114.497611 86.629673 114.588861 86.849969 114.751264 87.012372 
C 114.913667 87.174776 115.133964 87.266025 115.363636 87.266025 
L 115.363636 87.266025 
z
" clip-path="url(#p8eb2ea9518)" style="fill: none; stroke: #ff0000"/>
   </g>
   <g id="PathCollection_2">
    <path d="M 114.497628 87.722601 
L 116.229679 87.722601 
L 116.229679 85.99055 
L 114.497628 85.99055 
L 114.497628 87.722601 
z
" clip-path="url(#p8eb2ea9518)" style="fill: none; stroke: #008000"/>
   </g>
   <g id="PathCollection_3">
    <path d="M 115.363636 88.531513 
L 116.229662 86.799462 
L 114.497611 86.799462 
L 115.363636 88.531513 
z
" clip-path="url(#p8eb2ea9518)" style="fill: none; stroke: #0000ff"/>
   </g>
   <g id="matplotlib.axis_1">
    <g id="xtick_1">
     <g id="line2d_1">
      <defs>
       <path id="m7f2831764b" d="M 0 0 
L 0 3.5 
" style="stroke: #000000; stroke-width: 0.8"/>
      </defs>
      <g>
       <use xlink:href="#m7f2831764b" x="170.17854" y="640.8" style="stroke: #000000; stroke-width: 0.8"/>
      </g>
     </g>
     <g id="text_1">
      <text style="font: 10px 'sans-serif'; text-anchor: middle" x="170.17854" y="655.398438" transform="rotate(-0, 170.17854, 655.398438)">−0.05</text>
     </g>
    </g>
    <g id="xtick_2">
     <g id="line2d_2">
      <g>
       <use xlink:href="#m7f2831764b" x="260.670105" y="640.8" style="stroke: #000000; stroke-width: 0.8"/>
      </g>
     </g>
     <g id="text_2">
      <text style="font: 10px 'sans-serif'; text-anchor: middle" x="260.670105" y="655.398438" transform="rotate(-0, 260.670105, 655.398438)">−0.04</text>
     </g>
    </g>
    <g id="xtick_3">
     <g id="line2d_3">
      <g>
       <use xlink:href="#m7f2831764b" x="351.161669" y="640.8" style="stroke: #000000; stroke-width: 0.8"/>
      </g>
     </g>
     <g id="text_3">
      <text style="font: 10px 'sans-serif'; text-anchor: middle" x="351.161669" y="655.398438" transform="rotate(-0, 351.161669, 655.398438)">−0.03</text>
     </g>
    </g>
    <g id="xtick_4">
     <g id="line2d_4">
      <g>
       <use xlink:href="#m7f2831764b" x="441.653234" y="640.8" style="stroke: #000000; stroke-width: 0.8"/>
      </g>
     </g>
     <g id="text_4">
      <text style="font: 10px 'sans-serif'; text-anchor: middle" x="441.653234" y="655.398438" transform="rotate(-0, 441.653234, 655.398438)">−0.02</text>
     </g>
    </g>
    <g id="xtick_5">
     <g id="line2d_5">
      <g>
       <use xlink:href="#m7f2831764b" x="532.144799" y="640.8" style="stroke: #000000; stroke-width: 0.8"/>
      </g>
     </g>
     <g id="text_5">
      <text style="font: 10px 'sans-serif'; text-anchor: middle" x="532.144799" y="655.398438" transform="rotate(-0, 532.144799, 655.398438)">−0.01</text>
     </g>
    </g>
    <g id="xtick_6">
     <g id="line2d_6">
      <g>
       <use xlink:href="#m7f2831764b" x="622.636364" y="640.8" style="stroke: #000000; stroke-width: 0.8"/>
      </g>
     </g>
     <g id="text_6">
      <text style="font: 10px 'sans-serif'; text-anchor: middle" x="622.636364" y="655.398438" transform="rotate(-0, 622.636364, 655.398438)">0.00</text>
     </g>
    </g>
    <g id="text_7">
     <text style="font: 10px 'sans-serif'; text-anchor: middle" x="369" y="669.076563" transform="rotate(-0, 369, 669.076563)">mu</text>
    </g>
   </g>
   <g id="matplotlib.axis_2">
    <g id="ytick_1">
     <g id="line2d_7">
      <defs>
       <path id="md0bb078baa" d="M 0 0 
L -3.5 0 
" style="stroke: #000000; stroke-width: 0.8"/>
      </defs>
      <g>
       <use xlink:href="#md0bb078baa" x="90" y="635.310891" style="stroke: #000000; stroke-width: 0.8"/>
      </g>
     </g>
     <g id="text_8">
      <text style="font: 10px 'sans-serif'; text-anchor: end" x="83" y="639.11011" transform="rotate(-0, 83, 639.11011)">0</text>
     </g>
    </g>
    <g id="ytick_2">
     <g id="line2d_8">
      <g>
       <use xlink:href="#md0bb078baa" x="90" y="520.704195" style="stroke: #000000; stroke-width: 0.8"/>
      </g>
     </g>
     <g id="text_9">
      <text style="font: 10px 'sans-serif'; text-anchor: end" x="83" y="524.503414" transform="rotate(-0, 83, 524.503414)">200000</text>
     </g>
    </g>
    <g id="ytick_3">
     <g id="line2d_9">
      <g>
       <use xlink:href="#md0bb078baa" x="90" y="406.097499" style="stroke: #000000; stroke-width: 0.8"/>
      </g>
     </g>
     <g id="text_10">
      <text style="font: 10px 'sans-serif'; text-anchor: end" x="83" y="409.896718" transform="rotate(-0, 83, 409.896718)">400000</text>
     </g>
    </g>
    <g id="ytick_4">
     <g id="line2d_10">
      <g>
       <use xlink:href="#md0bb078baa" x="90" y="291.490803" style="stroke: #000000; stroke-width: 0.8"/>
      </g>
     </g>
     <g id="text_11">
      <text style="font: 10px 'sans-serif'; text-anchor: end" x="83" y="295.290022" transform="rotate(-0, 83, 295.290022)">600000</text>
     </g>
    </g>
    <g id="ytick_5">
     <g id="line2d_11">
      <g>
       <use xlink:href="#md0bb078baa" x="90" y="176.884107" style="stroke: #000000; stroke-width: 0.8"/>
      </g>
     </g>
     <g id="text_12">
      <text style="font: 10px 'sans-serif'; text-anchor: end" x="83" y="180.683326" transform="rotate(-0, 83, 180.683326)">800000</text>
     </g>
    </g>
   </g>
   <g id="line2d_12">
    <path d="M 115.363636 82.860421 
L 126.686405 107.679652 
L 137.556262 130.978922 
L 148.42612 153.761753 
L 159.295978 176.028135 
L 170.165835 197.778058 
L 180.582782 218.137095 
L 190.999729 238.021792 
L 201.416676 257.432137 
L 211.833623 276.368116 
L 222.25057 294.829711 
L 232.214606 312.044718 
L 242.178642 328.825661 
L 252.142678 345.172517 
L 262.106714 361.085264 
L 272.070751 376.563874 
L 281.581876 390.933896 
L 291.093001 404.908291 
L 300.604127 418.487022 
L 310.115252 431.670046 
L 319.173467 443.857373 
L 328.231682 455.685689 
L 337.289896 467.154937 
L 346.348111 478.265052 
L 355.406326 489.015953 
L 364.01163 498.896505 
L 372.616934 508.452689 
L 381.222238 517.684396 
L 389.827542 526.591493 
L 398.432845 535.17382 
L 407.038149 543.431187 
L 415.190543 550.953987 
L 423.342936 558.184681 
L 431.495329 565.122972 
L 439.647722 571.768494 
L 447.800116 578.120791 
L 455.952509 584.179286 
L 463.651991 589.63077 
L 471.351474 594.818747 
L 479.050956 599.742198 
L 486.750439 604.399786 
L 494.449921 608.789736 
L 501.696493 612.674819 
L 508.943065 616.317946 
L 516.189636 619.71529 
L 523.436208 622.861385 
L 530.229869 625.57554 
L 537.02353 628.051764 
L 543.364281 630.134454 
L 549.25212 631.852443 
L 554.687049 633.228798 
L 559.669067 634.278382 
L 563.745264 634.940663 
L 566.915639 635.271603 
L 569.482518 635.310891 
L 622.636364 635.310891 
L 622.636364 635.310891 
" clip-path="url(#p8eb2ea9518)" style="fill: none; stroke: #1f77b4; stroke-width: 1.5; stroke-linecap: square"/>
   </g>
   <g id="patch_3">
    <path d="M 90 640.8 
L 90 86.4 
" style="fill: none; stroke: #000000; stroke-width: 0.8; stroke-linejoin: miter; stroke-linecap: square"/>
   </g>
   <g id="patch_4">
    <path d="M 648 640.8 
L 648 86.4 
" style="fill: none; stroke: #000000; stroke-width: 0.8; stroke-linejoin: miter; stroke-linecap: square"/>
   </g>
   <g id="patch_5">
    <path d="M 90 640.8 
L 648 640.8 
" style="fill: none; stroke: #000000; stroke-width: 0.8; stroke-linejoin: miter; stroke-linecap: square"/>
   </g>
   <g id="patch_6">
    <path d="M 90 86.4 
L 648 86.4 
" style="fill: none; stroke: #000000; stroke-width: 0.8; stroke-linejoin: miter; stroke-linecap: square"/>
   </g>
   <g id="text_13">
    <text style="font: 10px 'sans-serif'; text-anchor: start" x="441.653234" y="31.508911" transform="rotate(-0, 441.653234, 31.508911)">eps = 0.000010 [eV]</text>
   </g>
   <g id="text_14">
    <text style="font: 12px 'sans-serif'; text-anchor: middle" x="369" y="80.4" transform="rotate(-0, 369, 80.4)">fitting</text>
   </g>
   <g id="legend_1">
    <g id="patch_7">
     <path d="M 597.1625 138.434375 
L 641 138.434375 
Q 643 138.434375 643 136.434375 
L 643 93.4 
Q 643 91.4 641 91.4 
L 597.1625 91.4 
Q 595.1625 91.4 595.1625 93.4 
L 595.1625 136.434375 
Q 595.1625 138.434375 597.1625 138.434375 
z
" style="fill: #ffffff; opacity: 0.8; stroke: #cccccc; stroke-linejoin: miter"/>
    </g>
    <g id="PathCollection_4">
     <path d="M 609.1625 101.239463 
C 609.392173 101.239463 609.612469 101.148213 609.774872 100.98581 
C 609.937276 100.823407 610.028525 100.60311 610.028525 100.373437 
C 610.028525 100.143765 609.937276 99.923468 609.774872 99.761065 
C 609.612469 99.598662 609.392173 99.507412 609.1625 99.507412 
C 608.932827 99.507412 608.712531 99.598662 608.550128 99.761065 
C 608.387724 99.923468 608.296475 100.143765 608.296475 100.373437 
C 608.296475 100.60311 608.387724 100.823407 608.550128 100.98581 
C 608.712531 101.148213 608.932827 101.239463 609.1625 101.239463 
L 609.1625 101.239463 
z
" style="fill: none; stroke: #ff0000"/>
    </g>
    <g id="text_15">
     <text style="font: 10px 'sans-serif'; text-anchor: start" x="627.1625" y="102.998437" transform="rotate(-0, 627.1625, 102.998437)">xx</text>
    </g>
    <g id="PathCollection_5">
     <path d="M 608.296492 115.917571 
L 610.028543 115.917571 
L 610.028543 114.18552 
L 608.296492 114.18552 
L 608.296492 115.917571 
z
" style="fill: none; stroke: #008000"/>
    </g>
    <g id="text_16">
     <text style="font: 10px 'sans-serif'; text-anchor: start" x="627.1625" y="117.676562" transform="rotate(-0, 627.1625, 117.676562)">yy</text>
    </g>
    <g id="PathCollection_6">
     <path d="M 609.1625 130.595713 
L 610.028525 128.863662 
L 608.296475 128.863662 
L 609.1625 130.595713 
z
" style="fill: none; stroke: #0000ff"/>
    </g>
    <g id="text_17">
     <text style="font: 10px 'sans-serif'; text-anchor: start" x="627.1625" y="132.354687" transform="rotate(-0, 627.1625, 132.354687)">zz</text>
    </g>
   </g>
  </g>
 </g>
 <defs>
  <clipPath id="p8eb2ea9518">
   <rect x="90" y="86.4" width="558" height="554.4"/>
  </clipPath>
 </defs>
</svg>
