<?xml version="1.0" encoding="utf-8" standalone="no"?>
<!DOCTYPE svg PUBLIC "-//W3C//DTD SVG 1.1//EN"
  "http://www.w3.org/Graphics/SVG/1.1/DTD/svg11.dtd">
<svg xmlns:xlink="http://www.w3.org/1999/xlink" width="864pt" height="360pt" viewBox="0 0 864 360" xmlns="http://www.w3.org/2000/svg" version="1.1">
 <metadata>
  <rdf:RDF xmlns:dc="http://purl.org/dc/elements/1.1/" xmlns:cc="http://creativecommons.org/ns#" xmlns:rdf="http://www.w3.org/1999/02/22-rdf-syntax-ns#">
   <cc:Work>
    <dc:type rdf:resource="http://purl.org/dc/dcmitype/StillImage"/>
    <dc:date>2022-04-19T14:03:11.914469</dc:date>
    <dc:format>image/svg+xml</dc:format>
    <dc:creator>
     <cc:Agent>
      <dc:title>Matplotlib v3.5.1, https://matplotlib.org/</dc:title>
     </cc:Agent>
    </dc:creator>
   </cc:Work>
  </rdf:RDF>
 </metadata>
 <defs>
  <style type="text/css">*{stroke-linejoin: round; stroke-linecap: butt}</style>
 </defs>
 <g id="figure_1">
  <g id="patch_1">
   <path d="M 0 360 
L 864 360 
L 864 0 
L 0 0 
z
" style="fill: #ffffff"/>
  </g>
  <g id="axes_1">
   <g id="patch_2">
    <path d="M 108 320.4 
L 304.941176 320.4 
L 304.941176 43.2 
L 108 43.2 
z
" style="fill: #ffffff"/>
   </g>
   <g id="matplotlib.axis_1">
    <g id="xtick_1">
     <g id="line2d_1">
      <defs>
       <path id="me9f1f06e7d" d="M 0 0 
L 0 3.5 
" style="stroke: #000000; stroke-width: 0.8"/>
      </defs>
      <g>
       <use xlink:href="#me9f1f06e7d" x="141.887429" y="320.4" style="stroke: #000000; stroke-width: 0.8"/>
      </g>
     </g>
     <g id="text_1">
      <text style="font: 10px 'sans-serif'; text-anchor: middle" x="141.887429" y="334.998438" transform="rotate(-0, 141.887429, 334.998438)">−0.2</text>
     </g>
    </g>
    <g id="xtick_2">
     <g id="line2d_2">
      <g>
       <use xlink:href="#me9f1f06e7d" x="206.470588" y="320.4" style="stroke: #000000; stroke-width: 0.8"/>
      </g>
     </g>
     <g id="text_2">
      <text style="font: 10px 'sans-serif'; text-anchor: middle" x="206.470588" y="334.998438" transform="rotate(-0, 206.470588, 334.998438)">0.0</text>
     </g>
    </g>
    <g id="xtick_3">
     <g id="line2d_3">
      <g>
       <use xlink:href="#me9f1f06e7d" x="271.053747" y="320.4" style="stroke: #000000; stroke-width: 0.8"/>
      </g>
     </g>
     <g id="text_3">
      <text style="font: 10px 'sans-serif'; text-anchor: middle" x="271.053747" y="334.998438" transform="rotate(-0, 271.053747, 334.998438)">0.2</text>
     </g>
    </g>
    <g id="text_4">
     <text style="font: 10px 'sans-serif'; text-anchor: middle" x="206.470588" y="348.676562" transform="rotate(-0, 206.470588, 348.676562)">kx</text>
    </g>
   </g>
   <g id="matplotlib.axis_2">
    <g id="ytick_1">
     <g id="line2d_4">
      <defs>
       <path id="ma99418200c" d="M 0 0 
L -3.5 0 
" style="stroke: #000000; stroke-width: 0.8"/>
      </defs>
      <g>
       <use xlink:href="#ma99418200c" x="108" y="320.4" style="stroke: #000000; stroke-width: 0.8"/>
      </g>
     </g>
     <g id="text_5">
      <text style="font: 10px 'sans-serif'; text-anchor: end" x="101" y="324.199219" transform="rotate(-0, 101, 324.199219)">−2.0</text>
     </g>
    </g>
    <g id="ytick_2">
     <g id="line2d_5">
      <g>
       <use xlink:href="#ma99418200c" x="108" y="280.8" style="stroke: #000000; stroke-width: 0.8"/>
      </g>
     </g>
     <g id="text_6">
      <text style="font: 10px 'sans-serif'; text-anchor: end" x="101" y="284.599219" transform="rotate(-0, 101, 284.599219)">−1.5</text>
     </g>
    </g>
    <g id="ytick_3">
     <g id="line2d_6">
      <g>
       <use xlink:href="#ma99418200c" x="108" y="241.2" style="stroke: #000000; stroke-width: 0.8"/>
      </g>
     </g>
     <g id="text_7">
      <text style="font: 10px 'sans-serif'; text-anchor: end" x="101" y="244.999219" transform="rotate(-0, 101, 244.999219)">−1.0</text>
     </g>
    </g>
    <g id="ytick_4">
     <g id="line2d_7">
      <g>
       <use xlink:href="#ma99418200c" x="108" y="201.6" style="stroke: #000000; stroke-width: 0.8"/>
      </g>
     </g>
     <g id="text_8">
      <text style="font: 10px 'sans-serif'; text-anchor: end" x="101" y="205.399219" transform="rotate(-0, 101, 205.399219)">−0.5</text>
     </g>
    </g>
    <g id="ytick_5">
     <g id="line2d_8">
      <g>
       <use xlink:href="#ma99418200c" x="108" y="162" style="stroke: #000000; stroke-width: 0.8"/>
      </g>
     </g>
     <g id="text_9">
      <text style="font: 10px 'sans-serif'; text-anchor: end" x="101" y="165.799219" transform="rotate(-0, 101, 165.799219)">0.0</text>
     </g>
    </g>
    <g id="ytick_6">
     <g id="line2d_9">
      <g>
       <use xlink:href="#ma99418200c" x="108" y="122.4" style="stroke: #000000; stroke-width: 0.8"/>
      </g>
     </g>
     <g id="text_10">
      <text style="font: 10px 'sans-serif'; text-anchor: end" x="101" y="126.199219" transform="rotate(-0, 101, 126.199219)">0.5</text>
     </g>
    </g>
    <g id="ytick_7">
     <g id="line2d_10">
      <g>
       <use xlink:href="#ma99418200c" x="108" y="82.8" style="stroke: #000000; stroke-width: 0.8"/>
      </g>
     </g>
     <g id="text_11">
      <text style="font: 10px 'sans-serif'; text-anchor: end" x="101" y="86.599219" transform="rotate(-0, 101, 86.599219)">1.0</text>
     </g>
    </g>
    <g id="ytick_8">
     <g id="line2d_11">
      <g>
       <use xlink:href="#ma99418200c" x="108" y="43.2" style="stroke: #000000; stroke-width: 0.8"/>
      </g>
     </g>
     <g id="text_12">
      <text style="font: 10px 'sans-serif'; text-anchor: end" x="101" y="46.999219" transform="rotate(-0, 101, 46.999219)">1.5</text>
     </g>
    </g>
    <g id="text_13">
     <text style="font: 10px 'sans-serif'; text-anchor: middle" x="70.6375" y="181.8" transform="rotate(-90, 70.6375, 181.8)">Energy</text>
    </g>
   </g>
   <g id="line2d_12">
    <path d="M 145.779216 361 
L 147.388235 357.500844 
L 149.17861 353.626855 
L 150.968984 349.773617 
L 152.759358 345.942475 
L 154.549733 342.134618 
L 156.340107 338.35163 
L 158.130481 334.595095 
L 159.920856 330.866597 
L 161.71123 327.168115 
L 163.501604 323.501393 
L 165.291979 319.868647 
L 167.082353 316.272017 
L 168.872727 312.714036 
L 170.663102 309.19716 
L 172.453476 305.72424 
L 174.24385 302.298127 
L 176.034225 298.922069 
L 177.824599 295.599391 
L 179.614973 292.333738 
L 181.405348 289.128989 
L 183.195722 285.989342 
L 184.986096 282.919234 
L 186.776471 279.923494 
L 188.566845 277.00727 
L 190.357219 274.176266 
L 192.147594 271.436738 
L 193.937968 268.795894 
L 195.728342 266.262286 
L 197.518717 263.847002 
L 199.309091 261.566042 
L 201.099465 259.446809 
L 202.88984 257.549098 
L 204.680214 256.038041 
L 206.470588 255.381235 
L 208.260963 256.038041 
L 210.051337 257.549098 
L 211.841711 259.446809 
L 213.632086 261.566042 
L 215.42246 263.847002 
L 217.212834 266.262286 
L 219.003209 268.795894 
L 220.793583 271.436738 
L 222.583957 274.176266 
L 224.374332 277.00727 
L 226.164706 279.923494 
L 227.95508 282.919234 
L 229.745455 285.989342 
L 231.535829 289.128989 
L 233.326203 292.333738 
L 235.116578 295.599391 
L 236.906952 298.922069 
L 238.697326 302.298127 
L 240.487701 305.72424 
L 242.278075 309.19716 
L 244.068449 312.714036 
L 245.858824 316.272017 
L 247.649198 319.868647 
L 249.439572 323.501393 
L 251.229947 327.168115 
L 253.020321 330.866597 
L 254.810695 334.595095 
L 256.60107 338.35163 
L 258.391444 342.134618 
L 260.181818 345.942475 
L 261.972193 349.773617 
L 263.762567 353.626855 
L 265.552941 357.500844 
L 267.16196 361 
" clip-path="url(#pd3211debee)" style="fill: none; stroke: #1f77b4; stroke-width: 1.5; stroke-linecap: square"/>
   </g>
   <g id="line2d_13">
    <path d="M 116.951872 335.372364 
L 118.742246 332.051904 
L 120.53262 328.749977 
L 122.322995 325.467612 
L 124.113369 322.205998 
L 125.903743 318.966242 
L 127.694118 315.749693 
L 129.484492 312.557695 
L 131.274866 309.391913 
L 133.065241 306.253771 
L 134.855615 303.145171 
L 136.645989 300.068014 
L 138.436364 297.024278 
L 140.226738 294.016421 
L 142.017112 291.046738 
L 143.807487 288.11808 
L 145.597861 285.23322 
L 147.388235 282.395484 
L 149.17861 279.608436 
L 150.968984 276.875798 
L 152.759358 274.201848 
L 154.549733 271.591178 
L 156.340107 269.048858 
L 158.130481 266.580353 
L 159.920856 264.19176 
L 161.71123 261.889416 
L 163.501604 259.680528 
L 165.291979 257.572462 
L 167.082353 255.573374 
L 168.872727 253.691662 
L 170.663102 251.936194 
L 172.453476 250.316078 
L 174.24385 248.840424 
L 176.034225 247.518259 
L 177.824599 246.358138 
L 179.614973 245.368138 
L 181.405348 244.555229 
L 183.195722 243.925272 
L 184.986096 243.482861 
L 186.776471 243.230767 
L 188.566845 243.170021 
L 190.357219 243.300146 
L 192.147594 243.618451 
L 193.937968 244.120421 
L 195.728342 244.799165 
L 197.518717 245.644625 
L 199.309091 246.641357 
L 201.099465 247.761878 
L 202.88984 248.946394 
L 204.680214 250.029691 
L 206.470588 250.543858 
L 208.260963 250.029691 
L 210.051337 248.946394 
L 211.841711 247.761878 
L 213.632086 246.641357 
L 215.42246 245.644625 
L 217.212834 244.799165 
L 219.003209 244.120421 
L 220.793583 243.618451 
L 222.583957 243.300146 
L 224.374332 243.170021 
L 226.164706 243.230767 
L 227.95508 243.482861 
L 229.745455 243.925272 
L 231.535829 244.555229 
L 233.326203 245.368138 
L 235.116578 246.358138 
L 236.906952 247.518259 
L 238.697326 248.840424 
L 240.487701 250.316078 
L 242.278075 251.936194 
L 244.068449 253.691662 
L 245.858824 255.573374 
L 247.649198 257.572462 
L 249.439572 259.680528 
L 251.229947 261.889416 
L 253.020321 264.19176 
L 254.810695 266.580353 
L 256.60107 269.048858 
L 258.391444 271.591178 
L 260.181818 274.201848 
L 261.972193 276.875798 
L 263.762567 279.608436 
L 265.552941 282.395484 
L 267.343316 285.23322 
L 269.13369 288.11808 
L 270.924064 291.046738 
L 272.714439 294.016421 
L 274.504813 297.024278 
L 276.295187 300.068014 
L 278.085561 303.145171 
L 279.875936 306.253771 
L 281.66631 309.391913 
L 283.456684 312.557695 
L 285.247059 315.749693 
L 287.037433 318.966242 
L 288.827807 322.205998 
L 290.618182 325.467612 
L 292.408556 328.749977 
L 294.19893 332.051904 
L 295.989305 335.372364 
" clip-path="url(#pd3211debee)" style="fill: none; stroke: #2ca02c; stroke-width: 1.5; stroke-linecap: square"/>
   </g>
   <g id="line2d_14">
    <path d="M 116.951872 167.653134 
L 118.742246 167.877981 
L 120.53262 168.106691 
L 122.322995 168.339172 
L 124.113369 168.575302 
L 125.903743 168.814919 
L 127.694118 169.05782 
L 129.484492 169.303753 
L 131.274866 169.552406 
L 133.065241 169.803403 
L 134.855615 170.056295 
L 136.645989 170.310527 
L 138.436364 170.565464 
L 140.226738 170.820346 
L 142.017112 171.074269 
L 143.807487 171.32618 
L 145.597861 171.574868 
L 147.388235 171.818883 
L 149.17861 172.056594 
L 150.968984 172.286068 
L 152.759358 172.505128 
L 154.549733 172.711246 
L 156.340107 172.901571 
L 158.130481 173.072841 
L 159.920856 173.221412 
L 161.71123 173.343198 
L 163.501604 173.433684 
L 165.291979 173.48792 
L 167.082353 173.500553 
L 168.872727 173.465895 
L 170.663102 173.378007 
L 172.453476 173.230845 
L 174.24385 173.018454 
L 176.034225 172.735188 
L 177.824599 172.376024 
L 179.614973 171.936899 
L 181.405348 171.415082 
L 183.195722 170.809574 
L 184.986096 170.121548 
L 186.776471 169.354766 
L 188.566845 168.516087 
L 190.357219 167.615975 
L 192.147594 166.669147 
L 193.937968 165.695322 
L 195.728342 164.720111 
L 197.518717 163.775878 
L 199.309091 162.902226 
L 201.099465 162.14531 
L 202.88984 161.554794 
L 204.680214 161.177373 
L 206.470588 161.047325 
L 208.260963 161.177373 
L 210.051337 161.554794 
L 211.841711 162.14531 
L 213.632086 162.902226 
L 215.42246 163.775878 
L 217.212834 164.720111 
L 219.003209 165.695322 
L 220.793583 166.669147 
L 222.583957 167.615975 
L 224.374332 168.516087 
L 226.164706 169.354766 
L 227.95508 170.121548 
L 229.745455 170.809574 
L 231.535829 171.415082 
L 233.326203 171.936899 
L 235.116578 172.376024 
L 236.906952 172.735188 
L 238.697326 173.018454 
L 240.487701 173.230845 
L 242.278075 173.378007 
L 244.068449 173.465895 
L 245.858824 173.500553 
L 247.649198 173.48792 
L 249.439572 173.433684 
L 251.229947 173.343198 
L 253.020321 173.221412 
L 254.810695 173.072841 
L 256.60107 172.901571 
L 258.391444 172.711246 
L 260.181818 172.505128 
L 261.972193 172.286068 
L 263.762567 172.056594 
L 265.552941 171.818883 
L 267.343316 171.574868 
L 269.13369 171.32618 
L 270.924064 171.074269 
L 272.714439 170.820346 
L 274.504813 170.565464 
L 276.295187 170.310527 
L 278.085561 170.056295 
L 279.875936 169.803403 
L 281.66631 169.552406 
L 283.456684 169.303753 
L 285.247059 169.05782 
L 287.037433 168.814919 
L 288.827807 168.575302 
L 290.618182 168.339172 
L 292.408556 168.106691 
L 294.19893 167.877981 
L 295.989305 167.653134 
" clip-path="url(#pd3211debee)" style="fill: none; stroke: #9467bd; stroke-width: 1.5; stroke-linecap: square"/>
   </g>
   <g id="line2d_15">
    <path d="M 116.951872 127.616215 
L 118.742246 127.241892 
L 120.53262 126.856172 
L 122.322995 126.458667 
L 124.113369 126.048958 
L 125.903743 125.626632 
L 127.694118 125.191261 
L 129.484492 124.742427 
L 131.274866 124.279709 
L 133.065241 123.802687 
L 134.855615 123.310966 
L 136.645989 122.804158 
L 138.436364 122.281897 
L 140.226738 121.743883 
L 142.017112 121.189848 
L 143.807487 120.619592 
L 145.597861 120.033013 
L 147.388235 119.430143 
L 149.17861 118.811163 
L 150.968984 118.176454 
L 152.759358 117.526689 
L 154.549733 116.86289 
L 156.340107 116.186554 
L 158.130481 115.499803 
L 159.920856 114.805591 
L 161.71123 114.108045 
L 163.501604 113.412835 
L 165.291979 112.727835 
L 167.082353 112.063988 
L 168.872727 111.436621 
L 170.663102 110.86726 
L 172.453476 110.386176 
L 174.24385 110.035375 
L 176.034225 109.871051 
L 177.824599 109.962345 
L 179.614973 110.381044 
L 181.405348 111.178698 
L 183.195722 112.360766 
L 184.986096 113.879213 
L 186.776471 115.651186 
L 188.566845 117.585883 
L 190.357219 119.601302 
L 192.147594 121.628465 
L 193.937968 123.608925 
L 195.728342 125.490226 
L 197.518717 127.221751 
L 199.309091 128.751602 
L 201.099465 130.025463 
L 202.88984 130.988385 
L 204.680214 131.590423 
L 206.470588 131.795528 
L 208.260963 131.590423 
L 210.051337 130.988385 
L 211.841711 130.025463 
L 213.632086 128.751602 
L 215.42246 127.221751 
L 217.212834 125.490226 
L 219.003209 123.608925 
L 220.793583 121.628465 
L 222.583957 119.601302 
L 224.374332 117.585883 
L 226.164706 115.651186 
L 227.95508 113.879213 
L 229.745455 112.360766 
L 231.535829 111.178698 
L 233.326203 110.381044 
L 235.116578 109.962345 
L 236.906952 109.871051 
L 238.697326 110.035375 
L 240.487701 110.386176 
L 242.278075 110.86726 
L 244.068449 111.436621 
L 245.858824 112.063988 
L 247.649198 112.727835 
L 249.439572 113.412835 
L 251.229947 114.108045 
L 253.020321 114.805591 
L 254.810695 115.499803 
L 256.60107 116.186554 
L 258.391444 116.86289 
L 260.181818 117.526689 
L 261.972193 118.176454 
L 263.762567 118.811163 
L 265.552941 119.430143 
L 267.343316 120.033013 
L 269.13369 120.619592 
L 270.924064 121.189848 
L 272.714439 121.743883 
L 274.504813 122.281897 
L 276.295187 122.804158 
L 278.085561 123.310966 
L 279.875936 123.802687 
L 281.66631 124.279709 
L 283.456684 124.742427 
L 285.247059 125.191261 
L 287.037433 125.626632 
L 288.827807 126.048958 
L 290.618182 126.458667 
L 292.408556 126.856172 
L 294.19893 127.241892 
L 295.989305 127.616215 
" clip-path="url(#pd3211debee)" style="fill: none; stroke: #e377c2; stroke-width: 1.5; stroke-linecap: square"/>
   </g>
   <g id="line2d_16">
    <path d="M 132.284096 -1 
L 133.065241 0.734702 
L 134.855615 4.695257 
L 136.645989 8.639496 
L 138.436364 12.566311 
L 140.226738 16.474435 
L 142.017112 20.362601 
L 143.807487 24.229303 
L 145.597861 28.072958 
L 147.388235 31.891586 
L 149.17861 35.683286 
L 150.968984 39.445524 
L 152.759358 43.175686 
L 154.549733 46.870603 
L 156.340107 50.526554 
L 158.130481 54.139183 
L 159.920856 57.703183 
L 161.71123 61.21206 
L 163.501604 64.657735 
L 165.291979 68.029754 
L 167.082353 71.314891 
L 168.872727 74.495088 
L 170.663102 77.546506 
L 172.453476 80.436276 
L 174.24385 83.119976 
L 176.034225 85.539108 
L 177.824599 87.622219 
L 179.614973 89.29535 
L 181.405348 90.504869 
L 183.195722 91.24333 
L 184.986096 91.556835 
L 186.776471 91.52624 
L 188.566845 91.240114 
L 190.357219 90.777713 
L 192.147594 90.204218 
L 193.937968 89.572535 
L 195.728342 88.926754 
L 197.518717 88.305026 
L 199.309091 87.741375 
L 201.099465 87.266199 
L 202.88984 86.905696 
L 204.680214 86.680483 
L 206.470588 86.603873 
L 208.260963 86.680483 
L 210.051337 86.905696 
L 211.841711 87.266199 
L 213.632086 87.741375 
L 215.42246 88.305026 
L 217.212834 88.926754 
L 219.003209 89.572535 
L 220.793583 90.204218 
L 222.583957 90.777713 
L 224.374332 91.240114 
L 226.164706 91.52624 
L 227.95508 91.556835 
L 229.745455 91.24333 
L 231.535829 90.504869 
L 233.326203 89.29535 
L 235.116578 87.622219 
L 236.906952 85.539108 
L 238.697326 83.119976 
L 240.487701 80.436276 
L 242.278075 77.546506 
L 244.068449 74.495088 
L 245.858824 71.314891 
L 247.649198 68.029754 
L 249.439572 64.657735 
L 251.229947 61.21206 
L 253.020321 57.703183 
L 254.810695 54.139183 
L 256.60107 50.526554 
L 258.391444 46.870603 
L 260.181818 43.175686 
L 261.972193 39.445524 
L 263.762567 35.683286 
L 265.552941 31.891586 
L 267.343316 28.072958 
L 269.13369 24.229303 
L 270.924064 20.362601 
L 272.714439 16.474435 
L 274.504813 12.566311 
L 276.295187 8.639496 
L 278.085561 4.695257 
L 279.875936 0.734702 
L 280.65708 -1 
" clip-path="url(#pd3211debee)" style="fill: none; stroke: #bcbd22; stroke-width: 1.5; stroke-linecap: square"/>
   </g>
   <g id="line2d_17">
    <path d="M 165.311282 -1 
L 167.082353 1.92983 
L 168.872727 4.85136 
L 170.663102 7.729488 
L 172.453476 10.561046 
L 174.24385 13.342313 
L 176.034225 16.06909 
L 177.824599 18.736625 
L 179.614973 21.339533 
L 181.405348 23.871794 
L 183.195722 26.326361 
L 184.986096 28.694995 
L 186.776471 30.968273 
L 188.566845 33.135264 
L 190.357219 35.183297 
L 192.147594 37.097719 
L 193.937968 38.861582 
L 195.728342 40.456116 
L 197.518717 41.860332 
L 199.309091 43.052054 
L 201.099465 44.009028 
L 202.88984 44.710265 
L 204.680214 45.138737 
L 206.470588 45.282881 
L 208.260963 45.138737 
L 210.051337 44.710265 
L 211.841711 44.009028 
L 213.632086 43.052054 
L 215.42246 41.860332 
L 217.212834 40.456116 
L 219.003209 38.861582 
L 220.793583 37.097719 
L 222.583957 35.183297 
L 224.374332 33.135264 
L 226.164706 30.968273 
L 227.95508 28.694995 
L 229.745455 26.326361 
L 231.535829 23.871794 
L 233.326203 21.339533 
L 235.116578 18.736625 
L 236.906952 16.06909 
L 238.697326 13.342313 
L 240.487701 10.561046 
L 242.278075 7.729488 
L 244.068449 4.85136 
L 245.858824 1.92983 
L 247.629895 -1 
" clip-path="url(#pd3211debee)" style="fill: none; stroke: #000080; stroke-width: 1.5; stroke-linecap: square"/>
   </g>
   <g id="patch_3">
    <path d="M 108 320.4 
L 108 43.2 
" style="fill: none; stroke: #000000; stroke-width: 0.8; stroke-linejoin: miter; stroke-linecap: square"/>
   </g>
   <g id="patch_4">
    <path d="M 304.941176 320.4 
L 304.941176 43.2 
" style="fill: none; stroke: #000000; stroke-width: 0.8; stroke-linejoin: miter; stroke-linecap: square"/>
   </g>
   <g id="patch_5">
    <path d="M 108 320.4 
L 304.941176 320.4 
" style="fill: none; stroke: #000000; stroke-width: 0.8; stroke-linejoin: miter; stroke-linecap: square"/>
   </g>
   <g id="patch_6">
    <path d="M 108 43.2 
L 304.941176 43.2 
" style="fill: none; stroke: #000000; stroke-width: 0.8; stroke-linejoin: miter; stroke-linecap: square"/>
   </g>
   <g id="text_14">
    <text style="font: 12px 'sans-serif'; text-anchor: middle" x="206.470588" y="37.2" transform="rotate(-0, 206.470588, 37.2)">kx-cut</text>
   </g>
  </g>
  <g id="axes_2">
   <g id="patch_7">
    <path d="M 344.329412 320.4 
L 541.270588 320.4 
L 541.270588 43.2 
L 344.329412 43.2 
z
" style="fill: #ffffff"/>
   </g>
   <g id="matplotlib.axis_3">
    <g id="xtick_4">
     <g id="line2d_18">
      <g>
       <use xlink:href="#me9f1f06e7d" x="378.216841" y="320.4" style="stroke: #000000; stroke-width: 0.8"/>
      </g>
     </g>
     <g id="text_15">
      <text style="font: 10px 'sans-serif'; text-anchor: middle" x="378.216841" y="334.998438" transform="rotate(-0, 378.216841, 334.998438)">−0.2</text>
     </g>
    </g>
    <g id="xtick_5">
     <g id="line2d_19">
      <g>
       <use xlink:href="#me9f1f06e7d" x="442.8" y="320.4" style="stroke: #000000; stroke-width: 0.8"/>
      </g>
     </g>
     <g id="text_16">
      <text style="font: 10px 'sans-serif'; text-anchor: middle" x="442.8" y="334.998438" transform="rotate(-0, 442.8, 334.998438)">0.0</text>
     </g>
    </g>
    <g id="xtick_6">
     <g id="line2d_20">
      <g>
       <use xlink:href="#me9f1f06e7d" x="507.383159" y="320.4" style="stroke: #000000; stroke-width: 0.8"/>
      </g>
     </g>
     <g id="text_17">
      <text style="font: 10px 'sans-serif'; text-anchor: middle" x="507.383159" y="334.998438" transform="rotate(-0, 507.383159, 334.998438)">0.2</text>
     </g>
    </g>
    <g id="text_18">
     <text style="font: 10px 'sans-serif'; text-anchor: middle" x="442.8" y="348.676562" transform="rotate(-0, 442.8, 348.676562)">ky</text>
    </g>
   </g>
   <g id="matplotlib.axis_4">
    <g id="ytick_9">
     <g id="line2d_21">
      <g>
       <use xlink:href="#ma99418200c" x="344.329412" y="320.4" style="stroke: #000000; stroke-width: 0.8"/>
      </g>
     </g>
     <g id="text_19">
      <text style="font: 10px 'sans-serif'; text-anchor: end" x="337.329412" y="324.199219" transform="rotate(-0, 337.329412, 324.199219)">−2.0</text>
     </g>
    </g>
    <g id="ytick_10">
     <g id="line2d_22">
      <g>
       <use xlink:href="#ma99418200c" x="344.329412" y="280.8" style="stroke: #000000; stroke-width: 0.8"/>
      </g>
     </g>
     <g id="text_20">
      <text style="font: 10px 'sans-serif'; text-anchor: end" x="337.329412" y="284.599219" transform="rotate(-0, 337.329412, 284.599219)">−1.5</text>
     </g>
    </g>
    <g id="ytick_11">
     <g id="line2d_23">
      <g>
       <use xlink:href="#ma99418200c" x="344.329412" y="241.2" style="stroke: #000000; stroke-width: 0.8"/>
      </g>
     </g>
     <g id="text_21">
      <text style="font: 10px 'sans-serif'; text-anchor: end" x="337.329412" y="244.999219" transform="rotate(-0, 337.329412, 244.999219)">−1.0</text>
     </g>
    </g>
    <g id="ytick_12">
     <g id="line2d_24">
      <g>
       <use xlink:href="#ma99418200c" x="344.329412" y="201.6" style="stroke: #000000; stroke-width: 0.8"/>
      </g>
     </g>
     <g id="text_22">
      <text style="font: 10px 'sans-serif'; text-anchor: end" x="337.329412" y="205.399219" transform="rotate(-0, 337.329412, 205.399219)">−0.5</text>
     </g>
    </g>
    <g id="ytick_13">
     <g id="line2d_25">
      <g>
       <use xlink:href="#ma99418200c" x="344.329412" y="162" style="stroke: #000000; stroke-width: 0.8"/>
      </g>
     </g>
     <g id="text_23">
      <text style="font: 10px 'sans-serif'; text-anchor: end" x="337.329412" y="165.799219" transform="rotate(-0, 337.329412, 165.799219)">0.0</text>
     </g>
    </g>
    <g id="ytick_14">
     <g id="line2d_26">
      <g>
       <use xlink:href="#ma99418200c" x="344.329412" y="122.4" style="stroke: #000000; stroke-width: 0.8"/>
      </g>
     </g>
     <g id="text_24">
      <text style="font: 10px 'sans-serif'; text-anchor: end" x="337.329412" y="126.199219" transform="rotate(-0, 337.329412, 126.199219)">0.5</text>
     </g>
    </g>
    <g id="ytick_15">
     <g id="line2d_27">
      <g>
       <use xlink:href="#ma99418200c" x="344.329412" y="82.8" style="stroke: #000000; stroke-width: 0.8"/>
      </g>
     </g>
     <g id="text_25">
      <text style="font: 10px 'sans-serif'; text-anchor: end" x="337.329412" y="86.599219" transform="rotate(-0, 337.329412, 86.599219)">1.0</text>
     </g>
    </g>
    <g id="ytick_16">
     <g id="line2d_28">
      <g>
       <use xlink:href="#ma99418200c" x="344.329412" y="43.2" style="stroke: #000000; stroke-width: 0.8"/>
      </g>
     </g>
     <g id="text_26">
      <text style="font: 10px 'sans-serif'; text-anchor: end" x="337.329412" y="46.999219" transform="rotate(-0, 337.329412, 46.999219)">1.5</text>
     </g>
    </g>
   </g>
   <g id="line2d_29">
    <path d="M 383.018799 361 
L 383.717647 359.414791 
L 385.508021 355.379789 
L 387.298396 351.372427 
L 389.08877 347.393974 
L 390.879144 343.446091 
L 392.669519 339.530206 
L 394.459893 335.648218 
L 396.250267 331.80179 
L 398.040642 327.992825 
L 399.831016 324.223301 
L 401.62139 320.495515 
L 403.411765 316.811448 
L 405.202139 313.173634 
L 406.992513 309.584527 
L 408.782888 306.046742 
L 410.573262 302.562972 
L 412.363636 299.136305 
L 414.154011 295.76975 
L 415.944385 292.466635 
L 417.734759 289.230365 
L 419.525134 286.064741 
L 421.315508 282.973723 
L 423.105882 279.96143 
L 424.896257 277.032694 
L 426.686631 274.192423 
L 428.477005 271.44648 
L 430.26738 268.801279 
L 432.057754 266.265058 
L 433.848128 263.84827 
L 435.638503 261.566518 
L 437.428877 259.446967 
L 439.219251 257.549098 
L 441.009626 256.038041 
L 442.8 255.381235 
L 444.590374 256.038041 
L 446.380749 257.549098 
L 448.171123 259.446888 
L 449.961497 261.56628 
L 451.751872 263.847953 
L 453.542246 266.264582 
L 455.33262 268.800646 
L 457.122995 271.445609 
L 458.913369 274.191394 
L 460.703743 277.031426 
L 462.494118 279.960005 
L 464.284492 282.971981 
L 466.074866 286.062761 
L 467.865241 289.228147 
L 469.655615 292.46418 
L 471.445989 295.767058 
L 473.236364 299.133374 
L 475.026738 302.559804 
L 476.817112 306.043258 
L 478.607487 309.580805 
L 480.397861 313.169674 
L 482.188235 316.80725 
L 483.97861 320.491001 
L 485.768984 324.218628 
L 487.559358 327.987835 
L 489.349733 331.796563 
L 491.140107 335.642753 
L 492.930481 339.524582 
L 494.720856 343.440151 
L 496.51123 347.387875 
L 498.301604 351.366091 
L 500.091979 355.373294 
L 501.882353 359.408059 
L 502.584196 361 
" clip-path="url(#pc6365aa742)" style="fill: none; stroke: #1f77b4; stroke-width: 1.5; stroke-linecap: square"/>
   </g>
   <g id="line2d_30">
    <path d="M 353.281283 310.760885 
L 355.071658 308.509229 
L 356.862032 306.262879 
L 358.652406 304.022153 
L 360.442781 301.787683 
L 362.233155 299.559866 
L 364.023529 297.339494 
L 365.813904 295.127122 
L 367.604278 292.92354 
L 369.394652 290.729621 
L 371.185027 288.546394 
L 372.975401 286.374809 
L 374.765775 284.216054 
L 376.55615 282.071556 
L 378.346524 279.942818 
L 380.136898 277.831505 
L 381.927273 275.739516 
L 383.717647 273.66899 
L 385.508021 271.622383 
L 387.298396 269.602387 
L 389.08877 267.612012 
L 390.879144 265.654822 
L 392.669519 263.734538 
L 394.459893 261.855598 
L 396.250267 260.02283 
L 398.040642 258.241702 
L 399.831016 256.518151 
L 401.62139 254.858911 
L 403.411765 253.271268 
L 405.202139 251.763142 
L 406.992513 250.343323 
L 408.782888 249.020921 
L 410.573262 247.805676 
L 412.363636 246.707568 
L 414.154011 245.736814 
L 415.944385 244.90355 
L 417.734759 244.217282 
L 419.525134 243.687118 
L 421.315508 243.320897 
L 423.105882 243.124956 
L 424.896257 243.104206 
L 426.686631 243.261338 
L 428.477005 243.597067 
L 430.26738 244.109491 
L 432.057754 244.794175 
L 433.848128 245.642645 
L 435.638503 246.640723 
L 437.428877 247.76172 
L 439.219251 248.946394 
L 441.009626 250.029691 
L 442.8 250.543858 
L 444.590374 250.029691 
L 446.380749 248.946394 
L 448.171123 247.761799 
L 449.961497 246.640961 
L 451.751872 245.643041 
L 453.542246 244.79473 
L 455.33262 244.110362 
L 457.122995 243.598097 
L 458.913369 243.262685 
L 460.703743 243.105869 
L 462.494118 243.126936 
L 464.284492 243.323194 
L 466.074866 243.68981 
L 467.865241 244.220371 
L 469.655615 244.906877 
L 471.445989 245.740536 
L 473.236364 246.711607 
L 475.026738 247.810111 
L 476.817112 249.025673 
L 478.607487 250.348392 
L 480.397861 251.768527 
L 482.188235 253.276891 
L 483.97861 254.864851 
L 485.768984 256.524408 
L 487.559358 258.248196 
L 489.349733 260.029562 
L 491.140107 261.862567 
L 492.930481 263.741746 
L 494.720856 265.662187 
L 496.51123 267.619615 
L 498.301604 269.610149 
L 500.091979 271.630382 
L 501.882353 273.677148 
L 503.672727 275.747832 
L 505.463102 277.839979 
L 507.253476 279.951451 
L 509.04385 282.080347 
L 510.834225 284.225004 
L 512.624599 286.383838 
L 514.414973 288.555581 
L 516.205348 290.738966 
L 517.995722 292.932965 
L 519.786096 295.136626 
L 521.576471 297.349157 
L 523.366845 299.569608 
L 525.157219 301.797504 
L 526.947594 304.032132 
L 528.737968 306.272938 
L 530.528342 308.519366 
L 532.318717 310.771102 
" clip-path="url(#pc6365aa742)" style="fill: none; stroke: #2ca02c; stroke-width: 1.5; stroke-linecap: square"/>
   </g>
   <g id="line2d_31">
    <path d="M 353.281283 225.625668 
L 355.071658 223.548165 
L 356.862032 221.485568 
L 358.652406 219.439016 
L 360.442781 217.409769 
L 362.233155 215.399182 
L 364.023529 213.408712 
L 365.813904 211.439958 
L 367.604278 209.49464 
L 369.394652 207.574602 
L 371.185027 205.681841 
L 372.975401 203.818511 
L 374.765775 201.986876 
L 376.55615 200.189385 
L 378.346524 198.428602 
L 380.136898 196.707206 
L 381.927273 195.028 
L 383.717647 193.393835 
L 385.508021 191.807609 
L 387.298396 190.272159 
L 389.08877 188.790224 
L 390.879144 187.364323 
L 392.669519 185.996665 
L 394.459893 184.688986 
L 396.250267 183.442394 
L 398.040642 182.257222 
L 399.831016 181.132851 
L 401.62139 180.067532 
L 403.411765 179.058254 
L 405.202139 178.100639 
L 406.992513 177.188897 
L 408.782888 176.315844 
L 410.573262 175.473029 
L 412.363636 174.650972 
L 414.154011 173.839489 
L 415.944385 173.028149 
L 417.734759 172.206837 
L 419.525134 171.366374 
L 421.315508 170.499269 
L 423.105882 169.600453 
L 424.896257 168.668111 
L 426.686631 167.704534 
L 428.477005 166.717021 
L 430.26738 165.718855 
L 432.057754 164.730316 
L 433.848128 163.779603 
L 435.638503 162.903283 
L 437.428877 162.145512 
L 439.219251 161.554813 
L 441.009626 161.177373 
L 442.8 161.047325 
L 444.590374 161.177373 
L 446.380749 161.554814 
L 448.171123 162.145514 
L 449.961497 162.903289 
L 451.751872 163.779616 
L 453.542246 164.730343 
L 455.33262 165.718902 
L 457.122995 166.717099 
L 458.913369 167.704659 
L 460.703743 168.6683 
L 462.494118 169.600728 
L 464.284492 170.499657 
L 466.074866 171.366905 
L 467.865241 172.207534 
L 469.655615 173.029051 
L 471.445989 173.84063 
L 473.236364 174.652382 
L 475.026738 175.474732 
L 476.817112 176.317871 
L 478.607487 177.191273 
L 480.397861 178.103388 
L 482.188235 179.061375 
L 483.97861 180.071048 
L 485.768984 181.136763 
L 487.559358 182.26153 
L 489.349733 183.447091 
L 491.140107 184.694063 
L 492.930481 186.002122 
L 494.720856 187.370144 
L 496.51123 188.796385 
L 498.301604 190.278653 
L 500.091979 191.814428 
L 501.882353 193.400963 
L 503.672727 195.035413 
L 505.463102 196.714896 
L 507.253476 198.436554 
L 509.04385 200.19759 
L 510.834225 201.995311 
L 512.624599 203.827167 
L 514.414973 205.690712 
L 516.205348 207.583671 
L 517.995722 209.503899 
L 519.786096 211.449399 
L 521.576471 213.418327 
L 523.366845 215.408964 
L 525.157219 217.419709 
L 526.947594 219.449106 
L 528.737968 221.4958 
L 530.528342 223.558533 
L 532.318717 225.63617 
" clip-path="url(#pc6365aa742)" style="fill: none; stroke: #9467bd; stroke-width: 1.5; stroke-linecap: square"/>
   </g>
   <g id="line2d_32">
    <path d="M 353.281283 61.574083 
L 355.071658 63.55733 
L 356.862032 65.520619 
L 358.652406 67.462366 
L 360.442781 69.381065 
L 362.233155 71.274816 
L 364.023529 73.141798 
L 365.813904 74.979871 
L 367.604278 76.786819 
L 369.394652 78.560186 
L 371.185027 80.297201 
L 372.975401 81.995249 
L 374.765775 83.651067 
L 376.55615 85.261512 
L 378.346524 86.823099 
L 380.136898 88.332168 
L 381.927273 89.784917 
L 383.717647 91.177412 
L 385.508021 92.505659 
L 387.298396 93.765715 
L 389.08877 94.953763 
L 390.879144 96.066341 
L 392.669519 97.100542 
L 394.459893 98.054316 
L 396.250267 98.926942 
L 398.040642 99.719551 
L 399.831016 100.436003 
L 401.62139 101.083954 
L 403.411765 101.676504 
L 405.202139 102.234452 
L 406.992513 102.789209 
L 408.782888 103.386084 
L 410.573262 104.085847 
L 412.363636 104.960073 
L 414.154011 106.0749 
L 415.944385 107.465842 
L 417.734759 109.122104 
L 419.525134 110.995105 
L 421.315508 113.021009 
L 423.105882 115.138302 
L 424.896257 117.294237 
L 426.686631 119.444343 
L 428.477005 121.549455 
L 430.26738 123.572421 
L 432.057754 125.475217 
L 433.848128 127.2165 
L 435.638503 128.750161 
L 437.428877 130.025194 
L 439.219251 130.988361 
L 441.009626 131.590423 
L 442.8 131.795528 
L 444.590374 131.590423 
L 446.380749 130.988361 
L 448.171123 130.025194 
L 449.961497 128.750169 
L 451.751872 127.216524 
L 453.542246 125.475257 
L 455.33262 123.572501 
L 457.122995 121.549574 
L 458.913369 119.444533 
L 460.703743 117.29453 
L 462.494118 115.138722 
L 464.284492 113.021587 
L 466.074866 110.995873 
L 467.865241 109.12307 
L 469.655615 107.466943 
L 471.445989 106.075993 
L 473.236364 104.960976 
L 475.026738 104.086362 
L 476.817112 103.386092 
L 478.607487 102.788631 
L 480.397861 102.233256 
L 482.188235 101.674706 
L 483.97861 101.081562 
L 485.768984 100.43304 
L 487.559358 99.716043 
L 489.349733 98.92291 
L 491.140107 98.049794 
L 492.930481 97.095552 
L 494.720856 96.060923 
L 496.51123 94.947942 
L 498.301604 93.759506 
L 500.091979 92.499101 
L 501.882353 91.170521 
L 503.672727 89.777726 
L 505.463102 88.324699 
L 507.253476 86.815369 
L 509.04385 85.253545 
L 510.834225 83.642878 
L 512.624599 81.986854 
L 514.414973 80.288647 
L 516.205348 78.551395 
L 517.995722 76.77787 
L 519.786096 74.970842 
L 521.576471 73.13261 
L 523.366845 71.26547 
L 525.157219 69.371561 
L 526.947594 67.452782 
L 528.737968 65.510957 
L 530.528342 63.547589 
L 532.318717 61.564262 
" clip-path="url(#pc6365aa742)" style="fill: none; stroke: #e377c2; stroke-width: 1.5; stroke-linecap: square"/>
   </g>
   <g id="line2d_33">
    <path d="M 353.281283 2.72579 
L 355.071658 5.33844 
L 356.862032 7.960831 
L 358.652406 10.593202 
L 360.442781 13.23571 
L 362.233155 15.888593 
L 364.023529 18.55193 
L 365.813904 21.22596 
L 367.604278 23.910682 
L 369.394652 26.606095 
L 371.185027 29.312122 
L 372.975401 32.028602 
L 374.765775 34.755458 
L 376.55615 37.492135 
L 378.346524 40.238316 
L 380.136898 42.993209 
L 381.927273 45.756101 
L 383.717647 48.525804 
L 385.508021 51.300972 
L 387.298396 54.079942 
L 389.08877 56.860495 
L 390.879144 59.63994 
L 392.669519 62.41487 
L 394.459893 65.180851 
L 396.250267 67.932259 
L 398.040642 70.661966 
L 399.831016 73.360073 
L 401.62139 76.013748 
L 403.411765 78.605093 
L 405.202139 81.109318 
L 406.992513 83.491931 
L 408.782888 85.705436 
L 410.573262 87.687844 
L 412.363636 89.367272 
L 414.154011 90.67823 
L 415.944385 91.586575 
L 417.734759 92.105145 
L 419.525134 92.285032 
L 421.315508 92.192795 
L 423.105882 91.892691 
L 424.896257 91.439841 
L 426.686631 90.880285 
L 428.477005 90.253354 
L 430.26738 89.594117 
L 432.057754 88.935212 
L 433.848128 88.307869 
L 435.638503 87.742143 
L 437.428877 87.266349 
L 439.219251 86.90572 
L 441.009626 86.680483 
L 442.8 86.603873 
L 444.590374 86.680483 
L 446.380749 86.905704 
L 448.171123 87.266302 
L 449.961497 87.742025 
L 451.751872 88.307647 
L 453.542246 88.93484 
L 455.33262 89.593546 
L 457.122995 90.252514 
L 458.913369 90.879121 
L 460.703743 91.438273 
L 462.494118 91.890639 
L 464.284492 92.190182 
L 466.074866 92.281784 
L 467.865241 92.101224 
L 469.655615 91.581997 
L 471.445989 90.673098 
L 473.236364 89.361752 
L 475.026738 87.682078 
L 476.817112 85.699552 
L 478.607487 83.485975 
L 480.397861 81.103298 
L 482.188235 78.598994 
L 483.97861 76.00757 
L 485.768984 73.353816 
L 487.559358 70.655551 
L 489.349733 67.925844 
L 491.140107 65.174198 
L 492.930481 62.408059 
L 494.720856 59.63305 
L 496.51123 56.853446 
L 498.301604 54.072734 
L 500.091979 51.293606 
L 501.882353 48.51828 
L 503.672727 45.748418 
L 505.463102 42.985368 
L 507.253476 40.230317 
L 509.04385 37.483978 
L 510.834225 34.747142 
L 512.624599 32.020207 
L 514.414973 29.303568 
L 516.205348 26.597383 
L 517.995722 23.90189 
L 519.786096 21.21709 
L 521.576471 18.542902 
L 523.366845 15.879406 
L 525.157219 13.226443 
L 526.947594 10.583856 
L 528.737968 7.951406 
L 530.528342 5.328936 
L 532.318717 2.716207 
" clip-path="url(#pc6365aa742)" style="fill: none; stroke: #bcbd22; stroke-width: 1.5; stroke-linecap: square"/>
   </g>
   <g id="line2d_34">
    <path d="M 402.121404 -1 
L 403.411765 1.232158 
L 405.202139 4.273438 
L 406.992513 7.256822 
L 408.782888 10.179698 
L 410.573262 13.039294 
L 412.363636 15.832519 
L 414.154011 18.555494 
L 415.944385 21.203942 
L 417.734759 23.772874 
L 419.525134 26.256269 
L 421.315508 28.647 
L 423.105882 30.936751 
L 424.896257 33.115622 
L 426.686631 35.171734 
L 428.477005 37.091383 
L 430.26738 38.858494 
L 432.057754 40.45469 
L 433.848128 41.859778 
L 435.638503 43.051896 
L 437.428877 44.008949 
L 439.219251 44.710265 
L 441.009626 45.138737 
L 442.8 45.282881 
L 444.590374 45.138737 
L 446.380749 44.710265 
L 448.171123 44.008949 
L 449.961497 43.051975 
L 451.751872 41.859936 
L 453.542246 40.454928 
L 455.33262 38.858731 
L 457.122995 37.091779 
L 458.913369 35.172288 
L 460.703743 33.116256 
L 462.494118 30.937622 
L 464.284492 28.64803 
L 466.074866 26.257457 
L 467.865241 23.774299 
L 469.655615 21.205606 
L 471.445989 18.557316 
L 473.236364 15.834578 
L 475.026738 13.04167 
L 476.817112 10.182233 
L 478.607487 7.259594 
L 480.397861 4.276526 
L 482.188235 1.235484 
L 483.480618 -1 
" clip-path="url(#pc6365aa742)" style="fill: none; stroke: #000080; stroke-width: 1.5; stroke-linecap: square"/>
   </g>
   <g id="patch_8">
    <path d="M 344.329412 320.4 
L 344.329412 43.2 
" style="fill: none; stroke: #000000; stroke-width: 0.8; stroke-linejoin: miter; stroke-linecap: square"/>
   </g>
   <g id="patch_9">
    <path d="M 541.270588 320.4 
L 541.270588 43.2 
" style="fill: none; stroke: #000000; stroke-width: 0.8; stroke-linejoin: miter; stroke-linecap: square"/>
   </g>
   <g id="patch_10">
    <path d="M 344.329412 320.4 
L 541.270588 320.4 
" style="fill: none; stroke: #000000; stroke-width: 0.8; stroke-linejoin: miter; stroke-linecap: square"/>
   </g>
   <g id="patch_11">
    <path d="M 344.329412 43.2 
L 541.270588 43.2 
" style="fill: none; stroke: #000000; stroke-width: 0.8; stroke-linejoin: miter; stroke-linecap: square"/>
   </g>
   <g id="text_27">
    <text style="font: 12px 'sans-serif'; text-anchor: middle" x="442.8" y="37.2" transform="rotate(-0, 442.8, 37.2)">ky-cut</text>
   </g>
  </g>
  <g id="axes_3">
   <g id="patch_12">
    <path d="M 580.658824 320.4 
L 777.6 320.4 
L 777.6 43.2 
L 580.658824 43.2 
z
" style="fill: #ffffff"/>
   </g>
   <g id="matplotlib.axis_5">
    <g id="xtick_7">
     <g id="line2d_35">
      <g>
       <use xlink:href="#me9f1f06e7d" x="614.546253" y="320.4" style="stroke: #000000; stroke-width: 0.8"/>
      </g>
     </g>
     <g id="text_28">
      <text style="font: 10px 'sans-serif'; text-anchor: middle" x="614.546253" y="334.998438" transform="rotate(-0, 614.546253, 334.998438)">−0.2</text>
     </g>
    </g>
    <g id="xtick_8">
     <g id="line2d_36">
      <g>
       <use xlink:href="#me9f1f06e7d" x="679.129412" y="320.4" style="stroke: #000000; stroke-width: 0.8"/>
      </g>
     </g>
     <g id="text_29">
      <text style="font: 10px 'sans-serif'; text-anchor: middle" x="679.129412" y="334.998438" transform="rotate(-0, 679.129412, 334.998438)">0.0</text>
     </g>
    </g>
    <g id="xtick_9">
     <g id="line2d_37">
      <g>
       <use xlink:href="#me9f1f06e7d" x="743.712571" y="320.4" style="stroke: #000000; stroke-width: 0.8"/>
      </g>
     </g>
     <g id="text_30">
      <text style="font: 10px 'sans-serif'; text-anchor: middle" x="743.712571" y="334.998438" transform="rotate(-0, 743.712571, 334.998438)">0.2</text>
     </g>
    </g>
    <g id="text_31">
     <text style="font: 10px 'sans-serif'; text-anchor: middle" x="679.129412" y="348.676562" transform="rotate(-0, 679.129412, 348.676562)">kz</text>
    </g>
   </g>
   <g id="matplotlib.axis_6">
    <g id="ytick_17">
     <g id="line2d_38">
      <g>
       <use xlink:href="#ma99418200c" x="580.658824" y="320.4" style="stroke: #000000; stroke-width: 0.8"/>
      </g>
     </g>
     <g id="text_32">
      <text style="font: 10px 'sans-serif'; text-anchor: end" x="573.658824" y="324.199219" transform="rotate(-0, 573.658824, 324.199219)">−2.0</text>
     </g>
    </g>
    <g id="ytick_18">
     <g id="line2d_39">
      <g>
       <use xlink:href="#ma99418200c" x="580.658824" y="280.8" style="stroke: #000000; stroke-width: 0.8"/>
      </g>
     </g>
     <g id="text_33">
      <text style="font: 10px 'sans-serif'; text-anchor: end" x="573.658824" y="284.599219" transform="rotate(-0, 573.658824, 284.599219)">−1.5</text>
     </g>
    </g>
    <g id="ytick_19">
     <g id="line2d_40">
      <g>
       <use xlink:href="#ma99418200c" x="580.658824" y="241.2" style="stroke: #000000; stroke-width: 0.8"/>
      </g>
     </g>
     <g id="text_34">
      <text style="font: 10px 'sans-serif'; text-anchor: end" x="573.658824" y="244.999219" transform="rotate(-0, 573.658824, 244.999219)">−1.0</text>
     </g>
    </g>
    <g id="ytick_20">
     <g id="line2d_41">
      <g>
       <use xlink:href="#ma99418200c" x="580.658824" y="201.6" style="stroke: #000000; stroke-width: 0.8"/>
      </g>
     </g>
     <g id="text_35">
      <text style="font: 10px 'sans-serif'; text-anchor: end" x="573.658824" y="205.399219" transform="rotate(-0, 573.658824, 205.399219)">−0.5</text>
     </g>
    </g>
    <g id="ytick_21">
     <g id="line2d_42">
      <g>
       <use xlink:href="#ma99418200c" x="580.658824" y="162" style="stroke: #000000; stroke-width: 0.8"/>
      </g>
     </g>
     <g id="text_36">
      <text style="font: 10px 'sans-serif'; text-anchor: end" x="573.658824" y="165.799219" transform="rotate(-0, 573.658824, 165.799219)">0.0</text>
     </g>
    </g>
    <g id="ytick_22">
     <g id="line2d_43">
      <g>
       <use xlink:href="#ma99418200c" x="580.658824" y="122.4" style="stroke: #000000; stroke-width: 0.8"/>
      </g>
     </g>
     <g id="text_37">
      <text style="font: 10px 'sans-serif'; text-anchor: end" x="573.658824" y="126.199219" transform="rotate(-0, 573.658824, 126.199219)">0.5</text>
     </g>
    </g>
    <g id="ytick_23">
     <g id="line2d_44">
      <g>
       <use xlink:href="#ma99418200c" x="580.658824" y="82.8" style="stroke: #000000; stroke-width: 0.8"/>
      </g>
     </g>
     <g id="text_38">
      <text style="font: 10px 'sans-serif'; text-anchor: end" x="573.658824" y="86.599219" transform="rotate(-0, 573.658824, 86.599219)">1.0</text>
     </g>
    </g>
    <g id="ytick_24">
     <g id="line2d_45">
      <g>
       <use xlink:href="#ma99418200c" x="580.658824" y="43.2" style="stroke: #000000; stroke-width: 0.8"/>
      </g>
     </g>
     <g id="text_39">
      <text style="font: 10px 'sans-serif'; text-anchor: end" x="573.658824" y="46.999219" transform="rotate(-0, 573.658824, 46.999219)">1.5</text>
     </g>
    </g>
   </g>
   <g id="line2d_46">
    <path d="M 589.610695 298.988676 
L 591.40107 297.99923 
L 593.191444 297.011686 
L 594.981818 296.026121 
L 596.772193 295.042536 
L 598.562567 294.060931 
L 600.352941 293.081465 
L 602.143316 292.104137 
L 603.93369 291.128947 
L 605.724064 290.156054 
L 607.514439 289.185538 
L 609.304813 288.217318 
L 611.095187 287.251632 
L 612.885561 286.288481 
L 614.675936 285.327864 
L 616.46631 284.36994 
L 618.256684 283.414788 
L 620.047059 282.462487 
L 621.837433 281.513117 
L 623.627807 280.566835 
L 625.418182 279.623642 
L 627.208556 278.683618 
L 628.99893 277.746998 
L 630.789305 276.813864 
L 632.579679 275.884294 
L 634.370053 274.958446 
L 636.160428 274.036478 
L 637.950802 273.11855 
L 639.741176 272.20482 
L 641.531551 271.295525 
L 643.321925 270.390744 
L 645.112299 269.490874 
L 646.902674 268.596072 
L 648.693048 267.706656 
L 650.483422 266.823022 
L 652.273797 265.945486 
L 654.064171 265.074682 
L 655.854545 264.211006 
L 657.64492 263.355329 
L 659.435294 262.508602 
L 661.225668 261.672012 
L 663.016043 260.847223 
L 664.806417 260.036532 
L 666.596791 259.243423 
L 668.387166 258.472966 
L 670.17754 257.733 
L 671.967914 257.036753 
L 673.758289 256.406242 
L 675.548663 255.879166 
L 677.339037 255.51437 
L 679.129412 255.381235 
L 680.919786 255.51437 
L 682.71016 255.879166 
L 684.500535 256.406242 
L 686.290909 257.036674 
L 688.081283 257.733 
L 689.871658 258.472886 
L 691.662032 259.243423 
L 693.452406 260.036453 
L 695.242781 260.847065 
L 697.033155 261.671854 
L 698.823529 262.508443 
L 700.613904 263.35517 
L 702.404278 264.210768 
L 704.194652 265.074365 
L 705.985027 265.945248 
L 707.775401 266.822705 
L 709.565775 267.706339 
L 711.35615 268.595676 
L 713.146524 269.490478 
L 714.936898 270.390348 
L 716.727273 271.29505 
L 718.517647 272.204345 
L 720.308021 273.117996 
L 722.098396 274.035924 
L 723.88877 274.957891 
L 725.679144 275.88366 
L 727.469519 276.81323 
L 729.259893 277.746365 
L 731.050267 278.682905 
L 732.840642 279.62285 
L 734.631016 280.566043 
L 736.42139 281.512325 
L 738.211765 282.461695 
L 740.002139 283.413996 
L 741.792513 284.369069 
L 743.582888 285.326993 
L 745.373262 286.28753 
L 747.163636 287.250682 
L 748.954011 288.216367 
L 750.744385 289.184587 
L 752.534759 290.155104 
L 754.325134 291.127997 
L 756.115508 292.103107 
L 757.905882 293.080435 
L 759.696257 294.059902 
L 761.486631 295.041506 
L 763.277005 296.025091 
L 765.06738 297.010656 
L 766.857754 297.998201 
L 768.648128 298.987646 
" clip-path="url(#p9ee141d1d8)" style="fill: none; stroke: #1f77b4; stroke-width: 1.5; stroke-linecap: square"/>
   </g>
   <g id="line2d_47">
    <path d="M 589.610695 229.165164 
L 591.40107 229.164008 
L 593.191444 229.18696 
L 594.981818 229.233957 
L 596.772193 229.304912 
L 598.562567 229.399683 
L 600.352941 229.518119 
L 602.143316 229.660014 
L 603.93369 229.825146 
L 605.724064 230.013269 
L 607.514439 230.224092 
L 609.304813 230.457312 
L 611.095187 230.712589 
L 612.885561 230.989584 
L 614.675936 231.287914 
L 616.46631 231.607177 
L 618.256684 231.946977 
L 620.047059 232.30687 
L 621.837433 232.686436 
L 623.627807 233.085208 
L 625.418182 233.502726 
L 627.208556 233.938524 
L 628.99893 234.392118 
L 630.789305 234.863026 
L 632.579679 235.350755 
L 634.370053 235.854808 
L 636.160428 236.374677 
L 637.950802 236.909855 
L 639.741176 237.459835 
L 641.531551 238.024088 
L 643.321925 238.602074 
L 645.112299 239.193262 
L 646.902674 239.797067 
L 648.693048 240.41291 
L 650.483422 241.040174 
L 652.273797 241.67821 
L 654.064171 242.326145 
L 655.854545 242.983346 
L 657.64492 243.648785 
L 659.435294 244.321272 
L 661.225668 244.999382 
L 663.016043 245.681294 
L 664.806417 246.364553 
L 666.596791 247.045594 
L 668.387166 247.71919 
L 670.17754 248.377342 
L 671.967914 249.006823 
L 673.758289 249.585458 
L 675.548663 250.075548 
L 677.339037 250.418167 
L 679.129412 250.543858 
L 680.919786 250.418167 
L 682.71016 250.075548 
L 684.500535 249.585458 
L 686.290909 249.006823 
L 688.081283 248.377421 
L 689.871658 247.719269 
L 691.662032 247.045673 
L 693.452406 246.364632 
L 695.242781 245.681453 
L 697.033155 244.99962 
L 698.823529 244.32151 
L 700.613904 243.649102 
L 702.404278 242.983742 
L 704.194652 242.32662 
L 705.985027 241.678685 
L 707.775401 241.040792 
L 709.565775 240.413623 
L 711.35615 239.797875 
L 713.146524 239.194181 
L 714.936898 238.603111 
L 716.727273 238.025252 
L 718.517647 237.461134 
L 720.308021 236.911296 
L 722.098396 236.376269 
L 723.88877 235.856566 
L 725.679144 235.352688 
L 727.469519 234.86514 
L 729.259893 234.394423 
L 731.050267 233.941027 
L 732.840642 233.505443 
L 734.631016 233.088138 
L 736.42139 232.689604 
L 738.211765 232.310283 
L 740.002139 231.950628 
L 741.792513 231.61109 
L 743.582888 231.292096 
L 745.373262 230.994042 
L 747.163636 230.717334 
L 748.954011 230.462349 
L 750.744385 230.22943 
L 752.534759 230.018916 
L 754.325134 229.831109 
L 756.115508 229.666294 
L 757.905882 229.524724 
L 759.696257 229.406621 
L 761.486631 229.312183 
L 763.277005 229.241568 
L 765.06738 229.194912 
L 766.857754 229.1723 
L 768.648128 229.173805 
" clip-path="url(#p9ee141d1d8)" style="fill: none; stroke: #2ca02c; stroke-width: 1.5; stroke-linecap: square"/>
   </g>
   <g id="line2d_48">
    <path d="M 589.610695 188.173406 
L 591.40107 187.319963 
L 593.191444 186.472491 
L 594.981818 185.631237 
L 596.772193 184.796445 
L 598.562567 183.968385 
L 600.352941 183.14735 
L 602.143316 182.333634 
L 603.93369 181.527544 
L 605.724064 180.729398 
L 607.514439 179.939537 
L 609.304813 179.158324 
L 611.095187 178.386124 
L 612.885561 177.623325 
L 614.675936 176.870331 
L 616.46631 176.127577 
L 618.256684 175.395492 
L 620.047059 174.674542 
L 621.837433 173.965203 
L 623.627807 173.267982 
L 625.418182 172.583393 
L 627.208556 171.911983 
L 628.99893 171.254306 
L 630.789305 170.610941 
L 632.579679 169.982489 
L 634.370053 169.369563 
L 636.160428 168.772802 
L 637.950802 168.192858 
L 639.741176 167.630398 
L 641.531551 167.086103 
L 643.321925 166.560669 
L 645.112299 166.054799 
L 646.902674 165.569205 
L 648.693048 165.104602 
L 650.483422 164.661706 
L 652.273797 164.241232 
L 654.064171 163.843886 
L 655.854545 163.470363 
L 657.64492 163.121343 
L 659.435294 162.797484 
L 661.225668 162.499418 
L 663.016043 162.227746 
L 664.806417 161.983031 
L 666.596791 161.765796 
L 668.387166 161.576514 
L 670.17754 161.415608 
L 671.967914 161.283443 
L 673.758289 161.180325 
L 675.548663 161.106495 
L 677.339037 161.062127 
L 679.129412 161.047325 
L 680.919786 161.062127 
L 682.71016 161.106495 
L 684.500535 161.180325 
L 686.290909 161.283443 
L 688.081283 161.415608 
L 689.871658 161.576514 
L 691.662032 161.765796 
L 693.452406 161.983031 
L 695.242781 162.227746 
L 697.033155 162.499418 
L 698.823529 162.797484 
L 700.613904 163.121343 
L 702.404278 163.470363 
L 704.194652 163.843886 
L 705.985027 164.241232 
L 707.775401 164.661706 
L 709.565775 165.104602 
L 711.35615 165.569205 
L 713.146524 166.054799 
L 714.936898 166.560669 
L 716.727273 167.086103 
L 718.517647 167.630398 
L 720.308021 168.192858 
L 722.098396 168.772802 
L 723.88877 169.369563 
L 725.679144 169.982489 
L 727.469519 170.610941 
L 729.259893 171.254306 
L 731.050267 171.911983 
L 732.840642 172.583393 
L 734.631016 173.267982 
L 736.42139 173.965203 
L 738.211765 174.674542 
L 740.002139 175.395492 
L 741.792513 176.127577 
L 743.582888 176.870331 
L 745.373262 177.623325 
L 747.163636 178.386124 
L 748.954011 179.158324 
L 750.744385 179.939537 
L 752.534759 180.729398 
L 754.325134 181.527544 
L 756.115508 182.333634 
L 757.905882 183.14735 
L 759.696257 183.968385 
L 761.486631 184.796445 
L 763.277005 185.631237 
L 765.06738 186.472491 
L 766.857754 187.319963 
L 768.648128 188.173406 
" clip-path="url(#p9ee141d1d8)" style="fill: none; stroke: #9467bd; stroke-width: 1.5; stroke-linecap: square"/>
   </g>
   <g id="line2d_49">
    <path d="M 589.610695 135.076404 
L 591.40107 135.211368 
L 593.191444 135.328743 
L 594.981818 135.428812 
L 596.772193 135.511885 
L 598.562567 135.578334 
L 600.352941 135.628546 
L 602.143316 135.662967 
L 603.93369 135.68207 
L 605.724064 135.686362 
L 607.514439 135.676399 
L 609.304813 135.65275 
L 611.095187 135.616033 
L 612.885561 135.566881 
L 614.675936 135.505968 
L 616.46631 135.433992 
L 618.256684 135.351647 
L 620.047059 135.259688 
L 621.837433 135.158867 
L 623.627807 135.049935 
L 625.418182 134.933701 
L 627.208556 134.810941 
L 628.99893 134.682455 
L 630.789305 134.549066 
L 632.579679 134.411575 
L 634.370053 134.270797 
L 636.160428 134.127548 
L 637.950802 133.982636 
L 639.741176 133.836852 
L 641.531551 133.691005 
L 643.321925 133.545871 
L 645.112299 133.402218 
L 646.902674 133.260799 
L 648.693048 133.122349 
L 650.483422 132.987583 
L 652.273797 132.857188 
L 654.064171 132.73183 
L 655.854545 132.612143 
L 657.64492 132.498737 
L 659.435294 132.392181 
L 661.225668 132.293007 
L 663.016043 132.201713 
L 664.806417 132.118759 
L 666.596791 132.044556 
L 668.387166 131.979486 
L 670.17754 131.923863 
L 671.967914 131.877967 
L 673.758289 131.842034 
L 675.548663 131.816238 
L 677.339037 131.800707 
L 679.129412 131.795528 
L 680.919786 131.800707 
L 682.71016 131.816238 
L 684.500535 131.842034 
L 686.290909 131.877959 
L 688.081283 131.92384 
L 689.871658 131.979454 
L 691.662032 132.044509 
L 693.452406 132.11868 
L 695.242781 132.201602 
L 697.033155 132.292856 
L 698.823529 132.391983 
L 700.613904 132.498483 
L 702.404278 132.611818 
L 704.194652 132.731426 
L 705.985027 132.856697 
L 707.775401 132.986981 
L 709.565775 133.121637 
L 711.35615 133.259959 
L 713.146524 133.401236 
L 714.936898 133.544731 
L 716.727273 133.689699 
L 718.517647 133.835363 
L 720.308021 133.980941 
L 722.098396 134.125631 
L 723.88877 134.268651 
L 725.679144 134.409175 
L 727.469519 134.546397 
L 729.259893 134.679501 
L 731.050267 134.807686 
L 732.840642 134.930121 
L 734.631016 135.04603 
L 736.42139 135.154598 
L 738.211765 135.255055 
L 740.002139 135.346626 
L 741.792513 135.428566 
L 743.582888 135.500124 
L 745.373262 135.560601 
L 747.163636 135.609293 
L 748.954011 135.645543 
L 750.744385 135.668701 
L 752.534759 135.678173 
L 754.325134 135.673366 
L 756.115508 135.653732 
L 757.905882 135.618773 
L 759.696257 135.568006 
L 761.486631 135.500995 
L 763.277005 135.417344 
L 765.06738 135.316688 
L 766.857754 135.19872 
L 768.648128 135.063153 
" clip-path="url(#p9ee141d1d8)" style="fill: none; stroke: #e377c2; stroke-width: 1.5; stroke-linecap: square"/>
   </g>
   <g id="line2d_50">
    <path d="M 589.610695 59.477818 
L 591.40107 60.331198 
L 593.191444 61.178717 
L 594.981818 62.019979 
L 596.772193 62.854747 
L 598.562567 63.682783 
L 600.352941 64.50385 
L 602.143316 65.31755 
L 603.93369 66.123648 
L 605.724064 66.921826 
L 607.514439 67.711687 
L 609.304813 68.492916 
L 611.095187 69.265116 
L 612.885561 70.027891 
L 614.675936 70.780846 
L 616.46631 71.523662 
L 618.256684 72.255708 
L 620.047059 72.976666 
L 621.837433 73.685981 
L 623.627807 74.383178 
L 625.418182 75.067783 
L 627.208556 75.739241 
L 628.99893 76.396918 
L 630.789305 77.040259 
L 632.579679 77.668711 
L 634.370053 78.28164 
L 636.160428 78.878412 
L 637.950802 79.458314 
L 639.741176 80.020793 
L 641.531551 80.565134 
L 643.321925 81.090547 
L 645.112299 81.596398 
L 646.902674 82.081973 
L 648.693048 82.54656 
L 650.483422 82.989494 
L 652.273797 83.409967 
L 654.064171 83.807313 
L 655.854545 84.180836 
L 657.64492 84.529855 
L 659.435294 84.853719 
L 661.225668 85.151781 
L 663.016043 85.423452 
L 664.806417 85.668173 
L 666.596791 85.885402 
L 668.387166 86.074682 
L 670.17754 86.235593 
L 671.967914 86.367754 
L 673.758289 86.470872 
L 675.548663 86.544703 
L 677.339037 86.589071 
L 679.129412 86.603873 
L 680.919786 86.589071 
L 682.71016 86.544703 
L 684.500535 86.470872 
L 686.290909 86.367754 
L 688.081283 86.235593 
L 689.871658 86.074682 
L 691.662032 85.885402 
L 693.452406 85.668173 
L 695.242781 85.423452 
L 697.033155 85.151781 
L 698.823529 84.853719 
L 700.613904 84.529855 
L 702.404278 84.180836 
L 704.194652 83.807313 
L 705.985027 83.409967 
L 707.775401 82.989494 
L 709.565775 82.54656 
L 711.35615 82.081973 
L 713.146524 81.596398 
L 714.936898 81.090547 
L 716.727273 80.565134 
L 718.517647 80.020793 
L 720.308021 79.458314 
L 722.098396 78.878412 
L 723.88877 78.28164 
L 725.679144 77.668711 
L 727.469519 77.040259 
L 729.259893 76.396918 
L 731.050267 75.739241 
L 732.840642 75.067783 
L 734.631016 74.383178 
L 736.42139 73.685981 
L 738.211765 72.976666 
L 740.002139 72.255708 
L 741.792513 71.523662 
L 743.582888 70.780846 
L 745.373262 70.027891 
L 747.163636 69.265116 
L 748.954011 68.492916 
L 750.744385 67.711687 
L 752.534759 66.921826 
L 754.325134 66.123648 
L 756.115508 65.31755 
L 757.905882 64.50385 
L 759.696257 63.682783 
L 761.486631 62.854747 
L 763.277005 62.019979 
L 765.06738 61.178717 
L 766.857754 60.331198 
L 768.648128 59.477818 
" clip-path="url(#p9ee141d1d8)" style="fill: none; stroke: #bcbd22; stroke-width: 1.5; stroke-linecap: square"/>
   </g>
   <g id="line2d_51">
    <path d="M 589.610695 19.773274 
L 591.40107 20.628871 
L 593.191444 21.476074 
L 594.981818 22.314564 
L 596.772193 23.144184 
L 598.562567 23.964538 
L 600.352941 24.775387 
L 602.143316 25.576416 
L 603.93369 26.367307 
L 605.724064 27.147744 
L 607.514439 27.917489 
L 609.304813 28.676066 
L 611.095187 29.423239 
L 612.885561 30.158532 
L 614.675936 30.881707 
L 616.46631 31.592369 
L 618.256684 32.290042 
L 620.047059 32.974409 
L 621.837433 33.644995 
L 623.627807 34.301484 
L 625.418182 34.9434 
L 627.208556 35.570347 
L 628.99893 36.18185 
L 630.789305 36.777514 
L 632.579679 37.356862 
L 634.370053 37.919419 
L 636.160428 38.464711 
L 637.950802 38.992421 
L 639.741176 39.501914 
L 641.531551 39.992875 
L 643.321925 40.464749 
L 645.112299 40.917139 
L 646.902674 41.349571 
L 648.693048 41.76157 
L 650.483422 42.152738 
L 652.273797 42.522602 
L 654.064171 42.870845 
L 655.854545 43.19699 
L 657.64492 43.500643 
L 659.435294 43.781486 
L 661.225668 44.039124 
L 663.016043 44.273239 
L 664.806417 44.483594 
L 666.596791 44.669873 
L 668.387166 44.831837 
L 670.17754 44.969249 
L 671.967914 45.08195 
L 673.758289 45.169783 
L 675.548663 45.232589 
L 677.339037 45.270288 
L 679.129412 45.282881 
L 680.919786 45.270288 
L 682.71016 45.232589 
L 684.500535 45.169783 
L 686.290909 45.08195 
L 688.081283 44.969249 
L 689.871658 44.831837 
L 691.662032 44.669952 
L 693.452406 44.483674 
L 695.242781 44.273318 
L 697.033155 44.039203 
L 698.823529 43.781566 
L 700.613904 43.500722 
L 702.404278 43.19707 
L 704.194652 42.871003 
L 705.985027 42.52284 
L 707.775401 42.152976 
L 709.565775 41.761886 
L 711.35615 41.349967 
L 713.146524 40.917614 
L 714.936898 40.465303 
L 716.727273 39.993509 
L 718.517647 39.502627 
L 720.308021 38.993213 
L 722.098396 38.465662 
L 723.88877 37.92037 
L 725.679144 37.35797 
L 727.469519 36.778702 
L 729.259893 36.183197 
L 731.050267 35.571852 
L 732.840642 34.945063 
L 734.631016 34.303226 
L 736.42139 33.646896 
L 738.211765 32.976468 
L 740.002139 32.292259 
L 741.792513 31.594745 
L 743.582888 30.884321 
L 745.373262 30.161304 
L 747.163636 29.42617 
L 748.954011 28.679155 
L 750.744385 27.920815 
L 752.534759 27.151308 
L 754.325134 26.37103 
L 756.115508 25.580376 
L 757.905882 24.779506 
L 759.696257 23.968894 
L 761.486631 23.148778 
L 763.277005 22.319474 
L 765.06738 21.481142 
L 766.857754 20.634257 
L 768.648128 19.778897 
" clip-path="url(#p9ee141d1d8)" style="fill: none; stroke: #000080; stroke-width: 1.5; stroke-linecap: square"/>
   </g>
   <g id="patch_13">
    <path d="M 580.658824 320.4 
L 580.658824 43.2 
" style="fill: none; stroke: #000000; stroke-width: 0.8; stroke-linejoin: miter; stroke-linecap: square"/>
   </g>
   <g id="patch_14">
    <path d="M 777.6 320.4 
L 777.6 43.2 
" style="fill: none; stroke: #000000; stroke-width: 0.8; stroke-linejoin: miter; stroke-linecap: square"/>
   </g>
   <g id="patch_15">
    <path d="M 580.658824 320.4 
L 777.6 320.4 
" style="fill: none; stroke: #000000; stroke-width: 0.8; stroke-linejoin: miter; stroke-linecap: square"/>
   </g>
   <g id="patch_16">
    <path d="M 580.658824 43.2 
L 777.6 43.2 
" style="fill: none; stroke: #000000; stroke-width: 0.8; stroke-linejoin: miter; stroke-linecap: square"/>
   </g>
   <g id="text_40">
    <text style="font: 12px 'sans-serif'; text-anchor: middle" x="679.129412" y="37.2" transform="rotate(-0, 679.129412, 37.2)">kz-cut</text>
   </g>
  </g>
 </g>
 <defs>
  <clipPath id="pd3211debee">
   <rect x="108" y="43.2" width="196.941176" height="277.2"/>
  </clipPath>
  <clipPath id="pc6365aa742">
   <rect x="344.329412" y="43.2" width="196.941176" height="277.2"/>
  </clipPath>
  <clipPath id="p9ee141d1d8">
   <rect x="580.658824" y="43.2" width="196.941176" height="277.2"/>
  </clipPath>
 </defs>
</svg>
