<?xml version="1.0" encoding="utf-8" standalone="no"?>
<!DOCTYPE svg PUBLIC "-//W3C//DTD SVG 1.1//EN"
  "http://www.w3.org/Graphics/SVG/1.1/DTD/svg11.dtd">
<svg xmlns:xlink="http://www.w3.org/1999/xlink" width="864pt" height="360pt" viewBox="0 0 864 360" xmlns="http://www.w3.org/2000/svg" version="1.1">
 <metadata>
  <rdf:RDF xmlns:dc="http://purl.org/dc/elements/1.1/" xmlns:cc="http://creativecommons.org/ns#" xmlns:rdf="http://www.w3.org/1999/02/22-rdf-syntax-ns#">
   <cc:Work>
    <dc:type rdf:resource="http://purl.org/dc/dcmitype/StillImage"/>
    <dc:date>2022-04-04T19:45:46.244555</dc:date>
    <dc:format>image/svg+xml</dc:format>
    <dc:creator>
     <cc:Agent>
      <dc:title>Matplotlib v3.5.1, https://matplotlib.org/</dc:title>
     </cc:Agent>
    </dc:creator>
   </cc:Work>
  </rdf:RDF>
 </metadata>
 <defs>
  <style type="text/css">*{stroke-linejoin: round; stroke-linecap: butt}</style>
 </defs>
 <g id="figure_1">
  <g id="patch_1">
   <path d="M 0 360 
L 864 360 
L 864 0 
L 0 0 
z
" style="fill: #ffffff"/>
  </g>
  <g id="axes_1">
   <g id="patch_2">
    <path d="M 108 320.4 
L 304.941176 320.4 
L 304.941176 43.2 
L 108 43.2 
z
" style="fill: #ffffff"/>
   </g>
   <g id="matplotlib.axis_1">
    <g id="xtick_1">
     <g id="line2d_1">
      <defs>
       <path id="m6157544a09" d="M 0 0 
L 0 3.5 
" style="stroke: #000000; stroke-width: 0.8"/>
      </defs>
      <g>
       <use xlink:href="#m6157544a09" x="141.887429" y="320.4" style="stroke: #000000; stroke-width: 0.8"/>
      </g>
     </g>
     <g id="text_1">
      <text style="font: 10px 'sans-serif'; text-anchor: middle" x="141.887429" y="334.998438" transform="rotate(-0, 141.887429, 334.998438)">−0.1</text>
     </g>
    </g>
    <g id="xtick_2">
     <g id="line2d_2">
      <g>
       <use xlink:href="#m6157544a09" x="206.470588" y="320.4" style="stroke: #000000; stroke-width: 0.8"/>
      </g>
     </g>
     <g id="text_2">
      <text style="font: 10px 'sans-serif'; text-anchor: middle" x="206.470588" y="334.998438" transform="rotate(-0, 206.470588, 334.998438)">0.0</text>
     </g>
    </g>
    <g id="xtick_3">
     <g id="line2d_3">
      <g>
       <use xlink:href="#m6157544a09" x="271.053747" y="320.4" style="stroke: #000000; stroke-width: 0.8"/>
      </g>
     </g>
     <g id="text_3">
      <text style="font: 10px 'sans-serif'; text-anchor: middle" x="271.053747" y="334.998438" transform="rotate(-0, 271.053747, 334.998438)">0.1</text>
     </g>
    </g>
    <g id="text_4">
     <text style="font: 10px 'sans-serif'; text-anchor: middle" x="206.470588" y="348.676562" transform="rotate(-0, 206.470588, 348.676562)">kx</text>
    </g>
   </g>
   <g id="matplotlib.axis_2">
    <g id="ytick_1">
     <g id="line2d_4">
      <defs>
       <path id="m36d3e537ff" d="M 0 0 
L -3.5 0 
" style="stroke: #000000; stroke-width: 0.8"/>
      </defs>
      <g>
       <use xlink:href="#m36d3e537ff" x="108" y="320.4" style="stroke: #000000; stroke-width: 0.8"/>
      </g>
     </g>
     <g id="text_5">
      <text style="font: 10px 'sans-serif'; text-anchor: end" x="101" y="324.199219" transform="rotate(-0, 101, 324.199219)">−2.0</text>
     </g>
    </g>
    <g id="ytick_2">
     <g id="line2d_5">
      <g>
       <use xlink:href="#m36d3e537ff" x="108" y="280.8" style="stroke: #000000; stroke-width: 0.8"/>
      </g>
     </g>
     <g id="text_6">
      <text style="font: 10px 'sans-serif'; text-anchor: end" x="101" y="284.599219" transform="rotate(-0, 101, 284.599219)">−1.5</text>
     </g>
    </g>
    <g id="ytick_3">
     <g id="line2d_6">
      <g>
       <use xlink:href="#m36d3e537ff" x="108" y="241.2" style="stroke: #000000; stroke-width: 0.8"/>
      </g>
     </g>
     <g id="text_7">
      <text style="font: 10px 'sans-serif'; text-anchor: end" x="101" y="244.999219" transform="rotate(-0, 101, 244.999219)">−1.0</text>
     </g>
    </g>
    <g id="ytick_4">
     <g id="line2d_7">
      <g>
       <use xlink:href="#m36d3e537ff" x="108" y="201.6" style="stroke: #000000; stroke-width: 0.8"/>
      </g>
     </g>
     <g id="text_8">
      <text style="font: 10px 'sans-serif'; text-anchor: end" x="101" y="205.399219" transform="rotate(-0, 101, 205.399219)">−0.5</text>
     </g>
    </g>
    <g id="ytick_5">
     <g id="line2d_8">
      <g>
       <use xlink:href="#m36d3e537ff" x="108" y="162" style="stroke: #000000; stroke-width: 0.8"/>
      </g>
     </g>
     <g id="text_9">
      <text style="font: 10px 'sans-serif'; text-anchor: end" x="101" y="165.799219" transform="rotate(-0, 101, 165.799219)">0.0</text>
     </g>
    </g>
    <g id="ytick_6">
     <g id="line2d_9">
      <g>
       <use xlink:href="#m36d3e537ff" x="108" y="122.4" style="stroke: #000000; stroke-width: 0.8"/>
      </g>
     </g>
     <g id="text_10">
      <text style="font: 10px 'sans-serif'; text-anchor: end" x="101" y="126.199219" transform="rotate(-0, 101, 126.199219)">0.5</text>
     </g>
    </g>
    <g id="ytick_7">
     <g id="line2d_10">
      <g>
       <use xlink:href="#m36d3e537ff" x="108" y="82.8" style="stroke: #000000; stroke-width: 0.8"/>
      </g>
     </g>
     <g id="text_11">
      <text style="font: 10px 'sans-serif'; text-anchor: end" x="101" y="86.599219" transform="rotate(-0, 101, 86.599219)">1.0</text>
     </g>
    </g>
    <g id="ytick_8">
     <g id="line2d_11">
      <g>
       <use xlink:href="#m36d3e537ff" x="108" y="43.2" style="stroke: #000000; stroke-width: 0.8"/>
      </g>
     </g>
     <g id="text_12">
      <text style="font: 10px 'sans-serif'; text-anchor: end" x="101" y="46.999219" transform="rotate(-0, 101, 46.999219)">1.5</text>
     </g>
    </g>
    <g id="text_13">
     <text style="font: 10px 'sans-serif'; text-anchor: middle" x="70.6375" y="181.8" transform="rotate(-90, 70.6375, 181.8)">Energy</text>
    </g>
   </g>
   <g id="line2d_12">
    <path d="M 116.951872 288.569599 
L 118.742246 287.263037 
L 120.53262 285.969938 
L 122.322995 284.6907 
L 124.113369 283.425797 
L 125.903743 282.175783 
L 127.694118 280.941214 
L 129.484492 279.722484 
L 131.274866 278.520228 
L 133.065241 277.334921 
L 134.855615 276.167275 
L 136.645989 275.017766 
L 138.436364 273.886949 
L 140.226738 272.775535 
L 142.017112 271.68408 
L 143.807487 270.613138 
L 145.597861 269.563421 
L 147.388235 268.535563 
L 149.17861 267.53004 
L 150.968984 266.547722 
L 152.759358 265.589086 
L 154.549733 264.654763 
L 156.340107 263.745468 
L 158.130481 262.861754 
L 159.920856 262.004256 
L 161.71123 261.173606 
L 163.501604 260.37036 
L 165.291979 259.59515 
L 167.082353 258.848532 
L 168.872727 258.131059 
L 170.663102 257.443207 
L 172.453476 256.78561 
L 174.24385 256.158742 
L 176.034225 255.562999 
L 177.824599 254.998937 
L 179.614973 254.466871 
L 181.405348 253.967278 
L 183.195722 253.500552 
L 184.986096 253.067011 
L 186.776471 252.666893 
L 188.566845 252.300672 
L 190.357219 251.968507 
L 192.147594 251.670636 
L 193.937968 251.407296 
L 195.728342 251.178725 
L 197.518717 250.985002 
L 199.309091 250.826364 
L 201.099465 250.702812 
L 202.88984 250.614504 
L 204.680214 250.561519 
L 206.470588 250.543858 
L 208.260963 250.561519 
L 210.051337 250.614504 
L 211.841711 250.702812 
L 213.632086 250.826364 
L 215.42246 250.985002 
L 217.212834 251.178725 
L 219.003209 251.407296 
L 220.793583 251.670636 
L 222.583957 251.968507 
L 224.374332 252.300672 
L 226.164706 252.666893 
L 227.95508 253.067011 
L 229.745455 253.500552 
L 231.535829 253.967278 
L 233.326203 254.466871 
L 235.116578 254.998937 
L 236.906952 255.562999 
L 238.697326 256.158742 
L 240.487701 256.78561 
L 242.278075 257.443207 
L 244.068449 258.131059 
L 245.858824 258.848532 
L 247.649198 259.59515 
L 249.439572 260.37036 
L 251.229947 261.173606 
L 253.020321 262.004256 
L 254.810695 262.861754 
L 256.60107 263.745468 
L 258.391444 264.654763 
L 260.181818 265.589086 
L 261.972193 266.547722 
L 263.762567 267.53004 
L 265.552941 268.535563 
L 267.343316 269.563421 
L 269.13369 270.613138 
L 270.924064 271.68408 
L 272.714439 272.775535 
L 274.504813 273.886949 
L 276.295187 275.017766 
L 278.085561 276.167275 
L 279.875936 277.334921 
L 281.66631 278.520228 
L 283.456684 279.722484 
L 285.247059 280.941214 
L 287.037433 282.175783 
L 288.827807 283.425797 
L 290.618182 284.6907 
L 292.408556 285.969938 
L 294.19893 287.263037 
L 295.989305 288.569599 
" clip-path="url(#pbf1fd7494b)" style="fill: none; stroke: #2ca02c; stroke-width: 1.5; stroke-linecap: square"/>
   </g>
   <g id="line2d_13">
    <path d="M 116.951872 180.459516 
L 118.742246 180.224744 
L 120.53262 179.982012 
L 122.322995 179.731043 
L 124.113369 179.471583 
L 125.903743 179.203365 
L 127.694118 178.926125 
L 129.484492 178.639603 
L 131.274866 178.343538 
L 133.065241 178.037659 
L 134.855615 177.721731 
L 136.645989 177.395498 
L 138.436364 177.058732 
L 140.226738 176.711218 
L 142.017112 176.352751 
L 143.807487 175.983148 
L 145.597861 175.602259 
L 147.388235 175.20995 
L 149.17861 174.806125 
L 150.968984 174.390737 
L 152.759358 173.963762 
L 154.549733 173.525263 
L 156.340107 173.075328 
L 158.130481 172.614138 
L 159.920856 172.14194 
L 161.71123 171.659066 
L 163.501604 171.165974 
L 165.291979 170.663213 
L 167.082353 170.15147 
L 168.872727 169.631575 
L 170.663102 169.104536 
L 172.453476 168.571542 
L 174.24385 168.033993 
L 176.034225 167.493533 
L 177.824599 166.952071 
L 179.614973 166.411818 
L 181.405348 165.875315 
L 183.195722 165.345468 
L 184.986096 164.825581 
L 186.776471 164.319378 
L 188.566845 163.831018 
L 190.357219 163.365095 
L 192.147594 162.926609 
L 193.937968 162.520907 
L 195.728342 162.153572 
L 197.518717 161.830267 
L 199.309091 161.556519 
L 201.099465 161.33745 
L 202.88984 161.177485 
L 204.680214 161.080052 
L 206.470588 161.047325 
L 208.260963 161.080052 
L 210.051337 161.177485 
L 211.841711 161.33745 
L 213.632086 161.556519 
L 215.42246 161.830267 
L 217.212834 162.153572 
L 219.003209 162.520907 
L 220.793583 162.926609 
L 222.583957 163.365095 
L 224.374332 163.831018 
L 226.164706 164.319378 
L 227.95508 164.825581 
L 229.745455 165.345468 
L 231.535829 165.875315 
L 233.326203 166.411818 
L 235.116578 166.952071 
L 236.906952 167.493533 
L 238.697326 168.033993 
L 240.487701 168.571542 
L 242.278075 169.104536 
L 244.068449 169.631575 
L 245.858824 170.15147 
L 247.649198 170.663213 
L 249.439572 171.165974 
L 251.229947 171.659066 
L 253.020321 172.14194 
L 254.810695 172.614138 
L 256.60107 173.075328 
L 258.391444 173.525263 
L 260.181818 173.963762 
L 261.972193 174.390737 
L 263.762567 174.806125 
L 265.552941 175.20995 
L 267.343316 175.602259 
L 269.13369 175.983148 
L 270.924064 176.352751 
L 272.714439 176.711218 
L 274.504813 177.058732 
L 276.295187 177.395498 
L 278.085561 177.721731 
L 279.875936 178.037659 
L 281.66631 178.343538 
L 283.456684 178.639603 
L 285.247059 178.926125 
L 287.037433 179.203365 
L 288.827807 179.471583 
L 290.618182 179.731043 
L 292.408556 179.982012 
L 294.19893 180.224744 
L 295.989305 180.459516 
" clip-path="url(#pbf1fd7494b)" style="fill: none; stroke: #9467bd; stroke-width: 1.5; stroke-linecap: square"/>
   </g>
   <g id="line2d_14">
    <path d="M 116.951872 86.603873 
L 118.742246 86.603873 
L 120.53262 86.603873 
L 122.322995 86.603881 
L 124.113369 86.603889 
L 125.903743 86.603897 
L 127.694118 86.603913 
L 129.484492 86.60396 
L 131.274866 86.605718 
L 133.065241 88.014227 
L 134.855615 89.497778 
L 136.645989 90.973519 
L 138.436364 92.441048 
L 140.226738 93.899991 
L 142.017112 95.349929 
L 143.807487 96.790442 
L 145.597861 98.221048 
L 147.388235 99.641262 
L 149.17861 101.050531 
L 150.968984 102.448292 
L 152.759358 103.833912 
L 154.549733 105.20671 
L 156.340107 106.565964 
L 158.130481 107.910875 
L 159.920856 109.240564 
L 161.71123 110.554088 
L 163.501604 111.85041 
L 165.291979 113.128381 
L 167.082353 114.38675 
L 168.872727 115.624123 
L 170.663102 116.838956 
L 172.453476 118.029546 
L 174.24385 119.193984 
L 176.034225 120.330163 
L 177.824599 121.435724 
L 179.614973 122.508021 
L 181.405348 123.544107 
L 183.195722 124.540705 
L 184.986096 125.494154 
L 186.776471 126.400416 
L 188.566845 127.255031 
L 190.357219 128.05313 
L 192.147594 128.789468 
L 193.937968 129.458486 
L 195.728342 130.054419 
L 197.518717 130.57142 
L 199.309091 131.003837 
L 201.099465 131.346432 
L 202.88984 131.594692 
L 204.680214 131.745125 
L 206.470588 131.795528 
L 208.260963 131.745125 
L 210.051337 131.594692 
L 211.841711 131.346432 
L 213.632086 131.003837 
L 215.42246 130.57142 
L 217.212834 130.054419 
L 219.003209 129.458486 
L 220.793583 128.789468 
L 222.583957 128.05313 
L 224.374332 127.255031 
L 226.164706 126.400416 
L 227.95508 125.494154 
L 229.745455 124.540705 
L 231.535829 123.544107 
L 233.326203 122.508021 
L 235.116578 121.435724 
L 236.906952 120.330163 
L 238.697326 119.193984 
L 240.487701 118.029546 
L 242.278075 116.838956 
L 244.068449 115.624123 
L 245.858824 114.38675 
L 247.649198 113.128381 
L 249.439572 111.85041 
L 251.229947 110.554088 
L 253.020321 109.240564 
L 254.810695 107.910875 
L 256.60107 106.565964 
L 258.391444 105.20671 
L 260.181818 103.833912 
L 261.972193 102.448292 
L 263.762567 101.050531 
L 265.552941 99.641262 
L 267.343316 98.221048 
L 269.13369 96.790442 
L 270.924064 95.349929 
L 272.714439 93.899991 
L 274.504813 92.441048 
L 276.295187 90.973519 
L 278.085561 89.497778 
L 279.875936 88.014227 
L 281.66631 86.605718 
L 283.456684 86.60396 
L 285.247059 86.603913 
L 287.037433 86.603897 
L 288.827807 86.603889 
L 290.618182 86.603881 
L 292.408556 86.603873 
L 294.19893 86.603873 
L 295.989305 86.603873 
" clip-path="url(#pbf1fd7494b)" style="fill: none; stroke: #e377c2; stroke-width: 1.5; stroke-linecap: square"/>
   </g>
   <g id="line2d_15">
    <path d="M 116.951872 74.357597 
L 118.742246 75.898908 
L 120.53262 77.434754 
L 122.322995 78.964978 
L 124.113369 80.489261 
L 125.903743 82.007525 
L 127.694118 83.519366 
L 129.484492 85.024562 
L 131.274866 86.521133 
L 133.065241 86.603754 
L 134.855615 86.60381 
L 136.645989 86.603833 
L 138.436364 86.603841 
L 140.226738 86.603849 
L 142.017112 86.603849 
L 143.807487 86.603849 
L 145.597861 86.603857 
L 147.388235 86.603857 
L 149.17861 86.603857 
L 150.968984 86.603857 
L 152.759358 86.603865 
L 154.549733 86.603865 
L 156.340107 86.603865 
L 158.130481 86.603865 
L 159.920856 86.603865 
L 161.71123 86.603865 
L 163.501604 86.603865 
L 165.291979 86.603865 
L 167.082353 86.603865 
L 168.872727 86.603865 
L 170.663102 86.603873 
L 172.453476 86.603873 
L 174.24385 86.603873 
L 176.034225 86.603873 
L 177.824599 86.603873 
L 179.614973 86.603873 
L 181.405348 86.603873 
L 183.195722 86.603873 
L 184.986096 86.603873 
L 186.776471 86.603873 
L 188.566845 86.603873 
L 190.357219 86.603873 
L 192.147594 86.603873 
L 193.937968 86.603873 
L 195.728342 86.603873 
L 197.518717 86.603873 
L 199.309091 86.603873 
L 201.099465 86.603873 
L 202.88984 86.603873 
L 204.680214 86.603873 
L 206.470588 86.603873 
L 208.260963 86.603873 
L 210.051337 86.603873 
L 211.841711 86.603873 
L 213.632086 86.603873 
L 215.42246 86.603873 
L 217.212834 86.603873 
L 219.003209 86.603873 
L 220.793583 86.603873 
L 222.583957 86.603873 
L 224.374332 86.603873 
L 226.164706 86.603873 
L 227.95508 86.603873 
L 229.745455 86.603873 
L 231.535829 86.603873 
L 233.326203 86.603873 
L 235.116578 86.603873 
L 236.906952 86.603873 
L 238.697326 86.603873 
L 240.487701 86.603873 
L 242.278075 86.603873 
L 244.068449 86.603865 
L 245.858824 86.603865 
L 247.649198 86.603865 
L 249.439572 86.603865 
L 251.229947 86.603865 
L 253.020321 86.603865 
L 254.810695 86.603865 
L 256.60107 86.603865 
L 258.391444 86.603865 
L 260.181818 86.603865 
L 261.972193 86.603857 
L 263.762567 86.603857 
L 265.552941 86.603857 
L 267.343316 86.603857 
L 269.13369 86.603849 
L 270.924064 86.603849 
L 272.714439 86.603849 
L 274.504813 86.603841 
L 276.295187 86.603833 
L 278.085561 86.60381 
L 279.875936 86.603754 
L 281.66631 86.521133 
L 283.456684 85.024562 
L 285.247059 83.519366 
L 287.037433 82.007525 
L 288.827807 80.489261 
L 290.618182 78.964978 
L 292.408556 77.434754 
L 294.19893 75.898908 
L 295.989305 74.357597 
" clip-path="url(#pbf1fd7494b)" style="fill: none; stroke: #bcbd22; stroke-width: 1.5; stroke-linecap: square"/>
   </g>
   <g id="patch_3">
    <path d="M 108 320.4 
L 108 43.2 
" style="fill: none; stroke: #000000; stroke-width: 0.8; stroke-linejoin: miter; stroke-linecap: square"/>
   </g>
   <g id="patch_4">
    <path d="M 304.941176 320.4 
L 304.941176 43.2 
" style="fill: none; stroke: #000000; stroke-width: 0.8; stroke-linejoin: miter; stroke-linecap: square"/>
   </g>
   <g id="patch_5">
    <path d="M 108 320.4 
L 304.941176 320.4 
" style="fill: none; stroke: #000000; stroke-width: 0.8; stroke-linejoin: miter; stroke-linecap: square"/>
   </g>
   <g id="patch_6">
    <path d="M 108 43.2 
L 304.941176 43.2 
" style="fill: none; stroke: #000000; stroke-width: 0.8; stroke-linejoin: miter; stroke-linecap: square"/>
   </g>
   <g id="text_14">
    <text style="font: 12px 'sans-serif'; text-anchor: middle" x="206.470588" y="37.2" transform="rotate(-0, 206.470588, 37.2)">kx-cut</text>
   </g>
  </g>
  <g id="axes_2">
   <g id="patch_7">
    <path d="M 344.329412 320.4 
L 541.270588 320.4 
L 541.270588 43.2 
L 344.329412 43.2 
z
" style="fill: #ffffff"/>
   </g>
   <g id="matplotlib.axis_3">
    <g id="xtick_4">
     <g id="line2d_16">
      <g>
       <use xlink:href="#m6157544a09" x="378.216841" y="320.4" style="stroke: #000000; stroke-width: 0.8"/>
      </g>
     </g>
     <g id="text_15">
      <text style="font: 10px 'sans-serif'; text-anchor: middle" x="378.216841" y="334.998438" transform="rotate(-0, 378.216841, 334.998438)">−0.1</text>
     </g>
    </g>
    <g id="xtick_5">
     <g id="line2d_17">
      <g>
       <use xlink:href="#m6157544a09" x="442.8" y="320.4" style="stroke: #000000; stroke-width: 0.8"/>
      </g>
     </g>
     <g id="text_16">
      <text style="font: 10px 'sans-serif'; text-anchor: middle" x="442.8" y="334.998438" transform="rotate(-0, 442.8, 334.998438)">0.0</text>
     </g>
    </g>
    <g id="xtick_6">
     <g id="line2d_18">
      <g>
       <use xlink:href="#m6157544a09" x="507.383159" y="320.4" style="stroke: #000000; stroke-width: 0.8"/>
      </g>
     </g>
     <g id="text_17">
      <text style="font: 10px 'sans-serif'; text-anchor: middle" x="507.383159" y="334.998438" transform="rotate(-0, 507.383159, 334.998438)">0.1</text>
     </g>
    </g>
    <g id="text_18">
     <text style="font: 10px 'sans-serif'; text-anchor: middle" x="442.8" y="348.676562" transform="rotate(-0, 442.8, 348.676562)">ky</text>
    </g>
   </g>
   <g id="matplotlib.axis_4">
    <g id="ytick_9">
     <g id="line2d_19">
      <g>
       <use xlink:href="#m36d3e537ff" x="344.329412" y="320.4" style="stroke: #000000; stroke-width: 0.8"/>
      </g>
     </g>
     <g id="text_19">
      <text style="font: 10px 'sans-serif'; text-anchor: end" x="337.329412" y="324.199219" transform="rotate(-0, 337.329412, 324.199219)">−2.0</text>
     </g>
    </g>
    <g id="ytick_10">
     <g id="line2d_20">
      <g>
       <use xlink:href="#m36d3e537ff" x="344.329412" y="280.8" style="stroke: #000000; stroke-width: 0.8"/>
      </g>
     </g>
     <g id="text_20">
      <text style="font: 10px 'sans-serif'; text-anchor: end" x="337.329412" y="284.599219" transform="rotate(-0, 337.329412, 284.599219)">−1.5</text>
     </g>
    </g>
    <g id="ytick_11">
     <g id="line2d_21">
      <g>
       <use xlink:href="#m36d3e537ff" x="344.329412" y="241.2" style="stroke: #000000; stroke-width: 0.8"/>
      </g>
     </g>
     <g id="text_21">
      <text style="font: 10px 'sans-serif'; text-anchor: end" x="337.329412" y="244.999219" transform="rotate(-0, 337.329412, 244.999219)">−1.0</text>
     </g>
    </g>
    <g id="ytick_12">
     <g id="line2d_22">
      <g>
       <use xlink:href="#m36d3e537ff" x="344.329412" y="201.6" style="stroke: #000000; stroke-width: 0.8"/>
      </g>
     </g>
     <g id="text_22">
      <text style="font: 10px 'sans-serif'; text-anchor: end" x="337.329412" y="205.399219" transform="rotate(-0, 337.329412, 205.399219)">−0.5</text>
     </g>
    </g>
    <g id="ytick_13">
     <g id="line2d_23">
      <g>
       <use xlink:href="#m36d3e537ff" x="344.329412" y="162" style="stroke: #000000; stroke-width: 0.8"/>
      </g>
     </g>
     <g id="text_23">
      <text style="font: 10px 'sans-serif'; text-anchor: end" x="337.329412" y="165.799219" transform="rotate(-0, 337.329412, 165.799219)">0.0</text>
     </g>
    </g>
    <g id="ytick_14">
     <g id="line2d_24">
      <g>
       <use xlink:href="#m36d3e537ff" x="344.329412" y="122.4" style="stroke: #000000; stroke-width: 0.8"/>
      </g>
     </g>
     <g id="text_24">
      <text style="font: 10px 'sans-serif'; text-anchor: end" x="337.329412" y="126.199219" transform="rotate(-0, 337.329412, 126.199219)">0.5</text>
     </g>
    </g>
    <g id="ytick_15">
     <g id="line2d_25">
      <g>
       <use xlink:href="#m36d3e537ff" x="344.329412" y="82.8" style="stroke: #000000; stroke-width: 0.8"/>
      </g>
     </g>
     <g id="text_25">
      <text style="font: 10px 'sans-serif'; text-anchor: end" x="337.329412" y="86.599219" transform="rotate(-0, 337.329412, 86.599219)">1.0</text>
     </g>
    </g>
    <g id="ytick_16">
     <g id="line2d_26">
      <g>
       <use xlink:href="#m36d3e537ff" x="344.329412" y="43.2" style="stroke: #000000; stroke-width: 0.8"/>
      </g>
     </g>
     <g id="text_26">
      <text style="font: 10px 'sans-serif'; text-anchor: end" x="337.329412" y="46.999219" transform="rotate(-0, 337.329412, 46.999219)">1.5</text>
     </g>
    </g>
   </g>
   <g id="line2d_27">
    <path d="M 353.281283 288.554551 
L 355.071658 287.248622 
L 356.862032 285.955999 
L 358.652406 284.677315 
L 360.442781 283.412966 
L 362.233155 282.163507 
L 364.023529 280.929413 
L 365.813904 279.711238 
L 367.604278 278.509457 
L 369.394652 277.324783 
L 371.185027 276.157613 
L 372.975401 275.008579 
L 374.765775 273.878316 
L 376.55615 272.767378 
L 378.346524 271.676318 
L 380.136898 270.60593 
L 381.927273 269.55661 
L 383.717647 268.529148 
L 385.508021 267.524179 
L 387.298396 266.542258 
L 389.08877 265.584017 
L 390.879144 264.65009 
L 392.669519 263.741112 
L 394.459893 262.857794 
L 396.250267 262.000692 
L 398.040642 261.170359 
L 399.831016 260.36743 
L 401.62139 259.592537 
L 403.411765 258.846156 
L 405.202139 258.129 
L 406.992513 257.441465 
L 408.782888 256.784105 
L 410.573262 256.157395 
L 412.363636 255.56189 
L 414.154011 254.997986 
L 415.944385 254.466079 
L 417.734759 253.966644 
L 419.525134 253.499998 
L 421.315508 253.066536 
L 423.105882 252.666576 
L 424.896257 252.300434 
L 426.686631 251.968349 
L 428.477005 251.670478 
L 430.26738 251.407217 
L 432.057754 251.178646 
L 433.848128 250.985002 
L 435.638503 250.826364 
L 437.428877 250.702812 
L 439.219251 250.614504 
L 441.009626 250.561519 
L 442.8 250.543858 
L 444.590374 250.561519 
L 446.380749 250.614504 
L 448.171123 250.702812 
L 449.961497 250.826364 
L 451.751872 250.985081 
L 453.542246 251.178804 
L 455.33262 251.407375 
L 457.122995 251.670794 
L 458.913369 251.968666 
L 460.703743 252.30091 
L 462.494118 252.667289 
L 464.284492 253.067407 
L 466.074866 253.501106 
L 467.865241 253.96799 
L 469.655615 254.467663 
L 471.445989 254.999887 
L 473.236364 255.564187 
L 475.026738 256.160088 
L 476.817112 256.787194 
L 478.607487 257.445029 
L 480.397861 258.133039 
L 482.188235 258.850829 
L 483.97861 259.597764 
L 485.768984 260.373211 
L 487.559358 261.176774 
L 489.349733 262.00782 
L 491.140107 262.865635 
L 492.930481 263.749745 
L 494.720856 264.659436 
L 496.51123 265.594154 
L 498.301604 266.553187 
L 500.091979 267.53598 
L 501.882353 268.541899 
L 503.672727 269.570232 
L 505.463102 270.620424 
L 507.253476 271.691762 
L 509.04385 272.783772 
L 510.834225 273.895661 
L 512.624599 275.026954 
L 514.414973 276.176938 
L 516.205348 277.345138 
L 517.995722 278.53092 
L 519.786096 279.73373 
L 521.576471 280.952935 
L 523.366845 282.188138 
L 525.157219 283.438627 
L 526.947594 284.704085 
L 528.737968 285.983878 
L 530.528342 287.27753 
L 532.318717 288.584568 
" clip-path="url(#pcf41e930cd)" style="fill: none; stroke: #2ca02c; stroke-width: 1.5; stroke-linecap: square"/>
   </g>
   <g id="line2d_28">
    <path d="M 353.281283 180.489826 
L 355.071658 180.254048 
L 356.862032 180.01031 
L 358.652406 179.758343 
L 360.442781 179.497886 
L 362.233155 179.228685 
L 364.023529 178.950471 
L 365.813904 178.662975 
L 367.604278 178.365936 
L 369.394652 178.059099 
L 371.185027 177.74222 
L 372.975401 177.415052 
L 374.765775 177.077359 
L 376.55615 176.728927 
L 378.346524 176.369557 
L 380.136898 175.999059 
L 381.927273 175.617292 
L 383.717647 175.224119 
L 385.508021 174.819455 
L 387.298396 174.403227 
L 389.08877 173.975452 
L 390.879144 173.536153 
L 392.669519 173.08545 
L 394.459893 172.623508 
L 396.250267 172.150581 
L 398.040642 171.667009 
L 399.831016 171.173245 
L 401.62139 170.669826 
L 403.411765 170.157457 
L 405.202139 169.636964 
L 406.992513 169.109355 
L 408.782888 168.57582 
L 410.573262 168.037761 
L 412.363636 167.496822 
L 414.154011 166.954914 
L 415.944385 166.414245 
L 417.734759 165.87736 
L 419.525134 165.347166 
L 421.315508 164.826966 
L 423.105882 164.320483 
L 424.896257 163.831878 
L 426.686631 163.365743 
L 428.477005 162.927079 
L 430.26738 162.521231 
L 432.057754 162.153782 
L 433.848128 161.830392 
L 435.638503 161.556584 
L 437.428877 161.337478 
L 439.219251 161.177493 
L 441.009626 161.080053 
L 442.8 161.047325 
L 444.590374 161.080051 
L 446.380749 161.177476 
L 448.171123 161.337422 
L 449.961497 161.556453 
L 451.751872 161.830142 
L 453.542246 162.153362 
L 455.33262 162.520582 
L 457.122995 162.926139 
L 458.913369 163.364447 
L 460.703743 163.830158 
L 462.494118 164.318273 
L 464.284492 164.824197 
L 466.074866 165.343769 
L 467.865241 165.873267 
L 469.655615 166.40939 
L 471.445989 166.949229 
L 473.236364 167.490243 
L 475.026738 168.030224 
L 476.817112 168.567262 
L 478.607487 169.099717 
L 480.397861 169.626186 
L 482.188235 170.145482 
L 483.97861 170.6566 
L 485.768984 171.158712 
L 487.559358 171.651122 
L 489.349733 172.133292 
L 491.140107 172.604761 
L 492.930481 173.065206 
L 494.720856 173.514365 
L 496.51123 173.95208 
L 498.301604 174.378239 
L 500.091979 174.792796 
L 501.882353 175.195773 
L 503.672727 175.587227 
L 505.463102 175.967237 
L 507.253476 176.335944 
L 509.04385 176.693509 
L 510.834225 177.040104 
L 512.624599 177.375943 
L 514.414973 177.701234 
L 516.205348 178.016212 
L 517.995722 178.321132 
L 519.786096 178.616239 
L 521.576471 178.901787 
L 523.366845 179.178044 
L 525.157219 179.445273 
L 526.947594 179.703734 
L 528.737968 179.953705 
L 530.528342 180.195448 
L 532.318717 180.429214 
" clip-path="url(#pcf41e930cd)" style="fill: none; stroke: #9467bd; stroke-width: 1.5; stroke-linecap: square"/>
   </g>
   <g id="line2d_29">
    <path d="M 353.281283 86.603873 
L 355.071658 86.603873 
L 356.862032 86.603873 
L 358.652406 86.603881 
L 360.442781 86.603889 
L 362.233155 86.603897 
L 364.023529 86.603913 
L 365.813904 86.60396 
L 367.604278 86.605497 
L 369.394652 88.002989 
L 371.185027 89.486975 
L 372.975401 90.963144 
L 374.765775 92.431108 
L 376.55615 93.890479 
L 378.346524 95.340853 
L 380.136898 96.781778 
L 381.927273 98.212811 
L 383.717647 99.633429 
L 385.508021 101.04311 
L 387.298396 102.441275 
L 389.08877 103.827291 
L 390.879144 105.200484 
L 392.669519 106.560127 
L 394.459893 107.90541 
L 396.250267 109.235479 
L 398.040642 110.549367 
L 399.831016 111.846046 
L 401.62139 113.124365 
L 403.411765 114.383075 
L 405.202139 115.620773 
L 406.992513 116.835923 
L 408.782888 118.026822 
L 410.573262 119.19156 
L 412.363636 120.328025 
L 414.154011 121.433847 
L 415.944385 122.506397 
L 417.734759 123.542721 
L 419.525134 124.53954 
L 421.315508 125.493196 
L 423.105882 126.39964 
L 424.896257 127.254421 
L 426.686631 128.052662 
L 428.477005 128.789127 
L 430.26738 129.458256 
L 432.057754 130.05426 
L 433.848128 130.571325 
L 435.638503 131.003789 
L 437.428877 131.346408 
L 439.219251 131.594684 
L 441.009626 131.745125 
L 442.8 131.795528 
L 444.590374 131.745125 
L 446.380749 131.5947 
L 448.171123 131.346456 
L 449.961497 131.003884 
L 451.751872 130.571515 
L 453.542246 130.054569 
L 455.33262 129.458724 
L 457.122995 128.789808 
L 458.913369 128.053589 
L 460.703743 127.255633 
L 462.494118 126.401192 
L 464.284492 125.495112 
L 466.074866 124.541861 
L 467.865241 123.545485 
L 469.655615 122.509637 
L 471.445989 121.437601 
L 473.236364 120.33231 
L 475.026738 119.196408 
L 476.817112 118.032263 
L 478.607487 116.841982 
L 480.397861 115.627465 
L 482.188235 114.390425 
L 483.97861 113.132396 
L 485.768984 111.854773 
L 487.559358 110.558808 
L 489.349733 109.245648 
L 491.140107 107.916332 
L 492.930481 106.571809 
L 494.720856 105.212943 
L 496.51123 103.840533 
L 498.301604 102.45531 
L 500.091979 101.05796 
L 501.882353 99.649095 
L 503.672727 98.229293 
L 505.463102 96.799107 
L 507.253476 95.359021 
L 509.04385 93.909503 
L 510.834225 92.450987 
L 512.624599 90.983894 
L 514.414973 89.508588 
L 516.205348 88.025473 
L 517.995722 86.606011 
L 519.786096 86.60396 
L 521.576471 86.603913 
L 523.366845 86.603897 
L 525.157219 86.603889 
L 526.947594 86.603881 
L 528.737968 86.603873 
L 530.528342 86.603873 
L 532.318717 86.603873 
" clip-path="url(#pcf41e930cd)" style="fill: none; stroke: #e377c2; stroke-width: 1.5; stroke-linecap: square"/>
   </g>
   <g id="line2d_30">
    <path d="M 353.281283 74.342311 
L 355.071658 75.884098 
L 356.862032 77.42034 
L 358.652406 78.951038 
L 360.442781 80.475797 
L 362.233155 81.994457 
L 364.023529 83.506789 
L 365.813904 85.012428 
L 367.604278 86.509673 
L 369.394652 86.603754 
L 371.185027 86.60381 
L 372.975401 86.603833 
L 374.765775 86.603841 
L 376.55615 86.603849 
L 378.346524 86.603849 
L 380.136898 86.603849 
L 381.927273 86.603857 
L 383.717647 86.603857 
L 385.508021 86.603857 
L 387.298396 86.603857 
L 389.08877 86.603865 
L 390.879144 86.603865 
L 392.669519 86.603865 
L 394.459893 86.603865 
L 396.250267 86.603865 
L 398.040642 86.603865 
L 399.831016 86.603865 
L 401.62139 86.603865 
L 403.411765 86.603865 
L 405.202139 86.603865 
L 406.992513 86.603873 
L 408.782888 86.603873 
L 410.573262 86.603873 
L 412.363636 86.603873 
L 414.154011 86.603873 
L 415.944385 86.603873 
L 417.734759 86.603873 
L 419.525134 86.603873 
L 421.315508 86.603873 
L 423.105882 86.603873 
L 424.896257 86.603873 
L 426.686631 86.603873 
L 428.477005 86.603873 
L 430.26738 86.603873 
L 432.057754 86.603873 
L 433.848128 86.603873 
L 435.638503 86.603873 
L 437.428877 86.603873 
L 439.219251 86.603873 
L 441.009626 86.603873 
L 442.8 86.603873 
L 444.590374 86.603873 
L 446.380749 86.603873 
L 448.171123 86.603873 
L 449.961497 86.603873 
L 451.751872 86.603873 
L 453.542246 86.603873 
L 455.33262 86.603873 
L 457.122995 86.603873 
L 458.913369 86.603873 
L 460.703743 86.603873 
L 462.494118 86.603873 
L 464.284492 86.603873 
L 466.074866 86.603873 
L 467.865241 86.603873 
L 469.655615 86.603873 
L 471.445989 86.603873 
L 473.236364 86.603873 
L 475.026738 86.603873 
L 476.817112 86.603873 
L 478.607487 86.603873 
L 480.397861 86.603865 
L 482.188235 86.603865 
L 483.97861 86.603865 
L 485.768984 86.603865 
L 487.559358 86.603865 
L 489.349733 86.603865 
L 491.140107 86.603865 
L 492.930481 86.603865 
L 494.720856 86.603865 
L 496.51123 86.603865 
L 498.301604 86.603857 
L 500.091979 86.603857 
L 501.882353 86.603857 
L 503.672727 86.603857 
L 505.463102 86.603849 
L 507.253476 86.603849 
L 509.04385 86.603849 
L 510.834225 86.603841 
L 512.624599 86.603833 
L 514.414973 86.60381 
L 516.205348 86.603754 
L 517.995722 86.53253 
L 519.786096 85.036695 
L 521.576471 83.531951 
L 523.366845 82.020514 
L 525.157219 80.502804 
L 526.947594 78.978917 
L 528.737968 77.449169 
L 530.528342 75.913718 
L 532.318717 74.372882 
" clip-path="url(#pcf41e930cd)" style="fill: none; stroke: #bcbd22; stroke-width: 1.5; stroke-linecap: square"/>
   </g>
   <g id="patch_8">
    <path d="M 344.329412 320.4 
L 344.329412 43.2 
" style="fill: none; stroke: #000000; stroke-width: 0.8; stroke-linejoin: miter; stroke-linecap: square"/>
   </g>
   <g id="patch_9">
    <path d="M 541.270588 320.4 
L 541.270588 43.2 
" style="fill: none; stroke: #000000; stroke-width: 0.8; stroke-linejoin: miter; stroke-linecap: square"/>
   </g>
   <g id="patch_10">
    <path d="M 344.329412 320.4 
L 541.270588 320.4 
" style="fill: none; stroke: #000000; stroke-width: 0.8; stroke-linejoin: miter; stroke-linecap: square"/>
   </g>
   <g id="patch_11">
    <path d="M 344.329412 43.2 
L 541.270588 43.2 
" style="fill: none; stroke: #000000; stroke-width: 0.8; stroke-linejoin: miter; stroke-linecap: square"/>
   </g>
   <g id="text_27">
    <text style="font: 12px 'sans-serif'; text-anchor: middle" x="442.8" y="37.2" transform="rotate(-0, 442.8, 37.2)">ky-cut</text>
   </g>
  </g>
  <g id="axes_3">
   <g id="patch_12">
    <path d="M 580.658824 320.4 
L 777.6 320.4 
L 777.6 43.2 
L 580.658824 43.2 
z
" style="fill: #ffffff"/>
   </g>
   <g id="matplotlib.axis_5">
    <g id="xtick_7">
     <g id="line2d_31">
      <g>
       <use xlink:href="#m6157544a09" x="614.546253" y="320.4" style="stroke: #000000; stroke-width: 0.8"/>
      </g>
     </g>
     <g id="text_28">
      <text style="font: 10px 'sans-serif'; text-anchor: middle" x="614.546253" y="334.998438" transform="rotate(-0, 614.546253, 334.998438)">−0.1</text>
     </g>
    </g>
    <g id="xtick_8">
     <g id="line2d_32">
      <g>
       <use xlink:href="#m6157544a09" x="679.129412" y="320.4" style="stroke: #000000; stroke-width: 0.8"/>
      </g>
     </g>
     <g id="text_29">
      <text style="font: 10px 'sans-serif'; text-anchor: middle" x="679.129412" y="334.998438" transform="rotate(-0, 679.129412, 334.998438)">0.0</text>
     </g>
    </g>
    <g id="xtick_9">
     <g id="line2d_33">
      <g>
       <use xlink:href="#m6157544a09" x="743.712571" y="320.4" style="stroke: #000000; stroke-width: 0.8"/>
      </g>
     </g>
     <g id="text_30">
      <text style="font: 10px 'sans-serif'; text-anchor: middle" x="743.712571" y="334.998438" transform="rotate(-0, 743.712571, 334.998438)">0.1</text>
     </g>
    </g>
    <g id="text_31">
     <text style="font: 10px 'sans-serif'; text-anchor: middle" x="679.129412" y="348.676562" transform="rotate(-0, 679.129412, 348.676562)">kz</text>
    </g>
   </g>
   <g id="matplotlib.axis_6">
    <g id="ytick_17">
     <g id="line2d_34">
      <g>
       <use xlink:href="#m36d3e537ff" x="580.658824" y="320.4" style="stroke: #000000; stroke-width: 0.8"/>
      </g>
     </g>
     <g id="text_32">
      <text style="font: 10px 'sans-serif'; text-anchor: end" x="573.658824" y="324.199219" transform="rotate(-0, 573.658824, 324.199219)">−2.0</text>
     </g>
    </g>
    <g id="ytick_18">
     <g id="line2d_35">
      <g>
       <use xlink:href="#m36d3e537ff" x="580.658824" y="280.8" style="stroke: #000000; stroke-width: 0.8"/>
      </g>
     </g>
     <g id="text_33">
      <text style="font: 10px 'sans-serif'; text-anchor: end" x="573.658824" y="284.599219" transform="rotate(-0, 573.658824, 284.599219)">−1.5</text>
     </g>
    </g>
    <g id="ytick_19">
     <g id="line2d_36">
      <g>
       <use xlink:href="#m36d3e537ff" x="580.658824" y="241.2" style="stroke: #000000; stroke-width: 0.8"/>
      </g>
     </g>
     <g id="text_34">
      <text style="font: 10px 'sans-serif'; text-anchor: end" x="573.658824" y="244.999219" transform="rotate(-0, 573.658824, 244.999219)">−1.0</text>
     </g>
    </g>
    <g id="ytick_20">
     <g id="line2d_37">
      <g>
       <use xlink:href="#m36d3e537ff" x="580.658824" y="201.6" style="stroke: #000000; stroke-width: 0.8"/>
      </g>
     </g>
     <g id="text_35">
      <text style="font: 10px 'sans-serif'; text-anchor: end" x="573.658824" y="205.399219" transform="rotate(-0, 573.658824, 205.399219)">−0.5</text>
     </g>
    </g>
    <g id="ytick_21">
     <g id="line2d_38">
      <g>
       <use xlink:href="#m36d3e537ff" x="580.658824" y="162" style="stroke: #000000; stroke-width: 0.8"/>
      </g>
     </g>
     <g id="text_36">
      <text style="font: 10px 'sans-serif'; text-anchor: end" x="573.658824" y="165.799219" transform="rotate(-0, 573.658824, 165.799219)">0.0</text>
     </g>
    </g>
    <g id="ytick_22">
     <g id="line2d_39">
      <g>
       <use xlink:href="#m36d3e537ff" x="580.658824" y="122.4" style="stroke: #000000; stroke-width: 0.8"/>
      </g>
     </g>
     <g id="text_37">
      <text style="font: 10px 'sans-serif'; text-anchor: end" x="573.658824" y="126.199219" transform="rotate(-0, 573.658824, 126.199219)">0.5</text>
     </g>
    </g>
    <g id="ytick_23">
     <g id="line2d_40">
      <g>
       <use xlink:href="#m36d3e537ff" x="580.658824" y="82.8" style="stroke: #000000; stroke-width: 0.8"/>
      </g>
     </g>
     <g id="text_38">
      <text style="font: 10px 'sans-serif'; text-anchor: end" x="573.658824" y="86.599219" transform="rotate(-0, 573.658824, 86.599219)">1.0</text>
     </g>
    </g>
    <g id="ytick_24">
     <g id="line2d_41">
      <g>
       <use xlink:href="#m36d3e537ff" x="580.658824" y="43.2" style="stroke: #000000; stroke-width: 0.8"/>
      </g>
     </g>
     <g id="text_39">
      <text style="font: 10px 'sans-serif'; text-anchor: end" x="573.658824" y="46.999219" transform="rotate(-0, 573.658824, 46.999219)">1.5</text>
     </g>
    </g>
   </g>
   <g id="line2d_42">
    <path d="M 589.610695 250.543858 
L 591.40107 250.543858 
L 593.191444 250.543858 
L 594.981818 250.543858 
L 596.772193 250.543858 
L 598.562567 250.543858 
L 600.352941 250.543858 
L 602.143316 250.543858 
L 603.93369 250.543858 
L 605.724064 250.543858 
L 607.514439 250.543858 
L 609.304813 250.543858 
L 611.095187 250.543858 
L 612.885561 250.543858 
L 614.675936 250.543858 
L 616.46631 250.543858 
L 618.256684 250.543858 
L 620.047059 250.543858 
L 621.837433 250.543858 
L 623.627807 250.543858 
L 625.418182 250.543858 
L 627.208556 250.543858 
L 628.99893 250.543858 
L 630.789305 250.543858 
L 632.579679 250.543858 
L 634.370053 250.543858 
L 636.160428 250.543858 
L 637.950802 250.543858 
L 639.741176 250.543858 
L 641.531551 250.543858 
L 643.321925 250.543858 
L 645.112299 250.543858 
L 646.902674 250.543858 
L 648.693048 250.543858 
L 650.483422 250.543858 
L 652.273797 250.543858 
L 654.064171 250.543858 
L 655.854545 250.543858 
L 657.64492 250.543858 
L 659.435294 250.543858 
L 661.225668 250.543858 
L 663.016043 250.543858 
L 664.806417 250.543858 
L 666.596791 250.543858 
L 668.387166 250.543858 
L 670.17754 250.543858 
L 671.967914 250.543858 
L 673.758289 250.543858 
L 675.548663 250.543858 
L 677.339037 250.543858 
L 679.129412 250.543858 
L 680.919786 250.543858 
L 682.71016 250.543858 
L 684.500535 250.543858 
L 686.290909 250.543858 
L 688.081283 250.543858 
L 689.871658 250.543858 
L 691.662032 250.543858 
L 693.452406 250.543858 
L 695.242781 250.543858 
L 697.033155 250.543858 
L 698.823529 250.543858 
L 700.613904 250.543858 
L 702.404278 250.543858 
L 704.194652 250.543858 
L 705.985027 250.543858 
L 707.775401 250.543858 
L 709.565775 250.543858 
L 711.35615 250.543858 
L 713.146524 250.543858 
L 714.936898 250.543858 
L 716.727273 250.543858 
L 718.517647 250.543858 
L 720.308021 250.543858 
L 722.098396 250.543858 
L 723.88877 250.543858 
L 725.679144 250.543858 
L 727.469519 250.543858 
L 729.259893 250.543858 
L 731.050267 250.543858 
L 732.840642 250.543858 
L 734.631016 250.543858 
L 736.42139 250.543858 
L 738.211765 250.543858 
L 740.002139 250.543858 
L 741.792513 250.543858 
L 743.582888 250.543858 
L 745.373262 250.543858 
L 747.163636 250.543858 
L 748.954011 250.543858 
L 750.744385 250.543858 
L 752.534759 250.543858 
L 754.325134 250.543858 
L 756.115508 250.543858 
L 757.905882 250.543858 
L 759.696257 250.543858 
L 761.486631 250.543858 
L 763.277005 250.543858 
L 765.06738 250.543858 
L 766.857754 250.543858 
L 768.648128 250.543858 
" clip-path="url(#pc983fda7d2)" style="fill: none; stroke: #2ca02c; stroke-width: 1.5; stroke-linecap: square"/>
   </g>
   <g id="line2d_43">
    <path d="M 589.610695 169.369563 
L 591.40107 169.069122 
L 593.191444 168.772802 
L 594.981818 168.480687 
L 596.772193 168.192858 
L 598.562567 167.909399 
L 600.352941 167.630398 
L 602.143316 167.355936 
L 603.93369 167.086103 
L 605.724064 166.820985 
L 607.514439 166.560669 
L 609.304813 166.305244 
L 611.095187 166.054799 
L 612.885561 165.809423 
L 614.675936 165.569205 
L 616.46631 165.334234 
L 618.256684 165.104602 
L 620.047059 164.880396 
L 621.837433 164.661706 
L 623.627807 164.448622 
L 625.418182 164.241232 
L 627.208556 164.039624 
L 628.99893 163.843886 
L 630.789305 163.654103 
L 632.579679 163.470363 
L 634.370053 163.292748 
L 636.160428 163.121343 
L 637.950802 162.956228 
L 639.741176 162.797484 
L 641.531551 162.645188 
L 643.321925 162.499418 
L 645.112299 162.360246 
L 646.902674 162.227746 
L 648.693048 162.101985 
L 650.483422 161.983031 
L 652.273797 161.870948 
L 654.064171 161.765796 
L 655.854545 161.667633 
L 657.64492 161.576514 
L 659.435294 161.49249 
L 661.225668 161.415608 
L 663.016043 161.345912 
L 664.806417 161.283443 
L 666.596791 161.228237 
L 668.387166 161.180325 
L 670.17754 161.139737 
L 671.967914 161.106495 
L 673.758289 161.08062 
L 675.548663 161.062127 
L 677.339037 161.051026 
L 679.129412 161.047325 
L 680.919786 161.051026 
L 682.71016 161.062127 
L 684.500535 161.08062 
L 686.290909 161.106495 
L 688.081283 161.139737 
L 689.871658 161.180325 
L 691.662032 161.228237 
L 693.452406 161.283443 
L 695.242781 161.345912 
L 697.033155 161.415608 
L 698.823529 161.49249 
L 700.613904 161.576514 
L 702.404278 161.667633 
L 704.194652 161.765796 
L 705.985027 161.870948 
L 707.775401 161.983031 
L 709.565775 162.101985 
L 711.35615 162.227746 
L 713.146524 162.360246 
L 714.936898 162.499418 
L 716.727273 162.645188 
L 718.517647 162.797484 
L 720.308021 162.956228 
L 722.098396 163.121343 
L 723.88877 163.292748 
L 725.679144 163.470363 
L 727.469519 163.654103 
L 729.259893 163.843886 
L 731.050267 164.039624 
L 732.840642 164.241232 
L 734.631016 164.448622 
L 736.42139 164.661706 
L 738.211765 164.880396 
L 740.002139 165.104602 
L 741.792513 165.334234 
L 743.582888 165.569205 
L 745.373262 165.809423 
L 747.163636 166.054799 
L 748.954011 166.305244 
L 750.744385 166.560669 
L 752.534759 166.820985 
L 754.325134 167.086103 
L 756.115508 167.355936 
L 757.905882 167.630398 
L 759.696257 167.909399 
L 761.486631 168.192858 
L 763.277005 168.480687 
L 765.06738 168.772802 
L 766.857754 169.069122 
L 768.648128 169.369563 
" clip-path="url(#pc983fda7d2)" style="fill: none; stroke: #9467bd; stroke-width: 1.5; stroke-linecap: square"/>
   </g>
   <g id="line2d_44">
    <path d="M 589.610695 131.79552 
L 591.40107 131.79552 
L 593.191444 131.79552 
L 594.981818 131.79552 
L 596.772193 131.79552 
L 598.562567 131.79552 
L 600.352941 131.79552 
L 602.143316 131.79552 
L 603.93369 131.79552 
L 605.724064 131.79552 
L 607.514439 131.79552 
L 609.304813 131.79552 
L 611.095187 131.79552 
L 612.885561 131.79552 
L 614.675936 131.79552 
L 616.46631 131.79552 
L 618.256684 131.79552 
L 620.047059 131.79552 
L 621.837433 131.79552 
L 623.627807 131.79552 
L 625.418182 131.79552 
L 627.208556 131.79552 
L 628.99893 131.79552 
L 630.789305 131.79552 
L 632.579679 131.79552 
L 634.370053 131.79552 
L 636.160428 131.79552 
L 637.950802 131.79552 
L 639.741176 131.79552 
L 641.531551 131.79552 
L 643.321925 131.79552 
L 645.112299 131.79552 
L 646.902674 131.79552 
L 648.693048 131.79552 
L 650.483422 131.79552 
L 652.273797 131.79552 
L 654.064171 131.79552 
L 655.854545 131.79552 
L 657.64492 131.79552 
L 659.435294 131.79552 
L 661.225668 131.795528 
L 663.016043 131.795528 
L 664.806417 131.795528 
L 666.596791 131.795528 
L 668.387166 131.795528 
L 670.17754 131.795528 
L 671.967914 131.795528 
L 673.758289 131.795528 
L 675.548663 131.795528 
L 677.339037 131.795528 
L 679.129412 131.795528 
L 680.919786 131.795528 
L 682.71016 131.795528 
L 684.500535 131.795528 
L 686.290909 131.795528 
L 688.081283 131.795528 
L 689.871658 131.795528 
L 691.662032 131.795528 
L 693.452406 131.795528 
L 695.242781 131.795528 
L 697.033155 131.795528 
L 698.823529 131.79552 
L 700.613904 131.79552 
L 702.404278 131.79552 
L 704.194652 131.79552 
L 705.985027 131.79552 
L 707.775401 131.79552 
L 709.565775 131.79552 
L 711.35615 131.79552 
L 713.146524 131.79552 
L 714.936898 131.79552 
L 716.727273 131.79552 
L 718.517647 131.79552 
L 720.308021 131.79552 
L 722.098396 131.79552 
L 723.88877 131.79552 
L 725.679144 131.79552 
L 727.469519 131.79552 
L 729.259893 131.79552 
L 731.050267 131.79552 
L 732.840642 131.79552 
L 734.631016 131.79552 
L 736.42139 131.79552 
L 738.211765 131.79552 
L 740.002139 131.79552 
L 741.792513 131.79552 
L 743.582888 131.79552 
L 745.373262 131.79552 
L 747.163636 131.79552 
L 748.954011 131.79552 
L 750.744385 131.79552 
L 752.534759 131.79552 
L 754.325134 131.79552 
L 756.115508 131.79552 
L 757.905882 131.79552 
L 759.696257 131.79552 
L 761.486631 131.79552 
L 763.277005 131.79552 
L 765.06738 131.79552 
L 766.857754 131.79552 
L 768.648128 131.79552 
" clip-path="url(#pc983fda7d2)" style="fill: none; stroke: #e377c2; stroke-width: 1.5; stroke-linecap: square"/>
   </g>
   <g id="line2d_45">
    <path d="M 589.610695 78.28164 
L 591.40107 78.582046 
L 593.191444 78.878412 
L 594.981818 79.170502 
L 596.772193 79.458314 
L 598.562567 79.741771 
L 600.352941 80.020793 
L 602.143316 80.2953 
L 603.93369 80.565134 
L 605.724064 80.830217 
L 607.514439 81.090547 
L 609.304813 81.345967 
L 611.095187 81.596398 
L 612.885561 81.841759 
L 614.675936 82.081973 
L 616.46631 82.316959 
L 618.256684 82.54656 
L 620.047059 82.770775 
L 621.837433 82.989494 
L 623.627807 83.202582 
L 625.418182 83.409967 
L 627.208556 83.611578 
L 628.99893 83.807313 
L 630.789305 83.9971 
L 632.579679 84.180836 
L 634.370053 84.35845 
L 636.160428 84.529855 
L 637.950802 84.694971 
L 639.741176 84.853719 
L 641.531551 85.006013 
L 643.321925 85.151781 
L 645.112299 85.290951 
L 646.902674 85.423452 
L 648.693048 85.549214 
L 650.483422 85.668173 
L 652.273797 85.780256 
L 654.064171 85.885402 
L 655.854545 85.983571 
L 657.64492 86.074682 
L 659.435294 86.158714 
L 661.225668 86.235593 
L 663.016043 86.305289 
L 664.806417 86.367754 
L 666.596791 86.422964 
L 668.387166 86.470872 
L 670.17754 86.511462 
L 671.967914 86.544703 
L 673.758289 86.570577 
L 675.548663 86.589071 
L 677.339037 86.600174 
L 679.129412 86.603873 
L 680.919786 86.600174 
L 682.71016 86.589071 
L 684.500535 86.570577 
L 686.290909 86.544703 
L 688.081283 86.511462 
L 689.871658 86.470872 
L 691.662032 86.422964 
L 693.452406 86.367754 
L 695.242781 86.305289 
L 697.033155 86.235593 
L 698.823529 86.158714 
L 700.613904 86.074682 
L 702.404278 85.983571 
L 704.194652 85.885402 
L 705.985027 85.780256 
L 707.775401 85.668173 
L 709.565775 85.549214 
L 711.35615 85.423452 
L 713.146524 85.290951 
L 714.936898 85.151781 
L 716.727273 85.006013 
L 718.517647 84.853719 
L 720.308021 84.694971 
L 722.098396 84.529855 
L 723.88877 84.35845 
L 725.679144 84.180836 
L 727.469519 83.9971 
L 729.259893 83.807313 
L 731.050267 83.611578 
L 732.840642 83.409967 
L 734.631016 83.202582 
L 736.42139 82.989494 
L 738.211765 82.770775 
L 740.002139 82.54656 
L 741.792513 82.316959 
L 743.582888 82.081973 
L 745.373262 81.841759 
L 747.163636 81.596398 
L 748.954011 81.345967 
L 750.744385 81.090547 
L 752.534759 80.830217 
L 754.325134 80.565134 
L 756.115508 80.2953 
L 757.905882 80.020793 
L 759.696257 79.741771 
L 761.486631 79.458314 
L 763.277005 79.170502 
L 765.06738 78.878412 
L 766.857754 78.582046 
L 768.648128 78.28164 
" clip-path="url(#pc983fda7d2)" style="fill: none; stroke: #bcbd22; stroke-width: 1.5; stroke-linecap: square"/>
   </g>
   <g id="patch_13">
    <path d="M 580.658824 320.4 
L 580.658824 43.2 
" style="fill: none; stroke: #000000; stroke-width: 0.8; stroke-linejoin: miter; stroke-linecap: square"/>
   </g>
   <g id="patch_14">
    <path d="M 777.6 320.4 
L 777.6 43.2 
" style="fill: none; stroke: #000000; stroke-width: 0.8; stroke-linejoin: miter; stroke-linecap: square"/>
   </g>
   <g id="patch_15">
    <path d="M 580.658824 320.4 
L 777.6 320.4 
" style="fill: none; stroke: #000000; stroke-width: 0.8; stroke-linejoin: miter; stroke-linecap: square"/>
   </g>
   <g id="patch_16">
    <path d="M 580.658824 43.2 
L 777.6 43.2 
" style="fill: none; stroke: #000000; stroke-width: 0.8; stroke-linejoin: miter; stroke-linecap: square"/>
   </g>
   <g id="text_40">
    <text style="font: 12px 'sans-serif'; text-anchor: middle" x="679.129412" y="37.2" transform="rotate(-0, 679.129412, 37.2)">kz-cut</text>
   </g>
  </g>
 </g>
 <defs>
  <clipPath id="pbf1fd7494b">
   <rect x="108" y="43.2" width="196.941176" height="277.2"/>
  </clipPath>
  <clipPath id="pcf41e930cd">
   <rect x="344.329412" y="43.2" width="196.941176" height="277.2"/>
  </clipPath>
  <clipPath id="pc983fda7d2">
   <rect x="580.658824" y="43.2" width="196.941176" height="277.2"/>
  </clipPath>
 </defs>
</svg>
