<?xml version="1.0" encoding="utf-8" standalone="no"?>
<!DOCTYPE svg PUBLIC "-//W3C//DTD SVG 1.1//EN"
  "http://www.w3.org/Graphics/SVG/1.1/DTD/svg11.dtd">
<svg xmlns:xlink="http://www.w3.org/1999/xlink" width="864pt" height="360pt" viewBox="0 0 864 360" xmlns="http://www.w3.org/2000/svg" version="1.1">
 <metadata>
  <rdf:RDF xmlns:dc="http://purl.org/dc/elements/1.1/" xmlns:cc="http://creativecommons.org/ns#" xmlns:rdf="http://www.w3.org/1999/02/22-rdf-syntax-ns#">
   <cc:Work>
    <dc:type rdf:resource="http://purl.org/dc/dcmitype/StillImage"/>
    <dc:date>2022-04-04T19:45:47.472639</dc:date>
    <dc:format>image/svg+xml</dc:format>
    <dc:creator>
     <cc:Agent>
      <dc:title>Matplotlib v3.5.1, https://matplotlib.org/</dc:title>
     </cc:Agent>
    </dc:creator>
   </cc:Work>
  </rdf:RDF>
 </metadata>
 <defs>
  <style type="text/css">*{stroke-linejoin: round; stroke-linecap: butt}</style>
 </defs>
 <g id="figure_1">
  <g id="patch_1">
   <path d="M 0 360 
L 864 360 
L 864 0 
L 0 0 
z
" style="fill: #ffffff"/>
  </g>
  <g id="axes_1">
   <g id="patch_2">
    <path d="M 108 320.4 
L 304.941176 320.4 
L 304.941176 43.2 
L 108 43.2 
z
" style="fill: #ffffff"/>
   </g>
   <g id="matplotlib.axis_1">
    <g id="xtick_1">
     <g id="line2d_1">
      <defs>
       <path id="m0207391c8f" d="M 0 0 
L 0 3.5 
" style="stroke: #000000; stroke-width: 0.8"/>
      </defs>
      <g>
       <use xlink:href="#m0207391c8f" x="141.887429" y="320.4" style="stroke: #000000; stroke-width: 0.8"/>
      </g>
     </g>
     <g id="text_1">
      <text style="font: 10px 'sans-serif'; text-anchor: middle" x="141.887429" y="334.998438" transform="rotate(-0, 141.887429, 334.998438)">−0.1</text>
     </g>
    </g>
    <g id="xtick_2">
     <g id="line2d_2">
      <g>
       <use xlink:href="#m0207391c8f" x="206.470588" y="320.4" style="stroke: #000000; stroke-width: 0.8"/>
      </g>
     </g>
     <g id="text_2">
      <text style="font: 10px 'sans-serif'; text-anchor: middle" x="206.470588" y="334.998438" transform="rotate(-0, 206.470588, 334.998438)">0.0</text>
     </g>
    </g>
    <g id="xtick_3">
     <g id="line2d_3">
      <g>
       <use xlink:href="#m0207391c8f" x="271.053747" y="320.4" style="stroke: #000000; stroke-width: 0.8"/>
      </g>
     </g>
     <g id="text_3">
      <text style="font: 10px 'sans-serif'; text-anchor: middle" x="271.053747" y="334.998438" transform="rotate(-0, 271.053747, 334.998438)">0.1</text>
     </g>
    </g>
    <g id="text_4">
     <text style="font: 10px 'sans-serif'; text-anchor: middle" x="206.470588" y="348.676562" transform="rotate(-0, 206.470588, 348.676562)">kx</text>
    </g>
   </g>
   <g id="matplotlib.axis_2">
    <g id="ytick_1">
     <g id="line2d_4">
      <defs>
       <path id="m59de3f978b" d="M 0 0 
L -3.5 0 
" style="stroke: #000000; stroke-width: 0.8"/>
      </defs>
      <g>
       <use xlink:href="#m59de3f978b" x="108" y="320.4" style="stroke: #000000; stroke-width: 0.8"/>
      </g>
     </g>
     <g id="text_5">
      <text style="font: 10px 'sans-serif'; text-anchor: end" x="101" y="324.199219" transform="rotate(-0, 101, 324.199219)">−2.0</text>
     </g>
    </g>
    <g id="ytick_2">
     <g id="line2d_5">
      <g>
       <use xlink:href="#m59de3f978b" x="108" y="280.8" style="stroke: #000000; stroke-width: 0.8"/>
      </g>
     </g>
     <g id="text_6">
      <text style="font: 10px 'sans-serif'; text-anchor: end" x="101" y="284.599219" transform="rotate(-0, 101, 284.599219)">−1.5</text>
     </g>
    </g>
    <g id="ytick_3">
     <g id="line2d_6">
      <g>
       <use xlink:href="#m59de3f978b" x="108" y="241.2" style="stroke: #000000; stroke-width: 0.8"/>
      </g>
     </g>
     <g id="text_7">
      <text style="font: 10px 'sans-serif'; text-anchor: end" x="101" y="244.999219" transform="rotate(-0, 101, 244.999219)">−1.0</text>
     </g>
    </g>
    <g id="ytick_4">
     <g id="line2d_7">
      <g>
       <use xlink:href="#m59de3f978b" x="108" y="201.6" style="stroke: #000000; stroke-width: 0.8"/>
      </g>
     </g>
     <g id="text_8">
      <text style="font: 10px 'sans-serif'; text-anchor: end" x="101" y="205.399219" transform="rotate(-0, 101, 205.399219)">−0.5</text>
     </g>
    </g>
    <g id="ytick_5">
     <g id="line2d_8">
      <g>
       <use xlink:href="#m59de3f978b" x="108" y="162" style="stroke: #000000; stroke-width: 0.8"/>
      </g>
     </g>
     <g id="text_9">
      <text style="font: 10px 'sans-serif'; text-anchor: end" x="101" y="165.799219" transform="rotate(-0, 101, 165.799219)">0.0</text>
     </g>
    </g>
    <g id="ytick_6">
     <g id="line2d_9">
      <g>
       <use xlink:href="#m59de3f978b" x="108" y="122.4" style="stroke: #000000; stroke-width: 0.8"/>
      </g>
     </g>
     <g id="text_10">
      <text style="font: 10px 'sans-serif'; text-anchor: end" x="101" y="126.199219" transform="rotate(-0, 101, 126.199219)">0.5</text>
     </g>
    </g>
    <g id="ytick_7">
     <g id="line2d_10">
      <g>
       <use xlink:href="#m59de3f978b" x="108" y="82.8" style="stroke: #000000; stroke-width: 0.8"/>
      </g>
     </g>
     <g id="text_11">
      <text style="font: 10px 'sans-serif'; text-anchor: end" x="101" y="86.599219" transform="rotate(-0, 101, 86.599219)">1.0</text>
     </g>
    </g>
    <g id="ytick_8">
     <g id="line2d_11">
      <g>
       <use xlink:href="#m59de3f978b" x="108" y="43.2" style="stroke: #000000; stroke-width: 0.8"/>
      </g>
     </g>
     <g id="text_12">
      <text style="font: 10px 'sans-serif'; text-anchor: end" x="101" y="46.999219" transform="rotate(-0, 101, 46.999219)">1.5</text>
     </g>
    </g>
    <g id="text_13">
     <text style="font: 10px 'sans-serif'; text-anchor: middle" x="70.6375" y="181.8" transform="rotate(-90, 70.6375, 181.8)">Energy</text>
    </g>
   </g>
   <g id="line2d_12">
    <path d="M 116.951872 197.617388 
L 118.742246 196.958072 
L 120.53262 196.298756 
L 122.322995 195.63944 
L 124.113369 194.980123 
L 125.903743 194.320815 
L 127.694118 193.661515 
L 129.484492 193.002214 
L 131.274866 192.342922 
L 133.065241 191.683629 
L 134.855615 191.024345 
L 136.645989 190.365068 
L 138.436364 189.705792 
L 140.226738 189.046523 
L 142.017112 188.387262 
L 143.807487 187.728009 
L 145.597861 187.068764 
L 147.388235 186.409527 
L 149.17861 185.750298 
L 150.968984 185.091085 
L 152.759358 184.431879 
L 154.549733 183.77269 
L 156.340107 183.113508 
L 158.130481 182.45435 
L 159.920856 181.795208 
L 161.71123 181.136082 
L 163.501604 180.47698 
L 165.291979 179.817909 
L 167.082353 179.158862 
L 168.872727 178.499847 
L 170.663102 177.840871 
L 172.453476 177.181935 
L 174.24385 176.523054 
L 176.034225 175.864229 
L 177.824599 175.205483 
L 179.614973 174.546816 
L 181.405348 173.888253 
L 183.195722 173.229816 
L 184.986096 172.571537 
L 186.776471 171.913464 
L 188.566845 171.255653 
L 190.357219 170.598198 
L 192.147594 169.94121 
L 193.937968 169.284916 
L 195.728342 168.62964 
L 197.518717 167.975989 
L 199.309091 167.325151 
L 201.099465 166.679827 
L 202.88984 166.047644 
L 204.680214 165.459758 
L 206.470588 165.124059 
L 208.260963 165.459758 
L 210.051337 166.047644 
L 211.841711 166.679827 
L 213.632086 167.325151 
L 215.42246 167.975989 
L 217.212834 168.62964 
L 219.003209 169.284916 
L 220.793583 169.94121 
L 222.583957 170.598198 
L 224.374332 171.255653 
L 226.164706 171.913464 
L 227.95508 172.571537 
L 229.745455 173.229816 
L 231.535829 173.888253 
L 233.326203 174.546816 
L 235.116578 175.205483 
L 236.906952 175.864229 
L 238.697326 176.523054 
L 240.487701 177.181935 
L 242.278075 177.840871 
L 244.068449 178.499847 
L 245.858824 179.158862 
L 247.649198 179.817909 
L 249.439572 180.47698 
L 251.229947 181.136082 
L 253.020321 181.795208 
L 254.810695 182.45435 
L 256.60107 183.113508 
L 258.391444 183.77269 
L 260.181818 184.431879 
L 261.972193 185.091085 
L 263.762567 185.750298 
L 265.552941 186.409527 
L 267.343316 187.068764 
L 269.13369 187.728009 
L 270.924064 188.387262 
L 272.714439 189.046523 
L 274.504813 189.705792 
L 276.295187 190.365068 
L 278.085561 191.024345 
L 279.875936 191.683629 
L 281.66631 192.342922 
L 283.456684 193.002214 
L 285.247059 193.661515 
L 287.037433 194.320815 
L 288.827807 194.980123 
L 290.618182 195.63944 
L 292.408556 196.298756 
L 294.19893 196.958072 
L 295.989305 197.617388 
" clip-path="url(#pfa7d8e5f4f)" style="fill: none; stroke: #9467bd; stroke-width: 1.5; stroke-linecap: square"/>
   </g>
   <g id="line2d_13">
    <path d="M 116.951872 131.671223 
L 118.742246 132.330547 
L 120.53262 132.989864 
L 122.322995 133.64918 
L 124.113369 134.308488 
L 125.903743 134.967797 
L 127.694118 135.627097 
L 129.484492 136.286397 
L 131.274866 136.945698 
L 133.065241 137.604982 
L 134.855615 138.264275 
L 136.645989 138.923551 
L 138.436364 139.582828 
L 140.226738 140.242097 
L 142.017112 140.901358 
L 143.807487 141.56061 
L 145.597861 142.219855 
L 147.388235 142.879092 
L 149.17861 143.538314 
L 150.968984 144.197535 
L 152.759358 144.856732 
L 154.549733 145.51593 
L 156.340107 146.175103 
L 158.130481 146.834269 
L 159.920856 147.493411 
L 161.71123 148.152529 
L 163.501604 148.811632 
L 165.291979 149.47071 
L 167.082353 150.129757 
L 168.872727 150.788773 
L 170.663102 151.447748 
L 172.453476 152.106684 
L 174.24385 152.765565 
L 176.034225 153.424382 
L 177.824599 154.083136 
L 179.614973 154.741802 
L 181.405348 155.400365 
L 183.195722 156.058799 
L 184.986096 156.717076 
L 186.776471 157.375149 
L 188.566845 158.03296 
L 190.357219 158.690421 
L 192.147594 159.347403 
L 193.937968 160.0037 
L 195.728342 160.658975 
L 197.518717 161.312627 
L 199.309091 161.963464 
L 201.099465 162.608789 
L 202.88984 163.240972 
L 204.680214 163.828858 
L 206.470588 164.164557 
L 208.260963 163.828858 
L 210.051337 163.240972 
L 211.841711 162.608789 
L 213.632086 161.963464 
L 215.42246 161.312627 
L 217.212834 160.658975 
L 219.003209 160.0037 
L 220.793583 159.347403 
L 222.583957 158.690421 
L 224.374332 158.03296 
L 226.164706 157.375149 
L 227.95508 156.717076 
L 229.745455 156.058799 
L 231.535829 155.400365 
L 233.326203 154.741802 
L 235.116578 154.083136 
L 236.906952 153.424382 
L 238.697326 152.765565 
L 240.487701 152.106684 
L 242.278075 151.447748 
L 244.068449 150.788773 
L 245.858824 150.129757 
L 247.649198 149.47071 
L 249.439572 148.811632 
L 251.229947 148.152529 
L 253.020321 147.493411 
L 254.810695 146.834269 
L 256.60107 146.175103 
L 258.391444 145.51593 
L 260.181818 144.856732 
L 261.972193 144.197535 
L 263.762567 143.538314 
L 265.552941 142.879092 
L 267.343316 142.219855 
L 269.13369 141.56061 
L 270.924064 140.901358 
L 272.714439 140.242097 
L 274.504813 139.582828 
L 276.295187 138.923551 
L 278.085561 138.264275 
L 279.875936 137.604982 
L 281.66631 136.945698 
L 283.456684 136.286397 
L 285.247059 135.627097 
L 287.037433 134.967797 
L 288.827807 134.308488 
L 290.618182 133.64918 
L 292.408556 132.989864 
L 294.19893 132.330547 
L 295.989305 131.671223 
" clip-path="url(#pfa7d8e5f4f)" style="fill: none; stroke: #e377c2; stroke-width: 1.5; stroke-linecap: square"/>
   </g>
   <g id="patch_3">
    <path d="M 108 320.4 
L 108 43.2 
" style="fill: none; stroke: #000000; stroke-width: 0.8; stroke-linejoin: miter; stroke-linecap: square"/>
   </g>
   <g id="patch_4">
    <path d="M 304.941176 320.4 
L 304.941176 43.2 
" style="fill: none; stroke: #000000; stroke-width: 0.8; stroke-linejoin: miter; stroke-linecap: square"/>
   </g>
   <g id="patch_5">
    <path d="M 108 320.4 
L 304.941176 320.4 
" style="fill: none; stroke: #000000; stroke-width: 0.8; stroke-linejoin: miter; stroke-linecap: square"/>
   </g>
   <g id="patch_6">
    <path d="M 108 43.2 
L 304.941176 43.2 
" style="fill: none; stroke: #000000; stroke-width: 0.8; stroke-linejoin: miter; stroke-linecap: square"/>
   </g>
   <g id="text_14">
    <text style="font: 12px 'sans-serif'; text-anchor: middle" x="206.470588" y="37.2" transform="rotate(-0, 206.470588, 37.2)">kx-cut</text>
   </g>
  </g>
  <g id="axes_2">
   <g id="patch_7">
    <path d="M 344.329412 320.4 
L 541.270588 320.4 
L 541.270588 43.2 
L 344.329412 43.2 
z
" style="fill: #ffffff"/>
   </g>
   <g id="matplotlib.axis_3">
    <g id="xtick_4">
     <g id="line2d_14">
      <g>
       <use xlink:href="#m0207391c8f" x="378.216841" y="320.4" style="stroke: #000000; stroke-width: 0.8"/>
      </g>
     </g>
     <g id="text_15">
      <text style="font: 10px 'sans-serif'; text-anchor: middle" x="378.216841" y="334.998438" transform="rotate(-0, 378.216841, 334.998438)">−0.1</text>
     </g>
    </g>
    <g id="xtick_5">
     <g id="line2d_15">
      <g>
       <use xlink:href="#m0207391c8f" x="442.8" y="320.4" style="stroke: #000000; stroke-width: 0.8"/>
      </g>
     </g>
     <g id="text_16">
      <text style="font: 10px 'sans-serif'; text-anchor: middle" x="442.8" y="334.998438" transform="rotate(-0, 442.8, 334.998438)">0.0</text>
     </g>
    </g>
    <g id="xtick_6">
     <g id="line2d_16">
      <g>
       <use xlink:href="#m0207391c8f" x="507.383159" y="320.4" style="stroke: #000000; stroke-width: 0.8"/>
      </g>
     </g>
     <g id="text_17">
      <text style="font: 10px 'sans-serif'; text-anchor: middle" x="507.383159" y="334.998438" transform="rotate(-0, 507.383159, 334.998438)">0.1</text>
     </g>
    </g>
    <g id="text_18">
     <text style="font: 10px 'sans-serif'; text-anchor: middle" x="442.8" y="348.676562" transform="rotate(-0, 442.8, 348.676562)">ky</text>
    </g>
   </g>
   <g id="matplotlib.axis_4">
    <g id="ytick_9">
     <g id="line2d_17">
      <g>
       <use xlink:href="#m59de3f978b" x="344.329412" y="320.4" style="stroke: #000000; stroke-width: 0.8"/>
      </g>
     </g>
     <g id="text_19">
      <text style="font: 10px 'sans-serif'; text-anchor: end" x="337.329412" y="324.199219" transform="rotate(-0, 337.329412, 324.199219)">−2.0</text>
     </g>
    </g>
    <g id="ytick_10">
     <g id="line2d_18">
      <g>
       <use xlink:href="#m59de3f978b" x="344.329412" y="280.8" style="stroke: #000000; stroke-width: 0.8"/>
      </g>
     </g>
     <g id="text_20">
      <text style="font: 10px 'sans-serif'; text-anchor: end" x="337.329412" y="284.599219" transform="rotate(-0, 337.329412, 284.599219)">−1.5</text>
     </g>
    </g>
    <g id="ytick_11">
     <g id="line2d_19">
      <g>
       <use xlink:href="#m59de3f978b" x="344.329412" y="241.2" style="stroke: #000000; stroke-width: 0.8"/>
      </g>
     </g>
     <g id="text_21">
      <text style="font: 10px 'sans-serif'; text-anchor: end" x="337.329412" y="244.999219" transform="rotate(-0, 337.329412, 244.999219)">−1.0</text>
     </g>
    </g>
    <g id="ytick_12">
     <g id="line2d_20">
      <g>
       <use xlink:href="#m59de3f978b" x="344.329412" y="201.6" style="stroke: #000000; stroke-width: 0.8"/>
      </g>
     </g>
     <g id="text_22">
      <text style="font: 10px 'sans-serif'; text-anchor: end" x="337.329412" y="205.399219" transform="rotate(-0, 337.329412, 205.399219)">−0.5</text>
     </g>
    </g>
    <g id="ytick_13">
     <g id="line2d_21">
      <g>
       <use xlink:href="#m59de3f978b" x="344.329412" y="162" style="stroke: #000000; stroke-width: 0.8"/>
      </g>
     </g>
     <g id="text_23">
      <text style="font: 10px 'sans-serif'; text-anchor: end" x="337.329412" y="165.799219" transform="rotate(-0, 337.329412, 165.799219)">0.0</text>
     </g>
    </g>
    <g id="ytick_14">
     <g id="line2d_22">
      <g>
       <use xlink:href="#m59de3f978b" x="344.329412" y="122.4" style="stroke: #000000; stroke-width: 0.8"/>
      </g>
     </g>
     <g id="text_24">
      <text style="font: 10px 'sans-serif'; text-anchor: end" x="337.329412" y="126.199219" transform="rotate(-0, 337.329412, 126.199219)">0.5</text>
     </g>
    </g>
    <g id="ytick_15">
     <g id="line2d_23">
      <g>
       <use xlink:href="#m59de3f978b" x="344.329412" y="82.8" style="stroke: #000000; stroke-width: 0.8"/>
      </g>
     </g>
     <g id="text_25">
      <text style="font: 10px 'sans-serif'; text-anchor: end" x="337.329412" y="86.599219" transform="rotate(-0, 337.329412, 86.599219)">1.0</text>
     </g>
    </g>
    <g id="ytick_16">
     <g id="line2d_24">
      <g>
       <use xlink:href="#m59de3f978b" x="344.329412" y="43.2" style="stroke: #000000; stroke-width: 0.8"/>
      </g>
     </g>
     <g id="text_26">
      <text style="font: 10px 'sans-serif'; text-anchor: end" x="337.329412" y="46.999219" transform="rotate(-0, 337.329412, 46.999219)">1.5</text>
     </g>
    </g>
   </g>
   <g id="line2d_25">
    <path d="M 353.281283 220.746774 
L 355.071658 219.624811 
L 356.862032 218.502848 
L 358.652406 217.380885 
L 360.442781 216.258922 
L 362.233155 215.136959 
L 364.023529 214.015004 
L 365.813904 212.893049 
L 367.604278 211.771102 
L 369.394652 210.649154 
L 371.185027 209.527207 
L 372.975401 208.40526 
L 374.765775 207.283321 
L 376.55615 206.161389 
L 378.346524 205.039458 
L 380.136898 203.917527 
L 381.927273 202.795611 
L 383.717647 201.673688 
L 385.508021 200.55178 
L 387.298396 199.429872 
L 389.08877 198.307973 
L 390.879144 197.186089 
L 392.669519 196.064205 
L 394.459893 194.942329 
L 396.250267 193.820469 
L 398.040642 192.698617 
L 399.831016 191.576781 
L 401.62139 190.45496 
L 403.411765 189.333156 
L 405.202139 188.211367 
L 406.992513 187.089602 
L 408.782888 185.96786 
L 410.573262 184.846159 
L 412.363636 183.724481 
L 414.154011 182.60285 
L 415.944385 181.481268 
L 417.734759 180.359748 
L 419.525134 179.238308 
L 421.315508 178.116954 
L 423.105882 176.99572 
L 424.896257 175.874644 
L 426.686631 174.753774 
L 428.477005 173.633189 
L 430.26738 172.513008 
L 432.057754 171.393429 
L 433.848128 170.274824 
L 435.638503 169.15791 
L 437.428877 168.04435 
L 439.219251 166.939035 
L 441.009626 165.86458 
L 442.8 165.124059 
L 444.590374 165.86458 
L 446.380749 166.939035 
L 448.171123 168.04435 
L 449.961497 169.15791 
L 451.751872 170.274824 
L 453.542246 171.393429 
L 455.33262 172.513008 
L 457.122995 173.633189 
L 458.913369 174.753774 
L 460.703743 175.874644 
L 462.494118 176.99572 
L 464.284492 178.116954 
L 466.074866 179.238308 
L 467.865241 180.359748 
L 469.655615 181.481268 
L 471.445989 182.60285 
L 473.236364 183.724481 
L 475.026738 184.846159 
L 476.817112 185.96786 
L 478.607487 187.089602 
L 480.397861 188.211367 
L 482.188235 189.333156 
L 483.97861 190.45496 
L 485.768984 191.576781 
L 487.559358 192.698617 
L 489.349733 193.820469 
L 491.140107 194.942329 
L 492.930481 196.064205 
L 494.720856 197.186089 
L 496.51123 198.307973 
L 498.301604 199.429872 
L 500.091979 200.55178 
L 501.882353 201.673688 
L 503.672727 202.795611 
L 505.463102 203.917527 
L 507.253476 205.039458 
L 509.04385 206.161389 
L 510.834225 207.283321 
L 512.624599 208.40526 
L 514.414973 209.527207 
L 516.205348 210.649154 
L 517.995722 211.771102 
L 519.786096 212.893049 
L 521.576471 214.015004 
L 523.366845 215.136959 
L 525.157219 216.258922 
L 526.947594 217.380885 
L 528.737968 218.502848 
L 530.528342 219.624811 
L 532.318717 220.746774 
" clip-path="url(#p1de1c7f0c5)" style="fill: none; stroke: #9467bd; stroke-width: 1.5; stroke-linecap: square"/>
   </g>
   <g id="line2d_26">
    <path d="M 353.281283 108.541837 
L 355.071658 109.663808 
L 356.862032 110.785771 
L 358.652406 111.907734 
L 360.442781 113.029698 
L 362.233155 114.151653 
L 364.023529 115.273608 
L 365.813904 116.395563 
L 367.604278 117.517518 
L 369.394652 118.639465 
L 371.185027 119.761412 
L 372.975401 120.883352 
L 374.765775 122.005291 
L 376.55615 123.12723 
L 378.346524 124.249162 
L 380.136898 125.371085 
L 381.927273 126.493008 
L 383.717647 127.614924 
L 385.508021 128.73684 
L 387.298396 129.858739 
L 389.08877 130.980639 
L 390.879144 132.102531 
L 392.669519 133.224414 
L 394.459893 134.346282 
L 396.250267 135.46815 
L 398.040642 136.589995 
L 399.831016 137.711831 
L 401.62139 138.833659 
L 403.411765 139.955464 
L 405.202139 141.077253 
L 406.992513 142.19901 
L 408.782888 143.320751 
L 410.573262 144.442461 
L 412.363636 145.564131 
L 414.154011 146.685769 
L 415.944385 147.807344 
L 417.734759 148.928864 
L 419.525134 150.050312 
L 421.315508 151.171665 
L 423.105882 152.2929 
L 424.896257 153.413976 
L 426.686631 154.534843 
L 428.477005 155.65543 
L 430.26738 156.775611 
L 432.057754 157.895185 
L 433.848128 159.01379 
L 435.638503 160.130706 
L 437.428877 161.244266 
L 439.219251 162.349581 
L 441.009626 163.424036 
L 442.8 164.164557 
L 444.590374 163.424036 
L 446.380749 162.349581 
L 448.171123 161.244266 
L 449.961497 160.130706 
L 451.751872 159.01379 
L 453.542246 157.895185 
L 455.33262 156.775611 
L 457.122995 155.65543 
L 458.913369 154.534843 
L 460.703743 153.413976 
L 462.494118 152.2929 
L 464.284492 151.171665 
L 466.074866 150.050312 
L 467.865241 148.928864 
L 469.655615 147.807344 
L 471.445989 146.685769 
L 473.236364 145.564131 
L 475.026738 144.442461 
L 476.817112 143.320751 
L 478.607487 142.19901 
L 480.397861 141.077253 
L 482.188235 139.955464 
L 483.97861 138.833659 
L 485.768984 137.711831 
L 487.559358 136.589995 
L 489.349733 135.46815 
L 491.140107 134.346282 
L 492.930481 133.224414 
L 494.720856 132.102531 
L 496.51123 130.980639 
L 498.301604 129.858739 
L 500.091979 128.73684 
L 501.882353 127.614924 
L 503.672727 126.493008 
L 505.463102 125.371085 
L 507.253476 124.249162 
L 509.04385 123.12723 
L 510.834225 122.005291 
L 512.624599 120.883352 
L 514.414973 119.761412 
L 516.205348 118.639465 
L 517.995722 117.517518 
L 519.786096 116.395563 
L 521.576471 115.273608 
L 523.366845 114.151653 
L 525.157219 113.029698 
L 526.947594 111.907734 
L 528.737968 110.785771 
L 530.528342 109.663808 
L 532.318717 108.541837 
" clip-path="url(#p1de1c7f0c5)" style="fill: none; stroke: #e377c2; stroke-width: 1.5; stroke-linecap: square"/>
   </g>
   <g id="patch_8">
    <path d="M 344.329412 320.4 
L 344.329412 43.2 
" style="fill: none; stroke: #000000; stroke-width: 0.8; stroke-linejoin: miter; stroke-linecap: square"/>
   </g>
   <g id="patch_9">
    <path d="M 541.270588 320.4 
L 541.270588 43.2 
" style="fill: none; stroke: #000000; stroke-width: 0.8; stroke-linejoin: miter; stroke-linecap: square"/>
   </g>
   <g id="patch_10">
    <path d="M 344.329412 320.4 
L 541.270588 320.4 
" style="fill: none; stroke: #000000; stroke-width: 0.8; stroke-linejoin: miter; stroke-linecap: square"/>
   </g>
   <g id="patch_11">
    <path d="M 344.329412 43.2 
L 541.270588 43.2 
" style="fill: none; stroke: #000000; stroke-width: 0.8; stroke-linejoin: miter; stroke-linecap: square"/>
   </g>
   <g id="text_27">
    <text style="font: 12px 'sans-serif'; text-anchor: middle" x="442.8" y="37.2" transform="rotate(-0, 442.8, 37.2)">ky-cut</text>
   </g>
  </g>
  <g id="axes_3">
   <g id="patch_12">
    <path d="M 580.658824 320.4 
L 777.6 320.4 
L 777.6 43.2 
L 580.658824 43.2 
z
" style="fill: #ffffff"/>
   </g>
   <g id="matplotlib.axis_5">
    <g id="xtick_7">
     <g id="line2d_27">
      <g>
       <use xlink:href="#m0207391c8f" x="614.546253" y="320.4" style="stroke: #000000; stroke-width: 0.8"/>
      </g>
     </g>
     <g id="text_28">
      <text style="font: 10px 'sans-serif'; text-anchor: middle" x="614.546253" y="334.998438" transform="rotate(-0, 614.546253, 334.998438)">−0.1</text>
     </g>
    </g>
    <g id="xtick_8">
     <g id="line2d_28">
      <g>
       <use xlink:href="#m0207391c8f" x="679.129412" y="320.4" style="stroke: #000000; stroke-width: 0.8"/>
      </g>
     </g>
     <g id="text_29">
      <text style="font: 10px 'sans-serif'; text-anchor: middle" x="679.129412" y="334.998438" transform="rotate(-0, 679.129412, 334.998438)">0.0</text>
     </g>
    </g>
    <g id="xtick_9">
     <g id="line2d_29">
      <g>
       <use xlink:href="#m0207391c8f" x="743.712571" y="320.4" style="stroke: #000000; stroke-width: 0.8"/>
      </g>
     </g>
     <g id="text_30">
      <text style="font: 10px 'sans-serif'; text-anchor: middle" x="743.712571" y="334.998438" transform="rotate(-0, 743.712571, 334.998438)">0.1</text>
     </g>
    </g>
    <g id="text_31">
     <text style="font: 10px 'sans-serif'; text-anchor: middle" x="679.129412" y="348.676562" transform="rotate(-0, 679.129412, 348.676562)">kz</text>
    </g>
   </g>
   <g id="matplotlib.axis_6">
    <g id="ytick_17">
     <g id="line2d_30">
      <g>
       <use xlink:href="#m59de3f978b" x="580.658824" y="320.4" style="stroke: #000000; stroke-width: 0.8"/>
      </g>
     </g>
     <g id="text_32">
      <text style="font: 10px 'sans-serif'; text-anchor: end" x="573.658824" y="324.199219" transform="rotate(-0, 573.658824, 324.199219)">−2.0</text>
     </g>
    </g>
    <g id="ytick_18">
     <g id="line2d_31">
      <g>
       <use xlink:href="#m59de3f978b" x="580.658824" y="280.8" style="stroke: #000000; stroke-width: 0.8"/>
      </g>
     </g>
     <g id="text_33">
      <text style="font: 10px 'sans-serif'; text-anchor: end" x="573.658824" y="284.599219" transform="rotate(-0, 573.658824, 284.599219)">−1.5</text>
     </g>
    </g>
    <g id="ytick_19">
     <g id="line2d_32">
      <g>
       <use xlink:href="#m59de3f978b" x="580.658824" y="241.2" style="stroke: #000000; stroke-width: 0.8"/>
      </g>
     </g>
     <g id="text_34">
      <text style="font: 10px 'sans-serif'; text-anchor: end" x="573.658824" y="244.999219" transform="rotate(-0, 573.658824, 244.999219)">−1.0</text>
     </g>
    </g>
    <g id="ytick_20">
     <g id="line2d_33">
      <g>
       <use xlink:href="#m59de3f978b" x="580.658824" y="201.6" style="stroke: #000000; stroke-width: 0.8"/>
      </g>
     </g>
     <g id="text_35">
      <text style="font: 10px 'sans-serif'; text-anchor: end" x="573.658824" y="205.399219" transform="rotate(-0, 573.658824, 205.399219)">−0.5</text>
     </g>
    </g>
    <g id="ytick_21">
     <g id="line2d_34">
      <g>
       <use xlink:href="#m59de3f978b" x="580.658824" y="162" style="stroke: #000000; stroke-width: 0.8"/>
      </g>
     </g>
     <g id="text_36">
      <text style="font: 10px 'sans-serif'; text-anchor: end" x="573.658824" y="165.799219" transform="rotate(-0, 573.658824, 165.799219)">0.0</text>
     </g>
    </g>
    <g id="ytick_22">
     <g id="line2d_35">
      <g>
       <use xlink:href="#m59de3f978b" x="580.658824" y="122.4" style="stroke: #000000; stroke-width: 0.8"/>
      </g>
     </g>
     <g id="text_37">
      <text style="font: 10px 'sans-serif'; text-anchor: end" x="573.658824" y="126.199219" transform="rotate(-0, 573.658824, 126.199219)">0.5</text>
     </g>
    </g>
    <g id="ytick_23">
     <g id="line2d_36">
      <g>
       <use xlink:href="#m59de3f978b" x="580.658824" y="82.8" style="stroke: #000000; stroke-width: 0.8"/>
      </g>
     </g>
     <g id="text_38">
      <text style="font: 10px 'sans-serif'; text-anchor: end" x="573.658824" y="86.599219" transform="rotate(-0, 573.658824, 86.599219)">1.0</text>
     </g>
    </g>
    <g id="ytick_24">
     <g id="line2d_37">
      <g>
       <use xlink:href="#m59de3f978b" x="580.658824" y="43.2" style="stroke: #000000; stroke-width: 0.8"/>
      </g>
     </g>
     <g id="text_39">
      <text style="font: 10px 'sans-serif'; text-anchor: end" x="573.658824" y="46.999219" transform="rotate(-0, 573.658824, 46.999219)">1.5</text>
     </g>
    </g>
   </g>
   <g id="line2d_38">
    <path d="M 589.610695 217.312987 
L 591.40107 216.259706 
L 593.191444 215.206417 
L 594.981818 214.153137 
L 596.772193 213.099856 
L 598.562567 212.046583 
L 600.352941 210.99331 
L 602.143316 209.940037 
L 603.93369 208.886764 
L 605.724064 207.833499 
L 607.514439 206.780234 
L 609.304813 205.726977 
L 611.095187 204.67372 
L 612.885561 203.620471 
L 614.675936 202.567222 
L 616.46631 201.513973 
L 618.256684 200.46074 
L 620.047059 199.407506 
L 621.837433 198.354281 
L 623.627807 197.301056 
L 625.418182 196.247846 
L 627.208556 195.194645 
L 628.99893 194.141451 
L 630.789305 193.088265 
L 632.579679 192.035087 
L 634.370053 190.981925 
L 636.160428 189.928779 
L 637.950802 188.875649 
L 639.741176 187.822534 
L 641.531551 186.769436 
L 643.321925 185.716369 
L 645.112299 184.663326 
L 646.902674 183.610314 
L 648.693048 182.557342 
L 650.483422 181.50441 
L 652.273797 180.451541 
L 654.064171 179.398727 
L 655.854545 178.346001 
L 657.64492 177.29337 
L 659.435294 176.240865 
L 661.225668 175.188527 
L 663.016043 174.13641 
L 664.806417 173.084594 
L 666.596791 172.033206 
L 668.387166 170.982468 
L 670.17754 169.932767 
L 671.967914 168.884853 
L 673.758289 167.840508 
L 675.548663 166.804904 
L 677.339037 165.801747 
L 679.129412 165.124059 
L 680.919786 165.801747 
L 682.71016 166.804904 
L 684.500535 167.840508 
L 686.290909 168.884853 
L 688.081283 169.932767 
L 689.871658 170.982468 
L 691.662032 172.033206 
L 693.452406 173.084594 
L 695.242781 174.13641 
L 697.033155 175.188527 
L 698.823529 176.240865 
L 700.613904 177.29337 
L 702.404278 178.346001 
L 704.194652 179.398727 
L 705.985027 180.451541 
L 707.775401 181.50441 
L 709.565775 182.557342 
L 711.35615 183.610314 
L 713.146524 184.663326 
L 714.936898 185.716369 
L 716.727273 186.769436 
L 718.517647 187.822534 
L 720.308021 188.875649 
L 722.098396 189.928779 
L 723.88877 190.981925 
L 725.679144 192.035087 
L 727.469519 193.088265 
L 729.259893 194.141451 
L 731.050267 195.194645 
L 732.840642 196.247846 
L 734.631016 197.301056 
L 736.42139 198.354281 
L 738.211765 199.407506 
L 740.002139 200.46074 
L 741.792513 201.513973 
L 743.582888 202.567222 
L 745.373262 203.620471 
L 747.163636 204.67372 
L 748.954011 205.726977 
L 750.744385 206.780234 
L 752.534759 207.833499 
L 754.325134 208.886764 
L 756.115508 209.940037 
L 757.905882 210.99331 
L 759.696257 212.046583 
L 761.486631 213.099856 
L 763.277005 214.153137 
L 765.06738 215.206417 
L 766.857754 216.259706 
L 768.648128 217.312987 
" clip-path="url(#pe66be36cd7)" style="fill: none; stroke: #9467bd; stroke-width: 1.5; stroke-linecap: square"/>
   </g>
   <g id="line2d_39">
    <path d="M 589.610695 111.975625 
L 591.40107 113.028913 
L 593.191444 114.082194 
L 594.981818 115.135475 
L 596.772193 116.188756 
L 598.562567 117.242037 
L 600.352941 118.29531 
L 602.143316 119.348582 
L 603.93369 120.401847 
L 605.724064 121.45512 
L 607.514439 122.508377 
L 609.304813 123.561642 
L 611.095187 124.614899 
L 612.885561 125.668148 
L 614.675936 126.721398 
L 616.46631 127.774639 
L 618.256684 128.82788 
L 620.047059 129.881113 
L 621.837433 130.934339 
L 623.627807 131.987556 
L 625.418182 133.040766 
L 627.208556 134.093975 
L 628.99893 135.147169 
L 630.789305 136.200354 
L 632.579679 137.253532 
L 634.370053 138.306686 
L 636.160428 139.35984 
L 637.950802 140.412971 
L 639.741176 141.466085 
L 641.531551 142.519176 
L 643.321925 143.572251 
L 645.112299 144.625294 
L 646.902674 145.678298 
L 648.693048 146.731278 
L 650.483422 147.784202 
L 652.273797 148.837079 
L 654.064171 149.889884 
L 655.854545 150.942619 
L 657.64492 151.99525 
L 659.435294 153.047755 
L 661.225668 154.100089 
L 663.016043 155.152207 
L 664.806417 156.204023 
L 666.596791 157.255408 
L 668.387166 158.306145 
L 670.17754 159.355853 
L 671.967914 160.403763 
L 673.758289 161.448108 
L 675.548663 162.483712 
L 677.339037 163.486869 
L 679.129412 164.164557 
L 680.919786 163.486869 
L 682.71016 162.483712 
L 684.500535 161.448108 
L 686.290909 160.403763 
L 688.081283 159.355853 
L 689.871658 158.306145 
L 691.662032 157.255408 
L 693.452406 156.204023 
L 695.242781 155.152207 
L 697.033155 154.100089 
L 698.823529 153.047755 
L 700.613904 151.99525 
L 702.404278 150.942619 
L 704.194652 149.889884 
L 705.985027 148.837079 
L 707.775401 147.784202 
L 709.565775 146.731278 
L 711.35615 145.678298 
L 713.146524 144.625294 
L 714.936898 143.572251 
L 716.727273 142.519176 
L 718.517647 141.466085 
L 720.308021 140.412971 
L 722.098396 139.35984 
L 723.88877 138.306686 
L 725.679144 137.253532 
L 727.469519 136.200354 
L 729.259893 135.147169 
L 731.050267 134.093975 
L 732.840642 133.040766 
L 734.631016 131.987556 
L 736.42139 130.934339 
L 738.211765 129.881113 
L 740.002139 128.82788 
L 741.792513 127.774639 
L 743.582888 126.721398 
L 745.373262 125.668148 
L 747.163636 124.614899 
L 748.954011 123.561642 
L 750.744385 122.508377 
L 752.534759 121.45512 
L 754.325134 120.401847 
L 756.115508 119.348582 
L 757.905882 118.29531 
L 759.696257 117.242037 
L 761.486631 116.188756 
L 763.277005 115.135475 
L 765.06738 114.082194 
L 766.857754 113.028913 
L 768.648128 111.975625 
" clip-path="url(#pe66be36cd7)" style="fill: none; stroke: #e377c2; stroke-width: 1.5; stroke-linecap: square"/>
   </g>
   <g id="patch_13">
    <path d="M 580.658824 320.4 
L 580.658824 43.2 
" style="fill: none; stroke: #000000; stroke-width: 0.8; stroke-linejoin: miter; stroke-linecap: square"/>
   </g>
   <g id="patch_14">
    <path d="M 777.6 320.4 
L 777.6 43.2 
" style="fill: none; stroke: #000000; stroke-width: 0.8; stroke-linejoin: miter; stroke-linecap: square"/>
   </g>
   <g id="patch_15">
    <path d="M 580.658824 320.4 
L 777.6 320.4 
" style="fill: none; stroke: #000000; stroke-width: 0.8; stroke-linejoin: miter; stroke-linecap: square"/>
   </g>
   <g id="patch_16">
    <path d="M 580.658824 43.2 
L 777.6 43.2 
" style="fill: none; stroke: #000000; stroke-width: 0.8; stroke-linejoin: miter; stroke-linecap: square"/>
   </g>
   <g id="text_40">
    <text style="font: 12px 'sans-serif'; text-anchor: middle" x="679.129412" y="37.2" transform="rotate(-0, 679.129412, 37.2)">kz-cut</text>
   </g>
  </g>
 </g>
 <defs>
  <clipPath id="pfa7d8e5f4f">
   <rect x="108" y="43.2" width="196.941176" height="277.2"/>
  </clipPath>
  <clipPath id="p1de1c7f0c5">
   <rect x="344.329412" y="43.2" width="196.941176" height="277.2"/>
  </clipPath>
  <clipPath id="pe66be36cd7">
   <rect x="580.658824" y="43.2" width="196.941176" height="277.2"/>
  </clipPath>
 </defs>
</svg>
