<?xml version="1.0" encoding="utf-8" standalone="no"?>
<!DOCTYPE svg PUBLIC "-//W3C//DTD SVG 1.1//EN"
  "http://www.w3.org/Graphics/SVG/1.1/DTD/svg11.dtd">
<svg xmlns:xlink="http://www.w3.org/1999/xlink" width="1440pt" height="720pt" viewBox="0 0 1440 720" xmlns="http://www.w3.org/2000/svg" version="1.1">
 <metadata>
  <rdf:RDF xmlns:dc="http://purl.org/dc/elements/1.1/" xmlns:cc="http://creativecommons.org/ns#" xmlns:rdf="http://www.w3.org/1999/02/22-rdf-syntax-ns#">
   <cc:Work>
    <dc:type rdf:resource="http://purl.org/dc/dcmitype/StillImage"/>
    <dc:date>2022-03-28T19:06:40.222818</dc:date>
    <dc:format>image/svg+xml</dc:format>
    <dc:creator>
     <cc:Agent>
      <dc:title>Matplotlib v3.5.1, https://matplotlib.org/</dc:title>
     </cc:Agent>
    </dc:creator>
   </cc:Work>
  </rdf:RDF>
 </metadata>
 <defs>
  <style type="text/css">*{stroke-linejoin: round; stroke-linecap: butt}</style>
 </defs>
 <g id="figure_1">
  <g id="patch_1">
   <path d="M 0 720 
L 1440 720 
L 1440 0 
L 0 0 
z
" style="fill: #ffffff"/>
  </g>
  <g id="axes_1">
   <g id="patch_2">
    <path d="M 180 640.8 
L 508.235294 640.8 
L 508.235294 86.4 
L 180 86.4 
z
" style="fill: #ffffff"/>
   </g>
   <g id="matplotlib.axis_1">
    <g id="xtick_1">
     <g id="line2d_1">
      <defs>
       <path id="m799e36d299" d="M 0 0 
L 0 3.5 
" style="stroke: #000000; stroke-width: 0.8"/>
      </defs>
      <g>
       <use xlink:href="#m799e36d299" x="182.65975" y="640.8" style="stroke: #000000; stroke-width: 0.8"/>
      </g>
     </g>
     <g id="text_1">
      <text style="font: 10px 'sans-serif'; text-anchor: middle" x="182.65975" y="655.398438" transform="rotate(-0, 182.65975, 655.398438)">−0.15</text>
     </g>
    </g>
    <g id="xtick_2">
     <g id="line2d_2">
      <g>
       <use xlink:href="#m799e36d299" x="236.479049" y="640.8" style="stroke: #000000; stroke-width: 0.8"/>
      </g>
     </g>
     <g id="text_2">
      <text style="font: 10px 'sans-serif'; text-anchor: middle" x="236.479049" y="655.398438" transform="rotate(-0, 236.479049, 655.398438)">−0.10</text>
     </g>
    </g>
    <g id="xtick_3">
     <g id="line2d_3">
      <g>
       <use xlink:href="#m799e36d299" x="290.298348" y="640.8" style="stroke: #000000; stroke-width: 0.8"/>
      </g>
     </g>
     <g id="text_3">
      <text style="font: 10px 'sans-serif'; text-anchor: middle" x="290.298348" y="655.398438" transform="rotate(-0, 290.298348, 655.398438)">−0.05</text>
     </g>
    </g>
    <g id="xtick_4">
     <g id="line2d_4">
      <g>
       <use xlink:href="#m799e36d299" x="344.117647" y="640.8" style="stroke: #000000; stroke-width: 0.8"/>
      </g>
     </g>
     <g id="text_4">
      <text style="font: 10px 'sans-serif'; text-anchor: middle" x="344.117647" y="655.398438" transform="rotate(-0, 344.117647, 655.398438)">0.00</text>
     </g>
    </g>
    <g id="xtick_5">
     <g id="line2d_5">
      <g>
       <use xlink:href="#m799e36d299" x="397.936946" y="640.8" style="stroke: #000000; stroke-width: 0.8"/>
      </g>
     </g>
     <g id="text_5">
      <text style="font: 10px 'sans-serif'; text-anchor: middle" x="397.936946" y="655.398438" transform="rotate(-0, 397.936946, 655.398438)">0.05</text>
     </g>
    </g>
    <g id="xtick_6">
     <g id="line2d_6">
      <g>
       <use xlink:href="#m799e36d299" x="451.756245" y="640.8" style="stroke: #000000; stroke-width: 0.8"/>
      </g>
     </g>
     <g id="text_6">
      <text style="font: 10px 'sans-serif'; text-anchor: middle" x="451.756245" y="655.398438" transform="rotate(-0, 451.756245, 655.398438)">0.10</text>
     </g>
    </g>
    <g id="xtick_7">
     <g id="line2d_7">
      <g>
       <use xlink:href="#m799e36d299" x="505.575544" y="640.8" style="stroke: #000000; stroke-width: 0.8"/>
      </g>
     </g>
     <g id="text_7">
      <text style="font: 10px 'sans-serif'; text-anchor: middle" x="505.575544" y="655.398438" transform="rotate(-0, 505.575544, 655.398438)">0.15</text>
     </g>
    </g>
    <g id="text_8">
     <text style="font: 10px 'sans-serif'; text-anchor: middle" x="344.117647" y="669.076563" transform="rotate(-0, 344.117647, 669.076563)">kx</text>
    </g>
   </g>
   <g id="matplotlib.axis_2">
    <g id="ytick_1">
     <g id="line2d_8">
      <defs>
       <path id="m2bfc2029ea" d="M 0 0 
L -3.5 0 
" style="stroke: #000000; stroke-width: 0.8"/>
      </defs>
      <g>
       <use xlink:href="#m2bfc2029ea" x="180" y="606.15" style="stroke: #000000; stroke-width: 0.8"/>
      </g>
     </g>
     <g id="text_9">
      <text style="font: 10px 'sans-serif'; text-anchor: end" x="173" y="609.949219" transform="rotate(-0, 173, 609.949219)">−12</text>
     </g>
    </g>
    <g id="ytick_2">
     <g id="line2d_9">
      <g>
       <use xlink:href="#m2bfc2029ea" x="180" y="536.85" style="stroke: #000000; stroke-width: 0.8"/>
      </g>
     </g>
     <g id="text_10">
      <text style="font: 10px 'sans-serif'; text-anchor: end" x="173" y="540.649219" transform="rotate(-0, 173, 540.649219)">−10</text>
     </g>
    </g>
    <g id="ytick_3">
     <g id="line2d_10">
      <g>
       <use xlink:href="#m2bfc2029ea" x="180" y="467.55" style="stroke: #000000; stroke-width: 0.8"/>
      </g>
     </g>
     <g id="text_11">
      <text style="font: 10px 'sans-serif'; text-anchor: end" x="173" y="471.349219" transform="rotate(-0, 173, 471.349219)">−8</text>
     </g>
    </g>
    <g id="ytick_4">
     <g id="line2d_11">
      <g>
       <use xlink:href="#m2bfc2029ea" x="180" y="398.25" style="stroke: #000000; stroke-width: 0.8"/>
      </g>
     </g>
     <g id="text_12">
      <text style="font: 10px 'sans-serif'; text-anchor: end" x="173" y="402.049219" transform="rotate(-0, 173, 402.049219)">−6</text>
     </g>
    </g>
    <g id="ytick_5">
     <g id="line2d_12">
      <g>
       <use xlink:href="#m2bfc2029ea" x="180" y="328.95" style="stroke: #000000; stroke-width: 0.8"/>
      </g>
     </g>
     <g id="text_13">
      <text style="font: 10px 'sans-serif'; text-anchor: end" x="173" y="332.749219" transform="rotate(-0, 173, 332.749219)">−4</text>
     </g>
    </g>
    <g id="ytick_6">
     <g id="line2d_13">
      <g>
       <use xlink:href="#m2bfc2029ea" x="180" y="259.65" style="stroke: #000000; stroke-width: 0.8"/>
      </g>
     </g>
     <g id="text_14">
      <text style="font: 10px 'sans-serif'; text-anchor: end" x="173" y="263.449219" transform="rotate(-0, 173, 263.449219)">−2</text>
     </g>
    </g>
    <g id="ytick_7">
     <g id="line2d_14">
      <g>
       <use xlink:href="#m2bfc2029ea" x="180" y="190.35" style="stroke: #000000; stroke-width: 0.8"/>
      </g>
     </g>
     <g id="text_15">
      <text style="font: 10px 'sans-serif'; text-anchor: end" x="173" y="194.149219" transform="rotate(-0, 173, 194.149219)">0</text>
     </g>
    </g>
    <g id="ytick_8">
     <g id="line2d_15">
      <g>
       <use xlink:href="#m2bfc2029ea" x="180" y="121.05" style="stroke: #000000; stroke-width: 0.8"/>
      </g>
     </g>
     <g id="text_16">
      <text style="font: 10px 'sans-serif'; text-anchor: end" x="173" y="124.849219" transform="rotate(-0, 173, 124.849219)">2</text>
     </g>
    </g>
    <g id="text_17">
     <text style="font: 10px 'sans-serif'; text-anchor: middle" x="145.815625" y="363.6" transform="rotate(-90, 145.815625, 363.6)">Energy</text>
    </g>
   </g>
   <g id="line2d_16">
    <path d="M 194.919786 603.429945 
L 197.903743 603.475465 
L 200.887701 603.520047 
L 203.871658 603.563694 
L 206.855615 603.606406 
L 209.839572 603.648184 
L 212.823529 603.689028 
L 215.807487 603.728941 
L 218.791444 603.767922 
L 221.775401 603.805972 
L 224.759358 603.843094 
L 227.743316 603.879286 
L 230.727273 603.914551 
L 233.71123 603.948889 
L 236.695187 603.982301 
L 239.679144 604.014787 
L 242.663102 604.046349 
L 245.647059 604.076987 
L 248.631016 604.106703 
L 251.614973 604.135496 
L 254.59893 604.163367 
L 257.582888 604.190318 
L 260.566845 604.216348 
L 263.550802 604.241459 
L 266.534759 604.265651 
L 269.518717 604.288925 
L 272.502674 604.311281 
L 275.486631 604.33272 
L 278.470588 604.353243 
L 281.454545 604.37285 
L 284.438503 604.391541 
L 287.42246 604.409317 
L 290.406417 604.426179 
L 293.390374 604.442127 
L 296.374332 604.457161 
L 299.358289 604.471282 
L 302.342246 604.484491 
L 305.326203 604.496786 
L 308.31016 604.50817 
L 311.294118 604.518642 
L 314.278075 604.528202 
L 317.262032 604.536851 
L 320.245989 604.544589 
L 323.229947 604.551416 
L 326.213904 604.557333 
L 329.197861 604.562338 
L 332.181818 604.566434 
L 335.165775 604.569619 
L 338.149733 604.571895 
L 341.13369 604.57326 
L 344.117647 604.573715 
L 347.101604 604.57326 
L 350.085561 604.571895 
L 353.069519 604.569619 
L 356.053476 604.566434 
L 359.037433 604.562338 
L 362.02139 604.557333 
L 365.005348 604.551416 
L 367.989305 604.544589 
L 370.973262 604.536851 
L 373.957219 604.528202 
L 376.941176 604.518642 
L 379.925134 604.50817 
L 382.909091 604.496786 
L 385.893048 604.484491 
L 388.877005 604.471282 
L 391.860963 604.457161 
L 394.84492 604.442127 
L 397.828877 604.426179 
L 400.812834 604.409317 
L 403.796791 604.391541 
L 406.780749 604.37285 
L 409.764706 604.353243 
L 412.748663 604.33272 
L 415.73262 604.311281 
L 418.716578 604.288925 
L 421.700535 604.265651 
L 424.684492 604.241459 
L 427.668449 604.216348 
L 430.652406 604.190318 
L 433.636364 604.163367 
L 436.620321 604.135496 
L 439.604278 604.106703 
L 442.588235 604.076987 
L 445.572193 604.046349 
L 448.55615 604.014787 
L 451.540107 603.982301 
L 454.524064 603.948889 
L 457.508021 603.914551 
L 460.491979 603.879286 
L 463.475936 603.843094 
L 466.459893 603.805972 
L 469.44385 603.767922 
L 472.427807 603.728941 
L 475.411765 603.689028 
L 478.395722 603.648184 
L 481.379679 603.606406 
L 484.363636 603.563694 
L 487.347594 603.520047 
L 490.331551 603.475465 
L 493.315508 603.429945 
" clip-path="url(#p833608d219)" style="fill: none; stroke: #000000; stroke-width: 1.5; stroke-linecap: square"/>
   </g>
   <g id="line2d_17">
    <path d="M 194.919786 591.11989 
L 197.903743 591.159124 
L 200.887701 591.197748 
L 203.871658 591.235752 
L 206.855615 591.273126 
L 209.839572 591.309857 
L 212.823529 591.345937 
L 215.807487 591.381354 
L 218.791444 591.416098 
L 221.775401 591.450159 
L 224.759358 591.483529 
L 227.743316 591.516197 
L 230.727273 591.548155 
L 233.71123 591.579393 
L 236.695187 591.609903 
L 239.679144 591.639676 
L 242.663102 591.668704 
L 245.647059 591.696979 
L 248.631016 591.724493 
L 251.614973 591.751239 
L 254.59893 591.777209 
L 257.582888 591.802397 
L 260.566845 591.826795 
L 263.550802 591.850397 
L 266.534759 591.873196 
L 269.518717 591.895186 
L 272.502674 591.916362 
L 275.486631 591.936717 
L 278.470588 591.956246 
L 281.454545 591.974944 
L 284.438503 591.992805 
L 287.42246 592.009826 
L 290.406417 592.026001 
L 293.390374 592.041327 
L 296.374332 592.055798 
L 299.358289 592.069412 
L 302.342246 592.082164 
L 305.326203 592.094052 
L 308.31016 592.105071 
L 311.294118 592.11522 
L 314.278075 592.124496 
L 317.262032 592.132895 
L 320.245989 592.140416 
L 323.229947 592.147057 
L 326.213904 592.152816 
L 329.197861 592.157692 
L 332.181818 592.161682 
L 335.165775 592.164788 
L 338.149733 592.167006 
L 341.13369 592.168337 
L 344.117647 592.168781 
L 347.101604 592.168337 
L 350.085561 592.167006 
L 353.069519 592.164788 
L 356.053476 592.161682 
L 359.037433 592.157692 
L 362.02139 592.152816 
L 365.005348 592.147057 
L 367.989305 592.140416 
L 370.973262 592.132895 
L 373.957219 592.124496 
L 376.941176 592.11522 
L 379.925134 592.105071 
L 382.909091 592.094052 
L 385.893048 592.082164 
L 388.877005 592.069412 
L 391.860963 592.055798 
L 394.84492 592.041327 
L 397.828877 592.026001 
L 400.812834 592.009826 
L 403.796791 591.992805 
L 406.780749 591.974944 
L 409.764706 591.956246 
L 412.748663 591.936717 
L 415.73262 591.916362 
L 418.716578 591.895186 
L 421.700535 591.873196 
L 424.684492 591.850397 
L 427.668449 591.826795 
L 430.652406 591.802397 
L 433.636364 591.777209 
L 436.620321 591.751239 
L 439.604278 591.724493 
L 442.588235 591.696979 
L 445.572193 591.668704 
L 448.55615 591.639676 
L 451.540107 591.609903 
L 454.524064 591.579393 
L 457.508021 591.548155 
L 460.491979 591.516197 
L 463.475936 591.483529 
L 466.459893 591.450159 
L 469.44385 591.416098 
L 472.427807 591.381354 
L 475.411765 591.345937 
L 478.395722 591.309857 
L 481.379679 591.273126 
L 484.363636 591.235752 
L 487.347594 591.197748 
L 490.331551 591.159124 
L 493.315508 591.11989 
" clip-path="url(#p833608d219)" style="fill: none; stroke: #008000; stroke-width: 1.5; stroke-linecap: square"/>
   </g>
   <g id="line2d_18">
    <path d="M 194.919786 275.082076 
L 197.903743 274.364044 
L 200.887701 273.650601 
L 203.871658 272.942024 
L 206.855615 272.238597 
L 209.839572 271.540614 
L 212.823529 270.848379 
L 215.807487 270.162205 
L 218.791444 269.482416 
L 221.775401 268.809345 
L 224.759358 268.143336 
L 227.743316 267.484745 
L 230.727273 266.833936 
L 233.71123 266.191286 
L 236.695187 265.557183 
L 239.679144 264.932025 
L 242.663102 264.316223 
L 245.647059 263.710196 
L 248.631016 263.114378 
L 251.614973 262.529209 
L 254.59893 261.955144 
L 257.582888 261.392646 
L 260.566845 260.842186 
L 263.550802 260.304248 
L 266.534759 259.779322 
L 269.518717 259.267905 
L 272.502674 258.770503 
L 275.486631 258.287628 
L 278.470588 257.819795 
L 281.454545 257.367525 
L 284.438503 256.931341 
L 287.42246 256.511768 
L 290.406417 256.109332 
L 293.390374 255.724558 
L 296.374332 255.357969 
L 299.358289 255.010085 
L 302.342246 254.681423 
L 305.326203 254.372495 
L 308.31016 254.083805 
L 311.294118 253.815852 
L 314.278075 253.569124 
L 317.262032 253.344101 
L 320.245989 253.141244 
L 323.229947 252.961001 
L 326.213904 252.803795 
L 329.197861 252.67002 
L 332.181818 252.560031 
L 335.165775 252.474138 
L 338.149733 252.412595 
L 341.13369 252.375592 
L 344.117647 252.363244 
L 347.101604 252.375592 
L 350.085561 252.412595 
L 353.069519 252.474138 
L 356.053476 252.560031 
L 359.037433 252.67002 
L 362.02139 252.803795 
L 365.005348 252.961001 
L 367.989305 253.141244 
L 370.973262 253.344101 
L 373.957219 253.569124 
L 376.941176 253.815852 
L 379.925134 254.083805 
L 382.909091 254.372495 
L 385.893048 254.681423 
L 388.877005 255.010085 
L 391.860963 255.357969 
L 394.84492 255.724558 
L 397.828877 256.109332 
L 400.812834 256.511768 
L 403.796791 256.931341 
L 406.780749 257.367525 
L 409.764706 257.819795 
L 412.748663 258.287628 
L 415.73262 258.770503 
L 418.716578 259.267905 
L 421.700535 259.779322 
L 424.684492 260.304248 
L 427.668449 260.842186 
L 430.652406 261.392646 
L 433.636364 261.955144 
L 436.620321 262.529209 
L 439.604278 263.114378 
L 442.588235 263.710196 
L 445.572193 264.316223 
L 448.55615 264.932025 
L 451.540107 265.557183 
L 454.524064 266.191286 
L 457.508021 266.833936 
L 460.491979 267.484745 
L 463.475936 268.143336 
L 466.459893 268.809345 
L 469.44385 269.482416 
L 472.427807 270.162205 
L 475.411765 270.848379 
L 478.395722 271.540614 
L 481.379679 272.238597 
L 484.363636 272.942024 
L 487.347594 273.650601 
L 490.331551 274.364044 
L 493.315508 275.082076 
" clip-path="url(#p833608d219)" style="fill: none; stroke: #1f77b4; stroke-width: 1.5; stroke-linecap: square"/>
   </g>
   <g id="line2d_19">
    <path d="M 194.919786 250.776366 
L 197.903743 250.602223 
L 200.887701 250.437291 
L 203.871658 250.281182 
L 206.855615 250.133516 
L 209.839572 249.993916 
L 212.823529 249.862016 
L 215.807487 249.73746 
L 218.791444 249.6199 
L 221.775401 249.509003 
L 224.759358 249.404447 
L 227.743316 249.305922 
L 230.727273 249.213132 
L 233.71123 249.125794 
L 236.695187 249.043637 
L 239.679144 248.966404 
L 242.663102 248.893852 
L 245.647059 248.82575 
L 248.631016 248.761878 
L 251.614973 248.70203 
L 254.59893 248.646012 
L 257.582888 248.59364 
L 260.566845 248.544741 
L 263.550802 248.499155 
L 266.534759 248.45673 
L 269.518717 248.417324 
L 272.502674 248.380804 
L 275.486631 248.347044 
L 278.470588 248.315929 
L 281.454545 248.287349 
L 284.438503 248.261199 
L 287.42246 248.23738 
L 290.406417 248.215799 
L 293.390374 248.196364 
L 296.374332 248.178983 
L 299.358289 248.163566 
L 302.342246 248.150021 
L 305.326203 248.138251 
L 308.31016 248.128154 
L 311.294118 248.119623 
L 314.278075 248.112539 
L 317.262032 248.106775 
L 320.245989 248.102196 
L 323.229947 248.098658 
L 326.213904 248.09601 
L 329.197861 248.094101 
L 332.181818 248.092783 
L 335.165775 248.091921 
L 338.149733 248.091397 
L 341.13369 248.091121 
L 344.117647 248.091035 
L 347.101604 248.091121 
L 350.085561 248.091397 
L 353.069519 248.091921 
L 356.053476 248.092783 
L 359.037433 248.094101 
L 362.02139 248.09601 
L 365.005348 248.098658 
L 367.989305 248.102196 
L 370.973262 248.106775 
L 373.957219 248.112539 
L 376.941176 248.119623 
L 379.925134 248.128154 
L 382.909091 248.138251 
L 385.893048 248.150021 
L 388.877005 248.163566 
L 391.860963 248.178983 
L 394.84492 248.196364 
L 397.828877 248.215799 
L 400.812834 248.23738 
L 403.796791 248.261199 
L 406.780749 248.287349 
L 409.764706 248.315929 
L 412.748663 248.347044 
L 415.73262 248.380804 
L 418.716578 248.417324 
L 421.700535 248.45673 
L 424.684492 248.499155 
L 427.668449 248.544741 
L 430.652406 248.59364 
L 433.636364 248.646012 
L 436.620321 248.70203 
L 439.604278 248.761878 
L 442.588235 248.82575 
L 445.572193 248.893852 
L 448.55615 248.966404 
L 451.540107 249.043637 
L 454.524064 249.125794 
L 457.508021 249.213132 
L 460.491979 249.305922 
L 463.475936 249.404447 
L 466.459893 249.509003 
L 469.44385 249.6199 
L 472.427807 249.73746 
L 475.411765 249.862016 
L 478.395722 249.993916 
L 481.379679 250.133516 
L 484.363636 250.281182 
L 487.347594 250.437291 
L 490.331551 250.602223 
L 493.315508 250.776366 
" clip-path="url(#p833608d219)" style="fill: none; stroke: #2ca02c; stroke-width: 1.5; stroke-linecap: square"/>
   </g>
   <g id="line2d_20">
    <path d="M 194.919786 219.978899 
L 197.903743 219.4586 
L 200.887701 218.930833 
L 203.871658 218.396089 
L 206.855615 217.854853 
L 209.839572 217.307606 
L 212.823529 216.754819 
L 215.807487 216.196957 
L 218.791444 215.634471 
L 221.775401 215.067803 
L 224.759358 214.497381 
L 227.743316 213.923623 
L 230.727273 213.346929 
L 233.71123 212.767689 
L 236.695187 212.186275 
L 239.679144 211.603045 
L 242.663102 211.018342 
L 245.647059 210.432494 
L 248.631016 209.845811 
L 251.614973 209.258588 
L 254.59893 208.671101 
L 257.582888 208.083613 
L 260.566845 207.496365 
L 263.550802 206.909582 
L 266.534759 206.323471 
L 269.518717 205.73822 
L 272.502674 205.153996 
L 275.486631 204.570949 
L 278.470588 203.989207 
L 281.454545 203.408877 
L 284.438503 202.830045 
L 287.42246 202.252778 
L 290.406417 201.677119 
L 293.390374 201.10309 
L 296.374332 200.530691 
L 299.358289 199.959901 
L 302.342246 199.390677 
L 305.326203 198.822958 
L 308.31016 198.256661 
L 311.294118 197.691687 
L 314.278075 197.127921 
L 317.262032 196.565236 
L 320.245989 196.003497 
L 323.229947 195.442573 
L 326.213904 194.882348 
L 329.197861 194.322759 
L 332.181818 193.763868 
L 335.165775 193.206096 
L 338.149733 192.651107 
L 341.13369 192.107552 
L 344.117647 191.716776 
L 347.101604 192.107552 
L 350.085561 192.651107 
L 353.069519 193.206096 
L 356.053476 193.763868 
L 359.037433 194.322759 
L 362.02139 194.882348 
L 365.005348 195.442573 
L 367.989305 196.003497 
L 370.973262 196.565236 
L 373.957219 197.127921 
L 376.941176 197.691687 
L 379.925134 198.256661 
L 382.909091 198.822958 
L 385.893048 199.390677 
L 388.877005 199.959901 
L 391.860963 200.530691 
L 394.84492 201.10309 
L 397.828877 201.677119 
L 400.812834 202.252778 
L 403.796791 202.830045 
L 406.780749 203.408877 
L 409.764706 203.989207 
L 412.748663 204.570949 
L 415.73262 205.153996 
L 418.716578 205.73822 
L 421.700535 206.323471 
L 424.684492 206.909582 
L 427.668449 207.496365 
L 430.652406 208.083613 
L 433.636364 208.671101 
L 436.620321 209.258588 
L 439.604278 209.845811 
L 442.588235 210.432494 
L 445.572193 211.018342 
L 448.55615 211.603045 
L 451.540107 212.186275 
L 454.524064 212.767689 
L 457.508021 213.346929 
L 460.491979 213.923623 
L 463.475936 214.497381 
L 466.459893 215.067803 
L 469.44385 215.634471 
L 472.427807 216.196957 
L 475.411765 216.754819 
L 478.395722 217.307606 
L 481.379679 217.854853 
L 484.363636 218.396089 
L 487.347594 218.930833 
L 490.331551 219.4586 
L 493.315508 219.978899 
" clip-path="url(#p833608d219)" style="fill: none; stroke: #9467bd; stroke-width: 1.5; stroke-linecap: square"/>
   </g>
   <g id="line2d_21">
    <path d="M 194.919786 172.132694 
L 197.903743 172.088304 
L 200.887701 172.04626 
L 203.871658 172.007304 
L 206.855615 171.972372 
L 209.839572 171.942648 
L 212.823529 171.919636 
L 215.807487 171.905247 
L 218.791444 171.901906 
L 221.775401 171.912674 
L 224.759358 171.941383 
L 227.743316 171.992731 
L 230.727273 172.072299 
L 233.71123 172.186382 
L 236.695187 172.341519 
L 239.679144 172.543662 
L 242.663102 172.797098 
L 245.647059 173.103471 
L 248.631016 173.461357 
L 251.614973 173.866615 
L 254.59893 174.313326 
L 257.582888 174.794872 
L 260.566845 175.304796 
L 263.550802 175.837303 
L 266.534759 176.387457 
L 269.518717 176.951187 
L 272.502674 177.525194 
L 275.486631 178.106829 
L 278.470588 178.693972 
L 281.454545 179.284925 
L 284.438503 179.878329 
L 287.42246 180.473092 
L 290.406417 181.068335 
L 293.390374 181.663352 
L 296.374332 182.257576 
L 299.358289 182.850558 
L 302.342246 183.441941 
L 305.326203 184.03145 
L 308.31016 184.618879 
L 311.294118 185.204078 
L 314.278075 185.786947 
L 317.262032 186.367428 
L 320.245989 186.945492 
L 323.229947 187.521132 
L 326.213904 188.094344 
L 329.197861 188.66509 
L 332.181818 189.233223 
L 335.165775 189.798252 
L 338.149733 190.358463 
L 341.13369 190.905165 
L 344.117647 191.296994 
L 347.101604 190.905165 
L 350.085561 190.358463 
L 353.069519 189.798252 
L 356.053476 189.233223 
L 359.037433 188.66509 
L 362.02139 188.094344 
L 365.005348 187.521132 
L 367.989305 186.945492 
L 370.973262 186.367428 
L 373.957219 185.786947 
L 376.941176 185.204078 
L 379.925134 184.618879 
L 382.909091 184.03145 
L 385.893048 183.441941 
L 388.877005 182.850558 
L 391.860963 182.257576 
L 394.84492 181.663352 
L 397.828877 181.068335 
L 400.812834 180.473092 
L 403.796791 179.878329 
L 406.780749 179.284925 
L 409.764706 178.693972 
L 412.748663 178.106829 
L 415.73262 177.525194 
L 418.716578 176.951187 
L 421.700535 176.387457 
L 424.684492 175.837303 
L 427.668449 175.304796 
L 430.652406 174.794872 
L 433.636364 174.313326 
L 436.620321 173.866615 
L 439.604278 173.461357 
L 442.588235 173.103471 
L 445.572193 172.797098 
L 448.55615 172.543662 
L 451.540107 172.341519 
L 454.524064 172.186382 
L 457.508021 172.072299 
L 460.491979 171.992731 
L 463.475936 171.941383 
L 466.459893 171.912674 
L 469.44385 171.901906 
L 472.427807 171.905247 
L 475.411765 171.919636 
L 478.395722 171.942648 
L 481.379679 171.972372 
L 484.363636 172.007304 
L 487.347594 172.04626 
L 490.331551 172.088304 
L 493.315508 172.132694 
" clip-path="url(#p833608d219)" style="fill: none; stroke: #e377c2; stroke-width: 1.5; stroke-linecap: square"/>
   </g>
   <g id="line2d_22">
    <path d="M 194.919786 157.731674 
L 197.903743 158.416532 
L 200.887701 159.095603 
L 203.871658 159.767913 
L 206.855615 160.43229 
L 209.839572 161.087304 
L 212.823529 161.731201 
L 215.807487 162.361814 
L 218.791444 162.976455 
L 221.775401 163.571793 
L 224.759358 164.143724 
L 227.743316 164.68727 
L 230.727273 165.196564 
L 233.71123 165.665024 
L 236.695187 166.085818 
L 239.679144 166.4527 
L 242.663102 166.761084 
L 245.647059 167.009028 
L 248.631016 167.197656 
L 251.614973 167.330813 
L 254.59893 167.414122 
L 257.582888 167.453911 
L 260.566845 167.456353 
L 263.550802 167.426966 
L 266.534759 167.370421 
L 269.518717 167.290537 
L 272.502674 167.19038 
L 275.486631 167.072384 
L 278.470588 166.938479 
L 281.454545 166.790204 
L 284.438503 166.628792 
L 287.42246 166.455253 
L 290.406417 166.270434 
L 293.390374 166.075068 
L 296.374332 165.869825 
L 299.358289 165.655344 
L 302.342246 165.432283 
L 305.326203 165.201357 
L 308.31016 164.963387 
L 311.294118 164.719368 
L 314.278075 164.470543 
L 317.262032 164.218523 
L 320.245989 163.965435 
L 323.229947 163.71415 
L 326.213904 163.468581 
L 329.197861 163.234094 
L 332.181818 163.017981 
L 335.165775 162.829848 
L 338.149733 162.681487 
L 341.13369 162.585498 
L 344.117647 162.552154 
L 347.101604 162.585498 
L 350.085561 162.681487 
L 353.069519 162.829848 
L 356.053476 163.017981 
L 359.037433 163.234094 
L 362.02139 163.468581 
L 365.005348 163.71415 
L 367.989305 163.965435 
L 370.973262 164.218523 
L 373.957219 164.470543 
L 376.941176 164.719368 
L 379.925134 164.963387 
L 382.909091 165.201357 
L 385.893048 165.432283 
L 388.877005 165.655344 
L 391.860963 165.869825 
L 394.84492 166.075068 
L 397.828877 166.270434 
L 400.812834 166.455253 
L 403.796791 166.628792 
L 406.780749 166.790204 
L 409.764706 166.938479 
L 412.748663 167.072384 
L 415.73262 167.19038 
L 418.716578 167.290537 
L 421.700535 167.370421 
L 424.684492 167.426966 
L 427.668449 167.456353 
L 430.652406 167.453911 
L 433.636364 167.414122 
L 436.620321 167.330813 
L 439.604278 167.197656 
L 442.588235 167.009028 
L 445.572193 166.761084 
L 448.55615 166.4527 
L 451.540107 166.085818 
L 454.524064 165.665024 
L 457.508021 165.196564 
L 460.491979 164.68727 
L 463.475936 164.143724 
L 466.459893 163.571793 
L 469.44385 162.976455 
L 472.427807 162.361814 
L 475.411765 161.731201 
L 478.395722 161.087304 
L 481.379679 160.43229 
L 484.363636 159.767913 
L 487.347594 159.095603 
L 490.331551 158.416532 
L 493.315508 157.731674 
" clip-path="url(#p833608d219)" style="fill: none; stroke: #bcbd22; stroke-width: 1.5; stroke-linecap: square"/>
   </g>
   <g id="line2d_23">
    <path d="M 194.919786 133.008311 
L 197.903743 133.620389 
L 200.887701 134.232281 
L 203.871658 134.843872 
L 206.855615 135.455041 
L 209.839572 136.065664 
L 212.823529 136.675612 
L 215.807487 137.284751 
L 218.791444 137.892943 
L 221.775401 138.500043 
L 224.759358 139.105902 
L 227.743316 139.710365 
L 230.727273 140.313271 
L 233.71123 140.914453 
L 236.695187 141.513738 
L 239.679144 142.110944 
L 242.663102 142.705885 
L 245.647059 143.298366 
L 248.631016 143.888182 
L 251.614973 144.475125 
L 254.59893 145.058973 
L 257.582888 145.639497 
L 260.566845 146.216458 
L 263.550802 146.789606 
L 266.534759 147.358679 
L 269.518717 147.923403 
L 272.502674 148.483489 
L 275.486631 149.038632 
L 278.470588 149.58851 
L 281.454545 150.132779 
L 284.438503 150.671075 
L 287.42246 151.203 
L 290.406417 151.728127 
L 293.390374 152.245983 
L 296.374332 152.756048 
L 299.358289 153.257732 
L 302.342246 153.750363 
L 305.326203 154.233159 
L 308.31016 154.705191 
L 311.294118 155.165336 
L 314.278075 155.612197 
L 317.262032 156.04401 
L 320.245989 156.458484 
L 323.229947 156.852594 
L 326.213904 157.222279 
L 329.197861 157.562035 
L 332.181818 157.864451 
L 335.165775 158.119818 
L 338.149733 158.316264 
L 341.13369 158.441128 
L 344.117647 158.484101 
L 347.101604 158.441128 
L 350.085561 158.316264 
L 353.069519 158.119818 
L 356.053476 157.864451 
L 359.037433 157.562035 
L 362.02139 157.222279 
L 365.005348 156.852594 
L 367.989305 156.458484 
L 370.973262 156.04401 
L 373.957219 155.612197 
L 376.941176 155.165336 
L 379.925134 154.705191 
L 382.909091 154.233159 
L 385.893048 153.750363 
L 388.877005 153.257732 
L 391.860963 152.756048 
L 394.84492 152.245983 
L 397.828877 151.728127 
L 400.812834 151.203 
L 403.796791 150.671075 
L 406.780749 150.132779 
L 409.764706 149.58851 
L 412.748663 149.038632 
L 415.73262 148.483489 
L 418.716578 147.923403 
L 421.700535 147.358679 
L 424.684492 146.789606 
L 427.668449 146.216458 
L 430.652406 145.639497 
L 433.636364 145.058973 
L 436.620321 144.475125 
L 439.604278 143.888182 
L 442.588235 143.298366 
L 445.572193 142.705885 
L 448.55615 142.110944 
L 451.540107 141.513738 
L 454.524064 140.914453 
L 457.508021 140.313271 
L 460.491979 139.710365 
L 463.475936 139.105902 
L 466.459893 138.500043 
L 469.44385 137.892943 
L 472.427807 137.284751 
L 475.411765 136.675612 
L 478.395722 136.065664 
L 481.379679 135.455041 
L 484.363636 134.843872 
L 487.347594 134.232281 
L 490.331551 133.620389 
L 493.315508 133.008311 
" clip-path="url(#p833608d219)" style="fill: none; stroke: #000080; stroke-width: 1.5; stroke-linecap: square"/>
   </g>
   <g id="patch_3">
    <path d="M 180 640.8 
L 180 86.4 
" style="fill: none; stroke: #000000; stroke-width: 0.8; stroke-linejoin: miter; stroke-linecap: square"/>
   </g>
   <g id="patch_4">
    <path d="M 508.235294 640.8 
L 508.235294 86.4 
" style="fill: none; stroke: #000000; stroke-width: 0.8; stroke-linejoin: miter; stroke-linecap: square"/>
   </g>
   <g id="patch_5">
    <path d="M 180 640.8 
L 508.235294 640.8 
" style="fill: none; stroke: #000000; stroke-width: 0.8; stroke-linejoin: miter; stroke-linecap: square"/>
   </g>
   <g id="patch_6">
    <path d="M 180 86.4 
L 508.235294 86.4 
" style="fill: none; stroke: #000000; stroke-width: 0.8; stroke-linejoin: miter; stroke-linecap: square"/>
   </g>
   <g id="text_18">
    <text style="font: 12px 'sans-serif'; text-anchor: middle" x="344.117647" y="80.4" transform="rotate(-0, 344.117647, 80.4)">16-full bands</text>
   </g>
  </g>
  <g id="axes_2">
   <g id="patch_7">
    <path d="M 573.882353 640.8 
L 902.117647 640.8 
L 902.117647 86.4 
L 573.882353 86.4 
z
" style="fill: #ffffff"/>
   </g>
   <g id="matplotlib.axis_3">
    <g id="xtick_8">
     <g id="line2d_24">
      <g>
       <use xlink:href="#m799e36d299" x="608.833682" y="640.8" style="stroke: #000000; stroke-width: 0.8"/>
      </g>
     </g>
     <g id="text_19">
      <text style="font: 10px 'sans-serif'; text-anchor: middle" x="608.833682" y="655.398438" transform="rotate(-0, 608.833682, 655.398438)">−0.06</text>
     </g>
    </g>
    <g id="xtick_9">
     <g id="line2d_25">
      <g>
       <use xlink:href="#m799e36d299" x="651.889121" y="640.8" style="stroke: #000000; stroke-width: 0.8"/>
      </g>
     </g>
     <g id="text_20">
      <text style="font: 10px 'sans-serif'; text-anchor: middle" x="651.889121" y="655.398438" transform="rotate(-0, 651.889121, 655.398438)">−0.04</text>
     </g>
    </g>
    <g id="xtick_10">
     <g id="line2d_26">
      <g>
       <use xlink:href="#m799e36d299" x="694.944561" y="640.8" style="stroke: #000000; stroke-width: 0.8"/>
      </g>
     </g>
     <g id="text_21">
      <text style="font: 10px 'sans-serif'; text-anchor: middle" x="694.944561" y="655.398438" transform="rotate(-0, 694.944561, 655.398438)">−0.02</text>
     </g>
    </g>
    <g id="xtick_11">
     <g id="line2d_27">
      <g>
       <use xlink:href="#m799e36d299" x="738" y="640.8" style="stroke: #000000; stroke-width: 0.8"/>
      </g>
     </g>
     <g id="text_22">
      <text style="font: 10px 'sans-serif'; text-anchor: middle" x="738" y="655.398438" transform="rotate(-0, 738, 655.398438)">0.00</text>
     </g>
    </g>
    <g id="xtick_12">
     <g id="line2d_28">
      <g>
       <use xlink:href="#m799e36d299" x="781.055439" y="640.8" style="stroke: #000000; stroke-width: 0.8"/>
      </g>
     </g>
     <g id="text_23">
      <text style="font: 10px 'sans-serif'; text-anchor: middle" x="781.055439" y="655.398438" transform="rotate(-0, 781.055439, 655.398438)">0.02</text>
     </g>
    </g>
    <g id="xtick_13">
     <g id="line2d_29">
      <g>
       <use xlink:href="#m799e36d299" x="824.110879" y="640.8" style="stroke: #000000; stroke-width: 0.8"/>
      </g>
     </g>
     <g id="text_24">
      <text style="font: 10px 'sans-serif'; text-anchor: middle" x="824.110879" y="655.398438" transform="rotate(-0, 824.110879, 655.398438)">0.04</text>
     </g>
    </g>
    <g id="xtick_14">
     <g id="line2d_30">
      <g>
       <use xlink:href="#m799e36d299" x="867.166318" y="640.8" style="stroke: #000000; stroke-width: 0.8"/>
      </g>
     </g>
     <g id="text_25">
      <text style="font: 10px 'sans-serif'; text-anchor: middle" x="867.166318" y="655.398438" transform="rotate(-0, 867.166318, 655.398438)">0.06</text>
     </g>
    </g>
    <g id="text_26">
     <text style="font: 10px 'sans-serif'; text-anchor: middle" x="738" y="669.076563" transform="rotate(-0, 738, 669.076563)">kx</text>
    </g>
   </g>
   <g id="matplotlib.axis_4">
    <g id="ytick_9">
     <g id="line2d_31">
      <g>
       <use xlink:href="#m2bfc2029ea" x="573.882353" y="606.15" style="stroke: #000000; stroke-width: 0.8"/>
      </g>
     </g>
     <g id="text_27">
      <text style="font: 10px 'sans-serif'; text-anchor: end" x="566.882353" y="609.949219" transform="rotate(-0, 566.882353, 609.949219)">−12</text>
     </g>
    </g>
    <g id="ytick_10">
     <g id="line2d_32">
      <g>
       <use xlink:href="#m2bfc2029ea" x="573.882353" y="536.85" style="stroke: #000000; stroke-width: 0.8"/>
      </g>
     </g>
     <g id="text_28">
      <text style="font: 10px 'sans-serif'; text-anchor: end" x="566.882353" y="540.649219" transform="rotate(-0, 566.882353, 540.649219)">−10</text>
     </g>
    </g>
    <g id="ytick_11">
     <g id="line2d_33">
      <g>
       <use xlink:href="#m2bfc2029ea" x="573.882353" y="467.55" style="stroke: #000000; stroke-width: 0.8"/>
      </g>
     </g>
     <g id="text_29">
      <text style="font: 10px 'sans-serif'; text-anchor: end" x="566.882353" y="471.349219" transform="rotate(-0, 566.882353, 471.349219)">−8</text>
     </g>
    </g>
    <g id="ytick_12">
     <g id="line2d_34">
      <g>
       <use xlink:href="#m2bfc2029ea" x="573.882353" y="398.25" style="stroke: #000000; stroke-width: 0.8"/>
      </g>
     </g>
     <g id="text_30">
      <text style="font: 10px 'sans-serif'; text-anchor: end" x="566.882353" y="402.049219" transform="rotate(-0, 566.882353, 402.049219)">−6</text>
     </g>
    </g>
    <g id="ytick_13">
     <g id="line2d_35">
      <g>
       <use xlink:href="#m2bfc2029ea" x="573.882353" y="328.95" style="stroke: #000000; stroke-width: 0.8"/>
      </g>
     </g>
     <g id="text_31">
      <text style="font: 10px 'sans-serif'; text-anchor: end" x="566.882353" y="332.749219" transform="rotate(-0, 566.882353, 332.749219)">−4</text>
     </g>
    </g>
    <g id="ytick_14">
     <g id="line2d_36">
      <g>
       <use xlink:href="#m2bfc2029ea" x="573.882353" y="259.65" style="stroke: #000000; stroke-width: 0.8"/>
      </g>
     </g>
     <g id="text_32">
      <text style="font: 10px 'sans-serif'; text-anchor: end" x="566.882353" y="263.449219" transform="rotate(-0, 566.882353, 263.449219)">−2</text>
     </g>
    </g>
    <g id="ytick_15">
     <g id="line2d_37">
      <g>
       <use xlink:href="#m2bfc2029ea" x="573.882353" y="190.35" style="stroke: #000000; stroke-width: 0.8"/>
      </g>
     </g>
     <g id="text_33">
      <text style="font: 10px 'sans-serif'; text-anchor: end" x="566.882353" y="194.149219" transform="rotate(-0, 566.882353, 194.149219)">0</text>
     </g>
    </g>
    <g id="ytick_16">
     <g id="line2d_38">
      <g>
       <use xlink:href="#m2bfc2029ea" x="573.882353" y="121.05" style="stroke: #000000; stroke-width: 0.8"/>
      </g>
     </g>
     <g id="text_34">
      <text style="font: 10px 'sans-serif'; text-anchor: end" x="566.882353" y="124.849219" transform="rotate(-0, 566.882353, 124.849219)">2</text>
     </g>
    </g>
   </g>
   <g id="line2d_39">
    <path d="M 588.802139 204.378655 
L 591.786096 204.14614 
L 594.770053 203.912613 
L 597.754011 203.678071 
L 600.737968 203.442513 
L 603.721925 203.205947 
L 606.705882 202.968366 
L 609.68984 202.729769 
L 612.673797 202.490165 
L 615.657754 202.249545 
L 618.641711 202.007913 
L 621.625668 201.765269 
L 624.609626 201.521614 
L 627.593583 201.27695 
L 630.57754 201.031271 
L 633.561497 200.784581 
L 636.545455 200.536878 
L 639.529412 200.288167 
L 642.513369 200.038448 
L 645.497326 199.787718 
L 648.481283 199.535975 
L 651.465241 199.283227 
L 654.449198 199.029468 
L 657.433155 198.774704 
L 660.417112 198.518932 
L 663.40107 198.262154 
L 666.385027 198.004372 
L 669.368984 197.745589 
L 672.352941 197.4858 
L 675.336898 197.225014 
L 678.320856 196.96323 
L 681.304813 196.700451 
L 684.28877 196.436678 
L 687.272727 196.171921 
L 690.256684 195.906179 
L 693.240642 195.639461 
L 696.224599 195.371773 
L 699.208556 195.103128 
L 702.192513 194.83354 
L 705.176471 194.563028 
L 708.160428 194.291618 
L 711.144385 194.019348 
L 714.128342 193.74628 
L 717.112299 193.472502 
L 720.096257 193.198165 
L 723.080214 192.923538 
L 726.064171 192.649151 
L 729.048128 192.376204 
L 732.032086 192.108085 
L 735.016043 191.858531 
L 738 191.716776 
L 740.983957 191.858531 
L 743.967914 192.108085 
L 746.951872 192.376204 
L 749.935829 192.649151 
L 752.919786 192.923538 
L 755.903743 193.198165 
L 758.887701 193.472502 
L 761.871658 193.74628 
L 764.855615 194.019348 
L 767.839572 194.291618 
L 770.823529 194.563028 
L 773.807487 194.83354 
L 776.791444 195.103128 
L 779.775401 195.371773 
L 782.759358 195.639461 
L 785.743316 195.906179 
L 788.727273 196.171921 
L 791.71123 196.436678 
L 794.695187 196.700451 
L 797.679144 196.96323 
L 800.663102 197.225014 
L 803.647059 197.4858 
L 806.631016 197.745589 
L 809.614973 198.004372 
L 812.59893 198.262154 
L 815.582888 198.518932 
L 818.566845 198.774704 
L 821.550802 199.029468 
L 824.534759 199.283227 
L 827.518717 199.535975 
L 830.502674 199.787718 
L 833.486631 200.038448 
L 836.470588 200.288167 
L 839.454545 200.536878 
L 842.438503 200.784581 
L 845.42246 201.031271 
L 848.406417 201.27695 
L 851.390374 201.521614 
L 854.374332 201.765269 
L 857.358289 202.007913 
L 860.342246 202.249545 
L 863.326203 202.490165 
L 866.31016 202.729769 
L 869.294118 202.968366 
L 872.278075 203.205947 
L 875.262032 203.442513 
L 878.245989 203.678071 
L 881.229947 203.912613 
L 884.213904 204.14614 
L 887.197861 204.378655 
" clip-path="url(#p60355b1b4b)" style="fill: none; stroke: #9467bd; stroke-width: 1.5; stroke-linecap: square"/>
   </g>
   <g id="line2d_40">
    <path d="M 588.802139 176.098729 
L 591.786096 176.431684 
L 594.770053 176.763624 
L 597.754011 177.094549 
L 600.737968 177.424459 
L 603.721925 177.753353 
L 606.705882 178.081228 
L 609.68984 178.408089 
L 612.673797 178.733931 
L 615.657754 179.058757 
L 618.641711 179.382568 
L 621.625668 179.705361 
L 624.609626 180.027138 
L 627.593583 180.347896 
L 630.57754 180.667636 
L 633.561497 180.986361 
L 636.545455 181.304067 
L 639.529412 181.62075 
L 642.513369 181.936419 
L 645.497326 182.251068 
L 648.481283 182.564696 
L 651.465241 182.877301 
L 654.449198 183.188891 
L 657.433155 183.499456 
L 660.417112 183.808998 
L 663.40107 184.117518 
L 666.385027 184.425013 
L 669.368984 184.731482 
L 672.352941 185.036925 
L 675.336898 185.341336 
L 678.320856 185.644717 
L 681.304813 185.947066 
L 684.28877 186.248376 
L 687.272727 186.548642 
L 690.256684 186.847866 
L 693.240642 187.146035 
L 696.224599 187.443144 
L 699.208556 187.739182 
L 702.192513 188.034134 
L 705.176471 188.327981 
L 708.160428 188.620696 
L 711.144385 188.912241 
L 714.128342 189.202558 
L 717.112299 189.491554 
L 720.096257 189.77908 
L 723.080214 190.064867 
L 726.064171 190.348386 
L 729.048128 190.628434 
L 732.032086 190.901626 
L 735.016043 191.154224 
L 738 191.296994 
L 740.983957 191.154224 
L 743.967914 190.901626 
L 746.951872 190.628434 
L 749.935829 190.348386 
L 752.919786 190.064867 
L 755.903743 189.77908 
L 758.887701 189.491554 
L 761.871658 189.202558 
L 764.855615 188.912241 
L 767.839572 188.620696 
L 770.823529 188.327981 
L 773.807487 188.034134 
L 776.791444 187.739182 
L 779.775401 187.443144 
L 782.759358 187.146035 
L 785.743316 186.847866 
L 788.727273 186.548642 
L 791.71123 186.248376 
L 794.695187 185.947066 
L 797.679144 185.644717 
L 800.663102 185.341336 
L 803.647059 185.036925 
L 806.631016 184.731482 
L 809.614973 184.425013 
L 812.59893 184.117518 
L 815.582888 183.808998 
L 818.566845 183.499456 
L 821.550802 183.188891 
L 824.534759 182.877301 
L 827.518717 182.564696 
L 830.502674 182.251068 
L 833.486631 181.936419 
L 836.470588 181.62075 
L 839.454545 181.304067 
L 842.438503 180.986361 
L 845.42246 180.667636 
L 848.406417 180.347896 
L 851.390374 180.027138 
L 854.374332 179.705361 
L 857.358289 179.382568 
L 860.342246 179.058757 
L 863.326203 178.733931 
L 866.31016 178.408089 
L 869.294118 178.081228 
L 872.278075 177.753353 
L 875.262032 177.424459 
L 878.245989 177.094549 
L 881.229947 176.763624 
L 884.213904 176.431684 
L 887.197861 176.098729 
" clip-path="url(#p60355b1b4b)" style="fill: none; stroke: #e377c2; stroke-width: 1.5; stroke-linecap: square"/>
   </g>
   <g id="patch_8">
    <path d="M 573.882353 640.8 
L 573.882353 86.4 
" style="fill: none; stroke: #000000; stroke-width: 0.8; stroke-linejoin: miter; stroke-linecap: square"/>
   </g>
   <g id="patch_9">
    <path d="M 902.117647 640.8 
L 902.117647 86.4 
" style="fill: none; stroke: #000000; stroke-width: 0.8; stroke-linejoin: miter; stroke-linecap: square"/>
   </g>
   <g id="patch_10">
    <path d="M 573.882353 640.8 
L 902.117647 640.8 
" style="fill: none; stroke: #000000; stroke-width: 0.8; stroke-linejoin: miter; stroke-linecap: square"/>
   </g>
   <g id="patch_11">
    <path d="M 573.882353 86.4 
L 902.117647 86.4 
" style="fill: none; stroke: #000000; stroke-width: 0.8; stroke-linejoin: miter; stroke-linecap: square"/>
   </g>
   <g id="text_35">
    <text style="font: 12px 'sans-serif'; text-anchor: middle" x="738" y="80.4" transform="rotate(-0, 738, 80.4)">4-effective bands</text>
   </g>
  </g>
  <g id="axes_3">
   <g id="patch_12">
    <path d="M 967.764706 640.8 
L 1296 640.8 
L 1296 86.4 
L 967.764706 86.4 
z
" style="fill: #ffffff"/>
   </g>
   <g id="PathCollection_1">
    <defs>
     <path id="m790c40945a" d="M 0 3 
C 0.795609 3 1.55874 2.683901 2.12132 2.12132 
C 2.683901 1.55874 3 0.795609 3 0 
C 3 -0.795609 2.683901 -1.55874 2.12132 -2.12132 
C 1.55874 -2.683901 0.795609 -3 0 -3 
C -0.795609 -3 -1.55874 -2.683901 -2.12132 -2.12132 
C -2.683901 -1.55874 -3 -0.795609 -3 0 
C -3 0.795609 -2.683901 1.55874 -2.12132 2.12132 
C -1.55874 2.683901 -0.795609 3 0 3 
z
" style="stroke: #1f77b4"/>
    </defs>
    <g clip-path="url(#pffeec58d28)">
     <use xlink:href="#m790c40945a" x="982.684492" y="615.6" style="fill: #1f77b4; stroke: #1f77b4"/>
     <use xlink:href="#m790c40945a" x="985.668449" y="610.145603" style="fill: #1f77b4; stroke: #1f77b4"/>
     <use xlink:href="#m790c40945a" x="988.652406" y="604.612926" style="fill: #1f77b4; stroke: #1f77b4"/>
     <use xlink:href="#m790c40945a" x="991.636364" y="599.007103" style="fill: #1f77b4; stroke: #1f77b4"/>
     <use xlink:href="#m790c40945a" x="994.620321" y="593.33323" style="fill: #1f77b4; stroke: #1f77b4"/>
     <use xlink:href="#m790c40945a" x="997.604278" y="587.596337" style="fill: #1f77b4; stroke: #1f77b4"/>
     <use xlink:href="#m790c40945a" x="1000.588235" y="581.801374" style="fill: #1f77b4; stroke: #1f77b4"/>
     <use xlink:href="#m790c40945a" x="1003.572193" y="575.953198" style="fill: #1f77b4; stroke: #1f77b4"/>
     <use xlink:href="#m790c40945a" x="1006.55615" y="570.056554" style="fill: #1f77b4; stroke: #1f77b4"/>
     <use xlink:href="#m790c40945a" x="1009.540107" y="564.116067" style="fill: #1f77b4; stroke: #1f77b4"/>
     <use xlink:href="#m790c40945a" x="1012.524064" y="558.136236" style="fill: #1f77b4; stroke: #1f77b4"/>
     <use xlink:href="#m790c40945a" x="1015.508021" y="552.12142" style="fill: #1f77b4; stroke: #1f77b4"/>
     <use xlink:href="#m790c40945a" x="1018.491979" y="546.075836" style="fill: #1f77b4; stroke: #1f77b4"/>
     <use xlink:href="#m790c40945a" x="1021.475936" y="540.00355" style="fill: #1f77b4; stroke: #1f77b4"/>
     <use xlink:href="#m790c40945a" x="1024.459893" y="533.908477" style="fill: #1f77b4; stroke: #1f77b4"/>
     <use xlink:href="#m790c40945a" x="1027.44385" y="527.794371" style="fill: #1f77b4; stroke: #1f77b4"/>
     <use xlink:href="#m790c40945a" x="1030.427807" y="521.664827" style="fill: #1f77b4; stroke: #1f77b4"/>
     <use xlink:href="#m790c40945a" x="1033.411765" y="515.523272" style="fill: #1f77b4; stroke: #1f77b4"/>
     <use xlink:href="#m790c40945a" x="1036.395722" y="509.372965" style="fill: #1f77b4; stroke: #1f77b4"/>
     <use xlink:href="#m790c40945a" x="1039.379679" y="503.216993" style="fill: #1f77b4; stroke: #1f77b4"/>
     <use xlink:href="#m790c40945a" x="1042.363636" y="497.058265" style="fill: #1f77b4; stroke: #1f77b4"/>
     <use xlink:href="#m790c40945a" x="1045.347594" y="490.899513" style="fill: #1f77b4; stroke: #1f77b4"/>
     <use xlink:href="#m790c40945a" x="1048.331551" y="484.743283" style="fill: #1f77b4; stroke: #1f77b4"/>
     <use xlink:href="#m790c40945a" x="1051.315508" y="478.591931" style="fill: #1f77b4; stroke: #1f77b4"/>
     <use xlink:href="#m790c40945a" x="1054.299465" y="472.447623" style="fill: #1f77b4; stroke: #1f77b4"/>
     <use xlink:href="#m790c40945a" x="1057.283422" y="466.312325" style="fill: #1f77b4; stroke: #1f77b4"/>
     <use xlink:href="#m790c40945a" x="1060.26738" y="460.187803" style="fill: #1f77b4; stroke: #1f77b4"/>
     <use xlink:href="#m790c40945a" x="1063.251337" y="454.075612" style="fill: #1f77b4; stroke: #1f77b4"/>
     <use xlink:href="#m790c40945a" x="1066.235294" y="447.977099" style="fill: #1f77b4; stroke: #1f77b4"/>
     <use xlink:href="#m790c40945a" x="1069.219251" y="441.893391" style="fill: #1f77b4; stroke: #1f77b4"/>
     <use xlink:href="#m790c40945a" x="1072.203209" y="435.825397" style="fill: #1f77b4; stroke: #1f77b4"/>
     <use xlink:href="#m790c40945a" x="1075.187166" y="429.7738" style="fill: #1f77b4; stroke: #1f77b4"/>
     <use xlink:href="#m790c40945a" x="1078.171123" y="423.73906" style="fill: #1f77b4; stroke: #1f77b4"/>
     <use xlink:href="#m790c40945a" x="1081.15508" y="417.721405" style="fill: #1f77b4; stroke: #1f77b4"/>
     <use xlink:href="#m790c40945a" x="1084.139037" y="411.720839" style="fill: #1f77b4; stroke: #1f77b4"/>
     <use xlink:href="#m790c40945a" x="1087.122995" y="405.73714" style="fill: #1f77b4; stroke: #1f77b4"/>
     <use xlink:href="#m790c40945a" x="1090.106952" y="399.769866" style="fill: #1f77b4; stroke: #1f77b4"/>
     <use xlink:href="#m790c40945a" x="1093.090909" y="393.81836" style="fill: #1f77b4; stroke: #1f77b4"/>
     <use xlink:href="#m790c40945a" x="1096.074866" y="387.881766" style="fill: #1f77b4; stroke: #1f77b4"/>
     <use xlink:href="#m790c40945a" x="1099.058824" y="381.959039" style="fill: #1f77b4; stroke: #1f77b4"/>
     <use xlink:href="#m790c40945a" x="1102.042781" y="376.048974" style="fill: #1f77b4; stroke: #1f77b4"/>
     <use xlink:href="#m790c40945a" x="1105.026738" y="370.150239" style="fill: #1f77b4; stroke: #1f77b4"/>
     <use xlink:href="#m790c40945a" x="1108.010695" y="364.26143" style="fill: #1f77b4; stroke: #1f77b4"/>
     <use xlink:href="#m790c40945a" x="1110.994652" y="358.381158" style="fill: #1f77b4; stroke: #1f77b4"/>
     <use xlink:href="#m790c40945a" x="1113.97861" y="352.508221" style="fill: #1f77b4; stroke: #1f77b4"/>
     <use xlink:href="#m790c40945a" x="1116.962567" y="346.64194" style="fill: #1f77b4; stroke: #1f77b4"/>
     <use xlink:href="#m790c40945a" x="1119.946524" y="340.782984" style="fill: #1f77b4; stroke: #1f77b4"/>
     <use xlink:href="#m790c40945a" x="1122.930481" y="334.935761" style="fill: #1f77b4; stroke: #1f77b4"/>
     <use xlink:href="#m790c40945a" x="1125.914439" y="329.117702" style="fill: #1f77b4; stroke: #1f77b4"/>
     <use xlink:href="#m790c40945a" x="1128.898396" y="323.419522" style="fill: #1f77b4; stroke: #1f77b4"/>
     <use xlink:href="#m790c40945a" x="1131.882353" y="319.322941" style="fill: #1f77b4; stroke: #1f77b4"/>
     <use xlink:href="#m790c40945a" x="1134.86631" y="323.419522" style="fill: #1f77b4; stroke: #1f77b4"/>
     <use xlink:href="#m790c40945a" x="1137.850267" y="329.117702" style="fill: #1f77b4; stroke: #1f77b4"/>
     <use xlink:href="#m790c40945a" x="1140.834225" y="334.935761" style="fill: #1f77b4; stroke: #1f77b4"/>
     <use xlink:href="#m790c40945a" x="1143.818182" y="340.782984" style="fill: #1f77b4; stroke: #1f77b4"/>
     <use xlink:href="#m790c40945a" x="1146.802139" y="346.64194" style="fill: #1f77b4; stroke: #1f77b4"/>
     <use xlink:href="#m790c40945a" x="1149.786096" y="352.508221" style="fill: #1f77b4; stroke: #1f77b4"/>
     <use xlink:href="#m790c40945a" x="1152.770053" y="358.381158" style="fill: #1f77b4; stroke: #1f77b4"/>
     <use xlink:href="#m790c40945a" x="1155.754011" y="364.26143" style="fill: #1f77b4; stroke: #1f77b4"/>
     <use xlink:href="#m790c40945a" x="1158.737968" y="370.150239" style="fill: #1f77b4; stroke: #1f77b4"/>
     <use xlink:href="#m790c40945a" x="1161.721925" y="376.048974" style="fill: #1f77b4; stroke: #1f77b4"/>
     <use xlink:href="#m790c40945a" x="1164.705882" y="381.959039" style="fill: #1f77b4; stroke: #1f77b4"/>
     <use xlink:href="#m790c40945a" x="1167.68984" y="387.881766" style="fill: #1f77b4; stroke: #1f77b4"/>
     <use xlink:href="#m790c40945a" x="1170.673797" y="393.81836" style="fill: #1f77b4; stroke: #1f77b4"/>
     <use xlink:href="#m790c40945a" x="1173.657754" y="399.769866" style="fill: #1f77b4; stroke: #1f77b4"/>
     <use xlink:href="#m790c40945a" x="1176.641711" y="405.73714" style="fill: #1f77b4; stroke: #1f77b4"/>
     <use xlink:href="#m790c40945a" x="1179.625668" y="411.720839" style="fill: #1f77b4; stroke: #1f77b4"/>
     <use xlink:href="#m790c40945a" x="1182.609626" y="417.721405" style="fill: #1f77b4; stroke: #1f77b4"/>
     <use xlink:href="#m790c40945a" x="1185.593583" y="423.73906" style="fill: #1f77b4; stroke: #1f77b4"/>
     <use xlink:href="#m790c40945a" x="1188.57754" y="429.7738" style="fill: #1f77b4; stroke: #1f77b4"/>
     <use xlink:href="#m790c40945a" x="1191.561497" y="435.825397" style="fill: #1f77b4; stroke: #1f77b4"/>
     <use xlink:href="#m790c40945a" x="1194.545455" y="441.893391" style="fill: #1f77b4; stroke: #1f77b4"/>
     <use xlink:href="#m790c40945a" x="1197.529412" y="447.977099" style="fill: #1f77b4; stroke: #1f77b4"/>
     <use xlink:href="#m790c40945a" x="1200.513369" y="454.075612" style="fill: #1f77b4; stroke: #1f77b4"/>
     <use xlink:href="#m790c40945a" x="1203.497326" y="460.187803" style="fill: #1f77b4; stroke: #1f77b4"/>
     <use xlink:href="#m790c40945a" x="1206.481283" y="466.312325" style="fill: #1f77b4; stroke: #1f77b4"/>
     <use xlink:href="#m790c40945a" x="1209.465241" y="472.447623" style="fill: #1f77b4; stroke: #1f77b4"/>
     <use xlink:href="#m790c40945a" x="1212.449198" y="478.591931" style="fill: #1f77b4; stroke: #1f77b4"/>
     <use xlink:href="#m790c40945a" x="1215.433155" y="484.743283" style="fill: #1f77b4; stroke: #1f77b4"/>
     <use xlink:href="#m790c40945a" x="1218.417112" y="490.899513" style="fill: #1f77b4; stroke: #1f77b4"/>
     <use xlink:href="#m790c40945a" x="1221.40107" y="497.058265" style="fill: #1f77b4; stroke: #1f77b4"/>
     <use xlink:href="#m790c40945a" x="1224.385027" y="503.216993" style="fill: #1f77b4; stroke: #1f77b4"/>
     <use xlink:href="#m790c40945a" x="1227.368984" y="509.372965" style="fill: #1f77b4; stroke: #1f77b4"/>
     <use xlink:href="#m790c40945a" x="1230.352941" y="515.523272" style="fill: #1f77b4; stroke: #1f77b4"/>
     <use xlink:href="#m790c40945a" x="1233.336898" y="521.664827" style="fill: #1f77b4; stroke: #1f77b4"/>
     <use xlink:href="#m790c40945a" x="1236.320856" y="527.794371" style="fill: #1f77b4; stroke: #1f77b4"/>
     <use xlink:href="#m790c40945a" x="1239.304813" y="533.908477" style="fill: #1f77b4; stroke: #1f77b4"/>
     <use xlink:href="#m790c40945a" x="1242.28877" y="540.00355" style="fill: #1f77b4; stroke: #1f77b4"/>
     <use xlink:href="#m790c40945a" x="1245.272727" y="546.075836" style="fill: #1f77b4; stroke: #1f77b4"/>
     <use xlink:href="#m790c40945a" x="1248.256684" y="552.12142" style="fill: #1f77b4; stroke: #1f77b4"/>
     <use xlink:href="#m790c40945a" x="1251.240642" y="558.136236" style="fill: #1f77b4; stroke: #1f77b4"/>
     <use xlink:href="#m790c40945a" x="1254.224599" y="564.116067" style="fill: #1f77b4; stroke: #1f77b4"/>
     <use xlink:href="#m790c40945a" x="1257.208556" y="570.056554" style="fill: #1f77b4; stroke: #1f77b4"/>
     <use xlink:href="#m790c40945a" x="1260.192513" y="575.953198" style="fill: #1f77b4; stroke: #1f77b4"/>
     <use xlink:href="#m790c40945a" x="1263.176471" y="581.801374" style="fill: #1f77b4; stroke: #1f77b4"/>
     <use xlink:href="#m790c40945a" x="1266.160428" y="587.596337" style="fill: #1f77b4; stroke: #1f77b4"/>
     <use xlink:href="#m790c40945a" x="1269.144385" y="593.33323" style="fill: #1f77b4; stroke: #1f77b4"/>
     <use xlink:href="#m790c40945a" x="1272.128342" y="599.007103" style="fill: #1f77b4; stroke: #1f77b4"/>
     <use xlink:href="#m790c40945a" x="1275.112299" y="604.612926" style="fill: #1f77b4; stroke: #1f77b4"/>
     <use xlink:href="#m790c40945a" x="1278.096257" y="610.145603" style="fill: #1f77b4; stroke: #1f77b4"/>
     <use xlink:href="#m790c40945a" x="1281.080214" y="615.6" style="fill: #1f77b4; stroke: #1f77b4"/>
    </g>
   </g>
   <g id="PathCollection_2">
    <defs>
     <path id="m93f878d795" d="M 0 3 
C 0.795609 3 1.55874 2.683901 2.12132 2.12132 
C 2.683901 1.55874 3 0.795609 3 0 
C 3 -0.795609 2.683901 -1.55874 2.12132 -2.12132 
C 1.55874 -2.683901 0.795609 -3 0 -3 
C -0.795609 -3 -1.55874 -2.683901 -2.12132 -2.12132 
C -2.683901 -1.55874 -3 -0.795609 -3 0 
C -3 0.795609 -2.683901 1.55874 -2.12132 2.12132 
C -1.55874 2.683901 -0.795609 3 0 3 
z
" style="stroke: #ff7f0e"/>
    </defs>
    <g clip-path="url(#pffeec58d28)">
     <use xlink:href="#m93f878d795" x="982.684492" y="114.019394" style="fill: #ff7f0e; stroke: #ff7f0e"/>
     <use xlink:href="#m93f878d795" x="985.668449" y="113.554044" style="fill: #ff7f0e; stroke: #ff7f0e"/>
     <use xlink:href="#m93f878d795" x="988.652406" y="113.113292" style="fill: #ff7f0e; stroke: #ff7f0e"/>
     <use xlink:href="#m93f878d795" x="991.636364" y="112.704909" style="fill: #ff7f0e; stroke: #ff7f0e"/>
     <use xlink:href="#m93f878d795" x="994.620321" y="112.338706" style="fill: #ff7f0e; stroke: #ff7f0e"/>
     <use xlink:href="#m93f878d795" x="997.604278" y="112.027105" style="fill: #ff7f0e; stroke: #ff7f0e"/>
     <use xlink:href="#m93f878d795" x="1000.588235" y="111.785871" style="fill: #ff7f0e; stroke: #ff7f0e"/>
     <use xlink:href="#m93f878d795" x="1003.572193" y="111.63503" style="fill: #ff7f0e; stroke: #ff7f0e"/>
     <use xlink:href="#m93f878d795" x="1006.55615" y="111.6" style="fill: #ff7f0e; stroke: #ff7f0e"/>
     <use xlink:href="#m93f878d795" x="1009.540107" y="111.71289" style="fill: #ff7f0e; stroke: #ff7f0e"/>
     <use xlink:href="#m93f878d795" x="1012.524064" y="112.013849" style="fill: #ff7f0e; stroke: #ff7f0e"/>
     <use xlink:href="#m93f878d795" x="1015.508021" y="112.552134" style="fill: #ff7f0e; stroke: #ff7f0e"/>
     <use xlink:href="#m93f878d795" x="1018.491979" y="113.386261" style="fill: #ff7f0e; stroke: #ff7f0e"/>
     <use xlink:href="#m93f878d795" x="1021.475936" y="114.582217" style="fill: #ff7f0e; stroke: #ff7f0e"/>
     <use xlink:href="#m93f878d795" x="1024.459893" y="116.208548" style="fill: #ff7f0e; stroke: #ff7f0e"/>
     <use xlink:href="#m93f878d795" x="1027.44385" y="118.327649" style="fill: #ff7f0e; stroke: #ff7f0e"/>
     <use xlink:href="#m93f878d795" x="1030.427807" y="120.984462" style="fill: #ff7f0e; stroke: #ff7f0e"/>
     <use xlink:href="#m93f878d795" x="1033.411765" y="124.196227" style="fill: #ff7f0e; stroke: #ff7f0e"/>
     <use xlink:href="#m93f878d795" x="1036.395722" y="127.948013" style="fill: #ff7f0e; stroke: #ff7f0e"/>
     <use xlink:href="#m93f878d795" x="1039.379679" y="132.196411" style="fill: #ff7f0e; stroke: #ff7f0e"/>
     <use xlink:href="#m93f878d795" x="1042.363636" y="136.879364" style="fill: #ff7f0e; stroke: #ff7f0e"/>
     <use xlink:href="#m93f878d795" x="1045.347594" y="141.927501" style="fill: #ff7f0e; stroke: #ff7f0e"/>
     <use xlink:href="#m93f878d795" x="1048.331551" y="147.273126" style="fill: #ff7f0e; stroke: #ff7f0e"/>
     <use xlink:href="#m93f878d795" x="1051.315508" y="152.855491" style="fill: #ff7f0e; stroke: #ff7f0e"/>
     <use xlink:href="#m93f878d795" x="1054.299465" y="158.62286" style="fill: #ff7f0e; stroke: #ff7f0e"/>
     <use xlink:href="#m93f878d795" x="1057.283422" y="164.532549" style="fill: #ff7f0e; stroke: #ff7f0e"/>
     <use xlink:href="#m93f878d795" x="1060.26738" y="170.549973" style="fill: #ff7f0e; stroke: #ff7f0e"/>
     <use xlink:href="#m93f878d795" x="1063.251337" y="176.647359" style="fill: #ff7f0e; stroke: #ff7f0e"/>
     <use xlink:href="#m93f878d795" x="1066.235294" y="182.802481" style="fill: #ff7f0e; stroke: #ff7f0e"/>
     <use xlink:href="#m93f878d795" x="1069.219251" y="188.997553" style="fill: #ff7f0e; stroke: #ff7f0e"/>
     <use xlink:href="#m93f878d795" x="1072.203209" y="195.218318" style="fill: #ff7f0e; stroke: #ff7f0e"/>
     <use xlink:href="#m93f878d795" x="1075.187166" y="201.453325" style="fill: #ff7f0e; stroke: #ff7f0e"/>
     <use xlink:href="#m93f878d795" x="1078.171123" y="207.693366" style="fill: #ff7f0e; stroke: #ff7f0e"/>
     <use xlink:href="#m93f878d795" x="1081.15508" y="213.931039" style="fill: #ff7f0e; stroke: #ff7f0e"/>
     <use xlink:href="#m93f878d795" x="1084.139037" y="220.160408" style="fill: #ff7f0e; stroke: #ff7f0e"/>
     <use xlink:href="#m93f878d795" x="1087.122995" y="226.376744" style="fill: #ff7f0e; stroke: #ff7f0e"/>
     <use xlink:href="#m93f878d795" x="1090.106952" y="232.576321" style="fill: #ff7f0e; stroke: #ff7f0e"/>
     <use xlink:href="#m93f878d795" x="1093.090909" y="238.756255" style="fill: #ff7f0e; stroke: #ff7f0e"/>
     <use xlink:href="#m93f878d795" x="1096.074866" y="244.914378" style="fill: #ff7f0e; stroke: #ff7f0e"/>
     <use xlink:href="#m93f878d795" x="1099.058824" y="251.049126" style="fill: #ff7f0e; stroke: #ff7f0e"/>
     <use xlink:href="#m93f878d795" x="1102.042781" y="257.159453" style="fill: #ff7f0e; stroke: #ff7f0e"/>
     <use xlink:href="#m93f878d795" x="1105.026738" y="263.244737" style="fill: #ff7f0e; stroke: #ff7f0e"/>
     <use xlink:href="#m93f878d795" x="1108.010695" y="269.30469" style="fill: #ff7f0e; stroke: #ff7f0e"/>
     <use xlink:href="#m93f878d795" x="1110.994652" y="275.339236" style="fill: #ff7f0e; stroke: #ff7f0e"/>
     <use xlink:href="#m93f878d795" x="1113.97861" y="281.348321" style="fill: #ff7f0e; stroke: #ff7f0e"/>
     <use xlink:href="#m93f878d795" x="1116.962567" y="287.33156" style="fill: #ff7f0e; stroke: #ff7f0e"/>
     <use xlink:href="#m93f878d795" x="1119.946524" y="293.287395" style="fill: #ff7f0e; stroke: #ff7f0e"/>
     <use xlink:href="#m93f878d795" x="1122.930481" y="299.210704" style="fill: #ff7f0e; stroke: #ff7f0e"/>
     <use xlink:href="#m93f878d795" x="1125.914439" y="305.083501" style="fill: #ff7f0e; stroke: #ff7f0e"/>
     <use xlink:href="#m93f878d795" x="1128.898396" y="310.81468" style="fill: #ff7f0e; stroke: #ff7f0e"/>
     <use xlink:href="#m93f878d795" x="1131.882353" y="314.922287" style="fill: #ff7f0e; stroke: #ff7f0e"/>
     <use xlink:href="#m93f878d795" x="1134.86631" y="310.81468" style="fill: #ff7f0e; stroke: #ff7f0e"/>
     <use xlink:href="#m93f878d795" x="1137.850267" y="305.083501" style="fill: #ff7f0e; stroke: #ff7f0e"/>
     <use xlink:href="#m93f878d795" x="1140.834225" y="299.210704" style="fill: #ff7f0e; stroke: #ff7f0e"/>
     <use xlink:href="#m93f878d795" x="1143.818182" y="293.287395" style="fill: #ff7f0e; stroke: #ff7f0e"/>
     <use xlink:href="#m93f878d795" x="1146.802139" y="287.33156" style="fill: #ff7f0e; stroke: #ff7f0e"/>
     <use xlink:href="#m93f878d795" x="1149.786096" y="281.348321" style="fill: #ff7f0e; stroke: #ff7f0e"/>
     <use xlink:href="#m93f878d795" x="1152.770053" y="275.339236" style="fill: #ff7f0e; stroke: #ff7f0e"/>
     <use xlink:href="#m93f878d795" x="1155.754011" y="269.30469" style="fill: #ff7f0e; stroke: #ff7f0e"/>
     <use xlink:href="#m93f878d795" x="1158.737968" y="263.244737" style="fill: #ff7f0e; stroke: #ff7f0e"/>
     <use xlink:href="#m93f878d795" x="1161.721925" y="257.159453" style="fill: #ff7f0e; stroke: #ff7f0e"/>
     <use xlink:href="#m93f878d795" x="1164.705882" y="251.049126" style="fill: #ff7f0e; stroke: #ff7f0e"/>
     <use xlink:href="#m93f878d795" x="1167.68984" y="244.914378" style="fill: #ff7f0e; stroke: #ff7f0e"/>
     <use xlink:href="#m93f878d795" x="1170.673797" y="238.756255" style="fill: #ff7f0e; stroke: #ff7f0e"/>
     <use xlink:href="#m93f878d795" x="1173.657754" y="232.576321" style="fill: #ff7f0e; stroke: #ff7f0e"/>
     <use xlink:href="#m93f878d795" x="1176.641711" y="226.376744" style="fill: #ff7f0e; stroke: #ff7f0e"/>
     <use xlink:href="#m93f878d795" x="1179.625668" y="220.160408" style="fill: #ff7f0e; stroke: #ff7f0e"/>
     <use xlink:href="#m93f878d795" x="1182.609626" y="213.931039" style="fill: #ff7f0e; stroke: #ff7f0e"/>
     <use xlink:href="#m93f878d795" x="1185.593583" y="207.693366" style="fill: #ff7f0e; stroke: #ff7f0e"/>
     <use xlink:href="#m93f878d795" x="1188.57754" y="201.453325" style="fill: #ff7f0e; stroke: #ff7f0e"/>
     <use xlink:href="#m93f878d795" x="1191.561497" y="195.218318" style="fill: #ff7f0e; stroke: #ff7f0e"/>
     <use xlink:href="#m93f878d795" x="1194.545455" y="188.997553" style="fill: #ff7f0e; stroke: #ff7f0e"/>
     <use xlink:href="#m93f878d795" x="1197.529412" y="182.802481" style="fill: #ff7f0e; stroke: #ff7f0e"/>
     <use xlink:href="#m93f878d795" x="1200.513369" y="176.647359" style="fill: #ff7f0e; stroke: #ff7f0e"/>
     <use xlink:href="#m93f878d795" x="1203.497326" y="170.549973" style="fill: #ff7f0e; stroke: #ff7f0e"/>
     <use xlink:href="#m93f878d795" x="1206.481283" y="164.532549" style="fill: #ff7f0e; stroke: #ff7f0e"/>
     <use xlink:href="#m93f878d795" x="1209.465241" y="158.62286" style="fill: #ff7f0e; stroke: #ff7f0e"/>
     <use xlink:href="#m93f878d795" x="1212.449198" y="152.855491" style="fill: #ff7f0e; stroke: #ff7f0e"/>
     <use xlink:href="#m93f878d795" x="1215.433155" y="147.273126" style="fill: #ff7f0e; stroke: #ff7f0e"/>
     <use xlink:href="#m93f878d795" x="1218.417112" y="141.927501" style="fill: #ff7f0e; stroke: #ff7f0e"/>
     <use xlink:href="#m93f878d795" x="1221.40107" y="136.879364" style="fill: #ff7f0e; stroke: #ff7f0e"/>
     <use xlink:href="#m93f878d795" x="1224.385027" y="132.196411" style="fill: #ff7f0e; stroke: #ff7f0e"/>
     <use xlink:href="#m93f878d795" x="1227.368984" y="127.948013" style="fill: #ff7f0e; stroke: #ff7f0e"/>
     <use xlink:href="#m93f878d795" x="1230.352941" y="124.196227" style="fill: #ff7f0e; stroke: #ff7f0e"/>
     <use xlink:href="#m93f878d795" x="1233.336898" y="120.984462" style="fill: #ff7f0e; stroke: #ff7f0e"/>
     <use xlink:href="#m93f878d795" x="1236.320856" y="118.327649" style="fill: #ff7f0e; stroke: #ff7f0e"/>
     <use xlink:href="#m93f878d795" x="1239.304813" y="116.208548" style="fill: #ff7f0e; stroke: #ff7f0e"/>
     <use xlink:href="#m93f878d795" x="1242.28877" y="114.582217" style="fill: #ff7f0e; stroke: #ff7f0e"/>
     <use xlink:href="#m93f878d795" x="1245.272727" y="113.386261" style="fill: #ff7f0e; stroke: #ff7f0e"/>
     <use xlink:href="#m93f878d795" x="1248.256684" y="112.552134" style="fill: #ff7f0e; stroke: #ff7f0e"/>
     <use xlink:href="#m93f878d795" x="1251.240642" y="112.013849" style="fill: #ff7f0e; stroke: #ff7f0e"/>
     <use xlink:href="#m93f878d795" x="1254.224599" y="111.71289" style="fill: #ff7f0e; stroke: #ff7f0e"/>
     <use xlink:href="#m93f878d795" x="1257.208556" y="111.6" style="fill: #ff7f0e; stroke: #ff7f0e"/>
     <use xlink:href="#m93f878d795" x="1260.192513" y="111.63503" style="fill: #ff7f0e; stroke: #ff7f0e"/>
     <use xlink:href="#m93f878d795" x="1263.176471" y="111.785871" style="fill: #ff7f0e; stroke: #ff7f0e"/>
     <use xlink:href="#m93f878d795" x="1266.160428" y="112.027105" style="fill: #ff7f0e; stroke: #ff7f0e"/>
     <use xlink:href="#m93f878d795" x="1269.144385" y="112.338706" style="fill: #ff7f0e; stroke: #ff7f0e"/>
     <use xlink:href="#m93f878d795" x="1272.128342" y="112.704909" style="fill: #ff7f0e; stroke: #ff7f0e"/>
     <use xlink:href="#m93f878d795" x="1275.112299" y="113.113292" style="fill: #ff7f0e; stroke: #ff7f0e"/>
     <use xlink:href="#m93f878d795" x="1278.096257" y="113.554044" style="fill: #ff7f0e; stroke: #ff7f0e"/>
     <use xlink:href="#m93f878d795" x="1281.080214" y="114.019394" style="fill: #ff7f0e; stroke: #ff7f0e"/>
    </g>
   </g>
   <g id="matplotlib.axis_5">
    <g id="xtick_15">
     <g id="line2d_41">
      <g>
       <use xlink:href="#m799e36d299" x="970.424456" y="640.8" style="stroke: #000000; stroke-width: 0.8"/>
      </g>
     </g>
     <g id="text_36">
      <text style="font: 10px 'sans-serif'; text-anchor: middle" x="970.424456" y="655.398438" transform="rotate(-0, 970.424456, 655.398438)">−0.15</text>
     </g>
    </g>
    <g id="xtick_16">
     <g id="line2d_42">
      <g>
       <use xlink:href="#m799e36d299" x="1024.243755" y="640.8" style="stroke: #000000; stroke-width: 0.8"/>
      </g>
     </g>
     <g id="text_37">
      <text style="font: 10px 'sans-serif'; text-anchor: middle" x="1024.243755" y="655.398438" transform="rotate(-0, 1024.243755, 655.398438)">−0.10</text>
     </g>
    </g>
    <g id="xtick_17">
     <g id="line2d_43">
      <g>
       <use xlink:href="#m799e36d299" x="1078.063054" y="640.8" style="stroke: #000000; stroke-width: 0.8"/>
      </g>
     </g>
     <g id="text_38">
      <text style="font: 10px 'sans-serif'; text-anchor: middle" x="1078.063054" y="655.398438" transform="rotate(-0, 1078.063054, 655.398438)">−0.05</text>
     </g>
    </g>
    <g id="xtick_18">
     <g id="line2d_44">
      <g>
       <use xlink:href="#m799e36d299" x="1131.882353" y="640.8" style="stroke: #000000; stroke-width: 0.8"/>
      </g>
     </g>
     <g id="text_39">
      <text style="font: 10px 'sans-serif'; text-anchor: middle" x="1131.882353" y="655.398438" transform="rotate(-0, 1131.882353, 655.398438)">0.00</text>
     </g>
    </g>
    <g id="xtick_19">
     <g id="line2d_45">
      <g>
       <use xlink:href="#m799e36d299" x="1185.701652" y="640.8" style="stroke: #000000; stroke-width: 0.8"/>
      </g>
     </g>
     <g id="text_40">
      <text style="font: 10px 'sans-serif'; text-anchor: middle" x="1185.701652" y="655.398438" transform="rotate(-0, 1185.701652, 655.398438)">0.05</text>
     </g>
    </g>
    <g id="xtick_20">
     <g id="line2d_46">
      <g>
       <use xlink:href="#m799e36d299" x="1239.520951" y="640.8" style="stroke: #000000; stroke-width: 0.8"/>
      </g>
     </g>
     <g id="text_41">
      <text style="font: 10px 'sans-serif'; text-anchor: middle" x="1239.520951" y="655.398438" transform="rotate(-0, 1239.520951, 655.398438)">0.10</text>
     </g>
    </g>
    <g id="xtick_21">
     <g id="line2d_47">
      <g>
       <use xlink:href="#m799e36d299" x="1293.34025" y="640.8" style="stroke: #000000; stroke-width: 0.8"/>
      </g>
     </g>
     <g id="text_42">
      <text style="font: 10px 'sans-serif'; text-anchor: middle" x="1293.34025" y="655.398438" transform="rotate(-0, 1293.34025, 655.398438)">0.15</text>
     </g>
    </g>
    <g id="text_43">
     <text style="font: 10px 'sans-serif'; text-anchor: middle" x="1131.882353" y="669.076563" transform="rotate(-0, 1131.882353, 669.076563)">kx</text>
    </g>
   </g>
   <g id="matplotlib.axis_6">
    <g id="ytick_17">
     <g id="line2d_48">
      <g>
       <use xlink:href="#m2bfc2029ea" x="967.764706" y="595.588656" style="stroke: #000000; stroke-width: 0.8"/>
      </g>
     </g>
     <g id="text_44">
      <text style="font: 10px 'sans-serif'; text-anchor: end" x="960.764706" y="599.387874" transform="rotate(-0, 960.764706, 599.387874)">−0.8</text>
     </g>
    </g>
    <g id="ytick_18">
     <g id="line2d_49">
      <g>
       <use xlink:href="#m2bfc2029ea" x="967.764706" y="522.940186" style="stroke: #000000; stroke-width: 0.8"/>
      </g>
     </g>
     <g id="text_45">
      <text style="font: 10px 'sans-serif'; text-anchor: end" x="960.764706" y="526.739405" transform="rotate(-0, 960.764706, 526.739405)">−0.6</text>
     </g>
    </g>
    <g id="ytick_19">
     <g id="line2d_50">
      <g>
       <use xlink:href="#m2bfc2029ea" x="967.764706" y="450.291717" style="stroke: #000000; stroke-width: 0.8"/>
      </g>
     </g>
     <g id="text_46">
      <text style="font: 10px 'sans-serif'; text-anchor: end" x="960.764706" y="454.090935" transform="rotate(-0, 960.764706, 454.090935)">−0.4</text>
     </g>
    </g>
    <g id="ytick_20">
     <g id="line2d_51">
      <g>
       <use xlink:href="#m2bfc2029ea" x="967.764706" y="377.643247" style="stroke: #000000; stroke-width: 0.8"/>
      </g>
     </g>
     <g id="text_47">
      <text style="font: 10px 'sans-serif'; text-anchor: end" x="960.764706" y="381.442466" transform="rotate(-0, 960.764706, 381.442466)">−0.2</text>
     </g>
    </g>
    <g id="ytick_21">
     <g id="line2d_52">
      <g>
       <use xlink:href="#m2bfc2029ea" x="967.764706" y="304.994778" style="stroke: #000000; stroke-width: 0.8"/>
      </g>
     </g>
     <g id="text_48">
      <text style="font: 10px 'sans-serif'; text-anchor: end" x="960.764706" y="308.793997" transform="rotate(-0, 960.764706, 308.793997)">0.0</text>
     </g>
    </g>
    <g id="ytick_22">
     <g id="line2d_53">
      <g>
       <use xlink:href="#m2bfc2029ea" x="967.764706" y="232.346308" style="stroke: #000000; stroke-width: 0.8"/>
      </g>
     </g>
     <g id="text_49">
      <text style="font: 10px 'sans-serif'; text-anchor: end" x="960.764706" y="236.145527" transform="rotate(-0, 960.764706, 236.145527)">0.2</text>
     </g>
    </g>
    <g id="ytick_23">
     <g id="line2d_54">
      <g>
       <use xlink:href="#m2bfc2029ea" x="967.764706" y="159.697839" style="stroke: #000000; stroke-width: 0.8"/>
      </g>
     </g>
     <g id="text_50">
      <text style="font: 10px 'sans-serif'; text-anchor: end" x="960.764706" y="163.497058" transform="rotate(-0, 960.764706, 163.497058)">0.4</text>
     </g>
    </g>
    <g id="ytick_24">
     <g id="line2d_55">
      <g>
       <use xlink:href="#m2bfc2029ea" x="967.764706" y="87.04937" style="stroke: #000000; stroke-width: 0.8"/>
      </g>
     </g>
     <g id="text_51">
      <text style="font: 10px 'sans-serif'; text-anchor: end" x="960.764706" y="90.848588" transform="rotate(-0, 960.764706, 90.848588)">0.6</text>
     </g>
    </g>
   </g>
   <g id="line2d_56">
    <path d="M 1057.283422 452.059763 
L 1058.775401 449.622261 
L 1060.26738 447.174153 
L 1061.759358 444.715402 
L 1063.251337 442.246008 
L 1064.743316 439.766043 
L 1066.235294 437.275436 
L 1067.727273 434.774185 
L 1069.219251 432.262364 
L 1070.71123 429.739901 
L 1072.203209 427.20683 
L 1073.695187 424.663153 
L 1075.187166 422.108869 
L 1076.679144 419.544015 
L 1078.171123 416.968518 
L 1079.663102 414.382414 
L 1081.15508 411.785703 
L 1082.647059 409.178422 
L 1084.139037 406.560571 
L 1085.631016 403.932113 
L 1087.122995 401.293048 
L 1088.614973 398.64345 
L 1090.106952 395.983244 
L 1091.59893 393.312505 
L 1093.090909 390.631195 
L 1094.582888 387.939352 
L 1096.074866 385.236974 
L 1097.566845 382.524098 
L 1099.058824 379.800689 
L 1100.550802 377.066818 
L 1102.042781 374.322486 
L 1103.534759 371.567728 
L 1105.026738 368.802546 
L 1106.518717 366.027048 
L 1108.010695 363.241233 
L 1109.502674 360.445175 
L 1110.994652 357.638946 
L 1112.486631 354.822692 
L 1113.97861 351.996558 
L 1115.470588 349.160725 
L 1116.962567 346.315484 
L 1118.454545 343.461234 
L 1119.946524 340.598612 
L 1121.438503 337.728547 
L 1122.930481 334.85262 
L 1124.42246 331.973655 
L 1125.914439 329.097197 
L 1127.406417 326.23585 
L 1128.898396 323.425106 
L 1130.390374 320.808987 
L 1131.882353 319.322941 
L 1133.374332 320.808987 
L 1134.86631 323.425106 
L 1136.358289 326.23585 
L 1137.850267 329.097197 
L 1139.342246 331.973655 
L 1140.834225 334.85262 
L 1142.326203 337.728547 
L 1143.818182 340.598612 
L 1145.31016 343.461234 
L 1146.802139 346.315484 
L 1148.294118 349.160725 
L 1149.786096 351.996558 
L 1151.278075 354.822692 
L 1152.770053 357.638946 
L 1154.262032 360.445175 
L 1155.754011 363.241233 
L 1157.245989 366.027048 
L 1158.737968 368.802546 
L 1160.229947 371.567728 
L 1161.721925 374.322486 
L 1163.213904 377.066818 
L 1164.705882 379.800689 
L 1166.197861 382.524098 
L 1167.68984 385.236974 
L 1169.181818 387.939352 
L 1170.673797 390.631195 
L 1172.165775 393.312505 
L 1173.657754 395.983244 
L 1175.149733 398.64345 
L 1176.641711 401.293048 
L 1178.13369 403.932113 
L 1179.625668 406.560571 
L 1181.117647 409.178422 
L 1182.609626 411.785703 
L 1184.101604 414.382414 
L 1185.593583 416.968518 
L 1187.085561 419.544015 
L 1188.57754 422.108869 
L 1190.069519 424.663153 
L 1191.561497 427.20683 
L 1193.053476 429.739901 
L 1194.545455 432.262364 
L 1196.037433 434.774185 
L 1197.529412 437.275436 
L 1199.02139 439.766043 
L 1200.513369 442.246008 
L 1202.005348 444.715402 
L 1203.497326 447.174153 
L 1204.989305 449.622261 
L 1206.481283 452.059763 
" clip-path="url(#pffeec58d28)" style="fill: none; stroke: #9467bd; stroke-width: 1.5; stroke-linecap: square"/>
   </g>
   <g id="line2d_57">
    <path d="M 1057.283422 155.59607 
L 1058.775401 159.086502 
L 1060.26738 162.566291 
L 1061.759358 166.035437 
L 1063.251337 169.49394 
L 1064.743316 172.9418 
L 1066.235294 176.378981 
L 1067.727273 179.805519 
L 1069.219251 183.221377 
L 1070.71123 186.626592 
L 1072.203209 190.021165 
L 1073.695187 193.405058 
L 1075.187166 196.778308 
L 1076.679144 200.140879 
L 1078.171123 203.49277 
L 1079.663102 206.834018 
L 1081.15508 210.164588 
L 1082.647059 213.484441 
L 1084.139037 216.793651 
L 1085.631016 220.092183 
L 1087.122995 223.379998 
L 1088.614973 226.657098 
L 1090.106952 229.923555 
L 1091.59893 233.179259 
L 1093.090909 236.424249 
L 1094.582888 239.658522 
L 1096.074866 242.882044 
L 1097.566845 246.094813 
L 1099.058824 249.296831 
L 1100.550802 252.488024 
L 1102.042781 255.668429 
L 1103.534759 258.838009 
L 1105.026738 261.996691 
L 1106.518717 265.144441 
L 1108.010695 268.281256 
L 1109.502674 271.407026 
L 1110.994652 274.521673 
L 1112.486631 277.625088 
L 1113.97861 280.717127 
L 1115.470588 283.797582 
L 1116.962567 286.86617 
L 1118.454545 289.922487 
L 1119.946524 292.965928 
L 1121.438503 295.995529 
L 1122.930481 299.009721 
L 1124.42246 302.00568 
L 1125.914439 304.977858 
L 1127.406417 307.913657 
L 1128.898396 310.777578 
L 1130.390374 313.425607 
L 1131.882353 314.922289 
L 1133.374332 313.425607 
L 1134.86631 310.777578 
L 1136.358289 307.913657 
L 1137.850267 304.977858 
L 1139.342246 302.00568 
L 1140.834225 299.009721 
L 1142.326203 295.995529 
L 1143.818182 292.965928 
L 1145.31016 289.922487 
L 1146.802139 286.86617 
L 1148.294118 283.797582 
L 1149.786096 280.717127 
L 1151.278075 277.625088 
L 1152.770053 274.521673 
L 1154.262032 271.407026 
L 1155.754011 268.281256 
L 1157.245989 265.144441 
L 1158.737968 261.996691 
L 1160.229947 258.838009 
L 1161.721925 255.668429 
L 1163.213904 252.488024 
L 1164.705882 249.296831 
L 1166.197861 246.094813 
L 1167.68984 242.882044 
L 1169.181818 239.658522 
L 1170.673797 236.424249 
L 1172.165775 233.179259 
L 1173.657754 229.923555 
L 1175.149733 226.657098 
L 1176.641711 223.379998 
L 1178.13369 220.092183 
L 1179.625668 216.793651 
L 1181.117647 213.484441 
L 1182.609626 210.164588 
L 1184.101604 206.834018 
L 1185.593583 203.49277 
L 1187.085561 200.140879 
L 1188.57754 196.778308 
L 1190.069519 193.405058 
L 1191.561497 190.021165 
L 1193.053476 186.626592 
L 1194.545455 183.221377 
L 1196.037433 179.805519 
L 1197.529412 176.378981 
L 1199.02139 172.9418 
L 1200.513369 169.49394 
L 1202.005348 166.035437 
L 1203.497326 162.566291 
L 1204.989305 159.086502 
L 1206.481283 155.59607 
" clip-path="url(#pffeec58d28)" style="fill: none; stroke: #e377c2; stroke-width: 1.5; stroke-linecap: square"/>
   </g>
   <g id="patch_13">
    <path d="M 967.764706 640.8 
L 967.764706 86.4 
" style="fill: none; stroke: #000000; stroke-width: 0.8; stroke-linejoin: miter; stroke-linecap: square"/>
   </g>
   <g id="patch_14">
    <path d="M 1296 640.8 
L 1296 86.4 
" style="fill: none; stroke: #000000; stroke-width: 0.8; stroke-linejoin: miter; stroke-linecap: square"/>
   </g>
   <g id="patch_15">
    <path d="M 967.764706 640.8 
L 1296 640.8 
" style="fill: none; stroke: #000000; stroke-width: 0.8; stroke-linejoin: miter; stroke-linecap: square"/>
   </g>
   <g id="patch_16">
    <path d="M 967.764706 86.4 
L 1296 86.4 
" style="fill: none; stroke: #000000; stroke-width: 0.8; stroke-linejoin: miter; stroke-linecap: square"/>
   </g>
   <g id="text_52">
    <text style="font: 12px 'sans-serif'; text-anchor: middle" x="1131.882353" y="80.4" transform="rotate(-0, 1131.882353, 80.4)">comparison</text>
   </g>
  </g>
 </g>
 <defs>
  <clipPath id="p833608d219">
   <rect x="180" y="86.4" width="328.235294" height="554.4"/>
  </clipPath>
  <clipPath id="p60355b1b4b">
   <rect x="573.882353" y="86.4" width="328.235294" height="554.4"/>
  </clipPath>
  <clipPath id="pffeec58d28">
   <rect x="967.764706" y="86.4" width="328.235294" height="554.4"/>
  </clipPath>
 </defs>
</svg>
