<?xml version="1.0" encoding="utf-8" standalone="no"?>
<!DOCTYPE svg PUBLIC "-//W3C//DTD SVG 1.1//EN"
  "http://www.w3.org/Graphics/SVG/1.1/DTD/svg11.dtd">
<svg xmlns:xlink="http://www.w3.org/1999/xlink" width="864pt" height="360pt" viewBox="0 0 864 360" xmlns="http://www.w3.org/2000/svg" version="1.1">
 <metadata>
  <rdf:RDF xmlns:dc="http://purl.org/dc/elements/1.1/" xmlns:cc="http://creativecommons.org/ns#" xmlns:rdf="http://www.w3.org/1999/02/22-rdf-syntax-ns#">
   <cc:Work>
    <dc:type rdf:resource="http://purl.org/dc/dcmitype/StillImage"/>
    <dc:date>2022-04-04T19:45:48.061461</dc:date>
    <dc:format>image/svg+xml</dc:format>
    <dc:creator>
     <cc:Agent>
      <dc:title>Matplotlib v3.5.1, https://matplotlib.org/</dc:title>
     </cc:Agent>
    </dc:creator>
   </cc:Work>
  </rdf:RDF>
 </metadata>
 <defs>
  <style type="text/css">*{stroke-linejoin: round; stroke-linecap: butt}</style>
 </defs>
 <g id="figure_1">
  <g id="patch_1">
   <path d="M 0 360 
L 864 360 
L 864 0 
L 0 0 
z
" style="fill: #ffffff"/>
  </g>
  <g id="axes_1">
   <g id="patch_2">
    <path d="M 108 320.4 
L 304.941176 320.4 
L 304.941176 43.2 
L 108 43.2 
z
" style="fill: #ffffff"/>
   </g>
   <g id="matplotlib.axis_1">
    <g id="xtick_1">
     <g id="line2d_1">
      <defs>
       <path id="m4934d98898" d="M 0 0 
L 0 3.5 
" style="stroke: #000000; stroke-width: 0.8"/>
      </defs>
      <g>
       <use xlink:href="#m4934d98898" x="141.887429" y="320.4" style="stroke: #000000; stroke-width: 0.8"/>
      </g>
     </g>
     <g id="text_1">
      <text style="font: 10px 'sans-serif'; text-anchor: middle" x="141.887429" y="334.998438" transform="rotate(-0, 141.887429, 334.998438)">−0.1</text>
     </g>
    </g>
    <g id="xtick_2">
     <g id="line2d_2">
      <g>
       <use xlink:href="#m4934d98898" x="206.470588" y="320.4" style="stroke: #000000; stroke-width: 0.8"/>
      </g>
     </g>
     <g id="text_2">
      <text style="font: 10px 'sans-serif'; text-anchor: middle" x="206.470588" y="334.998438" transform="rotate(-0, 206.470588, 334.998438)">0.0</text>
     </g>
    </g>
    <g id="xtick_3">
     <g id="line2d_3">
      <g>
       <use xlink:href="#m4934d98898" x="271.053747" y="320.4" style="stroke: #000000; stroke-width: 0.8"/>
      </g>
     </g>
     <g id="text_3">
      <text style="font: 10px 'sans-serif'; text-anchor: middle" x="271.053747" y="334.998438" transform="rotate(-0, 271.053747, 334.998438)">0.1</text>
     </g>
    </g>
    <g id="text_4">
     <text style="font: 10px 'sans-serif'; text-anchor: middle" x="206.470588" y="348.676562" transform="rotate(-0, 206.470588, 348.676562)">kx</text>
    </g>
   </g>
   <g id="matplotlib.axis_2">
    <g id="ytick_1">
     <g id="line2d_4">
      <defs>
       <path id="m7dc3b407f8" d="M 0 0 
L -3.5 0 
" style="stroke: #000000; stroke-width: 0.8"/>
      </defs>
      <g>
       <use xlink:href="#m7dc3b407f8" x="108" y="320.4" style="stroke: #000000; stroke-width: 0.8"/>
      </g>
     </g>
     <g id="text_5">
      <text style="font: 10px 'sans-serif'; text-anchor: end" x="101" y="324.199219" transform="rotate(-0, 101, 324.199219)">−2.0</text>
     </g>
    </g>
    <g id="ytick_2">
     <g id="line2d_5">
      <g>
       <use xlink:href="#m7dc3b407f8" x="108" y="280.8" style="stroke: #000000; stroke-width: 0.8"/>
      </g>
     </g>
     <g id="text_6">
      <text style="font: 10px 'sans-serif'; text-anchor: end" x="101" y="284.599219" transform="rotate(-0, 101, 284.599219)">−1.5</text>
     </g>
    </g>
    <g id="ytick_3">
     <g id="line2d_6">
      <g>
       <use xlink:href="#m7dc3b407f8" x="108" y="241.2" style="stroke: #000000; stroke-width: 0.8"/>
      </g>
     </g>
     <g id="text_7">
      <text style="font: 10px 'sans-serif'; text-anchor: end" x="101" y="244.999219" transform="rotate(-0, 101, 244.999219)">−1.0</text>
     </g>
    </g>
    <g id="ytick_4">
     <g id="line2d_7">
      <g>
       <use xlink:href="#m7dc3b407f8" x="108" y="201.6" style="stroke: #000000; stroke-width: 0.8"/>
      </g>
     </g>
     <g id="text_8">
      <text style="font: 10px 'sans-serif'; text-anchor: end" x="101" y="205.399219" transform="rotate(-0, 101, 205.399219)">−0.5</text>
     </g>
    </g>
    <g id="ytick_5">
     <g id="line2d_8">
      <g>
       <use xlink:href="#m7dc3b407f8" x="108" y="162" style="stroke: #000000; stroke-width: 0.8"/>
      </g>
     </g>
     <g id="text_9">
      <text style="font: 10px 'sans-serif'; text-anchor: end" x="101" y="165.799219" transform="rotate(-0, 101, 165.799219)">0.0</text>
     </g>
    </g>
    <g id="ytick_6">
     <g id="line2d_9">
      <g>
       <use xlink:href="#m7dc3b407f8" x="108" y="122.4" style="stroke: #000000; stroke-width: 0.8"/>
      </g>
     </g>
     <g id="text_10">
      <text style="font: 10px 'sans-serif'; text-anchor: end" x="101" y="126.199219" transform="rotate(-0, 101, 126.199219)">0.5</text>
     </g>
    </g>
    <g id="ytick_7">
     <g id="line2d_10">
      <g>
       <use xlink:href="#m7dc3b407f8" x="108" y="82.8" style="stroke: #000000; stroke-width: 0.8"/>
      </g>
     </g>
     <g id="text_11">
      <text style="font: 10px 'sans-serif'; text-anchor: end" x="101" y="86.599219" transform="rotate(-0, 101, 86.599219)">1.0</text>
     </g>
    </g>
    <g id="ytick_8">
     <g id="line2d_11">
      <g>
       <use xlink:href="#m7dc3b407f8" x="108" y="43.2" style="stroke: #000000; stroke-width: 0.8"/>
      </g>
     </g>
     <g id="text_12">
      <text style="font: 10px 'sans-serif'; text-anchor: end" x="101" y="46.999219" transform="rotate(-0, 101, 46.999219)">1.5</text>
     </g>
    </g>
    <g id="text_13">
     <text style="font: 10px 'sans-serif'; text-anchor: middle" x="70.6375" y="181.8" transform="rotate(-90, 70.6375, 181.8)">Energy</text>
    </g>
   </g>
   <g id="line2d_12">
    <path d="M 116.951872 229.278808 
L 118.742246 227.986185 
L 120.53262 226.69357 
L 122.322995 225.400954 
L 124.113369 224.108339 
L 125.903743 222.815732 
L 127.694118 221.523124 
L 129.484492 220.230517 
L 131.274866 218.93791 
L 133.065241 217.64531 
L 134.855615 216.352711 
L 136.645989 215.060111 
L 138.436364 213.767512 
L 140.226738 212.474928 
L 142.017112 211.182337 
L 143.807487 209.889753 
L 145.597861 208.597177 
L 147.388235 207.304602 
L 149.17861 206.012026 
L 150.968984 204.719466 
L 152.759358 203.426906 
L 154.549733 202.134354 
L 156.340107 200.84181 
L 158.130481 199.549274 
L 159.920856 198.256746 
L 161.71123 196.964226 
L 163.501604 195.671722 
L 165.291979 194.379225 
L 167.082353 193.086752 
L 168.872727 191.794288 
L 170.663102 190.501847 
L 172.453476 189.209429 
L 174.24385 187.917028 
L 176.034225 186.624666 
L 177.824599 185.332344 
L 179.614973 184.040061 
L 181.405348 182.747826 
L 183.195722 181.455662 
L 184.986096 180.163578 
L 186.776471 178.871596 
L 188.566845 177.579749 
L 190.357219 176.288084 
L 192.147594 174.996665 
L 193.937968 173.705594 
L 195.728342 172.415061 
L 197.518717 171.125361 
L 199.309091 169.837135 
L 201.099465 168.551833 
L 202.88984 167.273753 
L 204.680214 166.023118 
L 206.470588 165.124059 
L 208.260963 166.023118 
L 210.051337 167.273753 
L 211.841711 168.551833 
L 213.632086 169.837135 
L 215.42246 171.125361 
L 217.212834 172.415061 
L 219.003209 173.705594 
L 220.793583 174.996665 
L 222.583957 176.288084 
L 224.374332 177.579749 
L 226.164706 178.871596 
L 227.95508 180.163578 
L 229.745455 181.455662 
L 231.535829 182.747826 
L 233.326203 184.040061 
L 235.116578 185.332344 
L 236.906952 186.624666 
L 238.697326 187.917028 
L 240.487701 189.209429 
L 242.278075 190.501847 
L 244.068449 191.794288 
L 245.858824 193.086752 
L 247.649198 194.379225 
L 249.439572 195.671722 
L 251.229947 196.964226 
L 253.020321 198.256746 
L 254.810695 199.549274 
L 256.60107 200.84181 
L 258.391444 202.134354 
L 260.181818 203.426906 
L 261.972193 204.719466 
L 263.762567 206.012026 
L 265.552941 207.304602 
L 267.343316 208.597177 
L 269.13369 209.889753 
L 270.924064 211.182337 
L 272.714439 212.474928 
L 274.504813 213.767512 
L 276.295187 215.060111 
L 278.085561 216.352711 
L 279.875936 217.64531 
L 281.66631 218.93791 
L 283.456684 220.230517 
L 285.247059 221.523124 
L 287.037433 222.815732 
L 288.827807 224.108339 
L 290.618182 225.400954 
L 292.408556 226.69357 
L 294.19893 227.986185 
L 295.989305 229.278808 
" clip-path="url(#pc4adc25a5f)" style="fill: none; stroke: #9467bd; stroke-width: 1.5; stroke-linecap: square"/>
   </g>
   <g id="line2d_13">
    <path d="M 116.951872 100.009812 
L 118.742246 101.302427 
L 120.53262 102.595042 
L 122.322995 103.887657 
L 124.113369 105.180273 
L 125.903743 106.472888 
L 127.694118 107.765495 
L 129.484492 109.058103 
L 131.274866 110.350702 
L 133.065241 111.643309 
L 134.855615 112.935909 
L 136.645989 114.228508 
L 138.436364 115.5211 
L 140.226738 116.813691 
L 142.017112 118.106275 
L 143.807487 119.398859 
L 145.597861 120.691442 
L 147.388235 121.984018 
L 149.17861 123.276586 
L 150.968984 124.569153 
L 152.759358 125.861713 
L 154.549733 127.154265 
L 156.340107 128.446809 
L 158.130481 129.739345 
L 159.920856 131.031873 
L 161.71123 132.324386 
L 163.501604 133.616898 
L 165.291979 134.909387 
L 167.082353 136.201867 
L 168.872727 137.494324 
L 170.663102 138.786773 
L 172.453476 140.07919 
L 174.24385 141.371584 
L 176.034225 142.663946 
L 177.824599 143.956276 
L 179.614973 145.248558 
L 181.405348 146.540786 
L 183.195722 147.832957 
L 184.986096 149.125042 
L 186.776471 150.417016 
L 188.566845 151.708863 
L 190.357219 153.000528 
L 192.147594 154.291951 
L 193.937968 155.583019 
L 195.728342 156.873558 
L 197.518717 158.163256 
L 199.309091 159.451482 
L 201.099465 160.736782 
L 202.88984 162.014863 
L 204.680214 163.265498 
L 206.470588 164.164557 
L 208.260963 163.265498 
L 210.051337 162.014863 
L 211.841711 160.736782 
L 213.632086 159.451482 
L 215.42246 158.163256 
L 217.212834 156.873558 
L 219.003209 155.583019 
L 220.793583 154.291951 
L 222.583957 153.000528 
L 224.374332 151.708863 
L 226.164706 150.417016 
L 227.95508 149.125042 
L 229.745455 147.832957 
L 231.535829 146.540786 
L 233.326203 145.248558 
L 235.116578 143.956276 
L 236.906952 142.663946 
L 238.697326 141.371584 
L 240.487701 140.07919 
L 242.278075 138.786773 
L 244.068449 137.494324 
L 245.858824 136.201867 
L 247.649198 134.909387 
L 249.439572 133.616898 
L 251.229947 132.324386 
L 253.020321 131.031873 
L 254.810695 129.739345 
L 256.60107 128.446809 
L 258.391444 127.154265 
L 260.181818 125.861713 
L 261.972193 124.569153 
L 263.762567 123.276586 
L 265.552941 121.984018 
L 267.343316 120.691442 
L 269.13369 119.398859 
L 270.924064 118.106275 
L 272.714439 116.813691 
L 274.504813 115.5211 
L 276.295187 114.228508 
L 278.085561 112.935909 
L 279.875936 111.643309 
L 281.66631 110.350702 
L 283.456684 109.058103 
L 285.247059 107.765495 
L 287.037433 106.472888 
L 288.827807 105.180273 
L 290.618182 103.887657 
L 292.408556 102.595042 
L 294.19893 101.302427 
L 295.989305 100.009812 
" clip-path="url(#pc4adc25a5f)" style="fill: none; stroke: #e377c2; stroke-width: 1.5; stroke-linecap: square"/>
   </g>
   <g id="patch_3">
    <path d="M 108 320.4 
L 108 43.2 
" style="fill: none; stroke: #000000; stroke-width: 0.8; stroke-linejoin: miter; stroke-linecap: square"/>
   </g>
   <g id="patch_4">
    <path d="M 304.941176 320.4 
L 304.941176 43.2 
" style="fill: none; stroke: #000000; stroke-width: 0.8; stroke-linejoin: miter; stroke-linecap: square"/>
   </g>
   <g id="patch_5">
    <path d="M 108 320.4 
L 304.941176 320.4 
" style="fill: none; stroke: #000000; stroke-width: 0.8; stroke-linejoin: miter; stroke-linecap: square"/>
   </g>
   <g id="patch_6">
    <path d="M 108 43.2 
L 304.941176 43.2 
" style="fill: none; stroke: #000000; stroke-width: 0.8; stroke-linejoin: miter; stroke-linecap: square"/>
   </g>
   <g id="text_14">
    <text style="font: 12px 'sans-serif'; text-anchor: middle" x="206.470588" y="37.2" transform="rotate(-0, 206.470588, 37.2)">kx-cut</text>
   </g>
  </g>
  <g id="axes_2">
   <g id="patch_7">
    <path d="M 344.329412 320.4 
L 541.270588 320.4 
L 541.270588 43.2 
L 344.329412 43.2 
z
" style="fill: #ffffff"/>
   </g>
   <g id="matplotlib.axis_3">
    <g id="xtick_4">
     <g id="line2d_14">
      <g>
       <use xlink:href="#m4934d98898" x="378.216841" y="320.4" style="stroke: #000000; stroke-width: 0.8"/>
      </g>
     </g>
     <g id="text_15">
      <text style="font: 10px 'sans-serif'; text-anchor: middle" x="378.216841" y="334.998438" transform="rotate(-0, 378.216841, 334.998438)">−0.1</text>
     </g>
    </g>
    <g id="xtick_5">
     <g id="line2d_15">
      <g>
       <use xlink:href="#m4934d98898" x="442.8" y="320.4" style="stroke: #000000; stroke-width: 0.8"/>
      </g>
     </g>
     <g id="text_16">
      <text style="font: 10px 'sans-serif'; text-anchor: middle" x="442.8" y="334.998438" transform="rotate(-0, 442.8, 334.998438)">0.0</text>
     </g>
    </g>
    <g id="xtick_6">
     <g id="line2d_16">
      <g>
       <use xlink:href="#m4934d98898" x="507.383159" y="320.4" style="stroke: #000000; stroke-width: 0.8"/>
      </g>
     </g>
     <g id="text_17">
      <text style="font: 10px 'sans-serif'; text-anchor: middle" x="507.383159" y="334.998438" transform="rotate(-0, 507.383159, 334.998438)">0.1</text>
     </g>
    </g>
    <g id="text_18">
     <text style="font: 10px 'sans-serif'; text-anchor: middle" x="442.8" y="348.676562" transform="rotate(-0, 442.8, 348.676562)">ky</text>
    </g>
   </g>
   <g id="matplotlib.axis_4">
    <g id="ytick_9">
     <g id="line2d_17">
      <g>
       <use xlink:href="#m7dc3b407f8" x="344.329412" y="320.4" style="stroke: #000000; stroke-width: 0.8"/>
      </g>
     </g>
     <g id="text_19">
      <text style="font: 10px 'sans-serif'; text-anchor: end" x="337.329412" y="324.199219" transform="rotate(-0, 337.329412, 324.199219)">−2.0</text>
     </g>
    </g>
    <g id="ytick_10">
     <g id="line2d_18">
      <g>
       <use xlink:href="#m7dc3b407f8" x="344.329412" y="280.8" style="stroke: #000000; stroke-width: 0.8"/>
      </g>
     </g>
     <g id="text_20">
      <text style="font: 10px 'sans-serif'; text-anchor: end" x="337.329412" y="284.599219" transform="rotate(-0, 337.329412, 284.599219)">−1.5</text>
     </g>
    </g>
    <g id="ytick_11">
     <g id="line2d_19">
      <g>
       <use xlink:href="#m7dc3b407f8" x="344.329412" y="241.2" style="stroke: #000000; stroke-width: 0.8"/>
      </g>
     </g>
     <g id="text_21">
      <text style="font: 10px 'sans-serif'; text-anchor: end" x="337.329412" y="244.999219" transform="rotate(-0, 337.329412, 244.999219)">−1.0</text>
     </g>
    </g>
    <g id="ytick_12">
     <g id="line2d_20">
      <g>
       <use xlink:href="#m7dc3b407f8" x="344.329412" y="201.6" style="stroke: #000000; stroke-width: 0.8"/>
      </g>
     </g>
     <g id="text_22">
      <text style="font: 10px 'sans-serif'; text-anchor: end" x="337.329412" y="205.399219" transform="rotate(-0, 337.329412, 205.399219)">−0.5</text>
     </g>
    </g>
    <g id="ytick_13">
     <g id="line2d_21">
      <g>
       <use xlink:href="#m7dc3b407f8" x="344.329412" y="162" style="stroke: #000000; stroke-width: 0.8"/>
      </g>
     </g>
     <g id="text_23">
      <text style="font: 10px 'sans-serif'; text-anchor: end" x="337.329412" y="165.799219" transform="rotate(-0, 337.329412, 165.799219)">0.0</text>
     </g>
    </g>
    <g id="ytick_14">
     <g id="line2d_22">
      <g>
       <use xlink:href="#m7dc3b407f8" x="344.329412" y="122.4" style="stroke: #000000; stroke-width: 0.8"/>
      </g>
     </g>
     <g id="text_24">
      <text style="font: 10px 'sans-serif'; text-anchor: end" x="337.329412" y="126.199219" transform="rotate(-0, 337.329412, 126.199219)">0.5</text>
     </g>
    </g>
    <g id="ytick_15">
     <g id="line2d_23">
      <g>
       <use xlink:href="#m7dc3b407f8" x="344.329412" y="82.8" style="stroke: #000000; stroke-width: 0.8"/>
      </g>
     </g>
     <g id="text_25">
      <text style="font: 10px 'sans-serif'; text-anchor: end" x="337.329412" y="86.599219" transform="rotate(-0, 337.329412, 86.599219)">1.0</text>
     </g>
    </g>
    <g id="ytick_16">
     <g id="line2d_24">
      <g>
       <use xlink:href="#m7dc3b407f8" x="344.329412" y="43.2" style="stroke: #000000; stroke-width: 0.8"/>
      </g>
     </g>
     <g id="text_26">
      <text style="font: 10px 'sans-serif'; text-anchor: end" x="337.329412" y="46.999219" transform="rotate(-0, 337.329412, 46.999219)">1.5</text>
     </g>
    </g>
   </g>
   <g id="line2d_25">
    <path d="M 353.281283 172.200287 
L 355.071658 172.049783 
L 356.862032 171.899287 
L 358.652406 171.748815 
L 360.442781 171.598351 
L 362.233155 171.447903 
L 364.023529 171.29747 
L 365.813904 171.147061 
L 367.604278 170.996669 
L 369.394652 170.846292 
L 371.185027 170.695938 
L 372.975401 170.545609 
L 374.765775 170.395311 
L 376.55615 170.245037 
L 378.346524 170.094786 
L 380.136898 169.944576 
L 381.927273 169.7944 
L 383.717647 169.64426 
L 385.508021 169.494164 
L 387.298396 169.344112 
L 389.08877 169.194111 
L 390.879144 169.044166 
L 392.669519 168.894282 
L 394.459893 168.744468 
L 396.250267 168.594728 
L 398.040642 168.445073 
L 399.831016 168.295515 
L 401.62139 168.146064 
L 403.411765 167.996735 
L 405.202139 167.847545 
L 406.992513 167.698515 
L 408.782888 167.54967 
L 410.573262 167.401038 
L 412.363636 167.252656 
L 414.154011 167.104571 
L 415.944385 166.956839 
L 417.734759 166.809531 
L 419.525134 166.662742 
L 421.315508 166.516592 
L 423.105882 166.371245 
L 424.896257 166.226921 
L 426.686631 166.08393 
L 428.477005 165.942709 
L 430.26738 165.803906 
L 432.057754 165.668507 
L 433.848128 165.538057 
L 435.638503 165.415075 
L 437.428877 165.303752 
L 439.219251 165.211001 
L 441.009626 165.147206 
L 442.8 165.124059 
L 444.590374 165.147206 
L 446.380749 165.211001 
L 448.171123 165.303752 
L 449.961497 165.415075 
L 451.751872 165.538057 
L 453.542246 165.668507 
L 455.33262 165.803906 
L 457.122995 165.942709 
L 458.913369 166.08393 
L 460.703743 166.226921 
L 462.494118 166.371245 
L 464.284492 166.516592 
L 466.074866 166.662742 
L 467.865241 166.809531 
L 469.655615 166.956839 
L 471.445989 167.104571 
L 473.236364 167.252656 
L 475.026738 167.401038 
L 476.817112 167.54967 
L 478.607487 167.698515 
L 480.397861 167.847545 
L 482.188235 167.996735 
L 483.97861 168.146064 
L 485.768984 168.295515 
L 487.559358 168.445073 
L 489.349733 168.594728 
L 491.140107 168.744468 
L 492.930481 168.894282 
L 494.720856 169.044166 
L 496.51123 169.194111 
L 498.301604 169.344112 
L 500.091979 169.494164 
L 501.882353 169.64426 
L 503.672727 169.7944 
L 505.463102 169.944576 
L 507.253476 170.094786 
L 509.04385 170.245037 
L 510.834225 170.395311 
L 512.624599 170.545609 
L 514.414973 170.695938 
L 516.205348 170.846292 
L 517.995722 170.996669 
L 519.786096 171.147061 
L 521.576471 171.29747 
L 523.366845 171.447903 
L 525.157219 171.598351 
L 526.947594 171.748815 
L 528.737968 171.899287 
L 530.528342 172.049783 
L 532.318717 172.200287 
" clip-path="url(#pf76d64a66f)" style="fill: none; stroke: #9467bd; stroke-width: 1.5; stroke-linecap: square"/>
   </g>
   <g id="line2d_26">
    <path d="M 353.281283 157.08833 
L 355.071658 157.238834 
L 356.862032 157.389325 
L 358.652406 157.539803 
L 360.442781 157.690266 
L 362.233155 157.840714 
L 364.023529 157.991144 
L 365.813904 158.141557 
L 367.604278 158.291951 
L 369.394652 158.442324 
L 371.185027 158.592676 
L 372.975401 158.743004 
L 374.765775 158.893306 
L 376.55615 159.043581 
L 378.346524 159.193826 
L 380.136898 159.344039 
L 381.927273 159.494217 
L 383.717647 159.644355 
L 385.508021 159.794453 
L 387.298396 159.944504 
L 389.08877 160.094504 
L 390.879144 160.24445 
L 392.669519 160.394333 
L 394.459893 160.544149 
L 396.250267 160.693888 
L 398.040642 160.843542 
L 399.831016 160.993101 
L 401.62139 161.142552 
L 403.411765 161.291881 
L 405.202139 161.44107 
L 406.992513 161.590101 
L 408.782888 161.738946 
L 410.573262 161.887578 
L 412.363636 162.035959 
L 414.154011 162.184045 
L 415.944385 162.331777 
L 417.734759 162.479085 
L 419.525134 162.625874 
L 421.315508 162.772024 
L 423.105882 162.91737 
L 424.896257 163.061694 
L 426.686631 163.204687 
L 428.477005 163.345907 
L 430.26738 163.484709 
L 432.057754 163.62011 
L 433.848128 163.750559 
L 435.638503 163.873541 
L 437.428877 163.984864 
L 439.219251 164.077615 
L 441.009626 164.14141 
L 442.8 164.164557 
L 444.590374 164.14141 
L 446.380749 164.077615 
L 448.171123 163.984864 
L 449.961497 163.873541 
L 451.751872 163.750559 
L 453.542246 163.62011 
L 455.33262 163.484709 
L 457.122995 163.345907 
L 458.913369 163.204687 
L 460.703743 163.061694 
L 462.494118 162.91737 
L 464.284492 162.772024 
L 466.074866 162.625874 
L 467.865241 162.479085 
L 469.655615 162.331777 
L 471.445989 162.184045 
L 473.236364 162.035959 
L 475.026738 161.887578 
L 476.817112 161.738946 
L 478.607487 161.590101 
L 480.397861 161.44107 
L 482.188235 161.291881 
L 483.97861 161.142552 
L 485.768984 160.993101 
L 487.559358 160.843542 
L 489.349733 160.693888 
L 491.140107 160.544149 
L 492.930481 160.394333 
L 494.720856 160.24445 
L 496.51123 160.094504 
L 498.301604 159.944504 
L 500.091979 159.794453 
L 501.882353 159.644355 
L 503.672727 159.494217 
L 505.463102 159.344039 
L 507.253476 159.193826 
L 509.04385 159.043581 
L 510.834225 158.893306 
L 512.624599 158.743004 
L 514.414973 158.592676 
L 516.205348 158.442324 
L 517.995722 158.291951 
L 519.786096 158.141557 
L 521.576471 157.991144 
L 523.366845 157.840714 
L 525.157219 157.690266 
L 526.947594 157.539803 
L 528.737968 157.389325 
L 530.528342 157.238834 
L 532.318717 157.08833 
" clip-path="url(#pf76d64a66f)" style="fill: none; stroke: #e377c2; stroke-width: 1.5; stroke-linecap: square"/>
   </g>
   <g id="patch_8">
    <path d="M 344.329412 320.4 
L 344.329412 43.2 
" style="fill: none; stroke: #000000; stroke-width: 0.8; stroke-linejoin: miter; stroke-linecap: square"/>
   </g>
   <g id="patch_9">
    <path d="M 541.270588 320.4 
L 541.270588 43.2 
" style="fill: none; stroke: #000000; stroke-width: 0.8; stroke-linejoin: miter; stroke-linecap: square"/>
   </g>
   <g id="patch_10">
    <path d="M 344.329412 320.4 
L 541.270588 320.4 
" style="fill: none; stroke: #000000; stroke-width: 0.8; stroke-linejoin: miter; stroke-linecap: square"/>
   </g>
   <g id="patch_11">
    <path d="M 344.329412 43.2 
L 541.270588 43.2 
" style="fill: none; stroke: #000000; stroke-width: 0.8; stroke-linejoin: miter; stroke-linecap: square"/>
   </g>
   <g id="text_27">
    <text style="font: 12px 'sans-serif'; text-anchor: middle" x="442.8" y="37.2" transform="rotate(-0, 442.8, 37.2)">ky-cut</text>
   </g>
  </g>
  <g id="axes_3">
   <g id="patch_12">
    <path d="M 580.658824 320.4 
L 777.6 320.4 
L 777.6 43.2 
L 580.658824 43.2 
z
" style="fill: #ffffff"/>
   </g>
   <g id="matplotlib.axis_5">
    <g id="xtick_7">
     <g id="line2d_27">
      <g>
       <use xlink:href="#m4934d98898" x="614.546253" y="320.4" style="stroke: #000000; stroke-width: 0.8"/>
      </g>
     </g>
     <g id="text_28">
      <text style="font: 10px 'sans-serif'; text-anchor: middle" x="614.546253" y="334.998438" transform="rotate(-0, 614.546253, 334.998438)">−0.1</text>
     </g>
    </g>
    <g id="xtick_8">
     <g id="line2d_28">
      <g>
       <use xlink:href="#m4934d98898" x="679.129412" y="320.4" style="stroke: #000000; stroke-width: 0.8"/>
      </g>
     </g>
     <g id="text_29">
      <text style="font: 10px 'sans-serif'; text-anchor: middle" x="679.129412" y="334.998438" transform="rotate(-0, 679.129412, 334.998438)">0.0</text>
     </g>
    </g>
    <g id="xtick_9">
     <g id="line2d_29">
      <g>
       <use xlink:href="#m4934d98898" x="743.712571" y="320.4" style="stroke: #000000; stroke-width: 0.8"/>
      </g>
     </g>
     <g id="text_30">
      <text style="font: 10px 'sans-serif'; text-anchor: middle" x="743.712571" y="334.998438" transform="rotate(-0, 743.712571, 334.998438)">0.1</text>
     </g>
    </g>
    <g id="text_31">
     <text style="font: 10px 'sans-serif'; text-anchor: middle" x="679.129412" y="348.676562" transform="rotate(-0, 679.129412, 348.676562)">kz</text>
    </g>
   </g>
   <g id="matplotlib.axis_6">
    <g id="ytick_17">
     <g id="line2d_30">
      <g>
       <use xlink:href="#m7dc3b407f8" x="580.658824" y="320.4" style="stroke: #000000; stroke-width: 0.8"/>
      </g>
     </g>
     <g id="text_32">
      <text style="font: 10px 'sans-serif'; text-anchor: end" x="573.658824" y="324.199219" transform="rotate(-0, 573.658824, 324.199219)">−2.0</text>
     </g>
    </g>
    <g id="ytick_18">
     <g id="line2d_31">
      <g>
       <use xlink:href="#m7dc3b407f8" x="580.658824" y="280.8" style="stroke: #000000; stroke-width: 0.8"/>
      </g>
     </g>
     <g id="text_33">
      <text style="font: 10px 'sans-serif'; text-anchor: end" x="573.658824" y="284.599219" transform="rotate(-0, 573.658824, 284.599219)">−1.5</text>
     </g>
    </g>
    <g id="ytick_19">
     <g id="line2d_32">
      <g>
       <use xlink:href="#m7dc3b407f8" x="580.658824" y="241.2" style="stroke: #000000; stroke-width: 0.8"/>
      </g>
     </g>
     <g id="text_34">
      <text style="font: 10px 'sans-serif'; text-anchor: end" x="573.658824" y="244.999219" transform="rotate(-0, 573.658824, 244.999219)">−1.0</text>
     </g>
    </g>
    <g id="ytick_20">
     <g id="line2d_33">
      <g>
       <use xlink:href="#m7dc3b407f8" x="580.658824" y="201.6" style="stroke: #000000; stroke-width: 0.8"/>
      </g>
     </g>
     <g id="text_35">
      <text style="font: 10px 'sans-serif'; text-anchor: end" x="573.658824" y="205.399219" transform="rotate(-0, 573.658824, 205.399219)">−0.5</text>
     </g>
    </g>
    <g id="ytick_21">
     <g id="line2d_34">
      <g>
       <use xlink:href="#m7dc3b407f8" x="580.658824" y="162" style="stroke: #000000; stroke-width: 0.8"/>
      </g>
     </g>
     <g id="text_36">
      <text style="font: 10px 'sans-serif'; text-anchor: end" x="573.658824" y="165.799219" transform="rotate(-0, 573.658824, 165.799219)">0.0</text>
     </g>
    </g>
    <g id="ytick_22">
     <g id="line2d_35">
      <g>
       <use xlink:href="#m7dc3b407f8" x="580.658824" y="122.4" style="stroke: #000000; stroke-width: 0.8"/>
      </g>
     </g>
     <g id="text_37">
      <text style="font: 10px 'sans-serif'; text-anchor: end" x="573.658824" y="126.199219" transform="rotate(-0, 573.658824, 126.199219)">0.5</text>
     </g>
    </g>
    <g id="ytick_23">
     <g id="line2d_36">
      <g>
       <use xlink:href="#m7dc3b407f8" x="580.658824" y="82.8" style="stroke: #000000; stroke-width: 0.8"/>
      </g>
     </g>
     <g id="text_38">
      <text style="font: 10px 'sans-serif'; text-anchor: end" x="573.658824" y="86.599219" transform="rotate(-0, 573.658824, 86.599219)">1.0</text>
     </g>
    </g>
    <g id="ytick_24">
     <g id="line2d_37">
      <g>
       <use xlink:href="#m7dc3b407f8" x="580.658824" y="43.2" style="stroke: #000000; stroke-width: 0.8"/>
      </g>
     </g>
     <g id="text_39">
      <text style="font: 10px 'sans-serif'; text-anchor: end" x="573.658824" y="46.999219" transform="rotate(-0, 573.658824, 46.999219)">1.5</text>
     </g>
    </g>
   </g>
   <g id="line2d_38">
    <path d="M 589.610695 217.312987 
L 591.40107 216.259706 
L 593.191444 215.206417 
L 594.981818 214.153137 
L 596.772193 213.099856 
L 598.562567 212.046583 
L 600.352941 210.99331 
L 602.143316 209.940037 
L 603.93369 208.886764 
L 605.724064 207.833499 
L 607.514439 206.780234 
L 609.304813 205.726977 
L 611.095187 204.67372 
L 612.885561 203.620471 
L 614.675936 202.567222 
L 616.46631 201.513973 
L 618.256684 200.46074 
L 620.047059 199.407506 
L 621.837433 198.354281 
L 623.627807 197.301056 
L 625.418182 196.247846 
L 627.208556 195.194645 
L 628.99893 194.141451 
L 630.789305 193.088265 
L 632.579679 192.035087 
L 634.370053 190.981925 
L 636.160428 189.928779 
L 637.950802 188.875649 
L 639.741176 187.822534 
L 641.531551 186.769436 
L 643.321925 185.716369 
L 645.112299 184.663326 
L 646.902674 183.610314 
L 648.693048 182.557342 
L 650.483422 181.50441 
L 652.273797 180.451541 
L 654.064171 179.398727 
L 655.854545 178.346001 
L 657.64492 177.29337 
L 659.435294 176.240865 
L 661.225668 175.188527 
L 663.016043 174.13641 
L 664.806417 173.084594 
L 666.596791 172.033206 
L 668.387166 170.982468 
L 670.17754 169.932767 
L 671.967914 168.884853 
L 673.758289 167.840508 
L 675.548663 166.804904 
L 677.339037 165.801747 
L 679.129412 165.124059 
L 680.919786 165.801747 
L 682.71016 166.804904 
L 684.500535 167.840508 
L 686.290909 168.884853 
L 688.081283 169.932767 
L 689.871658 170.982468 
L 691.662032 172.033206 
L 693.452406 173.084594 
L 695.242781 174.13641 
L 697.033155 175.188527 
L 698.823529 176.240865 
L 700.613904 177.29337 
L 702.404278 178.346001 
L 704.194652 179.398727 
L 705.985027 180.451541 
L 707.775401 181.50441 
L 709.565775 182.557342 
L 711.35615 183.610314 
L 713.146524 184.663326 
L 714.936898 185.716369 
L 716.727273 186.769436 
L 718.517647 187.822534 
L 720.308021 188.875649 
L 722.098396 189.928779 
L 723.88877 190.981925 
L 725.679144 192.035087 
L 727.469519 193.088265 
L 729.259893 194.141451 
L 731.050267 195.194645 
L 732.840642 196.247846 
L 734.631016 197.301056 
L 736.42139 198.354281 
L 738.211765 199.407506 
L 740.002139 200.46074 
L 741.792513 201.513973 
L 743.582888 202.567222 
L 745.373262 203.620471 
L 747.163636 204.67372 
L 748.954011 205.726977 
L 750.744385 206.780234 
L 752.534759 207.833499 
L 754.325134 208.886764 
L 756.115508 209.940037 
L 757.905882 210.99331 
L 759.696257 212.046583 
L 761.486631 213.099856 
L 763.277005 214.153137 
L 765.06738 215.206417 
L 766.857754 216.259706 
L 768.648128 217.312987 
" clip-path="url(#p0e0d4edc37)" style="fill: none; stroke: #9467bd; stroke-width: 1.5; stroke-linecap: square"/>
   </g>
   <g id="line2d_39">
    <path d="M 589.610695 111.975625 
L 591.40107 113.028913 
L 593.191444 114.082194 
L 594.981818 115.135475 
L 596.772193 116.188756 
L 598.562567 117.242037 
L 600.352941 118.29531 
L 602.143316 119.348582 
L 603.93369 120.401847 
L 605.724064 121.45512 
L 607.514439 122.508377 
L 609.304813 123.561642 
L 611.095187 124.614899 
L 612.885561 125.668148 
L 614.675936 126.721398 
L 616.46631 127.774639 
L 618.256684 128.82788 
L 620.047059 129.881113 
L 621.837433 130.934339 
L 623.627807 131.987556 
L 625.418182 133.040766 
L 627.208556 134.093975 
L 628.99893 135.147169 
L 630.789305 136.200354 
L 632.579679 137.253532 
L 634.370053 138.306686 
L 636.160428 139.35984 
L 637.950802 140.412971 
L 639.741176 141.466085 
L 641.531551 142.519176 
L 643.321925 143.572251 
L 645.112299 144.625294 
L 646.902674 145.678298 
L 648.693048 146.731278 
L 650.483422 147.784202 
L 652.273797 148.837079 
L 654.064171 149.889884 
L 655.854545 150.942619 
L 657.64492 151.99525 
L 659.435294 153.047755 
L 661.225668 154.100089 
L 663.016043 155.152207 
L 664.806417 156.204023 
L 666.596791 157.255408 
L 668.387166 158.306145 
L 670.17754 159.355853 
L 671.967914 160.403763 
L 673.758289 161.448108 
L 675.548663 162.483712 
L 677.339037 163.486869 
L 679.129412 164.164557 
L 680.919786 163.486869 
L 682.71016 162.483712 
L 684.500535 161.448108 
L 686.290909 160.403763 
L 688.081283 159.355853 
L 689.871658 158.306145 
L 691.662032 157.255408 
L 693.452406 156.204023 
L 695.242781 155.152207 
L 697.033155 154.100089 
L 698.823529 153.047755 
L 700.613904 151.99525 
L 702.404278 150.942619 
L 704.194652 149.889884 
L 705.985027 148.837079 
L 707.775401 147.784202 
L 709.565775 146.731278 
L 711.35615 145.678298 
L 713.146524 144.625294 
L 714.936898 143.572251 
L 716.727273 142.519176 
L 718.517647 141.466085 
L 720.308021 140.412971 
L 722.098396 139.35984 
L 723.88877 138.306686 
L 725.679144 137.253532 
L 727.469519 136.200354 
L 729.259893 135.147169 
L 731.050267 134.093975 
L 732.840642 133.040766 
L 734.631016 131.987556 
L 736.42139 130.934339 
L 738.211765 129.881113 
L 740.002139 128.82788 
L 741.792513 127.774639 
L 743.582888 126.721398 
L 745.373262 125.668148 
L 747.163636 124.614899 
L 748.954011 123.561642 
L 750.744385 122.508377 
L 752.534759 121.45512 
L 754.325134 120.401847 
L 756.115508 119.348582 
L 757.905882 118.29531 
L 759.696257 117.242037 
L 761.486631 116.188756 
L 763.277005 115.135475 
L 765.06738 114.082194 
L 766.857754 113.028913 
L 768.648128 111.975625 
" clip-path="url(#p0e0d4edc37)" style="fill: none; stroke: #e377c2; stroke-width: 1.5; stroke-linecap: square"/>
   </g>
   <g id="patch_13">
    <path d="M 580.658824 320.4 
L 580.658824 43.2 
" style="fill: none; stroke: #000000; stroke-width: 0.8; stroke-linejoin: miter; stroke-linecap: square"/>
   </g>
   <g id="patch_14">
    <path d="M 777.6 320.4 
L 777.6 43.2 
" style="fill: none; stroke: #000000; stroke-width: 0.8; stroke-linejoin: miter; stroke-linecap: square"/>
   </g>
   <g id="patch_15">
    <path d="M 580.658824 320.4 
L 777.6 320.4 
" style="fill: none; stroke: #000000; stroke-width: 0.8; stroke-linejoin: miter; stroke-linecap: square"/>
   </g>
   <g id="patch_16">
    <path d="M 580.658824 43.2 
L 777.6 43.2 
" style="fill: none; stroke: #000000; stroke-width: 0.8; stroke-linejoin: miter; stroke-linecap: square"/>
   </g>
   <g id="text_40">
    <text style="font: 12px 'sans-serif'; text-anchor: middle" x="679.129412" y="37.2" transform="rotate(-0, 679.129412, 37.2)">kz-cut</text>
   </g>
  </g>
 </g>
 <defs>
  <clipPath id="pc4adc25a5f">
   <rect x="108" y="43.2" width="196.941176" height="277.2"/>
  </clipPath>
  <clipPath id="pf76d64a66f">
   <rect x="344.329412" y="43.2" width="196.941176" height="277.2"/>
  </clipPath>
  <clipPath id="p0e0d4edc37">
   <rect x="580.658824" y="43.2" width="196.941176" height="277.2"/>
  </clipPath>
 </defs>
</svg>
