<?xml version="1.0" encoding="utf-8" standalone="no"?>
<!DOCTYPE svg PUBLIC "-//W3C//DTD SVG 1.1//EN"
  "http://www.w3.org/Graphics/SVG/1.1/DTD/svg11.dtd">
<svg xmlns:xlink="http://www.w3.org/1999/xlink" width="1440pt" height="720pt" viewBox="0 0 1440 720" xmlns="http://www.w3.org/2000/svg" version="1.1">
 <metadata>
  <rdf:RDF xmlns:dc="http://purl.org/dc/elements/1.1/" xmlns:cc="http://creativecommons.org/ns#" xmlns:rdf="http://www.w3.org/1999/02/22-rdf-syntax-ns#">
   <cc:Work>
    <dc:type rdf:resource="http://purl.org/dc/dcmitype/StillImage"/>
    <dc:date>2022-03-28T19:06:38.572035</dc:date>
    <dc:format>image/svg+xml</dc:format>
    <dc:creator>
     <cc:Agent>
      <dc:title>Matplotlib v3.5.1, https://matplotlib.org/</dc:title>
     </cc:Agent>
    </dc:creator>
   </cc:Work>
  </rdf:RDF>
 </metadata>
 <defs>
  <style type="text/css">*{stroke-linejoin: round; stroke-linecap: butt}</style>
 </defs>
 <g id="figure_1">
  <g id="patch_1">
   <path d="M 0 720 
L 1440 720 
L 1440 0 
L 0 0 
z
" style="fill: #ffffff"/>
  </g>
  <g id="axes_1">
   <g id="patch_2">
    <path d="M 180 640.8 
L 508.235294 640.8 
L 508.235294 86.4 
L 180 86.4 
z
" style="fill: #ffffff"/>
   </g>
   <g id="matplotlib.axis_1">
    <g id="xtick_1">
     <g id="line2d_1">
      <defs>
       <path id="mf33fda46ac" d="M 0 0 
L 0 3.5 
" style="stroke: #000000; stroke-width: 0.8"/>
      </defs>
      <g>
       <use xlink:href="#mf33fda46ac" x="182.65975" y="640.8" style="stroke: #000000; stroke-width: 0.8"/>
      </g>
     </g>
     <g id="text_1">
      <text style="font: 10px 'sans-serif'; text-anchor: middle" x="182.65975" y="655.398438" transform="rotate(-0, 182.65975, 655.398438)">−0.15</text>
     </g>
    </g>
    <g id="xtick_2">
     <g id="line2d_2">
      <g>
       <use xlink:href="#mf33fda46ac" x="236.479049" y="640.8" style="stroke: #000000; stroke-width: 0.8"/>
      </g>
     </g>
     <g id="text_2">
      <text style="font: 10px 'sans-serif'; text-anchor: middle" x="236.479049" y="655.398438" transform="rotate(-0, 236.479049, 655.398438)">−0.10</text>
     </g>
    </g>
    <g id="xtick_3">
     <g id="line2d_3">
      <g>
       <use xlink:href="#mf33fda46ac" x="290.298348" y="640.8" style="stroke: #000000; stroke-width: 0.8"/>
      </g>
     </g>
     <g id="text_3">
      <text style="font: 10px 'sans-serif'; text-anchor: middle" x="290.298348" y="655.398438" transform="rotate(-0, 290.298348, 655.398438)">−0.05</text>
     </g>
    </g>
    <g id="xtick_4">
     <g id="line2d_4">
      <g>
       <use xlink:href="#mf33fda46ac" x="344.117647" y="640.8" style="stroke: #000000; stroke-width: 0.8"/>
      </g>
     </g>
     <g id="text_4">
      <text style="font: 10px 'sans-serif'; text-anchor: middle" x="344.117647" y="655.398438" transform="rotate(-0, 344.117647, 655.398438)">0.00</text>
     </g>
    </g>
    <g id="xtick_5">
     <g id="line2d_5">
      <g>
       <use xlink:href="#mf33fda46ac" x="397.936946" y="640.8" style="stroke: #000000; stroke-width: 0.8"/>
      </g>
     </g>
     <g id="text_5">
      <text style="font: 10px 'sans-serif'; text-anchor: middle" x="397.936946" y="655.398438" transform="rotate(-0, 397.936946, 655.398438)">0.05</text>
     </g>
    </g>
    <g id="xtick_6">
     <g id="line2d_6">
      <g>
       <use xlink:href="#mf33fda46ac" x="451.756245" y="640.8" style="stroke: #000000; stroke-width: 0.8"/>
      </g>
     </g>
     <g id="text_6">
      <text style="font: 10px 'sans-serif'; text-anchor: middle" x="451.756245" y="655.398438" transform="rotate(-0, 451.756245, 655.398438)">0.10</text>
     </g>
    </g>
    <g id="xtick_7">
     <g id="line2d_7">
      <g>
       <use xlink:href="#mf33fda46ac" x="505.575544" y="640.8" style="stroke: #000000; stroke-width: 0.8"/>
      </g>
     </g>
     <g id="text_7">
      <text style="font: 10px 'sans-serif'; text-anchor: middle" x="505.575544" y="655.398438" transform="rotate(-0, 505.575544, 655.398438)">0.15</text>
     </g>
    </g>
    <g id="text_8">
     <text style="font: 10px 'sans-serif'; text-anchor: middle" x="344.117647" y="669.076563" transform="rotate(-0, 344.117647, 669.076563)">kx</text>
    </g>
   </g>
   <g id="matplotlib.axis_2">
    <g id="ytick_1">
     <g id="line2d_8">
      <defs>
       <path id="m07a7c95f74" d="M 0 0 
L -3.5 0 
" style="stroke: #000000; stroke-width: 0.8"/>
      </defs>
      <g>
       <use xlink:href="#m07a7c95f74" x="180" y="606.15" style="stroke: #000000; stroke-width: 0.8"/>
      </g>
     </g>
     <g id="text_9">
      <text style="font: 10px 'sans-serif'; text-anchor: end" x="173" y="609.949219" transform="rotate(-0, 173, 609.949219)">−12</text>
     </g>
    </g>
    <g id="ytick_2">
     <g id="line2d_9">
      <g>
       <use xlink:href="#m07a7c95f74" x="180" y="536.85" style="stroke: #000000; stroke-width: 0.8"/>
      </g>
     </g>
     <g id="text_10">
      <text style="font: 10px 'sans-serif'; text-anchor: end" x="173" y="540.649219" transform="rotate(-0, 173, 540.649219)">−10</text>
     </g>
    </g>
    <g id="ytick_3">
     <g id="line2d_10">
      <g>
       <use xlink:href="#m07a7c95f74" x="180" y="467.55" style="stroke: #000000; stroke-width: 0.8"/>
      </g>
     </g>
     <g id="text_11">
      <text style="font: 10px 'sans-serif'; text-anchor: end" x="173" y="471.349219" transform="rotate(-0, 173, 471.349219)">−8</text>
     </g>
    </g>
    <g id="ytick_4">
     <g id="line2d_11">
      <g>
       <use xlink:href="#m07a7c95f74" x="180" y="398.25" style="stroke: #000000; stroke-width: 0.8"/>
      </g>
     </g>
     <g id="text_12">
      <text style="font: 10px 'sans-serif'; text-anchor: end" x="173" y="402.049219" transform="rotate(-0, 173, 402.049219)">−6</text>
     </g>
    </g>
    <g id="ytick_5">
     <g id="line2d_12">
      <g>
       <use xlink:href="#m07a7c95f74" x="180" y="328.95" style="stroke: #000000; stroke-width: 0.8"/>
      </g>
     </g>
     <g id="text_13">
      <text style="font: 10px 'sans-serif'; text-anchor: end" x="173" y="332.749219" transform="rotate(-0, 173, 332.749219)">−4</text>
     </g>
    </g>
    <g id="ytick_6">
     <g id="line2d_13">
      <g>
       <use xlink:href="#m07a7c95f74" x="180" y="259.65" style="stroke: #000000; stroke-width: 0.8"/>
      </g>
     </g>
     <g id="text_14">
      <text style="font: 10px 'sans-serif'; text-anchor: end" x="173" y="263.449219" transform="rotate(-0, 173, 263.449219)">−2</text>
     </g>
    </g>
    <g id="ytick_7">
     <g id="line2d_14">
      <g>
       <use xlink:href="#m07a7c95f74" x="180" y="190.35" style="stroke: #000000; stroke-width: 0.8"/>
      </g>
     </g>
     <g id="text_15">
      <text style="font: 10px 'sans-serif'; text-anchor: end" x="173" y="194.149219" transform="rotate(-0, 173, 194.149219)">0</text>
     </g>
    </g>
    <g id="ytick_8">
     <g id="line2d_15">
      <g>
       <use xlink:href="#m07a7c95f74" x="180" y="121.05" style="stroke: #000000; stroke-width: 0.8"/>
      </g>
     </g>
     <g id="text_16">
      <text style="font: 10px 'sans-serif'; text-anchor: end" x="173" y="124.849219" transform="rotate(-0, 173, 124.849219)">2</text>
     </g>
    </g>
    <g id="text_17">
     <text style="font: 10px 'sans-serif'; text-anchor: middle" x="145.815625" y="363.6" transform="rotate(-90, 145.815625, 363.6)">Energy</text>
    </g>
   </g>
   <g id="line2d_16">
    <path d="M 194.919786 617.297866 
L 197.903743 616.989236 
L 200.887701 616.679958 
L 203.871658 616.370078 
L 206.855615 616.059642 
L 209.839572 615.748702 
L 212.823529 615.437313 
L 215.807487 615.125534 
L 218.791444 614.813429 
L 221.775401 614.501066 
L 224.759358 614.188521 
L 227.743316 613.875874 
L 230.727273 613.563211 
L 233.71123 613.250627 
L 236.695187 612.938225 
L 239.679144 612.626118 
L 242.663102 612.314426 
L 245.647059 612.003283 
L 248.631016 611.692835 
L 251.614973 611.383241 
L 254.59893 611.074676 
L 257.582888 610.767332 
L 260.566845 610.46142 
L 263.550802 610.157173 
L 266.534759 609.854848 
L 269.518717 609.554727 
L 272.502674 609.257125 
L 275.486631 608.962388 
L 278.470588 608.6709 
L 281.454545 608.383087 
L 284.438503 608.09942 
L 287.42246 607.820422 
L 290.406417 607.546672 
L 293.390374 607.278812 
L 296.374332 607.01755 
L 299.358289 606.763665 
L 302.342246 606.518016 
L 305.326203 606.281541 
L 308.31016 606.055259 
L 311.294118 605.84027 
L 314.278075 605.637753 
L 317.262032 605.44895 
L 320.245989 605.275156 
L 323.229947 605.117697 
L 326.213904 604.977896 
L 329.197861 604.857042 
L 332.181818 604.75634 
L 335.165775 604.676869 
L 338.149733 604.61953 
L 341.13369 604.585005 
L 344.117647 604.573715 
L 347.101604 604.5858 
L 350.085561 604.62111 
L 353.069519 604.679215 
L 356.053476 604.759425 
L 359.037433 604.860833 
L 362.02139 604.982355 
L 365.005348 605.12278 
L 367.989305 605.28082 
L 370.973262 605.45515 
L 373.957219 605.644446 
L 376.941176 605.847413 
L 379.925134 606.062811 
L 382.909091 606.289464 
L 385.893048 606.526275 
L 388.877005 606.772227 
L 391.860963 607.026384 
L 394.84492 607.287892 
L 397.828877 607.555973 
L 400.812834 607.82992 
L 403.796791 608.109096 
L 406.780749 608.392922 
L 409.764706 608.680878 
L 412.748663 608.972494 
L 415.73262 609.267345 
L 418.716578 609.565049 
L 421.700535 609.865261 
L 424.684492 610.167668 
L 427.668449 610.471987 
L 430.652406 610.777963 
L 433.636364 611.085364 
L 436.620321 611.393979 
L 439.604278 611.703617 
L 442.588235 612.014103 
L 445.572193 612.325279 
L 448.55615 612.637 
L 451.540107 612.949132 
L 454.524064 613.261554 
L 457.508021 613.574155 
L 460.491979 613.886832 
L 463.475936 614.19949 
L 466.459893 614.512044 
L 469.44385 614.824411 
L 472.427807 615.13652 
L 475.411765 615.4483 
L 478.395722 615.759688 
L 481.379679 616.070625 
L 484.363636 616.381056 
L 487.347594 616.69093 
L 490.331551 617.0002 
L 493.315508 617.308821 
" clip-path="url(#p04b8ca03e0)" style="fill: none; stroke: #000000; stroke-width: 1.5; stroke-linecap: square"/>
   </g>
   <g id="line2d_17">
    <path d="M 194.919786 576.663722 
L 197.903743 577.079921 
L 200.887701 577.4948 
L 203.871658 577.908302 
L 206.855615 578.320367 
L 209.839572 578.730932 
L 212.823529 579.139929 
L 215.807487 579.547289 
L 218.791444 579.952936 
L 221.775401 580.35679 
L 224.759358 580.758766 
L 227.743316 581.158773 
L 230.727273 581.556713 
L 233.71123 581.952482 
L 236.695187 582.345968 
L 239.679144 582.737048 
L 242.663102 583.125593 
L 245.647059 583.511458 
L 248.631016 583.894491 
L 251.614973 584.274524 
L 254.59893 584.651373 
L 257.582888 585.024838 
L 260.566845 585.3947 
L 263.550802 585.76072 
L 266.534759 586.122633 
L 269.518717 586.480149 
L 272.502674 586.832948 
L 275.486631 587.180677 
L 278.470588 587.522946 
L 281.454545 587.859323 
L 284.438503 588.189331 
L 287.42246 588.512442 
L 290.406417 588.828072 
L 293.390374 589.135575 
L 296.374332 589.434237 
L 299.358289 589.723275 
L 302.342246 590.001826 
L 305.326203 590.268949 
L 308.31016 590.523621 
L 311.294118 590.764738 
L 314.278075 590.991119 
L 317.262032 591.201519 
L 320.245989 591.39464 
L 323.229947 591.569154 
L 326.213904 591.723736 
L 329.197861 591.857097 
L 332.181818 591.968028 
L 335.165775 592.05545 
L 338.149733 592.118461 
L 341.13369 592.156379 
L 344.117647 592.168781 
L 347.101604 592.155529 
L 350.085561 592.11677 
L 353.069519 592.052938 
L 356.053476 591.964722 
L 359.037433 591.853029 
L 362.02139 591.718946 
L 365.005348 591.563684 
L 367.989305 591.388533 
L 370.973262 591.194821 
L 373.957219 590.983874 
L 376.941176 590.756988 
L 379.925134 590.515407 
L 382.909091 590.260309 
L 385.893048 589.992796 
L 388.877005 589.713887 
L 391.860963 589.424522 
L 394.84492 589.125559 
L 397.828877 588.817782 
L 400.812834 588.5019 
L 403.796791 588.178557 
L 406.780749 587.848335 
L 409.764706 587.511761 
L 412.748663 587.169311 
L 415.73262 586.821414 
L 418.716578 586.468459 
L 421.700535 586.110798 
L 424.684492 585.748751 
L 427.668449 585.382606 
L 430.652406 585.012627 
L 433.636364 584.639052 
L 436.620321 584.262101 
L 439.604278 583.881972 
L 442.588235 583.498848 
L 445.572193 583.112897 
L 448.55615 582.724273 
L 451.540107 582.333116 
L 454.524064 581.939558 
L 457.508021 581.543721 
L 460.491979 581.145716 
L 463.475936 580.745648 
L 466.459893 580.343613 
L 469.44385 579.939704 
L 472.427807 579.534004 
L 475.411765 579.126593 
L 478.395722 578.717547 
L 481.379679 578.306936 
L 484.363636 577.894827 
L 487.347594 577.481282 
L 490.331551 577.066363 
L 493.315508 576.650125 
" clip-path="url(#p04b8ca03e0)" style="fill: none; stroke: #008000; stroke-width: 1.5; stroke-linecap: square"/>
   </g>
   <g id="line2d_18">
    <path d="M 194.919786 263.257989 
L 197.903743 262.95403 
L 200.887701 262.651488 
L 203.871658 262.35043 
L 206.855615 262.050922 
L 209.839572 261.753033 
L 212.823529 261.456833 
L 215.807487 261.162395 
L 218.791444 260.869793 
L 221.775401 260.579106 
L 224.759358 260.290412 
L 227.743316 260.003793 
L 230.727273 259.719336 
L 233.71123 259.437127 
L 236.695187 259.15726 
L 239.679144 258.879829 
L 242.663102 258.604935 
L 245.647059 258.332682 
L 248.631016 258.063179 
L 251.614973 257.796542 
L 254.59893 257.532891 
L 257.582888 257.272356 
L 260.566845 257.015072 
L 263.550802 256.761184 
L 266.534759 256.510848 
L 269.518717 256.264231 
L 272.502674 256.021511 
L 275.486631 255.782883 
L 278.470588 255.548559 
L 281.454545 255.318769 
L 284.438503 255.093766 
L 287.42246 254.873829 
L 290.406417 254.659266 
L 293.390374 254.450419 
L 296.374332 254.24767 
L 299.358289 254.051444 
L 302.342246 253.862218 
L 305.326203 253.680527 
L 308.31016 253.506967 
L 311.294118 253.342208 
L 314.278075 253.186994 
L 317.262032 253.042146 
L 320.245989 252.908561 
L 323.229947 252.787206 
L 326.213904 252.6791 
L 329.197861 252.585289 
L 332.181818 252.506802 
L 335.165775 252.444608 
L 338.149733 252.399551 
L 341.13369 252.37229 
L 344.117647 252.363244 
L 347.101604 252.372557 
L 350.085561 252.40008 
L 353.069519 252.445389 
L 356.053476 252.507821 
L 359.037433 252.586528 
L 362.02139 252.680543 
L 365.005348 252.788832 
L 367.989305 252.910351 
L 370.973262 253.044082 
L 373.957219 253.18906 
L 376.941176 253.344389 
L 379.925134 253.509248 
L 382.909091 253.682896 
L 385.893048 253.864664 
L 388.877005 254.053958 
L 391.860963 254.250242 
L 394.84492 254.453043 
L 397.828877 254.661934 
L 400.812834 254.876535 
L 403.796791 255.096506 
L 406.780749 255.321538 
L 409.764706 255.551352 
L 412.748663 255.785697 
L 415.73262 256.024343 
L 418.716578 256.267078 
L 421.700535 256.513707 
L 424.684492 256.764053 
L 427.668449 257.017948 
L 430.652406 257.275238 
L 433.636364 257.535778 
L 436.620321 257.799431 
L 439.604278 258.066069 
L 442.588235 258.335571 
L 445.572193 258.607823 
L 448.55615 258.882713 
L 451.540107 259.16014 
L 454.524064 259.440002 
L 457.508021 259.722204 
L 460.491979 260.006654 
L 463.475936 260.293265 
L 466.459893 260.58195 
L 469.44385 260.872628 
L 472.427807 261.165219 
L 475.411765 261.459645 
L 478.395722 261.755834 
L 481.379679 262.05371 
L 484.363636 262.353205 
L 487.347594 262.654249 
L 490.331551 262.956776 
L 493.315508 263.260721 
" clip-path="url(#p04b8ca03e0)" style="fill: none; stroke: #1f77b4; stroke-width: 1.5; stroke-linecap: square"/>
   </g>
   <g id="line2d_19">
    <path d="M 194.919786 247.525668 
L 197.903743 247.448379 
L 200.887701 247.375192 
L 203.871658 247.306164 
L 206.855615 247.241353 
L 209.839572 247.180812 
L 212.823529 247.124591 
L 215.807487 247.072736 
L 218.791444 247.02529 
L 221.775401 246.982293 
L 224.759358 246.943778 
L 227.743316 246.909775 
L 230.727273 246.88031 
L 233.71123 246.8554 
L 236.695187 246.835061 
L 239.679144 246.8193 
L 242.663102 246.808117 
L 245.647059 246.801507 
L 248.631016 246.799456 
L 251.614973 246.801942 
L 254.59893 246.808934 
L 257.582888 246.82039 
L 260.566845 246.83626 
L 263.550802 246.85648 
L 266.534759 246.880973 
L 269.518717 246.90965 
L 272.502674 246.942403 
L 275.486631 246.979108 
L 278.470588 247.019621 
L 281.454545 247.063776 
L 284.438503 247.111379 
L 287.42246 247.16221 
L 290.406417 247.216016 
L 293.390374 247.272506 
L 296.374332 247.331349 
L 299.358289 247.392163 
L 302.342246 247.454517 
L 305.326203 247.517914 
L 308.31016 247.581795 
L 311.294118 247.645524 
L 314.278075 247.708391 
L 317.262032 247.769601 
L 320.245989 247.828284 
L 323.229947 247.883494 
L 326.213904 247.934234 
L 329.197861 247.979476 
L 332.181818 248.018204 
L 335.165775 248.049462 
L 338.149733 248.072415 
L 341.13369 248.086412 
L 344.117647 248.091035 
L 347.101604 248.086144 
L 350.085561 248.071885 
L 353.069519 248.04868 
L 356.053476 248.017184 
L 359.037433 247.978234 
L 362.02139 247.932789 
L 365.005348 247.881865 
L 367.989305 247.826489 
L 370.973262 247.767659 
L 373.957219 247.706318 
L 376.941176 247.643335 
L 379.925134 247.579503 
L 382.909091 247.515533 
L 385.893048 247.452056 
L 388.877005 247.389634 
L 391.860963 247.328758 
L 394.84492 247.269861 
L 397.828877 247.213323 
L 400.812834 247.159475 
L 403.796791 247.108606 
L 406.780749 247.06097 
L 409.764706 247.016787 
L 412.748663 246.976247 
L 415.73262 246.939519 
L 418.716578 246.906745 
L 421.700535 246.878049 
L 424.684492 246.853539 
L 427.668449 246.833304 
L 430.652406 246.81742 
L 433.636364 246.805951 
L 436.620321 246.798948 
L 439.604278 246.796451 
L 442.588235 246.798493 
L 445.572193 246.805094 
L 448.55615 246.816268 
L 451.540107 246.832021 
L 454.524064 246.852352 
L 457.508021 246.877254 
L 460.491979 246.906713 
L 463.475936 246.940709 
L 466.459893 246.979217 
L 469.44385 247.022207 
L 472.427807 247.069646 
L 475.411765 247.121494 
L 478.395722 247.177708 
L 481.379679 247.238242 
L 484.363636 247.303046 
L 487.347594 247.372066 
L 490.331551 247.445246 
L 493.315508 247.522527 
" clip-path="url(#p04b8ca03e0)" style="fill: none; stroke: #2ca02c; stroke-width: 1.5; stroke-linecap: square"/>
   </g>
   <g id="line2d_20">
    <path d="M 194.919786 206.175754 
L 197.903743 205.871518 
L 200.887701 205.567913 
L 203.871658 205.264939 
L 206.855615 204.962593 
L 209.839572 204.660873 
L 212.823529 204.359773 
L 215.807487 204.059287 
L 218.791444 203.759409 
L 221.775401 203.460131 
L 224.759358 203.161442 
L 227.743316 202.863333 
L 230.727273 202.565791 
L 233.71123 202.268804 
L 236.695187 201.972358 
L 239.679144 201.676439 
L 242.663102 201.38103 
L 245.647059 201.086116 
L 248.631016 200.79168 
L 251.614973 200.497703 
L 254.59893 200.204168 
L 257.582888 199.911056 
L 260.566845 199.618347 
L 263.550802 199.326024 
L 266.534759 199.034065 
L 269.518717 198.742453 
L 272.502674 198.451167 
L 275.486631 198.16019 
L 278.470588 197.869502 
L 281.454545 197.579085 
L 284.438503 197.288924 
L 287.42246 196.999002 
L 290.406417 196.709304 
L 293.390374 196.419817 
L 296.374332 196.130529 
L 299.358289 195.841432 
L 302.342246 195.552519 
L 305.326203 195.263788 
L 308.31016 194.97524 
L 311.294118 194.686884 
L 314.278075 194.398738 
L 317.262032 194.110831 
L 320.245989 193.823216 
L 323.229947 193.535975 
L 326.213904 193.249256 
L 329.197861 192.963319 
L 332.181818 192.678687 
L 335.165775 192.396544 
L 338.149733 192.120234 
L 341.13369 191.863392 
L 344.117647 191.716776 
L 347.101604 191.863235 
L 350.085561 192.120069 
L 353.069519 192.396394 
L 356.053476 192.678556 
L 359.037433 192.963208 
L 362.02139 193.249165 
L 365.005348 193.535906 
L 367.989305 193.823167 
L 370.973262 194.110804 
L 373.957219 194.398732 
L 376.941176 194.686899 
L 379.925134 194.975275 
L 382.909091 195.263843 
L 385.893048 195.552595 
L 388.877005 195.841528 
L 391.860963 196.130645 
L 394.84492 196.419952 
L 397.828877 196.709459 
L 400.812834 196.999176 
L 403.796791 197.289118 
L 406.780749 197.579297 
L 409.764706 197.869732 
L 412.748663 198.160438 
L 415.73262 198.451433 
L 418.716578 198.742736 
L 421.700535 199.034365 
L 424.684492 199.32634 
L 427.668449 199.61868 
L 430.652406 199.911404 
L 433.636364 200.204531 
L 436.620321 200.498081 
L 439.604278 200.792072 
L 442.588235 201.086522 
L 445.572193 201.38145 
L 448.55615 201.676871 
L 451.540107 201.972802 
L 454.524064 202.26926 
L 457.508021 202.566258 
L 460.491979 202.86381 
L 463.475936 203.16193 
L 466.459893 203.460628 
L 469.44385 203.759915 
L 472.427807 204.059801 
L 475.411765 204.360294 
L 478.395722 204.661401 
L 481.379679 204.963128 
L 484.363636 205.265479 
L 487.347594 205.568459 
L 490.331551 205.872068 
L 493.315508 206.176308 
" clip-path="url(#p04b8ca03e0)" style="fill: none; stroke: #9467bd; stroke-width: 1.5; stroke-linecap: square"/>
   </g>
   <g id="line2d_21">
    <path d="M 194.919786 177.591237 
L 197.903743 177.85715 
L 200.887701 178.123268 
L 203.871658 178.389639 
L 206.855615 178.656311 
L 209.839572 178.923327 
L 212.823529 179.190732 
L 215.807487 179.458564 
L 218.791444 179.726863 
L 221.775401 179.995663 
L 224.759358 180.264996 
L 227.743316 180.534892 
L 230.727273 180.805377 
L 233.71123 181.076473 
L 236.695187 181.3482 
L 239.679144 181.620574 
L 242.663102 181.893607 
L 245.647059 182.167308 
L 248.631016 182.441684 
L 251.614973 182.716737 
L 254.59893 182.992466 
L 257.582888 183.268869 
L 260.566845 183.545938 
L 263.550802 183.823665 
L 266.534759 184.102037 
L 269.518717 184.38104 
L 272.502674 184.660658 
L 275.486631 184.940872 
L 278.470588 185.22166 
L 281.454545 185.503002 
L 284.438503 185.784871 
L 287.42246 186.067244 
L 290.406417 186.350091 
L 293.390374 186.633385 
L 296.374332 186.917095 
L 299.358289 187.20119 
L 302.342246 187.485636 
L 305.326203 187.770397 
L 308.31016 188.055433 
L 311.294118 188.340701 
L 314.278075 188.62615 
L 317.262032 188.911717 
L 320.245989 189.197324 
L 323.229947 189.482858 
L 326.213904 189.768152 
L 329.197861 190.052921 
L 332.181818 190.336626 
L 335.165775 190.618069 
L 338.149733 190.893894 
L 341.13369 191.150456 
L 344.117647 191.296994 
L 347.101604 191.150655 
L 350.085561 190.894144 
L 353.069519 190.618347 
L 356.053476 190.336929 
L 359.037433 190.053245 
L 362.02139 189.768498 
L 365.005348 189.483225 
L 367.989305 189.197711 
L 370.973262 188.912125 
L 373.957219 188.626577 
L 376.941176 188.341148 
L 379.925134 188.055899 
L 382.909091 187.770881 
L 385.893048 187.486138 
L 388.877005 187.20171 
L 391.860963 186.917632 
L 394.84492 186.633938 
L 397.828877 186.350659 
L 400.812834 186.067827 
L 403.796791 185.785469 
L 406.780749 185.503612 
L 409.764706 185.222283 
L 412.748663 184.941506 
L 415.73262 184.661303 
L 418.716578 184.381695 
L 421.700535 184.1027 
L 424.684492 183.824335 
L 427.668449 183.546615 
L 430.652406 183.269551 
L 433.636364 182.993152 
L 436.620321 182.717425 
L 439.604278 182.442373 
L 442.588235 182.167997 
L 445.572193 181.894295 
L 448.55615 181.621259 
L 451.540107 181.348881 
L 454.524064 181.077148 
L 457.508021 180.806044 
L 460.491979 180.535551 
L 463.475936 180.265644 
L 466.459893 179.996299 
L 469.44385 179.727486 
L 472.427807 179.459172 
L 475.411765 179.191324 
L 478.395722 178.923902 
L 481.379679 178.656866 
L 484.363636 178.390174 
L 487.347594 178.123781 
L 490.331551 177.857641 
L 493.315508 177.591704 
" clip-path="url(#p04b8ca03e0)" style="fill: none; stroke: #e377c2; stroke-width: 1.5; stroke-linecap: square"/>
   </g>
   <g id="line2d_22">
    <path d="M 194.919786 162.061516 
L 197.903743 162.211297 
L 200.887701 162.355034 
L 203.871658 162.492606 
L 206.855615 162.623896 
L 209.839572 162.748796 
L 212.823529 162.867202 
L 215.807487 162.979022 
L 218.791444 163.084168 
L 221.775401 163.182562 
L 224.759358 163.274135 
L 227.743316 163.358827 
L 230.727273 163.436588 
L 233.71123 163.507378 
L 236.695187 163.571169 
L 239.679144 163.627941 
L 242.663102 163.677689 
L 245.647059 163.720417 
L 248.631016 163.756144 
L 251.614973 163.784898 
L 254.59893 163.806725 
L 257.582888 163.821681 
L 260.566845 163.829839 
L 263.550802 163.831287 
L 266.534759 163.82613 
L 269.518717 163.81449 
L 272.502674 163.796508 
L 275.486631 163.772348 
L 278.470588 163.742195 
L 281.454545 163.706259 
L 284.438503 163.664781 
L 287.42246 163.618033 
L 290.406417 163.566323 
L 293.390374 163.510004 
L 296.374332 163.449475 
L 299.358289 163.385191 
L 302.342246 163.317675 
L 305.326203 163.247522 
L 308.31016 163.175417 
L 311.294118 163.102141 
L 314.278075 163.02859 
L 317.262032 162.955782 
L 320.245989 162.884865 
L 323.229947 162.81712 
L 326.213904 162.753949 
L 329.197861 162.696843 
L 332.181818 162.647332 
L 335.165775 162.606907 
L 338.149733 162.576912 
L 341.13369 162.558426 
L 344.117647 162.552154 
L 347.101604 162.558339 
L 350.085561 162.576739 
L 353.069519 162.606649 
L 356.053476 162.646992 
L 359.037433 162.696422 
L 362.02139 162.753452 
L 365.005348 162.816549 
L 367.989305 162.884222 
L 370.973262 162.95507 
L 373.957219 163.027812 
L 376.941176 163.101298 
L 379.925134 163.174511 
L 382.909091 163.246556 
L 385.893048 163.31665 
L 388.877005 163.384108 
L 391.860963 163.448336 
L 394.84492 163.50881 
L 397.828877 163.565076 
L 400.812834 163.616734 
L 403.796791 163.663431 
L 406.780749 163.70486 
L 409.764706 163.740748 
L 412.748663 163.770855 
L 415.73262 163.794971 
L 418.716578 163.812909 
L 421.700535 163.824508 
L 424.684492 163.829625 
L 427.668449 163.828139 
L 430.652406 163.819945 
L 433.636364 163.804955 
L 436.620321 163.783097 
L 439.604278 163.754312 
L 442.588235 163.718558 
L 445.572193 163.675804 
L 448.55615 163.626033 
L 451.540107 163.56924 
L 454.524064 163.50543 
L 457.508021 163.434624 
L 460.491979 163.356849 
L 463.475936 163.272146 
L 466.459893 163.180564 
L 469.44385 163.082164 
L 472.427807 162.977015 
L 475.411765 162.865194 
L 478.395722 162.746789 
L 481.379679 162.621893 
L 484.363636 162.490609 
L 487.347594 162.353047 
L 490.331551 162.209321 
L 493.315508 162.059554 
" clip-path="url(#p04b8ca03e0)" style="fill: none; stroke: #bcbd22; stroke-width: 1.5; stroke-linecap: square"/>
   </g>
   <g id="line2d_23">
    <path d="M 194.919786 146.546076 
L 197.903743 146.86658 
L 200.887701 147.185952 
L 203.871658 147.50413 
L 206.855615 147.82105 
L 209.839572 148.136646 
L 212.823529 148.450851 
L 215.807487 148.763592 
L 218.791444 149.074799 
L 221.775401 149.384395 
L 224.759358 149.692303 
L 227.743316 149.99844 
L 230.727273 150.302723 
L 233.71123 150.605064 
L 236.695187 150.905371 
L 239.679144 151.203548 
L 242.663102 151.499495 
L 245.647059 151.793107 
L 248.631016 152.084272 
L 251.614973 152.372873 
L 254.59893 152.658788 
L 257.582888 152.941885 
L 260.566845 153.222025 
L 263.550802 153.499058 
L 266.534759 153.772825 
L 269.518717 154.043155 
L 272.502674 154.309861 
L 275.486631 154.572742 
L 278.470588 154.831578 
L 281.454545 155.086129 
L 284.438503 155.336129 
L 287.42246 155.581284 
L 290.406417 155.821268 
L 293.390374 156.055713 
L 296.374332 156.284208 
L 299.358289 156.506288 
L 302.342246 156.721423 
L 305.326203 156.929013 
L 308.31016 157.128369 
L 311.294118 157.318708 
L 314.278075 157.499133 
L 317.262032 157.668626 
L 320.245989 157.826039 
L 323.229947 157.970093 
L 326.213904 158.099387 
L 329.197861 158.212433 
L 332.181818 158.307699 
L 335.165775 158.383699 
L 338.149733 158.439089 
L 341.13369 158.472791 
L 344.117647 158.484101 
L 347.101604 158.472775 
L 350.085561 158.439057 
L 353.069519 158.383649 
L 356.053476 158.30763 
L 359.037433 158.212341 
L 362.02139 158.099272 
L 365.005348 157.96995 
L 367.989305 157.825867 
L 370.973262 157.668423 
L 373.957219 157.498897 
L 376.941176 157.318439 
L 379.925134 157.128065 
L 382.909091 156.928673 
L 385.893048 156.721046 
L 388.877005 156.505874 
L 391.860963 156.283757 
L 394.84492 156.055225 
L 397.828877 155.820742 
L 400.812834 155.580721 
L 403.796791 155.335529 
L 406.780749 155.085492 
L 409.764706 154.830904 
L 412.748663 154.572032 
L 415.73262 154.309115 
L 418.716578 154.042373 
L 421.700535 153.772008 
L 424.684492 153.498207 
L 427.668449 153.221139 
L 430.652406 152.940966 
L 433.636364 152.657836 
L 436.620321 152.371888 
L 439.604278 152.083254 
L 442.588235 151.792057 
L 445.572193 151.498415 
L 448.55615 151.202438 
L 451.540107 150.904231 
L 454.524064 150.603894 
L 457.508021 150.301525 
L 460.491979 149.997213 
L 463.475936 149.691048 
L 466.459893 149.383114 
L 469.44385 149.073491 
L 472.427807 148.762258 
L 475.411765 148.449491 
L 478.395722 148.135262 
L 481.379679 147.819642 
L 484.363636 147.502698 
L 487.347594 147.184497 
L 490.331551 146.865103 
L 493.315508 146.544577 
" clip-path="url(#p04b8ca03e0)" style="fill: none; stroke: #000080; stroke-width: 1.5; stroke-linecap: square"/>
   </g>
   <g id="patch_3">
    <path d="M 180 640.8 
L 180 86.4 
" style="fill: none; stroke: #000000; stroke-width: 0.8; stroke-linejoin: miter; stroke-linecap: square"/>
   </g>
   <g id="patch_4">
    <path d="M 508.235294 640.8 
L 508.235294 86.4 
" style="fill: none; stroke: #000000; stroke-width: 0.8; stroke-linejoin: miter; stroke-linecap: square"/>
   </g>
   <g id="patch_5">
    <path d="M 180 640.8 
L 508.235294 640.8 
" style="fill: none; stroke: #000000; stroke-width: 0.8; stroke-linejoin: miter; stroke-linecap: square"/>
   </g>
   <g id="patch_6">
    <path d="M 180 86.4 
L 508.235294 86.4 
" style="fill: none; stroke: #000000; stroke-width: 0.8; stroke-linejoin: miter; stroke-linecap: square"/>
   </g>
   <g id="text_18">
    <text style="font: 12px 'sans-serif'; text-anchor: middle" x="344.117647" y="80.4" transform="rotate(-0, 344.117647, 80.4)">16-full bands</text>
   </g>
  </g>
  <g id="axes_2">
   <g id="patch_7">
    <path d="M 573.882353 640.8 
L 902.117647 640.8 
L 902.117647 86.4 
L 573.882353 86.4 
z
" style="fill: #ffffff"/>
   </g>
   <g id="matplotlib.axis_3">
    <g id="xtick_8">
     <g id="line2d_24">
      <g>
       <use xlink:href="#mf33fda46ac" x="608.833682" y="640.8" style="stroke: #000000; stroke-width: 0.8"/>
      </g>
     </g>
     <g id="text_19">
      <text style="font: 10px 'sans-serif'; text-anchor: middle" x="608.833682" y="655.398438" transform="rotate(-0, 608.833682, 655.398438)">−0.06</text>
     </g>
    </g>
    <g id="xtick_9">
     <g id="line2d_25">
      <g>
       <use xlink:href="#mf33fda46ac" x="651.889121" y="640.8" style="stroke: #000000; stroke-width: 0.8"/>
      </g>
     </g>
     <g id="text_20">
      <text style="font: 10px 'sans-serif'; text-anchor: middle" x="651.889121" y="655.398438" transform="rotate(-0, 651.889121, 655.398438)">−0.04</text>
     </g>
    </g>
    <g id="xtick_10">
     <g id="line2d_26">
      <g>
       <use xlink:href="#mf33fda46ac" x="694.944561" y="640.8" style="stroke: #000000; stroke-width: 0.8"/>
      </g>
     </g>
     <g id="text_21">
      <text style="font: 10px 'sans-serif'; text-anchor: middle" x="694.944561" y="655.398438" transform="rotate(-0, 694.944561, 655.398438)">−0.02</text>
     </g>
    </g>
    <g id="xtick_11">
     <g id="line2d_27">
      <g>
       <use xlink:href="#mf33fda46ac" x="738" y="640.8" style="stroke: #000000; stroke-width: 0.8"/>
      </g>
     </g>
     <g id="text_22">
      <text style="font: 10px 'sans-serif'; text-anchor: middle" x="738" y="655.398438" transform="rotate(-0, 738, 655.398438)">0.00</text>
     </g>
    </g>
    <g id="xtick_12">
     <g id="line2d_28">
      <g>
       <use xlink:href="#mf33fda46ac" x="781.055439" y="640.8" style="stroke: #000000; stroke-width: 0.8"/>
      </g>
     </g>
     <g id="text_23">
      <text style="font: 10px 'sans-serif'; text-anchor: middle" x="781.055439" y="655.398438" transform="rotate(-0, 781.055439, 655.398438)">0.02</text>
     </g>
    </g>
    <g id="xtick_13">
     <g id="line2d_29">
      <g>
       <use xlink:href="#mf33fda46ac" x="824.110879" y="640.8" style="stroke: #000000; stroke-width: 0.8"/>
      </g>
     </g>
     <g id="text_24">
      <text style="font: 10px 'sans-serif'; text-anchor: middle" x="824.110879" y="655.398438" transform="rotate(-0, 824.110879, 655.398438)">0.04</text>
     </g>
    </g>
    <g id="xtick_14">
     <g id="line2d_30">
      <g>
       <use xlink:href="#mf33fda46ac" x="867.166318" y="640.8" style="stroke: #000000; stroke-width: 0.8"/>
      </g>
     </g>
     <g id="text_25">
      <text style="font: 10px 'sans-serif'; text-anchor: middle" x="867.166318" y="655.398438" transform="rotate(-0, 867.166318, 655.398438)">0.06</text>
     </g>
    </g>
    <g id="text_26">
     <text style="font: 10px 'sans-serif'; text-anchor: middle" x="738" y="669.076563" transform="rotate(-0, 738, 669.076563)">kx</text>
    </g>
   </g>
   <g id="matplotlib.axis_4">
    <g id="ytick_9">
     <g id="line2d_31">
      <g>
       <use xlink:href="#m07a7c95f74" x="573.882353" y="606.15" style="stroke: #000000; stroke-width: 0.8"/>
      </g>
     </g>
     <g id="text_27">
      <text style="font: 10px 'sans-serif'; text-anchor: end" x="566.882353" y="609.949219" transform="rotate(-0, 566.882353, 609.949219)">−12</text>
     </g>
    </g>
    <g id="ytick_10">
     <g id="line2d_32">
      <g>
       <use xlink:href="#m07a7c95f74" x="573.882353" y="536.85" style="stroke: #000000; stroke-width: 0.8"/>
      </g>
     </g>
     <g id="text_28">
      <text style="font: 10px 'sans-serif'; text-anchor: end" x="566.882353" y="540.649219" transform="rotate(-0, 566.882353, 540.649219)">−10</text>
     </g>
    </g>
    <g id="ytick_11">
     <g id="line2d_33">
      <g>
       <use xlink:href="#m07a7c95f74" x="573.882353" y="467.55" style="stroke: #000000; stroke-width: 0.8"/>
      </g>
     </g>
     <g id="text_29">
      <text style="font: 10px 'sans-serif'; text-anchor: end" x="566.882353" y="471.349219" transform="rotate(-0, 566.882353, 471.349219)">−8</text>
     </g>
    </g>
    <g id="ytick_12">
     <g id="line2d_34">
      <g>
       <use xlink:href="#m07a7c95f74" x="573.882353" y="398.25" style="stroke: #000000; stroke-width: 0.8"/>
      </g>
     </g>
     <g id="text_30">
      <text style="font: 10px 'sans-serif'; text-anchor: end" x="566.882353" y="402.049219" transform="rotate(-0, 566.882353, 402.049219)">−6</text>
     </g>
    </g>
    <g id="ytick_13">
     <g id="line2d_35">
      <g>
       <use xlink:href="#m07a7c95f74" x="573.882353" y="328.95" style="stroke: #000000; stroke-width: 0.8"/>
      </g>
     </g>
     <g id="text_31">
      <text style="font: 10px 'sans-serif'; text-anchor: end" x="566.882353" y="332.749219" transform="rotate(-0, 566.882353, 332.749219)">−4</text>
     </g>
    </g>
    <g id="ytick_14">
     <g id="line2d_36">
      <g>
       <use xlink:href="#m07a7c95f74" x="573.882353" y="259.65" style="stroke: #000000; stroke-width: 0.8"/>
      </g>
     </g>
     <g id="text_32">
      <text style="font: 10px 'sans-serif'; text-anchor: end" x="566.882353" y="263.449219" transform="rotate(-0, 566.882353, 263.449219)">−2</text>
     </g>
    </g>
    <g id="ytick_15">
     <g id="line2d_37">
      <g>
       <use xlink:href="#m07a7c95f74" x="573.882353" y="190.35" style="stroke: #000000; stroke-width: 0.8"/>
      </g>
     </g>
     <g id="text_33">
      <text style="font: 10px 'sans-serif'; text-anchor: end" x="566.882353" y="194.149219" transform="rotate(-0, 566.882353, 194.149219)">0</text>
     </g>
    </g>
    <g id="ytick_16">
     <g id="line2d_38">
      <g>
       <use xlink:href="#m07a7c95f74" x="573.882353" y="121.05" style="stroke: #000000; stroke-width: 0.8"/>
      </g>
     </g>
     <g id="text_34">
      <text style="font: 10px 'sans-serif'; text-anchor: end" x="566.882353" y="124.849219" transform="rotate(-0, 566.882353, 124.849219)">2</text>
     </g>
    </g>
   </g>
   <g id="line2d_39">
    <path d="M 588.802139 197.453843 
L 591.786096 197.359886 
L 594.770053 197.264913 
L 597.754011 197.168929 
L 600.737968 197.071937 
L 603.721925 196.97393 
L 606.705882 196.874914 
L 609.68984 196.774883 
L 612.673797 196.673847 
L 615.657754 196.571796 
L 618.641711 196.468736 
L 621.625668 196.364668 
L 624.609626 196.259589 
L 627.593583 196.153501 
L 630.57754 196.046405 
L 633.561497 195.9383 
L 636.545455 195.829187 
L 639.529412 195.719069 
L 642.513369 195.607947 
L 645.497326 195.495816 
L 648.481283 195.38268 
L 651.465241 195.268543 
L 654.449198 195.153405 
L 657.433155 195.037265 
L 660.417112 194.920124 
L 663.40107 194.801988 
L 666.385027 194.682858 
L 669.368984 194.562733 
L 672.352941 194.441621 
L 675.336898 194.319521 
L 678.320856 194.196438 
L 681.304813 194.07238 
L 684.28877 193.947353 
L 687.272727 193.821362 
L 690.256684 193.694418 
L 693.240642 193.566534 
L 696.224599 193.437725 
L 699.208556 193.308011 
L 702.192513 193.17742 
L 705.176471 193.045988 
L 708.160428 192.913768 
L 711.144385 192.780831 
L 714.128342 192.647288 
L 717.112299 192.513307 
L 720.096257 192.379163 
L 723.080214 192.245334 
L 726.064171 192.112728 
L 729.048128 191.983262 
L 732.032086 191.861615 
L 735.016043 191.761054 
L 738 191.716776 
L 740.983957 191.761054 
L 743.967914 191.861615 
L 746.951872 191.983262 
L 749.935829 192.112728 
L 752.919786 192.245334 
L 755.903743 192.379163 
L 758.887701 192.513307 
L 761.871658 192.647288 
L 764.855615 192.780831 
L 767.839572 192.913768 
L 770.823529 193.045988 
L 773.807487 193.17742 
L 776.791444 193.308011 
L 779.775401 193.437725 
L 782.759358 193.566534 
L 785.743316 193.694418 
L 788.727273 193.821362 
L 791.71123 193.947353 
L 794.695187 194.07238 
L 797.679144 194.196438 
L 800.663102 194.319521 
L 803.647059 194.441621 
L 806.631016 194.562733 
L 809.614973 194.682858 
L 812.59893 194.801988 
L 815.582888 194.920124 
L 818.566845 195.037265 
L 821.550802 195.153405 
L 824.534759 195.268543 
L 827.518717 195.38268 
L 830.502674 195.495816 
L 833.486631 195.607947 
L 836.470588 195.719069 
L 839.454545 195.829187 
L 842.438503 195.9383 
L 845.42246 196.046405 
L 848.406417 196.153501 
L 851.390374 196.259589 
L 854.374332 196.364668 
L 857.358289 196.468736 
L 860.342246 196.571796 
L 863.326203 196.673847 
L 866.31016 196.774883 
L 869.294118 196.874914 
L 872.278075 196.97393 
L 875.262032 197.071937 
L 878.245989 197.168929 
L 881.229947 197.264913 
L 884.213904 197.359886 
L 887.197861 197.453843 
" clip-path="url(#pe8c9ffacaf)" style="fill: none; stroke: #9467bd; stroke-width: 1.5; stroke-linecap: square"/>
   </g>
   <g id="line2d_40">
    <path d="M 588.802139 183.023542 
L 591.786096 183.217939 
L 594.770053 183.411324 
L 597.754011 183.60369 
L 600.737968 183.795038 
L 603.721925 183.985367 
L 606.705882 184.17468 
L 609.68984 184.362975 
L 612.673797 184.550252 
L 615.657754 184.736509 
L 618.641711 184.921745 
L 621.625668 185.105965 
L 624.609626 185.289163 
L 627.593583 185.471342 
L 630.57754 185.652503 
L 633.561497 185.832641 
L 636.545455 186.011758 
L 639.529412 186.189848 
L 642.513369 186.36692 
L 645.497326 186.542966 
L 648.481283 186.71799 
L 651.465241 186.891985 
L 654.449198 187.064954 
L 657.433155 187.236895 
L 660.417112 187.407805 
L 663.40107 187.577684 
L 666.385027 187.746529 
L 669.368984 187.914337 
L 672.352941 188.081106 
L 675.336898 188.246831 
L 678.320856 188.411509 
L 681.304813 188.575135 
L 684.28877 188.737702 
L 687.272727 188.899202 
L 690.256684 189.059626 
L 693.240642 189.218961 
L 696.224599 189.377192 
L 699.208556 189.534299 
L 702.192513 189.690254 
L 705.176471 189.84502 
L 708.160428 189.998546 
L 711.144385 190.150759 
L 714.128342 190.30155 
L 717.112299 190.450749 
L 720.096257 190.598083 
L 723.080214 190.743072 
L 726.064171 190.884809 
L 729.048128 191.021376 
L 732.032086 191.148096 
L 735.016043 191.251701 
L 738 191.296994 
L 740.983957 191.251701 
L 743.967914 191.148096 
L 746.951872 191.021376 
L 749.935829 190.884809 
L 752.919786 190.743072 
L 755.903743 190.598083 
L 758.887701 190.450749 
L 761.871658 190.30155 
L 764.855615 190.150759 
L 767.839572 189.998546 
L 770.823529 189.84502 
L 773.807487 189.690254 
L 776.791444 189.534299 
L 779.775401 189.377192 
L 782.759358 189.218961 
L 785.743316 189.059626 
L 788.727273 188.899202 
L 791.71123 188.737702 
L 794.695187 188.575135 
L 797.679144 188.411509 
L 800.663102 188.246831 
L 803.647059 188.081106 
L 806.631016 187.914337 
L 809.614973 187.746529 
L 812.59893 187.577684 
L 815.582888 187.407805 
L 818.566845 187.236895 
L 821.550802 187.064954 
L 824.534759 186.891985 
L 827.518717 186.71799 
L 830.502674 186.542966 
L 833.486631 186.36692 
L 836.470588 186.189848 
L 839.454545 186.011758 
L 842.438503 185.832641 
L 845.42246 185.652503 
L 848.406417 185.471342 
L 851.390374 185.289163 
L 854.374332 185.105965 
L 857.358289 184.921745 
L 860.342246 184.736509 
L 863.326203 184.550252 
L 866.31016 184.362975 
L 869.294118 184.17468 
L 872.278075 183.985367 
L 875.262032 183.795038 
L 878.245989 183.60369 
L 881.229947 183.411324 
L 884.213904 183.217939 
L 887.197861 183.023542 
" clip-path="url(#pe8c9ffacaf)" style="fill: none; stroke: #e377c2; stroke-width: 1.5; stroke-linecap: square"/>
   </g>
   <g id="patch_8">
    <path d="M 573.882353 640.8 
L 573.882353 86.4 
" style="fill: none; stroke: #000000; stroke-width: 0.8; stroke-linejoin: miter; stroke-linecap: square"/>
   </g>
   <g id="patch_9">
    <path d="M 902.117647 640.8 
L 902.117647 86.4 
" style="fill: none; stroke: #000000; stroke-width: 0.8; stroke-linejoin: miter; stroke-linecap: square"/>
   </g>
   <g id="patch_10">
    <path d="M 573.882353 640.8 
L 902.117647 640.8 
" style="fill: none; stroke: #000000; stroke-width: 0.8; stroke-linejoin: miter; stroke-linecap: square"/>
   </g>
   <g id="patch_11">
    <path d="M 573.882353 86.4 
L 902.117647 86.4 
" style="fill: none; stroke: #000000; stroke-width: 0.8; stroke-linejoin: miter; stroke-linecap: square"/>
   </g>
   <g id="text_35">
    <text style="font: 12px 'sans-serif'; text-anchor: middle" x="738" y="80.4" transform="rotate(-0, 738, 80.4)">4-effective bands</text>
   </g>
  </g>
  <g id="axes_3">
   <g id="patch_12">
    <path d="M 967.764706 640.8 
L 1296 640.8 
L 1296 86.4 
L 967.764706 86.4 
z
" style="fill: #ffffff"/>
   </g>
   <g id="PathCollection_1">
    <defs>
     <path id="m001f85b6a3" d="M 0 3 
C 0.795609 3 1.55874 2.683901 2.12132 2.12132 
C 2.683901 1.55874 3 0.795609 3 0 
C 3 -0.795609 2.683901 -1.55874 2.12132 -2.12132 
C 1.55874 -2.683901 0.795609 -3 0 -3 
C -0.795609 -3 -1.55874 -2.683901 -2.12132 -2.12132 
C -2.683901 -1.55874 -3 -0.795609 -3 0 
C -3 0.795609 -2.683901 1.55874 -2.12132 2.12132 
C -1.55874 2.683901 -0.795609 3 0 3 
z
" style="stroke: #1f77b4"/>
    </defs>
    <g clip-path="url(#p50be8a7416)">
     <use xlink:href="#m001f85b6a3" x="982.684492" y="615.590233" style="fill: #1f77b4; stroke: #1f77b4"/>
     <use xlink:href="#m001f85b6a3" x="985.668449" y="610.226067" style="fill: #1f77b4; stroke: #1f77b4"/>
     <use xlink:href="#m001f85b6a3" x="988.652406" y="604.873035" style="fill: #1f77b4; stroke: #1f77b4"/>
     <use xlink:href="#m001f85b6a3" x="991.636364" y="599.531121" style="fill: #1f77b4; stroke: #1f77b4"/>
     <use xlink:href="#m001f85b6a3" x="994.620321" y="594.200289" style="fill: #1f77b4; stroke: #1f77b4"/>
     <use xlink:href="#m001f85b6a3" x="997.604278" y="588.880479" style="fill: #1f77b4; stroke: #1f77b4"/>
     <use xlink:href="#m001f85b6a3" x="1000.588235" y="583.57161" style="fill: #1f77b4; stroke: #1f77b4"/>
     <use xlink:href="#m001f85b6a3" x="1003.572193" y="578.273578" style="fill: #1f77b4; stroke: #1f77b4"/>
     <use xlink:href="#m001f85b6a3" x="1006.55615" y="572.986258" style="fill: #1f77b4; stroke: #1f77b4"/>
     <use xlink:href="#m001f85b6a3" x="1009.540107" y="567.709505" style="fill: #1f77b4; stroke: #1f77b4"/>
     <use xlink:href="#m001f85b6a3" x="1012.524064" y="562.443152" style="fill: #1f77b4; stroke: #1f77b4"/>
     <use xlink:href="#m001f85b6a3" x="1015.508021" y="557.187012" style="fill: #1f77b4; stroke: #1f77b4"/>
     <use xlink:href="#m001f85b6a3" x="1018.491979" y="551.94088" style="fill: #1f77b4; stroke: #1f77b4"/>
     <use xlink:href="#m001f85b6a3" x="1021.475936" y="546.704531" style="fill: #1f77b4; stroke: #1f77b4"/>
     <use xlink:href="#m001f85b6a3" x="1024.459893" y="541.477722" style="fill: #1f77b4; stroke: #1f77b4"/>
     <use xlink:href="#m001f85b6a3" x="1027.44385" y="536.260195" style="fill: #1f77b4; stroke: #1f77b4"/>
     <use xlink:href="#m001f85b6a3" x="1030.427807" y="531.051675" style="fill: #1f77b4; stroke: #1f77b4"/>
     <use xlink:href="#m001f85b6a3" x="1033.411765" y="525.851876" style="fill: #1f77b4; stroke: #1f77b4"/>
     <use xlink:href="#m001f85b6a3" x="1036.395722" y="520.660494" style="fill: #1f77b4; stroke: #1f77b4"/>
     <use xlink:href="#m001f85b6a3" x="1039.379679" y="515.47722" style="fill: #1f77b4; stroke: #1f77b4"/>
     <use xlink:href="#m001f85b6a3" x="1042.363636" y="510.301731" style="fill: #1f77b4; stroke: #1f77b4"/>
     <use xlink:href="#m001f85b6a3" x="1045.347594" y="505.133698" style="fill: #1f77b4; stroke: #1f77b4"/>
     <use xlink:href="#m001f85b6a3" x="1048.331551" y="499.972786" style="fill: #1f77b4; stroke: #1f77b4"/>
     <use xlink:href="#m001f85b6a3" x="1051.315508" y="494.818656" style="fill: #1f77b4; stroke: #1f77b4"/>
     <use xlink:href="#m001f85b6a3" x="1054.299465" y="489.670967" style="fill: #1f77b4; stroke: #1f77b4"/>
     <use xlink:href="#m001f85b6a3" x="1057.283422" y="484.529378" style="fill: #1f77b4; stroke: #1f77b4"/>
     <use xlink:href="#m001f85b6a3" x="1060.26738" y="479.393553" style="fill: #1f77b4; stroke: #1f77b4"/>
     <use xlink:href="#m001f85b6a3" x="1063.251337" y="474.263159" style="fill: #1f77b4; stroke: #1f77b4"/>
     <use xlink:href="#m001f85b6a3" x="1066.235294" y="469.137871" style="fill: #1f77b4; stroke: #1f77b4"/>
     <use xlink:href="#m001f85b6a3" x="1069.219251" y="464.017377" style="fill: #1f77b4; stroke: #1f77b4"/>
     <use xlink:href="#m001f85b6a3" x="1072.203209" y="458.901376" style="fill: #1f77b4; stroke: #1f77b4"/>
     <use xlink:href="#m001f85b6a3" x="1075.187166" y="453.789587" style="fill: #1f77b4; stroke: #1f77b4"/>
     <use xlink:href="#m001f85b6a3" x="1078.171123" y="448.681751" style="fill: #1f77b4; stroke: #1f77b4"/>
     <use xlink:href="#m001f85b6a3" x="1081.15508" y="443.577635" style="fill: #1f77b4; stroke: #1f77b4"/>
     <use xlink:href="#m001f85b6a3" x="1084.139037" y="438.477037" style="fill: #1f77b4; stroke: #1f77b4"/>
     <use xlink:href="#m001f85b6a3" x="1087.122995" y="433.379798" style="fill: #1f77b4; stroke: #1f77b4"/>
     <use xlink:href="#m001f85b6a3" x="1090.106952" y="428.285807" style="fill: #1f77b4; stroke: #1f77b4"/>
     <use xlink:href="#m001f85b6a3" x="1093.090909" y="423.195017" style="fill: #1f77b4; stroke: #1f77b4"/>
     <use xlink:href="#m001f85b6a3" x="1096.074866" y="418.107465" style="fill: #1f77b4; stroke: #1f77b4"/>
     <use xlink:href="#m001f85b6a3" x="1099.058824" y="413.023298" style="fill: #1f77b4; stroke: #1f77b4"/>
     <use xlink:href="#m001f85b6a3" x="1102.042781" y="407.942823" style="fill: #1f77b4; stroke: #1f77b4"/>
     <use xlink:href="#m001f85b6a3" x="1105.026738" y="402.866575" style="fill: #1f77b4; stroke: #1f77b4"/>
     <use xlink:href="#m001f85b6a3" x="1108.010695" y="397.795454" style="fill: #1f77b4; stroke: #1f77b4"/>
     <use xlink:href="#m001f85b6a3" x="1110.994652" y="392.730954" style="fill: #1f77b4; stroke: #1f77b4"/>
     <use xlink:href="#m001f85b6a3" x="1113.97861" y="387.675631" style="fill: #1f77b4; stroke: #1f77b4"/>
     <use xlink:href="#m001f85b6a3" x="1116.962567" y="382.63412" style="fill: #1f77b4; stroke: #1f77b4"/>
     <use xlink:href="#m001f85b6a3" x="1119.946524" y="377.615608" style="fill: #1f77b4; stroke: #1f77b4"/>
     <use xlink:href="#m001f85b6a3" x="1122.930481" y="372.640983" style="fill: #1f77b4; stroke: #1f77b4"/>
     <use xlink:href="#m001f85b6a3" x="1125.914439" y="367.76919" style="fill: #1f77b4; stroke: #1f77b4"/>
     <use xlink:href="#m001f85b6a3" x="1128.898396" y="363.240669" style="fill: #1f77b4; stroke: #1f77b4"/>
     <use xlink:href="#m001f85b6a3" x="1131.882353" y="360.655589" style="fill: #1f77b4; stroke: #1f77b4"/>
     <use xlink:href="#m001f85b6a3" x="1134.86631" y="363.237901" style="fill: #1f77b4; stroke: #1f77b4"/>
     <use xlink:href="#m001f85b6a3" x="1137.850267" y="367.766289" style="fill: #1f77b4; stroke: #1f77b4"/>
     <use xlink:href="#m001f85b6a3" x="1140.834225" y="372.638336" style="fill: #1f77b4; stroke: #1f77b4"/>
     <use xlink:href="#m001f85b6a3" x="1143.818182" y="377.613293" style="fill: #1f77b4; stroke: #1f77b4"/>
     <use xlink:href="#m001f85b6a3" x="1146.802139" y="382.632162" style="fill: #1f77b4; stroke: #1f77b4"/>
     <use xlink:href="#m001f85b6a3" x="1149.786096" y="387.674039" style="fill: #1f77b4; stroke: #1f77b4"/>
     <use xlink:href="#m001f85b6a3" x="1152.770053" y="392.729731" style="fill: #1f77b4; stroke: #1f77b4"/>
     <use xlink:href="#m001f85b6a3" x="1155.754011" y="397.794602" style="fill: #1f77b4; stroke: #1f77b4"/>
     <use xlink:href="#m001f85b6a3" x="1158.737968" y="402.866093" style="fill: #1f77b4; stroke: #1f77b4"/>
     <use xlink:href="#m001f85b6a3" x="1161.721925" y="407.942709" style="fill: #1f77b4; stroke: #1f77b4"/>
     <use xlink:href="#m001f85b6a3" x="1164.705882" y="413.023552" style="fill: #1f77b4; stroke: #1f77b4"/>
     <use xlink:href="#m001f85b6a3" x="1167.68984" y="418.108083" style="fill: #1f77b4; stroke: #1f77b4"/>
     <use xlink:href="#m001f85b6a3" x="1170.673797" y="423.195998" style="fill: #1f77b4; stroke: #1f77b4"/>
     <use xlink:href="#m001f85b6a3" x="1173.657754" y="428.287146" style="fill: #1f77b4; stroke: #1f77b4"/>
     <use xlink:href="#m001f85b6a3" x="1176.641711" y="433.381493" style="fill: #1f77b4; stroke: #1f77b4"/>
     <use xlink:href="#m001f85b6a3" x="1179.625668" y="438.479084" style="fill: #1f77b4; stroke: #1f77b4"/>
     <use xlink:href="#m001f85b6a3" x="1182.609626" y="443.580029" style="fill: #1f77b4; stroke: #1f77b4"/>
     <use xlink:href="#m001f85b6a3" x="1185.593583" y="448.684489" style="fill: #1f77b4; stroke: #1f77b4"/>
     <use xlink:href="#m001f85b6a3" x="1188.57754" y="453.792663" style="fill: #1f77b4; stroke: #1f77b4"/>
     <use xlink:href="#m001f85b6a3" x="1191.561497" y="458.904785" style="fill: #1f77b4; stroke: #1f77b4"/>
     <use xlink:href="#m001f85b6a3" x="1194.545455" y="464.021114" style="fill: #1f77b4; stroke: #1f77b4"/>
     <use xlink:href="#m001f85b6a3" x="1197.529412" y="469.141931" style="fill: #1f77b4; stroke: #1f77b4"/>
     <use xlink:href="#m001f85b6a3" x="1200.513369" y="474.267535" style="fill: #1f77b4; stroke: #1f77b4"/>
     <use xlink:href="#m001f85b6a3" x="1203.497326" y="479.39824" style="fill: #1f77b4; stroke: #1f77b4"/>
     <use xlink:href="#m001f85b6a3" x="1206.481283" y="484.534369" style="fill: #1f77b4; stroke: #1f77b4"/>
     <use xlink:href="#m001f85b6a3" x="1209.465241" y="489.676255" style="fill: #1f77b4; stroke: #1f77b4"/>
     <use xlink:href="#m001f85b6a3" x="1212.449198" y="494.824234" style="fill: #1f77b4; stroke: #1f77b4"/>
     <use xlink:href="#m001f85b6a3" x="1215.433155" y="499.978647" style="fill: #1f77b4; stroke: #1f77b4"/>
     <use xlink:href="#m001f85b6a3" x="1218.417112" y="505.139835" style="fill: #1f77b4; stroke: #1f77b4"/>
     <use xlink:href="#m001f85b6a3" x="1221.40107" y="510.308135" style="fill: #1f77b4; stroke: #1f77b4"/>
     <use xlink:href="#m001f85b6a3" x="1224.385027" y="515.483884" style="fill: #1f77b4; stroke: #1f77b4"/>
     <use xlink:href="#m001f85b6a3" x="1227.368984" y="520.66741" style="fill: #1f77b4; stroke: #1f77b4"/>
     <use xlink:href="#m001f85b6a3" x="1230.352941" y="525.859033" style="fill: #1f77b4; stroke: #1f77b4"/>
     <use xlink:href="#m001f85b6a3" x="1233.336898" y="531.059067" style="fill: #1f77b4; stroke: #1f77b4"/>
     <use xlink:href="#m001f85b6a3" x="1236.320856" y="536.267811" style="fill: #1f77b4; stroke: #1f77b4"/>
     <use xlink:href="#m001f85b6a3" x="1239.304813" y="541.485554" style="fill: #1f77b4; stroke: #1f77b4"/>
     <use xlink:href="#m001f85b6a3" x="1242.28877" y="546.712568" style="fill: #1f77b4; stroke: #1f77b4"/>
     <use xlink:href="#m001f85b6a3" x="1245.272727" y="551.949114" style="fill: #1f77b4; stroke: #1f77b4"/>
     <use xlink:href="#m001f85b6a3" x="1248.256684" y="557.195433" style="fill: #1f77b4; stroke: #1f77b4"/>
     <use xlink:href="#m001f85b6a3" x="1251.240642" y="562.451749" style="fill: #1f77b4; stroke: #1f77b4"/>
     <use xlink:href="#m001f85b6a3" x="1254.224599" y="567.718268" style="fill: #1f77b4; stroke: #1f77b4"/>
     <use xlink:href="#m001f85b6a3" x="1257.208556" y="572.995176" style="fill: #1f77b4; stroke: #1f77b4"/>
     <use xlink:href="#m001f85b6a3" x="1260.192513" y="578.282641" style="fill: #1f77b4; stroke: #1f77b4"/>
     <use xlink:href="#m001f85b6a3" x="1263.176471" y="583.580807" style="fill: #1f77b4; stroke: #1f77b4"/>
     <use xlink:href="#m001f85b6a3" x="1266.160428" y="588.8898" style="fill: #1f77b4; stroke: #1f77b4"/>
     <use xlink:href="#m001f85b6a3" x="1269.144385" y="594.209722" style="fill: #1f77b4; stroke: #1f77b4"/>
     <use xlink:href="#m001f85b6a3" x="1272.128342" y="599.540654" style="fill: #1f77b4; stroke: #1f77b4"/>
     <use xlink:href="#m001f85b6a3" x="1275.112299" y="604.882657" style="fill: #1f77b4; stroke: #1f77b4"/>
     <use xlink:href="#m001f85b6a3" x="1278.096257" y="610.235767" style="fill: #1f77b4; stroke: #1f77b4"/>
     <use xlink:href="#m001f85b6a3" x="1281.080214" y="615.6" style="fill: #1f77b4; stroke: #1f77b4"/>
    </g>
   </g>
   <g id="PathCollection_2">
    <defs>
     <path id="mfe84624802" d="M 0 3 
C 0.795609 3 1.55874 2.683901 2.12132 2.12132 
C 2.683901 1.55874 3 0.795609 3 0 
C 3 -0.795609 2.683901 -1.55874 2.12132 -2.12132 
C 1.55874 -2.683901 0.795609 -3 0 -3 
C -0.795609 -3 -1.55874 -2.683901 -2.12132 -2.12132 
C -2.683901 -1.55874 -3 -0.795609 -3 0 
C -3 0.795609 -2.683901 1.55874 -2.12132 2.12132 
C -1.55874 2.683901 -0.795609 3 0 3 
z
" style="stroke: #ff7f0e"/>
    </defs>
    <g clip-path="url(#p50be8a7416)">
     <use xlink:href="#mfe84624802" x="982.684492" y="111.6" style="fill: #ff7f0e; stroke: #ff7f0e"/>
     <use xlink:href="#mfe84624802" x="985.668449" y="116.288466" style="fill: #ff7f0e; stroke: #ff7f0e"/>
     <use xlink:href="#mfe84624802" x="988.652406" y="120.980548" style="fill: #ff7f0e; stroke: #ff7f0e"/>
     <use xlink:href="#mfe84624802" x="991.636364" y="125.677098" style="fill: #ff7f0e; stroke: #ff7f0e"/>
     <use xlink:href="#mfe84624802" x="994.620321" y="130.37894" style="fill: #ff7f0e; stroke: #ff7f0e"/>
     <use xlink:href="#mfe84624802" x="997.604278" y="135.086864" style="fill: #ff7f0e; stroke: #ff7f0e"/>
     <use xlink:href="#mfe84624802" x="1000.588235" y="139.801625" style="fill: #ff7f0e; stroke: #ff7f0e"/>
     <use xlink:href="#mfe84624802" x="1003.572193" y="144.523936" style="fill: #ff7f0e; stroke: #ff7f0e"/>
     <use xlink:href="#mfe84624802" x="1006.55615" y="149.254466" style="fill: #ff7f0e; stroke: #ff7f0e"/>
     <use xlink:href="#mfe84624802" x="1009.540107" y="153.993835" style="fill: #ff7f0e; stroke: #ff7f0e"/>
     <use xlink:href="#mfe84624802" x="1012.524064" y="158.74261" style="fill: #ff7f0e; stroke: #ff7f0e"/>
     <use xlink:href="#mfe84624802" x="1015.508021" y="163.501306" style="fill: #ff7f0e; stroke: #ff7f0e"/>
     <use xlink:href="#mfe84624802" x="1018.491979" y="168.270381" style="fill: #ff7f0e; stroke: #ff7f0e"/>
     <use xlink:href="#mfe84624802" x="1021.475936" y="173.050235" style="fill: #ff7f0e; stroke: #ff7f0e"/>
     <use xlink:href="#mfe84624802" x="1024.459893" y="177.841209" style="fill: #ff7f0e; stroke: #ff7f0e"/>
     <use xlink:href="#mfe84624802" x="1027.44385" y="182.643586" style="fill: #ff7f0e; stroke: #ff7f0e"/>
     <use xlink:href="#mfe84624802" x="1030.427807" y="187.457587" style="fill: #ff7f0e; stroke: #ff7f0e"/>
     <use xlink:href="#mfe84624802" x="1033.411765" y="192.283375" style="fill: #ff7f0e; stroke: #ff7f0e"/>
     <use xlink:href="#mfe84624802" x="1036.395722" y="197.121054" style="fill: #ff7f0e; stroke: #ff7f0e"/>
     <use xlink:href="#mfe84624802" x="1039.379679" y="201.970671" style="fill: #ff7f0e; stroke: #ff7f0e"/>
     <use xlink:href="#mfe84624802" x="1042.363636" y="206.832218" style="fill: #ff7f0e; stroke: #ff7f0e"/>
     <use xlink:href="#mfe84624802" x="1045.347594" y="211.705632" style="fill: #ff7f0e; stroke: #ff7f0e"/>
     <use xlink:href="#mfe84624802" x="1048.331551" y="216.5908" style="fill: #ff7f0e; stroke: #ff7f0e"/>
     <use xlink:href="#mfe84624802" x="1051.315508" y="221.487559" style="fill: #ff7f0e; stroke: #ff7f0e"/>
     <use xlink:href="#mfe84624802" x="1054.299465" y="226.395699" style="fill: #ff7f0e; stroke: #ff7f0e"/>
     <use xlink:href="#mfe84624802" x="1057.283422" y="231.314968" style="fill: #ff7f0e; stroke: #ff7f0e"/>
     <use xlink:href="#mfe84624802" x="1060.26738" y="236.245073" style="fill: #ff7f0e; stroke: #ff7f0e"/>
     <use xlink:href="#mfe84624802" x="1063.251337" y="241.185684" style="fill: #ff7f0e; stroke: #ff7f0e"/>
     <use xlink:href="#mfe84624802" x="1066.235294" y="246.136434" style="fill: #ff7f0e; stroke: #ff7f0e"/>
     <use xlink:href="#mfe84624802" x="1069.219251" y="251.096927" style="fill: #ff7f0e; stroke: #ff7f0e"/>
     <use xlink:href="#mfe84624802" x="1072.203209" y="256.066735" style="fill: #ff7f0e; stroke: #ff7f0e"/>
     <use xlink:href="#mfe84624802" x="1075.187166" y="261.045403" style="fill: #ff7f0e; stroke: #ff7f0e"/>
     <use xlink:href="#mfe84624802" x="1078.171123" y="266.032451" style="fill: #ff7f0e; stroke: #ff7f0e"/>
     <use xlink:href="#mfe84624802" x="1081.15508" y="271.027373" style="fill: #ff7f0e; stroke: #ff7f0e"/>
     <use xlink:href="#mfe84624802" x="1084.139037" y="276.029636" style="fill: #ff7f0e; stroke: #ff7f0e"/>
     <use xlink:href="#mfe84624802" x="1087.122995" y="281.038679" style="fill: #ff7f0e; stroke: #ff7f0e"/>
     <use xlink:href="#mfe84624802" x="1090.106952" y="286.053909" style="fill: #ff7f0e; stroke: #ff7f0e"/>
     <use xlink:href="#mfe84624802" x="1093.090909" y="291.07469" style="fill: #ff7f0e; stroke: #ff7f0e"/>
     <use xlink:href="#mfe84624802" x="1096.074866" y="296.100329" style="fill: #ff7f0e; stroke: #ff7f0e"/>
     <use xlink:href="#mfe84624802" x="1099.058824" y="301.130052" style="fill: #ff7f0e; stroke: #ff7f0e"/>
     <use xlink:href="#mfe84624802" x="1102.042781" y="306.162963" style="fill: #ff7f0e; stroke: #ff7f0e"/>
     <use xlink:href="#mfe84624802" x="1105.026738" y="311.197971" style="fill: #ff7f0e; stroke: #ff7f0e"/>
     <use xlink:href="#mfe84624802" x="1108.010695" y="316.233667" style="fill: #ff7f0e; stroke: #ff7f0e"/>
     <use xlink:href="#mfe84624802" x="1110.994652" y="321.268091" style="fill: #ff7f0e; stroke: #ff7f0e"/>
     <use xlink:href="#mfe84624802" x="1113.97861" y="326.298267" style="fill: #ff7f0e; stroke: #ff7f0e"/>
     <use xlink:href="#mfe84624802" x="1116.962567" y="331.319194" style="fill: #ff7f0e; stroke: #ff7f0e"/>
     <use xlink:href="#mfe84624802" x="1119.946524" y="336.32137" style="fill: #ff7f0e; stroke: #ff7f0e"/>
     <use xlink:href="#mfe84624802" x="1122.930481" y="341.283647" style="fill: #ff7f0e; stroke: #ff7f0e"/>
     <use xlink:href="#mfe84624802" x="1125.914439" y="346.146874" style="fill: #ff7f0e; stroke: #ff7f0e"/>
     <use xlink:href="#mfe84624802" x="1128.898396" y="350.670467" style="fill: #ff7f0e; stroke: #ff7f0e"/>
     <use xlink:href="#mfe84624802" x="1131.882353" y="353.254166" style="fill: #ff7f0e; stroke: #ff7f0e"/>
     <use xlink:href="#mfe84624802" x="1134.86631" y="350.673991" style="fill: #ff7f0e; stroke: #ff7f0e"/>
     <use xlink:href="#mfe84624802" x="1137.850267" y="346.151287" style="fill: #ff7f0e; stroke: #ff7f0e"/>
     <use xlink:href="#mfe84624802" x="1140.834225" y="341.288558" style="fill: #ff7f0e; stroke: #ff7f0e"/>
     <use xlink:href="#mfe84624802" x="1143.818182" y="336.326701" style="fill: #ff7f0e; stroke: #ff7f0e"/>
     <use xlink:href="#mfe84624802" x="1146.802139" y="331.324916" style="fill: #ff7f0e; stroke: #ff7f0e"/>
     <use xlink:href="#mfe84624802" x="1149.786096" y="326.304366" style="fill: #ff7f0e; stroke: #ff7f0e"/>
     <use xlink:href="#mfe84624802" x="1152.770053" y="321.274559" style="fill: #ff7f0e; stroke: #ff7f0e"/>
     <use xlink:href="#mfe84624802" x="1155.754011" y="316.240496" style="fill: #ff7f0e; stroke: #ff7f0e"/>
     <use xlink:href="#mfe84624802" x="1158.737968" y="311.205155" style="fill: #ff7f0e; stroke: #ff7f0e"/>
     <use xlink:href="#mfe84624802" x="1161.721925" y="306.170496" style="fill: #ff7f0e; stroke: #ff7f0e"/>
     <use xlink:href="#mfe84624802" x="1164.705882" y="301.137927" style="fill: #ff7f0e; stroke: #ff7f0e"/>
     <use xlink:href="#mfe84624802" x="1167.68984" y="296.108538" style="fill: #ff7f0e; stroke: #ff7f0e"/>
     <use xlink:href="#mfe84624802" x="1170.673797" y="291.083224" style="fill: #ff7f0e; stroke: #ff7f0e"/>
     <use xlink:href="#mfe84624802" x="1173.657754" y="286.062761" style="fill: #ff7f0e; stroke: #ff7f0e"/>
     <use xlink:href="#mfe84624802" x="1176.641711" y="281.047839" style="fill: #ff7f0e; stroke: #ff7f0e"/>
     <use xlink:href="#mfe84624802" x="1179.625668" y="276.039093" style="fill: #ff7f0e; stroke: #ff7f0e"/>
     <use xlink:href="#mfe84624802" x="1182.609626" y="271.037117" style="fill: #ff7f0e; stroke: #ff7f0e"/>
     <use xlink:href="#mfe84624802" x="1185.593583" y="266.04247" style="fill: #ff7f0e; stroke: #ff7f0e"/>
     <use xlink:href="#mfe84624802" x="1188.57754" y="261.055685" style="fill: #ff7f0e; stroke: #ff7f0e"/>
     <use xlink:href="#mfe84624802" x="1191.561497" y="256.077266" style="fill: #ff7f0e; stroke: #ff7f0e"/>
     <use xlink:href="#mfe84624802" x="1194.545455" y="251.107693" style="fill: #ff7f0e; stroke: #ff7f0e"/>
     <use xlink:href="#mfe84624802" x="1197.529412" y="246.14742" style="fill: #ff7f0e; stroke: #ff7f0e"/>
     <use xlink:href="#mfe84624802" x="1200.513369" y="241.196873" style="fill: #ff7f0e; stroke: #ff7f0e"/>
     <use xlink:href="#mfe84624802" x="1203.497326" y="236.256449" style="fill: #ff7f0e; stroke: #ff7f0e"/>
     <use xlink:href="#mfe84624802" x="1206.481283" y="231.326513" style="fill: #ff7f0e; stroke: #ff7f0e"/>
     <use xlink:href="#mfe84624802" x="1209.465241" y="226.407394" style="fill: #ff7f0e; stroke: #ff7f0e"/>
     <use xlink:href="#mfe84624802" x="1212.449198" y="221.499385" style="fill: #ff7f0e; stroke: #ff7f0e"/>
     <use xlink:href="#mfe84624802" x="1215.433155" y="216.602737" style="fill: #ff7f0e; stroke: #ff7f0e"/>
     <use xlink:href="#mfe84624802" x="1218.417112" y="211.717658" style="fill: #ff7f0e; stroke: #ff7f0e"/>
     <use xlink:href="#mfe84624802" x="1221.40107" y="206.844311" style="fill: #ff7f0e; stroke: #ff7f0e"/>
     <use xlink:href="#mfe84624802" x="1224.385027" y="201.982809" style="fill: #ff7f0e; stroke: #ff7f0e"/>
     <use xlink:href="#mfe84624802" x="1227.368984" y="197.133212" style="fill: #ff7f0e; stroke: #ff7f0e"/>
     <use xlink:href="#mfe84624802" x="1230.352941" y="192.29553" style="fill: #ff7f0e; stroke: #ff7f0e"/>
     <use xlink:href="#mfe84624802" x="1233.336898" y="187.469715" style="fill: #ff7f0e; stroke: #ff7f0e"/>
     <use xlink:href="#mfe84624802" x="1236.320856" y="182.655662" style="fill: #ff7f0e; stroke: #ff7f0e"/>
     <use xlink:href="#mfe84624802" x="1239.304813" y="177.853207" style="fill: #ff7f0e; stroke: #ff7f0e"/>
     <use xlink:href="#mfe84624802" x="1242.28877" y="173.062129" style="fill: #ff7f0e; stroke: #ff7f0e"/>
     <use xlink:href="#mfe84624802" x="1245.272727" y="168.282145" style="fill: #ff7f0e; stroke: #ff7f0e"/>
     <use xlink:href="#mfe84624802" x="1248.256684" y="163.512914" style="fill: #ff7f0e; stroke: #ff7f0e"/>
     <use xlink:href="#mfe84624802" x="1251.240642" y="158.754036" style="fill: #ff7f0e; stroke: #ff7f0e"/>
     <use xlink:href="#mfe84624802" x="1254.224599" y="154.005053" style="fill: #ff7f0e; stroke: #ff7f0e"/>
     <use xlink:href="#mfe84624802" x="1257.208556" y="149.265451" style="fill: #ff7f0e; stroke: #ff7f0e"/>
     <use xlink:href="#mfe84624802" x="1260.192513" y="144.534661" style="fill: #ff7f0e; stroke: #ff7f0e"/>
     <use xlink:href="#mfe84624802" x="1263.176471" y="139.812065" style="fill: #ff7f0e; stroke: #ff7f0e"/>
     <use xlink:href="#mfe84624802" x="1266.160428" y="135.096994" style="fill: #ff7f0e; stroke: #ff7f0e"/>
     <use xlink:href="#mfe84624802" x="1269.144385" y="130.388736" style="fill: #ff7f0e; stroke: #ff7f0e"/>
     <use xlink:href="#mfe84624802" x="1272.128342" y="125.686537" style="fill: #ff7f0e; stroke: #ff7f0e"/>
     <use xlink:href="#mfe84624802" x="1275.112299" y="120.989608" style="fill: #ff7f0e; stroke: #ff7f0e"/>
     <use xlink:href="#mfe84624802" x="1278.096257" y="116.297124" style="fill: #ff7f0e; stroke: #ff7f0e"/>
     <use xlink:href="#mfe84624802" x="1281.080214" y="111.608236" style="fill: #ff7f0e; stroke: #ff7f0e"/>
    </g>
   </g>
   <g id="matplotlib.axis_5">
    <g id="xtick_15">
     <g id="line2d_41">
      <g>
       <use xlink:href="#mf33fda46ac" x="970.424456" y="640.8" style="stroke: #000000; stroke-width: 0.8"/>
      </g>
     </g>
     <g id="text_36">
      <text style="font: 10px 'sans-serif'; text-anchor: middle" x="970.424456" y="655.398438" transform="rotate(-0, 970.424456, 655.398438)">−0.15</text>
     </g>
    </g>
    <g id="xtick_16">
     <g id="line2d_42">
      <g>
       <use xlink:href="#mf33fda46ac" x="1024.243755" y="640.8" style="stroke: #000000; stroke-width: 0.8"/>
      </g>
     </g>
     <g id="text_37">
      <text style="font: 10px 'sans-serif'; text-anchor: middle" x="1024.243755" y="655.398438" transform="rotate(-0, 1024.243755, 655.398438)">−0.10</text>
     </g>
    </g>
    <g id="xtick_17">
     <g id="line2d_43">
      <g>
       <use xlink:href="#mf33fda46ac" x="1078.063054" y="640.8" style="stroke: #000000; stroke-width: 0.8"/>
      </g>
     </g>
     <g id="text_38">
      <text style="font: 10px 'sans-serif'; text-anchor: middle" x="1078.063054" y="655.398438" transform="rotate(-0, 1078.063054, 655.398438)">−0.05</text>
     </g>
    </g>
    <g id="xtick_18">
     <g id="line2d_44">
      <g>
       <use xlink:href="#mf33fda46ac" x="1131.882353" y="640.8" style="stroke: #000000; stroke-width: 0.8"/>
      </g>
     </g>
     <g id="text_39">
      <text style="font: 10px 'sans-serif'; text-anchor: middle" x="1131.882353" y="655.398438" transform="rotate(-0, 1131.882353, 655.398438)">0.00</text>
     </g>
    </g>
    <g id="xtick_19">
     <g id="line2d_45">
      <g>
       <use xlink:href="#mf33fda46ac" x="1185.701652" y="640.8" style="stroke: #000000; stroke-width: 0.8"/>
      </g>
     </g>
     <g id="text_40">
      <text style="font: 10px 'sans-serif'; text-anchor: middle" x="1185.701652" y="655.398438" transform="rotate(-0, 1185.701652, 655.398438)">0.05</text>
     </g>
    </g>
    <g id="xtick_20">
     <g id="line2d_46">
      <g>
       <use xlink:href="#mf33fda46ac" x="1239.520951" y="640.8" style="stroke: #000000; stroke-width: 0.8"/>
      </g>
     </g>
     <g id="text_41">
      <text style="font: 10px 'sans-serif'; text-anchor: middle" x="1239.520951" y="655.398438" transform="rotate(-0, 1239.520951, 655.398438)">0.10</text>
     </g>
    </g>
    <g id="xtick_21">
     <g id="line2d_47">
      <g>
       <use xlink:href="#mf33fda46ac" x="1293.34025" y="640.8" style="stroke: #000000; stroke-width: 0.8"/>
      </g>
     </g>
     <g id="text_42">
      <text style="font: 10px 'sans-serif'; text-anchor: middle" x="1293.34025" y="655.398438" transform="rotate(-0, 1293.34025, 655.398438)">0.15</text>
     </g>
    </g>
    <g id="text_43">
     <text style="font: 10px 'sans-serif'; text-anchor: middle" x="1131.882353" y="669.076563" transform="rotate(-0, 1131.882353, 669.076563)">kx</text>
    </g>
   </g>
   <g id="matplotlib.axis_6">
    <g id="ytick_17">
     <g id="line2d_48">
      <g>
       <use xlink:href="#m07a7c95f74" x="967.764706" y="580.930883" style="stroke: #000000; stroke-width: 0.8"/>
      </g>
     </g>
     <g id="text_44">
      <text style="font: 10px 'sans-serif'; text-anchor: end" x="960.764706" y="584.730101" transform="rotate(-0, 960.764706, 584.730101)">−0.4</text>
     </g>
    </g>
    <g id="ytick_18">
     <g id="line2d_49">
      <g>
       <use xlink:href="#m07a7c95f74" x="967.764706" y="458.744027" style="stroke: #000000; stroke-width: 0.8"/>
      </g>
     </g>
     <g id="text_45">
      <text style="font: 10px 'sans-serif'; text-anchor: end" x="960.764706" y="462.543245" transform="rotate(-0, 960.764706, 462.543245)">−0.2</text>
     </g>
    </g>
    <g id="ytick_19">
     <g id="line2d_50">
      <g>
       <use xlink:href="#m07a7c95f74" x="967.764706" y="336.557171" style="stroke: #000000; stroke-width: 0.8"/>
      </g>
     </g>
     <g id="text_46">
      <text style="font: 10px 'sans-serif'; text-anchor: end" x="960.764706" y="340.356389" transform="rotate(-0, 960.764706, 340.356389)">0.0</text>
     </g>
    </g>
    <g id="ytick_20">
     <g id="line2d_51">
      <g>
       <use xlink:href="#m07a7c95f74" x="967.764706" y="214.370315" style="stroke: #000000; stroke-width: 0.8"/>
      </g>
     </g>
     <g id="text_47">
      <text style="font: 10px 'sans-serif'; text-anchor: end" x="960.764706" y="218.169533" transform="rotate(-0, 960.764706, 218.169533)">0.2</text>
     </g>
    </g>
    <g id="ytick_21">
     <g id="line2d_52">
      <g>
       <use xlink:href="#m07a7c95f74" x="967.764706" y="92.183458" style="stroke: #000000; stroke-width: 0.8"/>
      </g>
     </g>
     <g id="text_48">
      <text style="font: 10px 'sans-serif'; text-anchor: end" x="960.764706" y="95.982677" transform="rotate(-0, 960.764706, 95.982677)">0.4</text>
     </g>
    </g>
   </g>
   <g id="line2d_53">
    <path d="M 1057.283422 461.809145 
L 1058.775401 460.152536 
L 1060.26738 458.478026 
L 1061.759358 456.785677 
L 1063.251337 455.075549 
L 1064.743316 453.347522 
L 1066.235294 451.601716 
L 1067.727273 449.83801 
L 1069.219251 448.056587 
L 1070.71123 446.257263 
L 1072.203209 444.440161 
L 1073.695187 442.605281 
L 1075.187166 440.752562 
L 1076.679144 438.882064 
L 1078.171123 436.993789 
L 1079.663102 435.087735 
L 1081.15508 433.163903 
L 1082.647059 431.222354 
L 1084.139037 429.263087 
L 1085.631016 427.286043 
L 1087.122995 425.291281 
L 1088.614973 423.278864 
L 1090.106952 421.24879 
L 1091.59893 419.201061 
L 1093.090909 417.135675 
L 1094.582888 415.052756 
L 1096.074866 412.952303 
L 1097.566845 410.834316 
L 1099.058824 408.698917 
L 1100.550802 406.546107 
L 1102.042781 404.375946 
L 1103.534759 402.188618 
L 1105.026738 399.984184 
L 1106.518717 397.762766 
L 1108.010695 395.524547 
L 1109.502674 393.269742 
L 1110.994652 390.998636 
L 1112.486631 388.711579 
L 1113.97861 386.409053 
L 1115.470588 384.091706 
L 1116.962567 381.760448 
L 1118.454545 379.416568 
L 1119.946524 377.061991 
L 1121.438503 374.699692 
L 1122.930481 372.334514 
L 1124.42246 369.974903 
L 1125.914439 367.636845 
L 1127.406417 365.354163 
L 1128.898396 363.209331 
L 1130.390374 361.436278 
L 1131.882353 360.655589 
L 1133.374332 361.436278 
L 1134.86631 363.209331 
L 1136.358289 365.354163 
L 1137.850267 367.636845 
L 1139.342246 369.974903 
L 1140.834225 372.334514 
L 1142.326203 374.699692 
L 1143.818182 377.061991 
L 1145.31016 379.416568 
L 1146.802139 381.760448 
L 1148.294118 384.091706 
L 1149.786096 386.409053 
L 1151.278075 388.711579 
L 1152.770053 390.998636 
L 1154.262032 393.269742 
L 1155.754011 395.524547 
L 1157.245989 397.762766 
L 1158.737968 399.984184 
L 1160.229947 402.188618 
L 1161.721925 404.375946 
L 1163.213904 406.546107 
L 1164.705882 408.698917 
L 1166.197861 410.834316 
L 1167.68984 412.952303 
L 1169.181818 415.052756 
L 1170.673797 417.135675 
L 1172.165775 419.201061 
L 1173.657754 421.24879 
L 1175.149733 423.278864 
L 1176.641711 425.291281 
L 1178.13369 427.286043 
L 1179.625668 429.263087 
L 1181.117647 431.222354 
L 1182.609626 433.163903 
L 1184.101604 435.087735 
L 1185.593583 436.993789 
L 1187.085561 438.882064 
L 1188.57754 440.752562 
L 1190.069519 442.605281 
L 1191.561497 444.440161 
L 1193.053476 446.257263 
L 1194.545455 448.056587 
L 1196.037433 449.83801 
L 1197.529412 451.601716 
L 1199.02139 453.347522 
L 1200.513369 455.075549 
L 1202.005348 456.785677 
L 1203.497326 458.478026 
L 1204.989305 460.152536 
L 1206.481283 461.809145 
" clip-path="url(#p50be8a7416)" style="fill: none; stroke: #9467bd; stroke-width: 1.5; stroke-linecap: square"/>
   </g>
   <g id="line2d_54">
    <path d="M 1057.283422 207.380127 
L 1058.775401 210.807651 
L 1060.26738 214.217337 
L 1061.759358 217.60906 
L 1063.251337 220.982823 
L 1064.743316 224.338624 
L 1066.235294 227.676524 
L 1067.727273 230.996463 
L 1069.219251 234.298441 
L 1070.71123 237.582457 
L 1072.203209 240.848451 
L 1073.695187 244.096544 
L 1075.187166 247.326614 
L 1076.679144 250.538724 
L 1078.171123 253.732871 
L 1079.663102 256.908996 
L 1081.15508 260.067099 
L 1082.647059 263.207118 
L 1084.139037 266.329175 
L 1085.631016 269.433149 
L 1087.122995 272.5191 
L 1088.614973 275.586901 
L 1090.106952 278.636617 
L 1091.59893 281.668202 
L 1093.090909 284.681629 
L 1094.582888 287.676856 
L 1096.074866 290.65386 
L 1097.566845 293.612584 
L 1099.058824 296.552974 
L 1100.550802 299.474975 
L 1102.042781 302.378513 
L 1103.534759 305.263492 
L 1105.026738 308.1298 
L 1106.518717 310.977303 
L 1108.010695 313.805831 
L 1109.502674 316.615164 
L 1110.994652 319.405032 
L 1112.486631 322.175075 
L 1113.97861 324.924805 
L 1115.470588 327.653579 
L 1116.962567 330.360489 
L 1118.454545 333.044243 
L 1119.946524 335.702919 
L 1121.438503 338.333543 
L 1122.930481 340.931266 
L 1124.42246 343.487646 
L 1125.914439 345.986697 
L 1127.406417 348.394596 
L 1128.898396 350.628869 
L 1130.390374 352.455587 
L 1131.882353 353.254169 
L 1133.374332 352.455587 
L 1134.86631 350.628869 
L 1136.358289 348.394596 
L 1137.850267 345.986697 
L 1139.342246 343.487646 
L 1140.834225 340.931266 
L 1142.326203 338.333543 
L 1143.818182 335.702919 
L 1145.31016 333.044243 
L 1146.802139 330.360489 
L 1148.294118 327.653579 
L 1149.786096 324.924805 
L 1151.278075 322.175075 
L 1152.770053 319.405032 
L 1154.262032 316.615164 
L 1155.754011 313.805831 
L 1157.245989 310.977303 
L 1158.737968 308.1298 
L 1160.229947 305.263492 
L 1161.721925 302.378513 
L 1163.213904 299.474975 
L 1164.705882 296.552974 
L 1166.197861 293.612584 
L 1167.68984 290.65386 
L 1169.181818 287.676856 
L 1170.673797 284.681629 
L 1172.165775 281.668202 
L 1173.657754 278.636617 
L 1175.149733 275.586901 
L 1176.641711 272.5191 
L 1178.13369 269.433149 
L 1179.625668 266.329175 
L 1181.117647 263.207118 
L 1182.609626 260.067099 
L 1184.101604 256.908996 
L 1185.593583 253.732871 
L 1187.085561 250.538724 
L 1188.57754 247.326614 
L 1190.069519 244.096544 
L 1191.561497 240.848451 
L 1193.053476 237.582457 
L 1194.545455 234.298441 
L 1196.037433 230.996463 
L 1197.529412 227.676524 
L 1199.02139 224.338624 
L 1200.513369 220.982823 
L 1202.005348 217.60906 
L 1203.497326 214.217337 
L 1204.989305 210.807651 
L 1206.481283 207.380127 
" clip-path="url(#p50be8a7416)" style="fill: none; stroke: #e377c2; stroke-width: 1.5; stroke-linecap: square"/>
   </g>
   <g id="patch_13">
    <path d="M 967.764706 640.8 
L 967.764706 86.4 
" style="fill: none; stroke: #000000; stroke-width: 0.8; stroke-linejoin: miter; stroke-linecap: square"/>
   </g>
   <g id="patch_14">
    <path d="M 1296 640.8 
L 1296 86.4 
" style="fill: none; stroke: #000000; stroke-width: 0.8; stroke-linejoin: miter; stroke-linecap: square"/>
   </g>
   <g id="patch_15">
    <path d="M 967.764706 640.8 
L 1296 640.8 
" style="fill: none; stroke: #000000; stroke-width: 0.8; stroke-linejoin: miter; stroke-linecap: square"/>
   </g>
   <g id="patch_16">
    <path d="M 967.764706 86.4 
L 1296 86.4 
" style="fill: none; stroke: #000000; stroke-width: 0.8; stroke-linejoin: miter; stroke-linecap: square"/>
   </g>
   <g id="text_49">
    <text style="font: 12px 'sans-serif'; text-anchor: middle" x="1131.882353" y="80.4" transform="rotate(-0, 1131.882353, 80.4)">comparison</text>
   </g>
  </g>
 </g>
 <defs>
  <clipPath id="p04b8ca03e0">
   <rect x="180" y="86.4" width="328.235294" height="554.4"/>
  </clipPath>
  <clipPath id="pe8c9ffacaf">
   <rect x="573.882353" y="86.4" width="328.235294" height="554.4"/>
  </clipPath>
  <clipPath id="p50be8a7416">
   <rect x="967.764706" y="86.4" width="328.235294" height="554.4"/>
  </clipPath>
 </defs>
</svg>
