<?xml version="1.0" encoding="utf-8" standalone="no"?>
<!DOCTYPE svg PUBLIC "-//W3C//DTD SVG 1.1//EN"
  "http://www.w3.org/Graphics/SVG/1.1/DTD/svg11.dtd">
<svg xmlns:xlink="http://www.w3.org/1999/xlink" width="864pt" height="360pt" viewBox="0 0 864 360" xmlns="http://www.w3.org/2000/svg" version="1.1">
 <metadata>
  <rdf:RDF xmlns:dc="http://purl.org/dc/elements/1.1/" xmlns:cc="http://creativecommons.org/ns#" xmlns:rdf="http://www.w3.org/1999/02/22-rdf-syntax-ns#">
   <cc:Work>
    <dc:type rdf:resource="http://purl.org/dc/dcmitype/StillImage"/>
    <dc:date>2022-04-19T14:03:13.268037</dc:date>
    <dc:format>image/svg+xml</dc:format>
    <dc:creator>
     <cc:Agent>
      <dc:title>Matplotlib v3.5.1, https://matplotlib.org/</dc:title>
     </cc:Agent>
    </dc:creator>
   </cc:Work>
  </rdf:RDF>
 </metadata>
 <defs>
  <style type="text/css">*{stroke-linejoin: round; stroke-linecap: butt}</style>
 </defs>
 <g id="figure_1">
  <g id="patch_1">
   <path d="M 0 360 
L 864 360 
L 864 0 
L 0 0 
z
" style="fill: #ffffff"/>
  </g>
  <g id="axes_1">
   <g id="patch_2">
    <path d="M 108 320.4 
L 304.941176 320.4 
L 304.941176 43.2 
L 108 43.2 
z
" style="fill: #ffffff"/>
   </g>
   <g id="matplotlib.axis_1">
    <g id="xtick_1">
     <g id="line2d_1">
      <defs>
       <path id="m5e92a7a8ab" d="M 0 0 
L 0 3.5 
" style="stroke: #000000; stroke-width: 0.8"/>
      </defs>
      <g>
       <use xlink:href="#m5e92a7a8ab" x="141.887429" y="320.4" style="stroke: #000000; stroke-width: 0.8"/>
      </g>
     </g>
     <g id="text_1">
      <text style="font: 10px 'sans-serif'; text-anchor: middle" x="141.887429" y="334.998438" transform="rotate(-0, 141.887429, 334.998438)">−0.2</text>
     </g>
    </g>
    <g id="xtick_2">
     <g id="line2d_2">
      <g>
       <use xlink:href="#m5e92a7a8ab" x="206.470588" y="320.4" style="stroke: #000000; stroke-width: 0.8"/>
      </g>
     </g>
     <g id="text_2">
      <text style="font: 10px 'sans-serif'; text-anchor: middle" x="206.470588" y="334.998438" transform="rotate(-0, 206.470588, 334.998438)">0.0</text>
     </g>
    </g>
    <g id="xtick_3">
     <g id="line2d_3">
      <g>
       <use xlink:href="#m5e92a7a8ab" x="271.053747" y="320.4" style="stroke: #000000; stroke-width: 0.8"/>
      </g>
     </g>
     <g id="text_3">
      <text style="font: 10px 'sans-serif'; text-anchor: middle" x="271.053747" y="334.998438" transform="rotate(-0, 271.053747, 334.998438)">0.2</text>
     </g>
    </g>
    <g id="text_4">
     <text style="font: 10px 'sans-serif'; text-anchor: middle" x="206.470588" y="348.676562" transform="rotate(-0, 206.470588, 348.676562)">kx</text>
    </g>
   </g>
   <g id="matplotlib.axis_2">
    <g id="ytick_1">
     <g id="line2d_4">
      <defs>
       <path id="mb79c0f1900" d="M 0 0 
L -3.5 0 
" style="stroke: #000000; stroke-width: 0.8"/>
      </defs>
      <g>
       <use xlink:href="#mb79c0f1900" x="108" y="320.4" style="stroke: #000000; stroke-width: 0.8"/>
      </g>
     </g>
     <g id="text_5">
      <text style="font: 10px 'sans-serif'; text-anchor: end" x="101" y="324.199219" transform="rotate(-0, 101, 324.199219)">−2.0</text>
     </g>
    </g>
    <g id="ytick_2">
     <g id="line2d_5">
      <g>
       <use xlink:href="#mb79c0f1900" x="108" y="280.8" style="stroke: #000000; stroke-width: 0.8"/>
      </g>
     </g>
     <g id="text_6">
      <text style="font: 10px 'sans-serif'; text-anchor: end" x="101" y="284.599219" transform="rotate(-0, 101, 284.599219)">−1.5</text>
     </g>
    </g>
    <g id="ytick_3">
     <g id="line2d_6">
      <g>
       <use xlink:href="#mb79c0f1900" x="108" y="241.2" style="stroke: #000000; stroke-width: 0.8"/>
      </g>
     </g>
     <g id="text_7">
      <text style="font: 10px 'sans-serif'; text-anchor: end" x="101" y="244.999219" transform="rotate(-0, 101, 244.999219)">−1.0</text>
     </g>
    </g>
    <g id="ytick_4">
     <g id="line2d_7">
      <g>
       <use xlink:href="#mb79c0f1900" x="108" y="201.6" style="stroke: #000000; stroke-width: 0.8"/>
      </g>
     </g>
     <g id="text_8">
      <text style="font: 10px 'sans-serif'; text-anchor: end" x="101" y="205.399219" transform="rotate(-0, 101, 205.399219)">−0.5</text>
     </g>
    </g>
    <g id="ytick_5">
     <g id="line2d_8">
      <g>
       <use xlink:href="#mb79c0f1900" x="108" y="162" style="stroke: #000000; stroke-width: 0.8"/>
      </g>
     </g>
     <g id="text_9">
      <text style="font: 10px 'sans-serif'; text-anchor: end" x="101" y="165.799219" transform="rotate(-0, 101, 165.799219)">0.0</text>
     </g>
    </g>
    <g id="ytick_6">
     <g id="line2d_9">
      <g>
       <use xlink:href="#mb79c0f1900" x="108" y="122.4" style="stroke: #000000; stroke-width: 0.8"/>
      </g>
     </g>
     <g id="text_10">
      <text style="font: 10px 'sans-serif'; text-anchor: end" x="101" y="126.199219" transform="rotate(-0, 101, 126.199219)">0.5</text>
     </g>
    </g>
    <g id="ytick_7">
     <g id="line2d_10">
      <g>
       <use xlink:href="#mb79c0f1900" x="108" y="82.8" style="stroke: #000000; stroke-width: 0.8"/>
      </g>
     </g>
     <g id="text_11">
      <text style="font: 10px 'sans-serif'; text-anchor: end" x="101" y="86.599219" transform="rotate(-0, 101, 86.599219)">1.0</text>
     </g>
    </g>
    <g id="ytick_8">
     <g id="line2d_11">
      <g>
       <use xlink:href="#mb79c0f1900" x="108" y="43.2" style="stroke: #000000; stroke-width: 0.8"/>
      </g>
     </g>
     <g id="text_12">
      <text style="font: 10px 'sans-serif'; text-anchor: end" x="101" y="46.999219" transform="rotate(-0, 101, 46.999219)">1.5</text>
     </g>
    </g>
    <g id="text_13">
     <text style="font: 10px 'sans-serif'; text-anchor: middle" x="70.6375" y="181.8" transform="rotate(-90, 70.6375, 181.8)">Energy</text>
    </g>
   </g>
   <g id="line2d_12">
    <path d="M 116.951872 230.585236 
L 118.742246 229.266492 
L 120.53262 227.947741 
L 122.322995 226.628998 
L 124.113369 225.310254 
L 125.903743 223.991511 
L 127.694118 222.672776 
L 129.484492 221.354032 
L 131.274866 220.035297 
L 133.065241 218.716569 
L 134.855615 217.397834 
L 136.645989 216.079106 
L 138.436364 214.760387 
L 140.226738 213.441659 
L 142.017112 212.122948 
L 143.807487 210.804228 
L 145.597861 209.485516 
L 147.388235 208.166813 
L 149.17861 206.848117 
L 150.968984 205.529421 
L 152.759358 204.210725 
L 154.549733 202.892045 
L 156.340107 201.573365 
L 158.130481 200.254701 
L 159.920856 198.936037 
L 161.71123 197.617388 
L 163.501604 196.298756 
L 165.291979 194.980123 
L 167.082353 193.661515 
L 168.872727 192.342922 
L 170.663102 191.024345 
L 172.453476 189.705792 
L 174.24385 188.387262 
L 176.034225 187.068764 
L 177.824599 185.750298 
L 179.614973 184.431879 
L 181.405348 183.113508 
L 183.195722 181.795208 
L 184.986096 180.47698 
L 186.776471 179.158862 
L 188.566845 177.840871 
L 190.357219 176.523054 
L 192.147594 175.205483 
L 193.937968 173.888253 
L 195.728342 172.571537 
L 197.518717 171.255653 
L 199.309091 169.94121 
L 201.099465 168.62964 
L 202.88984 167.325151 
L 204.680214 166.047644 
L 206.470588 165.124059 
L 208.260963 166.047644 
L 210.051337 167.325151 
L 211.841711 168.62964 
L 213.632086 169.94121 
L 215.42246 171.255653 
L 217.212834 172.571537 
L 219.003209 173.888253 
L 220.793583 175.205483 
L 222.583957 176.523054 
L 224.374332 177.840871 
L 226.164706 179.158862 
L 227.95508 180.47698 
L 229.745455 181.795208 
L 231.535829 183.113508 
L 233.326203 184.431879 
L 235.116578 185.750298 
L 236.906952 187.068764 
L 238.697326 188.387262 
L 240.487701 189.705792 
L 242.278075 191.024345 
L 244.068449 192.342922 
L 245.858824 193.661515 
L 247.649198 194.980123 
L 249.439572 196.298756 
L 251.229947 197.617388 
L 253.020321 198.936037 
L 254.810695 200.254701 
L 256.60107 201.573365 
L 258.391444 202.892045 
L 260.181818 204.210725 
L 261.972193 205.529421 
L 263.762567 206.848117 
L 265.552941 208.166813 
L 267.343316 209.485516 
L 269.13369 210.804228 
L 270.924064 212.122948 
L 272.714439 213.441659 
L 274.504813 214.760387 
L 276.295187 216.079106 
L 278.085561 217.397834 
L 279.875936 218.716569 
L 281.66631 220.035297 
L 283.456684 221.354032 
L 285.247059 222.672776 
L 287.037433 223.991511 
L 288.827807 225.310254 
L 290.618182 226.628998 
L 292.408556 227.947741 
L 294.19893 229.266492 
L 295.989305 230.585236 
" clip-path="url(#pbf4420a845)" style="fill: none; stroke: #9467bd; stroke-width: 1.5; stroke-linecap: square"/>
   </g>
   <g id="line2d_13">
    <path d="M 116.951872 98.703376 
L 118.742246 100.022127 
L 120.53262 101.34087 
L 122.322995 102.659622 
L 124.113369 103.978365 
L 125.903743 105.297101 
L 127.694118 106.615844 
L 129.484492 107.934579 
L 131.274866 109.253315 
L 133.065241 110.57205 
L 134.855615 111.890778 
L 136.645989 113.209505 
L 138.436364 114.528233 
L 140.226738 115.846952 
L 142.017112 117.165672 
L 143.807487 118.484384 
L 145.597861 119.803095 
L 147.388235 121.121799 
L 149.17861 122.440503 
L 150.968984 123.759199 
L 152.759358 125.077887 
L 154.549733 126.396575 
L 156.340107 127.715247 
L 158.130481 129.033919 
L 159.920856 130.352575 
L 161.71123 131.671223 
L 163.501604 132.989864 
L 165.291979 134.308488 
L 167.082353 135.627097 
L 168.872727 136.945698 
L 170.663102 138.264275 
L 172.453476 139.582828 
L 174.24385 140.901358 
L 176.034225 142.219855 
L 177.824599 143.538314 
L 179.614973 144.856732 
L 181.405348 146.175103 
L 183.195722 147.493411 
L 184.986096 148.811632 
L 186.776471 150.129757 
L 188.566845 151.447748 
L 190.357219 152.765565 
L 192.147594 154.083136 
L 193.937968 155.400365 
L 195.728342 156.717076 
L 197.518717 158.03296 
L 199.309091 159.347403 
L 201.099465 160.658975 
L 202.88984 161.963464 
L 204.680214 163.240972 
L 206.470588 164.164557 
L 208.260963 163.240972 
L 210.051337 161.963464 
L 211.841711 160.658975 
L 213.632086 159.347403 
L 215.42246 158.03296 
L 217.212834 156.717076 
L 219.003209 155.400365 
L 220.793583 154.083136 
L 222.583957 152.765565 
L 224.374332 151.447748 
L 226.164706 150.129757 
L 227.95508 148.811632 
L 229.745455 147.493411 
L 231.535829 146.175103 
L 233.326203 144.856732 
L 235.116578 143.538314 
L 236.906952 142.219855 
L 238.697326 140.901358 
L 240.487701 139.582828 
L 242.278075 138.264275 
L 244.068449 136.945698 
L 245.858824 135.627097 
L 247.649198 134.308488 
L 249.439572 132.989864 
L 251.229947 131.671223 
L 253.020321 130.352575 
L 254.810695 129.033919 
L 256.60107 127.715247 
L 258.391444 126.396575 
L 260.181818 125.077887 
L 261.972193 123.759199 
L 263.762567 122.440503 
L 265.552941 121.121799 
L 267.343316 119.803095 
L 269.13369 118.484384 
L 270.924064 117.165672 
L 272.714439 115.846952 
L 274.504813 114.528233 
L 276.295187 113.209505 
L 278.085561 111.890778 
L 279.875936 110.57205 
L 281.66631 109.253315 
L 283.456684 107.934579 
L 285.247059 106.615844 
L 287.037433 105.297101 
L 288.827807 103.978365 
L 290.618182 102.659622 
L 292.408556 101.34087 
L 294.19893 100.022127 
L 295.989305 98.703376 
" clip-path="url(#pbf4420a845)" style="fill: none; stroke: #e377c2; stroke-width: 1.5; stroke-linecap: square"/>
   </g>
   <g id="patch_3">
    <path d="M 108 320.4 
L 108 43.2 
" style="fill: none; stroke: #000000; stroke-width: 0.8; stroke-linejoin: miter; stroke-linecap: square"/>
   </g>
   <g id="patch_4">
    <path d="M 304.941176 320.4 
L 304.941176 43.2 
" style="fill: none; stroke: #000000; stroke-width: 0.8; stroke-linejoin: miter; stroke-linecap: square"/>
   </g>
   <g id="patch_5">
    <path d="M 108 320.4 
L 304.941176 320.4 
" style="fill: none; stroke: #000000; stroke-width: 0.8; stroke-linejoin: miter; stroke-linecap: square"/>
   </g>
   <g id="patch_6">
    <path d="M 108 43.2 
L 304.941176 43.2 
" style="fill: none; stroke: #000000; stroke-width: 0.8; stroke-linejoin: miter; stroke-linecap: square"/>
   </g>
   <g id="text_14">
    <text style="font: 12px 'sans-serif'; text-anchor: middle" x="206.470588" y="37.2" transform="rotate(-0, 206.470588, 37.2)">kx-cut</text>
   </g>
  </g>
  <g id="axes_2">
   <g id="patch_7">
    <path d="M 344.329412 320.4 
L 541.270588 320.4 
L 541.270588 43.2 
L 344.329412 43.2 
z
" style="fill: #ffffff"/>
   </g>
   <g id="matplotlib.axis_3">
    <g id="xtick_4">
     <g id="line2d_14">
      <g>
       <use xlink:href="#m5e92a7a8ab" x="378.216841" y="320.4" style="stroke: #000000; stroke-width: 0.8"/>
      </g>
     </g>
     <g id="text_15">
      <text style="font: 10px 'sans-serif'; text-anchor: middle" x="378.216841" y="334.998438" transform="rotate(-0, 378.216841, 334.998438)">−0.2</text>
     </g>
    </g>
    <g id="xtick_5">
     <g id="line2d_15">
      <g>
       <use xlink:href="#m5e92a7a8ab" x="442.8" y="320.4" style="stroke: #000000; stroke-width: 0.8"/>
      </g>
     </g>
     <g id="text_16">
      <text style="font: 10px 'sans-serif'; text-anchor: middle" x="442.8" y="334.998438" transform="rotate(-0, 442.8, 334.998438)">0.0</text>
     </g>
    </g>
    <g id="xtick_6">
     <g id="line2d_16">
      <g>
       <use xlink:href="#m5e92a7a8ab" x="507.383159" y="320.4" style="stroke: #000000; stroke-width: 0.8"/>
      </g>
     </g>
     <g id="text_17">
      <text style="font: 10px 'sans-serif'; text-anchor: middle" x="507.383159" y="334.998438" transform="rotate(-0, 507.383159, 334.998438)">0.2</text>
     </g>
    </g>
    <g id="text_18">
     <text style="font: 10px 'sans-serif'; text-anchor: middle" x="442.8" y="348.676562" transform="rotate(-0, 442.8, 348.676562)">ky</text>
    </g>
   </g>
   <g id="matplotlib.axis_4">
    <g id="ytick_9">
     <g id="line2d_17">
      <g>
       <use xlink:href="#mb79c0f1900" x="344.329412" y="320.4" style="stroke: #000000; stroke-width: 0.8"/>
      </g>
     </g>
     <g id="text_19">
      <text style="font: 10px 'sans-serif'; text-anchor: end" x="337.329412" y="324.199219" transform="rotate(-0, 337.329412, 324.199219)">−2.0</text>
     </g>
    </g>
    <g id="ytick_10">
     <g id="line2d_18">
      <g>
       <use xlink:href="#mb79c0f1900" x="344.329412" y="280.8" style="stroke: #000000; stroke-width: 0.8"/>
      </g>
     </g>
     <g id="text_20">
      <text style="font: 10px 'sans-serif'; text-anchor: end" x="337.329412" y="284.599219" transform="rotate(-0, 337.329412, 284.599219)">−1.5</text>
     </g>
    </g>
    <g id="ytick_11">
     <g id="line2d_19">
      <g>
       <use xlink:href="#mb79c0f1900" x="344.329412" y="241.2" style="stroke: #000000; stroke-width: 0.8"/>
      </g>
     </g>
     <g id="text_21">
      <text style="font: 10px 'sans-serif'; text-anchor: end" x="337.329412" y="244.999219" transform="rotate(-0, 337.329412, 244.999219)">−1.0</text>
     </g>
    </g>
    <g id="ytick_12">
     <g id="line2d_20">
      <g>
       <use xlink:href="#mb79c0f1900" x="344.329412" y="201.6" style="stroke: #000000; stroke-width: 0.8"/>
      </g>
     </g>
     <g id="text_22">
      <text style="font: 10px 'sans-serif'; text-anchor: end" x="337.329412" y="205.399219" transform="rotate(-0, 337.329412, 205.399219)">−0.5</text>
     </g>
    </g>
    <g id="ytick_13">
     <g id="line2d_21">
      <g>
       <use xlink:href="#mb79c0f1900" x="344.329412" y="162" style="stroke: #000000; stroke-width: 0.8"/>
      </g>
     </g>
     <g id="text_23">
      <text style="font: 10px 'sans-serif'; text-anchor: end" x="337.329412" y="165.799219" transform="rotate(-0, 337.329412, 165.799219)">0.0</text>
     </g>
    </g>
    <g id="ytick_14">
     <g id="line2d_22">
      <g>
       <use xlink:href="#mb79c0f1900" x="344.329412" y="122.4" style="stroke: #000000; stroke-width: 0.8"/>
      </g>
     </g>
     <g id="text_24">
      <text style="font: 10px 'sans-serif'; text-anchor: end" x="337.329412" y="126.199219" transform="rotate(-0, 337.329412, 126.199219)">0.5</text>
     </g>
    </g>
    <g id="ytick_15">
     <g id="line2d_23">
      <g>
       <use xlink:href="#mb79c0f1900" x="344.329412" y="82.8" style="stroke: #000000; stroke-width: 0.8"/>
      </g>
     </g>
     <g id="text_25">
      <text style="font: 10px 'sans-serif'; text-anchor: end" x="337.329412" y="86.599219" transform="rotate(-0, 337.329412, 86.599219)">1.0</text>
     </g>
    </g>
    <g id="ytick_16">
     <g id="line2d_24">
      <g>
       <use xlink:href="#mb79c0f1900" x="344.329412" y="43.2" style="stroke: #000000; stroke-width: 0.8"/>
      </g>
     </g>
     <g id="text_26">
      <text style="font: 10px 'sans-serif'; text-anchor: end" x="337.329412" y="46.999219" transform="rotate(-0, 337.329412, 46.999219)">1.5</text>
     </g>
    </g>
   </g>
   <g id="line2d_25">
    <path d="M 353.281283 276.846178 
L 355.071658 274.602204 
L 356.862032 272.358151 
L 358.652406 270.114178 
L 360.442781 267.870204 
L 362.233155 265.62623 
L 364.023529 263.382178 
L 365.813904 261.138204 
L 367.604278 258.89423 
L 369.394652 256.650257 
L 371.185027 254.406283 
L 372.975401 252.16231 
L 374.765775 249.918257 
L 376.55615 247.674283 
L 378.346524 245.43031 
L 380.136898 243.186336 
L 381.927273 240.942386 
L 383.717647 238.698413 
L 385.508021 236.454447 
L 387.298396 234.210481 
L 389.08877 231.966516 
L 390.879144 229.722558 
L 392.669519 227.478608 
L 394.459893 225.234658 
L 396.250267 222.990716 
L 398.040642 220.746774 
L 399.831016 218.502848 
L 401.62139 216.258922 
L 403.411765 214.015004 
L 405.202139 211.771102 
L 406.992513 209.527207 
L 408.782888 207.283321 
L 410.573262 205.039458 
L 412.363636 202.795611 
L 414.154011 200.55178 
L 415.944385 198.307973 
L 417.734759 196.064205 
L 419.525134 193.820469 
L 421.315508 191.576781 
L 423.105882 189.333156 
L 424.896257 187.089602 
L 426.686631 184.846159 
L 428.477005 182.60285 
L 430.26738 180.359748 
L 432.057754 178.116954 
L 433.848128 175.874644 
L 435.638503 173.633189 
L 437.428877 171.393429 
L 439.219251 169.15791 
L 441.009626 166.939035 
L 442.8 165.124059 
L 444.590374 166.939035 
L 446.380749 169.15791 
L 448.171123 171.393429 
L 449.961497 173.633189 
L 451.751872 175.874644 
L 453.542246 178.116954 
L 455.33262 180.359748 
L 457.122995 182.60285 
L 458.913369 184.846159 
L 460.703743 187.089602 
L 462.494118 189.333156 
L 464.284492 191.576781 
L 466.074866 193.820469 
L 467.865241 196.064205 
L 469.655615 198.307973 
L 471.445989 200.55178 
L 473.236364 202.795611 
L 475.026738 205.039458 
L 476.817112 207.283321 
L 478.607487 209.527207 
L 480.397861 211.771102 
L 482.188235 214.015004 
L 483.97861 216.258922 
L 485.768984 218.502848 
L 487.559358 220.746774 
L 489.349733 222.990716 
L 491.140107 225.234658 
L 492.930481 227.478608 
L 494.720856 229.722558 
L 496.51123 231.966516 
L 498.301604 234.210481 
L 500.091979 236.454447 
L 501.882353 238.698413 
L 503.672727 240.942386 
L 505.463102 243.186336 
L 507.253476 245.43031 
L 509.04385 247.674283 
L 510.834225 249.918257 
L 512.624599 252.16231 
L 514.414973 254.406283 
L 516.205348 256.650257 
L 517.995722 258.89423 
L 519.786096 261.138204 
L 521.576471 263.382178 
L 523.366845 265.62623 
L 525.157219 267.870204 
L 526.947594 270.114178 
L 528.737968 272.358151 
L 530.528342 274.602204 
L 532.318717 276.846178 
" clip-path="url(#p9d007e6a8b)" style="fill: none; stroke: #9467bd; stroke-width: 1.5; stroke-linecap: square"/>
   </g>
   <g id="line2d_26">
    <path d="M 353.281283 52.442482 
L 355.071658 54.686455 
L 356.862032 56.930429 
L 358.652406 59.174402 
L 360.442781 61.418455 
L 362.233155 63.662429 
L 364.023529 65.906402 
L 365.813904 68.150376 
L 367.604278 70.39435 
L 369.394652 72.638402 
L 371.185027 74.882376 
L 372.975401 77.12635 
L 374.765775 79.370323 
L 376.55615 81.614297 
L 378.346524 83.858286 
L 380.136898 86.10226 
L 381.927273 88.346233 
L 383.717647 90.590207 
L 385.508021 92.834173 
L 387.298396 95.078138 
L 389.08877 97.322096 
L 390.879144 99.566054 
L 392.669519 101.810012 
L 394.459893 104.053962 
L 396.250267 106.297903 
L 398.040642 108.541837 
L 399.831016 110.785771 
L 401.62139 113.029698 
L 403.411765 115.273608 
L 405.202139 117.517518 
L 406.992513 119.761412 
L 408.782888 122.005291 
L 410.573262 124.249162 
L 412.363636 126.493008 
L 414.154011 128.73684 
L 415.944385 130.980639 
L 417.734759 133.224414 
L 419.525134 135.46815 
L 421.315508 137.711831 
L 423.105882 139.955464 
L 424.896257 142.19901 
L 426.686631 144.442461 
L 428.477005 146.685769 
L 430.26738 148.928864 
L 432.057754 151.171665 
L 433.848128 153.413976 
L 435.638503 155.65543 
L 437.428877 157.895185 
L 439.219251 160.130706 
L 441.009626 162.349581 
L 442.8 164.164557 
L 444.590374 162.349581 
L 446.380749 160.130706 
L 448.171123 157.895185 
L 449.961497 155.65543 
L 451.751872 153.413976 
L 453.542246 151.171665 
L 455.33262 148.928864 
L 457.122995 146.685769 
L 458.913369 144.442461 
L 460.703743 142.19901 
L 462.494118 139.955464 
L 464.284492 137.711831 
L 466.074866 135.46815 
L 467.865241 133.224414 
L 469.655615 130.980639 
L 471.445989 128.73684 
L 473.236364 126.493008 
L 475.026738 124.249162 
L 476.817112 122.005291 
L 478.607487 119.761412 
L 480.397861 117.517518 
L 482.188235 115.273608 
L 483.97861 113.029698 
L 485.768984 110.785771 
L 487.559358 108.541837 
L 489.349733 106.297903 
L 491.140107 104.053962 
L 492.930481 101.810012 
L 494.720856 99.566054 
L 496.51123 97.322096 
L 498.301604 95.078138 
L 500.091979 92.834173 
L 501.882353 90.590207 
L 503.672727 88.346233 
L 505.463102 86.10226 
L 507.253476 83.858286 
L 509.04385 81.614297 
L 510.834225 79.370323 
L 512.624599 77.12635 
L 514.414973 74.882376 
L 516.205348 72.638402 
L 517.995722 70.39435 
L 519.786096 68.150376 
L 521.576471 65.906402 
L 523.366845 63.662429 
L 525.157219 61.418455 
L 526.947594 59.174402 
L 528.737968 56.930429 
L 530.528342 54.686455 
L 532.318717 52.442482 
" clip-path="url(#p9d007e6a8b)" style="fill: none; stroke: #e377c2; stroke-width: 1.5; stroke-linecap: square"/>
   </g>
   <g id="patch_8">
    <path d="M 344.329412 320.4 
L 344.329412 43.2 
" style="fill: none; stroke: #000000; stroke-width: 0.8; stroke-linejoin: miter; stroke-linecap: square"/>
   </g>
   <g id="patch_9">
    <path d="M 541.270588 320.4 
L 541.270588 43.2 
" style="fill: none; stroke: #000000; stroke-width: 0.8; stroke-linejoin: miter; stroke-linecap: square"/>
   </g>
   <g id="patch_10">
    <path d="M 344.329412 320.4 
L 541.270588 320.4 
" style="fill: none; stroke: #000000; stroke-width: 0.8; stroke-linejoin: miter; stroke-linecap: square"/>
   </g>
   <g id="patch_11">
    <path d="M 344.329412 43.2 
L 541.270588 43.2 
" style="fill: none; stroke: #000000; stroke-width: 0.8; stroke-linejoin: miter; stroke-linecap: square"/>
   </g>
   <g id="text_27">
    <text style="font: 12px 'sans-serif'; text-anchor: middle" x="442.8" y="37.2" transform="rotate(-0, 442.8, 37.2)">ky-cut</text>
   </g>
  </g>
  <g id="axes_3">
   <g id="patch_12">
    <path d="M 580.658824 320.4 
L 777.6 320.4 
L 777.6 43.2 
L 580.658824 43.2 
z
" style="fill: #ffffff"/>
   </g>
   <g id="matplotlib.axis_5">
    <g id="xtick_7">
     <g id="line2d_27">
      <g>
       <use xlink:href="#m5e92a7a8ab" x="614.546253" y="320.4" style="stroke: #000000; stroke-width: 0.8"/>
      </g>
     </g>
     <g id="text_28">
      <text style="font: 10px 'sans-serif'; text-anchor: middle" x="614.546253" y="334.998438" transform="rotate(-0, 614.546253, 334.998438)">−0.2</text>
     </g>
    </g>
    <g id="xtick_8">
     <g id="line2d_28">
      <g>
       <use xlink:href="#m5e92a7a8ab" x="679.129412" y="320.4" style="stroke: #000000; stroke-width: 0.8"/>
      </g>
     </g>
     <g id="text_29">
      <text style="font: 10px 'sans-serif'; text-anchor: middle" x="679.129412" y="334.998438" transform="rotate(-0, 679.129412, 334.998438)">0.0</text>
     </g>
    </g>
    <g id="xtick_9">
     <g id="line2d_29">
      <g>
       <use xlink:href="#m5e92a7a8ab" x="743.712571" y="320.4" style="stroke: #000000; stroke-width: 0.8"/>
      </g>
     </g>
     <g id="text_30">
      <text style="font: 10px 'sans-serif'; text-anchor: middle" x="743.712571" y="334.998438" transform="rotate(-0, 743.712571, 334.998438)">0.2</text>
     </g>
    </g>
    <g id="text_31">
     <text style="font: 10px 'sans-serif'; text-anchor: middle" x="679.129412" y="348.676562" transform="rotate(-0, 679.129412, 348.676562)">kz</text>
    </g>
   </g>
   <g id="matplotlib.axis_6">
    <g id="ytick_17">
     <g id="line2d_30">
      <g>
       <use xlink:href="#mb79c0f1900" x="580.658824" y="320.4" style="stroke: #000000; stroke-width: 0.8"/>
      </g>
     </g>
     <g id="text_32">
      <text style="font: 10px 'sans-serif'; text-anchor: end" x="573.658824" y="324.199219" transform="rotate(-0, 573.658824, 324.199219)">−2.0</text>
     </g>
    </g>
    <g id="ytick_18">
     <g id="line2d_31">
      <g>
       <use xlink:href="#mb79c0f1900" x="580.658824" y="280.8" style="stroke: #000000; stroke-width: 0.8"/>
      </g>
     </g>
     <g id="text_33">
      <text style="font: 10px 'sans-serif'; text-anchor: end" x="573.658824" y="284.599219" transform="rotate(-0, 573.658824, 284.599219)">−1.5</text>
     </g>
    </g>
    <g id="ytick_19">
     <g id="line2d_32">
      <g>
       <use xlink:href="#mb79c0f1900" x="580.658824" y="241.2" style="stroke: #000000; stroke-width: 0.8"/>
      </g>
     </g>
     <g id="text_34">
      <text style="font: 10px 'sans-serif'; text-anchor: end" x="573.658824" y="244.999219" transform="rotate(-0, 573.658824, 244.999219)">−1.0</text>
     </g>
    </g>
    <g id="ytick_20">
     <g id="line2d_33">
      <g>
       <use xlink:href="#mb79c0f1900" x="580.658824" y="201.6" style="stroke: #000000; stroke-width: 0.8"/>
      </g>
     </g>
     <g id="text_35">
      <text style="font: 10px 'sans-serif'; text-anchor: end" x="573.658824" y="205.399219" transform="rotate(-0, 573.658824, 205.399219)">−0.5</text>
     </g>
    </g>
    <g id="ytick_21">
     <g id="line2d_34">
      <g>
       <use xlink:href="#mb79c0f1900" x="580.658824" y="162" style="stroke: #000000; stroke-width: 0.8"/>
      </g>
     </g>
     <g id="text_36">
      <text style="font: 10px 'sans-serif'; text-anchor: end" x="573.658824" y="165.799219" transform="rotate(-0, 573.658824, 165.799219)">0.0</text>
     </g>
    </g>
    <g id="ytick_22">
     <g id="line2d_35">
      <g>
       <use xlink:href="#mb79c0f1900" x="580.658824" y="122.4" style="stroke: #000000; stroke-width: 0.8"/>
      </g>
     </g>
     <g id="text_37">
      <text style="font: 10px 'sans-serif'; text-anchor: end" x="573.658824" y="126.199219" transform="rotate(-0, 573.658824, 126.199219)">0.5</text>
     </g>
    </g>
    <g id="ytick_23">
     <g id="line2d_36">
      <g>
       <use xlink:href="#mb79c0f1900" x="580.658824" y="82.8" style="stroke: #000000; stroke-width: 0.8"/>
      </g>
     </g>
     <g id="text_38">
      <text style="font: 10px 'sans-serif'; text-anchor: end" x="573.658824" y="86.599219" transform="rotate(-0, 573.658824, 86.599219)">1.0</text>
     </g>
    </g>
    <g id="ytick_24">
     <g id="line2d_37">
      <g>
       <use xlink:href="#mb79c0f1900" x="580.658824" y="43.2" style="stroke: #000000; stroke-width: 0.8"/>
      </g>
     </g>
     <g id="text_39">
      <text style="font: 10px 'sans-serif'; text-anchor: end" x="573.658824" y="46.999219" transform="rotate(-0, 573.658824, 46.999219)">1.5</text>
     </g>
    </g>
   </g>
   <g id="line2d_38">
    <path d="M 589.610695 269.978429 
L 591.40107 267.871788 
L 593.191444 265.765147 
L 594.981818 263.658506 
L 596.772193 261.551866 
L 598.562567 259.445225 
L 600.352941 257.338584 
L 602.143316 255.231943 
L 603.93369 253.125302 
L 605.724064 251.018662 
L 607.514439 248.9121 
L 609.304813 246.805459 
L 611.095187 244.698818 
L 612.885561 242.592178 
L 614.675936 240.485576 
L 616.46631 238.378959 
L 618.256684 236.27235 
L 620.047059 234.165741 
L 621.837433 232.059132 
L 623.627807 229.952523 
L 625.418182 227.845922 
L 627.208556 225.739328 
L 628.99893 223.632735 
L 630.789305 221.52615 
L 632.579679 219.419564 
L 634.370053 217.312987 
L 636.160428 215.206417 
L 637.950802 213.099856 
L 639.741176 210.99331 
L 641.531551 208.886764 
L 643.321925 206.780234 
L 645.112299 204.67372 
L 646.902674 202.567222 
L 648.693048 200.46074 
L 650.483422 198.354281 
L 652.273797 196.247846 
L 654.064171 194.141451 
L 655.854545 192.035087 
L 657.64492 189.928779 
L 659.435294 187.822534 
L 661.225668 185.716369 
L 663.016043 183.610314 
L 664.806417 181.50441 
L 666.596791 179.398727 
L 668.387166 177.29337 
L 670.17754 175.188527 
L 671.967914 173.084594 
L 673.758289 170.982468 
L 675.548663 168.884853 
L 677.339037 166.804904 
L 679.129412 165.124059 
L 680.919786 166.804904 
L 682.71016 168.884853 
L 684.500535 170.982468 
L 686.290909 173.084594 
L 688.081283 175.188527 
L 689.871658 177.29337 
L 691.662032 179.398727 
L 693.452406 181.50441 
L 695.242781 183.610314 
L 697.033155 185.716369 
L 698.823529 187.822534 
L 700.613904 189.928779 
L 702.404278 192.035087 
L 704.194652 194.141451 
L 705.985027 196.247846 
L 707.775401 198.354281 
L 709.565775 200.46074 
L 711.35615 202.567222 
L 713.146524 204.67372 
L 714.936898 206.780234 
L 716.727273 208.886764 
L 718.517647 210.99331 
L 720.308021 213.099856 
L 722.098396 215.206417 
L 723.88877 217.312987 
L 725.679144 219.419564 
L 727.469519 221.52615 
L 729.259893 223.632735 
L 731.050267 225.739328 
L 732.840642 227.845922 
L 734.631016 229.952523 
L 736.42139 232.059132 
L 738.211765 234.165741 
L 740.002139 236.27235 
L 741.792513 238.378959 
L 743.582888 240.485576 
L 745.373262 242.592178 
L 747.163636 244.698818 
L 748.954011 246.805459 
L 750.744385 248.9121 
L 752.534759 251.018662 
L 754.325134 253.125302 
L 756.115508 255.231943 
L 757.905882 257.338584 
L 759.696257 259.445225 
L 761.486631 261.551866 
L 763.277005 263.658506 
L 765.06738 265.765147 
L 766.857754 267.871788 
L 768.648128 269.978429 
" clip-path="url(#p8b88514da0)" style="fill: none; stroke: #9467bd; stroke-width: 1.5; stroke-linecap: square"/>
   </g>
   <g id="line2d_39">
    <path d="M 589.610695 59.31023 
L 591.40107 61.416871 
L 593.191444 63.523512 
L 594.981818 65.630153 
L 596.772193 67.736794 
L 598.562567 69.843434 
L 600.352941 71.949996 
L 602.143316 74.056637 
L 603.93369 76.163278 
L 605.724064 78.269918 
L 607.514439 80.376559 
L 609.304813 82.4832 
L 611.095187 84.589793 
L 612.885561 86.696418 
L 614.675936 88.803035 
L 616.46631 90.909652 
L 618.256684 93.016269 
L 620.047059 95.122878 
L 621.837433 97.229488 
L 623.627807 99.336089 
L 625.418182 101.44269 
L 627.208556 103.549291 
L 628.99893 105.655884 
L 630.789305 107.76247 
L 632.579679 109.869055 
L 634.370053 111.975625 
L 636.160428 114.082194 
L 637.950802 116.188756 
L 639.741176 118.29531 
L 641.531551 120.401847 
L 643.321925 122.508377 
L 645.112299 124.614899 
L 646.902674 126.721398 
L 648.693048 128.82788 
L 650.483422 130.934339 
L 652.273797 133.040766 
L 654.064171 135.147169 
L 655.854545 137.253532 
L 657.64492 139.35984 
L 659.435294 141.466085 
L 661.225668 143.572251 
L 663.016043 145.678298 
L 664.806417 147.784202 
L 666.596791 149.889884 
L 668.387166 151.99525 
L 670.17754 154.100089 
L 671.967914 156.204023 
L 673.758289 158.306145 
L 675.548663 160.403763 
L 677.339037 162.483712 
L 679.129412 164.164557 
L 680.919786 162.483712 
L 682.71016 160.403763 
L 684.500535 158.306145 
L 686.290909 156.204023 
L 688.081283 154.100089 
L 689.871658 151.99525 
L 691.662032 149.889884 
L 693.452406 147.784202 
L 695.242781 145.678298 
L 697.033155 143.572251 
L 698.823529 141.466085 
L 700.613904 139.35984 
L 702.404278 137.253532 
L 704.194652 135.147169 
L 705.985027 133.040766 
L 707.775401 130.934339 
L 709.565775 128.82788 
L 711.35615 126.721398 
L 713.146524 124.614899 
L 714.936898 122.508377 
L 716.727273 120.401847 
L 718.517647 118.29531 
L 720.308021 116.188756 
L 722.098396 114.082194 
L 723.88877 111.975625 
L 725.679144 109.869055 
L 727.469519 107.76247 
L 729.259893 105.655884 
L 731.050267 103.549291 
L 732.840642 101.44269 
L 734.631016 99.336089 
L 736.42139 97.229488 
L 738.211765 95.122878 
L 740.002139 93.016269 
L 741.792513 90.909652 
L 743.582888 88.803035 
L 745.373262 86.696418 
L 747.163636 84.589793 
L 748.954011 82.4832 
L 750.744385 80.376559 
L 752.534759 78.269918 
L 754.325134 76.163278 
L 756.115508 74.056637 
L 757.905882 71.949996 
L 759.696257 69.843434 
L 761.486631 67.736794 
L 763.277005 65.630153 
L 765.06738 63.523512 
L 766.857754 61.416871 
L 768.648128 59.31023 
" clip-path="url(#p8b88514da0)" style="fill: none; stroke: #e377c2; stroke-width: 1.5; stroke-linecap: square"/>
   </g>
   <g id="patch_13">
    <path d="M 580.658824 320.4 
L 580.658824 43.2 
" style="fill: none; stroke: #000000; stroke-width: 0.8; stroke-linejoin: miter; stroke-linecap: square"/>
   </g>
   <g id="patch_14">
    <path d="M 777.6 320.4 
L 777.6 43.2 
" style="fill: none; stroke: #000000; stroke-width: 0.8; stroke-linejoin: miter; stroke-linecap: square"/>
   </g>
   <g id="patch_15">
    <path d="M 580.658824 320.4 
L 777.6 320.4 
" style="fill: none; stroke: #000000; stroke-width: 0.8; stroke-linejoin: miter; stroke-linecap: square"/>
   </g>
   <g id="patch_16">
    <path d="M 580.658824 43.2 
L 777.6 43.2 
" style="fill: none; stroke: #000000; stroke-width: 0.8; stroke-linejoin: miter; stroke-linecap: square"/>
   </g>
   <g id="text_40">
    <text style="font: 12px 'sans-serif'; text-anchor: middle" x="679.129412" y="37.2" transform="rotate(-0, 679.129412, 37.2)">kz-cut</text>
   </g>
  </g>
 </g>
 <defs>
  <clipPath id="pbf4420a845">
   <rect x="108" y="43.2" width="196.941176" height="277.2"/>
  </clipPath>
  <clipPath id="p9d007e6a8b">
   <rect x="344.329412" y="43.2" width="196.941176" height="277.2"/>
  </clipPath>
  <clipPath id="p8b88514da0">
   <rect x="580.658824" y="43.2" width="196.941176" height="277.2"/>
  </clipPath>
 </defs>
</svg>
