<?xml version="1.0" encoding="utf-8" standalone="no"?>
<!DOCTYPE svg PUBLIC "-//W3C//DTD SVG 1.1//EN"
  "http://www.w3.org/Graphics/SVG/1.1/DTD/svg11.dtd">
<svg xmlns:xlink="http://www.w3.org/1999/xlink" width="864pt" height="360pt" viewBox="0 0 864 360" xmlns="http://www.w3.org/2000/svg" version="1.1">
 <metadata>
  <rdf:RDF xmlns:dc="http://purl.org/dc/elements/1.1/" xmlns:cc="http://creativecommons.org/ns#" xmlns:rdf="http://www.w3.org/1999/02/22-rdf-syntax-ns#">
   <cc:Work>
    <dc:type rdf:resource="http://purl.org/dc/dcmitype/StillImage"/>
    <dc:date>2022-04-19T14:03:13.966940</dc:date>
    <dc:format>image/svg+xml</dc:format>
    <dc:creator>
     <cc:Agent>
      <dc:title>Matplotlib v3.5.1, https://matplotlib.org/</dc:title>
     </cc:Agent>
    </dc:creator>
   </cc:Work>
  </rdf:RDF>
 </metadata>
 <defs>
  <style type="text/css">*{stroke-linejoin: round; stroke-linecap: butt}</style>
 </defs>
 <g id="figure_1">
  <g id="patch_1">
   <path d="M 0 360 
L 864 360 
L 864 0 
L 0 0 
z
" style="fill: #ffffff"/>
  </g>
  <g id="axes_1">
   <g id="patch_2">
    <path d="M 108 320.4 
L 304.941176 320.4 
L 304.941176 43.2 
L 108 43.2 
z
" style="fill: #ffffff"/>
   </g>
   <g id="matplotlib.axis_1">
    <g id="xtick_1">
     <g id="line2d_1">
      <defs>
       <path id="mae5191e7c6" d="M 0 0 
L 0 3.5 
" style="stroke: #000000; stroke-width: 0.8"/>
      </defs>
      <g>
       <use xlink:href="#mae5191e7c6" x="141.887429" y="320.4" style="stroke: #000000; stroke-width: 0.8"/>
      </g>
     </g>
     <g id="text_1">
      <text style="font: 10px 'sans-serif'; text-anchor: middle" x="141.887429" y="334.998438" transform="rotate(-0, 141.887429, 334.998438)">−0.2</text>
     </g>
    </g>
    <g id="xtick_2">
     <g id="line2d_2">
      <g>
       <use xlink:href="#mae5191e7c6" x="206.470588" y="320.4" style="stroke: #000000; stroke-width: 0.8"/>
      </g>
     </g>
     <g id="text_2">
      <text style="font: 10px 'sans-serif'; text-anchor: middle" x="206.470588" y="334.998438" transform="rotate(-0, 206.470588, 334.998438)">0.0</text>
     </g>
    </g>
    <g id="xtick_3">
     <g id="line2d_3">
      <g>
       <use xlink:href="#mae5191e7c6" x="271.053747" y="320.4" style="stroke: #000000; stroke-width: 0.8"/>
      </g>
     </g>
     <g id="text_3">
      <text style="font: 10px 'sans-serif'; text-anchor: middle" x="271.053747" y="334.998438" transform="rotate(-0, 271.053747, 334.998438)">0.2</text>
     </g>
    </g>
    <g id="text_4">
     <text style="font: 10px 'sans-serif'; text-anchor: middle" x="206.470588" y="348.676562" transform="rotate(-0, 206.470588, 348.676562)">kx</text>
    </g>
   </g>
   <g id="matplotlib.axis_2">
    <g id="ytick_1">
     <g id="line2d_4">
      <defs>
       <path id="m85977ce18b" d="M 0 0 
L -3.5 0 
" style="stroke: #000000; stroke-width: 0.8"/>
      </defs>
      <g>
       <use xlink:href="#m85977ce18b" x="108" y="320.4" style="stroke: #000000; stroke-width: 0.8"/>
      </g>
     </g>
     <g id="text_5">
      <text style="font: 10px 'sans-serif'; text-anchor: end" x="101" y="324.199219" transform="rotate(-0, 101, 324.199219)">−2.0</text>
     </g>
    </g>
    <g id="ytick_2">
     <g id="line2d_5">
      <g>
       <use xlink:href="#m85977ce18b" x="108" y="280.8" style="stroke: #000000; stroke-width: 0.8"/>
      </g>
     </g>
     <g id="text_6">
      <text style="font: 10px 'sans-serif'; text-anchor: end" x="101" y="284.599219" transform="rotate(-0, 101, 284.599219)">−1.5</text>
     </g>
    </g>
    <g id="ytick_3">
     <g id="line2d_6">
      <g>
       <use xlink:href="#m85977ce18b" x="108" y="241.2" style="stroke: #000000; stroke-width: 0.8"/>
      </g>
     </g>
     <g id="text_7">
      <text style="font: 10px 'sans-serif'; text-anchor: end" x="101" y="244.999219" transform="rotate(-0, 101, 244.999219)">−1.0</text>
     </g>
    </g>
    <g id="ytick_4">
     <g id="line2d_7">
      <g>
       <use xlink:href="#m85977ce18b" x="108" y="201.6" style="stroke: #000000; stroke-width: 0.8"/>
      </g>
     </g>
     <g id="text_8">
      <text style="font: 10px 'sans-serif'; text-anchor: end" x="101" y="205.399219" transform="rotate(-0, 101, 205.399219)">−0.5</text>
     </g>
    </g>
    <g id="ytick_5">
     <g id="line2d_8">
      <g>
       <use xlink:href="#m85977ce18b" x="108" y="162" style="stroke: #000000; stroke-width: 0.8"/>
      </g>
     </g>
     <g id="text_9">
      <text style="font: 10px 'sans-serif'; text-anchor: end" x="101" y="165.799219" transform="rotate(-0, 101, 165.799219)">0.0</text>
     </g>
    </g>
    <g id="ytick_6">
     <g id="line2d_9">
      <g>
       <use xlink:href="#m85977ce18b" x="108" y="122.4" style="stroke: #000000; stroke-width: 0.8"/>
      </g>
     </g>
     <g id="text_10">
      <text style="font: 10px 'sans-serif'; text-anchor: end" x="101" y="126.199219" transform="rotate(-0, 101, 126.199219)">0.5</text>
     </g>
    </g>
    <g id="ytick_7">
     <g id="line2d_10">
      <g>
       <use xlink:href="#m85977ce18b" x="108" y="82.8" style="stroke: #000000; stroke-width: 0.8"/>
      </g>
     </g>
     <g id="text_11">
      <text style="font: 10px 'sans-serif'; text-anchor: end" x="101" y="86.599219" transform="rotate(-0, 101, 86.599219)">1.0</text>
     </g>
    </g>
    <g id="ytick_8">
     <g id="line2d_11">
      <g>
       <use xlink:href="#m85977ce18b" x="108" y="43.2" style="stroke: #000000; stroke-width: 0.8"/>
      </g>
     </g>
     <g id="text_12">
      <text style="font: 10px 'sans-serif'; text-anchor: end" x="101" y="46.999219" transform="rotate(-0, 101, 46.999219)">1.5</text>
     </g>
    </g>
    <g id="text_13">
     <text style="font: 10px 'sans-serif'; text-anchor: middle" x="70.6375" y="181.8" transform="rotate(-90, 70.6375, 181.8)">Energy</text>
    </g>
   </g>
   <g id="line2d_12">
    <path d="M 116.951872 293.91061 
L 118.742246 291.325363 
L 120.53262 288.740038 
L 122.322995 286.154791 
L 124.113369 283.569466 
L 125.903743 280.984219 
L 127.694118 278.398894 
L 129.484492 275.813647 
L 131.274866 273.228322 
L 133.065241 270.643075 
L 134.855615 268.05775 
L 136.645989 265.472503 
L 138.436364 262.887178 
L 140.226738 260.301931 
L 142.017112 257.716685 
L 143.807487 255.131359 
L 145.597861 252.546113 
L 147.388235 249.960866 
L 149.17861 247.375541 
L 150.968984 244.790294 
L 152.759358 242.205048 
L 154.549733 239.619794 
L 156.340107 237.034539 
L 158.130481 234.449293 
L 159.920856 231.864047 
L 161.71123 229.278808 
L 163.501604 226.69357 
L 165.291979 224.108339 
L 167.082353 221.523124 
L 168.872727 218.93791 
L 170.663102 216.352711 
L 172.453476 213.767512 
L 174.24385 211.182337 
L 176.034225 208.597177 
L 177.824599 206.012026 
L 179.614973 203.426906 
L 181.405348 200.84181 
L 183.195722 198.256746 
L 184.986096 195.671722 
L 186.776471 193.086752 
L 188.566845 190.501847 
L 190.357219 187.917028 
L 192.147594 185.332344 
L 193.937968 182.747826 
L 195.728342 180.163578 
L 197.518717 177.579749 
L 199.309091 174.996665 
L 201.099465 172.415061 
L 202.88984 169.837135 
L 204.680214 167.273753 
L 206.470588 165.124059 
L 208.260963 167.273753 
L 210.051337 169.837135 
L 211.841711 172.415061 
L 213.632086 174.996665 
L 215.42246 177.579749 
L 217.212834 180.163578 
L 219.003209 182.747826 
L 220.793583 185.332344 
L 222.583957 187.917028 
L 224.374332 190.501847 
L 226.164706 193.086752 
L 227.95508 195.671722 
L 229.745455 198.256746 
L 231.535829 200.84181 
L 233.326203 203.426906 
L 235.116578 206.012026 
L 236.906952 208.597177 
L 238.697326 211.182337 
L 240.487701 213.767512 
L 242.278075 216.352711 
L 244.068449 218.93791 
L 245.858824 221.523124 
L 247.649198 224.108339 
L 249.439572 226.69357 
L 251.229947 229.278808 
L 253.020321 231.864047 
L 254.810695 234.449293 
L 256.60107 237.034539 
L 258.391444 239.619794 
L 260.181818 242.205048 
L 261.972193 244.790294 
L 263.762567 247.375541 
L 265.552941 249.960866 
L 267.343316 252.546113 
L 269.13369 255.131359 
L 270.924064 257.716685 
L 272.714439 260.301931 
L 274.504813 262.887178 
L 276.295187 265.472503 
L 278.085561 268.05775 
L 279.875936 270.643075 
L 281.66631 273.228322 
L 283.456684 275.813647 
L 285.247059 278.398894 
L 287.037433 280.984219 
L 288.827807 283.569466 
L 290.618182 286.154791 
L 292.408556 288.740038 
L 294.19893 291.325363 
L 295.989305 293.91061 
" clip-path="url(#pb91d2252e0)" style="fill: none; stroke: #9467bd; stroke-width: 1.5; stroke-linecap: square"/>
   </g>
   <g id="line2d_13">
    <path d="M 116.951872 35.37797 
L 118.742246 37.963296 
L 120.53262 40.548542 
L 122.322995 43.133868 
L 124.113369 45.719114 
L 125.903743 48.30444 
L 127.694118 50.889686 
L 129.484492 53.475012 
L 131.274866 56.060258 
L 133.065241 58.645584 
L 134.855615 61.23083 
L 136.645989 63.816156 
L 138.436364 66.401402 
L 140.226738 68.986649 
L 142.017112 71.571974 
L 143.807487 74.157221 
L 145.597861 76.742467 
L 147.388235 79.327793 
L 149.17861 81.913039 
L 150.968984 84.498301 
L 152.759358 87.083564 
L 154.549733 89.668818 
L 156.340107 92.254072 
L 158.130481 94.839327 
L 159.920856 97.424573 
L 161.71123 100.009812 
L 163.501604 102.595042 
L 165.291979 105.180273 
L 167.082353 107.765495 
L 168.872727 110.350702 
L 170.663102 112.935909 
L 172.453476 115.5211 
L 174.24385 118.106275 
L 176.034225 120.691442 
L 177.824599 123.276586 
L 179.614973 125.861713 
L 181.405348 128.446809 
L 183.195722 131.031873 
L 184.986096 133.616898 
L 186.776471 136.201867 
L 188.566845 138.786773 
L 190.357219 141.371584 
L 192.147594 143.956276 
L 193.937968 146.540786 
L 195.728342 149.125042 
L 197.518717 151.708863 
L 199.309091 154.291951 
L 201.099465 156.873558 
L 202.88984 159.451482 
L 204.680214 162.014863 
L 206.470588 164.164557 
L 208.260963 162.014863 
L 210.051337 159.451482 
L 211.841711 156.873558 
L 213.632086 154.291951 
L 215.42246 151.708863 
L 217.212834 149.125042 
L 219.003209 146.540786 
L 220.793583 143.956276 
L 222.583957 141.371584 
L 224.374332 138.786773 
L 226.164706 136.201867 
L 227.95508 133.616898 
L 229.745455 131.031873 
L 231.535829 128.446809 
L 233.326203 125.861713 
L 235.116578 123.276586 
L 236.906952 120.691442 
L 238.697326 118.106275 
L 240.487701 115.5211 
L 242.278075 112.935909 
L 244.068449 110.350702 
L 245.858824 107.765495 
L 247.649198 105.180273 
L 249.439572 102.595042 
L 251.229947 100.009812 
L 253.020321 97.424573 
L 254.810695 94.839327 
L 256.60107 92.254072 
L 258.391444 89.668818 
L 260.181818 87.083564 
L 261.972193 84.498301 
L 263.762567 81.913039 
L 265.552941 79.327793 
L 267.343316 76.742467 
L 269.13369 74.157221 
L 270.924064 71.571974 
L 272.714439 68.986649 
L 274.504813 66.401402 
L 276.295187 63.816156 
L 278.085561 61.23083 
L 279.875936 58.645584 
L 281.66631 56.060258 
L 283.456684 53.475012 
L 285.247059 50.889686 
L 287.037433 48.30444 
L 288.827807 45.719114 
L 290.618182 43.133868 
L 292.408556 40.548542 
L 294.19893 37.963296 
L 295.989305 35.37797 
" clip-path="url(#pb91d2252e0)" style="fill: none; stroke: #e377c2; stroke-width: 1.5; stroke-linecap: square"/>
   </g>
   <g id="patch_3">
    <path d="M 108 320.4 
L 108 43.2 
" style="fill: none; stroke: #000000; stroke-width: 0.8; stroke-linejoin: miter; stroke-linecap: square"/>
   </g>
   <g id="patch_4">
    <path d="M 304.941176 320.4 
L 304.941176 43.2 
" style="fill: none; stroke: #000000; stroke-width: 0.8; stroke-linejoin: miter; stroke-linecap: square"/>
   </g>
   <g id="patch_5">
    <path d="M 108 320.4 
L 304.941176 320.4 
" style="fill: none; stroke: #000000; stroke-width: 0.8; stroke-linejoin: miter; stroke-linecap: square"/>
   </g>
   <g id="patch_6">
    <path d="M 108 43.2 
L 304.941176 43.2 
" style="fill: none; stroke: #000000; stroke-width: 0.8; stroke-linejoin: miter; stroke-linecap: square"/>
   </g>
   <g id="text_14">
    <text style="font: 12px 'sans-serif'; text-anchor: middle" x="206.470588" y="37.2" transform="rotate(-0, 206.470588, 37.2)">kx-cut</text>
   </g>
  </g>
  <g id="axes_2">
   <g id="patch_7">
    <path d="M 344.329412 320.4 
L 541.270588 320.4 
L 541.270588 43.2 
L 344.329412 43.2 
z
" style="fill: #ffffff"/>
   </g>
   <g id="matplotlib.axis_3">
    <g id="xtick_4">
     <g id="line2d_14">
      <g>
       <use xlink:href="#mae5191e7c6" x="378.216841" y="320.4" style="stroke: #000000; stroke-width: 0.8"/>
      </g>
     </g>
     <g id="text_15">
      <text style="font: 10px 'sans-serif'; text-anchor: middle" x="378.216841" y="334.998438" transform="rotate(-0, 378.216841, 334.998438)">−0.2</text>
     </g>
    </g>
    <g id="xtick_5">
     <g id="line2d_15">
      <g>
       <use xlink:href="#mae5191e7c6" x="442.8" y="320.4" style="stroke: #000000; stroke-width: 0.8"/>
      </g>
     </g>
     <g id="text_16">
      <text style="font: 10px 'sans-serif'; text-anchor: middle" x="442.8" y="334.998438" transform="rotate(-0, 442.8, 334.998438)">0.0</text>
     </g>
    </g>
    <g id="xtick_6">
     <g id="line2d_16">
      <g>
       <use xlink:href="#mae5191e7c6" x="507.383159" y="320.4" style="stroke: #000000; stroke-width: 0.8"/>
      </g>
     </g>
     <g id="text_17">
      <text style="font: 10px 'sans-serif'; text-anchor: middle" x="507.383159" y="334.998438" transform="rotate(-0, 507.383159, 334.998438)">0.2</text>
     </g>
    </g>
    <g id="text_18">
     <text style="font: 10px 'sans-serif'; text-anchor: middle" x="442.8" y="348.676562" transform="rotate(-0, 442.8, 348.676562)">ky</text>
    </g>
   </g>
   <g id="matplotlib.axis_4">
    <g id="ytick_9">
     <g id="line2d_17">
      <g>
       <use xlink:href="#m85977ce18b" x="344.329412" y="320.4" style="stroke: #000000; stroke-width: 0.8"/>
      </g>
     </g>
     <g id="text_19">
      <text style="font: 10px 'sans-serif'; text-anchor: end" x="337.329412" y="324.199219" transform="rotate(-0, 337.329412, 324.199219)">−2.0</text>
     </g>
    </g>
    <g id="ytick_10">
     <g id="line2d_18">
      <g>
       <use xlink:href="#m85977ce18b" x="344.329412" y="280.8" style="stroke: #000000; stroke-width: 0.8"/>
      </g>
     </g>
     <g id="text_20">
      <text style="font: 10px 'sans-serif'; text-anchor: end" x="337.329412" y="284.599219" transform="rotate(-0, 337.329412, 284.599219)">−1.5</text>
     </g>
    </g>
    <g id="ytick_11">
     <g id="line2d_19">
      <g>
       <use xlink:href="#m85977ce18b" x="344.329412" y="241.2" style="stroke: #000000; stroke-width: 0.8"/>
      </g>
     </g>
     <g id="text_21">
      <text style="font: 10px 'sans-serif'; text-anchor: end" x="337.329412" y="244.999219" transform="rotate(-0, 337.329412, 244.999219)">−1.0</text>
     </g>
    </g>
    <g id="ytick_12">
     <g id="line2d_20">
      <g>
       <use xlink:href="#m85977ce18b" x="344.329412" y="201.6" style="stroke: #000000; stroke-width: 0.8"/>
      </g>
     </g>
     <g id="text_22">
      <text style="font: 10px 'sans-serif'; text-anchor: end" x="337.329412" y="205.399219" transform="rotate(-0, 337.329412, 205.399219)">−0.5</text>
     </g>
    </g>
    <g id="ytick_13">
     <g id="line2d_21">
      <g>
       <use xlink:href="#m85977ce18b" x="344.329412" y="162" style="stroke: #000000; stroke-width: 0.8"/>
      </g>
     </g>
     <g id="text_23">
      <text style="font: 10px 'sans-serif'; text-anchor: end" x="337.329412" y="165.799219" transform="rotate(-0, 337.329412, 165.799219)">0.0</text>
     </g>
    </g>
    <g id="ytick_14">
     <g id="line2d_22">
      <g>
       <use xlink:href="#m85977ce18b" x="344.329412" y="122.4" style="stroke: #000000; stroke-width: 0.8"/>
      </g>
     </g>
     <g id="text_24">
      <text style="font: 10px 'sans-serif'; text-anchor: end" x="337.329412" y="126.199219" transform="rotate(-0, 337.329412, 126.199219)">0.5</text>
     </g>
    </g>
    <g id="ytick_15">
     <g id="line2d_23">
      <g>
       <use xlink:href="#m85977ce18b" x="344.329412" y="82.8" style="stroke: #000000; stroke-width: 0.8"/>
      </g>
     </g>
     <g id="text_25">
      <text style="font: 10px 'sans-serif'; text-anchor: end" x="337.329412" y="86.599219" transform="rotate(-0, 337.329412, 86.599219)">1.0</text>
     </g>
    </g>
    <g id="ytick_16">
     <g id="line2d_24">
      <g>
       <use xlink:href="#m85977ce18b" x="344.329412" y="43.2" style="stroke: #000000; stroke-width: 0.8"/>
      </g>
     </g>
     <g id="text_26">
      <text style="font: 10px 'sans-serif'; text-anchor: end" x="337.329412" y="46.999219" transform="rotate(-0, 337.329412, 46.999219)">1.5</text>
     </g>
    </g>
   </g>
   <g id="line2d_25">
    <path d="M 353.281283 179.733403 
L 355.071658 179.431928 
L 356.862032 179.130461 
L 358.652406 178.829002 
L 360.442781 178.527543 
L 362.233155 178.2261 
L 364.023529 177.924665 
L 365.813904 177.623238 
L 367.604278 177.321818 
L 369.394652 177.020407 
L 371.185027 176.719011 
L 372.975401 176.417631 
L 374.765775 176.11626 
L 376.55615 175.814896 
L 378.346524 175.513555 
L 380.136898 175.212231 
L 381.927273 174.910923 
L 383.717647 174.60963 
L 385.508021 174.308361 
L 387.298396 174.007116 
L 389.08877 173.705895 
L 390.879144 173.404705 
L 392.669519 173.103539 
L 394.459893 172.802421 
L 396.250267 172.501326 
L 398.040642 172.200287 
L 399.831016 171.899287 
L 401.62139 171.598351 
L 403.411765 171.29747 
L 405.202139 170.996669 
L 406.992513 170.695938 
L 408.782888 170.395311 
L 410.573262 170.094786 
L 412.363636 169.7944 
L 414.154011 169.494164 
L 415.944385 169.194111 
L 417.734759 168.894282 
L 419.525134 168.594728 
L 421.315508 168.295515 
L 423.105882 167.996735 
L 424.896257 167.698515 
L 426.686631 167.401038 
L 428.477005 167.104571 
L 430.26738 166.809531 
L 432.057754 166.516592 
L 433.848128 166.226921 
L 435.638503 165.942709 
L 437.428877 165.668507 
L 439.219251 165.415075 
L 441.009626 165.211001 
L 442.8 165.124059 
L 444.590374 165.211001 
L 446.380749 165.415075 
L 448.171123 165.668507 
L 449.961497 165.942709 
L 451.751872 166.226921 
L 453.542246 166.516592 
L 455.33262 166.809531 
L 457.122995 167.104571 
L 458.913369 167.401038 
L 460.703743 167.698515 
L 462.494118 167.996735 
L 464.284492 168.295515 
L 466.074866 168.594728 
L 467.865241 168.894282 
L 469.655615 169.194111 
L 471.445989 169.494164 
L 473.236364 169.7944 
L 475.026738 170.094786 
L 476.817112 170.395311 
L 478.607487 170.695938 
L 480.397861 170.996669 
L 482.188235 171.29747 
L 483.97861 171.598351 
L 485.768984 171.899287 
L 487.559358 172.200287 
L 489.349733 172.501326 
L 491.140107 172.802421 
L 492.930481 173.103539 
L 494.720856 173.404705 
L 496.51123 173.705895 
L 498.301604 174.007116 
L 500.091979 174.308361 
L 501.882353 174.60963 
L 503.672727 174.910923 
L 505.463102 175.212231 
L 507.253476 175.513555 
L 509.04385 175.814896 
L 510.834225 176.11626 
L 512.624599 176.417631 
L 514.414973 176.719011 
L 516.205348 177.020407 
L 517.995722 177.321818 
L 519.786096 177.623238 
L 521.576471 177.924665 
L 523.366845 178.2261 
L 525.157219 178.527543 
L 526.947594 178.829002 
L 528.737968 179.130461 
L 530.528342 179.431928 
L 532.318717 179.733403 
" clip-path="url(#p5947ad4472)" style="fill: none; stroke: #9467bd; stroke-width: 1.5; stroke-linecap: square"/>
   </g>
   <g id="line2d_26">
    <path d="M 353.281283 149.555217 
L 355.071658 149.856692 
L 356.862032 150.158159 
L 358.652406 150.459618 
L 360.442781 150.761069 
L 362.233155 151.062512 
L 364.023529 151.363955 
L 365.813904 151.665382 
L 367.604278 151.966801 
L 369.394652 152.268205 
L 371.185027 152.569601 
L 372.975401 152.870988 
L 374.765775 153.17236 
L 376.55615 153.473716 
L 378.346524 153.775064 
L 380.136898 154.076388 
L 381.927273 154.377697 
L 383.717647 154.678987 
L 385.508021 154.980255 
L 387.298396 155.281501 
L 389.08877 155.582721 
L 390.879144 155.883912 
L 392.669519 156.185073 
L 394.459893 156.486199 
L 396.250267 156.787286 
L 398.040642 157.08833 
L 399.831016 157.389325 
L 401.62139 157.690266 
L 403.411765 157.991144 
L 405.202139 158.291951 
L 406.992513 158.592676 
L 408.782888 158.893306 
L 410.573262 159.193826 
L 412.363636 159.494217 
L 414.154011 159.794453 
L 415.944385 160.094504 
L 417.734759 160.394333 
L 419.525134 160.693888 
L 421.315508 160.993101 
L 423.105882 161.291881 
L 424.896257 161.590101 
L 426.686631 161.887578 
L 428.477005 162.184045 
L 430.26738 162.479085 
L 432.057754 162.772024 
L 433.848128 163.061694 
L 435.638503 163.345907 
L 437.428877 163.62011 
L 439.219251 163.873541 
L 441.009626 164.077615 
L 442.8 164.164557 
L 444.590374 164.077615 
L 446.380749 163.873541 
L 448.171123 163.62011 
L 449.961497 163.345907 
L 451.751872 163.061694 
L 453.542246 162.772024 
L 455.33262 162.479085 
L 457.122995 162.184045 
L 458.913369 161.887578 
L 460.703743 161.590101 
L 462.494118 161.291881 
L 464.284492 160.993101 
L 466.074866 160.693888 
L 467.865241 160.394333 
L 469.655615 160.094504 
L 471.445989 159.794453 
L 473.236364 159.494217 
L 475.026738 159.193826 
L 476.817112 158.893306 
L 478.607487 158.592676 
L 480.397861 158.291951 
L 482.188235 157.991144 
L 483.97861 157.690266 
L 485.768984 157.389325 
L 487.559358 157.08833 
L 489.349733 156.787286 
L 491.140107 156.486199 
L 492.930481 156.185073 
L 494.720856 155.883912 
L 496.51123 155.582721 
L 498.301604 155.281501 
L 500.091979 154.980255 
L 501.882353 154.678987 
L 503.672727 154.377697 
L 505.463102 154.076388 
L 507.253476 153.775064 
L 509.04385 153.473716 
L 510.834225 153.17236 
L 512.624599 152.870988 
L 514.414973 152.569601 
L 516.205348 152.268205 
L 517.995722 151.966801 
L 519.786096 151.665382 
L 521.576471 151.363955 
L 523.366845 151.062512 
L 525.157219 150.761069 
L 526.947594 150.459618 
L 528.737968 150.158159 
L 530.528342 149.856692 
L 532.318717 149.555217 
" clip-path="url(#p5947ad4472)" style="fill: none; stroke: #e377c2; stroke-width: 1.5; stroke-linecap: square"/>
   </g>
   <g id="patch_8">
    <path d="M 344.329412 320.4 
L 344.329412 43.2 
" style="fill: none; stroke: #000000; stroke-width: 0.8; stroke-linejoin: miter; stroke-linecap: square"/>
   </g>
   <g id="patch_9">
    <path d="M 541.270588 320.4 
L 541.270588 43.2 
" style="fill: none; stroke: #000000; stroke-width: 0.8; stroke-linejoin: miter; stroke-linecap: square"/>
   </g>
   <g id="patch_10">
    <path d="M 344.329412 320.4 
L 541.270588 320.4 
" style="fill: none; stroke: #000000; stroke-width: 0.8; stroke-linejoin: miter; stroke-linecap: square"/>
   </g>
   <g id="patch_11">
    <path d="M 344.329412 43.2 
L 541.270588 43.2 
" style="fill: none; stroke: #000000; stroke-width: 0.8; stroke-linejoin: miter; stroke-linecap: square"/>
   </g>
   <g id="text_27">
    <text style="font: 12px 'sans-serif'; text-anchor: middle" x="442.8" y="37.2" transform="rotate(-0, 442.8, 37.2)">ky-cut</text>
   </g>
  </g>
  <g id="axes_3">
   <g id="patch_12">
    <path d="M 580.658824 320.4 
L 777.6 320.4 
L 777.6 43.2 
L 580.658824 43.2 
z
" style="fill: #ffffff"/>
   </g>
   <g id="matplotlib.axis_5">
    <g id="xtick_7">
     <g id="line2d_27">
      <g>
       <use xlink:href="#mae5191e7c6" x="614.546253" y="320.4" style="stroke: #000000; stroke-width: 0.8"/>
      </g>
     </g>
     <g id="text_28">
      <text style="font: 10px 'sans-serif'; text-anchor: middle" x="614.546253" y="334.998438" transform="rotate(-0, 614.546253, 334.998438)">−0.2</text>
     </g>
    </g>
    <g id="xtick_8">
     <g id="line2d_28">
      <g>
       <use xlink:href="#mae5191e7c6" x="679.129412" y="320.4" style="stroke: #000000; stroke-width: 0.8"/>
      </g>
     </g>
     <g id="text_29">
      <text style="font: 10px 'sans-serif'; text-anchor: middle" x="679.129412" y="334.998438" transform="rotate(-0, 679.129412, 334.998438)">0.0</text>
     </g>
    </g>
    <g id="xtick_9">
     <g id="line2d_29">
      <g>
       <use xlink:href="#mae5191e7c6" x="743.712571" y="320.4" style="stroke: #000000; stroke-width: 0.8"/>
      </g>
     </g>
     <g id="text_30">
      <text style="font: 10px 'sans-serif'; text-anchor: middle" x="743.712571" y="334.998438" transform="rotate(-0, 743.712571, 334.998438)">0.2</text>
     </g>
    </g>
    <g id="text_31">
     <text style="font: 10px 'sans-serif'; text-anchor: middle" x="679.129412" y="348.676562" transform="rotate(-0, 679.129412, 348.676562)">kz</text>
    </g>
   </g>
   <g id="matplotlib.axis_6">
    <g id="ytick_17">
     <g id="line2d_30">
      <g>
       <use xlink:href="#m85977ce18b" x="580.658824" y="320.4" style="stroke: #000000; stroke-width: 0.8"/>
      </g>
     </g>
     <g id="text_32">
      <text style="font: 10px 'sans-serif'; text-anchor: end" x="573.658824" y="324.199219" transform="rotate(-0, 573.658824, 324.199219)">−2.0</text>
     </g>
    </g>
    <g id="ytick_18">
     <g id="line2d_31">
      <g>
       <use xlink:href="#m85977ce18b" x="580.658824" y="280.8" style="stroke: #000000; stroke-width: 0.8"/>
      </g>
     </g>
     <g id="text_33">
      <text style="font: 10px 'sans-serif'; text-anchor: end" x="573.658824" y="284.599219" transform="rotate(-0, 573.658824, 284.599219)">−1.5</text>
     </g>
    </g>
    <g id="ytick_19">
     <g id="line2d_32">
      <g>
       <use xlink:href="#m85977ce18b" x="580.658824" y="241.2" style="stroke: #000000; stroke-width: 0.8"/>
      </g>
     </g>
     <g id="text_34">
      <text style="font: 10px 'sans-serif'; text-anchor: end" x="573.658824" y="244.999219" transform="rotate(-0, 573.658824, 244.999219)">−1.0</text>
     </g>
    </g>
    <g id="ytick_20">
     <g id="line2d_33">
      <g>
       <use xlink:href="#m85977ce18b" x="580.658824" y="201.6" style="stroke: #000000; stroke-width: 0.8"/>
      </g>
     </g>
     <g id="text_35">
      <text style="font: 10px 'sans-serif'; text-anchor: end" x="573.658824" y="205.399219" transform="rotate(-0, 573.658824, 205.399219)">−0.5</text>
     </g>
    </g>
    <g id="ytick_21">
     <g id="line2d_34">
      <g>
       <use xlink:href="#m85977ce18b" x="580.658824" y="162" style="stroke: #000000; stroke-width: 0.8"/>
      </g>
     </g>
     <g id="text_36">
      <text style="font: 10px 'sans-serif'; text-anchor: end" x="573.658824" y="165.799219" transform="rotate(-0, 573.658824, 165.799219)">0.0</text>
     </g>
    </g>
    <g id="ytick_22">
     <g id="line2d_35">
      <g>
       <use xlink:href="#m85977ce18b" x="580.658824" y="122.4" style="stroke: #000000; stroke-width: 0.8"/>
      </g>
     </g>
     <g id="text_37">
      <text style="font: 10px 'sans-serif'; text-anchor: end" x="573.658824" y="126.199219" transform="rotate(-0, 573.658824, 126.199219)">0.5</text>
     </g>
    </g>
    <g id="ytick_23">
     <g id="line2d_36">
      <g>
       <use xlink:href="#m85977ce18b" x="580.658824" y="82.8" style="stroke: #000000; stroke-width: 0.8"/>
      </g>
     </g>
     <g id="text_38">
      <text style="font: 10px 'sans-serif'; text-anchor: end" x="573.658824" y="86.599219" transform="rotate(-0, 573.658824, 86.599219)">1.0</text>
     </g>
    </g>
    <g id="ytick_24">
     <g id="line2d_37">
      <g>
       <use xlink:href="#m85977ce18b" x="580.658824" y="43.2" style="stroke: #000000; stroke-width: 0.8"/>
      </g>
     </g>
     <g id="text_39">
      <text style="font: 10px 'sans-serif'; text-anchor: end" x="573.658824" y="46.999219" transform="rotate(-0, 573.658824, 46.999219)">1.5</text>
     </g>
    </g>
   </g>
   <g id="line2d_38">
    <path d="M 589.610695 269.978429 
L 591.40107 267.871788 
L 593.191444 265.765147 
L 594.981818 263.658506 
L 596.772193 261.551866 
L 598.562567 259.445225 
L 600.352941 257.338584 
L 602.143316 255.231943 
L 603.93369 253.125302 
L 605.724064 251.018662 
L 607.514439 248.9121 
L 609.304813 246.805459 
L 611.095187 244.698818 
L 612.885561 242.592178 
L 614.675936 240.485576 
L 616.46631 238.378959 
L 618.256684 236.27235 
L 620.047059 234.165741 
L 621.837433 232.059132 
L 623.627807 229.952523 
L 625.418182 227.845922 
L 627.208556 225.739328 
L 628.99893 223.632735 
L 630.789305 221.52615 
L 632.579679 219.419564 
L 634.370053 217.312987 
L 636.160428 215.206417 
L 637.950802 213.099856 
L 639.741176 210.99331 
L 641.531551 208.886764 
L 643.321925 206.780234 
L 645.112299 204.67372 
L 646.902674 202.567222 
L 648.693048 200.46074 
L 650.483422 198.354281 
L 652.273797 196.247846 
L 654.064171 194.141451 
L 655.854545 192.035087 
L 657.64492 189.928779 
L 659.435294 187.822534 
L 661.225668 185.716369 
L 663.016043 183.610314 
L 664.806417 181.50441 
L 666.596791 179.398727 
L 668.387166 177.29337 
L 670.17754 175.188527 
L 671.967914 173.084594 
L 673.758289 170.982468 
L 675.548663 168.884853 
L 677.339037 166.804904 
L 679.129412 165.124059 
L 680.919786 166.804904 
L 682.71016 168.884853 
L 684.500535 170.982468 
L 686.290909 173.084594 
L 688.081283 175.188527 
L 689.871658 177.29337 
L 691.662032 179.398727 
L 693.452406 181.50441 
L 695.242781 183.610314 
L 697.033155 185.716369 
L 698.823529 187.822534 
L 700.613904 189.928779 
L 702.404278 192.035087 
L 704.194652 194.141451 
L 705.985027 196.247846 
L 707.775401 198.354281 
L 709.565775 200.46074 
L 711.35615 202.567222 
L 713.146524 204.67372 
L 714.936898 206.780234 
L 716.727273 208.886764 
L 718.517647 210.99331 
L 720.308021 213.099856 
L 722.098396 215.206417 
L 723.88877 217.312987 
L 725.679144 219.419564 
L 727.469519 221.52615 
L 729.259893 223.632735 
L 731.050267 225.739328 
L 732.840642 227.845922 
L 734.631016 229.952523 
L 736.42139 232.059132 
L 738.211765 234.165741 
L 740.002139 236.27235 
L 741.792513 238.378959 
L 743.582888 240.485576 
L 745.373262 242.592178 
L 747.163636 244.698818 
L 748.954011 246.805459 
L 750.744385 248.9121 
L 752.534759 251.018662 
L 754.325134 253.125302 
L 756.115508 255.231943 
L 757.905882 257.338584 
L 759.696257 259.445225 
L 761.486631 261.551866 
L 763.277005 263.658506 
L 765.06738 265.765147 
L 766.857754 267.871788 
L 768.648128 269.978429 
" clip-path="url(#p088801cc50)" style="fill: none; stroke: #9467bd; stroke-width: 1.5; stroke-linecap: square"/>
   </g>
   <g id="line2d_39">
    <path d="M 589.610695 59.31023 
L 591.40107 61.416871 
L 593.191444 63.523512 
L 594.981818 65.630153 
L 596.772193 67.736794 
L 598.562567 69.843434 
L 600.352941 71.949996 
L 602.143316 74.056637 
L 603.93369 76.163278 
L 605.724064 78.269918 
L 607.514439 80.376559 
L 609.304813 82.4832 
L 611.095187 84.589793 
L 612.885561 86.696418 
L 614.675936 88.803035 
L 616.46631 90.909652 
L 618.256684 93.016269 
L 620.047059 95.122878 
L 621.837433 97.229488 
L 623.627807 99.336089 
L 625.418182 101.44269 
L 627.208556 103.549291 
L 628.99893 105.655884 
L 630.789305 107.76247 
L 632.579679 109.869055 
L 634.370053 111.975625 
L 636.160428 114.082194 
L 637.950802 116.188756 
L 639.741176 118.29531 
L 641.531551 120.401847 
L 643.321925 122.508377 
L 645.112299 124.614899 
L 646.902674 126.721398 
L 648.693048 128.82788 
L 650.483422 130.934339 
L 652.273797 133.040766 
L 654.064171 135.147169 
L 655.854545 137.253532 
L 657.64492 139.35984 
L 659.435294 141.466085 
L 661.225668 143.572251 
L 663.016043 145.678298 
L 664.806417 147.784202 
L 666.596791 149.889884 
L 668.387166 151.99525 
L 670.17754 154.100089 
L 671.967914 156.204023 
L 673.758289 158.306145 
L 675.548663 160.403763 
L 677.339037 162.483712 
L 679.129412 164.164557 
L 680.919786 162.483712 
L 682.71016 160.403763 
L 684.500535 158.306145 
L 686.290909 156.204023 
L 688.081283 154.100089 
L 689.871658 151.99525 
L 691.662032 149.889884 
L 693.452406 147.784202 
L 695.242781 145.678298 
L 697.033155 143.572251 
L 698.823529 141.466085 
L 700.613904 139.35984 
L 702.404278 137.253532 
L 704.194652 135.147169 
L 705.985027 133.040766 
L 707.775401 130.934339 
L 709.565775 128.82788 
L 711.35615 126.721398 
L 713.146524 124.614899 
L 714.936898 122.508377 
L 716.727273 120.401847 
L 718.517647 118.29531 
L 720.308021 116.188756 
L 722.098396 114.082194 
L 723.88877 111.975625 
L 725.679144 109.869055 
L 727.469519 107.76247 
L 729.259893 105.655884 
L 731.050267 103.549291 
L 732.840642 101.44269 
L 734.631016 99.336089 
L 736.42139 97.229488 
L 738.211765 95.122878 
L 740.002139 93.016269 
L 741.792513 90.909652 
L 743.582888 88.803035 
L 745.373262 86.696418 
L 747.163636 84.589793 
L 748.954011 82.4832 
L 750.744385 80.376559 
L 752.534759 78.269918 
L 754.325134 76.163278 
L 756.115508 74.056637 
L 757.905882 71.949996 
L 759.696257 69.843434 
L 761.486631 67.736794 
L 763.277005 65.630153 
L 765.06738 63.523512 
L 766.857754 61.416871 
L 768.648128 59.31023 
" clip-path="url(#p088801cc50)" style="fill: none; stroke: #e377c2; stroke-width: 1.5; stroke-linecap: square"/>
   </g>
   <g id="patch_13">
    <path d="M 580.658824 320.4 
L 580.658824 43.2 
" style="fill: none; stroke: #000000; stroke-width: 0.8; stroke-linejoin: miter; stroke-linecap: square"/>
   </g>
   <g id="patch_14">
    <path d="M 777.6 320.4 
L 777.6 43.2 
" style="fill: none; stroke: #000000; stroke-width: 0.8; stroke-linejoin: miter; stroke-linecap: square"/>
   </g>
   <g id="patch_15">
    <path d="M 580.658824 320.4 
L 777.6 320.4 
" style="fill: none; stroke: #000000; stroke-width: 0.8; stroke-linejoin: miter; stroke-linecap: square"/>
   </g>
   <g id="patch_16">
    <path d="M 580.658824 43.2 
L 777.6 43.2 
" style="fill: none; stroke: #000000; stroke-width: 0.8; stroke-linejoin: miter; stroke-linecap: square"/>
   </g>
   <g id="text_40">
    <text style="font: 12px 'sans-serif'; text-anchor: middle" x="679.129412" y="37.2" transform="rotate(-0, 679.129412, 37.2)">kz-cut</text>
   </g>
  </g>
 </g>
 <defs>
  <clipPath id="pb91d2252e0">
   <rect x="108" y="43.2" width="196.941176" height="277.2"/>
  </clipPath>
  <clipPath id="p5947ad4472">
   <rect x="344.329412" y="43.2" width="196.941176" height="277.2"/>
  </clipPath>
  <clipPath id="p088801cc50">
   <rect x="580.658824" y="43.2" width="196.941176" height="277.2"/>
  </clipPath>
 </defs>
</svg>
