<?xml version="1.0" encoding="utf-8" standalone="no"?>
<!DOCTYPE svg PUBLIC "-//W3C//DTD SVG 1.1//EN"
  "http://www.w3.org/Graphics/SVG/1.1/DTD/svg11.dtd">
<!-- Created with matplotlib (https://matplotlib.org/) -->
<svg height="504pt" version="1.1" viewBox="0 0 504 504" width="504pt" xmlns="http://www.w3.org/2000/svg" xmlns:xlink="http://www.w3.org/1999/xlink">
 <defs>
  <style type="text/css">
*{stroke-linecap:butt;stroke-linejoin:round;}
  </style>
 </defs>
 <g id="figure_1">
  <g id="patch_1">
   <path d="M 0 504 
L 504 504 
L 504 0 
L 0 0 
z
" style="fill:#ffffff;"/>
  </g>
  <g id="axes_1">
   <g id="patch_2">
    <path d="M 63 448.56 
L 453.6 448.56 
L 453.6 60.48 
L 63 60.48 
z
" style="fill:#ffffff;"/>
   </g>
   <g id="PathCollection_1">
    <defs>
     <path d="M 0 1 
C 0.265203 1 0.51958 0.894634 0.707107 0.707107 
C 0.894634 0.51958 1 0.265203 1 0 
C 1 -0.265203 0.894634 -0.51958 0.707107 -0.707107 
C 0.51958 -0.894634 0.265203 -1 0 -1 
C -0.265203 -1 -0.51958 -0.894634 -0.707107 -0.707107 
C -0.894634 -0.51958 -1 -0.265203 -1 0 
C -1 0.265203 -0.894634 0.51958 -0.707107 0.707107 
C -0.51958 0.894634 -0.265203 1 0 1 
z
" id="m95a686ce12" style="stroke:#1f77b4;"/>
    </defs>
    <g clip-path="url(#p787e6ba4fc)">
     <use style="fill:#1f77b4;stroke:#1f77b4;" x="88.932475" xlink:href="#m95a686ce12" y="430.92"/>
     <use style="fill:#1f77b4;stroke:#1f77b4;" x="93.275214" xlink:href="#m95a686ce12" y="430.92"/>
     <use style="fill:#1f77b4;stroke:#1f77b4;" x="97.617997" xlink:href="#m95a686ce12" y="430.92"/>
     <use style="fill:#1f77b4;stroke:#1f77b4;" x="101.960736" xlink:href="#m95a686ce12" y="430.92"/>
     <use style="fill:#1f77b4;stroke:#1f77b4;" x="106.30352" xlink:href="#m95a686ce12" y="430.92"/>
     <use style="fill:#1f77b4;stroke:#1f77b4;" x="106.772327" xlink:href="#m95a686ce12" y="430.92"/>
     <use style="fill:#1f77b4;stroke:#1f77b4;" x="114.462337" xlink:href="#m95a686ce12" y="430.92"/>
     <use style="fill:#1f77b4;stroke:#1f77b4;" x="119.534752" xlink:href="#m95a686ce12" y="430.92"/>
     <use style="fill:#1f77b4;stroke:#1f77b4;" x="122.868047" xlink:href="#m95a686ce12" y="430.92"/>
     <use style="fill:#1f77b4;stroke:#1f77b4;" x="125.049222" xlink:href="#m95a686ce12" y="430.92"/>
     <use style="fill:#1f77b4;stroke:#1f77b4;" x="126.469487" xlink:href="#m95a686ce12" y="430.92"/>
     <use style="fill:#1f77b4;stroke:#1f77b4;" x="127.389135" xlink:href="#m95a686ce12" y="430.92"/>
     <use style="fill:#1f77b4;stroke:#1f77b4;" x="127.980657" xlink:href="#m95a686ce12" y="430.92"/>
     <use style="fill:#1f77b4;stroke:#1f77b4;" x="128.358205" xlink:href="#m95a686ce12" y="430.92"/>
     <use style="fill:#1f77b4;stroke:#1f77b4;" x="128.596935" xlink:href="#m95a686ce12" y="430.92"/>
     <use style="fill:#1f77b4;stroke:#1f77b4;" x="128.746135" xlink:href="#m95a686ce12" y="430.92"/>
     <use style="fill:#1f77b4;stroke:#1f77b4;" x="128.838016" xlink:href="#m95a686ce12" y="430.92"/>
     <use style="fill:#1f77b4;stroke:#1f77b4;" x="128.893561" xlink:href="#m95a686ce12" y="430.92"/>
     <use style="fill:#1f77b4;stroke:#1f77b4;" x="128.926347" xlink:href="#m95a686ce12" y="430.92"/>
     <use style="fill:#1f77b4;stroke:#1f77b4;" x="128.944936" xlink:href="#m95a686ce12" y="430.92"/>
     <use style="fill:#1f77b4;stroke:#1f77b4;" x="128.954962" xlink:href="#m95a686ce12" y="430.92"/>
     <use style="fill:#1f77b4;stroke:#1f77b4;" x="128.965033" xlink:href="#m95a686ce12" y="430.853567"/>
     <use style="fill:#1f77b4;stroke:#1f77b4;" x="128.983622" xlink:href="#m95a686ce12" y="430.808153"/>
     <use style="fill:#1f77b4;stroke:#1f77b4;" x="129.016408" xlink:href="#m95a686ce12" y="430.756655"/>
     <use style="fill:#1f77b4;stroke:#1f77b4;" x="129.071954" xlink:href="#m95a686ce12" y="430.693406"/>
     <use style="fill:#1f77b4;stroke:#1f77b4;" x="129.163834" xlink:href="#m95a686ce12" y="430.614401"/>
     <use style="fill:#1f77b4;stroke:#1f77b4;" x="129.313035" xlink:href="#m95a686ce12" y="430.518894"/>
     <use style="fill:#1f77b4;stroke:#1f77b4;" x="129.551764" xlink:href="#m95a686ce12" y="430.396214"/>
     <use style="fill:#1f77b4;stroke:#1f77b4;" x="129.929313" xlink:href="#m95a686ce12" y="430.234384"/>
     <use style="fill:#1f77b4;stroke:#1f77b4;" x="130.520835" xlink:href="#m95a686ce12" y="430.033291"/>
     <use style="fill:#1f77b4;stroke:#1f77b4;" x="131.440482" xlink:href="#m95a686ce12" y="429.755896"/>
     <use style="fill:#1f77b4;stroke:#1f77b4;" x="132.860748" xlink:href="#m95a686ce12" y="429.370201"/>
     <use style="fill:#1f77b4;stroke:#1f77b4;" x="135.041878" xlink:href="#m95a686ce12" y="428.803537"/>
     <use style="fill:#1f77b4;stroke:#1f77b4;" x="138.375218" xlink:href="#m95a686ce12" y="427.937933"/>
     <use style="fill:#1f77b4;stroke:#1f77b4;" x="143.447632" xlink:href="#m95a686ce12" y="426.557025"/>
     <use style="fill:#1f77b4;stroke:#1f77b4;" x="151.137598" xlink:href="#m95a686ce12" y="424.154455"/>
     <use style="fill:#1f77b4;stroke:#1f77b4;" x="154.073824" xlink:href="#m95a686ce12" y="423.168215"/>
     <use style="fill:#1f77b4;stroke:#1f77b4;" x="158.416563" xlink:href="#m95a686ce12" y="421.559899"/>
     <use style="fill:#1f77b4;stroke:#1f77b4;" x="162.759346" xlink:href="#m95a686ce12" y="419.865713"/>
     <use style="fill:#1f77b4;stroke:#1f77b4;" x="167.102085" xlink:href="#m95a686ce12" y="418.011626"/>
     <use style="fill:#1f77b4;stroke:#1f77b4;" x="171.444868" xlink:href="#m95a686ce12" y="416.088594"/>
     <use style="fill:#1f77b4;stroke:#1f77b4;" x="175.787607" xlink:href="#m95a686ce12" y="413.973908"/>
     <use style="fill:#1f77b4;stroke:#1f77b4;" x="180.13039" xlink:href="#m95a686ce12" y="411.76112"/>
     <use style="fill:#1f77b4;stroke:#1f77b4;" x="184.473129" xlink:href="#m95a686ce12" y="409.371892"/>
     <use style="fill:#1f77b4;stroke:#1f77b4;" x="188.815868" xlink:href="#m95a686ce12" y="406.908824"/>
     <use style="fill:#1f77b4;stroke:#1f77b4;" x="193.158651" xlink:href="#m95a686ce12" y="404.292473"/>
     <use style="fill:#1f77b4;stroke:#1f77b4;" x="197.50139" xlink:href="#m95a686ce12" y="401.576912"/>
     <use style="fill:#1f77b4;stroke:#1f77b4;" x="201.844173" xlink:href="#m95a686ce12" y="398.830359"/>
     <use style="fill:#1f77b4;stroke:#1f77b4;" x="206.186912" xlink:href="#m95a686ce12" y="395.783459"/>
     <use style="fill:#1f77b4;stroke:#1f77b4;" x="210.529669" xlink:href="#m95a686ce12" y="392.653768"/>
     <use style="fill:#1f77b4;stroke:#1f77b4;" x="214.872425" xlink:href="#m95a686ce12" y="389.384205"/>
     <use style="fill:#1f77b4;stroke:#1f77b4;" x="219.215182" xlink:href="#m95a686ce12" y="386.212997"/>
     <use style="fill:#1f77b4;stroke:#1f77b4;" x="223.557943" xlink:href="#m95a686ce12" y="382.718772"/>
     <use style="fill:#1f77b4;stroke:#1f77b4;" x="227.900699" xlink:href="#m95a686ce12" y="379.090757"/>
     <use style="fill:#1f77b4;stroke:#1f77b4;" x="232.243456" xlink:href="#m95a686ce12" y="375.399939"/>
     <use style="fill:#1f77b4;stroke:#1f77b4;" x="236.586213" xlink:href="#m95a686ce12" y="371.816925"/>
     <use style="fill:#1f77b4;stroke:#1f77b4;" x="240.928969" xlink:href="#m95a686ce12" y="367.47662"/>
     <use style="fill:#1f77b4;stroke:#1f77b4;" x="245.271726" xlink:href="#m95a686ce12" y="363.403312"/>
     <use style="fill:#1f77b4;stroke:#1f77b4;" x="249.614484" xlink:href="#m95a686ce12" y="359.097398"/>
     <use style="fill:#1f77b4;stroke:#1f77b4;" x="253.957241" xlink:href="#m95a686ce12" y="355.098921"/>
     <use style="fill:#1f77b4;stroke:#1f77b4;" x="258.3" xlink:href="#m95a686ce12" y="350.240422"/>
     <use style="fill:#1f77b4;stroke:#1f77b4;" x="262.642757" xlink:href="#m95a686ce12" y="345.505856"/>
     <use style="fill:#1f77b4;stroke:#1f77b4;" x="266.985513" xlink:href="#m95a686ce12" y="340.870106"/>
     <use style="fill:#1f77b4;stroke:#1f77b4;" x="271.32827" xlink:href="#m95a686ce12" y="335.903394"/>
     <use style="fill:#1f77b4;stroke:#1f77b4;" x="275.671026" xlink:href="#m95a686ce12" y="330.991644"/>
     <use style="fill:#1f77b4;stroke:#1f77b4;" x="280.013783" xlink:href="#m95a686ce12" y="325.820856"/>
     <use style="fill:#1f77b4;stroke:#1f77b4;" x="284.35654" xlink:href="#m95a686ce12" y="320.681675"/>
     <use style="fill:#1f77b4;stroke:#1f77b4;" x="288.699296" xlink:href="#m95a686ce12" y="315.164822"/>
     <use style="fill:#1f77b4;stroke:#1f77b4;" x="293.042053" xlink:href="#m95a686ce12" y="309.260645"/>
     <use style="fill:#1f77b4;stroke:#1f77b4;" x="297.384827" xlink:href="#m95a686ce12" y="303.733012"/>
     <use style="fill:#1f77b4;stroke:#1f77b4;" x="301.727566" xlink:href="#m95a686ce12" y="298.129967"/>
     <use style="fill:#1f77b4;stroke:#1f77b4;" x="306.070305" xlink:href="#m95a686ce12" y="292.695411"/>
     <use style="fill:#1f77b4;stroke:#1f77b4;" x="310.413088" xlink:href="#m95a686ce12" y="286.010177"/>
     <use style="fill:#1f77b4;stroke:#1f77b4;" x="314.755827" xlink:href="#m95a686ce12" y="280.453637"/>
     <use style="fill:#1f77b4;stroke:#1f77b4;" x="319.09861" xlink:href="#m95a686ce12" y="274.315793"/>
     <use style="fill:#1f77b4;stroke:#1f77b4;" x="323.441349" xlink:href="#m95a686ce12" y="267.1178"/>
     <use style="fill:#1f77b4;stroke:#1f77b4;" x="327.784132" xlink:href="#m95a686ce12" y="260.600234"/>
     <use style="fill:#1f77b4;stroke:#1f77b4;" x="332.126871" xlink:href="#m95a686ce12" y="254.981198"/>
     <use style="fill:#1f77b4;stroke:#1f77b4;" x="336.46961" xlink:href="#m95a686ce12" y="247.47628"/>
     <use style="fill:#1f77b4;stroke:#1f77b4;" x="340.812393" xlink:href="#m95a686ce12" y="241.507267"/>
     <use style="fill:#1f77b4;stroke:#1f77b4;" x="345.155132" xlink:href="#m95a686ce12" y="232.539737"/>
     <use style="fill:#1f77b4;stroke:#1f77b4;" x="349.497915" xlink:href="#m95a686ce12" y="226.764121"/>
     <use style="fill:#1f77b4;stroke:#1f77b4;" x="353.840654" xlink:href="#m95a686ce12" y="220.303584"/>
     <use style="fill:#1f77b4;stroke:#1f77b4;" x="358.183393" xlink:href="#m95a686ce12" y="213.050493"/>
     <use style="fill:#1f77b4;stroke:#1f77b4;" x="362.526176" xlink:href="#m95a686ce12" y="205.277005"/>
     <use style="fill:#1f77b4;stroke:#1f77b4;" x="366.868915" xlink:href="#m95a686ce12" y="196.945364"/>
     <use style="fill:#1f77b4;stroke:#1f77b4;" x="371.211698" xlink:href="#m95a686ce12" y="190.20874"/>
     <use style="fill:#1f77b4;stroke:#1f77b4;" x="375.554437" xlink:href="#m95a686ce12" y="181.687118"/>
     <use style="fill:#1f77b4;stroke:#1f77b4;" x="379.897176" xlink:href="#m95a686ce12" y="173.830428"/>
     <use style="fill:#1f77b4;stroke:#1f77b4;" x="384.239959" xlink:href="#m95a686ce12" y="164.56033"/>
     <use style="fill:#1f77b4;stroke:#1f77b4;" x="388.582698" xlink:href="#m95a686ce12" y="156.005564"/>
     <use style="fill:#1f77b4;stroke:#1f77b4;" x="392.925481" xlink:href="#m95a686ce12" y="148.250357"/>
     <use style="fill:#1f77b4;stroke:#1f77b4;" x="397.26822" xlink:href="#m95a686ce12" y="140.549137"/>
     <use style="fill:#1f77b4;stroke:#1f77b4;" x="401.611003" xlink:href="#m95a686ce12" y="130.469571"/>
     <use style="fill:#1f77b4;stroke:#1f77b4;" x="405.953742" xlink:href="#m95a686ce12" y="122.714022"/>
     <use style="fill:#1f77b4;stroke:#1f77b4;" x="410.29648" xlink:href="#m95a686ce12" y="112.079549"/>
     <use style="fill:#1f77b4;stroke:#1f77b4;" x="414.639264" xlink:href="#m95a686ce12" y="104.369274"/>
     <use style="fill:#1f77b4;stroke:#1f77b4;" x="418.982003" xlink:href="#m95a686ce12" y="92.787974"/>
     <use style="fill:#1f77b4;stroke:#1f77b4;" x="423.324786" xlink:href="#m95a686ce12" y="83.695043"/>
     <use style="fill:#1f77b4;stroke:#1f77b4;" x="427.667525" xlink:href="#m95a686ce12" y="78.12"/>
    </g>
   </g>
   <g id="matplotlib.axis_1">
    <g id="xtick_1">
     <g id="line2d_1">
      <defs>
       <path d="M 0 0 
L 0 3.5 
" id="m333a6fe890" style="stroke:#000000;stroke-width:0.8;"/>
      </defs>
      <g>
       <use style="stroke:#000000;stroke-width:0.8;" x="72.745363" xlink:href="#m333a6fe890" y="448.56"/>
      </g>
     </g>
     <g id="text_1">
      <text style="font-family:DejaVu Sans;font-size:10px;font-style:normal;font-weight:normal;text-anchor:middle;" transform="rotate(-0, 72.745363, 463.158437)" x="72.745363" y="463.158437">−0.04</text>
     </g>
    </g>
    <g id="xtick_2">
     <g id="line2d_2">
      <g>
       <use style="stroke:#000000;stroke-width:0.8;" x="117.110633" xlink:href="#m333a6fe890" y="448.56"/>
      </g>
     </g>
     <g id="text_2">
      <text style="font-family:DejaVu Sans;font-size:10px;font-style:normal;font-weight:normal;text-anchor:middle;" transform="rotate(-0, 117.110633, 463.158437)" x="117.110633" y="463.158437">−0.03</text>
     </g>
    </g>
    <g id="xtick_3">
     <g id="line2d_3">
      <g>
       <use style="stroke:#000000;stroke-width:0.8;" x="161.475903" xlink:href="#m333a6fe890" y="448.56"/>
      </g>
     </g>
     <g id="text_3">
      <text style="font-family:DejaVu Sans;font-size:10px;font-style:normal;font-weight:normal;text-anchor:middle;" transform="rotate(-0, 161.475903, 463.158437)" x="161.475903" y="463.158437">−0.02</text>
     </g>
    </g>
    <g id="xtick_4">
     <g id="line2d_4">
      <g>
       <use style="stroke:#000000;stroke-width:0.8;" x="205.841174" xlink:href="#m333a6fe890" y="448.56"/>
      </g>
     </g>
     <g id="text_4">
      <text style="font-family:DejaVu Sans;font-size:10px;font-style:normal;font-weight:normal;text-anchor:middle;" transform="rotate(-0, 205.841174, 463.158437)" x="205.841174" y="463.158437">−0.01</text>
     </g>
    </g>
    <g id="xtick_5">
     <g id="line2d_5">
      <g>
       <use style="stroke:#000000;stroke-width:0.8;" x="250.206444" xlink:href="#m333a6fe890" y="448.56"/>
      </g>
     </g>
     <g id="text_5">
      <text style="font-family:DejaVu Sans;font-size:10px;font-style:normal;font-weight:normal;text-anchor:middle;" transform="rotate(-0, 250.206444, 463.158437)" x="250.206444" y="463.158437">0.00</text>
     </g>
    </g>
    <g id="xtick_6">
     <g id="line2d_6">
      <g>
       <use style="stroke:#000000;stroke-width:0.8;" x="294.571714" xlink:href="#m333a6fe890" y="448.56"/>
      </g>
     </g>
     <g id="text_6">
      <text style="font-family:DejaVu Sans;font-size:10px;font-style:normal;font-weight:normal;text-anchor:middle;" transform="rotate(-0, 294.571714, 463.158437)" x="294.571714" y="463.158437">0.01</text>
     </g>
    </g>
    <g id="xtick_7">
     <g id="line2d_7">
      <g>
       <use style="stroke:#000000;stroke-width:0.8;" x="338.936984" xlink:href="#m333a6fe890" y="448.56"/>
      </g>
     </g>
     <g id="text_7">
      <text style="font-family:DejaVu Sans;font-size:10px;font-style:normal;font-weight:normal;text-anchor:middle;" transform="rotate(-0, 338.936984, 463.158437)" x="338.936984" y="463.158437">0.02</text>
     </g>
    </g>
    <g id="xtick_8">
     <g id="line2d_8">
      <g>
       <use style="stroke:#000000;stroke-width:0.8;" x="383.302254" xlink:href="#m333a6fe890" y="448.56"/>
      </g>
     </g>
     <g id="text_8">
      <text style="font-family:DejaVu Sans;font-size:10px;font-style:normal;font-weight:normal;text-anchor:middle;" transform="rotate(-0, 383.302254, 463.158437)" x="383.302254" y="463.158437">0.03</text>
     </g>
    </g>
    <g id="xtick_9">
     <g id="line2d_9">
      <g>
       <use style="stroke:#000000;stroke-width:0.8;" x="427.667525" xlink:href="#m333a6fe890" y="448.56"/>
      </g>
     </g>
     <g id="text_9">
      <text style="font-family:DejaVu Sans;font-size:10px;font-style:normal;font-weight:normal;text-anchor:middle;" transform="rotate(-0, 427.667525, 463.158437)" x="427.667525" y="463.158437">0.04</text>
     </g>
    </g>
    <g id="text_10">
     <text style="font-family:DejaVu Sans;font-size:10px;font-style:normal;font-weight:normal;text-anchor:middle;" transform="rotate(-0, 258.3, 476.836563)" x="258.3" y="476.836563">mu [eV]</text>
    </g>
   </g>
   <g id="matplotlib.axis_2">
    <g id="ytick_1">
     <g id="line2d_10">
      <defs>
       <path d="M 0 0 
L -3.5 0 
" id="m44d7577210" style="stroke:#000000;stroke-width:0.8;"/>
      </defs>
      <g>
       <use style="stroke:#000000;stroke-width:0.8;" x="63" xlink:href="#m44d7577210" y="430.92"/>
      </g>
     </g>
     <g id="text_11">
      <!-- $\mathdefault{0.0}$ -->
      <g transform="translate(40 434.719219)">
       <text>
        <tspan style="font-family:DejaVu Sans;font-size:10px;font-style:book;font-weight:book;" x="0 6.362305 9.541016" y="-0.578125">0.0</tspan>
       </text>
      </g>
     </g>
    </g>
    <g id="ytick_2">
     <g id="line2d_11">
      <g>
       <use style="stroke:#000000;stroke-width:0.8;" x="63" xlink:href="#m44d7577210" y="345.497057"/>
      </g>
     </g>
     <g id="text_12">
      <!-- $\mathdefault{0.5}$ -->
      <g transform="translate(40 349.296276)">
       <text>
        <tspan style="font-family:DejaVu Sans;font-size:10px;font-style:book;font-weight:book;" x="0 6.362305 9.541016" y="-0.578125">0.5</tspan>
       </text>
      </g>
     </g>
    </g>
    <g id="ytick_3">
     <g id="line2d_12">
      <g>
       <use style="stroke:#000000;stroke-width:0.8;" x="63" xlink:href="#m44d7577210" y="260.074114"/>
      </g>
     </g>
     <g id="text_13">
      <!-- $\mathdefault{1.0}$ -->
      <g transform="translate(40 263.873333)">
       <text>
        <tspan style="font-family:DejaVu Sans;font-size:10px;font-style:book;font-weight:book;" x="0 6.362305 9.541016" y="-0.578125">1.0</tspan>
       </text>
      </g>
     </g>
    </g>
    <g id="ytick_4">
     <g id="line2d_13">
      <g>
       <use style="stroke:#000000;stroke-width:0.8;" x="63" xlink:href="#m44d7577210" y="174.651171"/>
      </g>
     </g>
     <g id="text_14">
      <!-- $\mathdefault{1.5}$ -->
      <g transform="translate(40 178.45039)">
       <text>
        <tspan style="font-family:DejaVu Sans;font-size:10px;font-style:book;font-weight:book;" x="0 6.362305 9.541016" y="-0.703125">1.5</tspan>
       </text>
      </g>
     </g>
    </g>
    <g id="ytick_5">
     <g id="line2d_14">
      <g>
       <use style="stroke:#000000;stroke-width:0.8;" x="63" xlink:href="#m44d7577210" y="89.228229"/>
      </g>
     </g>
     <g id="text_15">
      <!-- $\mathdefault{2.0}$ -->
      <g transform="translate(40 93.027447)">
       <text>
        <tspan style="font-family:DejaVu Sans;font-size:10px;font-style:book;font-weight:book;" x="0 6.362305 9.541016" y="-0.578125">2.0</tspan>
       </text>
      </g>
     </g>
    </g>
    <g id="text_16">
     <text style="font-family:DejaVu Sans;font-size:10px;font-style:normal;font-weight:normal;text-anchor:middle;" transform="rotate(-90, 33.920312, 254.52)" x="33.920312" y="254.52">DOS [/eV m3]</text>
    </g>
    <g id="text_17">
     <!-- $\times\mathdefault{10^{25}}\mathdefault{}$ -->
     <g transform="translate(63 57.48)">
      <text>
       <tspan style="font-family:DejaVu Sans;font-size:10px;font-style:book;font-weight:book;" x="0 8.378906 14.741211" y="-0.9765625">×10</tspan>
       <tspan style="font-family:DejaVu Sans;font-size:7px;font-style:book;font-weight:book;" x="21.199219 25.652832" y="-4.8046875">25</tspan>
      </text>
     </g>
    </g>
   </g>
   <g id="line2d_15">
    <path clip-path="url(#p787e6ba4fc)" d="M 88.932475 430.92 
L 93.275214 430.92 
L 97.617997 430.92 
L 101.960736 430.92 
L 106.30352 430.92 
L 106.772327 430.92 
L 114.462337 430.92 
L 119.534752 430.92 
L 122.868047 430.92 
L 125.049222 430.92 
L 126.469487 430.92 
L 127.389135 430.92 
L 127.980657 430.92 
L 128.358205 430.92 
L 128.596935 430.92 
L 128.746135 430.92 
L 128.838016 430.92 
L 128.893561 430.92 
L 128.926347 430.92 
L 128.944936 430.92 
L 128.954962 430.92 
L 128.965033 430.853567 
L 128.983622 430.808153 
L 129.016408 430.756655 
L 129.071954 430.693406 
L 129.163834 430.614401 
L 129.313035 430.518894 
L 129.551764 430.396214 
L 129.929313 430.234384 
L 130.520835 430.033291 
L 131.440482 429.755896 
L 132.860748 429.370201 
L 135.041878 428.803537 
L 138.375218 427.937933 
L 143.447632 426.557025 
L 151.137598 424.154455 
L 154.073824 423.168215 
L 158.416563 421.559899 
L 162.759346 419.865713 
L 167.102085 418.011626 
L 171.444868 416.088594 
L 175.787607 413.973908 
L 180.13039 411.76112 
L 184.473129 409.371892 
L 188.815868 406.908824 
L 193.158651 404.292473 
L 197.50139 401.576912 
L 201.844173 398.830359 
L 206.186912 395.783459 
L 210.529669 392.653768 
L 214.872425 389.384205 
L 219.215182 386.212997 
L 223.557943 382.718772 
L 227.900699 379.090757 
L 232.243456 375.399939 
L 236.586213 371.816925 
L 240.928969 367.47662 
L 245.271726 363.403312 
L 249.614484 359.097398 
L 253.957241 355.098921 
L 258.3 350.240422 
L 262.642757 345.505856 
L 266.985513 340.870106 
L 271.32827 335.903394 
L 275.671026 330.991644 
L 280.013783 325.820856 
L 284.35654 320.681675 
L 288.699296 315.164822 
L 293.042053 309.260645 
L 297.384827 303.733012 
L 301.727566 298.129967 
L 306.070305 292.695411 
L 310.413088 286.010177 
L 314.755827 280.453637 
L 319.09861 274.315793 
L 323.441349 267.1178 
L 327.784132 260.600234 
L 332.126871 254.981198 
L 336.46961 247.47628 
L 340.812393 241.507267 
L 345.155132 232.539737 
L 349.497915 226.764121 
L 353.840654 220.303584 
L 358.183393 213.050493 
L 362.526176 205.277005 
L 366.868915 196.945364 
L 371.211698 190.20874 
L 375.554437 181.687118 
L 379.897176 173.830428 
L 384.239959 164.56033 
L 388.582698 156.005564 
L 392.925481 148.250357 
L 397.26822 140.549137 
L 401.611003 130.469571 
L 405.953742 122.714022 
L 410.29648 112.079549 
L 414.639264 104.369274 
L 418.982003 92.787974 
L 423.324786 83.695043 
L 427.667525 78.12 
" style="fill:none;stroke:#1f77b4;stroke-linecap:square;stroke-width:1.5;"/>
   </g>
   <g id="patch_3">
    <path d="M 63 448.56 
L 63 60.48 
" style="fill:none;stroke:#000000;stroke-linecap:square;stroke-linejoin:miter;stroke-width:0.8;"/>
   </g>
   <g id="patch_4">
    <path d="M 453.6 448.56 
L 453.6 60.48 
" style="fill:none;stroke:#000000;stroke-linecap:square;stroke-linejoin:miter;stroke-width:0.8;"/>
   </g>
   <g id="patch_5">
    <path d="M 63 448.56 
L 453.6 448.56 
" style="fill:none;stroke:#000000;stroke-linecap:square;stroke-linejoin:miter;stroke-width:0.8;"/>
   </g>
   <g id="patch_6">
    <path d="M 63 60.48 
L 453.6 60.48 
" style="fill:none;stroke:#000000;stroke-linecap:square;stroke-linejoin:miter;stroke-width:0.8;"/>
   </g>
   <g id="text_18">
    <text style="font-family:DejaVu Sans;font-size:12px;font-style:normal;font-weight:normal;text-anchor:middle;" transform="rotate(-0, 258.3, 54.48)" x="258.3" y="54.48">dos</text>
   </g>
   <g id="legend_1">
    <g id="patch_7">
     <path d="M 70 83.158125 
L 142.95625 83.158125 
Q 144.95625 83.158125 144.95625 81.158125 
L 144.95625 67.48 
Q 144.95625 65.48 142.95625 65.48 
L 70 65.48 
Q 68 65.48 68 67.48 
L 68 81.158125 
Q 68 83.158125 70 83.158125 
z
" style="fill:#ffffff;opacity:0.8;stroke:#cccccc;stroke-linejoin:miter;"/>
    </g>
    <g id="PathCollection_2">
     <g>
      <use style="fill:#1f77b4;stroke:#1f77b4;" x="82" xlink:href="#m95a686ce12" y="74.453438"/>
     </g>
    </g>
    <g id="text_19">
     <text style="font-family:DejaVu Sans;font-size:10px;font-style:normal;font-weight:normal;text-anchor:start;" transform="rotate(-0, 100, 77.078438)" x="100" y="77.078438">numeric</text>
    </g>
   </g>
  </g>
 </g>
 <defs>
  <clipPath id="p787e6ba4fc">
   <rect height="388.08" width="390.6" x="63" y="60.48"/>
  </clipPath>
 </defs>
</svg>
