<?xml version="1.0" encoding="utf-8" standalone="no"?>
<!DOCTYPE svg PUBLIC "-//W3C//DTD SVG 1.1//EN"
  "http://www.w3.org/Graphics/SVG/1.1/DTD/svg11.dtd">
<!-- Created with matplotlib (https://matplotlib.org/) -->
<svg height="504pt" version="1.1" viewBox="0 0 504 504" width="504pt" xmlns="http://www.w3.org/2000/svg" xmlns:xlink="http://www.w3.org/1999/xlink">
 <defs>
  <style type="text/css">
*{stroke-linecap:butt;stroke-linejoin:round;}
  </style>
 </defs>
 <g id="figure_1">
  <g id="patch_1">
   <path d="M 0 504 
L 504 504 
L 504 0 
L 0 0 
z
" style="fill:#ffffff;"/>
  </g>
  <g id="axes_1">
   <g id="patch_2">
    <path d="M 63 448.56 
L 453.6 448.56 
L 453.6 60.48 
L 63 60.48 
z
" style="fill:#ffffff;"/>
   </g>
   <g id="PathCollection_1">
    <defs>
     <path d="M 0 1 
C 0.265203 1 0.51958 0.894634 0.707107 0.707107 
C 0.894634 0.51958 1 0.265203 1 0 
C 1 -0.265203 0.894634 -0.51958 0.707107 -0.707107 
C 0.51958 -0.894634 0.265203 -1 0 -1 
C -0.265203 -1 -0.51958 -0.894634 -0.707107 -0.707107 
C -0.894634 -0.51958 -1 -0.265203 -1 0 
C -1 0.265203 -0.894634 0.51958 -0.707107 0.707107 
C -0.51958 0.894634 -0.265203 1 0 1 
z
" id="md111d49641" style="stroke:#1f77b4;"/>
    </defs>
    <g clip-path="url(#p483faeea2a)">
     <use style="fill:#1f77b4;stroke:#1f77b4;" x="86.11231" xlink:href="#md111d49641" y="78.12"/>
     <use style="fill:#1f77b4;stroke:#1f77b4;" x="90.527358" xlink:href="#md111d49641" y="86.987733"/>
     <use style="fill:#1f77b4;stroke:#1f77b4;" x="94.942434" xlink:href="#md111d49641" y="95.485955"/>
     <use style="fill:#1f77b4;stroke:#1f77b4;" x="99.357511" xlink:href="#md111d49641" y="104.083739"/>
     <use style="fill:#1f77b4;stroke:#1f77b4;" x="103.772588" xlink:href="#md111d49641" y="112.591036"/>
     <use style="fill:#1f77b4;stroke:#1f77b4;" x="108.187636" xlink:href="#md111d49641" y="120.619683"/>
     <use style="fill:#1f77b4;stroke:#1f77b4;" x="112.602712" xlink:href="#md111d49641" y="128.372333"/>
     <use style="fill:#1f77b4;stroke:#1f77b4;" x="117.017789" xlink:href="#md111d49641" y="136.094988"/>
     <use style="fill:#1f77b4;stroke:#1f77b4;" x="121.432866" xlink:href="#md111d49641" y="143.75211"/>
     <use style="fill:#1f77b4;stroke:#1f77b4;" x="125.847914" xlink:href="#md111d49641" y="151.159951"/>
     <use style="fill:#1f77b4;stroke:#1f77b4;" x="130.262991" xlink:href="#md111d49641" y="158.337163"/>
     <use style="fill:#1f77b4;stroke:#1f77b4;" x="134.678067" xlink:href="#md111d49641" y="165.29887"/>
     <use style="fill:#1f77b4;stroke:#1f77b4;" x="139.093144" xlink:href="#md111d49641" y="172.456674"/>
     <use style="fill:#1f77b4;stroke:#1f77b4;" x="143.508192" xlink:href="#md111d49641" y="179.175175"/>
     <use style="fill:#1f77b4;stroke:#1f77b4;" x="147.923269" xlink:href="#md111d49641" y="185.752652"/>
     <use style="fill:#1f77b4;stroke:#1f77b4;" x="152.338346" xlink:href="#md111d49641" y="192.394604"/>
     <use style="fill:#1f77b4;stroke:#1f77b4;" x="156.753393" xlink:href="#md111d49641" y="198.669391"/>
     <use style="fill:#1f77b4;stroke:#1f77b4;" x="161.16847" xlink:href="#md111d49641" y="204.944127"/>
     <use style="fill:#1f77b4;stroke:#1f77b4;" x="165.583547" xlink:href="#md111d49641" y="210.842145"/>
     <use style="fill:#1f77b4;stroke:#1f77b4;" x="169.998624" xlink:href="#md111d49641" y="217.033729"/>
     <use style="fill:#1f77b4;stroke:#1f77b4;" x="174.413671" xlink:href="#md111d49641" y="222.607455"/>
     <use style="fill:#1f77b4;stroke:#1f77b4;" x="178.828748" xlink:href="#md111d49641" y="228.289211"/>
     <use style="fill:#1f77b4;stroke:#1f77b4;" x="183.243825" xlink:href="#md111d49641" y="233.934772"/>
     <use style="fill:#1f77b4;stroke:#1f77b4;" x="187.658902" xlink:href="#md111d49641" y="239.537837"/>
     <use style="fill:#1f77b4;stroke:#1f77b4;" x="192.07395" xlink:href="#md111d49641" y="245.01112"/>
     <use style="fill:#1f77b4;stroke:#1f77b4;" x="196.489026" xlink:href="#md111d49641" y="250.329163"/>
     <use style="fill:#1f77b4;stroke:#1f77b4;" x="200.904103" xlink:href="#md111d49641" y="255.651189"/>
     <use style="fill:#1f77b4;stroke:#1f77b4;" x="205.31918" xlink:href="#md111d49641" y="260.840433"/>
     <use style="fill:#1f77b4;stroke:#1f77b4;" x="209.734228" xlink:href="#md111d49641" y="265.956733"/>
     <use style="fill:#1f77b4;stroke:#1f77b4;" x="214.149305" xlink:href="#md111d49641" y="270.939319"/>
     <use style="fill:#1f77b4;stroke:#1f77b4;" x="218.564381" xlink:href="#md111d49641" y="275.857178"/>
     <use style="fill:#1f77b4;stroke:#1f77b4;" x="222.979429" xlink:href="#md111d49641" y="280.768156"/>
     <use style="fill:#1f77b4;stroke:#1f77b4;" x="227.394506" xlink:href="#md111d49641" y="285.55046"/>
     <use style="fill:#1f77b4;stroke:#1f77b4;" x="231.809583" xlink:href="#md111d49641" y="290.30708"/>
     <use style="fill:#1f77b4;stroke:#1f77b4;" x="236.22466" xlink:href="#md111d49641" y="294.907176"/>
     <use style="fill:#1f77b4;stroke:#1f77b4;" x="240.639707" xlink:href="#md111d49641" y="299.499785"/>
     <use style="fill:#1f77b4;stroke:#1f77b4;" x="245.054784" xlink:href="#md111d49641" y="304.01209"/>
     <use style="fill:#1f77b4;stroke:#1f77b4;" x="249.469861" xlink:href="#md111d49641" y="308.566967"/>
     <use style="fill:#1f77b4;stroke:#1f77b4;" x="253.884938" xlink:href="#md111d49641" y="313.029063"/>
     <use style="fill:#1f77b4;stroke:#1f77b4;" x="258.299985" xlink:href="#md111d49641" y="317.434246"/>
     <use style="fill:#1f77b4;stroke:#1f77b4;" x="262.715062" xlink:href="#md111d49641" y="321.852989"/>
     <use style="fill:#1f77b4;stroke:#1f77b4;" x="267.130139" xlink:href="#md111d49641" y="326.181548"/>
     <use style="fill:#1f77b4;stroke:#1f77b4;" x="271.545216" xlink:href="#md111d49641" y="330.499671"/>
     <use style="fill:#1f77b4;stroke:#1f77b4;" x="275.960264" xlink:href="#md111d49641" y="334.760805"/>
     <use style="fill:#1f77b4;stroke:#1f77b4;" x="280.37534" xlink:href="#md111d49641" y="338.986123"/>
     <use style="fill:#1f77b4;stroke:#1f77b4;" x="284.790417" xlink:href="#md111d49641" y="343.311606"/>
     <use style="fill:#1f77b4;stroke:#1f77b4;" x="289.20548" xlink:href="#md111d49641" y="347.526086"/>
     <use style="fill:#1f77b4;stroke:#1f77b4;" x="293.620548" xlink:href="#md111d49641" y="351.907248"/>
     <use style="fill:#1f77b4;stroke:#1f77b4;" x="298.035619" xlink:href="#md111d49641" y="356.107713"/>
     <use style="fill:#1f77b4;stroke:#1f77b4;" x="302.450687" xlink:href="#md111d49641" y="360.239292"/>
     <use style="fill:#1f77b4;stroke:#1f77b4;" x="306.865755" xlink:href="#md111d49641" y="364.624764"/>
     <use style="fill:#1f77b4;stroke:#1f77b4;" x="311.280826" xlink:href="#md111d49641" y="369.092935"/>
     <use style="fill:#1f77b4;stroke:#1f77b4;" x="315.695894" xlink:href="#md111d49641" y="373.548377"/>
     <use style="fill:#1f77b4;stroke:#1f77b4;" x="320.110962" xlink:href="#md111d49641" y="378.286622"/>
     <use style="fill:#1f77b4;stroke:#1f77b4;" x="324.526033" xlink:href="#md111d49641" y="383.131764"/>
     <use style="fill:#1f77b4;stroke:#1f77b4;" x="328.941101" xlink:href="#md111d49641" y="388.214415"/>
     <use style="fill:#1f77b4;stroke:#1f77b4;" x="333.356169" xlink:href="#md111d49641" y="393.719885"/>
     <use style="fill:#1f77b4;stroke:#1f77b4;" x="334.653786" xlink:href="#md111d49641" y="395.374891"/>
     <use style="fill:#1f77b4;stroke:#1f77b4;" x="339.691869" xlink:href="#md111d49641" y="402.650857"/>
     <use style="fill:#1f77b4;stroke:#1f77b4;" x="343.015066" xlink:href="#md111d49641" y="408.360117"/>
     <use style="fill:#1f77b4;stroke:#1f77b4;" x="345.19889" xlink:href="#md111d49641" y="412.921744"/>
     <use style="fill:#1f77b4;stroke:#1f77b4;" x="346.627855" xlink:href="#md111d49641" y="416.563579"/>
     <use style="fill:#1f77b4;stroke:#1f77b4;" x="347.558341" xlink:href="#md111d49641" y="419.507675"/>
     <use style="fill:#1f77b4;stroke:#1f77b4;" x="348.160847" xlink:href="#md111d49641" y="421.8865"/>
     <use style="fill:#1f77b4;stroke:#1f77b4;" x="348.548412" xlink:href="#md111d49641" y="423.781871"/>
     <use style="fill:#1f77b4;stroke:#1f77b4;" x="348.795762" xlink:href="#md111d49641" y="425.334004"/>
     <use style="fill:#1f77b4;stroke:#1f77b4;" x="348.952137" xlink:href="#md111d49641" y="426.593586"/>
     <use style="fill:#1f77b4;stroke:#1f77b4;" x="349.049885" xlink:href="#md111d49641" y="427.61917"/>
     <use style="fill:#1f77b4;stroke:#1f77b4;" x="349.110081" xlink:href="#md111d49641" y="428.454104"/>
     <use style="fill:#1f77b4;stroke:#1f77b4;" x="349.1465" xlink:href="#md111d49641" y="429.133447"/>
     <use style="fill:#1f77b4;stroke:#1f77b4;" x="349.167951" xlink:href="#md111d49641" y="429.701628"/>
     <use style="fill:#1f77b4;stroke:#1f77b4;" x="349.180158" xlink:href="#md111d49641" y="430.19815"/>
     <use style="fill:#1f77b4;stroke:#1f77b4;" x="349.186727" xlink:href="#md111d49641" y="430.92"/>
     <use style="fill:#1f77b4;stroke:#1f77b4;" x="349.193296" xlink:href="#md111d49641" y="430.92"/>
     <use style="fill:#1f77b4;stroke:#1f77b4;" x="349.205504" xlink:href="#md111d49641" y="430.92"/>
     <use style="fill:#1f77b4;stroke:#1f77b4;" x="349.226955" xlink:href="#md111d49641" y="430.92"/>
     <use style="fill:#1f77b4;stroke:#1f77b4;" x="349.263345" xlink:href="#md111d49641" y="430.92"/>
     <use style="fill:#1f77b4;stroke:#1f77b4;" x="349.32357" xlink:href="#md111d49641" y="430.92"/>
     <use style="fill:#1f77b4;stroke:#1f77b4;" x="349.421289" xlink:href="#md111d49641" y="430.92"/>
     <use style="fill:#1f77b4;stroke:#1f77b4;" x="349.577692" xlink:href="#md111d49641" y="430.92"/>
     <use style="fill:#1f77b4;stroke:#1f77b4;" x="349.825043" xlink:href="#md111d49641" y="430.92"/>
     <use style="fill:#1f77b4;stroke:#1f77b4;" x="350.212578" xlink:href="#md111d49641" y="430.92"/>
     <use style="fill:#1f77b4;stroke:#1f77b4;" x="350.815085" xlink:href="#md111d49641" y="430.92"/>
     <use style="fill:#1f77b4;stroke:#1f77b4;" x="351.74557" xlink:href="#md111d49641" y="430.92"/>
     <use style="fill:#1f77b4;stroke:#1f77b4;" x="353.174565" xlink:href="#md111d49641" y="430.92"/>
     <use style="fill:#1f77b4;stroke:#1f77b4;" x="355.358371" xlink:href="#md111d49641" y="430.92"/>
     <use style="fill:#1f77b4;stroke:#1f77b4;" x="358.681559" xlink:href="#md111d49641" y="430.92"/>
     <use style="fill:#1f77b4;stroke:#1f77b4;" x="363.719663" xlink:href="#md111d49641" y="430.92"/>
     <use style="fill:#1f77b4;stroke:#1f77b4;" x="364.261654" xlink:href="#md111d49641" y="430.92"/>
     <use style="fill:#1f77b4;stroke:#1f77b4;" x="368.676731" xlink:href="#md111d49641" y="430.92"/>
     <use style="fill:#1f77b4;stroke:#1f77b4;" x="373.091779" xlink:href="#md111d49641" y="430.92"/>
     <use style="fill:#1f77b4;stroke:#1f77b4;" x="377.506856" xlink:href="#md111d49641" y="430.92"/>
     <use style="fill:#1f77b4;stroke:#1f77b4;" x="381.921933" xlink:href="#md111d49641" y="430.92"/>
     <use style="fill:#1f77b4;stroke:#1f77b4;" x="386.337009" xlink:href="#md111d49641" y="430.92"/>
     <use style="fill:#1f77b4;stroke:#1f77b4;" x="390.752057" xlink:href="#md111d49641" y="430.92"/>
     <use style="fill:#1f77b4;stroke:#1f77b4;" x="395.167134" xlink:href="#md111d49641" y="430.92"/>
     <use style="fill:#1f77b4;stroke:#1f77b4;" x="399.582211" xlink:href="#md111d49641" y="430.92"/>
     <use style="fill:#1f77b4;stroke:#1f77b4;" x="403.997288" xlink:href="#md111d49641" y="430.92"/>
     <use style="fill:#1f77b4;stroke:#1f77b4;" x="408.412335" xlink:href="#md111d49641" y="430.92"/>
     <use style="fill:#1f77b4;stroke:#1f77b4;" x="412.827412" xlink:href="#md111d49641" y="430.92"/>
     <use style="fill:#1f77b4;stroke:#1f77b4;" x="417.242489" xlink:href="#md111d49641" y="430.92"/>
     <use style="fill:#1f77b4;stroke:#1f77b4;" x="421.657566" xlink:href="#md111d49641" y="430.92"/>
     <use style="fill:#1f77b4;stroke:#1f77b4;" x="426.072613" xlink:href="#md111d49641" y="430.92"/>
     <use style="fill:#1f77b4;stroke:#1f77b4;" x="430.48769" xlink:href="#md111d49641" y="430.92"/>
    </g>
   </g>
   <g id="matplotlib.axis_1">
    <g id="xtick_1">
     <g id="line2d_1">
      <defs>
       <path d="M 0 0 
L 0 3.5 
" id="m3188c7729e" style="stroke:#000000;stroke-width:0.8;"/>
      </defs>
      <g>
       <use style="stroke:#000000;stroke-width:0.8;" x="81.697233" xlink:href="#m3188c7729e" y="448.56"/>
      </g>
     </g>
     <g id="text_1">
      <text style="font-family:DejaVu Sans;font-size:10px;font-style:normal;font-weight:normal;text-anchor:middle;" transform="rotate(-0, 81.697233, 463.158437)" x="81.697233" y="463.158437">−0.08</text>
     </g>
    </g>
    <g id="xtick_2">
     <g id="line2d_2">
      <g>
       <use style="stroke:#000000;stroke-width:0.8;" x="139.828976" xlink:href="#m3188c7729e" y="448.56"/>
      </g>
     </g>
     <g id="text_2">
      <text style="font-family:DejaVu Sans;font-size:10px;font-style:normal;font-weight:normal;text-anchor:middle;" transform="rotate(-0, 139.828976, 463.158437)" x="139.828976" y="463.158437">−0.06</text>
     </g>
    </g>
    <g id="xtick_3">
     <g id="line2d_3">
      <g>
       <use style="stroke:#000000;stroke-width:0.8;" x="197.960719" xlink:href="#m3188c7729e" y="448.56"/>
      </g>
     </g>
     <g id="text_3">
      <text style="font-family:DejaVu Sans;font-size:10px;font-style:normal;font-weight:normal;text-anchor:middle;" transform="rotate(-0, 197.960719, 463.158437)" x="197.960719" y="463.158437">−0.04</text>
     </g>
    </g>
    <g id="xtick_4">
     <g id="line2d_4">
      <g>
       <use style="stroke:#000000;stroke-width:0.8;" x="256.092462" xlink:href="#m3188c7729e" y="448.56"/>
      </g>
     </g>
     <g id="text_4">
      <text style="font-family:DejaVu Sans;font-size:10px;font-style:normal;font-weight:normal;text-anchor:middle;" transform="rotate(-0, 256.092462, 463.158437)" x="256.092462" y="463.158437">−0.02</text>
     </g>
    </g>
    <g id="xtick_5">
     <g id="line2d_5">
      <g>
       <use style="stroke:#000000;stroke-width:0.8;" x="314.224204" xlink:href="#m3188c7729e" y="448.56"/>
      </g>
     </g>
     <g id="text_5">
      <text style="font-family:DejaVu Sans;font-size:10px;font-style:normal;font-weight:normal;text-anchor:middle;" transform="rotate(-0, 314.224204, 463.158437)" x="314.224204" y="463.158437">0.00</text>
     </g>
    </g>
    <g id="xtick_6">
     <g id="line2d_6">
      <g>
       <use style="stroke:#000000;stroke-width:0.8;" x="372.355947" xlink:href="#m3188c7729e" y="448.56"/>
      </g>
     </g>
     <g id="text_6">
      <text style="font-family:DejaVu Sans;font-size:10px;font-style:normal;font-weight:normal;text-anchor:middle;" transform="rotate(-0, 372.355947, 463.158437)" x="372.355947" y="463.158437">0.02</text>
     </g>
    </g>
    <g id="xtick_7">
     <g id="line2d_7">
      <g>
       <use style="stroke:#000000;stroke-width:0.8;" x="430.48769" xlink:href="#m3188c7729e" y="448.56"/>
      </g>
     </g>
     <g id="text_7">
      <text style="font-family:DejaVu Sans;font-size:10px;font-style:normal;font-weight:normal;text-anchor:middle;" transform="rotate(-0, 430.48769, 463.158437)" x="430.48769" y="463.158437">0.04</text>
     </g>
    </g>
    <g id="text_8">
     <text style="font-family:DejaVu Sans;font-size:10px;font-style:normal;font-weight:normal;text-anchor:middle;" transform="rotate(-0, 258.3, 476.836563)" x="258.3" y="476.836563">mu [eV]</text>
    </g>
   </g>
   <g id="matplotlib.axis_2">
    <g id="ytick_1">
     <g id="line2d_8">
      <defs>
       <path d="M 0 0 
L -3.5 0 
" id="mc63c8eef79" style="stroke:#000000;stroke-width:0.8;"/>
      </defs>
      <g>
       <use style="stroke:#000000;stroke-width:0.8;" x="63" xlink:href="#mc63c8eef79" y="430.92"/>
      </g>
     </g>
     <g id="text_9">
      <!-- $\mathdefault{0.0}$ -->
      <g transform="translate(40 434.719219)">
       <text>
        <tspan style="font-family:DejaVu Sans;font-size:10px;font-style:book;font-weight:book;" x="0 6.362305 9.541016" y="-0.578125">0.0</tspan>
       </text>
      </g>
     </g>
    </g>
    <g id="ytick_2">
     <g id="line2d_9">
      <g>
       <use style="stroke:#000000;stroke-width:0.8;" x="63" xlink:href="#mc63c8eef79" y="380.509378"/>
      </g>
     </g>
     <g id="text_10">
      <!-- $\mathdefault{0.2}$ -->
      <g transform="translate(40.1 384.308597)">
       <text>
        <tspan style="font-family:DejaVu Sans;font-size:10px;font-style:book;font-weight:book;" x="0 6.362305 9.541016" y="-0.578125">0.2</tspan>
       </text>
      </g>
     </g>
    </g>
    <g id="ytick_3">
     <g id="line2d_10">
      <g>
       <use style="stroke:#000000;stroke-width:0.8;" x="63" xlink:href="#mc63c8eef79" y="330.098756"/>
      </g>
     </g>
     <g id="text_11">
      <!-- $\mathdefault{0.4}$ -->
      <g transform="translate(40 333.897974)">
       <text>
        <tspan style="font-family:DejaVu Sans;font-size:10px;font-style:book;font-weight:book;" x="0 6.362305 9.541016" y="-0.578125">0.4</tspan>
       </text>
      </g>
     </g>
    </g>
    <g id="ytick_4">
     <g id="line2d_11">
      <g>
       <use style="stroke:#000000;stroke-width:0.8;" x="63" xlink:href="#mc63c8eef79" y="279.688133"/>
      </g>
     </g>
     <g id="text_12">
      <!-- $\mathdefault{0.6}$ -->
      <g transform="translate(40 283.487352)">
       <text>
        <tspan style="font-family:DejaVu Sans;font-size:10px;font-style:book;font-weight:book;" x="0 6.362305 9.541016" y="-0.578125">0.6</tspan>
       </text>
      </g>
     </g>
    </g>
    <g id="ytick_5">
     <g id="line2d_12">
      <g>
       <use style="stroke:#000000;stroke-width:0.8;" x="63" xlink:href="#mc63c8eef79" y="229.277511"/>
      </g>
     </g>
     <g id="text_13">
      <!-- $\mathdefault{0.8}$ -->
      <g transform="translate(40 233.07673)">
       <text>
        <tspan style="font-family:DejaVu Sans;font-size:10px;font-style:book;font-weight:book;" x="0 6.362305 9.541016" y="-0.578125">0.8</tspan>
       </text>
      </g>
     </g>
    </g>
    <g id="ytick_6">
     <g id="line2d_13">
      <g>
       <use style="stroke:#000000;stroke-width:0.8;" x="63" xlink:href="#mc63c8eef79" y="178.866889"/>
      </g>
     </g>
     <g id="text_14">
      <!-- $\mathdefault{1.0}$ -->
      <g transform="translate(40 182.666108)">
       <text>
        <tspan style="font-family:DejaVu Sans;font-size:10px;font-style:book;font-weight:book;" x="0 6.362305 9.541016" y="-0.578125">1.0</tspan>
       </text>
      </g>
     </g>
    </g>
    <g id="ytick_7">
     <g id="line2d_14">
      <g>
       <use style="stroke:#000000;stroke-width:0.8;" x="63" xlink:href="#mc63c8eef79" y="128.456267"/>
      </g>
     </g>
     <g id="text_15">
      <!-- $\mathdefault{1.2}$ -->
      <g transform="translate(40.1 132.255485)">
       <text>
        <tspan style="font-family:DejaVu Sans;font-size:10px;font-style:book;font-weight:book;" x="0 6.362305 9.541016" y="-0.578125">1.2</tspan>
       </text>
      </g>
     </g>
    </g>
    <g id="ytick_8">
     <g id="line2d_15">
      <g>
       <use style="stroke:#000000;stroke-width:0.8;" x="63" xlink:href="#mc63c8eef79" y="78.045644"/>
      </g>
     </g>
     <g id="text_16">
      <!-- $\mathdefault{1.4}$ -->
      <g transform="translate(40 81.844863)">
       <text>
        <tspan style="font-family:DejaVu Sans;font-size:10px;font-style:book;font-weight:book;" x="0 6.362305 9.541016" y="-0.703125">1.4</tspan>
       </text>
      </g>
     </g>
    </g>
    <g id="text_17">
     <text style="font-family:DejaVu Sans;font-size:10px;font-style:normal;font-weight:normal;text-anchor:middle;" transform="rotate(-90, 33.920312, 254.52)" x="33.920312" y="254.52">DOS [/eV m3]</text>
    </g>
    <g id="text_18">
     <!-- $\times\mathdefault{10^{26}}\mathdefault{}$ -->
     <g transform="translate(63 57.48)">
      <text>
       <tspan style="font-family:DejaVu Sans;font-size:10px;font-style:book;font-weight:book;" x="0 8.378906 14.741211" y="-0.9765625">×10</tspan>
       <tspan style="font-family:DejaVu Sans;font-size:7px;font-style:book;font-weight:book;" x="21.199219 25.652832" y="-4.8046875">26</tspan>
      </text>
     </g>
    </g>
   </g>
   <g id="line2d_16">
    <path clip-path="url(#p483faeea2a)" d="M 86.11231 78.12 
L 90.527358 86.987733 
L 94.942434 95.485955 
L 99.357511 104.083739 
L 103.772588 112.591036 
L 108.187636 120.619683 
L 112.602712 128.372333 
L 117.017789 136.094988 
L 121.432866 143.75211 
L 125.847914 151.159951 
L 130.262991 158.337163 
L 134.678067 165.29887 
L 139.093144 172.456674 
L 143.508192 179.175175 
L 147.923269 185.752652 
L 152.338346 192.394604 
L 156.753393 198.669391 
L 161.16847 204.944127 
L 165.583547 210.842145 
L 169.998624 217.033729 
L 174.413671 222.607455 
L 178.828748 228.289211 
L 183.243825 233.934772 
L 187.658902 239.537837 
L 192.07395 245.01112 
L 196.489026 250.329163 
L 200.904103 255.651189 
L 205.31918 260.840433 
L 209.734228 265.956733 
L 214.149305 270.939319 
L 218.564381 275.857178 
L 222.979429 280.768156 
L 227.394506 285.55046 
L 231.809583 290.30708 
L 236.22466 294.907176 
L 240.639707 299.499785 
L 245.054784 304.01209 
L 249.469861 308.566967 
L 253.884938 313.029063 
L 258.299985 317.434246 
L 262.715062 321.852989 
L 267.130139 326.181548 
L 271.545216 330.499671 
L 275.960264 334.760805 
L 280.37534 338.986123 
L 284.790417 343.311606 
L 289.20548 347.526086 
L 293.620548 351.907248 
L 298.035619 356.107713 
L 302.450687 360.239292 
L 306.865755 364.624764 
L 311.280826 369.092935 
L 315.695894 373.548377 
L 320.110962 378.286622 
L 324.526033 383.131764 
L 328.941101 388.214415 
L 333.356169 393.719885 
L 334.653786 395.374891 
L 339.691869 402.650857 
L 343.015066 408.360117 
L 345.19889 412.921744 
L 346.627855 416.563579 
L 347.558341 419.507675 
L 348.160847 421.8865 
L 348.548412 423.781871 
L 348.795762 425.334004 
L 348.952137 426.593586 
L 349.049885 427.61917 
L 349.110081 428.454104 
L 349.1465 429.133447 
L 349.167951 429.701628 
L 349.180158 430.19815 
L 349.186727 430.92 
L 349.193296 430.92 
L 349.205504 430.92 
L 349.226955 430.92 
L 349.263345 430.92 
L 349.32357 430.92 
L 349.421289 430.92 
L 349.577692 430.92 
L 349.825043 430.92 
L 350.212578 430.92 
L 350.815085 430.92 
L 351.74557 430.92 
L 353.174565 430.92 
L 355.358371 430.92 
L 358.681559 430.92 
L 363.719663 430.92 
L 364.261654 430.92 
L 368.676731 430.92 
L 373.091779 430.92 
L 377.506856 430.92 
L 381.921933 430.92 
L 386.337009 430.92 
L 390.752057 430.92 
L 395.167134 430.92 
L 399.582211 430.92 
L 403.997288 430.92 
L 408.412335 430.92 
L 412.827412 430.92 
L 417.242489 430.92 
L 421.657566 430.92 
L 426.072613 430.92 
L 430.48769 430.92 
" style="fill:none;stroke:#1f77b4;stroke-linecap:square;stroke-width:1.5;"/>
   </g>
   <g id="patch_3">
    <path d="M 63 448.56 
L 63 60.48 
" style="fill:none;stroke:#000000;stroke-linecap:square;stroke-linejoin:miter;stroke-width:0.8;"/>
   </g>
   <g id="patch_4">
    <path d="M 453.6 448.56 
L 453.6 60.48 
" style="fill:none;stroke:#000000;stroke-linecap:square;stroke-linejoin:miter;stroke-width:0.8;"/>
   </g>
   <g id="patch_5">
    <path d="M 63 448.56 
L 453.6 448.56 
" style="fill:none;stroke:#000000;stroke-linecap:square;stroke-linejoin:miter;stroke-width:0.8;"/>
   </g>
   <g id="patch_6">
    <path d="M 63 60.48 
L 453.6 60.48 
" style="fill:none;stroke:#000000;stroke-linecap:square;stroke-linejoin:miter;stroke-width:0.8;"/>
   </g>
   <g id="text_19">
    <text style="font-family:DejaVu Sans;font-size:12px;font-style:normal;font-weight:normal;text-anchor:middle;" transform="rotate(-0, 258.3, 54.48)" x="258.3" y="54.48">dos</text>
   </g>
   <g id="legend_1">
    <g id="patch_7">
     <path d="M 373.64375 83.158125 
L 446.6 83.158125 
Q 448.6 83.158125 448.6 81.158125 
L 448.6 67.48 
Q 448.6 65.48 446.6 65.48 
L 373.64375 65.48 
Q 371.64375 65.48 371.64375 67.48 
L 371.64375 81.158125 
Q 371.64375 83.158125 373.64375 83.158125 
z
" style="fill:#ffffff;opacity:0.8;stroke:#cccccc;stroke-linejoin:miter;"/>
    </g>
    <g id="PathCollection_2">
     <g>
      <use style="fill:#1f77b4;stroke:#1f77b4;" x="385.64375" xlink:href="#md111d49641" y="74.453438"/>
     </g>
    </g>
    <g id="text_20">
     <text style="font-family:DejaVu Sans;font-size:10px;font-style:normal;font-weight:normal;text-anchor:start;" transform="rotate(-0, 403.64375, 77.078438)" x="403.64375" y="77.078438">numeric</text>
    </g>
   </g>
  </g>
 </g>
 <defs>
  <clipPath id="p483faeea2a">
   <rect height="388.08" width="390.6" x="63" y="60.48"/>
  </clipPath>
 </defs>
</svg>
