<?xml version="1.0" encoding="utf-8" standalone="no"?>
<!DOCTYPE svg PUBLIC "-//W3C//DTD SVG 1.1//EN"
  "http://www.w3.org/Graphics/SVG/1.1/DTD/svg11.dtd">
<!-- Created with matplotlib (https://matplotlib.org/) -->
<svg height="504pt" version="1.1" viewBox="0 0 504 504" width="504pt" xmlns="http://www.w3.org/2000/svg" xmlns:xlink="http://www.w3.org/1999/xlink">
 <defs>
  <style type="text/css">
*{stroke-linecap:butt;stroke-linejoin:round;}
  </style>
 </defs>
 <g id="figure_1">
  <g id="patch_1">
   <path d="M 0 504 
L 504 504 
L 504 0 
L 0 0 
z
" style="fill:#ffffff;"/>
  </g>
  <g id="axes_1">
   <g id="patch_2">
    <path d="M 63 448.56 
L 453.6 448.56 
L 453.6 60.48 
L 63 60.48 
z
" style="fill:#ffffff;"/>
   </g>
   <g id="PathCollection_1">
    <defs>
     <path d="M 0 1 
C 0.265203 1 0.51958 0.894634 0.707107 0.707107 
C 0.894634 0.51958 1 0.265203 1 0 
C 1 -0.265203 0.894634 -0.51958 0.707107 -0.707107 
C 0.51958 -0.894634 0.265203 -1 0 -1 
C -0.265203 -1 -0.51958 -0.894634 -0.707107 -0.707107 
C -0.894634 -0.51958 -1 -0.265203 -1 0 
C -1 0.265203 -0.894634 0.51958 -0.707107 0.707107 
C -0.51958 0.894634 -0.265203 1 0 1 
z
" id="md6e3a7731c" style="stroke:#1f77b4;"/>
    </defs>
    <g clip-path="url(#pedf80dd67d)">
     <use style="fill:#1f77b4;stroke:#1f77b4;" x="86.11231" xlink:href="#md6e3a7731c" y="78.12"/>
     <use style="fill:#1f77b4;stroke:#1f77b4;" x="90.527358" xlink:href="#md6e3a7731c" y="87.054419"/>
     <use style="fill:#1f77b4;stroke:#1f77b4;" x="94.942434" xlink:href="#md6e3a7731c" y="95.667113"/>
     <use style="fill:#1f77b4;stroke:#1f77b4;" x="99.357511" xlink:href="#md6e3a7731c" y="104.10533"/>
     <use style="fill:#1f77b4;stroke:#1f77b4;" x="103.772588" xlink:href="#md6e3a7731c" y="112.381171"/>
     <use style="fill:#1f77b4;stroke:#1f77b4;" x="108.187636" xlink:href="#md6e3a7731c" y="120.586667"/>
     <use style="fill:#1f77b4;stroke:#1f77b4;" x="112.602712" xlink:href="#md6e3a7731c" y="128.480775"/>
     <use style="fill:#1f77b4;stroke:#1f77b4;" x="117.017789" xlink:href="#md6e3a7731c" y="136.172923"/>
     <use style="fill:#1f77b4;stroke:#1f77b4;" x="121.432866" xlink:href="#md6e3a7731c" y="143.886502"/>
     <use style="fill:#1f77b4;stroke:#1f77b4;" x="125.847914" xlink:href="#md6e3a7731c" y="151.096315"/>
     <use style="fill:#1f77b4;stroke:#1f77b4;" x="130.262991" xlink:href="#md6e3a7731c" y="158.052227"/>
     <use style="fill:#1f77b4;stroke:#1f77b4;" x="134.678067" xlink:href="#md6e3a7731c" y="165.144797"/>
     <use style="fill:#1f77b4;stroke:#1f77b4;" x="139.093144" xlink:href="#md6e3a7731c" y="171.942116"/>
     <use style="fill:#1f77b4;stroke:#1f77b4;" x="143.508192" xlink:href="#md6e3a7731c" y="178.772465"/>
     <use style="fill:#1f77b4;stroke:#1f77b4;" x="147.923269" xlink:href="#md6e3a7731c" y="185.315783"/>
     <use style="fill:#1f77b4;stroke:#1f77b4;" x="152.338346" xlink:href="#md6e3a7731c" y="191.954609"/>
     <use style="fill:#1f77b4;stroke:#1f77b4;" x="156.753393" xlink:href="#md6e3a7731c" y="198.314953"/>
     <use style="fill:#1f77b4;stroke:#1f77b4;" x="161.16847" xlink:href="#md6e3a7731c" y="204.434204"/>
     <use style="fill:#1f77b4;stroke:#1f77b4;" x="165.583547" xlink:href="#md6e3a7731c" y="210.581947"/>
     <use style="fill:#1f77b4;stroke:#1f77b4;" x="169.998624" xlink:href="#md6e3a7731c" y="216.543588"/>
     <use style="fill:#1f77b4;stroke:#1f77b4;" x="174.413671" xlink:href="#md6e3a7731c" y="222.426815"/>
     <use style="fill:#1f77b4;stroke:#1f77b4;" x="178.828748" xlink:href="#md6e3a7731c" y="228.162417"/>
     <use style="fill:#1f77b4;stroke:#1f77b4;" x="183.243825" xlink:href="#md6e3a7731c" y="233.913173"/>
     <use style="fill:#1f77b4;stroke:#1f77b4;" x="187.658902" xlink:href="#md6e3a7731c" y="239.391647"/>
     <use style="fill:#1f77b4;stroke:#1f77b4;" x="192.07395" xlink:href="#md6e3a7731c" y="244.795212"/>
     <use style="fill:#1f77b4;stroke:#1f77b4;" x="196.489026" xlink:href="#md6e3a7731c" y="250.154956"/>
     <use style="fill:#1f77b4;stroke:#1f77b4;" x="200.904103" xlink:href="#md6e3a7731c" y="255.430688"/>
     <use style="fill:#1f77b4;stroke:#1f77b4;" x="205.31918" xlink:href="#md6e3a7731c" y="260.585849"/>
     <use style="fill:#1f77b4;stroke:#1f77b4;" x="209.734228" xlink:href="#md6e3a7731c" y="265.674219"/>
     <use style="fill:#1f77b4;stroke:#1f77b4;" x="214.149305" xlink:href="#md6e3a7731c" y="270.681806"/>
     <use style="fill:#1f77b4;stroke:#1f77b4;" x="218.564381" xlink:href="#md6e3a7731c" y="275.787624"/>
     <use style="fill:#1f77b4;stroke:#1f77b4;" x="222.979429" xlink:href="#md6e3a7731c" y="280.659032"/>
     <use style="fill:#1f77b4;stroke:#1f77b4;" x="227.394506" xlink:href="#md6e3a7731c" y="285.367283"/>
     <use style="fill:#1f77b4;stroke:#1f77b4;" x="231.809583" xlink:href="#md6e3a7731c" y="290.191264"/>
     <use style="fill:#1f77b4;stroke:#1f77b4;" x="236.22466" xlink:href="#md6e3a7731c" y="294.918702"/>
     <use style="fill:#1f77b4;stroke:#1f77b4;" x="240.639707" xlink:href="#md6e3a7731c" y="299.469116"/>
     <use style="fill:#1f77b4;stroke:#1f77b4;" x="245.054784" xlink:href="#md6e3a7731c" y="303.903674"/>
     <use style="fill:#1f77b4;stroke:#1f77b4;" x="249.469861" xlink:href="#md6e3a7731c" y="308.605345"/>
     <use style="fill:#1f77b4;stroke:#1f77b4;" x="253.884938" xlink:href="#md6e3a7731c" y="312.846666"/>
     <use style="fill:#1f77b4;stroke:#1f77b4;" x="258.299985" xlink:href="#md6e3a7731c" y="317.465661"/>
     <use style="fill:#1f77b4;stroke:#1f77b4;" x="262.715062" xlink:href="#md6e3a7731c" y="321.745307"/>
     <use style="fill:#1f77b4;stroke:#1f77b4;" x="267.130139" xlink:href="#md6e3a7731c" y="326.1131"/>
     <use style="fill:#1f77b4;stroke:#1f77b4;" x="271.545216" xlink:href="#md6e3a7731c" y="330.407647"/>
     <use style="fill:#1f77b4;stroke:#1f77b4;" x="275.960264" xlink:href="#md6e3a7731c" y="334.590826"/>
     <use style="fill:#1f77b4;stroke:#1f77b4;" x="280.37534" xlink:href="#md6e3a7731c" y="338.9771"/>
     <use style="fill:#1f77b4;stroke:#1f77b4;" x="284.790417" xlink:href="#md6e3a7731c" y="343.134964"/>
     <use style="fill:#1f77b4;stroke:#1f77b4;" x="289.20548" xlink:href="#md6e3a7731c" y="347.350089"/>
     <use style="fill:#1f77b4;stroke:#1f77b4;" x="293.620548" xlink:href="#md6e3a7731c" y="351.611934"/>
     <use style="fill:#1f77b4;stroke:#1f77b4;" x="298.035619" xlink:href="#md6e3a7731c" y="355.940671"/>
     <use style="fill:#1f77b4;stroke:#1f77b4;" x="302.450687" xlink:href="#md6e3a7731c" y="360.186682"/>
     <use style="fill:#1f77b4;stroke:#1f77b4;" x="306.865755" xlink:href="#md6e3a7731c" y="364.584807"/>
     <use style="fill:#1f77b4;stroke:#1f77b4;" x="311.280826" xlink:href="#md6e3a7731c" y="369.004312"/>
     <use style="fill:#1f77b4;stroke:#1f77b4;" x="315.695894" xlink:href="#md6e3a7731c" y="373.551247"/>
     <use style="fill:#1f77b4;stroke:#1f77b4;" x="320.110962" xlink:href="#md6e3a7731c" y="378.247143"/>
     <use style="fill:#1f77b4;stroke:#1f77b4;" x="324.526033" xlink:href="#md6e3a7731c" y="383.076217"/>
     <use style="fill:#1f77b4;stroke:#1f77b4;" x="328.941101" xlink:href="#md6e3a7731c" y="388.157478"/>
     <use style="fill:#1f77b4;stroke:#1f77b4;" x="333.356169" xlink:href="#md6e3a7731c" y="393.640768"/>
     <use style="fill:#1f77b4;stroke:#1f77b4;" x="337.77124" xlink:href="#md6e3a7731c" y="399.707575"/>
     <use style="fill:#1f77b4;stroke:#1f77b4;" x="342.186308" xlink:href="#md6e3a7731c" y="406.809887"/>
     <use style="fill:#1f77b4;stroke:#1f77b4;" x="346.28014" xlink:href="#md6e3a7731c" y="415.585516"/>
     <use style="fill:#1f77b4;stroke:#1f77b4;" x="347.287738" xlink:href="#md6e3a7731c" y="418.56522"/>
     <use style="fill:#1f77b4;stroke:#1f77b4;" x="347.952387" xlink:href="#md6e3a7731c" y="420.982869"/>
     <use style="fill:#1f77b4;stroke:#1f77b4;" x="348.38916" xlink:href="#md6e3a7731c" y="422.942258"/>
     <use style="fill:#1f77b4;stroke:#1f77b4;" x="348.674936" xlink:href="#md6e3a7731c" y="424.528458"/>
     <use style="fill:#1f77b4;stroke:#1f77b4;" x="348.861044" xlink:href="#md6e3a7731c" y="425.832618"/>
     <use style="fill:#1f77b4;stroke:#1f77b4;" x="348.981551" xlink:href="#md6e3a7731c" y="426.881479"/>
     <use style="fill:#1f77b4;stroke:#1f77b4;" x="349.05907" xlink:href="#md6e3a7731c" y="427.736808"/>
     <use style="fill:#1f77b4;stroke:#1f77b4;" x="349.10854" xlink:href="#md6e3a7731c" y="428.426027"/>
     <use style="fill:#1f77b4;stroke:#1f77b4;" x="349.139815" xlink:href="#md6e3a7731c" y="428.989045"/>
     <use style="fill:#1f77b4;stroke:#1f77b4;" x="349.159347" xlink:href="#md6e3a7731c" y="429.443587"/>
     <use style="fill:#1f77b4;stroke:#1f77b4;" x="349.171381" xlink:href="#md6e3a7731c" y="429.81493"/>
     <use style="fill:#1f77b4;stroke:#1f77b4;" x="349.178676" xlink:href="#md6e3a7731c" y="430.119323"/>
     <use style="fill:#1f77b4;stroke:#1f77b4;" x="349.182978" xlink:href="#md6e3a7731c" y="430.373619"/>
     <use style="fill:#1f77b4;stroke:#1f77b4;" x="349.185419" xlink:href="#md6e3a7731c" y="430.597058"/>
     <use style="fill:#1f77b4;stroke:#1f77b4;" x="349.186727" xlink:href="#md6e3a7731c" y="430.92"/>
     <use style="fill:#1f77b4;stroke:#1f77b4;" x="349.188035" xlink:href="#md6e3a7731c" y="430.92"/>
     <use style="fill:#1f77b4;stroke:#1f77b4;" x="349.190477" xlink:href="#md6e3a7731c" y="430.92"/>
     <use style="fill:#1f77b4;stroke:#1f77b4;" x="349.194779" xlink:href="#md6e3a7731c" y="430.92"/>
     <use style="fill:#1f77b4;stroke:#1f77b4;" x="349.202045" xlink:href="#md6e3a7731c" y="430.92"/>
     <use style="fill:#1f77b4;stroke:#1f77b4;" x="349.214078" xlink:href="#md6e3a7731c" y="430.92"/>
     <use style="fill:#1f77b4;stroke:#1f77b4;" x="349.23364" xlink:href="#md6e3a7731c" y="430.92"/>
     <use style="fill:#1f77b4;stroke:#1f77b4;" x="349.264915" xlink:href="#md6e3a7731c" y="430.92"/>
     <use style="fill:#1f77b4;stroke:#1f77b4;" x="349.314385" xlink:href="#md6e3a7731c" y="430.92"/>
     <use style="fill:#1f77b4;stroke:#1f77b4;" x="349.391903" xlink:href="#md6e3a7731c" y="430.92"/>
     <use style="fill:#1f77b4;stroke:#1f77b4;" x="349.512381" xlink:href="#md6e3a7731c" y="430.92"/>
     <use style="fill:#1f77b4;stroke:#1f77b4;" x="349.69849" xlink:href="#md6e3a7731c" y="430.92"/>
     <use style="fill:#1f77b4;stroke:#1f77b4;" x="349.984295" xlink:href="#md6e3a7731c" y="430.92"/>
     <use style="fill:#1f77b4;stroke:#1f77b4;" x="350.421039" xlink:href="#md6e3a7731c" y="430.92"/>
     <use style="fill:#1f77b4;stroke:#1f77b4;" x="351.085688" xlink:href="#md6e3a7731c" y="430.92"/>
     <use style="fill:#1f77b4;stroke:#1f77b4;" x="352.093315" xlink:href="#md6e3a7731c" y="430.92"/>
     <use style="fill:#1f77b4;stroke:#1f77b4;" x="355.43153" xlink:href="#md6e3a7731c" y="430.92"/>
     <use style="fill:#1f77b4;stroke:#1f77b4;" x="359.846578" xlink:href="#md6e3a7731c" y="430.92"/>
     <use style="fill:#1f77b4;stroke:#1f77b4;" x="364.261654" xlink:href="#md6e3a7731c" y="430.92"/>
     <use style="fill:#1f77b4;stroke:#1f77b4;" x="368.676731" xlink:href="#md6e3a7731c" y="430.92"/>
     <use style="fill:#1f77b4;stroke:#1f77b4;" x="373.091779" xlink:href="#md6e3a7731c" y="430.92"/>
     <use style="fill:#1f77b4;stroke:#1f77b4;" x="377.506856" xlink:href="#md6e3a7731c" y="430.92"/>
     <use style="fill:#1f77b4;stroke:#1f77b4;" x="381.921933" xlink:href="#md6e3a7731c" y="430.92"/>
     <use style="fill:#1f77b4;stroke:#1f77b4;" x="386.337009" xlink:href="#md6e3a7731c" y="430.92"/>
     <use style="fill:#1f77b4;stroke:#1f77b4;" x="390.752057" xlink:href="#md6e3a7731c" y="430.92"/>
     <use style="fill:#1f77b4;stroke:#1f77b4;" x="395.167134" xlink:href="#md6e3a7731c" y="430.92"/>
     <use style="fill:#1f77b4;stroke:#1f77b4;" x="399.582211" xlink:href="#md6e3a7731c" y="430.92"/>
     <use style="fill:#1f77b4;stroke:#1f77b4;" x="403.997288" xlink:href="#md6e3a7731c" y="430.92"/>
     <use style="fill:#1f77b4;stroke:#1f77b4;" x="408.412335" xlink:href="#md6e3a7731c" y="430.92"/>
     <use style="fill:#1f77b4;stroke:#1f77b4;" x="412.827412" xlink:href="#md6e3a7731c" y="430.92"/>
     <use style="fill:#1f77b4;stroke:#1f77b4;" x="417.242489" xlink:href="#md6e3a7731c" y="430.92"/>
     <use style="fill:#1f77b4;stroke:#1f77b4;" x="421.657566" xlink:href="#md6e3a7731c" y="430.92"/>
     <use style="fill:#1f77b4;stroke:#1f77b4;" x="426.072613" xlink:href="#md6e3a7731c" y="430.92"/>
     <use style="fill:#1f77b4;stroke:#1f77b4;" x="430.48769" xlink:href="#md6e3a7731c" y="430.92"/>
    </g>
   </g>
   <g id="matplotlib.axis_1">
    <g id="xtick_1">
     <g id="line2d_1">
      <defs>
       <path d="M 0 0 
L 0 3.5 
" id="mf02be9c63f" style="stroke:#000000;stroke-width:0.8;"/>
      </defs>
      <g>
       <use style="stroke:#000000;stroke-width:0.8;" x="81.697233" xlink:href="#mf02be9c63f" y="448.56"/>
      </g>
     </g>
     <g id="text_1">
      <text style="font-family:DejaVu Sans;font-size:10px;font-style:normal;font-weight:normal;text-anchor:middle;" transform="rotate(-0, 81.697233, 463.158437)" x="81.697233" y="463.158437">−0.08</text>
     </g>
    </g>
    <g id="xtick_2">
     <g id="line2d_2">
      <g>
       <use style="stroke:#000000;stroke-width:0.8;" x="139.828976" xlink:href="#mf02be9c63f" y="448.56"/>
      </g>
     </g>
     <g id="text_2">
      <text style="font-family:DejaVu Sans;font-size:10px;font-style:normal;font-weight:normal;text-anchor:middle;" transform="rotate(-0, 139.828976, 463.158437)" x="139.828976" y="463.158437">−0.06</text>
     </g>
    </g>
    <g id="xtick_3">
     <g id="line2d_3">
      <g>
       <use style="stroke:#000000;stroke-width:0.8;" x="197.960719" xlink:href="#mf02be9c63f" y="448.56"/>
      </g>
     </g>
     <g id="text_3">
      <text style="font-family:DejaVu Sans;font-size:10px;font-style:normal;font-weight:normal;text-anchor:middle;" transform="rotate(-0, 197.960719, 463.158437)" x="197.960719" y="463.158437">−0.04</text>
     </g>
    </g>
    <g id="xtick_4">
     <g id="line2d_4">
      <g>
       <use style="stroke:#000000;stroke-width:0.8;" x="256.092462" xlink:href="#mf02be9c63f" y="448.56"/>
      </g>
     </g>
     <g id="text_4">
      <text style="font-family:DejaVu Sans;font-size:10px;font-style:normal;font-weight:normal;text-anchor:middle;" transform="rotate(-0, 256.092462, 463.158437)" x="256.092462" y="463.158437">−0.02</text>
     </g>
    </g>
    <g id="xtick_5">
     <g id="line2d_5">
      <g>
       <use style="stroke:#000000;stroke-width:0.8;" x="314.224204" xlink:href="#mf02be9c63f" y="448.56"/>
      </g>
     </g>
     <g id="text_5">
      <text style="font-family:DejaVu Sans;font-size:10px;font-style:normal;font-weight:normal;text-anchor:middle;" transform="rotate(-0, 314.224204, 463.158437)" x="314.224204" y="463.158437">0.00</text>
     </g>
    </g>
    <g id="xtick_6">
     <g id="line2d_6">
      <g>
       <use style="stroke:#000000;stroke-width:0.8;" x="372.355947" xlink:href="#mf02be9c63f" y="448.56"/>
      </g>
     </g>
     <g id="text_6">
      <text style="font-family:DejaVu Sans;font-size:10px;font-style:normal;font-weight:normal;text-anchor:middle;" transform="rotate(-0, 372.355947, 463.158437)" x="372.355947" y="463.158437">0.02</text>
     </g>
    </g>
    <g id="xtick_7">
     <g id="line2d_7">
      <g>
       <use style="stroke:#000000;stroke-width:0.8;" x="430.48769" xlink:href="#mf02be9c63f" y="448.56"/>
      </g>
     </g>
     <g id="text_7">
      <text style="font-family:DejaVu Sans;font-size:10px;font-style:normal;font-weight:normal;text-anchor:middle;" transform="rotate(-0, 430.48769, 463.158437)" x="430.48769" y="463.158437">0.04</text>
     </g>
    </g>
    <g id="text_8">
     <text style="font-family:DejaVu Sans;font-size:10px;font-style:normal;font-weight:normal;text-anchor:middle;" transform="rotate(-0, 258.3, 476.836563)" x="258.3" y="476.836563">mu [eV]</text>
    </g>
   </g>
   <g id="matplotlib.axis_2">
    <g id="ytick_1">
     <g id="line2d_8">
      <defs>
       <path d="M 0 0 
L -3.5 0 
" id="ma3cd30244c" style="stroke:#000000;stroke-width:0.8;"/>
      </defs>
      <g>
       <use style="stroke:#000000;stroke-width:0.8;" x="63" xlink:href="#ma3cd30244c" y="430.92"/>
      </g>
     </g>
     <g id="text_9">
      <!-- $\mathdefault{0.0}$ -->
      <g transform="translate(40 434.719219)">
       <text>
        <tspan style="font-family:DejaVu Sans;font-size:10px;font-style:book;font-weight:book;" x="0 6.362305 9.541016" y="-0.578125">0.0</tspan>
       </text>
      </g>
     </g>
    </g>
    <g id="ytick_2">
     <g id="line2d_9">
      <g>
       <use style="stroke:#000000;stroke-width:0.8;" x="63" xlink:href="#ma3cd30244c" y="380.492913"/>
      </g>
     </g>
     <g id="text_10">
      <!-- $\mathdefault{0.2}$ -->
      <g transform="translate(40.1 384.292132)">
       <text>
        <tspan style="font-family:DejaVu Sans;font-size:10px;font-style:book;font-weight:book;" x="0 6.362305 9.541016" y="-0.578125">0.2</tspan>
       </text>
      </g>
     </g>
    </g>
    <g id="ytick_3">
     <g id="line2d_10">
      <g>
       <use style="stroke:#000000;stroke-width:0.8;" x="63" xlink:href="#ma3cd30244c" y="330.065827"/>
      </g>
     </g>
     <g id="text_11">
      <!-- $\mathdefault{0.4}$ -->
      <g transform="translate(40 333.865046)">
       <text>
        <tspan style="font-family:DejaVu Sans;font-size:10px;font-style:book;font-weight:book;" x="0 6.362305 9.541016" y="-0.578125">0.4</tspan>
       </text>
      </g>
     </g>
    </g>
    <g id="ytick_4">
     <g id="line2d_11">
      <g>
       <use style="stroke:#000000;stroke-width:0.8;" x="63" xlink:href="#ma3cd30244c" y="279.63874"/>
      </g>
     </g>
     <g id="text_12">
      <!-- $\mathdefault{0.6}$ -->
      <g transform="translate(40 283.437959)">
       <text>
        <tspan style="font-family:DejaVu Sans;font-size:10px;font-style:book;font-weight:book;" x="0 6.362305 9.541016" y="-0.578125">0.6</tspan>
       </text>
      </g>
     </g>
    </g>
    <g id="ytick_5">
     <g id="line2d_12">
      <g>
       <use style="stroke:#000000;stroke-width:0.8;" x="63" xlink:href="#ma3cd30244c" y="229.211654"/>
      </g>
     </g>
     <g id="text_13">
      <!-- $\mathdefault{0.8}$ -->
      <g transform="translate(40 233.010873)">
       <text>
        <tspan style="font-family:DejaVu Sans;font-size:10px;font-style:book;font-weight:book;" x="0 6.362305 9.541016" y="-0.578125">0.8</tspan>
       </text>
      </g>
     </g>
    </g>
    <g id="ytick_6">
     <g id="line2d_13">
      <g>
       <use style="stroke:#000000;stroke-width:0.8;" x="63" xlink:href="#ma3cd30244c" y="178.784567"/>
      </g>
     </g>
     <g id="text_14">
      <!-- $\mathdefault{1.0}$ -->
      <g transform="translate(40 182.583786)">
       <text>
        <tspan style="font-family:DejaVu Sans;font-size:10px;font-style:book;font-weight:book;" x="0 6.362305 9.541016" y="-0.578125">1.0</tspan>
       </text>
      </g>
     </g>
    </g>
    <g id="ytick_7">
     <g id="line2d_14">
      <g>
       <use style="stroke:#000000;stroke-width:0.8;" x="63" xlink:href="#ma3cd30244c" y="128.357481"/>
      </g>
     </g>
     <g id="text_15">
      <!-- $\mathdefault{1.2}$ -->
      <g transform="translate(40.1 132.156699)">
       <text>
        <tspan style="font-family:DejaVu Sans;font-size:10px;font-style:book;font-weight:book;" x="0 6.362305 9.541016" y="-0.578125">1.2</tspan>
       </text>
      </g>
     </g>
    </g>
    <g id="ytick_8">
     <g id="line2d_15">
      <g>
       <use style="stroke:#000000;stroke-width:0.8;" x="63" xlink:href="#ma3cd30244c" y="77.930394"/>
      </g>
     </g>
     <g id="text_16">
      <!-- $\mathdefault{1.4}$ -->
      <g transform="translate(40 81.729613)">
       <text>
        <tspan style="font-family:DejaVu Sans;font-size:10px;font-style:book;font-weight:book;" x="0 6.362305 9.541016" y="-0.703125">1.4</tspan>
       </text>
      </g>
     </g>
    </g>
    <g id="text_17">
     <text style="font-family:DejaVu Sans;font-size:10px;font-style:normal;font-weight:normal;text-anchor:middle;" transform="rotate(-90, 33.920312, 254.52)" x="33.920312" y="254.52">DOS [/eV m3]</text>
    </g>
    <g id="text_18">
     <!-- $\times\mathdefault{10^{26}}\mathdefault{}$ -->
     <g transform="translate(63 57.48)">
      <text>
       <tspan style="font-family:DejaVu Sans;font-size:10px;font-style:book;font-weight:book;" x="0 8.378906 14.741211" y="-0.9765625">×10</tspan>
       <tspan style="font-family:DejaVu Sans;font-size:7px;font-style:book;font-weight:book;" x="21.199219 25.652832" y="-4.8046875">26</tspan>
      </text>
     </g>
    </g>
   </g>
   <g id="line2d_16">
    <path clip-path="url(#pedf80dd67d)" d="M 86.11231 78.12 
L 90.527358 87.054419 
L 94.942434 95.667113 
L 99.357511 104.10533 
L 103.772588 112.381171 
L 108.187636 120.586667 
L 112.602712 128.480775 
L 117.017789 136.172923 
L 121.432866 143.886502 
L 125.847914 151.096315 
L 130.262991 158.052227 
L 134.678067 165.144797 
L 139.093144 171.942116 
L 143.508192 178.772465 
L 147.923269 185.315783 
L 152.338346 191.954609 
L 156.753393 198.314953 
L 161.16847 204.434204 
L 165.583547 210.581947 
L 169.998624 216.543588 
L 174.413671 222.426815 
L 178.828748 228.162417 
L 183.243825 233.913173 
L 187.658902 239.391647 
L 192.07395 244.795212 
L 196.489026 250.154956 
L 200.904103 255.430688 
L 205.31918 260.585849 
L 209.734228 265.674219 
L 214.149305 270.681806 
L 218.564381 275.787624 
L 222.979429 280.659032 
L 227.394506 285.367283 
L 231.809583 290.191264 
L 236.22466 294.918702 
L 240.639707 299.469116 
L 245.054784 303.903674 
L 249.469861 308.605345 
L 253.884938 312.846666 
L 258.299985 317.465661 
L 262.715062 321.745307 
L 267.130139 326.1131 
L 271.545216 330.407647 
L 275.960264 334.590826 
L 280.37534 338.9771 
L 284.790417 343.134964 
L 289.20548 347.350089 
L 293.620548 351.611934 
L 298.035619 355.940671 
L 302.450687 360.186682 
L 306.865755 364.584807 
L 311.280826 369.004312 
L 315.695894 373.551247 
L 320.110962 378.247143 
L 324.526033 383.076217 
L 328.941101 388.157478 
L 333.356169 393.640768 
L 337.77124 399.707575 
L 342.186308 406.809887 
L 346.28014 415.585516 
L 347.287738 418.56522 
L 347.952387 420.982869 
L 348.38916 422.942258 
L 348.674936 424.528458 
L 348.861044 425.832618 
L 348.981551 426.881479 
L 349.05907 427.736808 
L 349.10854 428.426027 
L 349.139815 428.989045 
L 349.159347 429.443587 
L 349.171381 429.81493 
L 349.178676 430.119323 
L 349.182978 430.373619 
L 349.185419 430.597058 
L 349.186727 430.92 
L 349.188035 430.92 
L 349.190477 430.92 
L 349.194779 430.92 
L 349.202045 430.92 
L 349.214078 430.92 
L 349.23364 430.92 
L 349.264915 430.92 
L 349.314385 430.92 
L 349.391903 430.92 
L 349.512381 430.92 
L 349.69849 430.92 
L 349.984295 430.92 
L 350.421039 430.92 
L 351.085688 430.92 
L 352.093315 430.92 
L 355.43153 430.92 
L 359.846578 430.92 
L 364.261654 430.92 
L 368.676731 430.92 
L 373.091779 430.92 
L 377.506856 430.92 
L 381.921933 430.92 
L 386.337009 430.92 
L 390.752057 430.92 
L 395.167134 430.92 
L 399.582211 430.92 
L 403.997288 430.92 
L 408.412335 430.92 
L 412.827412 430.92 
L 417.242489 430.92 
L 421.657566 430.92 
L 426.072613 430.92 
L 430.48769 430.92 
" style="fill:none;stroke:#1f77b4;stroke-linecap:square;stroke-width:1.5;"/>
   </g>
   <g id="patch_3">
    <path d="M 63 448.56 
L 63 60.48 
" style="fill:none;stroke:#000000;stroke-linecap:square;stroke-linejoin:miter;stroke-width:0.8;"/>
   </g>
   <g id="patch_4">
    <path d="M 453.6 448.56 
L 453.6 60.48 
" style="fill:none;stroke:#000000;stroke-linecap:square;stroke-linejoin:miter;stroke-width:0.8;"/>
   </g>
   <g id="patch_5">
    <path d="M 63 448.56 
L 453.6 448.56 
" style="fill:none;stroke:#000000;stroke-linecap:square;stroke-linejoin:miter;stroke-width:0.8;"/>
   </g>
   <g id="patch_6">
    <path d="M 63 60.48 
L 453.6 60.48 
" style="fill:none;stroke:#000000;stroke-linecap:square;stroke-linejoin:miter;stroke-width:0.8;"/>
   </g>
   <g id="text_19">
    <text style="font-family:DejaVu Sans;font-size:12px;font-style:normal;font-weight:normal;text-anchor:middle;" transform="rotate(-0, 258.3, 54.48)" x="258.3" y="54.48">dos</text>
   </g>
   <g id="legend_1">
    <g id="patch_7">
     <path d="M 373.64375 83.158125 
L 446.6 83.158125 
Q 448.6 83.158125 448.6 81.158125 
L 448.6 67.48 
Q 448.6 65.48 446.6 65.48 
L 373.64375 65.48 
Q 371.64375 65.48 371.64375 67.48 
L 371.64375 81.158125 
Q 371.64375 83.158125 373.64375 83.158125 
z
" style="fill:#ffffff;opacity:0.8;stroke:#cccccc;stroke-linejoin:miter;"/>
    </g>
    <g id="PathCollection_2">
     <g>
      <use style="fill:#1f77b4;stroke:#1f77b4;" x="385.64375" xlink:href="#md6e3a7731c" y="74.453438"/>
     </g>
    </g>
    <g id="text_20">
     <text style="font-family:DejaVu Sans;font-size:10px;font-style:normal;font-weight:normal;text-anchor:start;" transform="rotate(-0, 403.64375, 77.078438)" x="403.64375" y="77.078438">numeric</text>
    </g>
   </g>
  </g>
 </g>
 <defs>
  <clipPath id="pedf80dd67d">
   <rect height="388.08" width="390.6" x="63" y="60.48"/>
  </clipPath>
 </defs>
</svg>
