<?xml version="1.0" encoding="utf-8" standalone="no"?>
<!DOCTYPE svg PUBLIC "-//W3C//DTD SVG 1.1//EN"
  "http://www.w3.org/Graphics/SVG/1.1/DTD/svg11.dtd">
<!-- Created with matplotlib (https://matplotlib.org/) -->
<svg height="504pt" version="1.1" viewBox="0 0 504 504" width="504pt" xmlns="http://www.w3.org/2000/svg" xmlns:xlink="http://www.w3.org/1999/xlink">
 <defs>
  <style type="text/css">
*{stroke-linecap:butt;stroke-linejoin:round;}
  </style>
 </defs>
 <g id="figure_1">
  <g id="patch_1">
   <path d="M 0 504 
L 504 504 
L 504 0 
L 0 0 
z
" style="fill:#ffffff;"/>
  </g>
  <g id="axes_1">
   <g id="patch_2">
    <path d="M 63 448.56 
L 453.6 448.56 
L 453.6 60.48 
L 63 60.48 
z
" style="fill:#ffffff;"/>
   </g>
   <g id="PathCollection_1">
    <defs>
     <path d="M 0 1 
C 0.265203 1 0.51958 0.894634 0.707107 0.707107 
C 0.894634 0.51958 1 0.265203 1 0 
C 1 -0.265203 0.894634 -0.51958 0.707107 -0.707107 
C 0.51958 -0.894634 0.265203 -1 0 -1 
C -0.265203 -1 -0.51958 -0.894634 -0.707107 -0.707107 
C -0.894634 -0.51958 -1 -0.265203 -1 0 
C -1 0.265203 -0.894634 0.51958 -0.707107 0.707107 
C -0.51958 0.894634 -0.265203 1 0 1 
z
" id="mb871cb5b15" style="stroke:#1f77b4;"/>
    </defs>
    <g clip-path="url(#p4e10750508)">
     <use style="fill:#1f77b4;stroke:#1f77b4;" x="83.566882" xlink:href="#mb871cb5b15" y="430.92"/>
     <use style="fill:#1f77b4;stroke:#1f77b4;" x="88.047199" xlink:href="#mb871cb5b15" y="430.92"/>
     <use style="fill:#1f77b4;stroke:#1f77b4;" x="92.527563" xlink:href="#mb871cb5b15" y="430.92"/>
     <use style="fill:#1f77b4;stroke:#1f77b4;" x="97.00788" xlink:href="#mb871cb5b15" y="430.92"/>
     <use style="fill:#1f77b4;stroke:#1f77b4;" x="101.488243" xlink:href="#mb871cb5b15" y="430.92"/>
     <use style="fill:#1f77b4;stroke:#1f77b4;" x="101.971903" xlink:href="#mb871cb5b15" y="430.92"/>
     <use style="fill:#1f77b4;stroke:#1f77b4;" x="109.905534" xlink:href="#mb871cb5b15" y="430.92"/>
     <use style="fill:#1f77b4;stroke:#1f77b4;" x="115.138643" xlink:href="#mb871cb5b15" y="430.92"/>
     <use style="fill:#1f77b4;stroke:#1f77b4;" x="118.577539" xlink:href="#mb871cb5b15" y="430.92"/>
     <use style="fill:#1f77b4;stroke:#1f77b4;" x="120.827813" xlink:href="#mb871cb5b15" y="430.92"/>
     <use style="fill:#1f77b4;stroke:#1f77b4;" x="122.293072" xlink:href="#mb871cb5b15" y="430.92"/>
     <use style="fill:#1f77b4;stroke:#1f77b4;" x="123.241855" xlink:href="#mb871cb5b15" y="430.92"/>
     <use style="fill:#1f77b4;stroke:#1f77b4;" x="123.852116" xlink:href="#mb871cb5b15" y="430.92"/>
     <use style="fill:#1f77b4;stroke:#1f77b4;" x="124.241626" xlink:href="#mb871cb5b15" y="430.92"/>
     <use style="fill:#1f77b4;stroke:#1f77b4;" x="124.487918" xlink:href="#mb871cb5b15" y="430.92"/>
     <use style="fill:#1f77b4;stroke:#1f77b4;" x="124.641845" xlink:href="#mb871cb5b15" y="430.92"/>
     <use style="fill:#1f77b4;stroke:#1f77b4;" x="124.736636" xlink:href="#mb871cb5b15" y="430.92"/>
     <use style="fill:#1f77b4;stroke:#1f77b4;" x="124.793941" xlink:href="#mb871cb5b15" y="430.92"/>
     <use style="fill:#1f77b4;stroke:#1f77b4;" x="124.827766" xlink:href="#mb871cb5b15" y="430.92"/>
     <use style="fill:#1f77b4;stroke:#1f77b4;" x="124.846944" xlink:href="#mb871cb5b15" y="430.92"/>
     <use style="fill:#1f77b4;stroke:#1f77b4;" x="124.857288" xlink:href="#mb871cb5b15" y="430.92"/>
     <use style="fill:#1f77b4;stroke:#1f77b4;" x="124.867678" xlink:href="#mb871cb5b15" y="430.853863"/>
     <use style="fill:#1f77b4;stroke:#1f77b4;" x="124.886856" xlink:href="#mb871cb5b15" y="430.808555"/>
     <use style="fill:#1f77b4;stroke:#1f77b4;" x="124.920681" xlink:href="#mb871cb5b15" y="430.756852"/>
     <use style="fill:#1f77b4;stroke:#1f77b4;" x="124.977986" xlink:href="#mb871cb5b15" y="430.69382"/>
     <use style="fill:#1f77b4;stroke:#1f77b4;" x="125.072777" xlink:href="#mb871cb5b15" y="430.61563"/>
     <use style="fill:#1f77b4;stroke:#1f77b4;" x="125.226704" xlink:href="#mb871cb5b15" y="430.519411"/>
     <use style="fill:#1f77b4;stroke:#1f77b4;" x="125.472997" xlink:href="#mb871cb5b15" y="430.396298"/>
     <use style="fill:#1f77b4;stroke:#1f77b4;" x="125.862506" xlink:href="#mb871cb5b15" y="430.23852"/>
     <use style="fill:#1f77b4;stroke:#1f77b4;" x="126.472768" xlink:href="#mb871cb5b15" y="430.034562"/>
     <use style="fill:#1f77b4;stroke:#1f77b4;" x="127.42155" xlink:href="#mb871cb5b15" y="429.758667"/>
     <use style="fill:#1f77b4;stroke:#1f77b4;" x="128.886809" xlink:href="#mb871cb5b15" y="429.378882"/>
     <use style="fill:#1f77b4;stroke:#1f77b4;" x="131.137038" xlink:href="#mb871cb5b15" y="428.815052"/>
     <use style="fill:#1f77b4;stroke:#1f77b4;" x="134.575979" xlink:href="#mb871cb5b15" y="427.955717"/>
     <use style="fill:#1f77b4;stroke:#1f77b4;" x="139.809088" xlink:href="#mb871cb5b15" y="426.582198"/>
     <use style="fill:#1f77b4;stroke:#1f77b4;" x="147.742673" xlink:href="#mb871cb5b15" y="424.189539"/>
     <use style="fill:#1f77b4;stroke:#1f77b4;" x="150.77192" xlink:href="#mb871cb5b15" y="423.171302"/>
     <use style="fill:#1f77b4;stroke:#1f77b4;" x="155.252238" xlink:href="#mb871cb5b15" y="421.579887"/>
     <use style="fill:#1f77b4;stroke:#1f77b4;" x="159.732601" xlink:href="#mb871cb5b15" y="419.86595"/>
     <use style="fill:#1f77b4;stroke:#1f77b4;" x="164.212919" xlink:href="#mb871cb5b15" y="418.060525"/>
     <use style="fill:#1f77b4;stroke:#1f77b4;" x="168.693282" xlink:href="#mb871cb5b15" y="416.129941"/>
     <use style="fill:#1f77b4;stroke:#1f77b4;" x="173.1736" xlink:href="#mb871cb5b15" y="414.037513"/>
     <use style="fill:#1f77b4;stroke:#1f77b4;" x="177.653963" xlink:href="#mb871cb5b15" y="411.833795"/>
     <use style="fill:#1f77b4;stroke:#1f77b4;" x="182.134281" xlink:href="#mb871cb5b15" y="409.457627"/>
     <use style="fill:#1f77b4;stroke:#1f77b4;" x="186.614598" xlink:href="#mb871cb5b15" y="406.996746"/>
     <use style="fill:#1f77b4;stroke:#1f77b4;" x="191.094961" xlink:href="#mb871cb5b15" y="404.407796"/>
     <use style="fill:#1f77b4;stroke:#1f77b4;" x="195.575279" xlink:href="#mb871cb5b15" y="401.658606"/>
     <use style="fill:#1f77b4;stroke:#1f77b4;" x="200.055642" xlink:href="#mb871cb5b15" y="398.879014"/>
     <use style="fill:#1f77b4;stroke:#1f77b4;" x="204.53596" xlink:href="#mb871cb5b15" y="395.847016"/>
     <use style="fill:#1f77b4;stroke:#1f77b4;" x="209.016296" xlink:href="#mb871cb5b15" y="392.749871"/>
     <use style="fill:#1f77b4;stroke:#1f77b4;" x="213.496632" xlink:href="#mb871cb5b15" y="389.540516"/>
     <use style="fill:#1f77b4;stroke:#1f77b4;" x="217.976968" xlink:href="#mb871cb5b15" y="386.407032"/>
     <use style="fill:#1f77b4;stroke:#1f77b4;" x="222.457308" xlink:href="#mb871cb5b15" y="382.971836"/>
     <use style="fill:#1f77b4;stroke:#1f77b4;" x="226.937644" xlink:href="#mb871cb5b15" y="379.329812"/>
     <use style="fill:#1f77b4;stroke:#1f77b4;" x="231.41798" xlink:href="#mb871cb5b15" y="375.701186"/>
     <use style="fill:#1f77b4;stroke:#1f77b4;" x="235.898316" xlink:href="#mb871cb5b15" y="371.733295"/>
     <use style="fill:#1f77b4;stroke:#1f77b4;" x="240.378652" xlink:href="#mb871cb5b15" y="367.80366"/>
     <use style="fill:#1f77b4;stroke:#1f77b4;" x="244.858988" xlink:href="#mb871cb5b15" y="363.823328"/>
     <use style="fill:#1f77b4;stroke:#1f77b4;" x="249.339325" xlink:href="#mb871cb5b15" y="359.506897"/>
     <use style="fill:#1f77b4;stroke:#1f77b4;" x="253.819661" xlink:href="#mb871cb5b15" y="355.131819"/>
     <use style="fill:#1f77b4;stroke:#1f77b4;" x="258.3" xlink:href="#mb871cb5b15" y="350.515139"/>
     <use style="fill:#1f77b4;stroke:#1f77b4;" x="262.780336" xlink:href="#mb871cb5b15" y="345.778888"/>
     <use style="fill:#1f77b4;stroke:#1f77b4;" x="267.260672" xlink:href="#mb871cb5b15" y="341.10486"/>
     <use style="fill:#1f77b4;stroke:#1f77b4;" x="271.741008" xlink:href="#mb871cb5b15" y="336.312157"/>
     <use style="fill:#1f77b4;stroke:#1f77b4;" x="276.221344" xlink:href="#mb871cb5b15" y="331.389582"/>
     <use style="fill:#1f77b4;stroke:#1f77b4;" x="280.70168" xlink:href="#mb871cb5b15" y="326.278424"/>
     <use style="fill:#1f77b4;stroke:#1f77b4;" x="285.182015" xlink:href="#mb871cb5b15" y="320.831025"/>
     <use style="fill:#1f77b4;stroke:#1f77b4;" x="289.662351" xlink:href="#mb871cb5b15" y="315.501683"/>
     <use style="fill:#1f77b4;stroke:#1f77b4;" x="294.142687" xlink:href="#mb871cb5b15" y="310.064522"/>
     <use style="fill:#1f77b4;stroke:#1f77b4;" x="298.623041" xlink:href="#mb871cb5b15" y="304.420425"/>
     <use style="fill:#1f77b4;stroke:#1f77b4;" x="303.103359" xlink:href="#mb871cb5b15" y="298.696352"/>
     <use style="fill:#1f77b4;stroke:#1f77b4;" x="307.583677" xlink:href="#mb871cb5b15" y="292.722415"/>
     <use style="fill:#1f77b4;stroke:#1f77b4;" x="312.06404" xlink:href="#mb871cb5b15" y="286.747724"/>
     <use style="fill:#1f77b4;stroke:#1f77b4;" x="316.544358" xlink:href="#mb871cb5b15" y="280.687098"/>
     <use style="fill:#1f77b4;stroke:#1f77b4;" x="321.024721" xlink:href="#mb871cb5b15" y="274.414377"/>
     <use style="fill:#1f77b4;stroke:#1f77b4;" x="325.505039" xlink:href="#mb871cb5b15" y="268.002533"/>
     <use style="fill:#1f77b4;stroke:#1f77b4;" x="329.985402" xlink:href="#mb871cb5b15" y="261.317976"/>
     <use style="fill:#1f77b4;stroke:#1f77b4;" x="334.465719" xlink:href="#mb871cb5b15" y="255.983532"/>
     <use style="fill:#1f77b4;stroke:#1f77b4;" x="338.946037" xlink:href="#mb871cb5b15" y="248.844757"/>
     <use style="fill:#1f77b4;stroke:#1f77b4;" x="343.4264" xlink:href="#mb871cb5b15" y="242.236504"/>
     <use style="fill:#1f77b4;stroke:#1f77b4;" x="347.906718" xlink:href="#mb871cb5b15" y="234.330494"/>
     <use style="fill:#1f77b4;stroke:#1f77b4;" x="352.387081" xlink:href="#mb871cb5b15" y="227.859468"/>
     <use style="fill:#1f77b4;stroke:#1f77b4;" x="356.867399" xlink:href="#mb871cb5b15" y="220.971256"/>
     <use style="fill:#1f77b4;stroke:#1f77b4;" x="361.347717" xlink:href="#mb871cb5b15" y="213.501501"/>
     <use style="fill:#1f77b4;stroke:#1f77b4;" x="365.82808" xlink:href="#mb871cb5b15" y="206.002178"/>
     <use style="fill:#1f77b4;stroke:#1f77b4;" x="370.308398" xlink:href="#mb871cb5b15" y="198.212396"/>
     <use style="fill:#1f77b4;stroke:#1f77b4;" x="374.788761" xlink:href="#mb871cb5b15" y="190.876634"/>
     <use style="fill:#1f77b4;stroke:#1f77b4;" x="379.269078" xlink:href="#mb871cb5b15" y="182.466321"/>
     <use style="fill:#1f77b4;stroke:#1f77b4;" x="383.749396" xlink:href="#mb871cb5b15" y="174.344481"/>
     <use style="fill:#1f77b4;stroke:#1f77b4;" x="388.229759" xlink:href="#mb871cb5b15" y="166.085698"/>
     <use style="fill:#1f77b4;stroke:#1f77b4;" x="392.710077" xlink:href="#mb871cb5b15" y="157.905119"/>
     <use style="fill:#1f77b4;stroke:#1f77b4;" x="397.19044" xlink:href="#mb871cb5b15" y="149.492933"/>
     <use style="fill:#1f77b4;stroke:#1f77b4;" x="401.670758" xlink:href="#mb871cb5b15" y="141.002089"/>
     <use style="fill:#1f77b4;stroke:#1f77b4;" x="406.151121" xlink:href="#mb871cb5b15" y="131.579369"/>
     <use style="fill:#1f77b4;stroke:#1f77b4;" x="410.631439" xlink:href="#mb871cb5b15" y="123.476598"/>
     <use style="fill:#1f77b4;stroke:#1f77b4;" x="415.111757" xlink:href="#mb871cb5b15" y="114.061938"/>
     <use style="fill:#1f77b4;stroke:#1f77b4;" x="419.59212" xlink:href="#mb871cb5b15" y="104.989608"/>
     <use style="fill:#1f77b4;stroke:#1f77b4;" x="424.072437" xlink:href="#mb871cb5b15" y="95.241811"/>
     <use style="fill:#1f77b4;stroke:#1f77b4;" x="428.552801" xlink:href="#mb871cb5b15" y="85.837366"/>
     <use style="fill:#1f77b4;stroke:#1f77b4;" x="433.033118" xlink:href="#mb871cb5b15" y="78.12"/>
    </g>
   </g>
   <g id="matplotlib.axis_1">
    <g id="xtick_1">
     <g id="line2d_1">
      <defs>
       <path d="M 0 0 
L 0 3.5 
" id="ma99860ecd1" style="stroke:#000000;stroke-width:0.8;"/>
      </defs>
      <g>
       <use style="stroke:#000000;stroke-width:0.8;" x="97.380805" xlink:href="#ma99860ecd1" y="448.56"/>
      </g>
     </g>
     <g id="text_1">
      <text style="font-family:DejaVu Sans;font-size:10px;font-style:normal;font-weight:normal;text-anchor:middle;" transform="rotate(-0, 97.380805, 463.158437)" x="97.380805" y="463.158437">−0.10</text>
     </g>
    </g>
    <g id="xtick_2">
     <g id="line2d_2">
      <g>
       <use style="stroke:#000000;stroke-width:0.8;" x="173.665422" xlink:href="#ma99860ecd1" y="448.56"/>
      </g>
     </g>
     <g id="text_2">
      <text style="font-family:DejaVu Sans;font-size:10px;font-style:normal;font-weight:normal;text-anchor:middle;" transform="rotate(-0, 173.665422, 463.158437)" x="173.665422" y="463.158437">−0.05</text>
     </g>
    </g>
    <g id="xtick_3">
     <g id="line2d_3">
      <g>
       <use style="stroke:#000000;stroke-width:0.8;" x="249.950038" xlink:href="#ma99860ecd1" y="448.56"/>
      </g>
     </g>
     <g id="text_3">
      <text style="font-family:DejaVu Sans;font-size:10px;font-style:normal;font-weight:normal;text-anchor:middle;" transform="rotate(-0, 249.950038, 463.158437)" x="249.950038" y="463.158437">0.00</text>
     </g>
    </g>
    <g id="xtick_4">
     <g id="line2d_4">
      <g>
       <use style="stroke:#000000;stroke-width:0.8;" x="326.234655" xlink:href="#ma99860ecd1" y="448.56"/>
      </g>
     </g>
     <g id="text_4">
      <text style="font-family:DejaVu Sans;font-size:10px;font-style:normal;font-weight:normal;text-anchor:middle;" transform="rotate(-0, 326.234655, 463.158437)" x="326.234655" y="463.158437">0.05</text>
     </g>
    </g>
    <g id="xtick_5">
     <g id="line2d_5">
      <g>
       <use style="stroke:#000000;stroke-width:0.8;" x="402.519272" xlink:href="#ma99860ecd1" y="448.56"/>
      </g>
     </g>
     <g id="text_5">
      <text style="font-family:DejaVu Sans;font-size:10px;font-style:normal;font-weight:normal;text-anchor:middle;" transform="rotate(-0, 402.519272, 463.158437)" x="402.519272" y="463.158437">0.10</text>
     </g>
    </g>
    <g id="text_6">
     <text style="font-family:DejaVu Sans;font-size:10px;font-style:normal;font-weight:normal;text-anchor:middle;" transform="rotate(-0, 258.3, 476.836563)" x="258.3" y="476.836563">mu [eV]</text>
    </g>
   </g>
   <g id="matplotlib.axis_2">
    <g id="ytick_1">
     <g id="line2d_6">
      <defs>
       <path d="M 0 0 
L -3.5 0 
" id="m5b303bf5da" style="stroke:#000000;stroke-width:0.8;"/>
      </defs>
      <g>
       <use style="stroke:#000000;stroke-width:0.8;" x="63" xlink:href="#m5b303bf5da" y="430.92"/>
      </g>
     </g>
     <g id="text_7">
      <!-- $\mathdefault{0}$ -->
      <g transform="translate(49.6 434.719219)">
       <text>
        <tspan style="font-family:DejaVu Sans;font-size:10px;font-style:book;font-weight:book;" x="0" y="-0.578125">0</tspan>
       </text>
      </g>
     </g>
    </g>
    <g id="ytick_2">
     <g id="line2d_7">
      <g>
       <use style="stroke:#000000;stroke-width:0.8;" x="63" xlink:href="#m5b303bf5da" y="374.167571"/>
      </g>
     </g>
     <g id="text_8">
      <!-- $\mathdefault{1}$ -->
      <g transform="translate(49.6 377.96679)">
       <text>
        <tspan style="font-family:DejaVu Sans;font-size:10px;font-style:book;font-weight:book;" x="0" y="-0.703125">1</tspan>
       </text>
      </g>
     </g>
    </g>
    <g id="ytick_3">
     <g id="line2d_8">
      <g>
       <use style="stroke:#000000;stroke-width:0.8;" x="63" xlink:href="#m5b303bf5da" y="317.415142"/>
      </g>
     </g>
     <g id="text_9">
      <!-- $\mathdefault{2}$ -->
      <g transform="translate(49.6 321.214361)">
       <text>
        <tspan style="font-family:DejaVu Sans;font-size:10px;font-style:book;font-weight:book;" x="0" y="-0.578125">2</tspan>
       </text>
      </g>
     </g>
    </g>
    <g id="ytick_4">
     <g id="line2d_9">
      <g>
       <use style="stroke:#000000;stroke-width:0.8;" x="63" xlink:href="#m5b303bf5da" y="260.662713"/>
      </g>
     </g>
     <g id="text_10">
      <!-- $\mathdefault{3}$ -->
      <g transform="translate(49.6 264.461931)">
       <text>
        <tspan style="font-family:DejaVu Sans;font-size:10px;font-style:book;font-weight:book;" x="0" y="-0.578125">3</tspan>
       </text>
      </g>
     </g>
    </g>
    <g id="ytick_5">
     <g id="line2d_10">
      <g>
       <use style="stroke:#000000;stroke-width:0.8;" x="63" xlink:href="#m5b303bf5da" y="203.910284"/>
      </g>
     </g>
     <g id="text_11">
      <!-- $\mathdefault{4}$ -->
      <g transform="translate(49.6 207.709502)">
       <text>
        <tspan style="font-family:DejaVu Sans;font-size:10px;font-style:book;font-weight:book;" x="0" y="-0.703125">4</tspan>
       </text>
      </g>
     </g>
    </g>
    <g id="ytick_6">
     <g id="line2d_11">
      <g>
       <use style="stroke:#000000;stroke-width:0.8;" x="63" xlink:href="#m5b303bf5da" y="147.157854"/>
      </g>
     </g>
     <g id="text_12">
      <!-- $\mathdefault{5}$ -->
      <g transform="translate(49.6 150.957073)">
       <text>
        <tspan style="font-family:DejaVu Sans;font-size:10px;font-style:book;font-weight:book;" x="0" y="-0.703125">5</tspan>
       </text>
      </g>
     </g>
    </g>
    <g id="ytick_7">
     <g id="line2d_12">
      <g>
       <use style="stroke:#000000;stroke-width:0.8;" x="63" xlink:href="#m5b303bf5da" y="90.405425"/>
      </g>
     </g>
     <g id="text_13">
      <!-- $\mathdefault{6}$ -->
      <g transform="translate(49.6 94.204644)">
       <text>
        <tspan style="font-family:DejaVu Sans;font-size:10px;font-style:book;font-weight:book;" x="0" y="-0.578125">6</tspan>
       </text>
      </g>
     </g>
    </g>
    <g id="text_14">
     <text style="font-family:DejaVu Sans;font-size:10px;font-style:normal;font-weight:normal;text-anchor:middle;" transform="rotate(-90, 43.520313, 254.52)" x="43.520313" y="254.52">DOS [/eV m3]</text>
    </g>
    <g id="text_15">
     <!-- $\times\mathdefault{10^{25}}\mathdefault{}$ -->
     <g transform="translate(63 57.48)">
      <text>
       <tspan style="font-family:DejaVu Sans;font-size:10px;font-style:book;font-weight:book;" x="0 8.378906 14.741211" y="-0.9765625">×10</tspan>
       <tspan style="font-family:DejaVu Sans;font-size:7px;font-style:book;font-weight:book;" x="21.199219 25.652832" y="-4.8046875">25</tspan>
      </text>
     </g>
    </g>
   </g>
   <g id="line2d_13">
    <path clip-path="url(#p4e10750508)" d="M 83.566882 430.92 
L 88.047199 430.92 
L 92.527563 430.92 
L 97.00788 430.92 
L 101.488243 430.92 
L 101.971903 430.92 
L 109.905534 430.92 
L 115.138643 430.92 
L 118.577539 430.92 
L 120.827813 430.92 
L 122.293072 430.92 
L 123.241855 430.92 
L 123.852116 430.92 
L 124.241626 430.92 
L 124.487918 430.92 
L 124.641845 430.92 
L 124.736636 430.92 
L 124.793941 430.92 
L 124.827766 430.92 
L 124.846944 430.92 
L 124.857288 430.92 
L 124.867678 430.853863 
L 124.886856 430.808555 
L 124.920681 430.756852 
L 124.977986 430.69382 
L 125.072777 430.61563 
L 125.226704 430.519411 
L 125.472997 430.396298 
L 125.862506 430.23852 
L 126.472768 430.034562 
L 127.42155 429.758667 
L 128.886809 429.378882 
L 131.137038 428.815052 
L 134.575979 427.955717 
L 139.809088 426.582198 
L 147.742673 424.189539 
L 150.77192 423.171302 
L 155.252238 421.579887 
L 159.732601 419.86595 
L 164.212919 418.060525 
L 168.693282 416.129941 
L 173.1736 414.037513 
L 177.653963 411.833795 
L 182.134281 409.457627 
L 186.614598 406.996746 
L 191.094961 404.407796 
L 195.575279 401.658606 
L 200.055642 398.879014 
L 204.53596 395.847016 
L 209.016296 392.749871 
L 213.496632 389.540516 
L 217.976968 386.407032 
L 222.457308 382.971836 
L 226.937644 379.329812 
L 231.41798 375.701186 
L 235.898316 371.733295 
L 240.378652 367.80366 
L 244.858988 363.823328 
L 249.339325 359.506897 
L 253.819661 355.131819 
L 258.3 350.515139 
L 262.780336 345.778888 
L 267.260672 341.10486 
L 271.741008 336.312157 
L 276.221344 331.389582 
L 280.70168 326.278424 
L 285.182015 320.831025 
L 289.662351 315.501683 
L 294.142687 310.064522 
L 298.623041 304.420425 
L 303.103359 298.696352 
L 307.583677 292.722415 
L 312.06404 286.747724 
L 316.544358 280.687098 
L 321.024721 274.414377 
L 325.505039 268.002533 
L 329.985402 261.317976 
L 334.465719 255.983532 
L 338.946037 248.844757 
L 343.4264 242.236504 
L 347.906718 234.330494 
L 352.387081 227.859468 
L 356.867399 220.971256 
L 361.347717 213.501501 
L 365.82808 206.002178 
L 370.308398 198.212396 
L 374.788761 190.876634 
L 379.269078 182.466321 
L 383.749396 174.344481 
L 388.229759 166.085698 
L 392.710077 157.905119 
L 397.19044 149.492933 
L 401.670758 141.002089 
L 406.151121 131.579369 
L 410.631439 123.476598 
L 415.111757 114.061938 
L 419.59212 104.989608 
L 424.072437 95.241811 
L 428.552801 85.837366 
L 433.033118 78.12 
" style="fill:none;stroke:#1f77b4;stroke-linecap:square;stroke-width:1.5;"/>
   </g>
   <g id="patch_3">
    <path d="M 63 448.56 
L 63 60.48 
" style="fill:none;stroke:#000000;stroke-linecap:square;stroke-linejoin:miter;stroke-width:0.8;"/>
   </g>
   <g id="patch_4">
    <path d="M 453.6 448.56 
L 453.6 60.48 
" style="fill:none;stroke:#000000;stroke-linecap:square;stroke-linejoin:miter;stroke-width:0.8;"/>
   </g>
   <g id="patch_5">
    <path d="M 63 448.56 
L 453.6 448.56 
" style="fill:none;stroke:#000000;stroke-linecap:square;stroke-linejoin:miter;stroke-width:0.8;"/>
   </g>
   <g id="patch_6">
    <path d="M 63 60.48 
L 453.6 60.48 
" style="fill:none;stroke:#000000;stroke-linecap:square;stroke-linejoin:miter;stroke-width:0.8;"/>
   </g>
   <g id="text_16">
    <text style="font-family:DejaVu Sans;font-size:12px;font-style:normal;font-weight:normal;text-anchor:middle;" transform="rotate(-0, 258.3, 54.48)" x="258.3" y="54.48">dos</text>
   </g>
   <g id="legend_1">
    <g id="patch_7">
     <path d="M 70 83.158125 
L 142.95625 83.158125 
Q 144.95625 83.158125 144.95625 81.158125 
L 144.95625 67.48 
Q 144.95625 65.48 142.95625 65.48 
L 70 65.48 
Q 68 65.48 68 67.48 
L 68 81.158125 
Q 68 83.158125 70 83.158125 
z
" style="fill:#ffffff;opacity:0.8;stroke:#cccccc;stroke-linejoin:miter;"/>
    </g>
    <g id="PathCollection_2">
     <g>
      <use style="fill:#1f77b4;stroke:#1f77b4;" x="82" xlink:href="#mb871cb5b15" y="74.453438"/>
     </g>
    </g>
    <g id="text_17">
     <text style="font-family:DejaVu Sans;font-size:10px;font-style:normal;font-weight:normal;text-anchor:start;" transform="rotate(-0, 100, 77.078438)" x="100" y="77.078438">numeric</text>
    </g>
   </g>
  </g>
 </g>
 <defs>
  <clipPath id="p4e10750508">
   <rect height="388.08" width="390.6" x="63" y="60.48"/>
  </clipPath>
 </defs>
</svg>
