<?xml version="1.0" encoding="utf-8" standalone="no"?>
<!DOCTYPE svg PUBLIC "-//W3C//DTD SVG 1.1//EN"
  "http://www.w3.org/Graphics/SVG/1.1/DTD/svg11.dtd">
<!-- Created with matplotlib (https://matplotlib.org/) -->
<svg height="504pt" version="1.1" viewBox="0 0 504 504" width="504pt" xmlns="http://www.w3.org/2000/svg" xmlns:xlink="http://www.w3.org/1999/xlink">
 <defs>
  <style type="text/css">
*{stroke-linecap:butt;stroke-linejoin:round;}
  </style>
 </defs>
 <g id="figure_1">
  <g id="patch_1">
   <path d="M 0 504 
L 504 504 
L 504 0 
L 0 0 
z
" style="fill:#ffffff;"/>
  </g>
  <g id="axes_1">
   <g id="patch_2">
    <path d="M 63 448.56 
L 453.6 448.56 
L 453.6 60.48 
L 63 60.48 
z
" style="fill:#ffffff;"/>
   </g>
   <g id="PathCollection_1">
    <defs>
     <path d="M 0 1 
C 0.265203 1 0.51958 0.894634 0.707107 0.707107 
C 0.894634 0.51958 1 0.265203 1 0 
C 1 -0.265203 0.894634 -0.51958 0.707107 -0.707107 
C 0.51958 -0.894634 0.265203 -1 0 -1 
C -0.265203 -1 -0.51958 -0.894634 -0.707107 -0.707107 
C -0.894634 -0.51958 -1 -0.265203 -1 0 
C -1 0.265203 -0.894634 0.51958 -0.707107 0.707107 
C -0.51958 0.894634 -0.265203 1 0 1 
z
" id="m25e41d122b" style="stroke:#1f77b4;"/>
    </defs>
    <g clip-path="url(#pc4906e8ed1)">
     <use style="fill:#1f77b4;stroke:#1f77b4;" x="86.23046" xlink:href="#m25e41d122b" y="430.92"/>
     <use style="fill:#1f77b4;stroke:#1f77b4;" x="90.64249" xlink:href="#m25e41d122b" y="430.92"/>
     <use style="fill:#1f77b4;stroke:#1f77b4;" x="95.05452" xlink:href="#m25e41d122b" y="430.92"/>
     <use style="fill:#1f77b4;stroke:#1f77b4;" x="96.67182" xlink:href="#m25e41d122b" y="430.92"/>
     <use style="fill:#1f77b4;stroke:#1f77b4;" x="101.821025" xlink:href="#m25e41d122b" y="430.92"/>
     <use style="fill:#1f77b4;stroke:#1f77b4;" x="105.217497" xlink:href="#m25e41d122b" y="430.92"/>
     <use style="fill:#1f77b4;stroke:#1f77b4;" x="107.449461" xlink:href="#m25e41d122b" y="430.92"/>
     <use style="fill:#1f77b4;stroke:#1f77b4;" x="108.909968" xlink:href="#m25e41d122b" y="430.92"/>
     <use style="fill:#1f77b4;stroke:#1f77b4;" x="109.860973" xlink:href="#m25e41d122b" y="430.92"/>
     <use style="fill:#1f77b4;stroke:#1f77b4;" x="110.476766" xlink:href="#m25e41d122b" y="430.92"/>
     <use style="fill:#1f77b4;stroke:#1f77b4;" x="110.872847" xlink:href="#m25e41d122b" y="430.92"/>
     <use style="fill:#1f77b4;stroke:#1f77b4;" x="111.125653" xlink:href="#m25e41d122b" y="430.92"/>
     <use style="fill:#1f77b4;stroke:#1f77b4;" x="111.285505" xlink:href="#m25e41d122b" y="430.92"/>
     <use style="fill:#1f77b4;stroke:#1f77b4;" x="111.385409" xlink:href="#m25e41d122b" y="430.92"/>
     <use style="fill:#1f77b4;stroke:#1f77b4;" x="111.446932" xlink:href="#m25e41d122b" y="430.92"/>
     <use style="fill:#1f77b4;stroke:#1f77b4;" x="111.484125" xlink:href="#m25e41d122b" y="430.92"/>
     <use style="fill:#1f77b4;stroke:#1f77b4;" x="111.506078" xlink:href="#m25e41d122b" y="430.92"/>
     <use style="fill:#1f77b4;stroke:#1f77b4;" x="111.518526" xlink:href="#m25e41d122b" y="430.92"/>
     <use style="fill:#1f77b4;stroke:#1f77b4;" x="111.525239" xlink:href="#m25e41d122b" y="430.92"/>
     <use style="fill:#1f77b4;stroke:#1f77b4;" x="111.531983" xlink:href="#m25e41d122b" y="430.915319"/>
     <use style="fill:#1f77b4;stroke:#1f77b4;" x="111.54443" xlink:href="#m25e41d122b" y="430.912106"/>
     <use style="fill:#1f77b4;stroke:#1f77b4;" x="111.566383" xlink:href="#m25e41d122b" y="430.908464"/>
     <use style="fill:#1f77b4;stroke:#1f77b4;" x="111.603576" xlink:href="#m25e41d122b" y="430.903949"/>
     <use style="fill:#1f77b4;stroke:#1f77b4;" x="111.665099" xlink:href="#m25e41d122b" y="430.898411"/>
     <use style="fill:#1f77b4;stroke:#1f77b4;" x="111.765003" xlink:href="#m25e41d122b" y="430.891546"/>
     <use style="fill:#1f77b4;stroke:#1f77b4;" x="111.924856" xlink:href="#m25e41d122b" y="430.882742"/>
     <use style="fill:#1f77b4;stroke:#1f77b4;" x="112.177661" xlink:href="#m25e41d122b" y="430.871794"/>
     <use style="fill:#1f77b4;stroke:#1f77b4;" x="112.573742" xlink:href="#m25e41d122b" y="430.857129"/>
     <use style="fill:#1f77b4;stroke:#1f77b4;" x="113.189535" xlink:href="#m25e41d122b" y="430.837037"/>
     <use style="fill:#1f77b4;stroke:#1f77b4;" x="114.14054" xlink:href="#m25e41d122b" y="430.808743"/>
     <use style="fill:#1f77b4;stroke:#1f77b4;" x="115.601018" xlink:href="#m25e41d122b" y="430.767222"/>
     <use style="fill:#1f77b4;stroke:#1f77b4;" x="117.833011" xlink:href="#m25e41d122b" y="430.701774"/>
     <use style="fill:#1f77b4;stroke:#1f77b4;" x="121.229483" xlink:href="#m25e41d122b" y="430.594682"/>
     <use style="fill:#1f77b4;stroke:#1f77b4;" x="126.378659" xlink:href="#m25e41d122b" y="430.399751"/>
     <use style="fill:#1f77b4;stroke:#1f77b4;" x="130.350849" xlink:href="#m25e41d122b" y="430.22243"/>
     <use style="fill:#1f77b4;stroke:#1f77b4;" x="134.762879" xlink:href="#m25e41d122b" y="430.004601"/>
     <use style="fill:#1f77b4;stroke:#1f77b4;" x="139.174939" xlink:href="#m25e41d122b" y="429.739398"/>
     <use style="fill:#1f77b4;stroke:#1f77b4;" x="143.586969" xlink:href="#m25e41d122b" y="429.432645"/>
     <use style="fill:#1f77b4;stroke:#1f77b4;" x="147.998999" xlink:href="#m25e41d122b" y="429.084099"/>
     <use style="fill:#1f77b4;stroke:#1f77b4;" x="152.411058" xlink:href="#m25e41d122b" y="428.681722"/>
     <use style="fill:#1f77b4;stroke:#1f77b4;" x="156.823088" xlink:href="#m25e41d122b" y="428.230809"/>
     <use style="fill:#1f77b4;stroke:#1f77b4;" x="161.235118" xlink:href="#m25e41d122b" y="427.714983"/>
     <use style="fill:#1f77b4;stroke:#1f77b4;" x="165.647166" xlink:href="#m25e41d122b" y="427.174076"/>
     <use style="fill:#1f77b4;stroke:#1f77b4;" x="170.059205" xlink:href="#m25e41d122b" y="426.506377"/>
     <use style="fill:#1f77b4;stroke:#1f77b4;" x="174.471247" xlink:href="#m25e41d122b" y="425.731809"/>
     <use style="fill:#1f77b4;stroke:#1f77b4;" x="178.883286" xlink:href="#m25e41d122b" y="424.914368"/>
     <use style="fill:#1f77b4;stroke:#1f77b4;" x="183.295324" xlink:href="#m25e41d122b" y="423.92692"/>
     <use style="fill:#1f77b4;stroke:#1f77b4;" x="187.707363" xlink:href="#m25e41d122b" y="422.957314"/>
     <use style="fill:#1f77b4;stroke:#1f77b4;" x="192.119404" xlink:href="#m25e41d122b" y="421.744461"/>
     <use style="fill:#1f77b4;stroke:#1f77b4;" x="196.531444" xlink:href="#m25e41d122b" y="420.422943"/>
     <use style="fill:#1f77b4;stroke:#1f77b4;" x="200.943483" xlink:href="#m25e41d122b" y="418.939472"/>
     <use style="fill:#1f77b4;stroke:#1f77b4;" x="205.355522" xlink:href="#m25e41d122b" y="417.299137"/>
     <use style="fill:#1f77b4;stroke:#1f77b4;" x="209.767564" xlink:href="#m25e41d122b" y="415.570181"/>
     <use style="fill:#1f77b4;stroke:#1f77b4;" x="214.179602" xlink:href="#m25e41d122b" y="413.87784"/>
     <use style="fill:#1f77b4;stroke:#1f77b4;" x="218.591641" xlink:href="#m25e41d122b" y="411.730534"/>
     <use style="fill:#1f77b4;stroke:#1f77b4;" x="223.003686" xlink:href="#m25e41d122b" y="409.604473"/>
     <use style="fill:#1f77b4;stroke:#1f77b4;" x="227.415716" xlink:href="#m25e41d122b" y="406.817393"/>
     <use style="fill:#1f77b4;stroke:#1f77b4;" x="231.827746" xlink:href="#m25e41d122b" y="404.306211"/>
     <use style="fill:#1f77b4;stroke:#1f77b4;" x="236.239806" xlink:href="#m25e41d122b" y="401.459798"/>
     <use style="fill:#1f77b4;stroke:#1f77b4;" x="240.651836" xlink:href="#m25e41d122b" y="398.513719"/>
     <use style="fill:#1f77b4;stroke:#1f77b4;" x="245.063866" xlink:href="#m25e41d122b" y="395.506454"/>
     <use style="fill:#1f77b4;stroke:#1f77b4;" x="249.475925" xlink:href="#m25e41d122b" y="392.236673"/>
     <use style="fill:#1f77b4;stroke:#1f77b4;" x="253.887955" xlink:href="#m25e41d122b" y="388.771867"/>
     <use style="fill:#1f77b4;stroke:#1f77b4;" x="258.299985" xlink:href="#m25e41d122b" y="385.217772"/>
     <use style="fill:#1f77b4;stroke:#1f77b4;" x="262.712045" xlink:href="#m25e41d122b" y="381.313125"/>
     <use style="fill:#1f77b4;stroke:#1f77b4;" x="267.124075" xlink:href="#m25e41d122b" y="377.49736"/>
     <use style="fill:#1f77b4;stroke:#1f77b4;" x="271.536105" xlink:href="#m25e41d122b" y="373.512502"/>
     <use style="fill:#1f77b4;stroke:#1f77b4;" x="275.948164" xlink:href="#m25e41d122b" y="369.396599"/>
     <use style="fill:#1f77b4;stroke:#1f77b4;" x="280.360194" xlink:href="#m25e41d122b" y="365.119184"/>
     <use style="fill:#1f77b4;stroke:#1f77b4;" x="284.772224" xlink:href="#m25e41d122b" y="360.76958"/>
     <use style="fill:#1f77b4;stroke:#1f77b4;" x="289.184284" xlink:href="#m25e41d122b" y="356.120562"/>
     <use style="fill:#1f77b4;stroke:#1f77b4;" x="293.596314" xlink:href="#m25e41d122b" y="351.134619"/>
     <use style="fill:#1f77b4;stroke:#1f77b4;" x="298.008344" xlink:href="#m25e41d122b" y="346.778133"/>
     <use style="fill:#1f77b4;stroke:#1f77b4;" x="302.420404" xlink:href="#m25e41d122b" y="341.553581"/>
     <use style="fill:#1f77b4;stroke:#1f77b4;" x="306.832433" xlink:href="#m25e41d122b" y="335.453174"/>
     <use style="fill:#1f77b4;stroke:#1f77b4;" x="311.244463" xlink:href="#m25e41d122b" y="332.364889"/>
     <use style="fill:#1f77b4;stroke:#1f77b4;" x="315.656523" xlink:href="#m25e41d122b" y="326.71697"/>
     <use style="fill:#1f77b4;stroke:#1f77b4;" x="320.068553" xlink:href="#m25e41d122b" y="320.408056"/>
     <use style="fill:#1f77b4;stroke:#1f77b4;" x="324.480583" xlink:href="#m25e41d122b" y="314.25359"/>
     <use style="fill:#1f77b4;stroke:#1f77b4;" x="328.892643" xlink:href="#m25e41d122b" y="307.32616"/>
     <use style="fill:#1f77b4;stroke:#1f77b4;" x="333.304673" xlink:href="#m25e41d122b" y="301.925203"/>
     <use style="fill:#1f77b4;stroke:#1f77b4;" x="337.716703" xlink:href="#m25e41d122b" y="295.092251"/>
     <use style="fill:#1f77b4;stroke:#1f77b4;" x="342.128762" xlink:href="#m25e41d122b" y="287.839047"/>
     <use style="fill:#1f77b4;stroke:#1f77b4;" x="346.540792" xlink:href="#m25e41d122b" y="280.212694"/>
     <use style="fill:#1f77b4;stroke:#1f77b4;" x="350.952822" xlink:href="#m25e41d122b" y="272.92036"/>
     <use style="fill:#1f77b4;stroke:#1f77b4;" x="355.364882" xlink:href="#m25e41d122b" y="265.663966"/>
     <use style="fill:#1f77b4;stroke:#1f77b4;" x="359.776912" xlink:href="#m25e41d122b" y="257.846011"/>
     <use style="fill:#1f77b4;stroke:#1f77b4;" x="364.188942" xlink:href="#m25e41d122b" y="248.850467"/>
     <use style="fill:#1f77b4;stroke:#1f77b4;" x="368.600972" xlink:href="#m25e41d122b" y="239.827079"/>
     <use style="fill:#1f77b4;stroke:#1f77b4;" x="373.013031" xlink:href="#m25e41d122b" y="230.820741"/>
     <use style="fill:#1f77b4;stroke:#1f77b4;" x="377.425061" xlink:href="#m25e41d122b" y="221.957921"/>
     <use style="fill:#1f77b4;stroke:#1f77b4;" x="381.837091" xlink:href="#m25e41d122b" y="212.390144"/>
     <use style="fill:#1f77b4;stroke:#1f77b4;" x="386.249151" xlink:href="#m25e41d122b" y="202.244981"/>
     <use style="fill:#1f77b4;stroke:#1f77b4;" x="390.661181" xlink:href="#m25e41d122b" y="191.240792"/>
     <use style="fill:#1f77b4;stroke:#1f77b4;" x="395.073211" xlink:href="#m25e41d122b" y="180.056775"/>
     <use style="fill:#1f77b4;stroke:#1f77b4;" x="399.485271" xlink:href="#m25e41d122b" y="168.51568"/>
     <use style="fill:#1f77b4;stroke:#1f77b4;" x="403.8973" xlink:href="#m25e41d122b" y="154.907427"/>
     <use style="fill:#1f77b4;stroke:#1f77b4;" x="408.30933" xlink:href="#m25e41d122b" y="140.79318"/>
     <use style="fill:#1f77b4;stroke:#1f77b4;" x="412.72139" xlink:href="#m25e41d122b" y="123.917612"/>
     <use style="fill:#1f77b4;stroke:#1f77b4;" x="417.13342" xlink:href="#m25e41d122b" y="106.862953"/>
     <use style="fill:#1f77b4;stroke:#1f77b4;" x="421.54545" xlink:href="#m25e41d122b" y="93.33566"/>
     <use style="fill:#1f77b4;stroke:#1f77b4;" x="425.95751" xlink:href="#m25e41d122b" y="81.450243"/>
     <use style="fill:#1f77b4;stroke:#1f77b4;" x="430.36954" xlink:href="#m25e41d122b" y="78.12"/>
    </g>
   </g>
   <g id="matplotlib.axis_1">
    <g id="xtick_1">
     <g id="line2d_1">
      <defs>
       <path d="M 0 0 
L 0 3.5 
" id="mcd166cf1db" style="stroke:#000000;stroke-width:0.8;"/>
      </defs>
      <g>
       <use style="stroke:#000000;stroke-width:0.8;" x="73.887477" xlink:href="#mcd166cf1db" y="448.56"/>
      </g>
     </g>
     <g id="text_1">
      <text style="font-family:DejaVu Sans;font-size:10px;font-style:normal;font-weight:normal;text-anchor:middle;" transform="rotate(-0, 73.887477, 463.158437)" x="73.887477" y="463.158437">−0.04</text>
     </g>
    </g>
    <g id="xtick_2">
     <g id="line2d_2">
      <g>
       <use style="stroke:#000000;stroke-width:0.8;" x="133.301154" xlink:href="#mcd166cf1db" y="448.56"/>
      </g>
     </g>
     <g id="text_2">
      <text style="font-family:DejaVu Sans;font-size:10px;font-style:normal;font-weight:normal;text-anchor:middle;" transform="rotate(-0, 133.301154, 463.158437)" x="133.301154" y="463.158437">−0.02</text>
     </g>
    </g>
    <g id="xtick_3">
     <g id="line2d_3">
      <g>
       <use style="stroke:#000000;stroke-width:0.8;" x="192.714831" xlink:href="#mcd166cf1db" y="448.56"/>
      </g>
     </g>
     <g id="text_3">
      <text style="font-family:DejaVu Sans;font-size:10px;font-style:normal;font-weight:normal;text-anchor:middle;" transform="rotate(-0, 192.714831, 463.158437)" x="192.714831" y="463.158437">0.00</text>
     </g>
    </g>
    <g id="xtick_4">
     <g id="line2d_4">
      <g>
       <use style="stroke:#000000;stroke-width:0.8;" x="252.128508" xlink:href="#mcd166cf1db" y="448.56"/>
      </g>
     </g>
     <g id="text_4">
      <text style="font-family:DejaVu Sans;font-size:10px;font-style:normal;font-weight:normal;text-anchor:middle;" transform="rotate(-0, 252.128508, 463.158437)" x="252.128508" y="463.158437">0.02</text>
     </g>
    </g>
    <g id="xtick_5">
     <g id="line2d_5">
      <g>
       <use style="stroke:#000000;stroke-width:0.8;" x="311.542185" xlink:href="#mcd166cf1db" y="448.56"/>
      </g>
     </g>
     <g id="text_5">
      <text style="font-family:DejaVu Sans;font-size:10px;font-style:normal;font-weight:normal;text-anchor:middle;" transform="rotate(-0, 311.542185, 463.158437)" x="311.542185" y="463.158437">0.04</text>
     </g>
    </g>
    <g id="xtick_6">
     <g id="line2d_6">
      <g>
       <use style="stroke:#000000;stroke-width:0.8;" x="370.955862" xlink:href="#mcd166cf1db" y="448.56"/>
      </g>
     </g>
     <g id="text_6">
      <text style="font-family:DejaVu Sans;font-size:10px;font-style:normal;font-weight:normal;text-anchor:middle;" transform="rotate(-0, 370.955862, 463.158437)" x="370.955862" y="463.158437">0.06</text>
     </g>
    </g>
    <g id="xtick_7">
     <g id="line2d_7">
      <g>
       <use style="stroke:#000000;stroke-width:0.8;" x="430.36954" xlink:href="#mcd166cf1db" y="448.56"/>
      </g>
     </g>
     <g id="text_7">
      <text style="font-family:DejaVu Sans;font-size:10px;font-style:normal;font-weight:normal;text-anchor:middle;" transform="rotate(-0, 430.36954, 463.158437)" x="430.36954" y="463.158437">0.08</text>
     </g>
    </g>
    <g id="text_8">
     <text style="font-family:DejaVu Sans;font-size:10px;font-style:normal;font-weight:normal;text-anchor:middle;" transform="rotate(-0, 258.3, 476.836563)" x="258.3" y="476.836563">mu [eV]</text>
    </g>
   </g>
   <g id="matplotlib.axis_2">
    <g id="ytick_1">
     <g id="line2d_8">
      <defs>
       <path d="M 0 0 
L -3.5 0 
" id="mb7f5c9e0e3" style="stroke:#000000;stroke-width:0.8;"/>
      </defs>
      <g>
       <use style="stroke:#000000;stroke-width:0.8;" x="63" xlink:href="#mb7f5c9e0e3" y="430.92"/>
      </g>
     </g>
     <g id="text_9">
      <!-- $\mathdefault{0.0}$ -->
      <g transform="translate(40 434.719219)">
       <text>
        <tspan style="font-family:DejaVu Sans;font-size:10px;font-style:book;font-weight:book;" x="0 6.362305 9.541016" y="-0.578125">0.0</tspan>
       </text>
      </g>
     </g>
    </g>
    <g id="ytick_2">
     <g id="line2d_9">
      <g>
       <use style="stroke:#000000;stroke-width:0.8;" x="63" xlink:href="#mb7f5c9e0e3" y="369.587307"/>
      </g>
     </g>
     <g id="text_10">
      <!-- $\mathdefault{0.5}$ -->
      <g transform="translate(40 373.386526)">
       <text>
        <tspan style="font-family:DejaVu Sans;font-size:10px;font-style:book;font-weight:book;" x="0 6.362305 9.541016" y="-0.578125">0.5</tspan>
       </text>
      </g>
     </g>
    </g>
    <g id="ytick_3">
     <g id="line2d_10">
      <g>
       <use style="stroke:#000000;stroke-width:0.8;" x="63" xlink:href="#mb7f5c9e0e3" y="308.254615"/>
      </g>
     </g>
     <g id="text_11">
      <!-- $\mathdefault{1.0}$ -->
      <g transform="translate(40 312.053833)">
       <text>
        <tspan style="font-family:DejaVu Sans;font-size:10px;font-style:book;font-weight:book;" x="0 6.362305 9.541016" y="-0.578125">1.0</tspan>
       </text>
      </g>
     </g>
    </g>
    <g id="ytick_4">
     <g id="line2d_11">
      <g>
       <use style="stroke:#000000;stroke-width:0.8;" x="63" xlink:href="#mb7f5c9e0e3" y="246.921922"/>
      </g>
     </g>
     <g id="text_12">
      <!-- $\mathdefault{1.5}$ -->
      <g transform="translate(40 250.721141)">
       <text>
        <tspan style="font-family:DejaVu Sans;font-size:10px;font-style:book;font-weight:book;" x="0 6.362305 9.541016" y="-0.703125">1.5</tspan>
       </text>
      </g>
     </g>
    </g>
    <g id="ytick_5">
     <g id="line2d_12">
      <g>
       <use style="stroke:#000000;stroke-width:0.8;" x="63" xlink:href="#mb7f5c9e0e3" y="185.589229"/>
      </g>
     </g>
     <g id="text_13">
      <!-- $\mathdefault{2.0}$ -->
      <g transform="translate(40 189.388448)">
       <text>
        <tspan style="font-family:DejaVu Sans;font-size:10px;font-style:book;font-weight:book;" x="0 6.362305 9.541016" y="-0.578125">2.0</tspan>
       </text>
      </g>
     </g>
    </g>
    <g id="ytick_6">
     <g id="line2d_13">
      <g>
       <use style="stroke:#000000;stroke-width:0.8;" x="63" xlink:href="#mb7f5c9e0e3" y="124.256537"/>
      </g>
     </g>
     <g id="text_14">
      <!-- $\mathdefault{2.5}$ -->
      <g transform="translate(40 128.055755)">
       <text>
        <tspan style="font-family:DejaVu Sans;font-size:10px;font-style:book;font-weight:book;" x="0 6.362305 9.541016" y="-0.578125">2.5</tspan>
       </text>
      </g>
     </g>
    </g>
    <g id="ytick_7">
     <g id="line2d_14">
      <g>
       <use style="stroke:#000000;stroke-width:0.8;" x="63" xlink:href="#mb7f5c9e0e3" y="62.923844"/>
      </g>
     </g>
     <g id="text_15">
      <!-- $\mathdefault{3.0}$ -->
      <g transform="translate(40 66.723063)">
       <text>
        <tspan style="font-family:DejaVu Sans;font-size:10px;font-style:book;font-weight:book;" x="0 6.362305 9.541016" y="-0.578125">3.0</tspan>
       </text>
      </g>
     </g>
    </g>
    <g id="text_16">
     <text style="font-family:DejaVu Sans;font-size:10px;font-style:normal;font-weight:normal;text-anchor:middle;" transform="rotate(-90, 33.920312, 254.52)" x="33.920312" y="254.52">DOS [/eV m3]</text>
    </g>
    <g id="text_17">
     <!-- $\times\mathdefault{10^{26}}\mathdefault{}$ -->
     <g transform="translate(63 57.48)">
      <text>
       <tspan style="font-family:DejaVu Sans;font-size:10px;font-style:book;font-weight:book;" x="0 8.378906 14.741211" y="-0.9765625">×10</tspan>
       <tspan style="font-family:DejaVu Sans;font-size:7px;font-style:book;font-weight:book;" x="21.199219 25.652832" y="-4.8046875">26</tspan>
      </text>
     </g>
    </g>
   </g>
   <g id="line2d_15">
    <path clip-path="url(#pc4906e8ed1)" d="M 86.23046 430.92 
L 90.64249 430.92 
L 95.05452 430.92 
L 96.67182 430.92 
L 101.821025 430.92 
L 105.217497 430.92 
L 107.449461 430.92 
L 108.909968 430.92 
L 109.860973 430.92 
L 110.476766 430.92 
L 110.872847 430.92 
L 111.125653 430.92 
L 111.285505 430.92 
L 111.385409 430.92 
L 111.446932 430.92 
L 111.484125 430.92 
L 111.506078 430.92 
L 111.518526 430.92 
L 111.525239 430.92 
L 111.531983 430.915319 
L 111.54443 430.912106 
L 111.566383 430.908464 
L 111.603576 430.903949 
L 111.665099 430.898411 
L 111.765003 430.891546 
L 111.924856 430.882742 
L 112.177661 430.871794 
L 112.573742 430.857129 
L 113.189535 430.837037 
L 114.14054 430.808743 
L 115.601018 430.767222 
L 117.833011 430.701774 
L 121.229483 430.594682 
L 126.378659 430.399751 
L 130.350849 430.22243 
L 134.762879 430.004601 
L 139.174939 429.739398 
L 143.586969 429.432645 
L 147.998999 429.084099 
L 152.411058 428.681722 
L 156.823088 428.230809 
L 161.235118 427.714983 
L 165.647166 427.174076 
L 170.059205 426.506377 
L 174.471247 425.731809 
L 178.883286 424.914368 
L 183.295324 423.92692 
L 187.707363 422.957314 
L 192.119404 421.744461 
L 196.531444 420.422943 
L 200.943483 418.939472 
L 205.355522 417.299137 
L 209.767564 415.570181 
L 214.179602 413.87784 
L 218.591641 411.730534 
L 223.003686 409.604473 
L 227.415716 406.817393 
L 231.827746 404.306211 
L 236.239806 401.459798 
L 240.651836 398.513719 
L 245.063866 395.506454 
L 249.475925 392.236673 
L 253.887955 388.771867 
L 258.299985 385.217772 
L 262.712045 381.313125 
L 267.124075 377.49736 
L 271.536105 373.512502 
L 275.948164 369.396599 
L 280.360194 365.119184 
L 284.772224 360.76958 
L 289.184284 356.120562 
L 293.596314 351.134619 
L 298.008344 346.778133 
L 302.420404 341.553581 
L 306.832433 335.453174 
L 311.244463 332.364889 
L 315.656523 326.71697 
L 320.068553 320.408056 
L 324.480583 314.25359 
L 328.892643 307.32616 
L 333.304673 301.925203 
L 337.716703 295.092251 
L 342.128762 287.839047 
L 346.540792 280.212694 
L 350.952822 272.92036 
L 355.364882 265.663966 
L 359.776912 257.846011 
L 364.188942 248.850467 
L 368.600972 239.827079 
L 373.013031 230.820741 
L 377.425061 221.957921 
L 381.837091 212.390144 
L 386.249151 202.244981 
L 390.661181 191.240792 
L 395.073211 180.056775 
L 399.485271 168.51568 
L 403.8973 154.907427 
L 408.30933 140.79318 
L 412.72139 123.917612 
L 417.13342 106.862953 
L 421.54545 93.33566 
L 425.95751 81.450243 
L 430.36954 78.12 
" style="fill:none;stroke:#1f77b4;stroke-linecap:square;stroke-width:1.5;"/>
   </g>
   <g id="patch_3">
    <path d="M 63 448.56 
L 63 60.48 
" style="fill:none;stroke:#000000;stroke-linecap:square;stroke-linejoin:miter;stroke-width:0.8;"/>
   </g>
   <g id="patch_4">
    <path d="M 453.6 448.56 
L 453.6 60.48 
" style="fill:none;stroke:#000000;stroke-linecap:square;stroke-linejoin:miter;stroke-width:0.8;"/>
   </g>
   <g id="patch_5">
    <path d="M 63 448.56 
L 453.6 448.56 
" style="fill:none;stroke:#000000;stroke-linecap:square;stroke-linejoin:miter;stroke-width:0.8;"/>
   </g>
   <g id="patch_6">
    <path d="M 63 60.48 
L 453.6 60.48 
" style="fill:none;stroke:#000000;stroke-linecap:square;stroke-linejoin:miter;stroke-width:0.8;"/>
   </g>
   <g id="text_18">
    <text style="font-family:DejaVu Sans;font-size:12px;font-style:normal;font-weight:normal;text-anchor:middle;" transform="rotate(-0, 258.3, 54.48)" x="258.3" y="54.48">dos</text>
   </g>
   <g id="legend_1">
    <g id="patch_7">
     <path d="M 70 83.158125 
L 142.95625 83.158125 
Q 144.95625 83.158125 144.95625 81.158125 
L 144.95625 67.48 
Q 144.95625 65.48 142.95625 65.48 
L 70 65.48 
Q 68 65.48 68 67.48 
L 68 81.158125 
Q 68 83.158125 70 83.158125 
z
" style="fill:#ffffff;opacity:0.8;stroke:#cccccc;stroke-linejoin:miter;"/>
    </g>
    <g id="PathCollection_2">
     <g>
      <use style="fill:#1f77b4;stroke:#1f77b4;" x="82" xlink:href="#m25e41d122b" y="74.453438"/>
     </g>
    </g>
    <g id="text_19">
     <text style="font-family:DejaVu Sans;font-size:10px;font-style:normal;font-weight:normal;text-anchor:start;" transform="rotate(-0, 100, 77.078438)" x="100" y="77.078438">numeric</text>
    </g>
   </g>
  </g>
 </g>
 <defs>
  <clipPath id="pc4906e8ed1">
   <rect height="388.08" width="390.6" x="63" y="60.48"/>
  </clipPath>
 </defs>
</svg>
