<?xml version="1.0" encoding="utf-8" standalone="no"?>
<!DOCTYPE svg PUBLIC "-//W3C//DTD SVG 1.1//EN"
  "http://www.w3.org/Graphics/SVG/1.1/DTD/svg11.dtd">
<!-- Created with matplotlib (https://matplotlib.org/) -->
<svg height="504pt" version="1.1" viewBox="0 0 504 504" width="504pt" xmlns="http://www.w3.org/2000/svg" xmlns:xlink="http://www.w3.org/1999/xlink">
 <defs>
  <style type="text/css">
*{stroke-linecap:butt;stroke-linejoin:round;}
  </style>
 </defs>
 <g id="figure_1">
  <g id="patch_1">
   <path d="M 0 504 
L 504 504 
L 504 0 
L 0 0 
z
" style="fill:#ffffff;"/>
  </g>
  <g id="axes_1">
   <g id="patch_2">
    <path d="M 63 448.56 
L 453.6 448.56 
L 453.6 60.48 
L 63 60.48 
z
" style="fill:#ffffff;"/>
   </g>
   <g id="PathCollection_1">
    <defs>
     <path d="M 0 1 
C 0.265203 1 0.51958 0.894634 0.707107 0.707107 
C 0.894634 0.51958 1 0.265203 1 0 
C 1 -0.265203 0.894634 -0.51958 0.707107 -0.707107 
C 0.51958 -0.894634 0.265203 -1 0 -1 
C -0.265203 -1 -0.51958 -0.894634 -0.707107 -0.707107 
C -0.894634 -0.51958 -1 -0.265203 -1 0 
C -1 0.265203 -0.894634 0.51958 -0.707107 0.707107 
C -0.51958 0.894634 -0.265203 1 0 1 
z
" id="med168e2a20" style="stroke:#1f77b4;"/>
    </defs>
    <g clip-path="url(#pab0a1b3185)">
     <use style="fill:#1f77b4;stroke:#1f77b4;" x="92.965869" xlink:href="#med168e2a20" y="78.12"/>
     <use style="fill:#1f77b4;stroke:#1f77b4;" x="97.205243" xlink:href="#med168e2a20" y="86.844786"/>
     <use style="fill:#1f77b4;stroke:#1f77b4;" x="101.444551" xlink:href="#med168e2a20" y="95.914826"/>
     <use style="fill:#1f77b4;stroke:#1f77b4;" x="105.683925" xlink:href="#med168e2a20" y="105.016141"/>
     <use style="fill:#1f77b4;stroke:#1f77b4;" x="109.923233" xlink:href="#med168e2a20" y="113.374651"/>
     <use style="fill:#1f77b4;stroke:#1f77b4;" x="114.162607" xlink:href="#med168e2a20" y="122.107884"/>
     <use style="fill:#1f77b4;stroke:#1f77b4;" x="118.401915" xlink:href="#med168e2a20" y="130.329815"/>
     <use style="fill:#1f77b4;stroke:#1f77b4;" x="122.641222" xlink:href="#med168e2a20" y="138.560063"/>
     <use style="fill:#1f77b4;stroke:#1f77b4;" x="126.880597" xlink:href="#med168e2a20" y="146.785282"/>
     <use style="fill:#1f77b4;stroke:#1f77b4;" x="131.119904" xlink:href="#med168e2a20" y="155.232201"/>
     <use style="fill:#1f77b4;stroke:#1f77b4;" x="135.359278" xlink:href="#med168e2a20" y="163.194192"/>
     <use style="fill:#1f77b4;stroke:#1f77b4;" x="139.598586" xlink:href="#med168e2a20" y="170.798611"/>
     <use style="fill:#1f77b4;stroke:#1f77b4;" x="143.83796" xlink:href="#med168e2a20" y="178.99449"/>
     <use style="fill:#1f77b4;stroke:#1f77b4;" x="148.077268" xlink:href="#med168e2a20" y="186.846726"/>
     <use style="fill:#1f77b4;stroke:#1f77b4;" x="152.316576" xlink:href="#med168e2a20" y="194.464752"/>
     <use style="fill:#1f77b4;stroke:#1f77b4;" x="156.55595" xlink:href="#med168e2a20" y="201.776151"/>
     <use style="fill:#1f77b4;stroke:#1f77b4;" x="160.795258" xlink:href="#med168e2a20" y="209.332981"/>
     <use style="fill:#1f77b4;stroke:#1f77b4;" x="165.034632" xlink:href="#med168e2a20" y="216.681136"/>
     <use style="fill:#1f77b4;stroke:#1f77b4;" x="169.27394" xlink:href="#med168e2a20" y="223.844541"/>
     <use style="fill:#1f77b4;stroke:#1f77b4;" x="173.513314" xlink:href="#med168e2a20" y="230.589696"/>
     <use style="fill:#1f77b4;stroke:#1f77b4;" x="177.752622" xlink:href="#med168e2a20" y="237.88478"/>
     <use style="fill:#1f77b4;stroke:#1f77b4;" x="181.991929" xlink:href="#med168e2a20" y="244.766191"/>
     <use style="fill:#1f77b4;stroke:#1f77b4;" x="186.231303" xlink:href="#med168e2a20" y="251.722986"/>
     <use style="fill:#1f77b4;stroke:#1f77b4;" x="190.470611" xlink:href="#med168e2a20" y="258.382375"/>
     <use style="fill:#1f77b4;stroke:#1f77b4;" x="194.709985" xlink:href="#med168e2a20" y="264.743519"/>
     <use style="fill:#1f77b4;stroke:#1f77b4;" x="198.949293" xlink:href="#med168e2a20" y="271.320109"/>
     <use style="fill:#1f77b4;stroke:#1f77b4;" x="203.188667" xlink:href="#med168e2a20" y="276.889827"/>
     <use style="fill:#1f77b4;stroke:#1f77b4;" x="207.427975" xlink:href="#med168e2a20" y="283.12026"/>
     <use style="fill:#1f77b4;stroke:#1f77b4;" x="211.667349" xlink:href="#med168e2a20" y="289.296138"/>
     <use style="fill:#1f77b4;stroke:#1f77b4;" x="215.906657" xlink:href="#med168e2a20" y="295.331955"/>
     <use style="fill:#1f77b4;stroke:#1f77b4;" x="220.145965" xlink:href="#med168e2a20" y="301.257244"/>
     <use style="fill:#1f77b4;stroke:#1f77b4;" x="224.385339" xlink:href="#med168e2a20" y="307.023835"/>
     <use style="fill:#1f77b4;stroke:#1f77b4;" x="228.624647" xlink:href="#med168e2a20" y="312.714398"/>
     <use style="fill:#1f77b4;stroke:#1f77b4;" x="232.864021" xlink:href="#med168e2a20" y="318.268768"/>
     <use style="fill:#1f77b4;stroke:#1f77b4;" x="237.103328" xlink:href="#med168e2a20" y="323.83223"/>
     <use style="fill:#1f77b4;stroke:#1f77b4;" x="241.342702" xlink:href="#med168e2a20" y="329.180183"/>
     <use style="fill:#1f77b4;stroke:#1f77b4;" x="245.58201" xlink:href="#med168e2a20" y="334.374145"/>
     <use style="fill:#1f77b4;stroke:#1f77b4;" x="249.821318" xlink:href="#med168e2a20" y="339.434817"/>
     <use style="fill:#1f77b4;stroke:#1f77b4;" x="254.060692" xlink:href="#med168e2a20" y="344.639999"/>
     <use style="fill:#1f77b4;stroke:#1f77b4;" x="258.3" xlink:href="#med168e2a20" y="349.343035"/>
     <use style="fill:#1f77b4;stroke:#1f77b4;" x="262.539374" xlink:href="#med168e2a20" y="354.125969"/>
     <use style="fill:#1f77b4;stroke:#1f77b4;" x="266.778682" xlink:href="#med168e2a20" y="358.811013"/>
     <use style="fill:#1f77b4;stroke:#1f77b4;" x="271.018056" xlink:href="#med168e2a20" y="363.38179"/>
     <use style="fill:#1f77b4;stroke:#1f77b4;" x="275.257364" xlink:href="#med168e2a20" y="367.740334"/>
     <use style="fill:#1f77b4;stroke:#1f77b4;" x="279.496672" xlink:href="#med168e2a20" y="372.088005"/>
     <use style="fill:#1f77b4;stroke:#1f77b4;" x="283.736046" xlink:href="#med168e2a20" y="376.308904"/>
     <use style="fill:#1f77b4;stroke:#1f77b4;" x="287.975353" xlink:href="#med168e2a20" y="380.228168"/>
     <use style="fill:#1f77b4;stroke:#1f77b4;" x="292.214728" xlink:href="#med168e2a20" y="384.375728"/>
     <use style="fill:#1f77b4;stroke:#1f77b4;" x="296.454035" xlink:href="#med168e2a20" y="387.850495"/>
     <use style="fill:#1f77b4;stroke:#1f77b4;" x="300.693409" xlink:href="#med168e2a20" y="391.5342"/>
     <use style="fill:#1f77b4;stroke:#1f77b4;" x="304.932717" xlink:href="#med168e2a20" y="395.067365"/>
     <use style="fill:#1f77b4;stroke:#1f77b4;" x="309.172025" xlink:href="#med168e2a20" y="398.433016"/>
     <use style="fill:#1f77b4;stroke:#1f77b4;" x="313.411399" xlink:href="#med168e2a20" y="401.744377"/>
     <use style="fill:#1f77b4;stroke:#1f77b4;" x="317.639842" xlink:href="#med168e2a20" y="404.860839"/>
     <use style="fill:#1f77b4;stroke:#1f77b4;" x="331.4191" xlink:href="#med168e2a20" y="414.206546"/>
     <use style="fill:#1f77b4;stroke:#1f77b4;" x="340.50811" xlink:href="#med168e2a20" y="419.624517"/>
     <use style="fill:#1f77b4;stroke:#1f77b4;" x="346.480888" xlink:href="#med168e2a20" y="422.984591"/>
     <use style="fill:#1f77b4;stroke:#1f77b4;" x="350.389163" xlink:href="#med168e2a20" y="425.164953"/>
     <use style="fill:#1f77b4;stroke:#1f77b4;" x="352.934086" xlink:href="#med168e2a20" y="426.586374"/>
     <use style="fill:#1f77b4;stroke:#1f77b4;" x="354.581899" xlink:href="#med168e2a20" y="427.631464"/>
     <use style="fill:#1f77b4;stroke:#1f77b4;" x="355.641908" xlink:href="#med168e2a20" y="428.413176"/>
     <use style="fill:#1f77b4;stroke:#1f77b4;" x="356.318417" xlink:href="#med168e2a20" y="428.988842"/>
     <use style="fill:#1f77b4;stroke:#1f77b4;" x="356.746104" xlink:href="#med168e2a20" y="429.443303"/>
     <use style="fill:#1f77b4;stroke:#1f77b4;" x="357.013475" xlink:href="#med168e2a20" y="429.79945"/>
     <use style="fill:#1f77b4;stroke:#1f77b4;" x="357.178097" xlink:href="#med168e2a20" y="430.089087"/>
     <use style="fill:#1f77b4;stroke:#1f77b4;" x="357.277665" xlink:href="#med168e2a20" y="430.318485"/>
     <use style="fill:#1f77b4;stroke:#1f77b4;" x="357.33636" xlink:href="#med168e2a20" y="430.510721"/>
     <use style="fill:#1f77b4;stroke:#1f77b4;" x="357.369748" xlink:href="#med168e2a20" y="430.676585"/>
     <use style="fill:#1f77b4;stroke:#1f77b4;" x="357.387701" xlink:href="#med168e2a20" y="430.92"/>
     <use style="fill:#1f77b4;stroke:#1f77b4;" x="357.405653" xlink:href="#med168e2a20" y="430.92"/>
     <use style="fill:#1f77b4;stroke:#1f77b4;" x="357.439042" xlink:href="#med168e2a20" y="430.92"/>
     <use style="fill:#1f77b4;stroke:#1f77b4;" x="357.497736" xlink:href="#med168e2a20" y="430.92"/>
     <use style="fill:#1f77b4;stroke:#1f77b4;" x="357.597304" xlink:href="#med168e2a20" y="430.92"/>
     <use style="fill:#1f77b4;stroke:#1f77b4;" x="357.761993" xlink:href="#med168e2a20" y="430.92"/>
     <use style="fill:#1f77b4;stroke:#1f77b4;" x="358.029297" xlink:href="#med168e2a20" y="430.92"/>
     <use style="fill:#1f77b4;stroke:#1f77b4;" x="358.457051" xlink:href="#med168e2a20" y="430.92"/>
     <use style="fill:#1f77b4;stroke:#1f77b4;" x="359.133493" xlink:href="#med168e2a20" y="430.92"/>
     <use style="fill:#1f77b4;stroke:#1f77b4;" x="360.193502" xlink:href="#med168e2a20" y="430.92"/>
     <use style="fill:#1f77b4;stroke:#1f77b4;" x="361.841316" xlink:href="#med168e2a20" y="430.92"/>
     <use style="fill:#1f77b4;stroke:#1f77b4;" x="364.386239" xlink:href="#med168e2a20" y="430.92"/>
     <use style="fill:#1f77b4;stroke:#1f77b4;" x="368.294513" xlink:href="#med168e2a20" y="430.92"/>
     <use style="fill:#1f77b4;stroke:#1f77b4;" x="374.267291" xlink:href="#med168e2a20" y="430.92"/>
     <use style="fill:#1f77b4;stroke:#1f77b4;" x="383.356301" xlink:href="#med168e2a20" y="430.92"/>
     <use style="fill:#1f77b4;stroke:#1f77b4;" x="397.135559" xlink:href="#med168e2a20" y="430.92"/>
     <use style="fill:#1f77b4;stroke:#1f77b4;" x="398.198152" xlink:href="#med168e2a20" y="430.92"/>
     <use style="fill:#1f77b4;stroke:#1f77b4;" x="402.437459" xlink:href="#med168e2a20" y="430.92"/>
     <use style="fill:#1f77b4;stroke:#1f77b4;" x="406.676767" xlink:href="#med168e2a20" y="430.92"/>
     <use style="fill:#1f77b4;stroke:#1f77b4;" x="410.916141" xlink:href="#med168e2a20" y="430.92"/>
     <use style="fill:#1f77b4;stroke:#1f77b4;" x="415.155449" xlink:href="#med168e2a20" y="430.92"/>
     <use style="fill:#1f77b4;stroke:#1f77b4;" x="419.394823" xlink:href="#med168e2a20" y="430.92"/>
     <use style="fill:#1f77b4;stroke:#1f77b4;" x="423.634131" xlink:href="#med168e2a20" y="430.92"/>
    </g>
   </g>
   <g id="matplotlib.axis_1">
    <g id="xtick_1">
     <g id="line2d_1">
      <defs>
       <path d="M 0 0 
L 0 3.5 
" id="mf82b1c0aab" style="stroke:#000000;stroke-width:0.8;"/>
      </defs>
      <g>
       <use style="stroke:#000000;stroke-width:0.8;" x="88.726561" xlink:href="#mf82b1c0aab" y="448.56"/>
      </g>
     </g>
     <g id="text_1">
      <text style="font-family:DejaVu Sans;font-size:10px;font-style:normal;font-weight:normal;text-anchor:middle;" transform="rotate(-0, 88.726561, 463.158437)" x="88.726561" y="463.158437">−0.08</text>
     </g>
    </g>
    <g id="xtick_2">
     <g id="line2d_2">
      <g>
       <use style="stroke:#000000;stroke-width:0.8;" x="154.972992" xlink:href="#mf82b1c0aab" y="448.56"/>
      </g>
     </g>
     <g id="text_2">
      <text style="font-family:DejaVu Sans;font-size:10px;font-style:normal;font-weight:normal;text-anchor:middle;" transform="rotate(-0, 154.972992, 463.158437)" x="154.972992" y="463.158437">−0.07</text>
     </g>
    </g>
    <g id="xtick_3">
     <g id="line2d_3">
      <g>
       <use style="stroke:#000000;stroke-width:0.8;" x="221.219422" xlink:href="#mf82b1c0aab" y="448.56"/>
      </g>
     </g>
     <g id="text_3">
      <text style="font-family:DejaVu Sans;font-size:10px;font-style:normal;font-weight:normal;text-anchor:middle;" transform="rotate(-0, 221.219422, 463.158437)" x="221.219422" y="463.158437">−0.06</text>
     </g>
    </g>
    <g id="xtick_4">
     <g id="line2d_4">
      <g>
       <use style="stroke:#000000;stroke-width:0.8;" x="287.465852" xlink:href="#mf82b1c0aab" y="448.56"/>
      </g>
     </g>
     <g id="text_4">
      <text style="font-family:DejaVu Sans;font-size:10px;font-style:normal;font-weight:normal;text-anchor:middle;" transform="rotate(-0, 287.465852, 463.158437)" x="287.465852" y="463.158437">−0.05</text>
     </g>
    </g>
    <g id="xtick_5">
     <g id="line2d_5">
      <g>
       <use style="stroke:#000000;stroke-width:0.8;" x="353.712282" xlink:href="#mf82b1c0aab" y="448.56"/>
      </g>
     </g>
     <g id="text_5">
      <text style="font-family:DejaVu Sans;font-size:10px;font-style:normal;font-weight:normal;text-anchor:middle;" transform="rotate(-0, 353.712282, 463.158437)" x="353.712282" y="463.158437">−0.04</text>
     </g>
    </g>
    <g id="xtick_6">
     <g id="line2d_6">
      <g>
       <use style="stroke:#000000;stroke-width:0.8;" x="419.958713" xlink:href="#mf82b1c0aab" y="448.56"/>
      </g>
     </g>
     <g id="text_6">
      <text style="font-family:DejaVu Sans;font-size:10px;font-style:normal;font-weight:normal;text-anchor:middle;" transform="rotate(-0, 419.958713, 463.158437)" x="419.958713" y="463.158437">−0.03</text>
     </g>
    </g>
    <g id="text_7">
     <text style="font-family:DejaVu Sans;font-size:10px;font-style:normal;font-weight:normal;text-anchor:middle;" transform="rotate(-0, 258.3, 476.836563)" x="258.3" y="476.836563">mu [eV]</text>
    </g>
   </g>
   <g id="matplotlib.axis_2">
    <g id="ytick_1">
     <g id="line2d_7">
      <defs>
       <path d="M 0 0 
L -3.5 0 
" id="m0ad17097a2" style="stroke:#000000;stroke-width:0.8;"/>
      </defs>
      <g>
       <use style="stroke:#000000;stroke-width:0.8;" x="63" xlink:href="#m0ad17097a2" y="430.92"/>
      </g>
     </g>
     <g id="text_8">
      <!-- $\mathdefault{0}$ -->
      <g transform="translate(49.6 434.719219)">
       <text>
        <tspan style="font-family:DejaVu Sans;font-size:10px;font-style:book;font-weight:book;" x="0" y="-0.578125">0</tspan>
       </text>
      </g>
     </g>
    </g>
    <g id="ytick_2">
     <g id="line2d_8">
      <g>
       <use style="stroke:#000000;stroke-width:0.8;" x="63" xlink:href="#m0ad17097a2" y="366.434779"/>
      </g>
     </g>
     <g id="text_9">
      <!-- $\mathdefault{1}$ -->
      <g transform="translate(49.6 370.233997)">
       <text>
        <tspan style="font-family:DejaVu Sans;font-size:10px;font-style:book;font-weight:book;" x="0" y="-0.703125">1</tspan>
       </text>
      </g>
     </g>
    </g>
    <g id="ytick_3">
     <g id="line2d_9">
      <g>
       <use style="stroke:#000000;stroke-width:0.8;" x="63" xlink:href="#m0ad17097a2" y="301.949557"/>
      </g>
     </g>
     <g id="text_10">
      <!-- $\mathdefault{2}$ -->
      <g transform="translate(49.6 305.748776)">
       <text>
        <tspan style="font-family:DejaVu Sans;font-size:10px;font-style:book;font-weight:book;" x="0" y="-0.578125">2</tspan>
       </text>
      </g>
     </g>
    </g>
    <g id="ytick_4">
     <g id="line2d_10">
      <g>
       <use style="stroke:#000000;stroke-width:0.8;" x="63" xlink:href="#m0ad17097a2" y="237.464336"/>
      </g>
     </g>
     <g id="text_11">
      <!-- $\mathdefault{3}$ -->
      <g transform="translate(49.6 241.263555)">
       <text>
        <tspan style="font-family:DejaVu Sans;font-size:10px;font-style:book;font-weight:book;" x="0" y="-0.578125">3</tspan>
       </text>
      </g>
     </g>
    </g>
    <g id="ytick_5">
     <g id="line2d_11">
      <g>
       <use style="stroke:#000000;stroke-width:0.8;" x="63" xlink:href="#m0ad17097a2" y="172.979115"/>
      </g>
     </g>
     <g id="text_12">
      <!-- $\mathdefault{4}$ -->
      <g transform="translate(49.6 176.778333)">
       <text>
        <tspan style="font-family:DejaVu Sans;font-size:10px;font-style:book;font-weight:book;" x="0" y="-0.703125">4</tspan>
       </text>
      </g>
     </g>
    </g>
    <g id="ytick_6">
     <g id="line2d_12">
      <g>
       <use style="stroke:#000000;stroke-width:0.8;" x="63" xlink:href="#m0ad17097a2" y="108.493893"/>
      </g>
     </g>
     <g id="text_13">
      <!-- $\mathdefault{5}$ -->
      <g transform="translate(49.6 112.293112)">
       <text>
        <tspan style="font-family:DejaVu Sans;font-size:10px;font-style:book;font-weight:book;" x="0" y="-0.703125">5</tspan>
       </text>
      </g>
     </g>
    </g>
    <g id="text_14">
     <text style="font-family:DejaVu Sans;font-size:10px;font-style:normal;font-weight:normal;text-anchor:middle;" transform="rotate(-90, 43.520313, 254.52)" x="43.520313" y="254.52">DOS [/eV m3]</text>
    </g>
    <g id="text_15">
     <!-- $\times\mathdefault{10^{24}}\mathdefault{}$ -->
     <g transform="translate(63 57.48)">
      <text>
       <tspan style="font-family:DejaVu Sans;font-size:10px;font-style:book;font-weight:book;" x="0 8.378906 14.741211" y="-0.9765625">×10</tspan>
       <tspan style="font-family:DejaVu Sans;font-size:7px;font-style:book;font-weight:book;" x="21.199219 25.652832" y="-4.8046875">24</tspan>
      </text>
     </g>
    </g>
   </g>
   <g id="line2d_13">
    <path clip-path="url(#pab0a1b3185)" d="M 92.965869 78.12 
L 97.205243 86.844786 
L 101.444551 95.914826 
L 105.683925 105.016141 
L 109.923233 113.374651 
L 114.162607 122.107884 
L 118.401915 130.329815 
L 122.641222 138.560063 
L 126.880597 146.785282 
L 131.119904 155.232201 
L 135.359278 163.194192 
L 139.598586 170.798611 
L 143.83796 178.99449 
L 148.077268 186.846726 
L 152.316576 194.464752 
L 156.55595 201.776151 
L 160.795258 209.332981 
L 165.034632 216.681136 
L 169.27394 223.844541 
L 173.513314 230.589696 
L 177.752622 237.88478 
L 181.991929 244.766191 
L 186.231303 251.722986 
L 190.470611 258.382375 
L 194.709985 264.743519 
L 198.949293 271.320109 
L 203.188667 276.889827 
L 207.427975 283.12026 
L 211.667349 289.296138 
L 215.906657 295.331955 
L 220.145965 301.257244 
L 224.385339 307.023835 
L 228.624647 312.714398 
L 232.864021 318.268768 
L 237.103328 323.83223 
L 241.342702 329.180183 
L 245.58201 334.374145 
L 249.821318 339.434817 
L 254.060692 344.639999 
L 258.3 349.343035 
L 262.539374 354.125969 
L 266.778682 358.811013 
L 271.018056 363.38179 
L 275.257364 367.740334 
L 279.496672 372.088005 
L 283.736046 376.308904 
L 287.975353 380.228168 
L 292.214728 384.375728 
L 296.454035 387.850495 
L 300.693409 391.5342 
L 304.932717 395.067365 
L 309.172025 398.433016 
L 313.411399 401.744377 
L 317.639842 404.860839 
L 331.4191 414.206546 
L 340.50811 419.624517 
L 346.480888 422.984591 
L 350.389163 425.164953 
L 352.934086 426.586374 
L 354.581899 427.631464 
L 355.641908 428.413176 
L 356.318417 428.988842 
L 356.746104 429.443303 
L 357.013475 429.79945 
L 357.178097 430.089087 
L 357.277665 430.318485 
L 357.33636 430.510721 
L 357.369748 430.676585 
L 357.387701 430.92 
L 357.405653 430.92 
L 357.439042 430.92 
L 357.497736 430.92 
L 357.597304 430.92 
L 357.761993 430.92 
L 358.029297 430.92 
L 358.457051 430.92 
L 359.133493 430.92 
L 360.193502 430.92 
L 361.841316 430.92 
L 364.386239 430.92 
L 368.294513 430.92 
L 374.267291 430.92 
L 383.356301 430.92 
L 397.135559 430.92 
L 398.198152 430.92 
L 402.437459 430.92 
L 406.676767 430.92 
L 410.916141 430.92 
L 415.155449 430.92 
L 419.394823 430.92 
L 423.634131 430.92 
" style="fill:none;stroke:#1f77b4;stroke-linecap:square;stroke-width:1.5;"/>
   </g>
   <g id="patch_3">
    <path d="M 63 448.56 
L 63 60.48 
" style="fill:none;stroke:#000000;stroke-linecap:square;stroke-linejoin:miter;stroke-width:0.8;"/>
   </g>
   <g id="patch_4">
    <path d="M 453.6 448.56 
L 453.6 60.48 
" style="fill:none;stroke:#000000;stroke-linecap:square;stroke-linejoin:miter;stroke-width:0.8;"/>
   </g>
   <g id="patch_5">
    <path d="M 63 448.56 
L 453.6 448.56 
" style="fill:none;stroke:#000000;stroke-linecap:square;stroke-linejoin:miter;stroke-width:0.8;"/>
   </g>
   <g id="patch_6">
    <path d="M 63 60.48 
L 453.6 60.48 
" style="fill:none;stroke:#000000;stroke-linecap:square;stroke-linejoin:miter;stroke-width:0.8;"/>
   </g>
   <g id="text_16">
    <text style="font-family:DejaVu Sans;font-size:12px;font-style:normal;font-weight:normal;text-anchor:middle;" transform="rotate(-0, 258.3, 54.48)" x="258.3" y="54.48">dos</text>
   </g>
   <g id="legend_1">
    <g id="patch_7">
     <path d="M 373.64375 83.158125 
L 446.6 83.158125 
Q 448.6 83.158125 448.6 81.158125 
L 448.6 67.48 
Q 448.6 65.48 446.6 65.48 
L 373.64375 65.48 
Q 371.64375 65.48 371.64375 67.48 
L 371.64375 81.158125 
Q 371.64375 83.158125 373.64375 83.158125 
z
" style="fill:#ffffff;opacity:0.8;stroke:#cccccc;stroke-linejoin:miter;"/>
    </g>
    <g id="PathCollection_2">
     <g>
      <use style="fill:#1f77b4;stroke:#1f77b4;" x="385.64375" xlink:href="#med168e2a20" y="74.453438"/>
     </g>
    </g>
    <g id="text_17">
     <text style="font-family:DejaVu Sans;font-size:10px;font-style:normal;font-weight:normal;text-anchor:start;" transform="rotate(-0, 403.64375, 77.078438)" x="403.64375" y="77.078438">numeric</text>
    </g>
   </g>
  </g>
 </g>
 <defs>
  <clipPath id="pab0a1b3185">
   <rect height="388.08" width="390.6" x="63" y="60.48"/>
  </clipPath>
 </defs>
</svg>
