<?xml version="1.0" encoding="utf-8" standalone="no"?>
<!DOCTYPE svg PUBLIC "-//W3C//DTD SVG 1.1//EN"
  "http://www.w3.org/Graphics/SVG/1.1/DTD/svg11.dtd">
<!-- Created with matplotlib (https://matplotlib.org/) -->
<svg height="504pt" version="1.1" viewBox="0 0 504 504" width="504pt" xmlns="http://www.w3.org/2000/svg" xmlns:xlink="http://www.w3.org/1999/xlink">
 <defs>
  <style type="text/css">
*{stroke-linecap:butt;stroke-linejoin:round;}
  </style>
 </defs>
 <g id="figure_1">
  <g id="patch_1">
   <path d="M 0 504 
L 504 504 
L 504 0 
L 0 0 
z
" style="fill:#ffffff;"/>
  </g>
  <g id="axes_1">
   <g id="patch_2">
    <path d="M 63 448.56 
L 453.6 448.56 
L 453.6 60.48 
L 63 60.48 
z
" style="fill:#ffffff;"/>
   </g>
   <g id="PathCollection_1">
    <defs>
     <path d="M 0 1 
C 0.265203 1 0.51958 0.894634 0.707107 0.707107 
C 0.894634 0.51958 1 0.265203 1 0 
C 1 -0.265203 0.894634 -0.51958 0.707107 -0.707107 
C 0.51958 -0.894634 0.265203 -1 0 -1 
C -0.265203 -1 -0.51958 -0.894634 -0.707107 -0.707107 
C -0.894634 -0.51958 -1 -0.265203 -1 0 
C -1 0.265203 -0.894634 0.51958 -0.707107 0.707107 
C -0.51958 0.894634 -0.265203 1 0 1 
z
" id="m99234cd222" style="stroke:#1f77b4;"/>
    </defs>
    <g clip-path="url(#p3778c62fa6)">
     <use style="fill:#1f77b4;stroke:#1f77b4;" x="85.020595" xlink:href="#m99234cd222" y="78.12"/>
     <use style="fill:#1f77b4;stroke:#1f77b4;" x="89.463696" xlink:href="#m99234cd222" y="87.277273"/>
     <use style="fill:#1f77b4;stroke:#1f77b4;" x="93.906727" xlink:href="#m99234cd222" y="95.991721"/>
     <use style="fill:#1f77b4;stroke:#1f77b4;" x="98.349828" xlink:href="#m99234cd222" y="105.022916"/>
     <use style="fill:#1f77b4;stroke:#1f77b4;" x="102.79286" xlink:href="#m99234cd222" y="113.372611"/>
     <use style="fill:#1f77b4;stroke:#1f77b4;" x="107.23596" xlink:href="#m99234cd222" y="122.054847"/>
     <use style="fill:#1f77b4;stroke:#1f77b4;" x="111.678992" xlink:href="#m99234cd222" y="130.330183"/>
     <use style="fill:#1f77b4;stroke:#1f77b4;" x="116.122023" xlink:href="#m99234cd222" y="138.705995"/>
     <use style="fill:#1f77b4;stroke:#1f77b4;" x="120.565124" xlink:href="#m99234cd222" y="146.729864"/>
     <use style="fill:#1f77b4;stroke:#1f77b4;" x="125.008155" xlink:href="#m99234cd222" y="154.967237"/>
     <use style="fill:#1f77b4;stroke:#1f77b4;" x="129.451256" xlink:href="#m99234cd222" y="163.339593"/>
     <use style="fill:#1f77b4;stroke:#1f77b4;" x="133.894288" xlink:href="#m99234cd222" y="170.953064"/>
     <use style="fill:#1f77b4;stroke:#1f77b4;" x="138.337389" xlink:href="#m99234cd222" y="178.813087"/>
     <use style="fill:#1f77b4;stroke:#1f77b4;" x="142.78042" xlink:href="#m99234cd222" y="186.616821"/>
     <use style="fill:#1f77b4;stroke:#1f77b4;" x="147.223451" xlink:href="#m99234cd222" y="194.390768"/>
     <use style="fill:#1f77b4;stroke:#1f77b4;" x="151.666552" xlink:href="#m99234cd222" y="201.808932"/>
     <use style="fill:#1f77b4;stroke:#1f77b4;" x="156.109584" xlink:href="#m99234cd222" y="209.362079"/>
     <use style="fill:#1f77b4;stroke:#1f77b4;" x="160.552684" xlink:href="#m99234cd222" y="216.565215"/>
     <use style="fill:#1f77b4;stroke:#1f77b4;" x="164.995716" xlink:href="#m99234cd222" y="223.957778"/>
     <use style="fill:#1f77b4;stroke:#1f77b4;" x="169.438817" xlink:href="#m99234cd222" y="230.661156"/>
     <use style="fill:#1f77b4;stroke:#1f77b4;" x="173.881848" xlink:href="#m99234cd222" y="237.800771"/>
     <use style="fill:#1f77b4;stroke:#1f77b4;" x="178.324879" xlink:href="#m99234cd222" y="244.365262"/>
     <use style="fill:#1f77b4;stroke:#1f77b4;" x="182.76798" xlink:href="#m99234cd222" y="251.513332"/>
     <use style="fill:#1f77b4;stroke:#1f77b4;" x="187.211012" xlink:href="#m99234cd222" y="258.19965"/>
     <use style="fill:#1f77b4;stroke:#1f77b4;" x="191.654112" xlink:href="#m99234cd222" y="264.865281"/>
     <use style="fill:#1f77b4;stroke:#1f77b4;" x="196.097144" xlink:href="#m99234cd222" y="271.040081"/>
     <use style="fill:#1f77b4;stroke:#1f77b4;" x="200.540245" xlink:href="#m99234cd222" y="277.129278"/>
     <use style="fill:#1f77b4;stroke:#1f77b4;" x="204.983276" xlink:href="#m99234cd222" y="283.462731"/>
     <use style="fill:#1f77b4;stroke:#1f77b4;" x="209.426377" xlink:href="#m99234cd222" y="289.506819"/>
     <use style="fill:#1f77b4;stroke:#1f77b4;" x="213.869408" xlink:href="#m99234cd222" y="295.501593"/>
     <use style="fill:#1f77b4;stroke:#1f77b4;" x="218.31244" xlink:href="#m99234cd222" y="301.421085"/>
     <use style="fill:#1f77b4;stroke:#1f77b4;" x="222.755541" xlink:href="#m99234cd222" y="307.104691"/>
     <use style="fill:#1f77b4;stroke:#1f77b4;" x="227.198572" xlink:href="#m99234cd222" y="312.892054"/>
     <use style="fill:#1f77b4;stroke:#1f77b4;" x="231.641673" xlink:href="#m99234cd222" y="318.380611"/>
     <use style="fill:#1f77b4;stroke:#1f77b4;" x="236.084704" xlink:href="#m99234cd222" y="323.95344"/>
     <use style="fill:#1f77b4;stroke:#1f77b4;" x="240.527805" xlink:href="#m99234cd222" y="329.290318"/>
     <use style="fill:#1f77b4;stroke:#1f77b4;" x="244.970836" xlink:href="#m99234cd222" y="334.366995"/>
     <use style="fill:#1f77b4;stroke:#1f77b4;" x="249.413868" xlink:href="#m99234cd222" y="339.568762"/>
     <use style="fill:#1f77b4;stroke:#1f77b4;" x="253.856969" xlink:href="#m99234cd222" y="344.715999"/>
     <use style="fill:#1f77b4;stroke:#1f77b4;" x="258.3" xlink:href="#m99234cd222" y="349.520179"/>
     <use style="fill:#1f77b4;stroke:#1f77b4;" x="262.743101" xlink:href="#m99234cd222" y="354.2553"/>
     <use style="fill:#1f77b4;stroke:#1f77b4;" x="267.186132" xlink:href="#m99234cd222" y="358.961795"/>
     <use style="fill:#1f77b4;stroke:#1f77b4;" x="271.629233" xlink:href="#m99234cd222" y="363.490794"/>
     <use style="fill:#1f77b4;stroke:#1f77b4;" x="276.072264" xlink:href="#m99234cd222" y="367.832835"/>
     <use style="fill:#1f77b4;stroke:#1f77b4;" x="280.515296" xlink:href="#m99234cd222" y="372.08729"/>
     <use style="fill:#1f77b4;stroke:#1f77b4;" x="284.958397" xlink:href="#m99234cd222" y="376.353228"/>
     <use style="fill:#1f77b4;stroke:#1f77b4;" x="289.401428" xlink:href="#m99234cd222" y="380.322728"/>
     <use style="fill:#1f77b4;stroke:#1f77b4;" x="293.844529" xlink:href="#m99234cd222" y="384.402062"/>
     <use style="fill:#1f77b4;stroke:#1f77b4;" x="298.28756" xlink:href="#m99234cd222" y="387.970549"/>
     <use style="fill:#1f77b4;stroke:#1f77b4;" x="302.730661" xlink:href="#m99234cd222" y="391.595745"/>
     <use style="fill:#1f77b4;stroke:#1f77b4;" x="307.173693" xlink:href="#m99234cd222" y="395.131373"/>
     <use style="fill:#1f77b4;stroke:#1f77b4;" x="311.616724" xlink:href="#m99234cd222" y="398.533742"/>
     <use style="fill:#1f77b4;stroke:#1f77b4;" x="316.059825" xlink:href="#m99234cd222" y="401.806751"/>
     <use style="fill:#1f77b4;stroke:#1f77b4;" x="320.49147" xlink:href="#m99234cd222" y="404.90766"/>
     <use style="fill:#1f77b4;stroke:#1f77b4;" x="334.932901" xlink:href="#m99234cd222" y="414.237204"/>
     <use style="fill:#1f77b4;stroke:#1f77b4;" x="344.458692" xlink:href="#m99234cd222" y="419.661842"/>
     <use style="fill:#1f77b4;stroke:#1f77b4;" x="350.718497" xlink:href="#m99234cd222" y="423.004881"/>
     <use style="fill:#1f77b4;stroke:#1f77b4;" x="354.814587" xlink:href="#m99234cd222" y="425.169939"/>
     <use style="fill:#1f77b4;stroke:#1f77b4;" x="357.481808" xlink:href="#m99234cd222" y="426.597583"/>
     <use style="fill:#1f77b4;stroke:#1f77b4;" x="359.208809" xlink:href="#m99234cd222" y="427.641781"/>
     <use style="fill:#1f77b4;stroke:#1f77b4;" x="360.319758" xlink:href="#m99234cd222" y="428.416756"/>
     <use style="fill:#1f77b4;stroke:#1f77b4;" x="361.028776" xlink:href="#m99234cd222" y="428.992802"/>
     <use style="fill:#1f77b4;stroke:#1f77b4;" x="361.477016" xlink:href="#m99234cd222" y="429.446645"/>
     <use style="fill:#1f77b4;stroke:#1f77b4;" x="361.757235" xlink:href="#m99234cd222" y="429.802312"/>
     <use style="fill:#1f77b4;stroke:#1f77b4;" x="361.929769" xlink:href="#m99234cd222" y="430.089587"/>
     <use style="fill:#1f77b4;stroke:#1f77b4;" x="362.034122" xlink:href="#m99234cd222" y="430.320189"/>
     <use style="fill:#1f77b4;stroke:#1f77b4;" x="362.095637" xlink:href="#m99234cd222" y="430.511268"/>
     <use style="fill:#1f77b4;stroke:#1f77b4;" x="362.13063" xlink:href="#m99234cd222" y="430.677654"/>
     <use style="fill:#1f77b4;stroke:#1f77b4;" x="362.149445" xlink:href="#m99234cd222" y="430.92"/>
     <use style="fill:#1f77b4;stroke:#1f77b4;" x="362.168261" xlink:href="#m99234cd222" y="430.92"/>
     <use style="fill:#1f77b4;stroke:#1f77b4;" x="362.203254" xlink:href="#m99234cd222" y="430.92"/>
     <use style="fill:#1f77b4;stroke:#1f77b4;" x="362.264768" xlink:href="#m99234cd222" y="430.92"/>
     <use style="fill:#1f77b4;stroke:#1f77b4;" x="362.369122" xlink:href="#m99234cd222" y="430.92"/>
     <use style="fill:#1f77b4;stroke:#1f77b4;" x="362.541725" xlink:href="#m99234cd222" y="430.92"/>
     <use style="fill:#1f77b4;stroke:#1f77b4;" x="362.821874" xlink:href="#m99234cd222" y="430.92"/>
     <use style="fill:#1f77b4;stroke:#1f77b4;" x="363.270184" xlink:href="#m99234cd222" y="430.92"/>
     <use style="fill:#1f77b4;stroke:#1f77b4;" x="363.979133" xlink:href="#m99234cd222" y="430.92"/>
     <use style="fill:#1f77b4;stroke:#1f77b4;" x="365.090082" xlink:href="#m99234cd222" y="430.92"/>
     <use style="fill:#1f77b4;stroke:#1f77b4;" x="366.817083" xlink:href="#m99234cd222" y="430.92"/>
     <use style="fill:#1f77b4;stroke:#1f77b4;" x="369.484304" xlink:href="#m99234cd222" y="430.92"/>
     <use style="fill:#1f77b4;stroke:#1f77b4;" x="373.580394" xlink:href="#m99234cd222" y="430.92"/>
     <use style="fill:#1f77b4;stroke:#1f77b4;" x="379.840199" xlink:href="#m99234cd222" y="430.92"/>
     <use style="fill:#1f77b4;stroke:#1f77b4;" x="389.365989" xlink:href="#m99234cd222" y="430.92"/>
     <use style="fill:#1f77b4;stroke:#1f77b4;" x="403.807421" xlink:href="#m99234cd222" y="430.92"/>
     <use style="fill:#1f77b4;stroke:#1f77b4;" x="404.921078" xlink:href="#m99234cd222" y="430.92"/>
     <use style="fill:#1f77b4;stroke:#1f77b4;" x="409.364109" xlink:href="#m99234cd222" y="430.92"/>
     <use style="fill:#1f77b4;stroke:#1f77b4;" x="413.80714" xlink:href="#m99234cd222" y="430.92"/>
     <use style="fill:#1f77b4;stroke:#1f77b4;" x="418.250241" xlink:href="#m99234cd222" y="430.92"/>
     <use style="fill:#1f77b4;stroke:#1f77b4;" x="422.693273" xlink:href="#m99234cd222" y="430.92"/>
     <use style="fill:#1f77b4;stroke:#1f77b4;" x="427.136373" xlink:href="#m99234cd222" y="430.92"/>
     <use style="fill:#1f77b4;stroke:#1f77b4;" x="431.579405" xlink:href="#m99234cd222" y="430.92"/>
    </g>
   </g>
   <g id="matplotlib.axis_1">
    <g id="xtick_1">
     <g id="line2d_1">
      <defs>
       <path d="M 0 0 
L 0 3.5 
" id="m3ac3e1c73d" style="stroke:#000000;stroke-width:0.8;"/>
      </defs>
      <g>
       <use style="stroke:#000000;stroke-width:0.8;" x="80.577564" xlink:href="#m3ac3e1c73d" y="448.56"/>
      </g>
     </g>
     <g id="text_1">
      <text style="font-family:DejaVu Sans;font-size:10px;font-style:normal;font-weight:normal;text-anchor:middle;" transform="rotate(-0, 80.577564, 463.158437)" x="80.577564" y="463.158437">−0.24</text>
     </g>
    </g>
    <g id="xtick_2">
     <g id="line2d_2">
      <g>
       <use style="stroke:#000000;stroke-width:0.8;" x="126.864203" xlink:href="#m3ac3e1c73d" y="448.56"/>
      </g>
     </g>
     <g id="text_2">
      <text style="font-family:DejaVu Sans;font-size:10px;font-style:normal;font-weight:normal;text-anchor:middle;" transform="rotate(-0, 126.864203, 463.158437)" x="126.864203" y="463.158437">−0.22</text>
     </g>
    </g>
    <g id="xtick_3">
     <g id="line2d_3">
      <g>
       <use style="stroke:#000000;stroke-width:0.8;" x="173.150843" xlink:href="#m3ac3e1c73d" y="448.56"/>
      </g>
     </g>
     <g id="text_3">
      <text style="font-family:DejaVu Sans;font-size:10px;font-style:normal;font-weight:normal;text-anchor:middle;" transform="rotate(-0, 173.150843, 463.158437)" x="173.150843" y="463.158437">−0.20</text>
     </g>
    </g>
    <g id="xtick_4">
     <g id="line2d_4">
      <g>
       <use style="stroke:#000000;stroke-width:0.8;" x="219.437483" xlink:href="#m3ac3e1c73d" y="448.56"/>
      </g>
     </g>
     <g id="text_4">
      <text style="font-family:DejaVu Sans;font-size:10px;font-style:normal;font-weight:normal;text-anchor:middle;" transform="rotate(-0, 219.437483, 463.158437)" x="219.437483" y="463.158437">−0.18</text>
     </g>
    </g>
    <g id="xtick_5">
     <g id="line2d_5">
      <g>
       <use style="stroke:#000000;stroke-width:0.8;" x="265.724122" xlink:href="#m3ac3e1c73d" y="448.56"/>
      </g>
     </g>
     <g id="text_5">
      <text style="font-family:DejaVu Sans;font-size:10px;font-style:normal;font-weight:normal;text-anchor:middle;" transform="rotate(-0, 265.724122, 463.158437)" x="265.724122" y="463.158437">−0.16</text>
     </g>
    </g>
    <g id="xtick_6">
     <g id="line2d_6">
      <g>
       <use style="stroke:#000000;stroke-width:0.8;" x="312.010762" xlink:href="#m3ac3e1c73d" y="448.56"/>
      </g>
     </g>
     <g id="text_6">
      <text style="font-family:DejaVu Sans;font-size:10px;font-style:normal;font-weight:normal;text-anchor:middle;" transform="rotate(-0, 312.010762, 463.158437)" x="312.010762" y="463.158437">−0.14</text>
     </g>
    </g>
    <g id="xtick_7">
     <g id="line2d_7">
      <g>
       <use style="stroke:#000000;stroke-width:0.8;" x="358.297402" xlink:href="#m3ac3e1c73d" y="448.56"/>
      </g>
     </g>
     <g id="text_7">
      <text style="font-family:DejaVu Sans;font-size:10px;font-style:normal;font-weight:normal;text-anchor:middle;" transform="rotate(-0, 358.297402, 463.158437)" x="358.297402" y="463.158437">−0.12</text>
     </g>
    </g>
    <g id="xtick_8">
     <g id="line2d_8">
      <g>
       <use style="stroke:#000000;stroke-width:0.8;" x="404.584041" xlink:href="#m3ac3e1c73d" y="448.56"/>
      </g>
     </g>
     <g id="text_8">
      <text style="font-family:DejaVu Sans;font-size:10px;font-style:normal;font-weight:normal;text-anchor:middle;" transform="rotate(-0, 404.584041, 463.158437)" x="404.584041" y="463.158437">−0.10</text>
     </g>
    </g>
    <g id="xtick_9">
     <g id="line2d_9">
      <g>
       <use style="stroke:#000000;stroke-width:0.8;" x="450.870681" xlink:href="#m3ac3e1c73d" y="448.56"/>
      </g>
     </g>
     <g id="text_9">
      <text style="font-family:DejaVu Sans;font-size:10px;font-style:normal;font-weight:normal;text-anchor:middle;" transform="rotate(-0, 450.870681, 463.158437)" x="450.870681" y="463.158437">−0.08</text>
     </g>
    </g>
    <g id="text_10">
     <text style="font-family:DejaVu Sans;font-size:10px;font-style:normal;font-weight:normal;text-anchor:middle;" transform="rotate(-0, 258.3, 476.836563)" x="258.3" y="476.836563">mu [eV]</text>
    </g>
   </g>
   <g id="matplotlib.axis_2">
    <g id="ytick_1">
     <g id="line2d_10">
      <defs>
       <path d="M 0 0 
L -3.5 0 
" id="m24cc1cf8ea" style="stroke:#000000;stroke-width:0.8;"/>
      </defs>
      <g>
       <use style="stroke:#000000;stroke-width:0.8;" x="63" xlink:href="#m24cc1cf8ea" y="430.92"/>
      </g>
     </g>
     <g id="text_11">
      <!-- $\mathdefault{0.00}$ -->
      <g transform="translate(33.7 434.719219)">
       <text>
        <tspan style="font-family:DejaVu Sans;font-size:10px;font-style:book;font-weight:book;" x="0 6.362305 9.541016 15.90332" y="-0.578125">0.00</tspan>
       </text>
      </g>
     </g>
    </g>
    <g id="ytick_2">
     <g id="line2d_11">
      <g>
       <use style="stroke:#000000;stroke-width:0.8;" x="63" xlink:href="#m24cc1cf8ea" y="377.270309"/>
      </g>
     </g>
     <g id="text_12">
      <!-- $\mathdefault{0.25}$ -->
      <g transform="translate(33.7 381.069528)">
       <text>
        <tspan style="font-family:DejaVu Sans;font-size:10px;font-style:book;font-weight:book;" x="0 6.362305 9.541016 15.90332" y="-0.578125">0.25</tspan>
       </text>
      </g>
     </g>
    </g>
    <g id="ytick_3">
     <g id="line2d_12">
      <g>
       <use style="stroke:#000000;stroke-width:0.8;" x="63" xlink:href="#m24cc1cf8ea" y="323.620619"/>
      </g>
     </g>
     <g id="text_13">
      <!-- $\mathdefault{0.50}$ -->
      <g transform="translate(33.7 327.419838)">
       <text>
        <tspan style="font-family:DejaVu Sans;font-size:10px;font-style:book;font-weight:book;" x="0 6.362305 9.541016 15.90332" y="-0.578125">0.50</tspan>
       </text>
      </g>
     </g>
    </g>
    <g id="ytick_4">
     <g id="line2d_13">
      <g>
       <use style="stroke:#000000;stroke-width:0.8;" x="63" xlink:href="#m24cc1cf8ea" y="269.970928"/>
      </g>
     </g>
     <g id="text_14">
      <!-- $\mathdefault{0.75}$ -->
      <g transform="translate(33.7 273.770147)">
       <text>
        <tspan style="font-family:DejaVu Sans;font-size:10px;font-style:book;font-weight:book;" x="0 6.362305 9.541016 15.90332" y="-0.578125">0.75</tspan>
       </text>
      </g>
     </g>
    </g>
    <g id="ytick_5">
     <g id="line2d_14">
      <g>
       <use style="stroke:#000000;stroke-width:0.8;" x="63" xlink:href="#m24cc1cf8ea" y="216.321238"/>
      </g>
     </g>
     <g id="text_15">
      <!-- $\mathdefault{1.00}$ -->
      <g transform="translate(33.7 220.120457)">
       <text>
        <tspan style="font-family:DejaVu Sans;font-size:10px;font-style:book;font-weight:book;" x="0 6.362305 9.541016 15.90332" y="-0.578125">1.00</tspan>
       </text>
      </g>
     </g>
    </g>
    <g id="ytick_6">
     <g id="line2d_15">
      <g>
       <use style="stroke:#000000;stroke-width:0.8;" x="63" xlink:href="#m24cc1cf8ea" y="162.671547"/>
      </g>
     </g>
     <g id="text_16">
      <!-- $\mathdefault{1.25}$ -->
      <g transform="translate(33.7 166.470766)">
       <text>
        <tspan style="font-family:DejaVu Sans;font-size:10px;font-style:book;font-weight:book;" x="0 6.362305 9.541016 15.90332" y="-0.578125">1.25</tspan>
       </text>
      </g>
     </g>
    </g>
    <g id="ytick_7">
     <g id="line2d_16">
      <g>
       <use style="stroke:#000000;stroke-width:0.8;" x="63" xlink:href="#m24cc1cf8ea" y="109.021857"/>
      </g>
     </g>
     <g id="text_17">
      <!-- $\mathdefault{1.50}$ -->
      <g transform="translate(33.7 112.821076)">
       <text>
        <tspan style="font-family:DejaVu Sans;font-size:10px;font-style:book;font-weight:book;" x="0 6.362305 9.541016 15.90332" y="-0.578125">1.50</tspan>
       </text>
      </g>
     </g>
    </g>
    <g id="text_18">
     <text style="font-family:DejaVu Sans;font-size:10px;font-style:normal;font-weight:normal;text-anchor:middle;" transform="rotate(-90, 27.620313, 254.52)" x="27.620313" y="254.52">DOS [/eV m3]</text>
    </g>
    <g id="text_19">
     <!-- $\times\mathdefault{10^{25}}\mathdefault{}$ -->
     <g transform="translate(63 57.48)">
      <text>
       <tspan style="font-family:DejaVu Sans;font-size:10px;font-style:book;font-weight:book;" x="0 8.378906 14.741211" y="-0.9765625">×10</tspan>
       <tspan style="font-family:DejaVu Sans;font-size:7px;font-style:book;font-weight:book;" x="21.199219 25.652832" y="-4.8046875">25</tspan>
      </text>
     </g>
    </g>
   </g>
   <g id="line2d_17">
    <path clip-path="url(#p3778c62fa6)" d="M 85.020595 78.12 
L 89.463696 87.277273 
L 93.906727 95.991721 
L 98.349828 105.022916 
L 102.79286 113.372611 
L 107.23596 122.054847 
L 111.678992 130.330183 
L 116.122023 138.705995 
L 120.565124 146.729864 
L 125.008155 154.967237 
L 129.451256 163.339593 
L 133.894288 170.953064 
L 138.337389 178.813087 
L 142.78042 186.616821 
L 147.223451 194.390768 
L 151.666552 201.808932 
L 156.109584 209.362079 
L 160.552684 216.565215 
L 164.995716 223.957778 
L 169.438817 230.661156 
L 173.881848 237.800771 
L 178.324879 244.365262 
L 182.76798 251.513332 
L 187.211012 258.19965 
L 191.654112 264.865281 
L 196.097144 271.040081 
L 200.540245 277.129278 
L 204.983276 283.462731 
L 209.426377 289.506819 
L 213.869408 295.501593 
L 218.31244 301.421085 
L 222.755541 307.104691 
L 227.198572 312.892054 
L 231.641673 318.380611 
L 236.084704 323.95344 
L 240.527805 329.290318 
L 244.970836 334.366995 
L 249.413868 339.568762 
L 253.856969 344.715999 
L 258.3 349.520179 
L 262.743101 354.2553 
L 267.186132 358.961795 
L 271.629233 363.490794 
L 276.072264 367.832835 
L 280.515296 372.08729 
L 284.958397 376.353228 
L 289.401428 380.322728 
L 293.844529 384.402062 
L 298.28756 387.970549 
L 302.730661 391.595745 
L 307.173693 395.131373 
L 311.616724 398.533742 
L 316.059825 401.806751 
L 320.49147 404.90766 
L 334.932901 414.237204 
L 344.458692 419.661842 
L 350.718497 423.004881 
L 354.814587 425.169939 
L 357.481808 426.597583 
L 359.208809 427.641781 
L 360.319758 428.416756 
L 361.028776 428.992802 
L 361.477016 429.446645 
L 361.757235 429.802312 
L 361.929769 430.089587 
L 362.034122 430.320189 
L 362.095637 430.511268 
L 362.13063 430.677654 
L 362.149445 430.92 
L 362.168261 430.92 
L 362.203254 430.92 
L 362.264768 430.92 
L 362.369122 430.92 
L 362.541725 430.92 
L 362.821874 430.92 
L 363.270184 430.92 
L 363.979133 430.92 
L 365.090082 430.92 
L 366.817083 430.92 
L 369.484304 430.92 
L 373.580394 430.92 
L 379.840199 430.92 
L 389.365989 430.92 
L 403.807421 430.92 
L 404.921078 430.92 
L 409.364109 430.92 
L 413.80714 430.92 
L 418.250241 430.92 
L 422.693273 430.92 
L 427.136373 430.92 
L 431.579405 430.92 
" style="fill:none;stroke:#1f77b4;stroke-linecap:square;stroke-width:1.5;"/>
   </g>
   <g id="patch_3">
    <path d="M 63 448.56 
L 63 60.48 
" style="fill:none;stroke:#000000;stroke-linecap:square;stroke-linejoin:miter;stroke-width:0.8;"/>
   </g>
   <g id="patch_4">
    <path d="M 453.6 448.56 
L 453.6 60.48 
" style="fill:none;stroke:#000000;stroke-linecap:square;stroke-linejoin:miter;stroke-width:0.8;"/>
   </g>
   <g id="patch_5">
    <path d="M 63 448.56 
L 453.6 448.56 
" style="fill:none;stroke:#000000;stroke-linecap:square;stroke-linejoin:miter;stroke-width:0.8;"/>
   </g>
   <g id="patch_6">
    <path d="M 63 60.48 
L 453.6 60.48 
" style="fill:none;stroke:#000000;stroke-linecap:square;stroke-linejoin:miter;stroke-width:0.8;"/>
   </g>
   <g id="text_20">
    <text style="font-family:DejaVu Sans;font-size:12px;font-style:normal;font-weight:normal;text-anchor:middle;" transform="rotate(-0, 258.3, 54.48)" x="258.3" y="54.48">dos</text>
   </g>
   <g id="legend_1">
    <g id="patch_7">
     <path d="M 373.64375 83.158125 
L 446.6 83.158125 
Q 448.6 83.158125 448.6 81.158125 
L 448.6 67.48 
Q 448.6 65.48 446.6 65.48 
L 373.64375 65.48 
Q 371.64375 65.48 371.64375 67.48 
L 371.64375 81.158125 
Q 371.64375 83.158125 373.64375 83.158125 
z
" style="fill:#ffffff;opacity:0.8;stroke:#cccccc;stroke-linejoin:miter;"/>
    </g>
    <g id="PathCollection_2">
     <g>
      <use style="fill:#1f77b4;stroke:#1f77b4;" x="385.64375" xlink:href="#m99234cd222" y="74.453438"/>
     </g>
    </g>
    <g id="text_21">
     <text style="font-family:DejaVu Sans;font-size:10px;font-style:normal;font-weight:normal;text-anchor:start;" transform="rotate(-0, 403.64375, 77.078438)" x="403.64375" y="77.078438">numeric</text>
    </g>
   </g>
  </g>
 </g>
 <defs>
  <clipPath id="p3778c62fa6">
   <rect height="388.08" width="390.6" x="63" y="60.48"/>
  </clipPath>
 </defs>
</svg>
