<?xml version="1.0" encoding="utf-8" standalone="no"?>
<!DOCTYPE svg PUBLIC "-//W3C//DTD SVG 1.1//EN"
  "http://www.w3.org/Graphics/SVG/1.1/DTD/svg11.dtd">
<!-- Created with matplotlib (https://matplotlib.org/) -->
<svg height="504pt" version="1.1" viewBox="0 0 504 504" width="504pt" xmlns="http://www.w3.org/2000/svg" xmlns:xlink="http://www.w3.org/1999/xlink">
 <defs>
  <style type="text/css">
*{stroke-linecap:butt;stroke-linejoin:round;}
  </style>
 </defs>
 <g id="figure_1">
  <g id="patch_1">
   <path d="M 0 504 
L 504 504 
L 504 0 
L 0 0 
z
" style="fill:#ffffff;"/>
  </g>
  <g id="axes_1">
   <g id="patch_2">
    <path d="M 63 448.56 
L 453.6 448.56 
L 453.6 60.48 
L 63 60.48 
z
" style="fill:#ffffff;"/>
   </g>
   <g id="PathCollection_1">
    <defs>
     <path d="M 0 1 
C 0.265203 1 0.51958 0.894634 0.707107 0.707107 
C 0.894634 0.51958 1 0.265203 1 0 
C 1 -0.265203 0.894634 -0.51958 0.707107 -0.707107 
C 0.51958 -0.894634 0.265203 -1 0 -1 
C -0.265203 -1 -0.51958 -0.894634 -0.707107 -0.707107 
C -0.894634 -0.51958 -1 -0.265203 -1 0 
C -1 0.265203 -0.894634 0.51958 -0.707107 0.707107 
C -0.51958 0.894634 -0.265203 1 0 1 
z
" id="m4bfc166125" style="stroke:#1f77b4;"/>
    </defs>
    <g clip-path="url(#p24f4dfc972)">
     <use style="fill:#1f77b4;stroke:#1f77b4;" x="83.566882" xlink:href="#m4bfc166125" y="430.92"/>
     <use style="fill:#1f77b4;stroke:#1f77b4;" x="88.047199" xlink:href="#m4bfc166125" y="430.92"/>
     <use style="fill:#1f77b4;stroke:#1f77b4;" x="92.527563" xlink:href="#m4bfc166125" y="430.92"/>
     <use style="fill:#1f77b4;stroke:#1f77b4;" x="97.00788" xlink:href="#m4bfc166125" y="430.92"/>
     <use style="fill:#1f77b4;stroke:#1f77b4;" x="101.488243" xlink:href="#m4bfc166125" y="430.92"/>
     <use style="fill:#1f77b4;stroke:#1f77b4;" x="101.971903" xlink:href="#m4bfc166125" y="430.92"/>
     <use style="fill:#1f77b4;stroke:#1f77b4;" x="109.905534" xlink:href="#m4bfc166125" y="430.92"/>
     <use style="fill:#1f77b4;stroke:#1f77b4;" x="115.138643" xlink:href="#m4bfc166125" y="430.92"/>
     <use style="fill:#1f77b4;stroke:#1f77b4;" x="118.577539" xlink:href="#m4bfc166125" y="430.92"/>
     <use style="fill:#1f77b4;stroke:#1f77b4;" x="120.827813" xlink:href="#m4bfc166125" y="430.92"/>
     <use style="fill:#1f77b4;stroke:#1f77b4;" x="122.293072" xlink:href="#m4bfc166125" y="430.92"/>
     <use style="fill:#1f77b4;stroke:#1f77b4;" x="123.241855" xlink:href="#m4bfc166125" y="430.92"/>
     <use style="fill:#1f77b4;stroke:#1f77b4;" x="123.852116" xlink:href="#m4bfc166125" y="430.92"/>
     <use style="fill:#1f77b4;stroke:#1f77b4;" x="124.241626" xlink:href="#m4bfc166125" y="430.92"/>
     <use style="fill:#1f77b4;stroke:#1f77b4;" x="124.487918" xlink:href="#m4bfc166125" y="430.92"/>
     <use style="fill:#1f77b4;stroke:#1f77b4;" x="124.641845" xlink:href="#m4bfc166125" y="430.92"/>
     <use style="fill:#1f77b4;stroke:#1f77b4;" x="124.736636" xlink:href="#m4bfc166125" y="430.92"/>
     <use style="fill:#1f77b4;stroke:#1f77b4;" x="124.793941" xlink:href="#m4bfc166125" y="430.92"/>
     <use style="fill:#1f77b4;stroke:#1f77b4;" x="124.827766" xlink:href="#m4bfc166125" y="430.92"/>
     <use style="fill:#1f77b4;stroke:#1f77b4;" x="124.846944" xlink:href="#m4bfc166125" y="430.92"/>
     <use style="fill:#1f77b4;stroke:#1f77b4;" x="124.857288" xlink:href="#m4bfc166125" y="430.92"/>
     <use style="fill:#1f77b4;stroke:#1f77b4;" x="124.867678" xlink:href="#m4bfc166125" y="430.903343"/>
     <use style="fill:#1f77b4;stroke:#1f77b4;" x="124.886856" xlink:href="#m4bfc166125" y="430.891775"/>
     <use style="fill:#1f77b4;stroke:#1f77b4;" x="124.920681" xlink:href="#m4bfc166125" y="430.878964"/>
     <use style="fill:#1f77b4;stroke:#1f77b4;" x="124.977986" xlink:href="#m4bfc166125" y="430.862868"/>
     <use style="fill:#1f77b4;stroke:#1f77b4;" x="125.072777" xlink:href="#m4bfc166125" y="430.843121"/>
     <use style="fill:#1f77b4;stroke:#1f77b4;" x="125.226704" xlink:href="#m4bfc166125" y="430.818766"/>
     <use style="fill:#1f77b4;stroke:#1f77b4;" x="125.472997" xlink:href="#m4bfc166125" y="430.787724"/>
     <use style="fill:#1f77b4;stroke:#1f77b4;" x="125.862506" xlink:href="#m4bfc166125" y="430.748455"/>
     <use style="fill:#1f77b4;stroke:#1f77b4;" x="126.472768" xlink:href="#m4bfc166125" y="430.695545"/>
     <use style="fill:#1f77b4;stroke:#1f77b4;" x="127.42155" xlink:href="#m4bfc166125" y="430.623741"/>
     <use style="fill:#1f77b4;stroke:#1f77b4;" x="128.886809" xlink:href="#m4bfc166125" y="430.526463"/>
     <use style="fill:#1f77b4;stroke:#1f77b4;" x="131.137038" xlink:href="#m4bfc166125" y="430.37694"/>
     <use style="fill:#1f77b4;stroke:#1f77b4;" x="134.575979" xlink:href="#m4bfc166125" y="430.145367"/>
     <use style="fill:#1f77b4;stroke:#1f77b4;" x="139.809088" xlink:href="#m4bfc166125" y="429.76541"/>
     <use style="fill:#1f77b4;stroke:#1f77b4;" x="147.742673" xlink:href="#m4bfc166125" y="429.0762"/>
     <use style="fill:#1f77b4;stroke:#1f77b4;" x="150.77192" xlink:href="#m4bfc166125" y="428.776005"/>
     <use style="fill:#1f77b4;stroke:#1f77b4;" x="155.252238" xlink:href="#m4bfc166125" y="428.287813"/>
     <use style="fill:#1f77b4;stroke:#1f77b4;" x="159.732601" xlink:href="#m4bfc166125" y="427.760173"/>
     <use style="fill:#1f77b4;stroke:#1f77b4;" x="164.212919" xlink:href="#m4bfc166125" y="427.187959"/>
     <use style="fill:#1f77b4;stroke:#1f77b4;" x="168.693282" xlink:href="#m4bfc166125" y="426.513891"/>
     <use style="fill:#1f77b4;stroke:#1f77b4;" x="173.1736" xlink:href="#m4bfc166125" y="425.80522"/>
     <use style="fill:#1f77b4;stroke:#1f77b4;" x="177.653963" xlink:href="#m4bfc166125" y="425.024232"/>
     <use style="fill:#1f77b4;stroke:#1f77b4;" x="182.134281" xlink:href="#m4bfc166125" y="424.163613"/>
     <use style="fill:#1f77b4;stroke:#1f77b4;" x="186.614598" xlink:href="#m4bfc166125" y="423.224917"/>
     <use style="fill:#1f77b4;stroke:#1f77b4;" x="191.094961" xlink:href="#m4bfc166125" y="422.211718"/>
     <use style="fill:#1f77b4;stroke:#1f77b4;" x="195.575279" xlink:href="#m4bfc166125" y="421.128388"/>
     <use style="fill:#1f77b4;stroke:#1f77b4;" x="200.055642" xlink:href="#m4bfc166125" y="419.914671"/>
     <use style="fill:#1f77b4;stroke:#1f77b4;" x="204.53596" xlink:href="#m4bfc166125" y="418.6256"/>
     <use style="fill:#1f77b4;stroke:#1f77b4;" x="209.016296" xlink:href="#m4bfc166125" y="417.283743"/>
     <use style="fill:#1f77b4;stroke:#1f77b4;" x="213.496632" xlink:href="#m4bfc166125" y="415.75023"/>
     <use style="fill:#1f77b4;stroke:#1f77b4;" x="217.976968" xlink:href="#m4bfc166125" y="414.121528"/>
     <use style="fill:#1f77b4;stroke:#1f77b4;" x="222.457308" xlink:href="#m4bfc166125" y="412.323817"/>
     <use style="fill:#1f77b4;stroke:#1f77b4;" x="226.937644" xlink:href="#m4bfc166125" y="410.427949"/>
     <use style="fill:#1f77b4;stroke:#1f77b4;" x="231.41798" xlink:href="#m4bfc166125" y="408.31571"/>
     <use style="fill:#1f77b4;stroke:#1f77b4;" x="235.898316" xlink:href="#m4bfc166125" y="406.039378"/>
     <use style="fill:#1f77b4;stroke:#1f77b4;" x="240.378652" xlink:href="#m4bfc166125" y="403.578787"/>
     <use style="fill:#1f77b4;stroke:#1f77b4;" x="244.858988" xlink:href="#m4bfc166125" y="400.97444"/>
     <use style="fill:#1f77b4;stroke:#1f77b4;" x="249.339325" xlink:href="#m4bfc166125" y="398.195808"/>
     <use style="fill:#1f77b4;stroke:#1f77b4;" x="253.819661" xlink:href="#m4bfc166125" y="395.168476"/>
     <use style="fill:#1f77b4;stroke:#1f77b4;" x="258.3" xlink:href="#m4bfc166125" y="391.941322"/>
     <use style="fill:#1f77b4;stroke:#1f77b4;" x="262.780336" xlink:href="#m4bfc166125" y="388.374568"/>
     <use style="fill:#1f77b4;stroke:#1f77b4;" x="267.260672" xlink:href="#m4bfc166125" y="384.736519"/>
     <use style="fill:#1f77b4;stroke:#1f77b4;" x="271.741008" xlink:href="#m4bfc166125" y="380.55422"/>
     <use style="fill:#1f77b4;stroke:#1f77b4;" x="276.221344" xlink:href="#m4bfc166125" y="376.32556"/>
     <use style="fill:#1f77b4;stroke:#1f77b4;" x="280.70168" xlink:href="#m4bfc166125" y="372.097335"/>
     <use style="fill:#1f77b4;stroke:#1f77b4;" x="285.182015" xlink:href="#m4bfc166125" y="367.861871"/>
     <use style="fill:#1f77b4;stroke:#1f77b4;" x="289.662351" xlink:href="#m4bfc166125" y="362.582773"/>
     <use style="fill:#1f77b4;stroke:#1f77b4;" x="294.142687" xlink:href="#m4bfc166125" y="357.690558"/>
     <use style="fill:#1f77b4;stroke:#1f77b4;" x="298.623041" xlink:href="#m4bfc166125" y="351.764624"/>
     <use style="fill:#1f77b4;stroke:#1f77b4;" x="303.103359" xlink:href="#m4bfc166125" y="346.135016"/>
     <use style="fill:#1f77b4;stroke:#1f77b4;" x="307.583677" xlink:href="#m4bfc166125" y="339.759221"/>
     <use style="fill:#1f77b4;stroke:#1f77b4;" x="312.06404" xlink:href="#m4bfc166125" y="333.300152"/>
     <use style="fill:#1f77b4;stroke:#1f77b4;" x="316.544358" xlink:href="#m4bfc166125" y="326.77684"/>
     <use style="fill:#1f77b4;stroke:#1f77b4;" x="321.024721" xlink:href="#m4bfc166125" y="320.142182"/>
     <use style="fill:#1f77b4;stroke:#1f77b4;" x="325.505039" xlink:href="#m4bfc166125" y="313.073975"/>
     <use style="fill:#1f77b4;stroke:#1f77b4;" x="329.985402" xlink:href="#m4bfc166125" y="305.635937"/>
     <use style="fill:#1f77b4;stroke:#1f77b4;" x="334.465719" xlink:href="#m4bfc166125" y="297.622793"/>
     <use style="fill:#1f77b4;stroke:#1f77b4;" x="338.946037" xlink:href="#m4bfc166125" y="289.953166"/>
     <use style="fill:#1f77b4;stroke:#1f77b4;" x="343.4264" xlink:href="#m4bfc166125" y="282.003873"/>
     <use style="fill:#1f77b4;stroke:#1f77b4;" x="347.906718" xlink:href="#m4bfc166125" y="274.023163"/>
     <use style="fill:#1f77b4;stroke:#1f77b4;" x="352.387081" xlink:href="#m4bfc166125" y="265.397028"/>
     <use style="fill:#1f77b4;stroke:#1f77b4;" x="356.867399" xlink:href="#m4bfc166125" y="256.63396"/>
     <use style="fill:#1f77b4;stroke:#1f77b4;" x="361.347717" xlink:href="#m4bfc166125" y="247.540517"/>
     <use style="fill:#1f77b4;stroke:#1f77b4;" x="365.82808" xlink:href="#m4bfc166125" y="238.443019"/>
     <use style="fill:#1f77b4;stroke:#1f77b4;" x="370.308398" xlink:href="#m4bfc166125" y="229.653157"/>
     <use style="fill:#1f77b4;stroke:#1f77b4;" x="374.788761" xlink:href="#m4bfc166125" y="219.895564"/>
     <use style="fill:#1f77b4;stroke:#1f77b4;" x="379.269078" xlink:href="#m4bfc166125" y="209.996445"/>
     <use style="fill:#1f77b4;stroke:#1f77b4;" x="383.749396" xlink:href="#m4bfc166125" y="200.075286"/>
     <use style="fill:#1f77b4;stroke:#1f77b4;" x="388.229759" xlink:href="#m4bfc166125" y="189.852915"/>
     <use style="fill:#1f77b4;stroke:#1f77b4;" x="392.710077" xlink:href="#m4bfc166125" y="179.285531"/>
     <use style="fill:#1f77b4;stroke:#1f77b4;" x="397.19044" xlink:href="#m4bfc166125" y="168.640761"/>
     <use style="fill:#1f77b4;stroke:#1f77b4;" x="401.670758" xlink:href="#m4bfc166125" y="158.663573"/>
     <use style="fill:#1f77b4;stroke:#1f77b4;" x="406.151121" xlink:href="#m4bfc166125" y="148.877544"/>
     <use style="fill:#1f77b4;stroke:#1f77b4;" x="410.631439" xlink:href="#m4bfc166125" y="137.26026"/>
     <use style="fill:#1f77b4;stroke:#1f77b4;" x="415.111757" xlink:href="#m4bfc166125" y="124.759317"/>
     <use style="fill:#1f77b4;stroke:#1f77b4;" x="419.59212" xlink:href="#m4bfc166125" y="113.524541"/>
     <use style="fill:#1f77b4;stroke:#1f77b4;" x="424.072437" xlink:href="#m4bfc166125" y="102.167035"/>
     <use style="fill:#1f77b4;stroke:#1f77b4;" x="428.552801" xlink:href="#m4bfc166125" y="89.623743"/>
     <use style="fill:#1f77b4;stroke:#1f77b4;" x="433.033118" xlink:href="#m4bfc166125" y="78.12"/>
    </g>
   </g>
   <g id="matplotlib.axis_1">
    <g id="xtick_1">
     <g id="line2d_1">
      <defs>
       <path d="M 0 0 
L 0 3.5 
" id="m719788ce4d" style="stroke:#000000;stroke-width:0.8;"/>
      </defs>
      <g>
       <use style="stroke:#000000;stroke-width:0.8;" x="97.380805" xlink:href="#m719788ce4d" y="448.56"/>
      </g>
     </g>
     <g id="text_1">
      <text style="font-family:DejaVu Sans;font-size:10px;font-style:normal;font-weight:normal;text-anchor:middle;" transform="rotate(-0, 97.380805, 463.158437)" x="97.380805" y="463.158437">−0.10</text>
     </g>
    </g>
    <g id="xtick_2">
     <g id="line2d_2">
      <g>
       <use style="stroke:#000000;stroke-width:0.8;" x="173.665422" xlink:href="#m719788ce4d" y="448.56"/>
      </g>
     </g>
     <g id="text_2">
      <text style="font-family:DejaVu Sans;font-size:10px;font-style:normal;font-weight:normal;text-anchor:middle;" transform="rotate(-0, 173.665422, 463.158437)" x="173.665422" y="463.158437">−0.05</text>
     </g>
    </g>
    <g id="xtick_3">
     <g id="line2d_3">
      <g>
       <use style="stroke:#000000;stroke-width:0.8;" x="249.950038" xlink:href="#m719788ce4d" y="448.56"/>
      </g>
     </g>
     <g id="text_3">
      <text style="font-family:DejaVu Sans;font-size:10px;font-style:normal;font-weight:normal;text-anchor:middle;" transform="rotate(-0, 249.950038, 463.158437)" x="249.950038" y="463.158437">0.00</text>
     </g>
    </g>
    <g id="xtick_4">
     <g id="line2d_4">
      <g>
       <use style="stroke:#000000;stroke-width:0.8;" x="326.234655" xlink:href="#m719788ce4d" y="448.56"/>
      </g>
     </g>
     <g id="text_4">
      <text style="font-family:DejaVu Sans;font-size:10px;font-style:normal;font-weight:normal;text-anchor:middle;" transform="rotate(-0, 326.234655, 463.158437)" x="326.234655" y="463.158437">0.05</text>
     </g>
    </g>
    <g id="xtick_5">
     <g id="line2d_5">
      <g>
       <use style="stroke:#000000;stroke-width:0.8;" x="402.519272" xlink:href="#m719788ce4d" y="448.56"/>
      </g>
     </g>
     <g id="text_5">
      <text style="font-family:DejaVu Sans;font-size:10px;font-style:normal;font-weight:normal;text-anchor:middle;" transform="rotate(-0, 402.519272, 463.158437)" x="402.519272" y="463.158437">0.10</text>
     </g>
    </g>
    <g id="text_6">
     <text style="font-family:DejaVu Sans;font-size:10px;font-style:normal;font-weight:normal;text-anchor:middle;" transform="rotate(-0, 258.3, 476.836563)" x="258.3" y="476.836563">mu [eV]</text>
    </g>
   </g>
   <g id="matplotlib.axis_2">
    <g id="ytick_1">
     <g id="line2d_6">
      <defs>
       <path d="M 0 0 
L -3.5 0 
" id="m62513f926a" style="stroke:#000000;stroke-width:0.8;"/>
      </defs>
      <g>
       <use style="stroke:#000000;stroke-width:0.8;" x="63" xlink:href="#m62513f926a" y="430.92"/>
      </g>
     </g>
     <g id="text_7">
      <!-- $\mathdefault{0.0}$ -->
      <g transform="translate(40 434.719219)">
       <text>
        <tspan style="font-family:DejaVu Sans;font-size:10px;font-style:book;font-weight:book;" x="0 6.362305 9.541016" y="-0.578125">0.0</tspan>
       </text>
      </g>
     </g>
    </g>
    <g id="ytick_2">
     <g id="line2d_7">
      <g>
       <use style="stroke:#000000;stroke-width:0.8;" x="63" xlink:href="#m62513f926a" y="358.23038"/>
      </g>
     </g>
     <g id="text_8">
      <!-- $\mathdefault{0.5}$ -->
      <g transform="translate(40 362.029599)">
       <text>
        <tspan style="font-family:DejaVu Sans;font-size:10px;font-style:book;font-weight:book;" x="0 6.362305 9.541016" y="-0.578125">0.5</tspan>
       </text>
      </g>
     </g>
    </g>
    <g id="ytick_3">
     <g id="line2d_8">
      <g>
       <use style="stroke:#000000;stroke-width:0.8;" x="63" xlink:href="#m62513f926a" y="285.54076"/>
      </g>
     </g>
     <g id="text_9">
      <!-- $\mathdefault{1.0}$ -->
      <g transform="translate(40 289.339979)">
       <text>
        <tspan style="font-family:DejaVu Sans;font-size:10px;font-style:book;font-weight:book;" x="0 6.362305 9.541016" y="-0.578125">1.0</tspan>
       </text>
      </g>
     </g>
    </g>
    <g id="ytick_4">
     <g id="line2d_9">
      <g>
       <use style="stroke:#000000;stroke-width:0.8;" x="63" xlink:href="#m62513f926a" y="212.851141"/>
      </g>
     </g>
     <g id="text_10">
      <!-- $\mathdefault{1.5}$ -->
      <g transform="translate(40 216.650359)">
       <text>
        <tspan style="font-family:DejaVu Sans;font-size:10px;font-style:book;font-weight:book;" x="0 6.362305 9.541016" y="-0.703125">1.5</tspan>
       </text>
      </g>
     </g>
    </g>
    <g id="ytick_5">
     <g id="line2d_10">
      <g>
       <use style="stroke:#000000;stroke-width:0.8;" x="63" xlink:href="#m62513f926a" y="140.161521"/>
      </g>
     </g>
     <g id="text_11">
      <!-- $\mathdefault{2.0}$ -->
      <g transform="translate(40 143.96074)">
       <text>
        <tspan style="font-family:DejaVu Sans;font-size:10px;font-style:book;font-weight:book;" x="0 6.362305 9.541016" y="-0.578125">2.0</tspan>
       </text>
      </g>
     </g>
    </g>
    <g id="ytick_6">
     <g id="line2d_11">
      <g>
       <use style="stroke:#000000;stroke-width:0.8;" x="63" xlink:href="#m62513f926a" y="67.471901"/>
      </g>
     </g>
     <g id="text_12">
      <!-- $\mathdefault{2.5}$ -->
      <g transform="translate(40 71.27112)">
       <text>
        <tspan style="font-family:DejaVu Sans;font-size:10px;font-style:book;font-weight:book;" x="0 6.362305 9.541016" y="-0.578125">2.5</tspan>
       </text>
      </g>
     </g>
    </g>
    <g id="text_13">
     <text style="font-family:DejaVu Sans;font-size:10px;font-style:normal;font-weight:normal;text-anchor:middle;" transform="rotate(-90, 33.920312, 254.52)" x="33.920312" y="254.52">DOS [/eV m3]</text>
    </g>
    <g id="text_14">
     <!-- $\times\mathdefault{10^{26}}\mathdefault{}$ -->
     <g transform="translate(63 57.48)">
      <text>
       <tspan style="font-family:DejaVu Sans;font-size:10px;font-style:book;font-weight:book;" x="0 8.378906 14.741211" y="-0.9765625">×10</tspan>
       <tspan style="font-family:DejaVu Sans;font-size:7px;font-style:book;font-weight:book;" x="21.199219 25.652832" y="-4.8046875">26</tspan>
      </text>
     </g>
    </g>
   </g>
   <g id="line2d_12">
    <path clip-path="url(#p24f4dfc972)" d="M 83.566882 430.92 
L 88.047199 430.92 
L 92.527563 430.92 
L 97.00788 430.92 
L 101.488243 430.92 
L 101.971903 430.92 
L 109.905534 430.92 
L 115.138643 430.92 
L 118.577539 430.92 
L 120.827813 430.92 
L 122.293072 430.92 
L 123.241855 430.92 
L 123.852116 430.92 
L 124.241626 430.92 
L 124.487918 430.92 
L 124.641845 430.92 
L 124.736636 430.92 
L 124.793941 430.92 
L 124.827766 430.92 
L 124.846944 430.92 
L 124.857288 430.92 
L 124.867678 430.903343 
L 124.886856 430.891775 
L 124.920681 430.878964 
L 124.977986 430.862868 
L 125.072777 430.843121 
L 125.226704 430.818766 
L 125.472997 430.787724 
L 125.862506 430.748455 
L 126.472768 430.695545 
L 127.42155 430.623741 
L 128.886809 430.526463 
L 131.137038 430.37694 
L 134.575979 430.145367 
L 139.809088 429.76541 
L 147.742673 429.0762 
L 150.77192 428.776005 
L 155.252238 428.287813 
L 159.732601 427.760173 
L 164.212919 427.187959 
L 168.693282 426.513891 
L 173.1736 425.80522 
L 177.653963 425.024232 
L 182.134281 424.163613 
L 186.614598 423.224917 
L 191.094961 422.211718 
L 195.575279 421.128388 
L 200.055642 419.914671 
L 204.53596 418.6256 
L 209.016296 417.283743 
L 213.496632 415.75023 
L 217.976968 414.121528 
L 222.457308 412.323817 
L 226.937644 410.427949 
L 231.41798 408.31571 
L 235.898316 406.039378 
L 240.378652 403.578787 
L 244.858988 400.97444 
L 249.339325 398.195808 
L 253.819661 395.168476 
L 258.3 391.941322 
L 262.780336 388.374568 
L 267.260672 384.736519 
L 271.741008 380.55422 
L 276.221344 376.32556 
L 280.70168 372.097335 
L 285.182015 367.861871 
L 289.662351 362.582773 
L 294.142687 357.690558 
L 298.623041 351.764624 
L 303.103359 346.135016 
L 307.583677 339.759221 
L 312.06404 333.300152 
L 316.544358 326.77684 
L 321.024721 320.142182 
L 325.505039 313.073975 
L 329.985402 305.635937 
L 334.465719 297.622793 
L 338.946037 289.953166 
L 343.4264 282.003873 
L 347.906718 274.023163 
L 352.387081 265.397028 
L 356.867399 256.63396 
L 361.347717 247.540517 
L 365.82808 238.443019 
L 370.308398 229.653157 
L 374.788761 219.895564 
L 379.269078 209.996445 
L 383.749396 200.075286 
L 388.229759 189.852915 
L 392.710077 179.285531 
L 397.19044 168.640761 
L 401.670758 158.663573 
L 406.151121 148.877544 
L 410.631439 137.26026 
L 415.111757 124.759317 
L 419.59212 113.524541 
L 424.072437 102.167035 
L 428.552801 89.623743 
L 433.033118 78.12 
" style="fill:none;stroke:#1f77b4;stroke-linecap:square;stroke-width:1.5;"/>
   </g>
   <g id="patch_3">
    <path d="M 63 448.56 
L 63 60.48 
" style="fill:none;stroke:#000000;stroke-linecap:square;stroke-linejoin:miter;stroke-width:0.8;"/>
   </g>
   <g id="patch_4">
    <path d="M 453.6 448.56 
L 453.6 60.48 
" style="fill:none;stroke:#000000;stroke-linecap:square;stroke-linejoin:miter;stroke-width:0.8;"/>
   </g>
   <g id="patch_5">
    <path d="M 63 448.56 
L 453.6 448.56 
" style="fill:none;stroke:#000000;stroke-linecap:square;stroke-linejoin:miter;stroke-width:0.8;"/>
   </g>
   <g id="patch_6">
    <path d="M 63 60.48 
L 453.6 60.48 
" style="fill:none;stroke:#000000;stroke-linecap:square;stroke-linejoin:miter;stroke-width:0.8;"/>
   </g>
   <g id="text_15">
    <text style="font-family:DejaVu Sans;font-size:12px;font-style:normal;font-weight:normal;text-anchor:middle;" transform="rotate(-0, 258.3, 54.48)" x="258.3" y="54.48">dos</text>
   </g>
   <g id="legend_1">
    <g id="patch_7">
     <path d="M 70 83.158125 
L 142.95625 83.158125 
Q 144.95625 83.158125 144.95625 81.158125 
L 144.95625 67.48 
Q 144.95625 65.48 142.95625 65.48 
L 70 65.48 
Q 68 65.48 68 67.48 
L 68 81.158125 
Q 68 83.158125 70 83.158125 
z
" style="fill:#ffffff;opacity:0.8;stroke:#cccccc;stroke-linejoin:miter;"/>
    </g>
    <g id="PathCollection_2">
     <g>
      <use style="fill:#1f77b4;stroke:#1f77b4;" x="82" xlink:href="#m4bfc166125" y="74.453438"/>
     </g>
    </g>
    <g id="text_16">
     <text style="font-family:DejaVu Sans;font-size:10px;font-style:normal;font-weight:normal;text-anchor:start;" transform="rotate(-0, 100, 77.078438)" x="100" y="77.078438">numeric</text>
    </g>
   </g>
  </g>
 </g>
 <defs>
  <clipPath id="p24f4dfc972">
   <rect height="388.08" width="390.6" x="63" y="60.48"/>
  </clipPath>
 </defs>
</svg>
