<?xml version="1.0" encoding="utf-8" standalone="no"?>
<!DOCTYPE svg PUBLIC "-//W3C//DTD SVG 1.1//EN"
  "http://www.w3.org/Graphics/SVG/1.1/DTD/svg11.dtd">
<!-- Created with matplotlib (https://matplotlib.org/) -->
<svg height="504pt" version="1.1" viewBox="0 0 504 504" width="504pt" xmlns="http://www.w3.org/2000/svg" xmlns:xlink="http://www.w3.org/1999/xlink">
 <defs>
  <style type="text/css">
*{stroke-linecap:butt;stroke-linejoin:round;}
  </style>
 </defs>
 <g id="figure_1">
  <g id="patch_1">
   <path d="M 0 504 
L 504 504 
L 504 0 
L 0 0 
z
" style="fill:#ffffff;"/>
  </g>
  <g id="axes_1">
   <g id="patch_2">
    <path d="M 63 448.56 
L 453.6 448.56 
L 453.6 60.48 
L 63 60.48 
z
" style="fill:#ffffff;"/>
   </g>
   <g id="PathCollection_1">
    <defs>
     <path d="M 0 1 
C 0.265203 1 0.51958 0.894634 0.707107 0.707107 
C 0.894634 0.51958 1 0.265203 1 0 
C 1 -0.265203 0.894634 -0.51958 0.707107 -0.707107 
C 0.51958 -0.894634 0.265203 -1 0 -1 
C -0.265203 -1 -0.51958 -0.894634 -0.707107 -0.707107 
C -0.894634 -0.51958 -1 -0.265203 -1 0 
C -1 0.265203 -0.894634 0.51958 -0.707107 0.707107 
C -0.51958 0.894634 -0.265203 1 0 1 
z
" id="m44ee1a9164" style="stroke:#1f77b4;"/>
    </defs>
    <g clip-path="url(#pa5aee6ce85)">
     <use style="fill:#1f77b4;stroke:#1f77b4;" x="88.932475" xlink:href="#m44ee1a9164" y="430.92"/>
     <use style="fill:#1f77b4;stroke:#1f77b4;" x="93.275214" xlink:href="#m44ee1a9164" y="430.92"/>
     <use style="fill:#1f77b4;stroke:#1f77b4;" x="97.617997" xlink:href="#m44ee1a9164" y="430.92"/>
     <use style="fill:#1f77b4;stroke:#1f77b4;" x="101.960736" xlink:href="#m44ee1a9164" y="430.92"/>
     <use style="fill:#1f77b4;stroke:#1f77b4;" x="106.30352" xlink:href="#m44ee1a9164" y="430.92"/>
     <use style="fill:#1f77b4;stroke:#1f77b4;" x="106.772327" xlink:href="#m44ee1a9164" y="430.92"/>
     <use style="fill:#1f77b4;stroke:#1f77b4;" x="114.462337" xlink:href="#m44ee1a9164" y="430.92"/>
     <use style="fill:#1f77b4;stroke:#1f77b4;" x="119.534752" xlink:href="#m44ee1a9164" y="430.92"/>
     <use style="fill:#1f77b4;stroke:#1f77b4;" x="122.868047" xlink:href="#m44ee1a9164" y="430.92"/>
     <use style="fill:#1f77b4;stroke:#1f77b4;" x="125.049222" xlink:href="#m44ee1a9164" y="430.92"/>
     <use style="fill:#1f77b4;stroke:#1f77b4;" x="126.469487" xlink:href="#m44ee1a9164" y="430.92"/>
     <use style="fill:#1f77b4;stroke:#1f77b4;" x="127.389135" xlink:href="#m44ee1a9164" y="430.92"/>
     <use style="fill:#1f77b4;stroke:#1f77b4;" x="127.980657" xlink:href="#m44ee1a9164" y="430.92"/>
     <use style="fill:#1f77b4;stroke:#1f77b4;" x="128.358205" xlink:href="#m44ee1a9164" y="430.92"/>
     <use style="fill:#1f77b4;stroke:#1f77b4;" x="128.596935" xlink:href="#m44ee1a9164" y="430.92"/>
     <use style="fill:#1f77b4;stroke:#1f77b4;" x="128.746135" xlink:href="#m44ee1a9164" y="430.92"/>
     <use style="fill:#1f77b4;stroke:#1f77b4;" x="128.838016" xlink:href="#m44ee1a9164" y="430.92"/>
     <use style="fill:#1f77b4;stroke:#1f77b4;" x="128.893561" xlink:href="#m44ee1a9164" y="430.92"/>
     <use style="fill:#1f77b4;stroke:#1f77b4;" x="128.926347" xlink:href="#m44ee1a9164" y="430.92"/>
     <use style="fill:#1f77b4;stroke:#1f77b4;" x="128.944936" xlink:href="#m44ee1a9164" y="430.92"/>
     <use style="fill:#1f77b4;stroke:#1f77b4;" x="128.954962" xlink:href="#m44ee1a9164" y="430.92"/>
     <use style="fill:#1f77b4;stroke:#1f77b4;" x="128.965033" xlink:href="#m44ee1a9164" y="430.90325"/>
     <use style="fill:#1f77b4;stroke:#1f77b4;" x="128.983622" xlink:href="#m44ee1a9164" y="430.891641"/>
     <use style="fill:#1f77b4;stroke:#1f77b4;" x="129.016408" xlink:href="#m44ee1a9164" y="430.87867"/>
     <use style="fill:#1f77b4;stroke:#1f77b4;" x="129.071954" xlink:href="#m44ee1a9164" y="430.86258"/>
     <use style="fill:#1f77b4;stroke:#1f77b4;" x="129.163834" xlink:href="#m44ee1a9164" y="430.842619"/>
     <use style="fill:#1f77b4;stroke:#1f77b4;" x="129.313035" xlink:href="#m44ee1a9164" y="430.817843"/>
     <use style="fill:#1f77b4;stroke:#1f77b4;" x="129.551764" xlink:href="#m44ee1a9164" y="430.786756"/>
     <use style="fill:#1f77b4;stroke:#1f77b4;" x="129.929313" xlink:href="#m44ee1a9164" y="430.747195"/>
     <use style="fill:#1f77b4;stroke:#1f77b4;" x="130.520835" xlink:href="#m44ee1a9164" y="430.693136"/>
     <use style="fill:#1f77b4;stroke:#1f77b4;" x="131.440482" xlink:href="#m44ee1a9164" y="430.622097"/>
     <use style="fill:#1f77b4;stroke:#1f77b4;" x="132.860748" xlink:href="#m44ee1a9164" y="430.524717"/>
     <use style="fill:#1f77b4;stroke:#1f77b4;" x="135.041878" xlink:href="#m44ee1a9164" y="430.37431"/>
     <use style="fill:#1f77b4;stroke:#1f77b4;" x="138.375218" xlink:href="#m44ee1a9164" y="430.141358"/>
     <use style="fill:#1f77b4;stroke:#1f77b4;" x="143.447632" xlink:href="#m44ee1a9164" y="429.751772"/>
     <use style="fill:#1f77b4;stroke:#1f77b4;" x="151.137598" xlink:href="#m44ee1a9164" y="429.068676"/>
     <use style="fill:#1f77b4;stroke:#1f77b4;" x="154.073824" xlink:href="#m44ee1a9164" y="428.766451"/>
     <use style="fill:#1f77b4;stroke:#1f77b4;" x="158.416563" xlink:href="#m44ee1a9164" y="428.274655"/>
     <use style="fill:#1f77b4;stroke:#1f77b4;" x="162.759346" xlink:href="#m44ee1a9164" y="427.767142"/>
     <use style="fill:#1f77b4;stroke:#1f77b4;" x="167.102085" xlink:href="#m44ee1a9164" y="427.168891"/>
     <use style="fill:#1f77b4;stroke:#1f77b4;" x="171.444868" xlink:href="#m44ee1a9164" y="426.49984"/>
     <use style="fill:#1f77b4;stroke:#1f77b4;" x="175.787607" xlink:href="#m44ee1a9164" y="425.776634"/>
     <use style="fill:#1f77b4;stroke:#1f77b4;" x="180.13039" xlink:href="#m44ee1a9164" y="424.969402"/>
     <use style="fill:#1f77b4;stroke:#1f77b4;" x="184.473129" xlink:href="#m44ee1a9164" y="424.141444"/>
     <use style="fill:#1f77b4;stroke:#1f77b4;" x="188.815868" xlink:href="#m44ee1a9164" y="423.188476"/>
     <use style="fill:#1f77b4;stroke:#1f77b4;" x="193.158651" xlink:href="#m44ee1a9164" y="422.182224"/>
     <use style="fill:#1f77b4;stroke:#1f77b4;" x="197.50139" xlink:href="#m44ee1a9164" y="421.062485"/>
     <use style="fill:#1f77b4;stroke:#1f77b4;" x="201.844173" xlink:href="#m44ee1a9164" y="419.841236"/>
     <use style="fill:#1f77b4;stroke:#1f77b4;" x="206.186912" xlink:href="#m44ee1a9164" y="418.548276"/>
     <use style="fill:#1f77b4;stroke:#1f77b4;" x="210.529669" xlink:href="#m44ee1a9164" y="417.194658"/>
     <use style="fill:#1f77b4;stroke:#1f77b4;" x="214.872425" xlink:href="#m44ee1a9164" y="415.667332"/>
     <use style="fill:#1f77b4;stroke:#1f77b4;" x="219.215182" xlink:href="#m44ee1a9164" y="413.960667"/>
     <use style="fill:#1f77b4;stroke:#1f77b4;" x="223.557943" xlink:href="#m44ee1a9164" y="412.188775"/>
     <use style="fill:#1f77b4;stroke:#1f77b4;" x="227.900699" xlink:href="#m44ee1a9164" y="410.260951"/>
     <use style="fill:#1f77b4;stroke:#1f77b4;" x="232.243456" xlink:href="#m44ee1a9164" y="408.168493"/>
     <use style="fill:#1f77b4;stroke:#1f77b4;" x="236.586213" xlink:href="#m44ee1a9164" y="405.910843"/>
     <use style="fill:#1f77b4;stroke:#1f77b4;" x="240.928969" xlink:href="#m44ee1a9164" y="403.435711"/>
     <use style="fill:#1f77b4;stroke:#1f77b4;" x="245.271726" xlink:href="#m44ee1a9164" y="400.720152"/>
     <use style="fill:#1f77b4;stroke:#1f77b4;" x="249.614484" xlink:href="#m44ee1a9164" y="397.932207"/>
     <use style="fill:#1f77b4;stroke:#1f77b4;" x="253.957241" xlink:href="#m44ee1a9164" y="394.92035"/>
     <use style="fill:#1f77b4;stroke:#1f77b4;" x="258.3" xlink:href="#m44ee1a9164" y="391.584736"/>
     <use style="fill:#1f77b4;stroke:#1f77b4;" x="262.642757" xlink:href="#m44ee1a9164" y="388.023434"/>
     <use style="fill:#1f77b4;stroke:#1f77b4;" x="266.985513" xlink:href="#m44ee1a9164" y="384.335977"/>
     <use style="fill:#1f77b4;stroke:#1f77b4;" x="271.32827" xlink:href="#m44ee1a9164" y="380.179441"/>
     <use style="fill:#1f77b4;stroke:#1f77b4;" x="275.671026" xlink:href="#m44ee1a9164" y="375.887235"/>
     <use style="fill:#1f77b4;stroke:#1f77b4;" x="280.013783" xlink:href="#m44ee1a9164" y="371.933963"/>
     <use style="fill:#1f77b4;stroke:#1f77b4;" x="284.35654" xlink:href="#m44ee1a9164" y="366.922454"/>
     <use style="fill:#1f77b4;stroke:#1f77b4;" x="288.699296" xlink:href="#m44ee1a9164" y="362.173112"/>
     <use style="fill:#1f77b4;stroke:#1f77b4;" x="293.042053" xlink:href="#m44ee1a9164" y="356.846062"/>
     <use style="fill:#1f77b4;stroke:#1f77b4;" x="297.384827" xlink:href="#m44ee1a9164" y="351.264438"/>
     <use style="fill:#1f77b4;stroke:#1f77b4;" x="301.727566" xlink:href="#m44ee1a9164" y="345.174324"/>
     <use style="fill:#1f77b4;stroke:#1f77b4;" x="306.070305" xlink:href="#m44ee1a9164" y="339.058622"/>
     <use style="fill:#1f77b4;stroke:#1f77b4;" x="310.413088" xlink:href="#m44ee1a9164" y="332.07131"/>
     <use style="fill:#1f77b4;stroke:#1f77b4;" x="314.755827" xlink:href="#m44ee1a9164" y="326.027415"/>
     <use style="fill:#1f77b4;stroke:#1f77b4;" x="319.09861" xlink:href="#m44ee1a9164" y="318.902502"/>
     <use style="fill:#1f77b4;stroke:#1f77b4;" x="323.441349" xlink:href="#m44ee1a9164" y="312.148652"/>
     <use style="fill:#1f77b4;stroke:#1f77b4;" x="327.784132" xlink:href="#m44ee1a9164" y="304.755778"/>
     <use style="fill:#1f77b4;stroke:#1f77b4;" x="332.126871" xlink:href="#m44ee1a9164" y="296.59409"/>
     <use style="fill:#1f77b4;stroke:#1f77b4;" x="336.46961" xlink:href="#m44ee1a9164" y="289.341275"/>
     <use style="fill:#1f77b4;stroke:#1f77b4;" x="340.812393" xlink:href="#m44ee1a9164" y="281.558727"/>
     <use style="fill:#1f77b4;stroke:#1f77b4;" x="345.155132" xlink:href="#m44ee1a9164" y="271.701444"/>
     <use style="fill:#1f77b4;stroke:#1f77b4;" x="349.497915" xlink:href="#m44ee1a9164" y="263.609545"/>
     <use style="fill:#1f77b4;stroke:#1f77b4;" x="353.840654" xlink:href="#m44ee1a9164" y="255.111599"/>
     <use style="fill:#1f77b4;stroke:#1f77b4;" x="358.183393" xlink:href="#m44ee1a9164" y="246.37848"/>
     <use style="fill:#1f77b4;stroke:#1f77b4;" x="362.526176" xlink:href="#m44ee1a9164" y="236.840995"/>
     <use style="fill:#1f77b4;stroke:#1f77b4;" x="366.868915" xlink:href="#m44ee1a9164" y="228.604822"/>
     <use style="fill:#1f77b4;stroke:#1f77b4;" x="371.211698" xlink:href="#m44ee1a9164" y="218.88062"/>
     <use style="fill:#1f77b4;stroke:#1f77b4;" x="375.554437" xlink:href="#m44ee1a9164" y="208.125964"/>
     <use style="fill:#1f77b4;stroke:#1f77b4;" x="379.897176" xlink:href="#m44ee1a9164" y="199.172112"/>
     <use style="fill:#1f77b4;stroke:#1f77b4;" x="384.239959" xlink:href="#m44ee1a9164" y="188.427156"/>
     <use style="fill:#1f77b4;stroke:#1f77b4;" x="388.582698" xlink:href="#m44ee1a9164" y="177.455014"/>
     <use style="fill:#1f77b4;stroke:#1f77b4;" x="392.925481" xlink:href="#m44ee1a9164" y="166.876321"/>
     <use style="fill:#1f77b4;stroke:#1f77b4;" x="397.26822" xlink:href="#m44ee1a9164" y="156.153179"/>
     <use style="fill:#1f77b4;stroke:#1f77b4;" x="401.611003" xlink:href="#m44ee1a9164" y="146.754174"/>
     <use style="fill:#1f77b4;stroke:#1f77b4;" x="405.953742" xlink:href="#m44ee1a9164" y="133.017446"/>
     <use style="fill:#1f77b4;stroke:#1f77b4;" x="410.29648" xlink:href="#m44ee1a9164" y="120.214741"/>
     <use style="fill:#1f77b4;stroke:#1f77b4;" x="414.639264" xlink:href="#m44ee1a9164" y="110.898121"/>
     <use style="fill:#1f77b4;stroke:#1f77b4;" x="418.982003" xlink:href="#m44ee1a9164" y="101.256919"/>
     <use style="fill:#1f77b4;stroke:#1f77b4;" x="423.324786" xlink:href="#m44ee1a9164" y="89.425063"/>
     <use style="fill:#1f77b4;stroke:#1f77b4;" x="427.667525" xlink:href="#m44ee1a9164" y="78.12"/>
    </g>
   </g>
   <g id="matplotlib.axis_1">
    <g id="xtick_1">
     <g id="line2d_1">
      <defs>
       <path d="M 0 0 
L 0 3.5 
" id="m36a0746ac3" style="stroke:#000000;stroke-width:0.8;"/>
      </defs>
      <g>
       <use style="stroke:#000000;stroke-width:0.8;" x="72.745363" xlink:href="#m36a0746ac3" y="448.56"/>
      </g>
     </g>
     <g id="text_1">
      <text style="font-family:DejaVu Sans;font-size:10px;font-style:normal;font-weight:normal;text-anchor:middle;" transform="rotate(-0, 72.745363, 463.158437)" x="72.745363" y="463.158437">−0.04</text>
     </g>
    </g>
    <g id="xtick_2">
     <g id="line2d_2">
      <g>
       <use style="stroke:#000000;stroke-width:0.8;" x="117.110633" xlink:href="#m36a0746ac3" y="448.56"/>
      </g>
     </g>
     <g id="text_2">
      <text style="font-family:DejaVu Sans;font-size:10px;font-style:normal;font-weight:normal;text-anchor:middle;" transform="rotate(-0, 117.110633, 463.158437)" x="117.110633" y="463.158437">−0.03</text>
     </g>
    </g>
    <g id="xtick_3">
     <g id="line2d_3">
      <g>
       <use style="stroke:#000000;stroke-width:0.8;" x="161.475903" xlink:href="#m36a0746ac3" y="448.56"/>
      </g>
     </g>
     <g id="text_3">
      <text style="font-family:DejaVu Sans;font-size:10px;font-style:normal;font-weight:normal;text-anchor:middle;" transform="rotate(-0, 161.475903, 463.158437)" x="161.475903" y="463.158437">−0.02</text>
     </g>
    </g>
    <g id="xtick_4">
     <g id="line2d_4">
      <g>
       <use style="stroke:#000000;stroke-width:0.8;" x="205.841174" xlink:href="#m36a0746ac3" y="448.56"/>
      </g>
     </g>
     <g id="text_4">
      <text style="font-family:DejaVu Sans;font-size:10px;font-style:normal;font-weight:normal;text-anchor:middle;" transform="rotate(-0, 205.841174, 463.158437)" x="205.841174" y="463.158437">−0.01</text>
     </g>
    </g>
    <g id="xtick_5">
     <g id="line2d_5">
      <g>
       <use style="stroke:#000000;stroke-width:0.8;" x="250.206444" xlink:href="#m36a0746ac3" y="448.56"/>
      </g>
     </g>
     <g id="text_5">
      <text style="font-family:DejaVu Sans;font-size:10px;font-style:normal;font-weight:normal;text-anchor:middle;" transform="rotate(-0, 250.206444, 463.158437)" x="250.206444" y="463.158437">0.00</text>
     </g>
    </g>
    <g id="xtick_6">
     <g id="line2d_6">
      <g>
       <use style="stroke:#000000;stroke-width:0.8;" x="294.571714" xlink:href="#m36a0746ac3" y="448.56"/>
      </g>
     </g>
     <g id="text_6">
      <text style="font-family:DejaVu Sans;font-size:10px;font-style:normal;font-weight:normal;text-anchor:middle;" transform="rotate(-0, 294.571714, 463.158437)" x="294.571714" y="463.158437">0.01</text>
     </g>
    </g>
    <g id="xtick_7">
     <g id="line2d_7">
      <g>
       <use style="stroke:#000000;stroke-width:0.8;" x="338.936984" xlink:href="#m36a0746ac3" y="448.56"/>
      </g>
     </g>
     <g id="text_7">
      <text style="font-family:DejaVu Sans;font-size:10px;font-style:normal;font-weight:normal;text-anchor:middle;" transform="rotate(-0, 338.936984, 463.158437)" x="338.936984" y="463.158437">0.02</text>
     </g>
    </g>
    <g id="xtick_8">
     <g id="line2d_8">
      <g>
       <use style="stroke:#000000;stroke-width:0.8;" x="383.302254" xlink:href="#m36a0746ac3" y="448.56"/>
      </g>
     </g>
     <g id="text_8">
      <text style="font-family:DejaVu Sans;font-size:10px;font-style:normal;font-weight:normal;text-anchor:middle;" transform="rotate(-0, 383.302254, 463.158437)" x="383.302254" y="463.158437">0.03</text>
     </g>
    </g>
    <g id="xtick_9">
     <g id="line2d_9">
      <g>
       <use style="stroke:#000000;stroke-width:0.8;" x="427.667525" xlink:href="#m36a0746ac3" y="448.56"/>
      </g>
     </g>
     <g id="text_9">
      <text style="font-family:DejaVu Sans;font-size:10px;font-style:normal;font-weight:normal;text-anchor:middle;" transform="rotate(-0, 427.667525, 463.158437)" x="427.667525" y="463.158437">0.04</text>
     </g>
    </g>
    <g id="text_10">
     <text style="font-family:DejaVu Sans;font-size:10px;font-style:normal;font-weight:normal;text-anchor:middle;" transform="rotate(-0, 258.3, 476.836563)" x="258.3" y="476.836563">mu [eV]</text>
    </g>
   </g>
   <g id="matplotlib.axis_2">
    <g id="ytick_1">
     <g id="line2d_10">
      <defs>
       <path d="M 0 0 
L -3.5 0 
" id="m3943001a6f" style="stroke:#000000;stroke-width:0.8;"/>
      </defs>
      <g>
       <use style="stroke:#000000;stroke-width:0.8;" x="63" xlink:href="#m3943001a6f" y="430.92"/>
      </g>
     </g>
     <g id="text_11">
      <!-- $\mathdefault{0}$ -->
      <g transform="translate(49.6 434.719219)">
       <text>
        <tspan style="font-family:DejaVu Sans;font-size:10px;font-style:book;font-weight:book;" x="0" y="-0.578125">0</tspan>
       </text>
      </g>
     </g>
    </g>
    <g id="ytick_2">
     <g id="line2d_11">
      <g>
       <use style="stroke:#000000;stroke-width:0.8;" x="63" xlink:href="#m3943001a6f" y="387.027922"/>
      </g>
     </g>
     <g id="text_12">
      <!-- $\mathdefault{1}$ -->
      <g transform="translate(49.6 390.827141)">
       <text>
        <tspan style="font-family:DejaVu Sans;font-size:10px;font-style:book;font-weight:book;" x="0" y="-0.703125">1</tspan>
       </text>
      </g>
     </g>
    </g>
    <g id="ytick_3">
     <g id="line2d_12">
      <g>
       <use style="stroke:#000000;stroke-width:0.8;" x="63" xlink:href="#m3943001a6f" y="343.135845"/>
      </g>
     </g>
     <g id="text_13">
      <!-- $\mathdefault{2}$ -->
      <g transform="translate(49.6 346.935063)">
       <text>
        <tspan style="font-family:DejaVu Sans;font-size:10px;font-style:book;font-weight:book;" x="0" y="-0.578125">2</tspan>
       </text>
      </g>
     </g>
    </g>
    <g id="ytick_4">
     <g id="line2d_13">
      <g>
       <use style="stroke:#000000;stroke-width:0.8;" x="63" xlink:href="#m3943001a6f" y="299.243767"/>
      </g>
     </g>
     <g id="text_14">
      <!-- $\mathdefault{3}$ -->
      <g transform="translate(49.6 303.042986)">
       <text>
        <tspan style="font-family:DejaVu Sans;font-size:10px;font-style:book;font-weight:book;" x="0" y="-0.578125">3</tspan>
       </text>
      </g>
     </g>
    </g>
    <g id="ytick_5">
     <g id="line2d_14">
      <g>
       <use style="stroke:#000000;stroke-width:0.8;" x="63" xlink:href="#m3943001a6f" y="255.351689"/>
      </g>
     </g>
     <g id="text_15">
      <!-- $\mathdefault{4}$ -->
      <g transform="translate(49.6 259.150908)">
       <text>
        <tspan style="font-family:DejaVu Sans;font-size:10px;font-style:book;font-weight:book;" x="0" y="-0.703125">4</tspan>
       </text>
      </g>
     </g>
    </g>
    <g id="ytick_6">
     <g id="line2d_15">
      <g>
       <use style="stroke:#000000;stroke-width:0.8;" x="63" xlink:href="#m3943001a6f" y="211.459611"/>
      </g>
     </g>
     <g id="text_16">
      <!-- $\mathdefault{5}$ -->
      <g transform="translate(49.6 215.25883)">
       <text>
        <tspan style="font-family:DejaVu Sans;font-size:10px;font-style:book;font-weight:book;" x="0" y="-0.703125">5</tspan>
       </text>
      </g>
     </g>
    </g>
    <g id="ytick_7">
     <g id="line2d_16">
      <g>
       <use style="stroke:#000000;stroke-width:0.8;" x="63" xlink:href="#m3943001a6f" y="167.567534"/>
      </g>
     </g>
     <g id="text_17">
      <!-- $\mathdefault{6}$ -->
      <g transform="translate(49.6 171.366752)">
       <text>
        <tspan style="font-family:DejaVu Sans;font-size:10px;font-style:book;font-weight:book;" x="0" y="-0.578125">6</tspan>
       </text>
      </g>
     </g>
    </g>
    <g id="ytick_8">
     <g id="line2d_17">
      <g>
       <use style="stroke:#000000;stroke-width:0.8;" x="63" xlink:href="#m3943001a6f" y="123.675456"/>
      </g>
     </g>
     <g id="text_18">
      <!-- $\mathdefault{7}$ -->
      <g transform="translate(49.6 127.474675)">
       <text>
        <tspan style="font-family:DejaVu Sans;font-size:10px;font-style:book;font-weight:book;" x="0" y="-0.703125">7</tspan>
       </text>
      </g>
     </g>
    </g>
    <g id="ytick_9">
     <g id="line2d_18">
      <g>
       <use style="stroke:#000000;stroke-width:0.8;" x="63" xlink:href="#m3943001a6f" y="79.783378"/>
      </g>
     </g>
     <g id="text_19">
      <!-- $\mathdefault{8}$ -->
      <g transform="translate(49.6 83.582597)">
       <text>
        <tspan style="font-family:DejaVu Sans;font-size:10px;font-style:book;font-weight:book;" x="0" y="-0.578125">8</tspan>
       </text>
      </g>
     </g>
    </g>
    <g id="text_20">
     <text style="font-family:DejaVu Sans;font-size:10px;font-style:normal;font-weight:normal;text-anchor:middle;" transform="rotate(-90, 43.520313, 254.52)" x="43.520313" y="254.52">DOS [/eV m3]</text>
    </g>
    <g id="text_21">
     <!-- $\times\mathdefault{10^{25}}\mathdefault{}$ -->
     <g transform="translate(63 57.48)">
      <text>
       <tspan style="font-family:DejaVu Sans;font-size:10px;font-style:book;font-weight:book;" x="0 8.378906 14.741211" y="-0.9765625">×10</tspan>
       <tspan style="font-family:DejaVu Sans;font-size:7px;font-style:book;font-weight:book;" x="21.199219 25.652832" y="-4.8046875">25</tspan>
      </text>
     </g>
    </g>
   </g>
   <g id="line2d_19">
    <path clip-path="url(#pa5aee6ce85)" d="M 88.932475 430.92 
L 93.275214 430.92 
L 97.617997 430.92 
L 101.960736 430.92 
L 106.30352 430.92 
L 106.772327 430.92 
L 114.462337 430.92 
L 119.534752 430.92 
L 122.868047 430.92 
L 125.049222 430.92 
L 126.469487 430.92 
L 127.389135 430.92 
L 127.980657 430.92 
L 128.358205 430.92 
L 128.596935 430.92 
L 128.746135 430.92 
L 128.838016 430.92 
L 128.893561 430.92 
L 128.926347 430.92 
L 128.944936 430.92 
L 128.954962 430.92 
L 128.965033 430.90325 
L 128.983622 430.891641 
L 129.016408 430.87867 
L 129.071954 430.86258 
L 129.163834 430.842619 
L 129.313035 430.817843 
L 129.551764 430.786756 
L 129.929313 430.747195 
L 130.520835 430.693136 
L 131.440482 430.622097 
L 132.860748 430.524717 
L 135.041878 430.37431 
L 138.375218 430.141358 
L 143.447632 429.751772 
L 151.137598 429.068676 
L 154.073824 428.766451 
L 158.416563 428.274655 
L 162.759346 427.767142 
L 167.102085 427.168891 
L 171.444868 426.49984 
L 175.787607 425.776634 
L 180.13039 424.969402 
L 184.473129 424.141444 
L 188.815868 423.188476 
L 193.158651 422.182224 
L 197.50139 421.062485 
L 201.844173 419.841236 
L 206.186912 418.548276 
L 210.529669 417.194658 
L 214.872425 415.667332 
L 219.215182 413.960667 
L 223.557943 412.188775 
L 227.900699 410.260951 
L 232.243456 408.168493 
L 236.586213 405.910843 
L 240.928969 403.435711 
L 245.271726 400.720152 
L 249.614484 397.932207 
L 253.957241 394.92035 
L 258.3 391.584736 
L 262.642757 388.023434 
L 266.985513 384.335977 
L 271.32827 380.179441 
L 275.671026 375.887235 
L 280.013783 371.933963 
L 284.35654 366.922454 
L 288.699296 362.173112 
L 293.042053 356.846062 
L 297.384827 351.264438 
L 301.727566 345.174324 
L 306.070305 339.058622 
L 310.413088 332.07131 
L 314.755827 326.027415 
L 319.09861 318.902502 
L 323.441349 312.148652 
L 327.784132 304.755778 
L 332.126871 296.59409 
L 336.46961 289.341275 
L 340.812393 281.558727 
L 345.155132 271.701444 
L 349.497915 263.609545 
L 353.840654 255.111599 
L 358.183393 246.37848 
L 362.526176 236.840995 
L 366.868915 228.604822 
L 371.211698 218.88062 
L 375.554437 208.125964 
L 379.897176 199.172112 
L 384.239959 188.427156 
L 388.582698 177.455014 
L 392.925481 166.876321 
L 397.26822 156.153179 
L 401.611003 146.754174 
L 405.953742 133.017446 
L 410.29648 120.214741 
L 414.639264 110.898121 
L 418.982003 101.256919 
L 423.324786 89.425063 
L 427.667525 78.12 
" style="fill:none;stroke:#1f77b4;stroke-linecap:square;stroke-width:1.5;"/>
   </g>
   <g id="patch_3">
    <path d="M 63 448.56 
L 63 60.48 
" style="fill:none;stroke:#000000;stroke-linecap:square;stroke-linejoin:miter;stroke-width:0.8;"/>
   </g>
   <g id="patch_4">
    <path d="M 453.6 448.56 
L 453.6 60.48 
" style="fill:none;stroke:#000000;stroke-linecap:square;stroke-linejoin:miter;stroke-width:0.8;"/>
   </g>
   <g id="patch_5">
    <path d="M 63 448.56 
L 453.6 448.56 
" style="fill:none;stroke:#000000;stroke-linecap:square;stroke-linejoin:miter;stroke-width:0.8;"/>
   </g>
   <g id="patch_6">
    <path d="M 63 60.48 
L 453.6 60.48 
" style="fill:none;stroke:#000000;stroke-linecap:square;stroke-linejoin:miter;stroke-width:0.8;"/>
   </g>
   <g id="text_22">
    <text style="font-family:DejaVu Sans;font-size:12px;font-style:normal;font-weight:normal;text-anchor:middle;" transform="rotate(-0, 258.3, 54.48)" x="258.3" y="54.48">dos</text>
   </g>
   <g id="legend_1">
    <g id="patch_7">
     <path d="M 70 83.158125 
L 142.95625 83.158125 
Q 144.95625 83.158125 144.95625 81.158125 
L 144.95625 67.48 
Q 144.95625 65.48 142.95625 65.48 
L 70 65.48 
Q 68 65.48 68 67.48 
L 68 81.158125 
Q 68 83.158125 70 83.158125 
z
" style="fill:#ffffff;opacity:0.8;stroke:#cccccc;stroke-linejoin:miter;"/>
    </g>
    <g id="PathCollection_2">
     <g>
      <use style="fill:#1f77b4;stroke:#1f77b4;" x="82" xlink:href="#m44ee1a9164" y="74.453438"/>
     </g>
    </g>
    <g id="text_23">
     <text style="font-family:DejaVu Sans;font-size:10px;font-style:normal;font-weight:normal;text-anchor:start;" transform="rotate(-0, 100, 77.078438)" x="100" y="77.078438">numeric</text>
    </g>
   </g>
  </g>
 </g>
 <defs>
  <clipPath id="pa5aee6ce85">
   <rect height="388.08" width="390.6" x="63" y="60.48"/>
  </clipPath>
 </defs>
</svg>
