<?xml version="1.0" encoding="utf-8" standalone="no"?>
<!DOCTYPE svg PUBLIC "-//W3C//DTD SVG 1.1//EN"
  "http://www.w3.org/Graphics/SVG/1.1/DTD/svg11.dtd">
<!-- Created with matplotlib (https://matplotlib.org/) -->
<svg height="504pt" version="1.1" viewBox="0 0 504 504" width="504pt" xmlns="http://www.w3.org/2000/svg" xmlns:xlink="http://www.w3.org/1999/xlink">
 <defs>
  <style type="text/css">
*{stroke-linecap:butt;stroke-linejoin:round;}
  </style>
 </defs>
 <g id="figure_1">
  <g id="patch_1">
   <path d="M 0 504 
L 504 504 
L 504 0 
L 0 0 
z
" style="fill:#ffffff;"/>
  </g>
  <g id="axes_1">
   <g id="patch_2">
    <path d="M 63 448.56 
L 453.6 448.56 
L 453.6 60.48 
L 63 60.48 
z
" style="fill:#ffffff;"/>
   </g>
   <g id="PathCollection_1">
    <defs>
     <path d="M 0 1 
C 0.265203 1 0.51958 0.894634 0.707107 0.707107 
C 0.894634 0.51958 1 0.265203 1 0 
C 1 -0.265203 0.894634 -0.51958 0.707107 -0.707107 
C 0.51958 -0.894634 0.265203 -1 0 -1 
C -0.265203 -1 -0.51958 -0.894634 -0.707107 -0.707107 
C -0.894634 -0.51958 -1 -0.265203 -1 0 
C -1 0.265203 -0.894634 0.51958 -0.707107 0.707107 
C -0.51958 0.894634 -0.265203 1 0 1 
z
" id="m40a3d01874" style="stroke:#1f77b4;"/>
    </defs>
    <g clip-path="url(#p59c399ac2d)">
     <use style="fill:#1f77b4;stroke:#1f77b4;" x="92.965869" xlink:href="#m40a3d01874" y="78.12"/>
     <use style="fill:#1f77b4;stroke:#1f77b4;" x="97.205243" xlink:href="#m40a3d01874" y="87.699865"/>
     <use style="fill:#1f77b4;stroke:#1f77b4;" x="101.444551" xlink:href="#m40a3d01874" y="96.687322"/>
     <use style="fill:#1f77b4;stroke:#1f77b4;" x="105.683925" xlink:href="#m40a3d01874" y="105.508503"/>
     <use style="fill:#1f77b4;stroke:#1f77b4;" x="109.923233" xlink:href="#m40a3d01874" y="113.994174"/>
     <use style="fill:#1f77b4;stroke:#1f77b4;" x="114.162607" xlink:href="#m40a3d01874" y="122.764038"/>
     <use style="fill:#1f77b4;stroke:#1f77b4;" x="118.401915" xlink:href="#m40a3d01874" y="130.335601"/>
     <use style="fill:#1f77b4;stroke:#1f77b4;" x="122.641222" xlink:href="#m40a3d01874" y="139.374888"/>
     <use style="fill:#1f77b4;stroke:#1f77b4;" x="126.880597" xlink:href="#m40a3d01874" y="146.383715"/>
     <use style="fill:#1f77b4;stroke:#1f77b4;" x="131.119904" xlink:href="#m40a3d01874" y="155.092695"/>
     <use style="fill:#1f77b4;stroke:#1f77b4;" x="135.359278" xlink:href="#m40a3d01874" y="163.718632"/>
     <use style="fill:#1f77b4;stroke:#1f77b4;" x="139.598586" xlink:href="#m40a3d01874" y="171.003304"/>
     <use style="fill:#1f77b4;stroke:#1f77b4;" x="143.83796" xlink:href="#m40a3d01874" y="178.566967"/>
     <use style="fill:#1f77b4;stroke:#1f77b4;" x="148.077268" xlink:href="#m40a3d01874" y="186.811603"/>
     <use style="fill:#1f77b4;stroke:#1f77b4;" x="152.316576" xlink:href="#m40a3d01874" y="194.41714"/>
     <use style="fill:#1f77b4;stroke:#1f77b4;" x="156.55595" xlink:href="#m40a3d01874" y="201.963013"/>
     <use style="fill:#1f77b4;stroke:#1f77b4;" x="160.795258" xlink:href="#m40a3d01874" y="209.741122"/>
     <use style="fill:#1f77b4;stroke:#1f77b4;" x="165.034632" xlink:href="#m40a3d01874" y="216.601591"/>
     <use style="fill:#1f77b4;stroke:#1f77b4;" x="169.27394" xlink:href="#m40a3d01874" y="224.493891"/>
     <use style="fill:#1f77b4;stroke:#1f77b4;" x="173.513314" xlink:href="#m40a3d01874" y="231.009537"/>
     <use style="fill:#1f77b4;stroke:#1f77b4;" x="177.752622" xlink:href="#m40a3d01874" y="238.028705"/>
     <use style="fill:#1f77b4;stroke:#1f77b4;" x="181.991929" xlink:href="#m40a3d01874" y="244.204989"/>
     <use style="fill:#1f77b4;stroke:#1f77b4;" x="186.231303" xlink:href="#m40a3d01874" y="251.157555"/>
     <use style="fill:#1f77b4;stroke:#1f77b4;" x="190.470611" xlink:href="#m40a3d01874" y="258.229515"/>
     <use style="fill:#1f77b4;stroke:#1f77b4;" x="194.709985" xlink:href="#m40a3d01874" y="264.900713"/>
     <use style="fill:#1f77b4;stroke:#1f77b4;" x="198.949293" xlink:href="#m40a3d01874" y="271.277249"/>
     <use style="fill:#1f77b4;stroke:#1f77b4;" x="203.188667" xlink:href="#m40a3d01874" y="277.50973"/>
     <use style="fill:#1f77b4;stroke:#1f77b4;" x="207.427975" xlink:href="#m40a3d01874" y="283.807655"/>
     <use style="fill:#1f77b4;stroke:#1f77b4;" x="211.667349" xlink:href="#m40a3d01874" y="289.649393"/>
     <use style="fill:#1f77b4;stroke:#1f77b4;" x="215.906657" xlink:href="#m40a3d01874" y="295.657152"/>
     <use style="fill:#1f77b4;stroke:#1f77b4;" x="220.145965" xlink:href="#m40a3d01874" y="301.593044"/>
     <use style="fill:#1f77b4;stroke:#1f77b4;" x="224.385339" xlink:href="#m40a3d01874" y="307.248338"/>
     <use style="fill:#1f77b4;stroke:#1f77b4;" x="228.624647" xlink:href="#m40a3d01874" y="313.241132"/>
     <use style="fill:#1f77b4;stroke:#1f77b4;" x="232.864021" xlink:href="#m40a3d01874" y="318.6543"/>
     <use style="fill:#1f77b4;stroke:#1f77b4;" x="237.103328" xlink:href="#m40a3d01874" y="324.102277"/>
     <use style="fill:#1f77b4;stroke:#1f77b4;" x="241.342702" xlink:href="#m40a3d01874" y="329.385583"/>
     <use style="fill:#1f77b4;stroke:#1f77b4;" x="245.58201" xlink:href="#m40a3d01874" y="334.2522"/>
     <use style="fill:#1f77b4;stroke:#1f77b4;" x="249.821318" xlink:href="#m40a3d01874" y="339.657339"/>
     <use style="fill:#1f77b4;stroke:#1f77b4;" x="254.060692" xlink:href="#m40a3d01874" y="344.889843"/>
     <use style="fill:#1f77b4;stroke:#1f77b4;" x="258.3" xlink:href="#m40a3d01874" y="349.652994"/>
     <use style="fill:#1f77b4;stroke:#1f77b4;" x="262.539374" xlink:href="#m40a3d01874" y="354.353975"/>
     <use style="fill:#1f77b4;stroke:#1f77b4;" x="266.778682" xlink:href="#m40a3d01874" y="359.052516"/>
     <use style="fill:#1f77b4;stroke:#1f77b4;" x="271.018056" xlink:href="#m40a3d01874" y="363.625241"/>
     <use style="fill:#1f77b4;stroke:#1f77b4;" x="275.257364" xlink:href="#m40a3d01874" y="367.881622"/>
     <use style="fill:#1f77b4;stroke:#1f77b4;" x="279.496672" xlink:href="#m40a3d01874" y="371.9992"/>
     <use style="fill:#1f77b4;stroke:#1f77b4;" x="283.736046" xlink:href="#m40a3d01874" y="376.354936"/>
     <use style="fill:#1f77b4;stroke:#1f77b4;" x="287.975353" xlink:href="#m40a3d01874" y="380.346146"/>
     <use style="fill:#1f77b4;stroke:#1f77b4;" x="292.214728" xlink:href="#m40a3d01874" y="384.567569"/>
     <use style="fill:#1f77b4;stroke:#1f77b4;" x="296.454035" xlink:href="#m40a3d01874" y="388.213315"/>
     <use style="fill:#1f77b4;stroke:#1f77b4;" x="300.693409" xlink:href="#m40a3d01874" y="391.732243"/>
     <use style="fill:#1f77b4;stroke:#1f77b4;" x="304.932717" xlink:href="#m40a3d01874" y="395.309661"/>
     <use style="fill:#1f77b4;stroke:#1f77b4;" x="309.172025" xlink:href="#m40a3d01874" y="398.672954"/>
     <use style="fill:#1f77b4;stroke:#1f77b4;" x="313.411399" xlink:href="#m40a3d01874" y="401.918517"/>
     <use style="fill:#1f77b4;stroke:#1f77b4;" x="317.639842" xlink:href="#m40a3d01874" y="404.954772"/>
     <use style="fill:#1f77b4;stroke:#1f77b4;" x="331.4191" xlink:href="#m40a3d01874" y="414.247309"/>
     <use style="fill:#1f77b4;stroke:#1f77b4;" x="340.50811" xlink:href="#m40a3d01874" y="419.69632"/>
     <use style="fill:#1f77b4;stroke:#1f77b4;" x="346.480888" xlink:href="#m40a3d01874" y="423.017148"/>
     <use style="fill:#1f77b4;stroke:#1f77b4;" x="350.389163" xlink:href="#m40a3d01874" y="425.181141"/>
     <use style="fill:#1f77b4;stroke:#1f77b4;" x="352.934086" xlink:href="#m40a3d01874" y="426.601787"/>
     <use style="fill:#1f77b4;stroke:#1f77b4;" x="354.581899" xlink:href="#m40a3d01874" y="427.650362"/>
     <use style="fill:#1f77b4;stroke:#1f77b4;" x="355.641908" xlink:href="#m40a3d01874" y="428.41963"/>
     <use style="fill:#1f77b4;stroke:#1f77b4;" x="356.318417" xlink:href="#m40a3d01874" y="428.99875"/>
     <use style="fill:#1f77b4;stroke:#1f77b4;" x="356.746104" xlink:href="#m40a3d01874" y="429.452319"/>
     <use style="fill:#1f77b4;stroke:#1f77b4;" x="357.013475" xlink:href="#m40a3d01874" y="429.803475"/>
     <use style="fill:#1f77b4;stroke:#1f77b4;" x="357.178097" xlink:href="#m40a3d01874" y="430.089528"/>
     <use style="fill:#1f77b4;stroke:#1f77b4;" x="357.277665" xlink:href="#m40a3d01874" y="430.31962"/>
     <use style="fill:#1f77b4;stroke:#1f77b4;" x="357.33636" xlink:href="#m40a3d01874" y="430.511953"/>
     <use style="fill:#1f77b4;stroke:#1f77b4;" x="357.369748" xlink:href="#m40a3d01874" y="430.678431"/>
     <use style="fill:#1f77b4;stroke:#1f77b4;" x="357.387701" xlink:href="#m40a3d01874" y="430.92"/>
     <use style="fill:#1f77b4;stroke:#1f77b4;" x="357.405653" xlink:href="#m40a3d01874" y="430.92"/>
     <use style="fill:#1f77b4;stroke:#1f77b4;" x="357.439042" xlink:href="#m40a3d01874" y="430.92"/>
     <use style="fill:#1f77b4;stroke:#1f77b4;" x="357.497736" xlink:href="#m40a3d01874" y="430.92"/>
     <use style="fill:#1f77b4;stroke:#1f77b4;" x="357.597304" xlink:href="#m40a3d01874" y="430.92"/>
     <use style="fill:#1f77b4;stroke:#1f77b4;" x="357.761993" xlink:href="#m40a3d01874" y="430.92"/>
     <use style="fill:#1f77b4;stroke:#1f77b4;" x="358.029297" xlink:href="#m40a3d01874" y="430.92"/>
     <use style="fill:#1f77b4;stroke:#1f77b4;" x="358.457051" xlink:href="#m40a3d01874" y="430.92"/>
     <use style="fill:#1f77b4;stroke:#1f77b4;" x="359.133493" xlink:href="#m40a3d01874" y="430.92"/>
     <use style="fill:#1f77b4;stroke:#1f77b4;" x="360.193502" xlink:href="#m40a3d01874" y="430.92"/>
     <use style="fill:#1f77b4;stroke:#1f77b4;" x="361.841316" xlink:href="#m40a3d01874" y="430.92"/>
     <use style="fill:#1f77b4;stroke:#1f77b4;" x="364.386239" xlink:href="#m40a3d01874" y="430.92"/>
     <use style="fill:#1f77b4;stroke:#1f77b4;" x="368.294513" xlink:href="#m40a3d01874" y="430.92"/>
     <use style="fill:#1f77b4;stroke:#1f77b4;" x="374.267291" xlink:href="#m40a3d01874" y="430.92"/>
     <use style="fill:#1f77b4;stroke:#1f77b4;" x="383.356301" xlink:href="#m40a3d01874" y="430.92"/>
     <use style="fill:#1f77b4;stroke:#1f77b4;" x="397.135559" xlink:href="#m40a3d01874" y="430.92"/>
     <use style="fill:#1f77b4;stroke:#1f77b4;" x="398.198152" xlink:href="#m40a3d01874" y="430.92"/>
     <use style="fill:#1f77b4;stroke:#1f77b4;" x="402.437459" xlink:href="#m40a3d01874" y="430.92"/>
     <use style="fill:#1f77b4;stroke:#1f77b4;" x="406.676767" xlink:href="#m40a3d01874" y="430.92"/>
     <use style="fill:#1f77b4;stroke:#1f77b4;" x="410.916141" xlink:href="#m40a3d01874" y="430.92"/>
     <use style="fill:#1f77b4;stroke:#1f77b4;" x="415.155449" xlink:href="#m40a3d01874" y="430.92"/>
     <use style="fill:#1f77b4;stroke:#1f77b4;" x="419.394823" xlink:href="#m40a3d01874" y="430.92"/>
     <use style="fill:#1f77b4;stroke:#1f77b4;" x="423.634131" xlink:href="#m40a3d01874" y="430.92"/>
    </g>
   </g>
   <g id="matplotlib.axis_1">
    <g id="xtick_1">
     <g id="line2d_1">
      <defs>
       <path d="M 0 0 
L 0 3.5 
" id="m98d80460f0" style="stroke:#000000;stroke-width:0.8;"/>
      </defs>
      <g>
       <use style="stroke:#000000;stroke-width:0.8;" x="88.726561" xlink:href="#m98d80460f0" y="448.56"/>
      </g>
     </g>
     <g id="text_1">
      <text style="font-family:DejaVu Sans;font-size:10px;font-style:normal;font-weight:normal;text-anchor:middle;" transform="rotate(-0, 88.726561, 463.158437)" x="88.726561" y="463.158437">−0.08</text>
     </g>
    </g>
    <g id="xtick_2">
     <g id="line2d_2">
      <g>
       <use style="stroke:#000000;stroke-width:0.8;" x="154.972992" xlink:href="#m98d80460f0" y="448.56"/>
      </g>
     </g>
     <g id="text_2">
      <text style="font-family:DejaVu Sans;font-size:10px;font-style:normal;font-weight:normal;text-anchor:middle;" transform="rotate(-0, 154.972992, 463.158437)" x="154.972992" y="463.158437">−0.07</text>
     </g>
    </g>
    <g id="xtick_3">
     <g id="line2d_3">
      <g>
       <use style="stroke:#000000;stroke-width:0.8;" x="221.219422" xlink:href="#m98d80460f0" y="448.56"/>
      </g>
     </g>
     <g id="text_3">
      <text style="font-family:DejaVu Sans;font-size:10px;font-style:normal;font-weight:normal;text-anchor:middle;" transform="rotate(-0, 221.219422, 463.158437)" x="221.219422" y="463.158437">−0.06</text>
     </g>
    </g>
    <g id="xtick_4">
     <g id="line2d_4">
      <g>
       <use style="stroke:#000000;stroke-width:0.8;" x="287.465852" xlink:href="#m98d80460f0" y="448.56"/>
      </g>
     </g>
     <g id="text_4">
      <text style="font-family:DejaVu Sans;font-size:10px;font-style:normal;font-weight:normal;text-anchor:middle;" transform="rotate(-0, 287.465852, 463.158437)" x="287.465852" y="463.158437">−0.05</text>
     </g>
    </g>
    <g id="xtick_5">
     <g id="line2d_5">
      <g>
       <use style="stroke:#000000;stroke-width:0.8;" x="353.712282" xlink:href="#m98d80460f0" y="448.56"/>
      </g>
     </g>
     <g id="text_5">
      <text style="font-family:DejaVu Sans;font-size:10px;font-style:normal;font-weight:normal;text-anchor:middle;" transform="rotate(-0, 353.712282, 463.158437)" x="353.712282" y="463.158437">−0.04</text>
     </g>
    </g>
    <g id="xtick_6">
     <g id="line2d_6">
      <g>
       <use style="stroke:#000000;stroke-width:0.8;" x="419.958713" xlink:href="#m98d80460f0" y="448.56"/>
      </g>
     </g>
     <g id="text_6">
      <text style="font-family:DejaVu Sans;font-size:10px;font-style:normal;font-weight:normal;text-anchor:middle;" transform="rotate(-0, 419.958713, 463.158437)" x="419.958713" y="463.158437">−0.03</text>
     </g>
    </g>
    <g id="text_7">
     <text style="font-family:DejaVu Sans;font-size:10px;font-style:normal;font-weight:normal;text-anchor:middle;" transform="rotate(-0, 258.3, 476.836563)" x="258.3" y="476.836563">mu [eV]</text>
    </g>
   </g>
   <g id="matplotlib.axis_2">
    <g id="ytick_1">
     <g id="line2d_7">
      <defs>
       <path d="M 0 0 
L -3.5 0 
" id="mbb15a8715e" style="stroke:#000000;stroke-width:0.8;"/>
      </defs>
      <g>
       <use style="stroke:#000000;stroke-width:0.8;" x="63" xlink:href="#mbb15a8715e" y="430.92"/>
      </g>
     </g>
     <g id="text_8">
      <!-- $\mathdefault{0}$ -->
      <g transform="translate(49.6 434.719219)">
       <text>
        <tspan style="font-family:DejaVu Sans;font-size:10px;font-style:book;font-weight:book;" x="0" y="-0.578125">0</tspan>
       </text>
      </g>
     </g>
    </g>
    <g id="ytick_2">
     <g id="line2d_8">
      <g>
       <use style="stroke:#000000;stroke-width:0.8;" x="63" xlink:href="#mbb15a8715e" y="366.695432"/>
      </g>
     </g>
     <g id="text_9">
      <!-- $\mathdefault{1}$ -->
      <g transform="translate(49.6 370.494651)">
       <text>
        <tspan style="font-family:DejaVu Sans;font-size:10px;font-style:book;font-weight:book;" x="0" y="-0.703125">1</tspan>
       </text>
      </g>
     </g>
    </g>
    <g id="ytick_3">
     <g id="line2d_9">
      <g>
       <use style="stroke:#000000;stroke-width:0.8;" x="63" xlink:href="#mbb15a8715e" y="302.470865"/>
      </g>
     </g>
     <g id="text_10">
      <!-- $\mathdefault{2}$ -->
      <g transform="translate(49.6 306.270084)">
       <text>
        <tspan style="font-family:DejaVu Sans;font-size:10px;font-style:book;font-weight:book;" x="0" y="-0.578125">2</tspan>
       </text>
      </g>
     </g>
    </g>
    <g id="ytick_4">
     <g id="line2d_10">
      <g>
       <use style="stroke:#000000;stroke-width:0.8;" x="63" xlink:href="#mbb15a8715e" y="238.246297"/>
      </g>
     </g>
     <g id="text_11">
      <!-- $\mathdefault{3}$ -->
      <g transform="translate(49.6 242.045516)">
       <text>
        <tspan style="font-family:DejaVu Sans;font-size:10px;font-style:book;font-weight:book;" x="0" y="-0.578125">3</tspan>
       </text>
      </g>
     </g>
    </g>
    <g id="ytick_5">
     <g id="line2d_11">
      <g>
       <use style="stroke:#000000;stroke-width:0.8;" x="63" xlink:href="#mbb15a8715e" y="174.02173"/>
      </g>
     </g>
     <g id="text_12">
      <!-- $\mathdefault{4}$ -->
      <g transform="translate(49.6 177.820949)">
       <text>
        <tspan style="font-family:DejaVu Sans;font-size:10px;font-style:book;font-weight:book;" x="0" y="-0.703125">4</tspan>
       </text>
      </g>
     </g>
    </g>
    <g id="ytick_6">
     <g id="line2d_12">
      <g>
       <use style="stroke:#000000;stroke-width:0.8;" x="63" xlink:href="#mbb15a8715e" y="109.797162"/>
      </g>
     </g>
     <g id="text_13">
      <!-- $\mathdefault{5}$ -->
      <g transform="translate(49.6 113.596381)">
       <text>
        <tspan style="font-family:DejaVu Sans;font-size:10px;font-style:book;font-weight:book;" x="0" y="-0.703125">5</tspan>
       </text>
      </g>
     </g>
    </g>
    <g id="text_14">
     <text style="font-family:DejaVu Sans;font-size:10px;font-style:normal;font-weight:normal;text-anchor:middle;" transform="rotate(-90, 43.520313, 254.52)" x="43.520313" y="254.52">DOS [/eV m3]</text>
    </g>
    <g id="text_15">
     <!-- $\times\mathdefault{10^{24}}\mathdefault{}$ -->
     <g transform="translate(63 57.48)">
      <text>
       <tspan style="font-family:DejaVu Sans;font-size:10px;font-style:book;font-weight:book;" x="0 8.378906 14.741211" y="-0.9765625">×10</tspan>
       <tspan style="font-family:DejaVu Sans;font-size:7px;font-style:book;font-weight:book;" x="21.199219 25.652832" y="-4.8046875">24</tspan>
      </text>
     </g>
    </g>
   </g>
   <g id="line2d_13">
    <path clip-path="url(#p59c399ac2d)" d="M 92.965869 78.12 
L 97.205243 87.699865 
L 101.444551 96.687322 
L 105.683925 105.508503 
L 109.923233 113.994174 
L 114.162607 122.764038 
L 118.401915 130.335601 
L 122.641222 139.374888 
L 126.880597 146.383715 
L 131.119904 155.092695 
L 135.359278 163.718632 
L 139.598586 171.003304 
L 143.83796 178.566967 
L 148.077268 186.811603 
L 152.316576 194.41714 
L 156.55595 201.963013 
L 160.795258 209.741122 
L 165.034632 216.601591 
L 169.27394 224.493891 
L 173.513314 231.009537 
L 177.752622 238.028705 
L 181.991929 244.204989 
L 186.231303 251.157555 
L 190.470611 258.229515 
L 194.709985 264.900713 
L 198.949293 271.277249 
L 203.188667 277.50973 
L 207.427975 283.807655 
L 211.667349 289.649393 
L 215.906657 295.657152 
L 220.145965 301.593044 
L 224.385339 307.248338 
L 228.624647 313.241132 
L 232.864021 318.6543 
L 237.103328 324.102277 
L 241.342702 329.385583 
L 245.58201 334.2522 
L 249.821318 339.657339 
L 254.060692 344.889843 
L 258.3 349.652994 
L 262.539374 354.353975 
L 266.778682 359.052516 
L 271.018056 363.625241 
L 275.257364 367.881622 
L 279.496672 371.9992 
L 283.736046 376.354936 
L 287.975353 380.346146 
L 292.214728 384.567569 
L 296.454035 388.213315 
L 300.693409 391.732243 
L 304.932717 395.309661 
L 309.172025 398.672954 
L 313.411399 401.918517 
L 317.639842 404.954772 
L 331.4191 414.247309 
L 340.50811 419.69632 
L 346.480888 423.017148 
L 350.389163 425.181141 
L 352.934086 426.601787 
L 354.581899 427.650362 
L 355.641908 428.41963 
L 356.318417 428.99875 
L 356.746104 429.452319 
L 357.013475 429.803475 
L 357.178097 430.089528 
L 357.277665 430.31962 
L 357.33636 430.511953 
L 357.369748 430.678431 
L 357.387701 430.92 
L 357.405653 430.92 
L 357.439042 430.92 
L 357.497736 430.92 
L 357.597304 430.92 
L 357.761993 430.92 
L 358.029297 430.92 
L 358.457051 430.92 
L 359.133493 430.92 
L 360.193502 430.92 
L 361.841316 430.92 
L 364.386239 430.92 
L 368.294513 430.92 
L 374.267291 430.92 
L 383.356301 430.92 
L 397.135559 430.92 
L 398.198152 430.92 
L 402.437459 430.92 
L 406.676767 430.92 
L 410.916141 430.92 
L 415.155449 430.92 
L 419.394823 430.92 
L 423.634131 430.92 
" style="fill:none;stroke:#1f77b4;stroke-linecap:square;stroke-width:1.5;"/>
   </g>
   <g id="patch_3">
    <path d="M 63 448.56 
L 63 60.48 
" style="fill:none;stroke:#000000;stroke-linecap:square;stroke-linejoin:miter;stroke-width:0.8;"/>
   </g>
   <g id="patch_4">
    <path d="M 453.6 448.56 
L 453.6 60.48 
" style="fill:none;stroke:#000000;stroke-linecap:square;stroke-linejoin:miter;stroke-width:0.8;"/>
   </g>
   <g id="patch_5">
    <path d="M 63 448.56 
L 453.6 448.56 
" style="fill:none;stroke:#000000;stroke-linecap:square;stroke-linejoin:miter;stroke-width:0.8;"/>
   </g>
   <g id="patch_6">
    <path d="M 63 60.48 
L 453.6 60.48 
" style="fill:none;stroke:#000000;stroke-linecap:square;stroke-linejoin:miter;stroke-width:0.8;"/>
   </g>
   <g id="text_16">
    <text style="font-family:DejaVu Sans;font-size:12px;font-style:normal;font-weight:normal;text-anchor:middle;" transform="rotate(-0, 258.3, 54.48)" x="258.3" y="54.48">dos</text>
   </g>
   <g id="legend_1">
    <g id="patch_7">
     <path d="M 373.64375 83.158125 
L 446.6 83.158125 
Q 448.6 83.158125 448.6 81.158125 
L 448.6 67.48 
Q 448.6 65.48 446.6 65.48 
L 373.64375 65.48 
Q 371.64375 65.48 371.64375 67.48 
L 371.64375 81.158125 
Q 371.64375 83.158125 373.64375 83.158125 
z
" style="fill:#ffffff;opacity:0.8;stroke:#cccccc;stroke-linejoin:miter;"/>
    </g>
    <g id="PathCollection_2">
     <g>
      <use style="fill:#1f77b4;stroke:#1f77b4;" x="385.64375" xlink:href="#m40a3d01874" y="74.453438"/>
     </g>
    </g>
    <g id="text_17">
     <text style="font-family:DejaVu Sans;font-size:10px;font-style:normal;font-weight:normal;text-anchor:start;" transform="rotate(-0, 403.64375, 77.078438)" x="403.64375" y="77.078438">numeric</text>
    </g>
   </g>
  </g>
 </g>
 <defs>
  <clipPath id="p59c399ac2d">
   <rect height="388.08" width="390.6" x="63" y="60.48"/>
  </clipPath>
 </defs>
</svg>
