<?xml version="1.0" encoding="utf-8" standalone="no"?>
<!DOCTYPE svg PUBLIC "-//W3C//DTD SVG 1.1//EN"
  "http://www.w3.org/Graphics/SVG/1.1/DTD/svg11.dtd">
<svg xmlns:xlink="http://www.w3.org/1999/xlink" width="504pt" height="504pt" viewBox="0 0 504 504" xmlns="http://www.w3.org/2000/svg" version="1.1">
 <metadata>
  <rdf:RDF xmlns:dc="http://purl.org/dc/elements/1.1/" xmlns:cc="http://creativecommons.org/ns#" xmlns:rdf="http://www.w3.org/1999/02/22-rdf-syntax-ns#">
   <cc:Work>
    <dc:type rdf:resource="http://purl.org/dc/dcmitype/StillImage"/>
    <dc:date>2022-04-24T20:31:51.796337</dc:date>
    <dc:format>image/svg+xml</dc:format>
    <dc:creator>
     <cc:Agent>
      <dc:title>Matplotlib v3.5.1, https://matplotlib.org/</dc:title>
     </cc:Agent>
    </dc:creator>
   </cc:Work>
  </rdf:RDF>
 </metadata>
 <defs>
  <style type="text/css">*{stroke-linejoin: round; stroke-linecap: butt}</style>
 </defs>
 <g id="figure_1">
  <g id="patch_1">
   <path d="M 0 504 
L 504 504 
L 504 0 
L 0 0 
z
" style="fill: #ffffff"/>
  </g>
  <g id="axes_1">
   <g id="patch_2">
    <path d="M 63 448.56 
L 453.6 448.56 
L 453.6 60.48 
L 63 60.48 
z
" style="fill: #ffffff"/>
   </g>
   <g id="PathCollection_1">
    <defs>
     <path id="mba27671cbd" d="M 0 1 
C 0.265203 1 0.51958 0.894634 0.707107 0.707107 
C 0.894634 0.51958 1 0.265203 1 0 
C 1 -0.265203 0.894634 -0.51958 0.707107 -0.707107 
C 0.51958 -0.894634 0.265203 -1 0 -1 
C -0.265203 -1 -0.51958 -0.894634 -0.707107 -0.707107 
C -0.894634 -0.51958 -1 -0.265203 -1 0 
C -1 0.265203 -0.894634 0.51958 -0.707107 0.707107 
C -0.51958 0.894634 -0.265203 1 0 1 
z
" style="stroke: #1f77b4"/>
    </defs>
    <g clip-path="url(#pbc83d3b8e9)">
     <use xlink:href="#mba27671cbd" x="83.738496" y="84.346651" style="fill: #1f77b4; stroke: #1f77b4"/>
     <use xlink:href="#mba27671cbd" x="86.722446" y="90.232739" style="fill: #1f77b4; stroke: #1f77b4"/>
     <use xlink:href="#mba27671cbd" x="89.706396" y="96.07452" style="fill: #1f77b4; stroke: #1f77b4"/>
     <use xlink:href="#mba27671cbd" x="92.690347" y="101.860553" style="fill: #1f77b4; stroke: #1f77b4"/>
     <use xlink:href="#mba27671cbd" x="95.674297" y="107.604884" style="fill: #1f77b4; stroke: #1f77b4"/>
     <use xlink:href="#mba27671cbd" x="98.658247" y="113.292131" style="fill: #1f77b4; stroke: #1f77b4"/>
     <use xlink:href="#mba27671cbd" x="101.642261" y="118.929033" style="fill: #1f77b4; stroke: #1f77b4"/>
     <use xlink:href="#mba27671cbd" x="104.626211" y="124.517876" style="fill: #1f77b4; stroke: #1f77b4"/>
     <use xlink:href="#mba27671cbd" x="107.610161" y="130.057455" style="fill: #1f77b4; stroke: #1f77b4"/>
     <use xlink:href="#mba27671cbd" x="110.594112" y="135.544844" style="fill: #1f77b4; stroke: #1f77b4"/>
     <use xlink:href="#mba27671cbd" x="113.578062" y="140.98246" style="fill: #1f77b4; stroke: #1f77b4"/>
     <use xlink:href="#mba27671cbd" x="116.562012" y="146.371636" style="fill: #1f77b4; stroke: #1f77b4"/>
     <use xlink:href="#mba27671cbd" x="119.545963" y="151.710212" style="fill: #1f77b4; stroke: #1f77b4"/>
     <use xlink:href="#mba27671cbd" x="122.529913" y="156.99698" style="fill: #1f77b4; stroke: #1f77b4"/>
     <use xlink:href="#mba27671cbd" x="125.513863" y="162.238552" style="fill: #1f77b4; stroke: #1f77b4"/>
     <use xlink:href="#mba27671cbd" x="128.497877" y="167.427616" style="fill: #1f77b4; stroke: #1f77b4"/>
     <use xlink:href="#mba27671cbd" x="131.481827" y="172.560422" style="fill: #1f77b4; stroke: #1f77b4"/>
     <use xlink:href="#mba27671cbd" x="134.465778" y="177.647396" style="fill: #1f77b4; stroke: #1f77b4"/>
     <use xlink:href="#mba27671cbd" x="137.449728" y="182.691652" style="fill: #1f77b4; stroke: #1f77b4"/>
     <use xlink:href="#mba27671cbd" x="140.433678" y="187.674056" style="fill: #1f77b4; stroke: #1f77b4"/>
     <use xlink:href="#mba27671cbd" x="143.417628" y="192.606178" style="fill: #1f77b4; stroke: #1f77b4"/>
     <use xlink:href="#mba27671cbd" x="146.401579" y="197.500159" style="fill: #1f77b4; stroke: #1f77b4"/>
     <use xlink:href="#mba27671cbd" x="149.385529" y="202.338136" style="fill: #1f77b4; stroke: #1f77b4"/>
     <use xlink:href="#mba27671cbd" x="152.369479" y="207.121191" style="fill: #1f77b4; stroke: #1f77b4"/>
     <use xlink:href="#mba27671cbd" x="155.353493" y="211.858413" style="fill: #1f77b4; stroke: #1f77b4"/>
     <use xlink:href="#mba27671cbd" x="158.337443" y="216.545988" style="fill: #1f77b4; stroke: #1f77b4"/>
     <use xlink:href="#mba27671cbd" x="161.321394" y="221.18023" style="fill: #1f77b4; stroke: #1f77b4"/>
     <use xlink:href="#mba27671cbd" x="164.305344" y="225.767876" style="fill: #1f77b4; stroke: #1f77b4"/>
     <use xlink:href="#mba27671cbd" x="167.289294" y="230.301553" style="fill: #1f77b4; stroke: #1f77b4"/>
     <use xlink:href="#mba27671cbd" x="170.273244" y="234.787999" style="fill: #1f77b4; stroke: #1f77b4"/>
     <use xlink:href="#mba27671cbd" x="173.257195" y="239.229375" style="fill: #1f77b4; stroke: #1f77b4"/>
     <use xlink:href="#mba27671cbd" x="176.241145" y="243.605848" style="fill: #1f77b4; stroke: #1f77b4"/>
     <use xlink:href="#mba27671cbd" x="179.225095" y="247.938713" style="fill: #1f77b4; stroke: #1f77b4"/>
     <use xlink:href="#mba27671cbd" x="182.209109" y="252.2267" style="fill: #1f77b4; stroke: #1f77b4"/>
     <use xlink:href="#mba27671cbd" x="185.193059" y="256.46256" style="fill: #1f77b4; stroke: #1f77b4"/>
     <use xlink:href="#mba27671cbd" x="188.17701" y="260.646294" style="fill: #1f77b4; stroke: #1f77b4"/>
     <use xlink:href="#mba27671cbd" x="191.16096" y="264.571434" style="fill: #1f77b4; stroke: #1f77b4"/>
     <use xlink:href="#mba27671cbd" x="194.14491" y="268.657083" style="fill: #1f77b4; stroke: #1f77b4"/>
     <use xlink:href="#mba27671cbd" x="197.128861" y="272.69264" style="fill: #1f77b4; stroke: #1f77b4"/>
     <use xlink:href="#mba27671cbd" x="200.112811" y="276.676962" style="fill: #1f77b4; stroke: #1f77b4"/>
     <use xlink:href="#mba27671cbd" x="203.096761" y="280.612209" style="fill: #1f77b4; stroke: #1f77b4"/>
     <use xlink:href="#mba27671cbd" x="206.080711" y="284.496092" style="fill: #1f77b4; stroke: #1f77b4"/>
     <use xlink:href="#mba27671cbd" x="209.064725" y="288.331347" style="fill: #1f77b4; stroke: #1f77b4"/>
     <use xlink:href="#mba27671cbd" x="212.048675" y="292.115301" style="fill: #1f77b4; stroke: #1f77b4"/>
     <use xlink:href="#mba27671cbd" x="215.032626" y="295.849546" style="fill: #1f77b4; stroke: #1f77b4"/>
     <use xlink:href="#mba27671cbd" x="218.016576" y="299.535097" style="fill: #1f77b4; stroke: #1f77b4"/>
     <use xlink:href="#mba27671cbd" x="221.000526" y="303.168459" style="fill: #1f77b4; stroke: #1f77b4"/>
     <use xlink:href="#mba27671cbd" x="223.984477" y="306.752619" style="fill: #1f77b4; stroke: #1f77b4"/>
     <use xlink:href="#mba27671cbd" x="226.968427" y="310.286879" style="fill: #1f77b4; stroke: #1f77b4"/>
     <use xlink:href="#mba27671cbd" x="229.952377" y="313.770856" style="fill: #1f77b4; stroke: #1f77b4"/>
     <use xlink:href="#mba27671cbd" x="232.936327" y="317.203851" style="fill: #1f77b4; stroke: #1f77b4"/>
     <use xlink:href="#mba27671cbd" x="235.920341" y="320.587899" style="fill: #1f77b4; stroke: #1f77b4"/>
     <use xlink:href="#mba27671cbd" x="238.904291" y="323.922491" style="fill: #1f77b4; stroke: #1f77b4"/>
     <use xlink:href="#mba27671cbd" x="241.888242" y="327.204384" style="fill: #1f77b4; stroke: #1f77b4"/>
     <use xlink:href="#mba27671cbd" x="244.872192" y="330.437776" style="fill: #1f77b4; stroke: #1f77b4"/>
     <use xlink:href="#mba27671cbd" x="247.856142" y="333.622983" style="fill: #1f77b4; stroke: #1f77b4"/>
     <use xlink:href="#mba27671cbd" x="250.840093" y="336.756445" style="fill: #1f77b4; stroke: #1f77b4"/>
     <use xlink:href="#mba27671cbd" x="253.824043" y="339.839689" style="fill: #1f77b4; stroke: #1f77b4"/>
     <use xlink:href="#mba27671cbd" x="256.807993" y="342.872968" style="fill: #1f77b4; stroke: #1f77b4"/>
     <use xlink:href="#mba27671cbd" x="259.791943" y="345.855456" style="fill: #1f77b4; stroke: #1f77b4"/>
     <use xlink:href="#mba27671cbd" x="262.775957" y="348.789187" style="fill: #1f77b4; stroke: #1f77b4"/>
     <use xlink:href="#mba27671cbd" x="265.759907" y="351.672128" style="fill: #1f77b4; stroke: #1f77b4"/>
     <use xlink:href="#mba27671cbd" x="268.743858" y="354.504214" style="fill: #1f77b4; stroke: #1f77b4"/>
     <use xlink:href="#mba27671cbd" x="271.727808" y="357.28767" style="fill: #1f77b4; stroke: #1f77b4"/>
     <use xlink:href="#mba27671cbd" x="274.711758" y="360.019573" style="fill: #1f77b4; stroke: #1f77b4"/>
     <use xlink:href="#mba27671cbd" x="277.695709" y="362.703927" style="fill: #1f77b4; stroke: #1f77b4"/>
     <use xlink:href="#mba27671cbd" x="280.679659" y="365.336282" style="fill: #1f77b4; stroke: #1f77b4"/>
     <use xlink:href="#mba27671cbd" x="283.663609" y="367.918711" style="fill: #1f77b4; stroke: #1f77b4"/>
     <use xlink:href="#mba27671cbd" x="286.64756" y="370.45155" style="fill: #1f77b4; stroke: #1f77b4"/>
     <use xlink:href="#mba27671cbd" x="289.631573" y="372.933007" style="fill: #1f77b4; stroke: #1f77b4"/>
     <use xlink:href="#mba27671cbd" x="292.615523" y="375.367907" style="fill: #1f77b4; stroke: #1f77b4"/>
     <use xlink:href="#mba27671cbd" x="295.599474" y="377.748144" style="fill: #1f77b4; stroke: #1f77b4"/>
     <use xlink:href="#mba27671cbd" x="298.583424" y="380.079682" style="fill: #1f77b4; stroke: #1f77b4"/>
     <use xlink:href="#mba27671cbd" x="301.567374" y="382.362413" style="fill: #1f77b4; stroke: #1f77b4"/>
     <use xlink:href="#mba27671cbd" x="304.551325" y="384.596158" style="fill: #1f77b4; stroke: #1f77b4"/>
    </g>
   </g>
   <g id="matplotlib.axis_1">
    <g id="xtick_1">
     <g id="line2d_1">
      <defs>
       <path id="m9a1f0a0dfb" d="M 0 0 
L 0 3.5 
" style="stroke: #000000; stroke-width: 0.8"/>
      </defs>
      <g>
       <use xlink:href="#m9a1f0a0dfb" x="119.124978" y="448.56" style="stroke: #000000; stroke-width: 0.8"/>
      </g>
     </g>
     <g id="text_1">
      <text style="font: 10px 'sans-serif'; text-anchor: middle" x="119.124978" y="463.158437" transform="rotate(-0, 119.124978, 463.158437)">−0.05</text>
     </g>
    </g>
    <g id="xtick_2">
     <g id="line2d_2">
      <g>
       <use xlink:href="#m9a1f0a0dfb" x="182.469073" y="448.56" style="stroke: #000000; stroke-width: 0.8"/>
      </g>
     </g>
     <g id="text_2">
      <text style="font: 10px 'sans-serif'; text-anchor: middle" x="182.469073" y="463.158437" transform="rotate(-0, 182.469073, 463.158437)">−0.04</text>
     </g>
    </g>
    <g id="xtick_3">
     <g id="line2d_3">
      <g>
       <use xlink:href="#m9a1f0a0dfb" x="245.813169" y="448.56" style="stroke: #000000; stroke-width: 0.8"/>
      </g>
     </g>
     <g id="text_3">
      <text style="font: 10px 'sans-serif'; text-anchor: middle" x="245.813169" y="463.158437" transform="rotate(-0, 245.813169, 463.158437)">−0.03</text>
     </g>
    </g>
    <g id="xtick_4">
     <g id="line2d_4">
      <g>
       <use xlink:href="#m9a1f0a0dfb" x="309.157264" y="448.56" style="stroke: #000000; stroke-width: 0.8"/>
      </g>
     </g>
     <g id="text_4">
      <text style="font: 10px 'sans-serif'; text-anchor: middle" x="309.157264" y="463.158437" transform="rotate(-0, 309.157264, 463.158437)">−0.02</text>
     </g>
    </g>
    <g id="xtick_5">
     <g id="line2d_5">
      <g>
       <use xlink:href="#m9a1f0a0dfb" x="372.501359" y="448.56" style="stroke: #000000; stroke-width: 0.8"/>
      </g>
     </g>
     <g id="text_5">
      <text style="font: 10px 'sans-serif'; text-anchor: middle" x="372.501359" y="463.158437" transform="rotate(-0, 372.501359, 463.158437)">−0.01</text>
     </g>
    </g>
    <g id="xtick_6">
     <g id="line2d_6">
      <g>
       <use xlink:href="#m9a1f0a0dfb" x="435.845455" y="448.56" style="stroke: #000000; stroke-width: 0.8"/>
      </g>
     </g>
     <g id="text_6">
      <text style="font: 10px 'sans-serif'; text-anchor: middle" x="435.845455" y="463.158437" transform="rotate(-0, 435.845455, 463.158437)">0.00</text>
     </g>
    </g>
    <g id="text_7">
     <text style="font: 10px 'sans-serif'; text-anchor: middle" x="258.3" y="476.836563" transform="rotate(-0, 258.3, 476.836563)">mu [eV]</text>
    </g>
   </g>
   <g id="matplotlib.axis_2">
    <g id="ytick_1">
     <g id="line2d_7">
      <defs>
       <path id="m6be69a730f" d="M 0 0 
L -3.5 0 
" style="stroke: #000000; stroke-width: 0.8"/>
      </defs>
      <g>
       <use xlink:href="#m6be69a730f" x="63" y="430.92" style="stroke: #000000; stroke-width: 0.8"/>
      </g>
     </g>
     <g id="text_8">
      <!-- $\mathdefault{0}$ -->
      <g transform="translate(49.6 434.719219)">
       <text>
        <tspan style="font: 10px 'DejaVu Sans'" x="0" y="-0.578125">0</tspan>
       </text>
      </g>
     </g>
    </g>
    <g id="ytick_2">
     <g id="line2d_8">
      <g>
       <use xlink:href="#m6be69a730f" x="63" y="367.351899" style="stroke: #000000; stroke-width: 0.8"/>
      </g>
     </g>
     <g id="text_9">
      <!-- $\mathdefault{1}$ -->
      <g transform="translate(49.6 371.151118)">
       <text>
        <tspan style="font: 10px 'DejaVu Sans'" x="0" y="-0.703125">1</tspan>
       </text>
      </g>
     </g>
    </g>
    <g id="ytick_3">
     <g id="line2d_9">
      <g>
       <use xlink:href="#m6be69a730f" x="63" y="303.783798" style="stroke: #000000; stroke-width: 0.8"/>
      </g>
     </g>
     <g id="text_10">
      <!-- $\mathdefault{2}$ -->
      <g transform="translate(49.6 307.583017)">
       <text>
        <tspan style="font: 10px 'DejaVu Sans'" x="0" y="-0.578125">2</tspan>
       </text>
      </g>
     </g>
    </g>
    <g id="ytick_4">
     <g id="line2d_10">
      <g>
       <use xlink:href="#m6be69a730f" x="63" y="240.215698" style="stroke: #000000; stroke-width: 0.8"/>
      </g>
     </g>
     <g id="text_11">
      <!-- $\mathdefault{3}$ -->
      <g transform="translate(49.6 244.014916)">
       <text>
        <tspan style="font: 10px 'DejaVu Sans'" x="0" y="-0.578125">3</tspan>
       </text>
      </g>
     </g>
    </g>
    <g id="ytick_5">
     <g id="line2d_11">
      <g>
       <use xlink:href="#m6be69a730f" x="63" y="176.647597" style="stroke: #000000; stroke-width: 0.8"/>
      </g>
     </g>
     <g id="text_12">
      <!-- $\mathdefault{4}$ -->
      <g transform="translate(49.6 180.446816)">
       <text>
        <tspan style="font: 10px 'DejaVu Sans'" x="0" y="-0.703125">4</tspan>
       </text>
      </g>
     </g>
    </g>
    <g id="ytick_6">
     <g id="line2d_12">
      <g>
       <use xlink:href="#m6be69a730f" x="63" y="113.079496" style="stroke: #000000; stroke-width: 0.8"/>
      </g>
     </g>
     <g id="text_13">
      <!-- $\mathdefault{5}$ -->
      <g transform="translate(49.6 116.878715)">
       <text>
        <tspan style="font: 10px 'DejaVu Sans'" x="0" y="-0.703125">5</tspan>
       </text>
      </g>
     </g>
    </g>
    <g id="text_14">
     <text style="font: 10px 'sans-serif'; text-anchor: middle" x="43.520313" y="254.52" transform="rotate(-90, 43.520313, 254.52)">DOS [/eV m3</text>
    </g>
    <g id="text_15">
     <!-- $\times\mathdefault{10^{23}}\mathdefault{}$ -->
     <g transform="translate(63 57.48)">
      <text>
       <tspan style="font: 10px 'DejaVu Sans'" x="0 8.378906 14.741211" y="-0.9765625">×10</tspan>
       <tspan style="font: 7px 'DejaVu Sans'" x="21.199219 25.652832" y="-4.8046875">23</tspan>
      </text>
     </g>
    </g>
   </g>
   <g id="line2d_13">
    <path d="M 80.754545 78.12 
L 90.265671 96.876581 
L 99.459759 114.523943 
L 108.653847 131.69551 
L 117.847935 148.391287 
L 126.724985 164.059888 
L 135.602035 179.284955 
L 144.479086 194.066492 
L 153.039099 207.90007 
L 161.599112 221.321246 
L 170.159124 234.330026 
L 178.719137 246.926418 
L 186.962113 258.666528 
L 195.205088 270.024251 
L 203.448063 280.999601 
L 211.374001 291.192239 
L 219.299939 301.031381 
L 227.225877 310.517046 
L 235.151815 319.649256 
L 242.760715 328.083675 
L 250.369616 336.192405 
L 257.978516 343.975485 
L 265.587416 351.43296 
L 272.879279 358.274224 
L 280.171142 364.816568 
L 287.463005 371.060074 
L 294.754868 377.004845 
L 301.729693 382.411739 
L 308.704518 387.54559 
L 315.679343 392.406606 
L 322.654169 396.995067 
L 329.628994 401.311363 
L 336.286782 405.178079 
L 342.94457 408.798008 
L 349.602358 412.172185 
L 356.260145 415.302217 
L 362.917933 418.190729 
L 369.575721 420.84231 
L 376.550546 423.375771 
L 383.842409 425.782655 
L 395.889835 429.666942 
L 396.840947 430.151073 
L 397.157985 430.381812 
L 397.475022 430.92 
L 397.475022 430.92 
L 435.845455 430.92 
L 435.845455 430.92 
" clip-path="url(#pbc83d3b8e9)" style="fill: none; stroke: #000000; stroke-width: 1.5; stroke-linecap: square"/>
   </g>
   <g id="patch_3">
    <path d="M 63 448.56 
L 63 60.48 
" style="fill: none; stroke: #000000; stroke-width: 0.8; stroke-linejoin: miter; stroke-linecap: square"/>
   </g>
   <g id="patch_4">
    <path d="M 453.6 448.56 
L 453.6 60.48 
" style="fill: none; stroke: #000000; stroke-width: 0.8; stroke-linejoin: miter; stroke-linecap: square"/>
   </g>
   <g id="patch_5">
    <path d="M 63 448.56 
L 453.6 448.56 
" style="fill: none; stroke: #000000; stroke-width: 0.8; stroke-linejoin: miter; stroke-linecap: square"/>
   </g>
   <g id="patch_6">
    <path d="M 63 60.48 
L 453.6 60.48 
" style="fill: none; stroke: #000000; stroke-width: 0.8; stroke-linejoin: miter; stroke-linecap: square"/>
   </g>
   <g id="text_16">
    <text style="font: 12px 'sans-serif'; text-anchor: middle" x="258.3" y="54.48" transform="rotate(-0, 258.3, 54.48)">dos</text>
   </g>
   <g id="legend_1">
    <g id="patch_7">
     <path d="M 373.64375 97.83625 
L 446.6 97.83625 
Q 448.6 97.83625 448.6 95.83625 
L 448.6 67.48 
Q 448.6 65.48 446.6 65.48 
L 373.64375 65.48 
Q 371.64375 65.48 371.64375 67.48 
L 371.64375 95.83625 
Q 371.64375 97.83625 373.64375 97.83625 
z
" style="fill: #ffffff; opacity: 0.8; stroke: #cccccc; stroke-linejoin: miter"/>
    </g>
    <g id="PathCollection_2">
     <g>
      <use xlink:href="#mba27671cbd" x="385.64375" y="74.453438" style="fill: #1f77b4; stroke: #1f77b4"/>
     </g>
    </g>
    <g id="text_17">
     <text style="font: 10px 'sans-serif'; text-anchor: start" x="403.64375" y="77.078438" transform="rotate(-0, 403.64375, 77.078438)">numeric</text>
    </g>
    <g id="line2d_14">
     <path d="M 375.64375 88.256563 
L 385.64375 88.256563 
L 395.64375 88.256563 
" style="fill: none; stroke: #000000; stroke-width: 1.5; stroke-linecap: square"/>
    </g>
    <g id="text_18">
     <text style="font: 10px 'sans-serif'; text-anchor: start" x="403.64375" y="91.756563" transform="rotate(-0, 403.64375, 91.756563)">analytic</text>
    </g>
   </g>
  </g>
 </g>
 <defs>
  <clipPath id="pbc83d3b8e9">
   <rect x="63" y="60.48" width="390.6" height="388.08"/>
  </clipPath>
 </defs>
</svg>
