<?xml version="1.0" encoding="utf-8" standalone="no"?>
<!DOCTYPE svg PUBLIC "-//W3C//DTD SVG 1.1//EN"
  "http://www.w3.org/Graphics/SVG/1.1/DTD/svg11.dtd">
<!-- Created with matplotlib (https://matplotlib.org/) -->
<svg height="504pt" version="1.1" viewBox="0 0 504 504" width="504pt" xmlns="http://www.w3.org/2000/svg" xmlns:xlink="http://www.w3.org/1999/xlink">
 <defs>
  <style type="text/css">
*{stroke-linecap:butt;stroke-linejoin:round;}
  </style>
 </defs>
 <g id="figure_1">
  <g id="patch_1">
   <path d="M 0 504 
L 504 504 
L 504 0 
L 0 0 
z
" style="fill:#ffffff;"/>
  </g>
  <g id="axes_1">
   <g id="patch_2">
    <path d="M 63 448.56 
L 453.6 448.56 
L 453.6 60.48 
L 63 60.48 
z
" style="fill:#ffffff;"/>
   </g>
   <g id="PathCollection_1">
    <defs>
     <path d="M 0 1 
C 0.265203 1 0.51958 0.894634 0.707107 0.707107 
C 0.894634 0.51958 1 0.265203 1 0 
C 1 -0.265203 0.894634 -0.51958 0.707107 -0.707107 
C 0.51958 -0.894634 0.265203 -1 0 -1 
C -0.265203 -1 -0.51958 -0.894634 -0.707107 -0.707107 
C -0.894634 -0.51958 -1 -0.265203 -1 0 
C -1 0.265203 -0.894634 0.51958 -0.707107 0.707107 
C -0.51958 0.894634 -0.265203 1 0 1 
z
" id="mce951cdb37" style="stroke:#1f77b4;"/>
    </defs>
    <g clip-path="url(#p3b6f3a083e)">
     <use style="fill:#1f77b4;stroke:#1f77b4;" x="88.932475" xlink:href="#mce951cdb37" y="430.92"/>
     <use style="fill:#1f77b4;stroke:#1f77b4;" x="93.275214" xlink:href="#mce951cdb37" y="430.92"/>
     <use style="fill:#1f77b4;stroke:#1f77b4;" x="97.617997" xlink:href="#mce951cdb37" y="430.92"/>
     <use style="fill:#1f77b4;stroke:#1f77b4;" x="101.960736" xlink:href="#mce951cdb37" y="430.92"/>
     <use style="fill:#1f77b4;stroke:#1f77b4;" x="106.30352" xlink:href="#mce951cdb37" y="430.92"/>
     <use style="fill:#1f77b4;stroke:#1f77b4;" x="106.772327" xlink:href="#mce951cdb37" y="430.92"/>
     <use style="fill:#1f77b4;stroke:#1f77b4;" x="114.462337" xlink:href="#mce951cdb37" y="430.92"/>
     <use style="fill:#1f77b4;stroke:#1f77b4;" x="119.534752" xlink:href="#mce951cdb37" y="430.92"/>
     <use style="fill:#1f77b4;stroke:#1f77b4;" x="122.868047" xlink:href="#mce951cdb37" y="430.92"/>
     <use style="fill:#1f77b4;stroke:#1f77b4;" x="125.049222" xlink:href="#mce951cdb37" y="430.92"/>
     <use style="fill:#1f77b4;stroke:#1f77b4;" x="126.469487" xlink:href="#mce951cdb37" y="430.92"/>
     <use style="fill:#1f77b4;stroke:#1f77b4;" x="127.389135" xlink:href="#mce951cdb37" y="430.92"/>
     <use style="fill:#1f77b4;stroke:#1f77b4;" x="127.980657" xlink:href="#mce951cdb37" y="430.92"/>
     <use style="fill:#1f77b4;stroke:#1f77b4;" x="128.358205" xlink:href="#mce951cdb37" y="430.92"/>
     <use style="fill:#1f77b4;stroke:#1f77b4;" x="128.596935" xlink:href="#mce951cdb37" y="430.92"/>
     <use style="fill:#1f77b4;stroke:#1f77b4;" x="128.746135" xlink:href="#mce951cdb37" y="430.92"/>
     <use style="fill:#1f77b4;stroke:#1f77b4;" x="128.838016" xlink:href="#mce951cdb37" y="430.92"/>
     <use style="fill:#1f77b4;stroke:#1f77b4;" x="128.893561" xlink:href="#mce951cdb37" y="430.92"/>
     <use style="fill:#1f77b4;stroke:#1f77b4;" x="128.926347" xlink:href="#mce951cdb37" y="430.92"/>
     <use style="fill:#1f77b4;stroke:#1f77b4;" x="128.944936" xlink:href="#mce951cdb37" y="430.92"/>
     <use style="fill:#1f77b4;stroke:#1f77b4;" x="128.954962" xlink:href="#mce951cdb37" y="430.92"/>
     <use style="fill:#1f77b4;stroke:#1f77b4;" x="128.965033" xlink:href="#mce951cdb37" y="430.903403"/>
     <use style="fill:#1f77b4;stroke:#1f77b4;" x="128.983622" xlink:href="#mce951cdb37" y="430.891974"/>
     <use style="fill:#1f77b4;stroke:#1f77b4;" x="129.016408" xlink:href="#mce951cdb37" y="430.879215"/>
     <use style="fill:#1f77b4;stroke:#1f77b4;" x="129.071954" xlink:href="#mce951cdb37" y="430.863193"/>
     <use style="fill:#1f77b4;stroke:#1f77b4;" x="129.163834" xlink:href="#mce951cdb37" y="430.843629"/>
     <use style="fill:#1f77b4;stroke:#1f77b4;" x="129.313035" xlink:href="#mce951cdb37" y="430.819431"/>
     <use style="fill:#1f77b4;stroke:#1f77b4;" x="129.551764" xlink:href="#mce951cdb37" y="430.788557"/>
     <use style="fill:#1f77b4;stroke:#1f77b4;" x="129.929313" xlink:href="#mce951cdb37" y="430.749124"/>
     <use style="fill:#1f77b4;stroke:#1f77b4;" x="130.520835" xlink:href="#mce951cdb37" y="430.696849"/>
     <use style="fill:#1f77b4;stroke:#1f77b4;" x="131.440482" xlink:href="#mce951cdb37" y="430.624701"/>
     <use style="fill:#1f77b4;stroke:#1f77b4;" x="132.860748" xlink:href="#mce951cdb37" y="430.527248"/>
     <use style="fill:#1f77b4;stroke:#1f77b4;" x="135.041878" xlink:href="#mce951cdb37" y="430.378549"/>
     <use style="fill:#1f77b4;stroke:#1f77b4;" x="138.375218" xlink:href="#mce951cdb37" y="430.148542"/>
     <use style="fill:#1f77b4;stroke:#1f77b4;" x="143.447632" xlink:href="#mce951cdb37" y="429.776568"/>
     <use style="fill:#1f77b4;stroke:#1f77b4;" x="151.137598" xlink:href="#mce951cdb37" y="429.089696"/>
     <use style="fill:#1f77b4;stroke:#1f77b4;" x="154.073824" xlink:href="#mce951cdb37" y="428.784335"/>
     <use style="fill:#1f77b4;stroke:#1f77b4;" x="158.416563" xlink:href="#mce951cdb37" y="428.29936"/>
     <use style="fill:#1f77b4;stroke:#1f77b4;" x="162.759346" xlink:href="#mce951cdb37" y="427.759179"/>
     <use style="fill:#1f77b4;stroke:#1f77b4;" x="167.102085" xlink:href="#mce951cdb37" y="427.185101"/>
     <use style="fill:#1f77b4;stroke:#1f77b4;" x="171.444868" xlink:href="#mce951cdb37" y="426.526149"/>
     <use style="fill:#1f77b4;stroke:#1f77b4;" x="175.787607" xlink:href="#mce951cdb37" y="425.811933"/>
     <use style="fill:#1f77b4;stroke:#1f77b4;" x="180.13039" xlink:href="#mce951cdb37" y="425.041353"/>
     <use style="fill:#1f77b4;stroke:#1f77b4;" x="184.473129" xlink:href="#mce951cdb37" y="424.185868"/>
     <use style="fill:#1f77b4;stroke:#1f77b4;" x="188.815868" xlink:href="#mce951cdb37" y="423.275706"/>
     <use style="fill:#1f77b4;stroke:#1f77b4;" x="193.158651" xlink:href="#mce951cdb37" y="422.242256"/>
     <use style="fill:#1f77b4;stroke:#1f77b4;" x="197.50139" xlink:href="#mce951cdb37" y="421.152922"/>
     <use style="fill:#1f77b4;stroke:#1f77b4;" x="201.844173" xlink:href="#mce951cdb37" y="419.957954"/>
     <use style="fill:#1f77b4;stroke:#1f77b4;" x="206.186912" xlink:href="#mce951cdb37" y="418.665188"/>
     <use style="fill:#1f77b4;stroke:#1f77b4;" x="210.529669" xlink:href="#mce951cdb37" y="417.347634"/>
     <use style="fill:#1f77b4;stroke:#1f77b4;" x="214.872425" xlink:href="#mce951cdb37" y="415.866056"/>
     <use style="fill:#1f77b4;stroke:#1f77b4;" x="219.215182" xlink:href="#mce951cdb37" y="414.23006"/>
     <use style="fill:#1f77b4;stroke:#1f77b4;" x="223.557943" xlink:href="#mce951cdb37" y="412.445674"/>
     <use style="fill:#1f77b4;stroke:#1f77b4;" x="227.900699" xlink:href="#mce951cdb37" y="410.554709"/>
     <use style="fill:#1f77b4;stroke:#1f77b4;" x="232.243456" xlink:href="#mce951cdb37" y="408.43895"/>
     <use style="fill:#1f77b4;stroke:#1f77b4;" x="236.586213" xlink:href="#mce951cdb37" y="406.218441"/>
     <use style="fill:#1f77b4;stroke:#1f77b4;" x="240.928969" xlink:href="#mce951cdb37" y="403.67051"/>
     <use style="fill:#1f77b4;stroke:#1f77b4;" x="245.271726" xlink:href="#mce951cdb37" y="401.249098"/>
     <use style="fill:#1f77b4;stroke:#1f77b4;" x="249.614484" xlink:href="#mce951cdb37" y="398.408849"/>
     <use style="fill:#1f77b4;stroke:#1f77b4;" x="253.957241" xlink:href="#mce951cdb37" y="395.482911"/>
     <use style="fill:#1f77b4;stroke:#1f77b4;" x="258.3" xlink:href="#mce951cdb37" y="392.286977"/>
     <use style="fill:#1f77b4;stroke:#1f77b4;" x="262.642757" xlink:href="#mce951cdb37" y="388.690854"/>
     <use style="fill:#1f77b4;stroke:#1f77b4;" x="266.985513" xlink:href="#mce951cdb37" y="385.026535"/>
     <use style="fill:#1f77b4;stroke:#1f77b4;" x="271.32827" xlink:href="#mce951cdb37" y="380.819823"/>
     <use style="fill:#1f77b4;stroke:#1f77b4;" x="275.671026" xlink:href="#mce951cdb37" y="376.598105"/>
     <use style="fill:#1f77b4;stroke:#1f77b4;" x="280.013783" xlink:href="#mce951cdb37" y="372.365719"/>
     <use style="fill:#1f77b4;stroke:#1f77b4;" x="284.35654" xlink:href="#mce951cdb37" y="368.185113"/>
     <use style="fill:#1f77b4;stroke:#1f77b4;" x="288.699296" xlink:href="#mce951cdb37" y="362.66537"/>
     <use style="fill:#1f77b4;stroke:#1f77b4;" x="293.042053" xlink:href="#mce951cdb37" y="357.9049"/>
     <use style="fill:#1f77b4;stroke:#1f77b4;" x="297.384827" xlink:href="#mce951cdb37" y="351.806204"/>
     <use style="fill:#1f77b4;stroke:#1f77b4;" x="301.727566" xlink:href="#mce951cdb37" y="346.564878"/>
     <use style="fill:#1f77b4;stroke:#1f77b4;" x="306.070305" xlink:href="#mce951cdb37" y="339.824258"/>
     <use style="fill:#1f77b4;stroke:#1f77b4;" x="310.413088" xlink:href="#mce951cdb37" y="333.619745"/>
     <use style="fill:#1f77b4;stroke:#1f77b4;" x="314.755827" xlink:href="#mce951cdb37" y="326.637701"/>
     <use style="fill:#1f77b4;stroke:#1f77b4;" x="319.09861" xlink:href="#mce951cdb37" y="320.476989"/>
     <use style="fill:#1f77b4;stroke:#1f77b4;" x="323.441349" xlink:href="#mce951cdb37" y="313.121638"/>
     <use style="fill:#1f77b4;stroke:#1f77b4;" x="327.784132" xlink:href="#mce951cdb37" y="305.814122"/>
     <use style="fill:#1f77b4;stroke:#1f77b4;" x="332.126871" xlink:href="#mce951cdb37" y="297.8528"/>
     <use style="fill:#1f77b4;stroke:#1f77b4;" x="336.46961" xlink:href="#mce951cdb37" y="290.115818"/>
     <use style="fill:#1f77b4;stroke:#1f77b4;" x="340.812393" xlink:href="#mce951cdb37" y="282.684098"/>
     <use style="fill:#1f77b4;stroke:#1f77b4;" x="345.155132" xlink:href="#mce951cdb37" y="275.547882"/>
     <use style="fill:#1f77b4;stroke:#1f77b4;" x="349.497915" xlink:href="#mce951cdb37" y="266.850228"/>
     <use style="fill:#1f77b4;stroke:#1f77b4;" x="353.840654" xlink:href="#mce951cdb37" y="258.271053"/>
     <use style="fill:#1f77b4;stroke:#1f77b4;" x="358.183393" xlink:href="#mce951cdb37" y="248.112138"/>
     <use style="fill:#1f77b4;stroke:#1f77b4;" x="362.526176" xlink:href="#mce951cdb37" y="240.304467"/>
     <use style="fill:#1f77b4;stroke:#1f77b4;" x="366.868915" xlink:href="#mce951cdb37" y="230.68851"/>
     <use style="fill:#1f77b4;stroke:#1f77b4;" x="371.211698" xlink:href="#mce951cdb37" y="221.603499"/>
     <use style="fill:#1f77b4;stroke:#1f77b4;" x="375.554437" xlink:href="#mce951cdb37" y="211.111524"/>
     <use style="fill:#1f77b4;stroke:#1f77b4;" x="379.897176" xlink:href="#mce951cdb37" y="201.49084"/>
     <use style="fill:#1f77b4;stroke:#1f77b4;" x="384.239959" xlink:href="#mce951cdb37" y="191.078487"/>
     <use style="fill:#1f77b4;stroke:#1f77b4;" x="388.582698" xlink:href="#mce951cdb37" y="180.824901"/>
     <use style="fill:#1f77b4;stroke:#1f77b4;" x="392.925481" xlink:href="#mce951cdb37" y="169.770236"/>
     <use style="fill:#1f77b4;stroke:#1f77b4;" x="397.26822" xlink:href="#mce951cdb37" y="161.836582"/>
     <use style="fill:#1f77b4;stroke:#1f77b4;" x="401.611003" xlink:href="#mce951cdb37" y="149.89228"/>
     <use style="fill:#1f77b4;stroke:#1f77b4;" x="405.953742" xlink:href="#mce951cdb37" y="138.345569"/>
     <use style="fill:#1f77b4;stroke:#1f77b4;" x="410.29648" xlink:href="#mce951cdb37" y="128.795357"/>
     <use style="fill:#1f77b4;stroke:#1f77b4;" x="414.639264" xlink:href="#mce951cdb37" y="115.714616"/>
     <use style="fill:#1f77b4;stroke:#1f77b4;" x="418.982003" xlink:href="#mce951cdb37" y="102.444099"/>
     <use style="fill:#1f77b4;stroke:#1f77b4;" x="423.324786" xlink:href="#mce951cdb37" y="90.207241"/>
     <use style="fill:#1f77b4;stroke:#1f77b4;" x="427.667525" xlink:href="#mce951cdb37" y="78.12"/>
    </g>
   </g>
   <g id="matplotlib.axis_1">
    <g id="xtick_1">
     <g id="line2d_1">
      <defs>
       <path d="M 0 0 
L 0 3.5 
" id="mf5a4828caf" style="stroke:#000000;stroke-width:0.8;"/>
      </defs>
      <g>
       <use style="stroke:#000000;stroke-width:0.8;" x="72.745363" xlink:href="#mf5a4828caf" y="448.56"/>
      </g>
     </g>
     <g id="text_1">
      <text style="font-family:DejaVu Sans;font-size:10px;font-style:normal;font-weight:normal;text-anchor:middle;" transform="rotate(-0, 72.745363, 463.158437)" x="72.745363" y="463.158437">−0.04</text>
     </g>
    </g>
    <g id="xtick_2">
     <g id="line2d_2">
      <g>
       <use style="stroke:#000000;stroke-width:0.8;" x="117.110633" xlink:href="#mf5a4828caf" y="448.56"/>
      </g>
     </g>
     <g id="text_2">
      <text style="font-family:DejaVu Sans;font-size:10px;font-style:normal;font-weight:normal;text-anchor:middle;" transform="rotate(-0, 117.110633, 463.158437)" x="117.110633" y="463.158437">−0.03</text>
     </g>
    </g>
    <g id="xtick_3">
     <g id="line2d_3">
      <g>
       <use style="stroke:#000000;stroke-width:0.8;" x="161.475903" xlink:href="#mf5a4828caf" y="448.56"/>
      </g>
     </g>
     <g id="text_3">
      <text style="font-family:DejaVu Sans;font-size:10px;font-style:normal;font-weight:normal;text-anchor:middle;" transform="rotate(-0, 161.475903, 463.158437)" x="161.475903" y="463.158437">−0.02</text>
     </g>
    </g>
    <g id="xtick_4">
     <g id="line2d_4">
      <g>
       <use style="stroke:#000000;stroke-width:0.8;" x="205.841174" xlink:href="#mf5a4828caf" y="448.56"/>
      </g>
     </g>
     <g id="text_4">
      <text style="font-family:DejaVu Sans;font-size:10px;font-style:normal;font-weight:normal;text-anchor:middle;" transform="rotate(-0, 205.841174, 463.158437)" x="205.841174" y="463.158437">−0.01</text>
     </g>
    </g>
    <g id="xtick_5">
     <g id="line2d_5">
      <g>
       <use style="stroke:#000000;stroke-width:0.8;" x="250.206444" xlink:href="#mf5a4828caf" y="448.56"/>
      </g>
     </g>
     <g id="text_5">
      <text style="font-family:DejaVu Sans;font-size:10px;font-style:normal;font-weight:normal;text-anchor:middle;" transform="rotate(-0, 250.206444, 463.158437)" x="250.206444" y="463.158437">0.00</text>
     </g>
    </g>
    <g id="xtick_6">
     <g id="line2d_6">
      <g>
       <use style="stroke:#000000;stroke-width:0.8;" x="294.571714" xlink:href="#mf5a4828caf" y="448.56"/>
      </g>
     </g>
     <g id="text_6">
      <text style="font-family:DejaVu Sans;font-size:10px;font-style:normal;font-weight:normal;text-anchor:middle;" transform="rotate(-0, 294.571714, 463.158437)" x="294.571714" y="463.158437">0.01</text>
     </g>
    </g>
    <g id="xtick_7">
     <g id="line2d_7">
      <g>
       <use style="stroke:#000000;stroke-width:0.8;" x="338.936984" xlink:href="#mf5a4828caf" y="448.56"/>
      </g>
     </g>
     <g id="text_7">
      <text style="font-family:DejaVu Sans;font-size:10px;font-style:normal;font-weight:normal;text-anchor:middle;" transform="rotate(-0, 338.936984, 463.158437)" x="338.936984" y="463.158437">0.02</text>
     </g>
    </g>
    <g id="xtick_8">
     <g id="line2d_8">
      <g>
       <use style="stroke:#000000;stroke-width:0.8;" x="383.302254" xlink:href="#mf5a4828caf" y="448.56"/>
      </g>
     </g>
     <g id="text_8">
      <text style="font-family:DejaVu Sans;font-size:10px;font-style:normal;font-weight:normal;text-anchor:middle;" transform="rotate(-0, 383.302254, 463.158437)" x="383.302254" y="463.158437">0.03</text>
     </g>
    </g>
    <g id="xtick_9">
     <g id="line2d_9">
      <g>
       <use style="stroke:#000000;stroke-width:0.8;" x="427.667525" xlink:href="#mf5a4828caf" y="448.56"/>
      </g>
     </g>
     <g id="text_9">
      <text style="font-family:DejaVu Sans;font-size:10px;font-style:normal;font-weight:normal;text-anchor:middle;" transform="rotate(-0, 427.667525, 463.158437)" x="427.667525" y="463.158437">0.04</text>
     </g>
    </g>
    <g id="text_10">
     <text style="font-family:DejaVu Sans;font-size:10px;font-style:normal;font-weight:normal;text-anchor:middle;" transform="rotate(-0, 258.3, 476.836563)" x="258.3" y="476.836563">mu [eV]</text>
    </g>
   </g>
   <g id="matplotlib.axis_2">
    <g id="ytick_1">
     <g id="line2d_10">
      <defs>
       <path d="M 0 0 
L -3.5 0 
" id="m885142ff2d" style="stroke:#000000;stroke-width:0.8;"/>
      </defs>
      <g>
       <use style="stroke:#000000;stroke-width:0.8;" x="63" xlink:href="#m885142ff2d" y="430.92"/>
      </g>
     </g>
     <g id="text_11">
      <!-- $\mathdefault{0}$ -->
      <g transform="translate(49.6 434.719219)">
       <text>
        <tspan style="font-family:DejaVu Sans;font-size:10px;font-style:book;font-weight:book;" x="0" y="-0.578125">0</tspan>
       </text>
      </g>
     </g>
    </g>
    <g id="ytick_2">
     <g id="line2d_11">
      <g>
       <use style="stroke:#000000;stroke-width:0.8;" x="63" xlink:href="#m885142ff2d" y="387.552723"/>
      </g>
     </g>
     <g id="text_12">
      <!-- $\mathdefault{1}$ -->
      <g transform="translate(49.6 391.351941)">
       <text>
        <tspan style="font-family:DejaVu Sans;font-size:10px;font-style:book;font-weight:book;" x="0" y="-0.703125">1</tspan>
       </text>
      </g>
     </g>
    </g>
    <g id="ytick_3">
     <g id="line2d_12">
      <g>
       <use style="stroke:#000000;stroke-width:0.8;" x="63" xlink:href="#m885142ff2d" y="344.185445"/>
      </g>
     </g>
     <g id="text_13">
      <!-- $\mathdefault{2}$ -->
      <g transform="translate(49.6 347.984664)">
       <text>
        <tspan style="font-family:DejaVu Sans;font-size:10px;font-style:book;font-weight:book;" x="0" y="-0.578125">2</tspan>
       </text>
      </g>
     </g>
    </g>
    <g id="ytick_4">
     <g id="line2d_13">
      <g>
       <use style="stroke:#000000;stroke-width:0.8;" x="63" xlink:href="#m885142ff2d" y="300.818168"/>
      </g>
     </g>
     <g id="text_14">
      <!-- $\mathdefault{3}$ -->
      <g transform="translate(49.6 304.617387)">
       <text>
        <tspan style="font-family:DejaVu Sans;font-size:10px;font-style:book;font-weight:book;" x="0" y="-0.578125">3</tspan>
       </text>
      </g>
     </g>
    </g>
    <g id="ytick_5">
     <g id="line2d_14">
      <g>
       <use style="stroke:#000000;stroke-width:0.8;" x="63" xlink:href="#m885142ff2d" y="257.450891"/>
      </g>
     </g>
     <g id="text_15">
      <!-- $\mathdefault{4}$ -->
      <g transform="translate(49.6 261.250109)">
       <text>
        <tspan style="font-family:DejaVu Sans;font-size:10px;font-style:book;font-weight:book;" x="0" y="-0.703125">4</tspan>
       </text>
      </g>
     </g>
    </g>
    <g id="ytick_6">
     <g id="line2d_15">
      <g>
       <use style="stroke:#000000;stroke-width:0.8;" x="63" xlink:href="#m885142ff2d" y="214.083613"/>
      </g>
     </g>
     <g id="text_16">
      <!-- $\mathdefault{5}$ -->
      <g transform="translate(49.6 217.882832)">
       <text>
        <tspan style="font-family:DejaVu Sans;font-size:10px;font-style:book;font-weight:book;" x="0" y="-0.703125">5</tspan>
       </text>
      </g>
     </g>
    </g>
    <g id="ytick_7">
     <g id="line2d_16">
      <g>
       <use style="stroke:#000000;stroke-width:0.8;" x="63" xlink:href="#m885142ff2d" y="170.716336"/>
      </g>
     </g>
     <g id="text_17">
      <!-- $\mathdefault{6}$ -->
      <g transform="translate(49.6 174.515555)">
       <text>
        <tspan style="font-family:DejaVu Sans;font-size:10px;font-style:book;font-weight:book;" x="0" y="-0.578125">6</tspan>
       </text>
      </g>
     </g>
    </g>
    <g id="ytick_8">
     <g id="line2d_17">
      <g>
       <use style="stroke:#000000;stroke-width:0.8;" x="63" xlink:href="#m885142ff2d" y="127.349059"/>
      </g>
     </g>
     <g id="text_18">
      <!-- $\mathdefault{7}$ -->
      <g transform="translate(49.6 131.148277)">
       <text>
        <tspan style="font-family:DejaVu Sans;font-size:10px;font-style:book;font-weight:book;" x="0" y="-0.703125">7</tspan>
       </text>
      </g>
     </g>
    </g>
    <g id="ytick_9">
     <g id="line2d_18">
      <g>
       <use style="stroke:#000000;stroke-width:0.8;" x="63" xlink:href="#m885142ff2d" y="83.981781"/>
      </g>
     </g>
     <g id="text_19">
      <!-- $\mathdefault{8}$ -->
      <g transform="translate(49.6 87.781)">
       <text>
        <tspan style="font-family:DejaVu Sans;font-size:10px;font-style:book;font-weight:book;" x="0" y="-0.578125">8</tspan>
       </text>
      </g>
     </g>
    </g>
    <g id="text_20">
     <text style="font-family:DejaVu Sans;font-size:10px;font-style:normal;font-weight:normal;text-anchor:middle;" transform="rotate(-90, 43.520313, 254.52)" x="43.520313" y="254.52">DOS [/eV m3]</text>
    </g>
    <g id="text_21">
     <!-- $\times\mathdefault{10^{25}}\mathdefault{}$ -->
     <g transform="translate(63 57.48)">
      <text>
       <tspan style="font-family:DejaVu Sans;font-size:10px;font-style:book;font-weight:book;" x="0 8.378906 14.741211" y="-0.9765625">×10</tspan>
       <tspan style="font-family:DejaVu Sans;font-size:7px;font-style:book;font-weight:book;" x="21.199219 25.652832" y="-4.8046875">25</tspan>
      </text>
     </g>
    </g>
   </g>
   <g id="line2d_19">
    <path clip-path="url(#p3b6f3a083e)" d="M 88.932475 430.92 
L 93.275214 430.92 
L 97.617997 430.92 
L 101.960736 430.92 
L 106.30352 430.92 
L 106.772327 430.92 
L 114.462337 430.92 
L 119.534752 430.92 
L 122.868047 430.92 
L 125.049222 430.92 
L 126.469487 430.92 
L 127.389135 430.92 
L 127.980657 430.92 
L 128.358205 430.92 
L 128.596935 430.92 
L 128.746135 430.92 
L 128.838016 430.92 
L 128.893561 430.92 
L 128.926347 430.92 
L 128.944936 430.92 
L 128.954962 430.92 
L 128.965033 430.903403 
L 128.983622 430.891974 
L 129.016408 430.879215 
L 129.071954 430.863193 
L 129.163834 430.843629 
L 129.313035 430.819431 
L 129.551764 430.788557 
L 129.929313 430.749124 
L 130.520835 430.696849 
L 131.440482 430.624701 
L 132.860748 430.527248 
L 135.041878 430.378549 
L 138.375218 430.148542 
L 143.447632 429.776568 
L 151.137598 429.089696 
L 154.073824 428.784335 
L 158.416563 428.29936 
L 162.759346 427.759179 
L 167.102085 427.185101 
L 171.444868 426.526149 
L 175.787607 425.811933 
L 180.13039 425.041353 
L 184.473129 424.185868 
L 188.815868 423.275706 
L 193.158651 422.242256 
L 197.50139 421.152922 
L 201.844173 419.957954 
L 206.186912 418.665188 
L 210.529669 417.347634 
L 214.872425 415.866056 
L 219.215182 414.23006 
L 223.557943 412.445674 
L 227.900699 410.554709 
L 232.243456 408.43895 
L 236.586213 406.218441 
L 240.928969 403.67051 
L 245.271726 401.249098 
L 249.614484 398.408849 
L 253.957241 395.482911 
L 258.3 392.286977 
L 262.642757 388.690854 
L 266.985513 385.026535 
L 271.32827 380.819823 
L 275.671026 376.598105 
L 280.013783 372.365719 
L 284.35654 368.185113 
L 288.699296 362.66537 
L 293.042053 357.9049 
L 297.384827 351.806204 
L 301.727566 346.564878 
L 306.070305 339.824258 
L 310.413088 333.619745 
L 314.755827 326.637701 
L 319.09861 320.476989 
L 323.441349 313.121638 
L 327.784132 305.814122 
L 332.126871 297.8528 
L 336.46961 290.115818 
L 340.812393 282.684098 
L 345.155132 275.547882 
L 349.497915 266.850228 
L 353.840654 258.271053 
L 358.183393 248.112138 
L 362.526176 240.304467 
L 366.868915 230.68851 
L 371.211698 221.603499 
L 375.554437 211.111524 
L 379.897176 201.49084 
L 384.239959 191.078487 
L 388.582698 180.824901 
L 392.925481 169.770236 
L 397.26822 161.836582 
L 401.611003 149.89228 
L 405.953742 138.345569 
L 410.29648 128.795357 
L 414.639264 115.714616 
L 418.982003 102.444099 
L 423.324786 90.207241 
L 427.667525 78.12 
" style="fill:none;stroke:#1f77b4;stroke-linecap:square;stroke-width:1.5;"/>
   </g>
   <g id="patch_3">
    <path d="M 63 448.56 
L 63 60.48 
" style="fill:none;stroke:#000000;stroke-linecap:square;stroke-linejoin:miter;stroke-width:0.8;"/>
   </g>
   <g id="patch_4">
    <path d="M 453.6 448.56 
L 453.6 60.48 
" style="fill:none;stroke:#000000;stroke-linecap:square;stroke-linejoin:miter;stroke-width:0.8;"/>
   </g>
   <g id="patch_5">
    <path d="M 63 448.56 
L 453.6 448.56 
" style="fill:none;stroke:#000000;stroke-linecap:square;stroke-linejoin:miter;stroke-width:0.8;"/>
   </g>
   <g id="patch_6">
    <path d="M 63 60.48 
L 453.6 60.48 
" style="fill:none;stroke:#000000;stroke-linecap:square;stroke-linejoin:miter;stroke-width:0.8;"/>
   </g>
   <g id="text_22">
    <text style="font-family:DejaVu Sans;font-size:12px;font-style:normal;font-weight:normal;text-anchor:middle;" transform="rotate(-0, 258.3, 54.48)" x="258.3" y="54.48">dos</text>
   </g>
   <g id="legend_1">
    <g id="patch_7">
     <path d="M 70 83.158125 
L 142.95625 83.158125 
Q 144.95625 83.158125 144.95625 81.158125 
L 144.95625 67.48 
Q 144.95625 65.48 142.95625 65.48 
L 70 65.48 
Q 68 65.48 68 67.48 
L 68 81.158125 
Q 68 83.158125 70 83.158125 
z
" style="fill:#ffffff;opacity:0.8;stroke:#cccccc;stroke-linejoin:miter;"/>
    </g>
    <g id="PathCollection_2">
     <g>
      <use style="fill:#1f77b4;stroke:#1f77b4;" x="82" xlink:href="#mce951cdb37" y="74.453438"/>
     </g>
    </g>
    <g id="text_23">
     <text style="font-family:DejaVu Sans;font-size:10px;font-style:normal;font-weight:normal;text-anchor:start;" transform="rotate(-0, 100, 77.078438)" x="100" y="77.078438">numeric</text>
    </g>
   </g>
  </g>
 </g>
 <defs>
  <clipPath id="p3b6f3a083e">
   <rect height="388.08" width="390.6" x="63" y="60.48"/>
  </clipPath>
 </defs>
</svg>
