<?xml version="1.0" encoding="utf-8" standalone="no"?>
<!DOCTYPE svg PUBLIC "-//W3C//DTD SVG 1.1//EN"
  "http://www.w3.org/Graphics/SVG/1.1/DTD/svg11.dtd">
<svg xmlns:xlink="http://www.w3.org/1999/xlink" width="1080pt" height="504pt" viewBox="0 0 1080 504" xmlns="http://www.w3.org/2000/svg" version="1.1">
 <metadata>
  <rdf:RDF xmlns:dc="http://purl.org/dc/elements/1.1/" xmlns:cc="http://creativecommons.org/ns#" xmlns:rdf="http://www.w3.org/1999/02/22-rdf-syntax-ns#">
   <cc:Work>
    <dc:type rdf:resource="http://purl.org/dc/dcmitype/StillImage"/>
    <dc:date>2022-06-26T16:15:46.269864</dc:date>
    <dc:format>image/svg+xml</dc:format>
    <dc:creator>
     <cc:Agent>
      <dc:title>Matplotlib v3.5.2, https://matplotlib.org/</dc:title>
     </cc:Agent>
    </dc:creator>
   </cc:Work>
  </rdf:RDF>
 </metadata>
 <defs>
  <style type="text/css">*{stroke-linejoin: round; stroke-linecap: butt}</style>
 </defs>
 <g id="figure_1">
  <g id="patch_1">
   <path d="M 0 504 
L 1080 504 
L 1080 0 
L 0 0 
z
" style="fill: #ffffff"/>
  </g>
  <g id="axes_1">
   <g id="patch_2">
    <path d="M 33.64 476.12 
L 348.48 476.12 
L 348.48 14.76 
L 33.64 14.76 
z
" style="fill: #ffffff"/>
   </g>
   <g id="patch_3">
    <path d="M 33.64 337.712 
L 33.64 153.168 
L 348.48 153.168 
L 348.48 337.712 
z
" clip-path="url(#p74055f73b6)" style="fill: #808080; opacity: 0.3; stroke: #808080; stroke-linejoin: miter"/>
   </g>
   <g id="matplotlib.axis_1">
    <g id="xtick_1">
     <g id="line2d_1">
      <defs>
       <path id="m273c7fa2bd" d="M 0 0 
L 0 3.5 
" style="stroke: #000000; stroke-width: 0.8"/>
      </defs>
      <g>
       <use xlink:href="#m273c7fa2bd" x="36.191205" y="476.12" style="stroke: #000000; stroke-width: 0.8"/>
      </g>
     </g>
     <g id="text_1">
      <text style="font: 10px 'sans-serif'; text-anchor: middle" x="36.191205" y="490.718437" transform="rotate(-0, 36.191205, 490.718437)">−0.6</text>
     </g>
    </g>
    <g id="xtick_2">
     <g id="line2d_2">
      <g>
       <use xlink:href="#m273c7fa2bd" x="87.814137" y="476.12" style="stroke: #000000; stroke-width: 0.8"/>
      </g>
     </g>
     <g id="text_2">
      <text style="font: 10px 'sans-serif'; text-anchor: middle" x="87.814137" y="490.718437" transform="rotate(-0, 87.814137, 490.718437)">−0.4</text>
     </g>
    </g>
    <g id="xtick_3">
     <g id="line2d_3">
      <g>
       <use xlink:href="#m273c7fa2bd" x="139.437068" y="476.12" style="stroke: #000000; stroke-width: 0.8"/>
      </g>
     </g>
     <g id="text_3">
      <text style="font: 10px 'sans-serif'; text-anchor: middle" x="139.437068" y="490.718437" transform="rotate(-0, 139.437068, 490.718437)">−0.2</text>
     </g>
    </g>
    <g id="xtick_4">
     <g id="line2d_4">
      <g>
       <use xlink:href="#m273c7fa2bd" x="191.06" y="476.12" style="stroke: #000000; stroke-width: 0.8"/>
      </g>
     </g>
     <g id="text_4">
      <text style="font: 10px 'sans-serif'; text-anchor: middle" x="191.06" y="490.718437" transform="rotate(-0, 191.06, 490.718437)">0.0</text>
     </g>
    </g>
    <g id="xtick_5">
     <g id="line2d_5">
      <g>
       <use xlink:href="#m273c7fa2bd" x="242.682932" y="476.12" style="stroke: #000000; stroke-width: 0.8"/>
      </g>
     </g>
     <g id="text_5">
      <text style="font: 10px 'sans-serif'; text-anchor: middle" x="242.682932" y="490.718437" transform="rotate(-0, 242.682932, 490.718437)">0.2</text>
     </g>
    </g>
    <g id="xtick_6">
     <g id="line2d_6">
      <g>
       <use xlink:href="#m273c7fa2bd" x="294.305863" y="476.12" style="stroke: #000000; stroke-width: 0.8"/>
      </g>
     </g>
     <g id="text_6">
      <text style="font: 10px 'sans-serif'; text-anchor: middle" x="294.305863" y="490.718437" transform="rotate(-0, 294.305863, 490.718437)">0.4</text>
     </g>
    </g>
    <g id="xtick_7">
     <g id="line2d_7">
      <g>
       <use xlink:href="#m273c7fa2bd" x="345.928795" y="476.12" style="stroke: #000000; stroke-width: 0.8"/>
      </g>
     </g>
     <g id="text_7">
      <text style="font: 10px 'sans-serif'; text-anchor: middle" x="345.928795" y="490.718437" transform="rotate(-0, 345.928795, 490.718437)">0.6</text>
     </g>
    </g>
    <g id="text_8">
     <text style="font: 10px 'sans-serif'; text-anchor: middle" x="191.06" y="504.396563" transform="rotate(-0, 191.06, 504.396563)">kx</text>
    </g>
   </g>
   <g id="matplotlib.axis_2">
    <g id="ytick_1">
     <g id="line2d_8">
      <defs>
       <path id="m81fbe93cb8" d="M 0 0 
L -3.5 0 
" style="stroke: #000000; stroke-width: 0.8"/>
      </defs>
      <g>
       <use xlink:href="#m81fbe93cb8" x="33.64" y="476.12" style="stroke: #000000; stroke-width: 0.8"/>
      </g>
     </g>
     <g id="text_9">
      <text style="font: 10px 'sans-serif'; text-anchor: end" x="26.64" y="479.919219" transform="rotate(-0, 26.64, 479.919219)">−0.20</text>
     </g>
    </g>
    <g id="ytick_2">
     <g id="line2d_9">
      <g>
       <use xlink:href="#m81fbe93cb8" x="33.64" y="418.45" style="stroke: #000000; stroke-width: 0.8"/>
      </g>
     </g>
     <g id="text_10">
      <text style="font: 10px 'sans-serif'; text-anchor: end" x="26.64" y="422.249219" transform="rotate(-0, 26.64, 422.249219)">−0.15</text>
     </g>
    </g>
    <g id="ytick_3">
     <g id="line2d_10">
      <g>
       <use xlink:href="#m81fbe93cb8" x="33.64" y="360.78" style="stroke: #000000; stroke-width: 0.8"/>
      </g>
     </g>
     <g id="text_11">
      <text style="font: 10px 'sans-serif'; text-anchor: end" x="26.64" y="364.579219" transform="rotate(-0, 26.64, 364.579219)">−0.10</text>
     </g>
    </g>
    <g id="ytick_4">
     <g id="line2d_11">
      <g>
       <use xlink:href="#m81fbe93cb8" x="33.64" y="303.11" style="stroke: #000000; stroke-width: 0.8"/>
      </g>
     </g>
     <g id="text_12">
      <text style="font: 10px 'sans-serif'; text-anchor: end" x="26.64" y="306.909219" transform="rotate(-0, 26.64, 306.909219)">−0.05</text>
     </g>
    </g>
    <g id="ytick_5">
     <g id="line2d_12">
      <g>
       <use xlink:href="#m81fbe93cb8" x="33.64" y="245.44" style="stroke: #000000; stroke-width: 0.8"/>
      </g>
     </g>
     <g id="text_13">
      <text style="font: 10px 'sans-serif'; text-anchor: end" x="26.64" y="249.239219" transform="rotate(-0, 26.64, 249.239219)">0.00</text>
     </g>
    </g>
    <g id="ytick_6">
     <g id="line2d_13">
      <g>
       <use xlink:href="#m81fbe93cb8" x="33.64" y="187.77" style="stroke: #000000; stroke-width: 0.8"/>
      </g>
     </g>
     <g id="text_14">
      <text style="font: 10px 'sans-serif'; text-anchor: end" x="26.64" y="191.569219" transform="rotate(-0, 26.64, 191.569219)">0.05</text>
     </g>
    </g>
    <g id="ytick_7">
     <g id="line2d_14">
      <g>
       <use xlink:href="#m81fbe93cb8" x="33.64" y="130.1" style="stroke: #000000; stroke-width: 0.8"/>
      </g>
     </g>
     <g id="text_15">
      <text style="font: 10px 'sans-serif'; text-anchor: end" x="26.64" y="133.899219" transform="rotate(-0, 26.64, 133.899219)">0.10</text>
     </g>
    </g>
    <g id="ytick_8">
     <g id="line2d_15">
      <g>
       <use xlink:href="#m81fbe93cb8" x="33.64" y="72.43" style="stroke: #000000; stroke-width: 0.8"/>
      </g>
     </g>
     <g id="text_16">
      <text style="font: 10px 'sans-serif'; text-anchor: end" x="26.64" y="76.229219" transform="rotate(-0, 26.64, 76.229219)">0.15</text>
     </g>
    </g>
    <g id="ytick_9">
     <g id="line2d_16">
      <g>
       <use xlink:href="#m81fbe93cb8" x="33.64" y="14.76" style="stroke: #000000; stroke-width: 0.8"/>
      </g>
     </g>
     <g id="text_17">
      <text style="font: 10px 'sans-serif'; text-anchor: end" x="26.64" y="18.559219" transform="rotate(-0, 26.64, 18.559219)">0.20</text>
     </g>
    </g>
    <g id="text_18">
     <text style="font: 10px 'sans-serif'; text-anchor: middle" x="-10.085" y="245.44" transform="rotate(-90, -10.085, 245.44)">Energy</text>
    </g>
   </g>
   <g id="line2d_17">
    <path d="M 182.611992 505 
L 185.335636 433.628841 
L 188.197818 359.077955 
L 191.06 290.936081 
L 193.922182 359.077955 
L 196.784364 433.628841 
L 199.508008 505 
" clip-path="url(#p74055f73b6)" style="fill: none; stroke: #000000; stroke-width: 1.5; stroke-linecap: square"/>
   </g>
   <g id="line2d_18">
    <path d="M 180.446384 -1 
L 182.473455 54.667273 
L 185.335636 132.1136 
L 188.197818 208.265658 
L 191.06 276.962728 
L 193.922182 208.265658 
L 196.784364 132.1136 
L 199.646545 54.667273 
L 201.673616 -1 
" clip-path="url(#p74055f73b6)" style="fill: none; stroke: #000000; stroke-width: 1.5; stroke-linecap: square"/>
   </g>
   <g id="line2d_19">
    <path d="M 182.238405 505 
L 182.473455 498.08904 
L 183.189 477.051832 
L 183.904545 456.016238 
L 184.620091 434.983066 
L 185.335636 413.953124 
L 186.051182 392.927795 
L 186.766727 371.909387 
L 187.482273 350.901856 
L 188.197818 329.913563 
L 188.913364 308.963493 
L 189.628909 288.107968 
L 190.344455 267.615418 
L 191.06 252.426677 
L 191.775545 267.615418 
L 192.491091 288.107968 
L 193.206636 308.963493 
L 193.922182 329.913563 
L 194.637727 350.901856 
L 195.353273 371.909387 
L 196.068818 392.927795 
L 196.784364 413.953124 
L 197.499909 434.983066 
L 198.215455 456.016238 
L 198.931 477.051832 
L 199.646545 498.08904 
L 199.881595 505 
" clip-path="url(#p74055f73b6)" style="fill: none; stroke: #d62728; stroke-width: 1.5; stroke-linecap: square"/>
   </g>
   <g id="line2d_20">
    <path d="M 182.684645 -1 
L 183.189 13.828168 
L 183.904545 34.863762 
L 184.620091 55.896934 
L 185.335636 76.926876 
L 186.051182 97.952205 
L 186.766727 118.970613 
L 187.482273 139.978144 
L 188.197818 160.966437 
L 188.913364 181.916507 
L 189.628909 202.772032 
L 190.344455 223.264582 
L 191.06 238.453323 
L 191.775545 223.264582 
L 192.491091 202.772032 
L 193.206636 181.916507 
L 193.922182 160.966437 
L 194.637727 139.978144 
L 195.353273 118.970613 
L 196.068818 97.952205 
L 196.784364 76.926876 
L 197.499909 55.896934 
L 198.215455 34.863762 
L 198.931 13.828168 
L 199.435355 -1 
" clip-path="url(#p74055f73b6)" style="fill: none; stroke: #d62728; stroke-width: 1.5; stroke-linecap: square"/>
   </g>
   <g id="patch_4">
    <path d="M 33.64 476.12 
L 33.64 14.76 
" style="fill: none; stroke: #000000; stroke-width: 0.8; stroke-linejoin: miter; stroke-linecap: square"/>
   </g>
   <g id="patch_5">
    <path d="M 348.48 476.12 
L 348.48 14.76 
" style="fill: none; stroke: #000000; stroke-width: 0.8; stroke-linejoin: miter; stroke-linecap: square"/>
   </g>
   <g id="patch_6">
    <path d="M 33.64 476.12 
L 348.48 476.12 
" style="fill: none; stroke: #000000; stroke-width: 0.8; stroke-linejoin: miter; stroke-linecap: square"/>
   </g>
   <g id="patch_7">
    <path d="M 33.64 14.76 
L 348.48 14.76 
" style="fill: none; stroke: #000000; stroke-width: 0.8; stroke-linejoin: miter; stroke-linecap: square"/>
   </g>
   <g id="legend_1">
    <g id="patch_8">
     <path d="M 265.864375 52.11625 
L 341.48 52.11625 
Q 343.48 52.11625 343.48 50.11625 
L 343.48 21.76 
Q 343.48 19.76 341.48 19.76 
L 265.864375 19.76 
Q 263.864375 19.76 263.864375 21.76 
L 263.864375 50.11625 
Q 263.864375 52.11625 265.864375 52.11625 
z
" style="fill: #ffffff; opacity: 0.8; stroke: #cccccc; stroke-linejoin: miter"/>
    </g>
    <g id="line2d_21">
     <path d="M 267.864375 27.858438 
L 277.864375 27.858438 
L 287.864375 27.858438 
" style="fill: none; stroke: #000000; stroke-width: 1.5; stroke-linecap: square"/>
    </g>
    <g id="text_19">
     <text style="font: 10px 'sans-serif'; text-anchor: start" x="295.864375" y="31.358438" transform="rotate(-0, 295.864375, 31.358438)">Liu-Allen</text>
    </g>
    <g id="line2d_22">
     <path d="M 267.864375 42.536563 
L 277.864375 42.536563 
L 287.864375 42.536563 
" style="fill: none; stroke: #d62728; stroke-width: 1.5; stroke-linecap: square"/>
    </g>
    <g id="text_20">
     <text style="font: 10px 'sans-serif'; text-anchor: start" x="295.864375" y="46.036563" transform="rotate(-0, 295.864375, 46.036563)">effective</text>
    </g>
   </g>
  </g>
  <g id="axes_2">
   <g id="patch_9">
    <path d="M 390.04 476.12 
L 704.88 476.12 
L 704.88 14.76 
L 390.04 14.76 
z
" style="fill: #ffffff"/>
   </g>
   <g id="patch_10">
    <path d="M 390.04 337.712 
L 390.04 153.168 
L 704.88 153.168 
L 704.88 337.712 
z
" clip-path="url(#pf77ddab4cf)" style="fill: #808080; opacity: 0.3; stroke: #808080; stroke-linejoin: miter"/>
   </g>
   <g id="matplotlib.axis_3">
    <g id="xtick_8">
     <g id="line2d_23">
      <g>
       <use xlink:href="#m273c7fa2bd" x="392.591205" y="476.12" style="stroke: #000000; stroke-width: 0.8"/>
      </g>
     </g>
     <g id="text_21">
      <text style="font: 10px 'sans-serif'; text-anchor: middle" x="392.591205" y="490.718437" transform="rotate(-0, 392.591205, 490.718437)">−0.6</text>
     </g>
    </g>
    <g id="xtick_9">
     <g id="line2d_24">
      <g>
       <use xlink:href="#m273c7fa2bd" x="444.214137" y="476.12" style="stroke: #000000; stroke-width: 0.8"/>
      </g>
     </g>
     <g id="text_22">
      <text style="font: 10px 'sans-serif'; text-anchor: middle" x="444.214137" y="490.718437" transform="rotate(-0, 444.214137, 490.718437)">−0.4</text>
     </g>
    </g>
    <g id="xtick_10">
     <g id="line2d_25">
      <g>
       <use xlink:href="#m273c7fa2bd" x="495.837068" y="476.12" style="stroke: #000000; stroke-width: 0.8"/>
      </g>
     </g>
     <g id="text_23">
      <text style="font: 10px 'sans-serif'; text-anchor: middle" x="495.837068" y="490.718437" transform="rotate(-0, 495.837068, 490.718437)">−0.2</text>
     </g>
    </g>
    <g id="xtick_11">
     <g id="line2d_26">
      <g>
       <use xlink:href="#m273c7fa2bd" x="547.46" y="476.12" style="stroke: #000000; stroke-width: 0.8"/>
      </g>
     </g>
     <g id="text_24">
      <text style="font: 10px 'sans-serif'; text-anchor: middle" x="547.46" y="490.718437" transform="rotate(-0, 547.46, 490.718437)">0.0</text>
     </g>
    </g>
    <g id="xtick_12">
     <g id="line2d_27">
      <g>
       <use xlink:href="#m273c7fa2bd" x="599.082932" y="476.12" style="stroke: #000000; stroke-width: 0.8"/>
      </g>
     </g>
     <g id="text_25">
      <text style="font: 10px 'sans-serif'; text-anchor: middle" x="599.082932" y="490.718437" transform="rotate(-0, 599.082932, 490.718437)">0.2</text>
     </g>
    </g>
    <g id="xtick_13">
     <g id="line2d_28">
      <g>
       <use xlink:href="#m273c7fa2bd" x="650.705863" y="476.12" style="stroke: #000000; stroke-width: 0.8"/>
      </g>
     </g>
     <g id="text_26">
      <text style="font: 10px 'sans-serif'; text-anchor: middle" x="650.705863" y="490.718437" transform="rotate(-0, 650.705863, 490.718437)">0.4</text>
     </g>
    </g>
    <g id="xtick_14">
     <g id="line2d_29">
      <g>
       <use xlink:href="#m273c7fa2bd" x="702.328795" y="476.12" style="stroke: #000000; stroke-width: 0.8"/>
      </g>
     </g>
     <g id="text_27">
      <text style="font: 10px 'sans-serif'; text-anchor: middle" x="702.328795" y="490.718437" transform="rotate(-0, 702.328795, 490.718437)">0.6</text>
     </g>
    </g>
    <g id="text_28">
     <text style="font: 10px 'sans-serif'; text-anchor: middle" x="547.46" y="504.396563" transform="rotate(-0, 547.46, 504.396563)">ky</text>
    </g>
   </g>
   <g id="matplotlib.axis_4">
    <g id="ytick_10">
     <g id="line2d_30">
      <g>
       <use xlink:href="#m81fbe93cb8" x="390.04" y="476.12" style="stroke: #000000; stroke-width: 0.8"/>
      </g>
     </g>
    </g>
    <g id="ytick_11">
     <g id="line2d_31">
      <g>
       <use xlink:href="#m81fbe93cb8" x="390.04" y="418.45" style="stroke: #000000; stroke-width: 0.8"/>
      </g>
     </g>
    </g>
    <g id="ytick_12">
     <g id="line2d_32">
      <g>
       <use xlink:href="#m81fbe93cb8" x="390.04" y="360.78" style="stroke: #000000; stroke-width: 0.8"/>
      </g>
     </g>
    </g>
    <g id="ytick_13">
     <g id="line2d_33">
      <g>
       <use xlink:href="#m81fbe93cb8" x="390.04" y="303.11" style="stroke: #000000; stroke-width: 0.8"/>
      </g>
     </g>
    </g>
    <g id="ytick_14">
     <g id="line2d_34">
      <g>
       <use xlink:href="#m81fbe93cb8" x="390.04" y="245.44" style="stroke: #000000; stroke-width: 0.8"/>
      </g>
     </g>
    </g>
    <g id="ytick_15">
     <g id="line2d_35">
      <g>
       <use xlink:href="#m81fbe93cb8" x="390.04" y="187.77" style="stroke: #000000; stroke-width: 0.8"/>
      </g>
     </g>
    </g>
    <g id="ytick_16">
     <g id="line2d_36">
      <g>
       <use xlink:href="#m81fbe93cb8" x="390.04" y="130.1" style="stroke: #000000; stroke-width: 0.8"/>
      </g>
     </g>
    </g>
    <g id="ytick_17">
     <g id="line2d_37">
      <g>
       <use xlink:href="#m81fbe93cb8" x="390.04" y="72.43" style="stroke: #000000; stroke-width: 0.8"/>
      </g>
     </g>
    </g>
    <g id="ytick_18">
     <g id="line2d_38">
      <g>
       <use xlink:href="#m81fbe93cb8" x="390.04" y="14.76" style="stroke: #000000; stroke-width: 0.8"/>
      </g>
     </g>
    </g>
   </g>
   <g id="line2d_39">
    <path d="M 471.578651 505 
L 473.043273 501.538037 
L 475.905455 494.797061 
L 478.767636 488.060086 
L 481.629818 481.304567 
L 484.492 474.506207 
L 487.354182 467.639381 
L 490.216364 460.67762 
L 493.078545 453.594176 
L 495.940727 446.362662 
L 498.802909 438.957781 
L 501.665091 431.356146 
L 504.527273 423.537184 
L 507.389455 415.484128 
L 510.251636 407.185069 
L 513.113818 398.634039 
L 515.976 389.83209 
L 518.838182 380.788307 
L 521.700364 371.520699 
L 524.562545 362.0569 
L 527.424727 352.434684 
L 530.286909 342.702408 
L 533.149091 332.919919 
L 536.011273 323.16164 
L 538.873455 313.528079 
L 541.735636 304.1937 
L 544.597818 295.67533 
L 547.46 290.936081 
L 550.322182 295.65066 
L 553.184364 304.167865 
L 556.046545 313.504887 
L 558.908727 323.141939 
L 561.770909 332.903979 
L 564.633091 342.690308 
L 567.495273 352.426413 
L 570.357455 362.0524 
L 573.219636 371.519884 
L 576.081818 380.79108 
L 578.944 389.83835 
L 581.806182 398.643692 
L 584.668364 407.198026 
L 587.530545 415.50031 
L 590.392727 423.556521 
L 593.254909 431.378578 
L 596.117091 438.983257 
L 598.979273 446.391134 
L 601.841455 453.625601 
L 604.703636 460.711956 
L 607.565818 467.676586 
L 610.428 474.546235 
L 613.290182 481.347368 
L 616.152364 488.105603 
L 619.014545 494.845229 
L 621.876727 501.588783 
L 623.319349 505 
" clip-path="url(#pf77ddab4cf)" style="fill: none; stroke: #000000; stroke-width: 1.5; stroke-linecap: square"/>
   </g>
   <g id="line2d_40">
    <path d="M 404.350909 72.978557 
L 407.213091 71.032422 
L 410.075273 68.982091 
L 412.937455 66.938382 
L 415.799636 65.003968 
L 418.661818 63.271289 
L 421.524 61.821133 
L 424.386182 60.721811 
L 427.248364 60.028818 
L 430.110545 59.784895 
L 432.972727 60.02042 
L 435.834909 60.754052 
L 438.697091 61.993595 
L 441.559273 63.737011 
L 444.421455 65.973563 
L 447.283636 68.685024 
L 450.145818 71.846931 
L 453.008 75.429846 
L 455.870182 79.400581 
L 458.732364 83.723366 
L 461.594545 88.360946 
L 464.456727 93.275571 
L 467.318909 98.429887 
L 470.181091 103.787717 
L 473.043273 109.314728 
L 475.905455 114.979002 
L 478.767636 120.751504 
L 481.629818 126.606474 
L 484.492 132.521739 
L 487.354182 138.478968 
L 490.216364 144.463876 
L 493.078545 150.466392 
L 495.940727 156.480785 
L 498.802909 162.505768 
L 501.665091 168.544562 
L 504.527273 174.604931 
L 507.389455 180.699145 
L 510.251636 186.843879 
L 513.113818 193.059977 
L 515.976 199.372056 
L 518.838182 205.807878 
L 521.700364 212.397407 
L 524.562545 219.171453 
L 527.424727 226.159773 
L 530.286909 233.38838 
L 533.149091 240.875501 
L 536.011273 248.624525 
L 538.873455 256.607934 
L 541.735636 264.714611 
L 544.597818 272.476868 
L 547.46 276.962728 
L 550.322182 272.508109 
L 553.184364 264.753448 
L 556.046545 256.650294 
L 558.908727 248.669189 
L 561.770909 240.921746 
L 564.633091 233.435627 
L 567.495273 226.207514 
L 570.357455 219.219235 
L 573.219636 212.444835 
L 576.081818 205.854616 
L 578.944 199.417827 
L 581.806182 193.104567 
L 584.668364 186.887132 
L 587.530545 180.740961 
L 590.392727 174.645262 
L 593.254909 168.583413 
L 596.117091 162.543186 
L 598.979273 156.516861 
L 601.841455 150.501251 
L 604.703636 144.497679 
L 607.565818 138.511905 
L 610.428 132.554027 
L 613.290182 126.638352 
L 616.152364 120.78323 
L 619.014545 115.010848 
L 621.876727 109.346978 
L 624.738909 103.820659 
L 627.601091 98.46381 
L 630.463273 93.310757 
L 633.325455 88.397666 
L 636.187636 83.761871 
L 639.049818 79.441096 
L 641.912 75.472564 
L 644.774182 71.892 
L 647.636364 68.732545 
L 650.498545 66.02358 
L 653.360727 63.789502 
L 656.222909 62.048466 
L 659.085091 60.811135 
L 661.947273 60.079464 
L 664.809455 59.845564 
L 667.671636 60.090688 
L 670.533818 60.784374 
L 673.396 61.883793 
L 676.258182 63.333371 
L 679.120364 65.064724 
L 681.982545 66.997 
L 684.844727 69.037713 
L 687.706909 71.084159 
L 690.569091 73.025517 
" clip-path="url(#pf77ddab4cf)" style="fill: none; stroke: #000000; stroke-width: 1.5; stroke-linecap: square"/>
   </g>
   <g id="line2d_41">
    <path d="M 538.638405 505 
L 538.873455 498.08904 
L 539.589 477.051832 
L 540.304545 456.016238 
L 541.020091 434.983066 
L 541.735636 413.953124 
L 542.451182 392.927795 
L 543.166727 371.909387 
L 543.882273 350.901856 
L 544.597818 329.913563 
L 545.313364 308.963493 
L 546.028909 288.107968 
L 546.744455 267.615418 
L 547.46 252.426677 
L 548.175545 267.615418 
L 548.891091 288.107968 
L 549.606636 308.963493 
L 550.322182 329.913563 
L 551.037727 350.901856 
L 551.753273 371.909387 
L 552.468818 392.927795 
L 553.184364 413.953124 
L 553.899909 434.983066 
L 554.615455 456.016238 
L 555.331 477.051832 
L 556.046545 498.08904 
L 556.281595 505 
" clip-path="url(#pf77ddab4cf)" style="fill: none; stroke: #d62728; stroke-width: 1.5; stroke-linecap: square"/>
   </g>
   <g id="line2d_42">
    <path d="M 539.084645 -1 
L 539.589 13.828168 
L 540.304545 34.863762 
L 541.020091 55.896934 
L 541.735636 76.926876 
L 542.451182 97.952205 
L 543.166727 118.970613 
L 543.882273 139.978144 
L 544.597818 160.966437 
L 545.313364 181.916507 
L 546.028909 202.772032 
L 546.744455 223.264582 
L 547.46 238.453323 
L 548.175545 223.264582 
L 548.891091 202.772032 
L 549.606636 181.916507 
L 550.322182 160.966437 
L 551.037727 139.978144 
L 551.753273 118.970613 
L 552.468818 97.952205 
L 553.184364 76.926876 
L 553.899909 55.896934 
L 554.615455 34.863762 
L 555.331 13.828168 
L 555.835355 -1 
" clip-path="url(#pf77ddab4cf)" style="fill: none; stroke: #d62728; stroke-width: 1.5; stroke-linecap: square"/>
   </g>
   <g id="patch_11">
    <path d="M 390.04 476.12 
L 390.04 14.76 
" style="fill: none; stroke: #000000; stroke-width: 0.8; stroke-linejoin: miter; stroke-linecap: square"/>
   </g>
   <g id="patch_12">
    <path d="M 704.88 476.12 
L 704.88 14.76 
" style="fill: none; stroke: #000000; stroke-width: 0.8; stroke-linejoin: miter; stroke-linecap: square"/>
   </g>
   <g id="patch_13">
    <path d="M 390.04 476.12 
L 704.88 476.12 
" style="fill: none; stroke: #000000; stroke-width: 0.8; stroke-linejoin: miter; stroke-linecap: square"/>
   </g>
   <g id="patch_14">
    <path d="M 390.04 14.76 
L 704.88 14.76 
" style="fill: none; stroke: #000000; stroke-width: 0.8; stroke-linejoin: miter; stroke-linecap: square"/>
   </g>
   <g id="text_29">
    <text style="font: 12px 'sans-serif'; text-anchor: middle" x="547.46" y="8.76" transform="rotate(-0, 547.46, 8.76)">L3 point</text>
   </g>
   <g id="legend_2">
    <g id="patch_15">
     <path d="M 622.264375 52.11625 
L 697.88 52.11625 
Q 699.88 52.11625 699.88 50.11625 
L 699.88 21.76 
Q 699.88 19.76 697.88 19.76 
L 622.264375 19.76 
Q 620.264375 19.76 620.264375 21.76 
L 620.264375 50.11625 
Q 620.264375 52.11625 622.264375 52.11625 
z
" style="fill: #ffffff; opacity: 0.8; stroke: #cccccc; stroke-linejoin: miter"/>
    </g>
    <g id="line2d_43">
     <path d="M 624.264375 27.858438 
L 634.264375 27.858438 
L 644.264375 27.858438 
" style="fill: none; stroke: #000000; stroke-width: 1.5; stroke-linecap: square"/>
    </g>
    <g id="text_30">
     <text style="font: 10px 'sans-serif'; text-anchor: start" x="652.264375" y="31.358438" transform="rotate(-0, 652.264375, 31.358438)">Liu-Allen</text>
    </g>
    <g id="line2d_44">
     <path d="M 624.264375 42.536563 
L 634.264375 42.536563 
L 644.264375 42.536563 
" style="fill: none; stroke: #d62728; stroke-width: 1.5; stroke-linecap: square"/>
    </g>
    <g id="text_31">
     <text style="font: 10px 'sans-serif'; text-anchor: start" x="652.264375" y="46.036563" transform="rotate(-0, 652.264375, 46.036563)">effective</text>
    </g>
   </g>
  </g>
  <g id="axes_3">
   <g id="patch_16">
    <path d="M 746.44 476.12 
L 1061.28 476.12 
L 1061.28 14.76 
L 746.44 14.76 
z
" style="fill: #ffffff"/>
   </g>
   <g id="patch_17">
    <path d="M 746.44 337.712 
L 746.44 153.168 
L 1061.28 153.168 
L 1061.28 337.712 
z
" clip-path="url(#pf4e2e8ac1a)" style="fill: #808080; opacity: 0.3; stroke: #808080; stroke-linejoin: miter"/>
   </g>
   <g id="matplotlib.axis_5">
    <g id="xtick_15">
     <g id="line2d_45">
      <g>
       <use xlink:href="#m273c7fa2bd" x="748.991205" y="476.12" style="stroke: #000000; stroke-width: 0.8"/>
      </g>
     </g>
     <g id="text_32">
      <text style="font: 10px 'sans-serif'; text-anchor: middle" x="748.991205" y="490.718437" transform="rotate(-0, 748.991205, 490.718437)">−0.6</text>
     </g>
    </g>
    <g id="xtick_16">
     <g id="line2d_46">
      <g>
       <use xlink:href="#m273c7fa2bd" x="800.614137" y="476.12" style="stroke: #000000; stroke-width: 0.8"/>
      </g>
     </g>
     <g id="text_33">
      <text style="font: 10px 'sans-serif'; text-anchor: middle" x="800.614137" y="490.718437" transform="rotate(-0, 800.614137, 490.718437)">−0.4</text>
     </g>
    </g>
    <g id="xtick_17">
     <g id="line2d_47">
      <g>
       <use xlink:href="#m273c7fa2bd" x="852.237068" y="476.12" style="stroke: #000000; stroke-width: 0.8"/>
      </g>
     </g>
     <g id="text_34">
      <text style="font: 10px 'sans-serif'; text-anchor: middle" x="852.237068" y="490.718437" transform="rotate(-0, 852.237068, 490.718437)">−0.2</text>
     </g>
    </g>
    <g id="xtick_18">
     <g id="line2d_48">
      <g>
       <use xlink:href="#m273c7fa2bd" x="903.86" y="476.12" style="stroke: #000000; stroke-width: 0.8"/>
      </g>
     </g>
     <g id="text_35">
      <text style="font: 10px 'sans-serif'; text-anchor: middle" x="903.86" y="490.718437" transform="rotate(-0, 903.86, 490.718437)">0.0</text>
     </g>
    </g>
    <g id="xtick_19">
     <g id="line2d_49">
      <g>
       <use xlink:href="#m273c7fa2bd" x="955.482932" y="476.12" style="stroke: #000000; stroke-width: 0.8"/>
      </g>
     </g>
     <g id="text_36">
      <text style="font: 10px 'sans-serif'; text-anchor: middle" x="955.482932" y="490.718437" transform="rotate(-0, 955.482932, 490.718437)">0.2</text>
     </g>
    </g>
    <g id="xtick_20">
     <g id="line2d_50">
      <g>
       <use xlink:href="#m273c7fa2bd" x="1007.105863" y="476.12" style="stroke: #000000; stroke-width: 0.8"/>
      </g>
     </g>
     <g id="text_37">
      <text style="font: 10px 'sans-serif'; text-anchor: middle" x="1007.105863" y="490.718437" transform="rotate(-0, 1007.105863, 490.718437)">0.4</text>
     </g>
    </g>
    <g id="xtick_21">
     <g id="line2d_51">
      <g>
       <use xlink:href="#m273c7fa2bd" x="1058.728795" y="476.12" style="stroke: #000000; stroke-width: 0.8"/>
      </g>
     </g>
     <g id="text_38">
      <text style="font: 10px 'sans-serif'; text-anchor: middle" x="1058.728795" y="490.718437" transform="rotate(-0, 1058.728795, 490.718437)">0.6</text>
     </g>
    </g>
    <g id="text_39">
     <text style="font: 10px 'sans-serif'; text-anchor: middle" x="903.86" y="504.396563" transform="rotate(-0, 903.86, 504.396563)">kz</text>
    </g>
   </g>
   <g id="matplotlib.axis_6">
    <g id="ytick_19">
     <g id="line2d_52">
      <g>
       <use xlink:href="#m81fbe93cb8" x="746.44" y="476.12" style="stroke: #000000; stroke-width: 0.8"/>
      </g>
     </g>
    </g>
    <g id="ytick_20">
     <g id="line2d_53">
      <g>
       <use xlink:href="#m81fbe93cb8" x="746.44" y="418.45" style="stroke: #000000; stroke-width: 0.8"/>
      </g>
     </g>
    </g>
    <g id="ytick_21">
     <g id="line2d_54">
      <g>
       <use xlink:href="#m81fbe93cb8" x="746.44" y="360.78" style="stroke: #000000; stroke-width: 0.8"/>
      </g>
     </g>
    </g>
    <g id="ytick_22">
     <g id="line2d_55">
      <g>
       <use xlink:href="#m81fbe93cb8" x="746.44" y="303.11" style="stroke: #000000; stroke-width: 0.8"/>
      </g>
     </g>
    </g>
    <g id="ytick_23">
     <g id="line2d_56">
      <g>
       <use xlink:href="#m81fbe93cb8" x="746.44" y="245.44" style="stroke: #000000; stroke-width: 0.8"/>
      </g>
     </g>
    </g>
    <g id="ytick_24">
     <g id="line2d_57">
      <g>
       <use xlink:href="#m81fbe93cb8" x="746.44" y="187.77" style="stroke: #000000; stroke-width: 0.8"/>
      </g>
     </g>
    </g>
    <g id="ytick_25">
     <g id="line2d_58">
      <g>
       <use xlink:href="#m81fbe93cb8" x="746.44" y="130.1" style="stroke: #000000; stroke-width: 0.8"/>
      </g>
     </g>
    </g>
    <g id="ytick_26">
     <g id="line2d_59">
      <g>
       <use xlink:href="#m81fbe93cb8" x="746.44" y="72.43" style="stroke: #000000; stroke-width: 0.8"/>
      </g>
     </g>
    </g>
    <g id="ytick_27">
     <g id="line2d_60">
      <g>
       <use xlink:href="#m81fbe93cb8" x="746.44" y="14.76" style="stroke: #000000; stroke-width: 0.8"/>
      </g>
     </g>
    </g>
   </g>
   <g id="line2d_61">
    <path d="M 893.620409 505 
L 895.273455 469.068024 
L 898.135636 407.159598 
L 900.997818 345.656302 
L 903.86 290.936081 
L 906.722182 345.751443 
L 909.584364 407.263126 
L 912.446545 469.180436 
L 914.094174 505 
" clip-path="url(#pf4e2e8ac1a)" style="fill: none; stroke: #000000; stroke-width: 1.5; stroke-linecap: square"/>
   </g>
   <g id="line2d_62">
    <path d="M 889.989675 -1 
L 892.411273 46.350173 
L 895.273455 103.93497 
L 898.135636 162.872395 
L 900.997818 222.751516 
L 903.86 276.962728 
L 906.722182 222.668206 
L 909.584364 162.791898 
L 912.446545 103.855611 
L 915.308727 46.269996 
L 917.726112 -1 
" clip-path="url(#pf4e2e8ac1a)" style="fill: none; stroke: #000000; stroke-width: 1.5; stroke-linecap: square"/>
   </g>
   <g id="line2d_63">
    <path d="M 895.038405 505 
L 895.273455 498.08904 
L 895.989 477.051832 
L 896.704545 456.016238 
L 897.420091 434.983066 
L 898.135636 413.953124 
L 898.851182 392.927795 
L 899.566727 371.909387 
L 900.282273 350.901856 
L 900.997818 329.913563 
L 901.713364 308.963493 
L 902.428909 288.107968 
L 903.144455 267.615418 
L 903.86 252.426677 
L 904.575545 267.615418 
L 905.291091 288.107968 
L 906.006636 308.963493 
L 906.722182 329.913563 
L 907.437727 350.901856 
L 908.153273 371.909387 
L 908.868818 392.927795 
L 909.584364 413.953124 
L 910.299909 434.983066 
L 911.015455 456.016238 
L 911.731 477.051832 
L 912.446545 498.08904 
L 912.681595 505 
" clip-path="url(#pf4e2e8ac1a)" style="fill: none; stroke: #d62728; stroke-width: 1.5; stroke-linecap: square"/>
   </g>
   <g id="line2d_64">
    <path d="M 895.484645 -1 
L 895.989 13.828168 
L 896.704545 34.863762 
L 897.420091 55.896934 
L 898.135636 76.926876 
L 898.851182 97.952205 
L 899.566727 118.970613 
L 900.282273 139.978144 
L 900.997818 160.966437 
L 901.713364 181.916507 
L 902.428909 202.772032 
L 903.144455 223.264582 
L 903.86 238.453323 
L 904.575545 223.264582 
L 905.291091 202.772032 
L 906.006636 181.916507 
L 906.722182 160.966437 
L 907.437727 139.978144 
L 908.153273 118.970613 
L 908.868818 97.952205 
L 909.584364 76.926876 
L 910.299909 55.896934 
L 911.015455 34.863762 
L 911.731 13.828168 
L 912.235355 -1 
" clip-path="url(#pf4e2e8ac1a)" style="fill: none; stroke: #d62728; stroke-width: 1.5; stroke-linecap: square"/>
   </g>
   <g id="patch_18">
    <path d="M 746.44 476.12 
L 746.44 14.76 
" style="fill: none; stroke: #000000; stroke-width: 0.8; stroke-linejoin: miter; stroke-linecap: square"/>
   </g>
   <g id="patch_19">
    <path d="M 1061.28 476.12 
L 1061.28 14.76 
" style="fill: none; stroke: #000000; stroke-width: 0.8; stroke-linejoin: miter; stroke-linecap: square"/>
   </g>
   <g id="patch_20">
    <path d="M 746.44 476.12 
L 1061.28 476.12 
" style="fill: none; stroke: #000000; stroke-width: 0.8; stroke-linejoin: miter; stroke-linecap: square"/>
   </g>
   <g id="patch_21">
    <path d="M 746.44 14.76 
L 1061.28 14.76 
" style="fill: none; stroke: #000000; stroke-width: 0.8; stroke-linejoin: miter; stroke-linecap: square"/>
   </g>
   <g id="legend_3">
    <g id="patch_22">
     <path d="M 978.664375 52.11625 
L 1054.28 52.11625 
Q 1056.28 52.11625 1056.28 50.11625 
L 1056.28 21.76 
Q 1056.28 19.76 1054.28 19.76 
L 978.664375 19.76 
Q 976.664375 19.76 976.664375 21.76 
L 976.664375 50.11625 
Q 976.664375 52.11625 978.664375 52.11625 
z
" style="fill: #ffffff; opacity: 0.8; stroke: #cccccc; stroke-linejoin: miter"/>
    </g>
    <g id="line2d_65">
     <path d="M 980.664375 27.858438 
L 990.664375 27.858438 
L 1000.664375 27.858438 
" style="fill: none; stroke: #000000; stroke-width: 1.5; stroke-linecap: square"/>
    </g>
    <g id="text_40">
     <text style="font: 10px 'sans-serif'; text-anchor: start" x="1008.664375" y="31.358438" transform="rotate(-0, 1008.664375, 31.358438)">Liu-Allen</text>
    </g>
    <g id="line2d_66">
     <path d="M 980.664375 42.536563 
L 990.664375 42.536563 
L 1000.664375 42.536563 
" style="fill: none; stroke: #d62728; stroke-width: 1.5; stroke-linecap: square"/>
    </g>
    <g id="text_41">
     <text style="font: 10px 'sans-serif'; text-anchor: start" x="1008.664375" y="46.036563" transform="rotate(-0, 1008.664375, 46.036563)">effective</text>
    </g>
   </g>
  </g>
 </g>
 <defs>
  <clipPath id="p74055f73b6">
   <rect x="33.64" y="14.76" width="314.84" height="461.36"/>
  </clipPath>
  <clipPath id="pf77ddab4cf">
   <rect x="390.04" y="14.76" width="314.84" height="461.36"/>
  </clipPath>
  <clipPath id="pf4e2e8ac1a">
   <rect x="746.44" y="14.76" width="314.84" height="461.36"/>
  </clipPath>
 </defs>
</svg>
