<?xml version="1.0" encoding="utf-8" standalone="no"?>
<!DOCTYPE svg PUBLIC "-//W3C//DTD SVG 1.1//EN"
  "http://www.w3.org/Graphics/SVG/1.1/DTD/svg11.dtd">
<svg xmlns:xlink="http://www.w3.org/1999/xlink" width="1080pt" height="504pt" viewBox="0 0 1080 504" xmlns="http://www.w3.org/2000/svg" version="1.1">
 <metadata>
  <rdf:RDF xmlns:dc="http://purl.org/dc/elements/1.1/" xmlns:cc="http://creativecommons.org/ns#" xmlns:rdf="http://www.w3.org/1999/02/22-rdf-syntax-ns#">
   <cc:Work>
    <dc:type rdf:resource="http://purl.org/dc/dcmitype/StillImage"/>
    <dc:date>2022-06-25T18:29:12.981614</dc:date>
    <dc:format>image/svg+xml</dc:format>
    <dc:creator>
     <cc:Agent>
      <dc:title>Matplotlib v3.5.2, https://matplotlib.org/</dc:title>
     </cc:Agent>
    </dc:creator>
   </cc:Work>
  </rdf:RDF>
 </metadata>
 <defs>
  <style type="text/css">*{stroke-linejoin: round; stroke-linecap: butt}</style>
 </defs>
 <g id="figure_1">
  <g id="patch_1">
   <path d="M 0 504 
L 1080 504 
L 1080 0 
L 0 0 
z
" style="fill: #ffffff"/>
  </g>
  <g id="axes_1">
   <g id="patch_2">
    <path d="M 33.64 476.12 
L 365.136774 476.12 
L 365.136774 14.76 
L 33.64 14.76 
z
" style="fill: #ffffff"/>
   </g>
   <g id="patch_3">
    <path d="M 33.64 337.712 
L 33.64 153.168 
L 365.136774 153.168 
L 365.136774 337.712 
z
" clip-path="url(#p3bbc471423)" style="fill: #808080; opacity: 0.3; stroke: #808080; stroke-linejoin: miter"/>
   </g>
   <g id="patch_4">
    <path d="M 124.048211 476.12 
L 124.048211 14.76 
L 274.728563 14.76 
L 274.728563 476.12 
z
" clip-path="url(#p3bbc471423)" style="fill: #17becf; opacity: 0.2; stroke: #17becf; stroke-linejoin: miter"/>
   </g>
   <g id="matplotlib.axis_1">
    <g id="xtick_1">
     <g id="line2d_1">
      <defs>
       <path id="mbbe432a598" d="M 0 0 
L 0 3.5 
" style="stroke: #000000; stroke-width: 0.8"/>
      </defs>
      <g>
       <use xlink:href="#mbbe432a598" x="36.326178" y="476.12" style="stroke: #000000; stroke-width: 0.8"/>
      </g>
     </g>
     <g id="text_1">
      <text style="font: 10px 'sans-serif'; text-anchor: middle" x="36.326178" y="490.718437" transform="rotate(-0, 36.326178, 490.718437)">−0.6</text>
     </g>
    </g>
    <g id="xtick_2">
     <g id="line2d_2">
      <g>
       <use xlink:href="#mbbe432a598" x="90.680248" y="476.12" style="stroke: #000000; stroke-width: 0.8"/>
      </g>
     </g>
     <g id="text_2">
      <text style="font: 10px 'sans-serif'; text-anchor: middle" x="90.680248" y="490.718437" transform="rotate(-0, 90.680248, 490.718437)">−0.4</text>
     </g>
    </g>
    <g id="xtick_3">
     <g id="line2d_3">
      <g>
       <use xlink:href="#mbbe432a598" x="145.034317" y="476.12" style="stroke: #000000; stroke-width: 0.8"/>
      </g>
     </g>
     <g id="text_3">
      <text style="font: 10px 'sans-serif'; text-anchor: middle" x="145.034317" y="490.718437" transform="rotate(-0, 145.034317, 490.718437)">−0.2</text>
     </g>
    </g>
    <g id="xtick_4">
     <g id="line2d_4">
      <g>
       <use xlink:href="#mbbe432a598" x="199.388387" y="476.12" style="stroke: #000000; stroke-width: 0.8"/>
      </g>
     </g>
     <g id="text_4">
      <text style="font: 10px 'sans-serif'; text-anchor: middle" x="199.388387" y="490.718437" transform="rotate(-0, 199.388387, 490.718437)">0.0</text>
     </g>
    </g>
    <g id="xtick_5">
     <g id="line2d_5">
      <g>
       <use xlink:href="#mbbe432a598" x="253.742457" y="476.12" style="stroke: #000000; stroke-width: 0.8"/>
      </g>
     </g>
     <g id="text_5">
      <text style="font: 10px 'sans-serif'; text-anchor: middle" x="253.742457" y="490.718437" transform="rotate(-0, 253.742457, 490.718437)">0.2</text>
     </g>
    </g>
    <g id="xtick_6">
     <g id="line2d_6">
      <g>
       <use xlink:href="#mbbe432a598" x="308.096526" y="476.12" style="stroke: #000000; stroke-width: 0.8"/>
      </g>
     </g>
     <g id="text_6">
      <text style="font: 10px 'sans-serif'; text-anchor: middle" x="308.096526" y="490.718437" transform="rotate(-0, 308.096526, 490.718437)">0.4</text>
     </g>
    </g>
    <g id="xtick_7">
     <g id="line2d_7">
      <g>
       <use xlink:href="#mbbe432a598" x="362.450596" y="476.12" style="stroke: #000000; stroke-width: 0.8"/>
      </g>
     </g>
     <g id="text_7">
      <text style="font: 10px 'sans-serif'; text-anchor: middle" x="362.450596" y="490.718437" transform="rotate(-0, 362.450596, 490.718437)">0.6</text>
     </g>
    </g>
    <g id="text_8">
     <text style="font: 10px 'sans-serif'; text-anchor: middle" x="199.388387" y="504.396563" transform="rotate(-0, 199.388387, 504.396563)">kx</text>
    </g>
   </g>
   <g id="matplotlib.axis_2">
    <g id="ytick_1">
     <g id="line2d_8">
      <defs>
       <path id="maee3a54bb1" d="M 0 0 
L -3.5 0 
" style="stroke: #000000; stroke-width: 0.8"/>
      </defs>
      <g>
       <use xlink:href="#maee3a54bb1" x="33.64" y="476.12" style="stroke: #000000; stroke-width: 0.8"/>
      </g>
     </g>
     <g id="text_9">
      <text style="font: 10px 'sans-serif'; text-anchor: end" x="26.64" y="479.919219" transform="rotate(-0, 26.64, 479.919219)">−0.20</text>
     </g>
    </g>
    <g id="ytick_2">
     <g id="line2d_9">
      <g>
       <use xlink:href="#maee3a54bb1" x="33.64" y="418.45" style="stroke: #000000; stroke-width: 0.8"/>
      </g>
     </g>
     <g id="text_10">
      <text style="font: 10px 'sans-serif'; text-anchor: end" x="26.64" y="422.249219" transform="rotate(-0, 26.64, 422.249219)">−0.15</text>
     </g>
    </g>
    <g id="ytick_3">
     <g id="line2d_10">
      <g>
       <use xlink:href="#maee3a54bb1" x="33.64" y="360.78" style="stroke: #000000; stroke-width: 0.8"/>
      </g>
     </g>
     <g id="text_11">
      <text style="font: 10px 'sans-serif'; text-anchor: end" x="26.64" y="364.579219" transform="rotate(-0, 26.64, 364.579219)">−0.10</text>
     </g>
    </g>
    <g id="ytick_4">
     <g id="line2d_11">
      <g>
       <use xlink:href="#maee3a54bb1" x="33.64" y="303.11" style="stroke: #000000; stroke-width: 0.8"/>
      </g>
     </g>
     <g id="text_12">
      <text style="font: 10px 'sans-serif'; text-anchor: end" x="26.64" y="306.909219" transform="rotate(-0, 26.64, 306.909219)">−0.05</text>
     </g>
    </g>
    <g id="ytick_5">
     <g id="line2d_12">
      <g>
       <use xlink:href="#maee3a54bb1" x="33.64" y="245.44" style="stroke: #000000; stroke-width: 0.8"/>
      </g>
     </g>
     <g id="text_13">
      <text style="font: 10px 'sans-serif'; text-anchor: end" x="26.64" y="249.239219" transform="rotate(-0, 26.64, 249.239219)">0.00</text>
     </g>
    </g>
    <g id="ytick_6">
     <g id="line2d_13">
      <g>
       <use xlink:href="#maee3a54bb1" x="33.64" y="187.77" style="stroke: #000000; stroke-width: 0.8"/>
      </g>
     </g>
     <g id="text_14">
      <text style="font: 10px 'sans-serif'; text-anchor: end" x="26.64" y="191.569219" transform="rotate(-0, 26.64, 191.569219)">0.05</text>
     </g>
    </g>
    <g id="ytick_7">
     <g id="line2d_14">
      <g>
       <use xlink:href="#maee3a54bb1" x="33.64" y="130.1" style="stroke: #000000; stroke-width: 0.8"/>
      </g>
     </g>
     <g id="text_15">
      <text style="font: 10px 'sans-serif'; text-anchor: end" x="26.64" y="133.899219" transform="rotate(-0, 26.64, 133.899219)">0.10</text>
     </g>
    </g>
    <g id="ytick_8">
     <g id="line2d_15">
      <g>
       <use xlink:href="#maee3a54bb1" x="33.64" y="72.43" style="stroke: #000000; stroke-width: 0.8"/>
      </g>
     </g>
     <g id="text_16">
      <text style="font: 10px 'sans-serif'; text-anchor: end" x="26.64" y="76.229219" transform="rotate(-0, 26.64, 76.229219)">0.15</text>
     </g>
    </g>
    <g id="ytick_9">
     <g id="line2d_16">
      <g>
       <use xlink:href="#maee3a54bb1" x="33.64" y="14.76" style="stroke: #000000; stroke-width: 0.8"/>
      </g>
     </g>
     <g id="text_17">
      <text style="font: 10px 'sans-serif'; text-anchor: end" x="26.64" y="18.559219" transform="rotate(-0, 26.64, 18.559219)">0.20</text>
     </g>
    </g>
    <g id="text_18">
     <text style="font: 10px 'sans-serif'; text-anchor: middle" x="-10.085" y="245.44" transform="rotate(-90, -10.085, 245.44)">Energy</text>
    </g>
   </g>
   <g id="line2d_17">
    <path d="M 79.404251 505 
L 81.857713 493.150142 
L 84.87132 479.46977 
L 87.884927 466.714103 
L 90.898534 454.928882 
L 93.912141 444.154063 
L 96.925748 434.422116 
L 99.939355 425.756524 
L 102.952962 418.17064 
L 105.966569 411.667032 
L 108.980176 406.237386 
L 111.993783 401.862946 
L 115.00739 398.515399 
L 118.020997 396.158024 
L 121.034604 394.746896 
L 124.048211 394.231929 
L 127.061818 394.557526 
L 130.075425 395.662658 
L 133.089032 397.480176 
L 136.102639 399.935204 
L 139.116246 402.942399 
L 142.129853 406.401886 
L 145.14346 410.193582 
L 148.157067 414.169627 
L 151.170674 418.144617 
L 154.184282 421.883484 
L 157.197889 425.087228 
L 160.211496 427.37753 
L 163.225103 428.28292 
L 166.23871 427.231766 
L 169.252317 423.56112 
L 172.265924 416.553991 
L 175.279531 405.518448 
L 178.293138 389.915984 
L 181.306745 369.533535 
L 184.320352 344.683348 
L 187.333959 316.4261 
L 190.347566 286.848944 
L 193.361173 259.423497 
L 196.37478 239.1761 
L 199.388387 231.566077 
L 202.401994 239.1761 
L 205.415601 259.423497 
L 208.429208 286.848944 
L 211.442815 316.4261 
L 214.456422 344.683348 
L 217.470029 369.533535 
L 220.483636 389.915984 
L 223.497243 405.518448 
L 226.51085 416.553991 
L 229.524457 423.56112 
L 232.538065 427.231766 
L 235.551672 428.28292 
L 238.565279 427.37753 
L 241.578886 425.087228 
L 244.592493 421.883484 
L 247.6061 418.144617 
L 250.619707 414.169627 
L 253.633314 410.193582 
L 256.646921 406.401886 
L 259.660528 402.942399 
L 262.674135 399.935204 
L 265.687742 397.480176 
L 268.701349 395.662658 
L 271.714956 394.557526 
L 274.728563 394.231929 
L 277.74217 394.746896 
L 280.755777 396.158024 
L 283.769384 398.515399 
L 286.782991 401.862946 
L 289.796598 406.237386 
L 292.810205 411.667032 
L 295.823812 418.17064 
L 298.837419 425.756524 
L 301.851026 434.422116 
L 304.864633 444.154063 
L 307.87824 454.928882 
L 310.891848 466.714103 
L 313.905455 479.46977 
L 316.919062 493.150142 
L 319.372523 505 
" clip-path="url(#p3bbc471423)" style="fill: none; stroke: #000000; stroke-width: 1.5; stroke-linecap: square"/>
   </g>
   <g id="line2d_18">
    <path d="M 124.048211 327.767339 
L 125.555015 331.041807 
L 127.061818 334.372538 
L 128.568622 337.758194 
L 130.075425 341.196987 
L 131.582229 344.686564 
L 133.089032 348.223961 
L 134.595836 351.80551 
L 136.102639 355.426678 
L 137.609443 359.081988 
L 139.116246 362.764886 
L 140.62305 366.4673 
L 142.129853 370.179979 
L 143.636657 373.891851 
L 145.14346 377.589767 
L 146.650264 381.258386 
L 148.157067 384.880062 
L 149.663871 388.433688 
L 151.170674 391.895502 
L 152.677478 395.237364 
L 154.184282 398.427553 
L 155.691085 401.429276 
L 157.197889 404.201012 
L 158.704692 406.695239 
L 160.211496 408.858902 
L 161.718299 410.632485 
L 163.225103 411.950245 
L 164.731906 412.740093 
L 166.23871 412.924061 
L 167.745513 412.419333 
L 169.252317 411.139405 
L 170.75912 408.996272 
L 172.265924 405.903199 
L 173.772727 401.777949 
L 175.279531 396.547395 
L 176.786334 390.152369 
L 178.293138 382.553078 
L 179.799941 373.734989 
L 181.306745 363.715172 
L 182.813548 352.548426 
L 184.320352 340.334624 
L 185.827155 327.226187 
L 187.333959 313.437394 
L 188.840762 299.255464 
L 190.347566 285.053338 
L 191.85437 271.302342 
L 193.361173 258.579233 
L 194.867977 247.556175 
L 196.37478 238.956412 
L 197.881584 233.459969 
L 199.388387 231.566074 
L 200.895191 233.459969 
L 202.401994 238.956412 
L 203.908798 247.556175 
L 205.415601 258.579233 
L 206.922405 271.302342 
L 208.429208 285.053338 
L 209.936012 299.255464 
L 211.442815 313.437394 
L 212.949619 327.226187 
L 214.456422 340.334624 
L 215.963226 352.548426 
L 217.470029 363.715172 
L 218.976833 373.734989 
L 220.483636 382.553078 
L 221.99044 390.152369 
L 223.497243 396.547395 
L 225.004047 401.777949 
L 226.51085 405.903199 
L 228.017654 408.996272 
L 229.524457 411.139405 
L 231.031261 412.419333 
L 232.538065 412.924061 
L 234.044868 412.740093 
L 235.551672 411.950245 
L 237.058475 410.632485 
L 238.565279 408.858902 
L 240.072082 406.695239 
L 241.578886 404.201012 
L 243.085689 401.429276 
L 244.592493 398.427553 
L 246.099296 395.237364 
L 247.6061 391.895502 
L 249.112903 388.433688 
L 250.619707 384.880062 
L 252.12651 381.258386 
L 253.633314 377.589767 
L 255.140117 373.891851 
L 256.646921 370.179979 
L 258.153724 366.4673 
L 259.660528 362.764886 
L 261.167331 359.081988 
L 262.674135 355.426678 
L 264.180938 351.80551 
L 265.687742 348.223961 
L 267.194545 344.686564 
L 268.701349 341.196987 
L 270.208152 337.758194 
L 271.714956 334.372538 
L 273.22176 331.041807 
L 274.728563 327.767339 
" clip-path="url(#p3bbc471423)" style="fill: none; stroke: #d62728; stroke-width: 1.5; stroke-linecap: square"/>
   </g>
   <g id="patch_5">
    <path d="M 33.64 476.12 
L 33.64 14.76 
" style="fill: none; stroke: #000000; stroke-width: 0.8; stroke-linejoin: miter; stroke-linecap: square"/>
   </g>
   <g id="patch_6">
    <path d="M 365.136774 476.12 
L 365.136774 14.76 
" style="fill: none; stroke: #000000; stroke-width: 0.8; stroke-linejoin: miter; stroke-linecap: square"/>
   </g>
   <g id="patch_7">
    <path d="M 33.64 476.12 
L 365.136774 476.12 
" style="fill: none; stroke: #000000; stroke-width: 0.8; stroke-linejoin: miter; stroke-linecap: square"/>
   </g>
   <g id="patch_8">
    <path d="M 33.64 14.76 
L 365.136774 14.76 
" style="fill: none; stroke: #000000; stroke-width: 0.8; stroke-linejoin: miter; stroke-linecap: square"/>
   </g>
   <g id="legend_1">
    <g id="patch_9">
     <path d="M 282.521149 52.11625 
L 358.136774 52.11625 
Q 360.136774 52.11625 360.136774 50.11625 
L 360.136774 21.76 
Q 360.136774 19.76 358.136774 19.76 
L 282.521149 19.76 
Q 280.521149 19.76 280.521149 21.76 
L 280.521149 50.11625 
Q 280.521149 52.11625 282.521149 52.11625 
z
" style="fill: #ffffff; opacity: 0.8; stroke: #cccccc; stroke-linejoin: miter"/>
    </g>
    <g id="line2d_19">
     <path d="M 284.521149 27.858438 
L 294.521149 27.858438 
L 304.521149 27.858438 
" style="fill: none; stroke: #000000; stroke-width: 1.5; stroke-linecap: square"/>
    </g>
    <g id="text_19">
     <text style="font: 10px 'sans-serif'; text-anchor: start" x="312.521149" y="31.358438" transform="rotate(-0, 312.521149, 31.358438)">Liu-Allen</text>
    </g>
    <g id="line2d_20">
     <path d="M 284.521149 42.536563 
L 294.521149 42.536563 
L 304.521149 42.536563 
" style="fill: none; stroke: #d62728; stroke-width: 1.5; stroke-linecap: square"/>
    </g>
    <g id="text_20">
     <text style="font: 10px 'sans-serif'; text-anchor: start" x="312.521149" y="46.036563" transform="rotate(-0, 312.521149, 46.036563)">effective</text>
    </g>
   </g>
  </g>
  <g id="axes_2">
   <g id="patch_10">
    <path d="M 381.711613 476.12 
L 713.208387 476.12 
L 713.208387 14.76 
L 381.711613 14.76 
z
" style="fill: #ffffff"/>
   </g>
   <g id="patch_11">
    <path d="M 381.711613 337.712 
L 381.711613 153.168 
L 713.208387 153.168 
L 713.208387 337.712 
z
" clip-path="url(#p5e5d48efc4)" style="fill: #808080; opacity: 0.3; stroke: #808080; stroke-linejoin: miter"/>
   </g>
   <g id="patch_12">
    <path d="M 472.119824 476.12 
L 472.119824 14.76 
L 622.800176 14.76 
L 622.800176 476.12 
z
" clip-path="url(#p5e5d48efc4)" style="fill: #17becf; opacity: 0.2; stroke: #17becf; stroke-linejoin: miter"/>
   </g>
   <g id="matplotlib.axis_3">
    <g id="xtick_8">
     <g id="line2d_21">
      <g>
       <use xlink:href="#mbbe432a598" x="384.397791" y="476.12" style="stroke: #000000; stroke-width: 0.8"/>
      </g>
     </g>
     <g id="text_21">
      <text style="font: 10px 'sans-serif'; text-anchor: middle" x="384.397791" y="490.718437" transform="rotate(-0, 384.397791, 490.718437)">−0.6</text>
     </g>
    </g>
    <g id="xtick_9">
     <g id="line2d_22">
      <g>
       <use xlink:href="#mbbe432a598" x="438.751861" y="476.12" style="stroke: #000000; stroke-width: 0.8"/>
      </g>
     </g>
     <g id="text_22">
      <text style="font: 10px 'sans-serif'; text-anchor: middle" x="438.751861" y="490.718437" transform="rotate(-0, 438.751861, 490.718437)">−0.4</text>
     </g>
    </g>
    <g id="xtick_10">
     <g id="line2d_23">
      <g>
       <use xlink:href="#mbbe432a598" x="493.10593" y="476.12" style="stroke: #000000; stroke-width: 0.8"/>
      </g>
     </g>
     <g id="text_23">
      <text style="font: 10px 'sans-serif'; text-anchor: middle" x="493.10593" y="490.718437" transform="rotate(-0, 493.10593, 490.718437)">−0.2</text>
     </g>
    </g>
    <g id="xtick_11">
     <g id="line2d_24">
      <g>
       <use xlink:href="#mbbe432a598" x="547.46" y="476.12" style="stroke: #000000; stroke-width: 0.8"/>
      </g>
     </g>
     <g id="text_24">
      <text style="font: 10px 'sans-serif'; text-anchor: middle" x="547.46" y="490.718437" transform="rotate(-0, 547.46, 490.718437)">0.0</text>
     </g>
    </g>
    <g id="xtick_12">
     <g id="line2d_25">
      <g>
       <use xlink:href="#mbbe432a598" x="601.81407" y="476.12" style="stroke: #000000; stroke-width: 0.8"/>
      </g>
     </g>
     <g id="text_25">
      <text style="font: 10px 'sans-serif'; text-anchor: middle" x="601.81407" y="490.718437" transform="rotate(-0, 601.81407, 490.718437)">0.2</text>
     </g>
    </g>
    <g id="xtick_13">
     <g id="line2d_26">
      <g>
       <use xlink:href="#mbbe432a598" x="656.168139" y="476.12" style="stroke: #000000; stroke-width: 0.8"/>
      </g>
     </g>
     <g id="text_26">
      <text style="font: 10px 'sans-serif'; text-anchor: middle" x="656.168139" y="490.718437" transform="rotate(-0, 656.168139, 490.718437)">0.4</text>
     </g>
    </g>
    <g id="xtick_14">
     <g id="line2d_27">
      <g>
       <use xlink:href="#mbbe432a598" x="710.522209" y="476.12" style="stroke: #000000; stroke-width: 0.8"/>
      </g>
     </g>
     <g id="text_27">
      <text style="font: 10px 'sans-serif'; text-anchor: middle" x="710.522209" y="490.718437" transform="rotate(-0, 710.522209, 490.718437)">0.6</text>
     </g>
    </g>
    <g id="text_28">
     <text style="font: 10px 'sans-serif'; text-anchor: middle" x="547.46" y="504.396563" transform="rotate(-0, 547.46, 504.396563)">ky</text>
    </g>
   </g>
   <g id="matplotlib.axis_4">
    <g id="ytick_10">
     <g id="line2d_28">
      <g>
       <use xlink:href="#maee3a54bb1" x="381.711613" y="476.12" style="stroke: #000000; stroke-width: 0.8"/>
      </g>
     </g>
    </g>
    <g id="ytick_11">
     <g id="line2d_29">
      <g>
       <use xlink:href="#maee3a54bb1" x="381.711613" y="418.45" style="stroke: #000000; stroke-width: 0.8"/>
      </g>
     </g>
    </g>
    <g id="ytick_12">
     <g id="line2d_30">
      <g>
       <use xlink:href="#maee3a54bb1" x="381.711613" y="360.78" style="stroke: #000000; stroke-width: 0.8"/>
      </g>
     </g>
    </g>
    <g id="ytick_13">
     <g id="line2d_31">
      <g>
       <use xlink:href="#maee3a54bb1" x="381.711613" y="303.11" style="stroke: #000000; stroke-width: 0.8"/>
      </g>
     </g>
    </g>
    <g id="ytick_14">
     <g id="line2d_32">
      <g>
       <use xlink:href="#maee3a54bb1" x="381.711613" y="245.44" style="stroke: #000000; stroke-width: 0.8"/>
      </g>
     </g>
    </g>
    <g id="ytick_15">
     <g id="line2d_33">
      <g>
       <use xlink:href="#maee3a54bb1" x="381.711613" y="187.77" style="stroke: #000000; stroke-width: 0.8"/>
      </g>
     </g>
    </g>
    <g id="ytick_16">
     <g id="line2d_34">
      <g>
       <use xlink:href="#maee3a54bb1" x="381.711613" y="130.1" style="stroke: #000000; stroke-width: 0.8"/>
      </g>
     </g>
    </g>
    <g id="ytick_17">
     <g id="line2d_35">
      <g>
       <use xlink:href="#maee3a54bb1" x="381.711613" y="72.43" style="stroke: #000000; stroke-width: 0.8"/>
      </g>
     </g>
    </g>
    <g id="ytick_18">
     <g id="line2d_36">
      <g>
       <use xlink:href="#maee3a54bb1" x="381.711613" y="14.76" style="stroke: #000000; stroke-width: 0.8"/>
      </g>
     </g>
    </g>
   </g>
   <g id="line2d_37">
    <path d="M 515.048931 505 
L 517.32393 482.080373 
L 520.337537 454.291577 
L 523.351144 428.034854 
L 526.364751 402.098935 
L 529.378358 375.34175 
L 532.391965 347.017426 
L 535.405572 317.159392 
L 538.419179 287.004794 
L 541.432786 259.439589 
L 544.446393 239.176379 
L 547.46 231.566077 
L 550.473607 239.176393 
L 553.487214 259.439717 
L 556.500821 287.005288 
L 559.514428 317.160773 
L 562.528035 347.020597 
L 565.541642 375.348075 
L 568.555249 402.110206 
L 571.568856 428.053121 
L 574.582463 454.318898 
L 577.59607 482.118531 
L 579.866373 505 
" clip-path="url(#p5e5d48efc4)" style="fill: none; stroke: #000000; stroke-width: 1.5; stroke-linecap: square"/>
   </g>
   <g id="line2d_38">
    <path d="M 513.168459 505 
L 514.310323 493.861599 
L 515.817126 479.915724 
L 517.32393 466.637899 
L 518.830733 453.923509 
L 520.337537 441.649488 
L 521.84434 429.677772 
L 523.351144 417.860036 
L 524.857947 406.044376 
L 526.364751 394.083502 
L 527.871554 381.843737 
L 529.378358 369.215968 
L 530.885161 356.126389 
L 532.391965 342.548575 
L 533.898768 328.515873 
L 535.405572 314.134589 
L 536.912375 299.598174 
L 538.419179 285.201954 
L 539.925982 271.356587 
L 541.432786 258.594631 
L 542.939589 247.55911 
L 544.446393 238.956682 
L 545.953196 233.45998 
L 547.46 231.566074 
L 548.966804 233.45998 
L 550.473607 238.956691 
L 551.980411 247.559144 
L 553.487214 258.594723 
L 554.994018 271.356783 
L 556.500821 285.202346 
L 558.007625 299.598854 
L 559.514428 314.135731 
L 561.021232 328.517695 
L 562.528035 342.551332 
L 564.034839 356.130402 
L 565.541642 369.221619 
L 567.048446 381.851465 
L 568.555249 394.093652 
L 570.062053 406.057524 
L 571.568856 417.876645 
L 573.07566 429.698303 
L 574.582463 441.674286 
L 576.089267 453.953036 
L 577.59607 466.672501 
L 579.102874 479.955747 
L 580.609677 493.907043 
L 581.746436 505 
" clip-path="url(#p5e5d48efc4)" style="fill: none; stroke: #d62728; stroke-width: 1.5; stroke-linecap: square"/>
   </g>
   <g id="patch_13">
    <path d="M 381.711613 476.12 
L 381.711613 14.76 
" style="fill: none; stroke: #000000; stroke-width: 0.8; stroke-linejoin: miter; stroke-linecap: square"/>
   </g>
   <g id="patch_14">
    <path d="M 713.208387 476.12 
L 713.208387 14.76 
" style="fill: none; stroke: #000000; stroke-width: 0.8; stroke-linejoin: miter; stroke-linecap: square"/>
   </g>
   <g id="patch_15">
    <path d="M 381.711613 476.12 
L 713.208387 476.12 
" style="fill: none; stroke: #000000; stroke-width: 0.8; stroke-linejoin: miter; stroke-linecap: square"/>
   </g>
   <g id="patch_16">
    <path d="M 381.711613 14.76 
L 713.208387 14.76 
" style="fill: none; stroke: #000000; stroke-width: 0.8; stroke-linejoin: miter; stroke-linecap: square"/>
   </g>
   <g id="text_29">
    <text style="font: 12px 'sans-serif'; text-anchor: middle" x="547.46" y="8.76" transform="rotate(-0, 547.46, 8.76)">T point</text>
   </g>
   <g id="legend_2">
    <g id="patch_17">
     <path d="M 630.592762 52.11625 
L 706.208387 52.11625 
Q 708.208387 52.11625 708.208387 50.11625 
L 708.208387 21.76 
Q 708.208387 19.76 706.208387 19.76 
L 630.592762 19.76 
Q 628.592762 19.76 628.592762 21.76 
L 628.592762 50.11625 
Q 628.592762 52.11625 630.592762 52.11625 
z
" style="fill: #ffffff; opacity: 0.8; stroke: #cccccc; stroke-linejoin: miter"/>
    </g>
    <g id="line2d_39">
     <path d="M 632.592762 27.858438 
L 642.592762 27.858438 
L 652.592762 27.858438 
" style="fill: none; stroke: #000000; stroke-width: 1.5; stroke-linecap: square"/>
    </g>
    <g id="text_30">
     <text style="font: 10px 'sans-serif'; text-anchor: start" x="660.592762" y="31.358438" transform="rotate(-0, 660.592762, 31.358438)">Liu-Allen</text>
    </g>
    <g id="line2d_40">
     <path d="M 632.592762 42.536563 
L 642.592762 42.536563 
L 652.592762 42.536563 
" style="fill: none; stroke: #d62728; stroke-width: 1.5; stroke-linecap: square"/>
    </g>
    <g id="text_31">
     <text style="font: 10px 'sans-serif'; text-anchor: start" x="660.592762" y="46.036563" transform="rotate(-0, 660.592762, 46.036563)">effective</text>
    </g>
   </g>
  </g>
  <g id="axes_3">
   <g id="patch_18">
    <path d="M 729.783226 476.12 
L 1061.28 476.12 
L 1061.28 14.76 
L 729.783226 14.76 
z
" style="fill: #ffffff"/>
   </g>
   <g id="patch_19">
    <path d="M 729.783226 337.712 
L 729.783226 153.168 
L 1061.28 153.168 
L 1061.28 337.712 
z
" clip-path="url(#pf13b7f07aa)" style="fill: #808080; opacity: 0.3; stroke: #808080; stroke-linejoin: miter"/>
   </g>
   <g id="patch_20">
    <path d="M 820.191437 476.12 
L 820.191437 14.76 
L 970.871789 14.76 
L 970.871789 476.12 
z
" clip-path="url(#pf13b7f07aa)" style="fill: #17becf; opacity: 0.2; stroke: #17becf; stroke-linejoin: miter"/>
   </g>
   <g id="matplotlib.axis_5">
    <g id="xtick_15">
     <g id="line2d_41">
      <g>
       <use xlink:href="#mbbe432a598" x="732.469404" y="476.12" style="stroke: #000000; stroke-width: 0.8"/>
      </g>
     </g>
     <g id="text_32">
      <text style="font: 10px 'sans-serif'; text-anchor: middle" x="732.469404" y="490.718437" transform="rotate(-0, 732.469404, 490.718437)">−0.6</text>
     </g>
    </g>
    <g id="xtick_16">
     <g id="line2d_42">
      <g>
       <use xlink:href="#mbbe432a598" x="786.823474" y="476.12" style="stroke: #000000; stroke-width: 0.8"/>
      </g>
     </g>
     <g id="text_33">
      <text style="font: 10px 'sans-serif'; text-anchor: middle" x="786.823474" y="490.718437" transform="rotate(-0, 786.823474, 490.718437)">−0.4</text>
     </g>
    </g>
    <g id="xtick_17">
     <g id="line2d_43">
      <g>
       <use xlink:href="#mbbe432a598" x="841.177543" y="476.12" style="stroke: #000000; stroke-width: 0.8"/>
      </g>
     </g>
     <g id="text_34">
      <text style="font: 10px 'sans-serif'; text-anchor: middle" x="841.177543" y="490.718437" transform="rotate(-0, 841.177543, 490.718437)">−0.2</text>
     </g>
    </g>
    <g id="xtick_18">
     <g id="line2d_44">
      <g>
       <use xlink:href="#mbbe432a598" x="895.531613" y="476.12" style="stroke: #000000; stroke-width: 0.8"/>
      </g>
     </g>
     <g id="text_35">
      <text style="font: 10px 'sans-serif'; text-anchor: middle" x="895.531613" y="490.718437" transform="rotate(-0, 895.531613, 490.718437)">0.0</text>
     </g>
    </g>
    <g id="xtick_19">
     <g id="line2d_45">
      <g>
       <use xlink:href="#mbbe432a598" x="949.885683" y="476.12" style="stroke: #000000; stroke-width: 0.8"/>
      </g>
     </g>
     <g id="text_36">
      <text style="font: 10px 'sans-serif'; text-anchor: middle" x="949.885683" y="490.718437" transform="rotate(-0, 949.885683, 490.718437)">0.2</text>
     </g>
    </g>
    <g id="xtick_20">
     <g id="line2d_46">
      <g>
       <use xlink:href="#mbbe432a598" x="1004.239752" y="476.12" style="stroke: #000000; stroke-width: 0.8"/>
      </g>
     </g>
     <g id="text_37">
      <text style="font: 10px 'sans-serif'; text-anchor: middle" x="1004.239752" y="490.718437" transform="rotate(-0, 1004.239752, 490.718437)">0.4</text>
     </g>
    </g>
    <g id="xtick_21">
     <g id="line2d_47">
      <g>
       <use xlink:href="#mbbe432a598" x="1058.593822" y="476.12" style="stroke: #000000; stroke-width: 0.8"/>
      </g>
     </g>
     <g id="text_38">
      <text style="font: 10px 'sans-serif'; text-anchor: middle" x="1058.593822" y="490.718437" transform="rotate(-0, 1058.593822, 490.718437)">0.6</text>
     </g>
    </g>
    <g id="text_39">
     <text style="font: 10px 'sans-serif'; text-anchor: middle" x="895.531613" y="504.396563" transform="rotate(-0, 895.531613, 504.396563)">kz</text>
    </g>
   </g>
   <g id="matplotlib.axis_6">
    <g id="ytick_19">
     <g id="line2d_48">
      <g>
       <use xlink:href="#maee3a54bb1" x="729.783226" y="476.12" style="stroke: #000000; stroke-width: 0.8"/>
      </g>
     </g>
    </g>
    <g id="ytick_20">
     <g id="line2d_49">
      <g>
       <use xlink:href="#maee3a54bb1" x="729.783226" y="418.45" style="stroke: #000000; stroke-width: 0.8"/>
      </g>
     </g>
    </g>
    <g id="ytick_21">
     <g id="line2d_50">
      <g>
       <use xlink:href="#maee3a54bb1" x="729.783226" y="360.78" style="stroke: #000000; stroke-width: 0.8"/>
      </g>
     </g>
    </g>
    <g id="ytick_22">
     <g id="line2d_51">
      <g>
       <use xlink:href="#maee3a54bb1" x="729.783226" y="303.11" style="stroke: #000000; stroke-width: 0.8"/>
      </g>
     </g>
    </g>
    <g id="ytick_23">
     <g id="line2d_52">
      <g>
       <use xlink:href="#maee3a54bb1" x="729.783226" y="245.44" style="stroke: #000000; stroke-width: 0.8"/>
      </g>
     </g>
    </g>
    <g id="ytick_24">
     <g id="line2d_53">
      <g>
       <use xlink:href="#maee3a54bb1" x="729.783226" y="187.77" style="stroke: #000000; stroke-width: 0.8"/>
      </g>
     </g>
    </g>
    <g id="ytick_25">
     <g id="line2d_54">
      <g>
       <use xlink:href="#maee3a54bb1" x="729.783226" y="130.1" style="stroke: #000000; stroke-width: 0.8"/>
      </g>
     </g>
    </g>
    <g id="ytick_26">
     <g id="line2d_55">
      <g>
       <use xlink:href="#maee3a54bb1" x="729.783226" y="72.43" style="stroke: #000000; stroke-width: 0.8"/>
      </g>
     </g>
    </g>
    <g id="ytick_27">
     <g id="line2d_56">
      <g>
       <use xlink:href="#maee3a54bb1" x="729.783226" y="14.76" style="stroke: #000000; stroke-width: 0.8"/>
      </g>
     </g>
    </g>
   </g>
   <g id="line2d_57">
    <path d="M 833.524676 505 
L 835.259472 493.139663 
L 838.273079 472.765042 
L 841.286686 452.6776 
L 844.300293 432.940336 
L 847.3139 413.620919 
L 850.327507 394.7919 
L 853.341114 376.530838 
L 856.354721 358.920319 
L 859.368328 342.047813 
L 862.381935 326.005325 
L 865.395543 310.88878 
L 868.40915 296.797091 
L 871.422757 283.830857 
L 874.436364 272.09065 
L 877.449971 261.674901 
L 880.463578 252.677404 
L 883.477185 245.18453 
L 886.490792 239.2723 
L 889.504399 235.003497 
L 892.518006 232.425075 
L 895.531613 231.566077 
L 898.54522 232.436296 
L 901.558827 235.025811 
L 904.572434 239.305458 
L 907.586041 245.228173 
L 910.599648 252.731078 
L 913.613255 261.738075 
L 916.626862 272.162736 
L 919.640469 283.911227 
L 922.654076 296.885097 
L 925.667683 310.983766 
L 928.68129 326.106641 
L 931.694897 342.154826 
L 934.708504 359.032418 
L 937.722111 376.647439 
L 940.735718 394.912451 
L 943.749326 413.744901 
L 946.762933 433.06726 
L 949.77654 452.807012 
L 952.790147 472.896517 
L 955.803754 493.272808 
L 957.518967 505 
" clip-path="url(#pf13b7f07aa)" style="fill: none; stroke: #000000; stroke-width: 1.5; stroke-linecap: square"/>
   </g>
   <g id="line2d_58">
    <path d="M 835.484074 505 
L 836.766276 495.31892 
L 838.273079 484.07327 
L 839.779883 472.964528 
L 841.286686 461.998578 
L 842.79349 451.181762 
L 844.300293 440.520309 
L 845.807097 430.021024 
L 847.3139 419.690828 
L 848.820704 409.537101 
L 850.327507 399.567343 
L 851.834311 389.789509 
L 853.341114 380.211676 
L 854.847918 370.842262 
L 856.354721 361.690033 
L 857.861525 352.763916 
L 859.368328 344.073209 
L 860.875132 335.627403 
L 862.381935 327.436221 
L 863.888739 319.509583 
L 865.395543 311.857616 
L 866.902346 304.490574 
L 868.40915 297.418801 
L 869.915953 290.652726 
L 871.422757 284.202775 
L 872.92956 278.079351 
L 874.436364 272.292755 
L 875.943167 266.85309 
L 877.449971 261.770264 
L 878.956774 257.053861 
L 880.463578 252.713084 
L 881.970381 248.756688 
L 883.477185 245.192878 
L 884.983988 242.02925 
L 886.490792 239.272714 
L 887.997595 236.929419 
L 889.504399 235.004691 
L 891.011202 233.502967 
L 892.518006 232.427768 
L 894.024809 231.781633 
L 895.531613 231.566074 
L 897.038416 231.781633 
L 898.54522 232.427768 
L 900.052023 233.502967 
L 901.558827 235.004691 
L 903.06563 236.929419 
L 904.572434 239.272714 
L 906.079238 242.02925 
L 907.586041 245.192878 
L 909.092845 248.756688 
L 910.599648 252.713084 
L 912.106452 257.053861 
L 913.613255 261.770264 
L 915.120059 266.85309 
L 916.626862 272.292755 
L 918.133666 278.079351 
L 919.640469 284.202775 
L 921.147273 290.652726 
L 922.654076 297.418801 
L 924.16088 304.490574 
L 925.667683 311.857616 
L 927.174487 319.509583 
L 928.68129 327.436221 
L 930.188094 335.627403 
L 931.694897 344.073209 
L 933.201701 352.763916 
L 934.708504 361.690033 
L 936.215308 370.842262 
L 937.722111 380.211676 
L 939.228915 389.789509 
L 940.735718 399.567343 
L 942.242522 409.537101 
L 943.749326 419.690828 
L 945.256129 430.021024 
L 946.762933 440.520309 
L 948.269736 451.181762 
L 949.77654 461.998578 
L 951.283343 472.964528 
L 952.790147 484.07327 
L 954.29695 495.31892 
L 955.579152 505 
" clip-path="url(#pf13b7f07aa)" style="fill: none; stroke: #d62728; stroke-width: 1.5; stroke-linecap: square"/>
   </g>
   <g id="patch_21">
    <path d="M 729.783226 476.12 
L 729.783226 14.76 
" style="fill: none; stroke: #000000; stroke-width: 0.8; stroke-linejoin: miter; stroke-linecap: square"/>
   </g>
   <g id="patch_22">
    <path d="M 1061.28 476.12 
L 1061.28 14.76 
" style="fill: none; stroke: #000000; stroke-width: 0.8; stroke-linejoin: miter; stroke-linecap: square"/>
   </g>
   <g id="patch_23">
    <path d="M 729.783226 476.12 
L 1061.28 476.12 
" style="fill: none; stroke: #000000; stroke-width: 0.8; stroke-linejoin: miter; stroke-linecap: square"/>
   </g>
   <g id="patch_24">
    <path d="M 729.783226 14.76 
L 1061.28 14.76 
" style="fill: none; stroke: #000000; stroke-width: 0.8; stroke-linejoin: miter; stroke-linecap: square"/>
   </g>
   <g id="legend_3">
    <g id="patch_25">
     <path d="M 978.664375 52.11625 
L 1054.28 52.11625 
Q 1056.28 52.11625 1056.28 50.11625 
L 1056.28 21.76 
Q 1056.28 19.76 1054.28 19.76 
L 978.664375 19.76 
Q 976.664375 19.76 976.664375 21.76 
L 976.664375 50.11625 
Q 976.664375 52.11625 978.664375 52.11625 
z
" style="fill: #ffffff; opacity: 0.8; stroke: #cccccc; stroke-linejoin: miter"/>
    </g>
    <g id="line2d_59">
     <path d="M 980.664375 27.858438 
L 990.664375 27.858438 
L 1000.664375 27.858438 
" style="fill: none; stroke: #000000; stroke-width: 1.5; stroke-linecap: square"/>
    </g>
    <g id="text_40">
     <text style="font: 10px 'sans-serif'; text-anchor: start" x="1008.664375" y="31.358438" transform="rotate(-0, 1008.664375, 31.358438)">Liu-Allen</text>
    </g>
    <g id="line2d_60">
     <path d="M 980.664375 42.536563 
L 990.664375 42.536563 
L 1000.664375 42.536563 
" style="fill: none; stroke: #d62728; stroke-width: 1.5; stroke-linecap: square"/>
    </g>
    <g id="text_41">
     <text style="font: 10px 'sans-serif'; text-anchor: start" x="1008.664375" y="46.036563" transform="rotate(-0, 1008.664375, 46.036563)">effective</text>
    </g>
   </g>
  </g>
 </g>
 <defs>
  <clipPath id="p3bbc471423">
   <rect x="33.64" y="14.76" width="331.496774" height="461.36"/>
  </clipPath>
  <clipPath id="p5e5d48efc4">
   <rect x="381.711613" y="14.76" width="331.496774" height="461.36"/>
  </clipPath>
  <clipPath id="pf13b7f07aa">
   <rect x="729.783226" y="14.76" width="331.496774" height="461.36"/>
  </clipPath>
 </defs>
</svg>
