<?xml version="1.0" encoding="utf-8" standalone="no"?>
<!DOCTYPE svg PUBLIC "-//W3C//DTD SVG 1.1//EN"
  "http://www.w3.org/Graphics/SVG/1.1/DTD/svg11.dtd">
<svg xmlns:xlink="http://www.w3.org/1999/xlink" width="504pt" height="504pt" viewBox="0 0 504 504" xmlns="http://www.w3.org/2000/svg" version="1.1">
 <metadata>
  <rdf:RDF xmlns:dc="http://purl.org/dc/elements/1.1/" xmlns:cc="http://creativecommons.org/ns#" xmlns:rdf="http://www.w3.org/1999/02/22-rdf-syntax-ns#">
   <cc:Work>
    <dc:type rdf:resource="http://purl.org/dc/dcmitype/StillImage"/>
    <dc:date>2022-04-24T20:31:56.391093</dc:date>
    <dc:format>image/svg+xml</dc:format>
    <dc:creator>
     <cc:Agent>
      <dc:title>Matplotlib v3.5.1, https://matplotlib.org/</dc:title>
     </cc:Agent>
    </dc:creator>
   </cc:Work>
  </rdf:RDF>
 </metadata>
 <defs>
  <style type="text/css">*{stroke-linejoin: round; stroke-linecap: butt}</style>
 </defs>
 <g id="figure_1">
  <g id="patch_1">
   <path d="M 0 504 
L 504 504 
L 504 0 
L 0 0 
z
" style="fill: #ffffff"/>
  </g>
  <g id="axes_1">
   <g id="patch_2">
    <path d="M 63 448.56 
L 453.6 448.56 
L 453.6 60.48 
L 63 60.48 
z
" style="fill: #ffffff"/>
   </g>
   <g id="PathCollection_1">
    <defs>
     <path id="m9b4dace0df" d="M 0 0.707107 
C 0.187527 0.707107 0.367398 0.632602 0.5 0.5 
C 0.632602 0.367398 0.707107 0.187527 0.707107 0 
C 0.707107 -0.187527 0.632602 -0.367398 0.5 -0.5 
C 0.367398 -0.632602 0.187527 -0.707107 0 -0.707107 
C -0.187527 -0.707107 -0.367398 -0.632602 -0.5 -0.5 
C -0.632602 -0.367398 -0.707107 -0.187527 -0.707107 0 
C -0.707107 0.187527 -0.632602 0.367398 -0.5 0.5 
C -0.367398 0.632602 -0.187527 0.707107 0 0.707107 
z
" style="stroke: #1f77b4"/>
    </defs>
    <g clip-path="url(#p416459a671)">
     <use xlink:href="#m9b4dace0df" x="80.754545" y="80.756793" style="fill: #1f77b4; stroke: #1f77b4"/>
     <use xlink:href="#m9b4dace0df" x="83.738496" y="80.797758" style="fill: #1f77b4; stroke: #1f77b4"/>
     <use xlink:href="#m9b4dace0df" x="86.722446" y="80.839348" style="fill: #1f77b4; stroke: #1f77b4"/>
     <use xlink:href="#m9b4dace0df" x="89.706396" y="80.881564" style="fill: #1f77b4; stroke: #1f77b4"/>
     <use xlink:href="#m9b4dace0df" x="92.690347" y="80.924405" style="fill: #1f77b4; stroke: #1f77b4"/>
     <use xlink:href="#m9b4dace0df" x="95.674297" y="80.969122" style="fill: #1f77b4; stroke: #1f77b4"/>
     <use xlink:href="#m9b4dace0df" x="98.658247" y="81.014465" style="fill: #1f77b4; stroke: #1f77b4"/>
     <use xlink:href="#m9b4dace0df" x="101.642261" y="81.060746" style="fill: #1f77b4; stroke: #1f77b4"/>
     <use xlink:href="#m9b4dace0df" x="104.626211" y="81.110779" style="fill: #1f77b4; stroke: #1f77b4"/>
     <use xlink:href="#m9b4dace0df" x="107.610161" y="81.157685" style="fill: #1f77b4; stroke: #1f77b4"/>
     <use xlink:href="#m9b4dace0df" x="110.594112" y="81.211158" style="fill: #1f77b4; stroke: #1f77b4"/>
     <use xlink:href="#m9b4dace0df" x="113.578062" y="81.264944" style="fill: #1f77b4; stroke: #1f77b4"/>
     <use xlink:href="#m9b4dace0df" x="116.562012" y="81.319981" style="fill: #1f77b4; stroke: #1f77b4"/>
     <use xlink:href="#m9b4dace0df" x="119.545963" y="81.37533" style="fill: #1f77b4; stroke: #1f77b4"/>
     <use xlink:href="#m9b4dace0df" x="122.529913" y="81.432556" style="fill: #1f77b4; stroke: #1f77b4"/>
     <use xlink:href="#m9b4dace0df" x="125.513863" y="81.488843" style="fill: #1f77b4; stroke: #1f77b4"/>
     <use xlink:href="#m9b4dace0df" x="128.497877" y="81.552636" style="fill: #1f77b4; stroke: #1f77b4"/>
     <use xlink:href="#m9b4dace0df" x="131.481827" y="81.613301" style="fill: #1f77b4; stroke: #1f77b4"/>
     <use xlink:href="#m9b4dace0df" x="134.465778" y="81.678657" style="fill: #1f77b4; stroke: #1f77b4"/>
     <use xlink:href="#m9b4dace0df" x="137.449728" y="81.743075" style="fill: #1f77b4; stroke: #1f77b4"/>
     <use xlink:href="#m9b4dace0df" x="140.433678" y="81.812184" style="fill: #1f77b4; stroke: #1f77b4"/>
     <use xlink:href="#m9b4dace0df" x="143.417628" y="81.88223" style="fill: #1f77b4; stroke: #1f77b4"/>
     <use xlink:href="#m9b4dace0df" x="146.401579" y="81.952277" style="fill: #1f77b4; stroke: #1f77b4"/>
     <use xlink:href="#m9b4dace0df" x="149.385529" y="82.027014" style="fill: #1f77b4; stroke: #1f77b4"/>
     <use xlink:href="#m9b4dace0df" x="152.369479" y="82.10738" style="fill: #1f77b4; stroke: #1f77b4"/>
     <use xlink:href="#m9b4dace0df" x="155.353493" y="82.186496" style="fill: #1f77b4; stroke: #1f77b4"/>
     <use xlink:href="#m9b4dace0df" x="158.337443" y="82.268738" style="fill: #1f77b4; stroke: #1f77b4"/>
     <use xlink:href="#m9b4dace0df" x="161.321394" y="82.352856" style="fill: #1f77b4; stroke: #1f77b4"/>
     <use xlink:href="#m9b4dace0df" x="164.305344" y="82.443229" style="fill: #1f77b4; stroke: #1f77b4"/>
     <use xlink:href="#m9b4dace0df" x="167.289294" y="82.532038" style="fill: #1f77b4; stroke: #1f77b4"/>
     <use xlink:href="#m9b4dace0df" x="170.273244" y="82.627414" style="fill: #1f77b4; stroke: #1f77b4"/>
     <use xlink:href="#m9b4dace0df" x="173.257195" y="82.721539" style="fill: #1f77b4; stroke: #1f77b4"/>
     <use xlink:href="#m9b4dace0df" x="176.241145" y="82.818166" style="fill: #1f77b4; stroke: #1f77b4"/>
     <use xlink:href="#m9b4dace0df" x="179.225095" y="82.923236" style="fill: #1f77b4; stroke: #1f77b4"/>
     <use xlink:href="#m9b4dace0df" x="182.209109" y="83.017049" style="fill: #1f77b4; stroke: #1f77b4"/>
     <use xlink:href="#m9b4dace0df" x="185.193059" y="83.017987" style="fill: #1f77b4; stroke: #1f77b4"/>
     <use xlink:href="#m9b4dace0df" x="188.17701" y="82.896031" style="fill: #1f77b4; stroke: #1f77b4"/>
     <use xlink:href="#m9b4dace0df" x="191.16096" y="82.953882" style="fill: #1f77b4; stroke: #1f77b4"/>
     <use xlink:href="#m9b4dace0df" x="194.14491" y="83.063955" style="fill: #1f77b4; stroke: #1f77b4"/>
     <use xlink:href="#m9b4dace0df" x="197.128861" y="83.168712" style="fill: #1f77b4; stroke: #1f77b4"/>
     <use xlink:href="#m9b4dace0df" x="200.112811" y="83.290356" style="fill: #1f77b4; stroke: #1f77b4"/>
     <use xlink:href="#m9b4dace0df" x="203.096761" y="83.416377" style="fill: #1f77b4; stroke: #1f77b4"/>
     <use xlink:href="#m9b4dace0df" x="206.080711" y="83.548027" style="fill: #1f77b4; stroke: #1f77b4"/>
     <use xlink:href="#m9b4dace0df" x="209.064725" y="83.685619" style="fill: #1f77b4; stroke: #1f77b4"/>
     <use xlink:href="#m9b4dace0df" x="212.048675" y="83.827588" style="fill: #1f77b4; stroke: #1f77b4"/>
     <use xlink:href="#m9b4dace0df" x="215.032626" y="83.975499" style="fill: #1f77b4; stroke: #1f77b4"/>
     <use xlink:href="#m9b4dace0df" x="218.016576" y="84.131854" style="fill: #1f77b4; stroke: #1f77b4"/>
     <use xlink:href="#m9b4dace0df" x="221.000526" y="84.291648" style="fill: #1f77b4; stroke: #1f77b4"/>
     <use xlink:href="#m9b4dace0df" x="223.984477" y="84.460823" style="fill: #1f77b4; stroke: #1f77b4"/>
     <use xlink:href="#m9b4dace0df" x="226.968427" y="84.637503" style="fill: #1f77b4; stroke: #1f77b4"/>
     <use xlink:href="#m9b4dace0df" x="229.952377" y="84.820437" style="fill: #1f77b4; stroke: #1f77b4"/>
     <use xlink:href="#m9b4dace0df" x="232.936327" y="85.01244" style="fill: #1f77b4; stroke: #1f77b4"/>
     <use xlink:href="#m9b4dace0df" x="235.920341" y="85.213511" style="fill: #1f77b4; stroke: #1f77b4"/>
     <use xlink:href="#m9b4dace0df" x="238.904291" y="85.423964" style="fill: #1f77b4; stroke: #1f77b4"/>
     <use xlink:href="#m9b4dace0df" x="241.888242" y="85.644736" style="fill: #1f77b4; stroke: #1f77b4"/>
     <use xlink:href="#m9b4dace0df" x="244.872192" y="85.87614" style="fill: #1f77b4; stroke: #1f77b4"/>
     <use xlink:href="#m9b4dace0df" x="247.856142" y="86.117551" style="fill: #1f77b4; stroke: #1f77b4"/>
     <use xlink:href="#m9b4dace0df" x="250.840093" y="86.371157" style="fill: #1f77b4; stroke: #1f77b4"/>
     <use xlink:href="#m9b4dace0df" x="253.824043" y="86.637585" style="fill: #1f77b4; stroke: #1f77b4"/>
     <use xlink:href="#m9b4dace0df" x="256.807993" y="86.917772" style="fill: #1f77b4; stroke: #1f77b4"/>
     <use xlink:href="#m9b4dace0df" x="259.791943" y="87.214219" style="fill: #1f77b4; stroke: #1f77b4"/>
     <use xlink:href="#m9b4dace0df" x="262.775957" y="87.524738" style="fill: #1f77b4; stroke: #1f77b4"/>
     <use xlink:href="#m9b4dace0df" x="265.759907" y="87.852769" style="fill: #1f77b4; stroke: #1f77b4"/>
     <use xlink:href="#m9b4dace0df" x="268.743858" y="88.197374" style="fill: #1f77b4; stroke: #1f77b4"/>
     <use xlink:href="#m9b4dace0df" x="271.727808" y="88.563242" style="fill: #1f77b4; stroke: #1f77b4"/>
     <use xlink:href="#m9b4dace0df" x="274.711758" y="88.949124" style="fill: #1f77b4; stroke: #1f77b4"/>
     <use xlink:href="#m9b4dace0df" x="277.695709" y="89.358772" style="fill: #1f77b4; stroke: #1f77b4"/>
     <use xlink:href="#m9b4dace0df" x="280.679659" y="89.789997" style="fill: #1f77b4; stroke: #1f77b4"/>
     <use xlink:href="#m9b4dace0df" x="283.663609" y="90.248115" style="fill: #1f77b4; stroke: #1f77b4"/>
     <use xlink:href="#m9b4dace0df" x="286.64756" y="90.733438" style="fill: #1f77b4; stroke: #1f77b4"/>
     <use xlink:href="#m9b4dace0df" x="289.631573" y="91.254097" style="fill: #1f77b4; stroke: #1f77b4"/>
     <use xlink:href="#m9b4dace0df" x="292.615523" y="91.804464" style="fill: #1f77b4; stroke: #1f77b4"/>
     <use xlink:href="#m9b4dace0df" x="295.599474" y="92.395169" style="fill: #1f77b4; stroke: #1f77b4"/>
     <use xlink:href="#m9b4dace0df" x="298.583424" y="93.020273" style="fill: #1f77b4; stroke: #1f77b4"/>
     <use xlink:href="#m9b4dace0df" x="301.567374" y="93.680088" style="fill: #1f77b4; stroke: #1f77b4"/>
    </g>
   </g>
   <g id="PathCollection_2">
    <defs>
     <path id="mb93e84e31e" d="M 0 0.707107 
C 0.187527 0.707107 0.367398 0.632602 0.5 0.5 
C 0.632602 0.367398 0.707107 0.187527 0.707107 0 
C 0.707107 -0.187527 0.632602 -0.367398 0.5 -0.5 
C 0.367398 -0.632602 0.187527 -0.707107 0 -0.707107 
C -0.187527 -0.707107 -0.367398 -0.632602 -0.5 -0.5 
C -0.632602 -0.367398 -0.707107 -0.187527 -0.707107 0 
C -0.707107 0.187527 -0.632602 0.367398 -0.5 0.5 
C -0.367398 0.632602 -0.187527 0.707107 0 0.707107 
z
" style="stroke: #ff7f0e"/>
    </defs>
    <g clip-path="url(#p416459a671)">
     <use xlink:href="#mb93e84e31e" x="80.754545" y="80.756793" style="fill: #ff7f0e; stroke: #ff7f0e"/>
     <use xlink:href="#mb93e84e31e" x="83.738496" y="80.797758" style="fill: #ff7f0e; stroke: #ff7f0e"/>
     <use xlink:href="#mb93e84e31e" x="86.722446" y="80.839348" style="fill: #ff7f0e; stroke: #ff7f0e"/>
     <use xlink:href="#mb93e84e31e" x="89.706396" y="80.881564" style="fill: #ff7f0e; stroke: #ff7f0e"/>
     <use xlink:href="#mb93e84e31e" x="92.690347" y="80.924405" style="fill: #ff7f0e; stroke: #ff7f0e"/>
     <use xlink:href="#mb93e84e31e" x="95.674297" y="80.969122" style="fill: #ff7f0e; stroke: #ff7f0e"/>
     <use xlink:href="#mb93e84e31e" x="98.658247" y="81.014465" style="fill: #ff7f0e; stroke: #ff7f0e"/>
     <use xlink:href="#mb93e84e31e" x="101.642261" y="81.060746" style="fill: #ff7f0e; stroke: #ff7f0e"/>
     <use xlink:href="#mb93e84e31e" x="104.626211" y="81.110779" style="fill: #ff7f0e; stroke: #ff7f0e"/>
     <use xlink:href="#mb93e84e31e" x="107.610161" y="81.157685" style="fill: #ff7f0e; stroke: #ff7f0e"/>
     <use xlink:href="#mb93e84e31e" x="110.594112" y="81.211158" style="fill: #ff7f0e; stroke: #ff7f0e"/>
     <use xlink:href="#mb93e84e31e" x="113.578062" y="81.264944" style="fill: #ff7f0e; stroke: #ff7f0e"/>
     <use xlink:href="#mb93e84e31e" x="116.562012" y="81.319981" style="fill: #ff7f0e; stroke: #ff7f0e"/>
     <use xlink:href="#mb93e84e31e" x="119.545963" y="81.37533" style="fill: #ff7f0e; stroke: #ff7f0e"/>
     <use xlink:href="#mb93e84e31e" x="122.529913" y="81.432556" style="fill: #ff7f0e; stroke: #ff7f0e"/>
     <use xlink:href="#mb93e84e31e" x="125.513863" y="81.488843" style="fill: #ff7f0e; stroke: #ff7f0e"/>
     <use xlink:href="#mb93e84e31e" x="128.497877" y="81.552636" style="fill: #ff7f0e; stroke: #ff7f0e"/>
     <use xlink:href="#mb93e84e31e" x="131.481827" y="81.613301" style="fill: #ff7f0e; stroke: #ff7f0e"/>
     <use xlink:href="#mb93e84e31e" x="134.465778" y="81.678657" style="fill: #ff7f0e; stroke: #ff7f0e"/>
     <use xlink:href="#mb93e84e31e" x="137.449728" y="81.743075" style="fill: #ff7f0e; stroke: #ff7f0e"/>
     <use xlink:href="#mb93e84e31e" x="140.433678" y="81.812184" style="fill: #ff7f0e; stroke: #ff7f0e"/>
     <use xlink:href="#mb93e84e31e" x="143.417628" y="81.88223" style="fill: #ff7f0e; stroke: #ff7f0e"/>
     <use xlink:href="#mb93e84e31e" x="146.401579" y="81.952277" style="fill: #ff7f0e; stroke: #ff7f0e"/>
     <use xlink:href="#mb93e84e31e" x="149.385529" y="82.027014" style="fill: #ff7f0e; stroke: #ff7f0e"/>
     <use xlink:href="#mb93e84e31e" x="152.369479" y="82.10738" style="fill: #ff7f0e; stroke: #ff7f0e"/>
     <use xlink:href="#mb93e84e31e" x="155.353493" y="82.186496" style="fill: #ff7f0e; stroke: #ff7f0e"/>
     <use xlink:href="#mb93e84e31e" x="158.337443" y="82.268738" style="fill: #ff7f0e; stroke: #ff7f0e"/>
     <use xlink:href="#mb93e84e31e" x="161.321394" y="82.352856" style="fill: #ff7f0e; stroke: #ff7f0e"/>
     <use xlink:href="#mb93e84e31e" x="164.305344" y="82.443229" style="fill: #ff7f0e; stroke: #ff7f0e"/>
     <use xlink:href="#mb93e84e31e" x="167.289294" y="82.532038" style="fill: #ff7f0e; stroke: #ff7f0e"/>
     <use xlink:href="#mb93e84e31e" x="170.273244" y="82.627414" style="fill: #ff7f0e; stroke: #ff7f0e"/>
     <use xlink:href="#mb93e84e31e" x="173.257195" y="82.721539" style="fill: #ff7f0e; stroke: #ff7f0e"/>
     <use xlink:href="#mb93e84e31e" x="176.241145" y="82.818166" style="fill: #ff7f0e; stroke: #ff7f0e"/>
     <use xlink:href="#mb93e84e31e" x="179.225095" y="82.923236" style="fill: #ff7f0e; stroke: #ff7f0e"/>
     <use xlink:href="#mb93e84e31e" x="182.209109" y="83.017049" style="fill: #ff7f0e; stroke: #ff7f0e"/>
     <use xlink:href="#mb93e84e31e" x="185.193059" y="83.017987" style="fill: #ff7f0e; stroke: #ff7f0e"/>
     <use xlink:href="#mb93e84e31e" x="188.17701" y="82.896031" style="fill: #ff7f0e; stroke: #ff7f0e"/>
     <use xlink:href="#mb93e84e31e" x="191.16096" y="82.953882" style="fill: #ff7f0e; stroke: #ff7f0e"/>
     <use xlink:href="#mb93e84e31e" x="194.14491" y="83.063955" style="fill: #ff7f0e; stroke: #ff7f0e"/>
     <use xlink:href="#mb93e84e31e" x="197.128861" y="83.168712" style="fill: #ff7f0e; stroke: #ff7f0e"/>
     <use xlink:href="#mb93e84e31e" x="200.112811" y="83.290356" style="fill: #ff7f0e; stroke: #ff7f0e"/>
     <use xlink:href="#mb93e84e31e" x="203.096761" y="83.416377" style="fill: #ff7f0e; stroke: #ff7f0e"/>
     <use xlink:href="#mb93e84e31e" x="206.080711" y="83.548027" style="fill: #ff7f0e; stroke: #ff7f0e"/>
     <use xlink:href="#mb93e84e31e" x="209.064725" y="83.685619" style="fill: #ff7f0e; stroke: #ff7f0e"/>
     <use xlink:href="#mb93e84e31e" x="212.048675" y="83.827588" style="fill: #ff7f0e; stroke: #ff7f0e"/>
     <use xlink:href="#mb93e84e31e" x="215.032626" y="83.975499" style="fill: #ff7f0e; stroke: #ff7f0e"/>
     <use xlink:href="#mb93e84e31e" x="218.016576" y="84.131854" style="fill: #ff7f0e; stroke: #ff7f0e"/>
     <use xlink:href="#mb93e84e31e" x="221.000526" y="84.291648" style="fill: #ff7f0e; stroke: #ff7f0e"/>
     <use xlink:href="#mb93e84e31e" x="223.984477" y="84.460823" style="fill: #ff7f0e; stroke: #ff7f0e"/>
     <use xlink:href="#mb93e84e31e" x="226.968427" y="84.637503" style="fill: #ff7f0e; stroke: #ff7f0e"/>
     <use xlink:href="#mb93e84e31e" x="229.952377" y="84.820437" style="fill: #ff7f0e; stroke: #ff7f0e"/>
     <use xlink:href="#mb93e84e31e" x="232.936327" y="85.01244" style="fill: #ff7f0e; stroke: #ff7f0e"/>
     <use xlink:href="#mb93e84e31e" x="235.920341" y="85.213511" style="fill: #ff7f0e; stroke: #ff7f0e"/>
     <use xlink:href="#mb93e84e31e" x="238.904291" y="85.423964" style="fill: #ff7f0e; stroke: #ff7f0e"/>
     <use xlink:href="#mb93e84e31e" x="241.888242" y="85.644736" style="fill: #ff7f0e; stroke: #ff7f0e"/>
     <use xlink:href="#mb93e84e31e" x="244.872192" y="85.87614" style="fill: #ff7f0e; stroke: #ff7f0e"/>
     <use xlink:href="#mb93e84e31e" x="247.856142" y="86.117551" style="fill: #ff7f0e; stroke: #ff7f0e"/>
     <use xlink:href="#mb93e84e31e" x="250.840093" y="86.371157" style="fill: #ff7f0e; stroke: #ff7f0e"/>
     <use xlink:href="#mb93e84e31e" x="253.824043" y="86.637585" style="fill: #ff7f0e; stroke: #ff7f0e"/>
     <use xlink:href="#mb93e84e31e" x="256.807993" y="86.917772" style="fill: #ff7f0e; stroke: #ff7f0e"/>
     <use xlink:href="#mb93e84e31e" x="259.791943" y="87.214219" style="fill: #ff7f0e; stroke: #ff7f0e"/>
     <use xlink:href="#mb93e84e31e" x="262.775957" y="87.524738" style="fill: #ff7f0e; stroke: #ff7f0e"/>
     <use xlink:href="#mb93e84e31e" x="265.759907" y="87.852769" style="fill: #ff7f0e; stroke: #ff7f0e"/>
     <use xlink:href="#mb93e84e31e" x="268.743858" y="88.197374" style="fill: #ff7f0e; stroke: #ff7f0e"/>
     <use xlink:href="#mb93e84e31e" x="271.727808" y="88.563242" style="fill: #ff7f0e; stroke: #ff7f0e"/>
     <use xlink:href="#mb93e84e31e" x="274.711758" y="88.949124" style="fill: #ff7f0e; stroke: #ff7f0e"/>
     <use xlink:href="#mb93e84e31e" x="277.695709" y="89.358772" style="fill: #ff7f0e; stroke: #ff7f0e"/>
     <use xlink:href="#mb93e84e31e" x="280.679659" y="89.789997" style="fill: #ff7f0e; stroke: #ff7f0e"/>
     <use xlink:href="#mb93e84e31e" x="283.663609" y="90.248115" style="fill: #ff7f0e; stroke: #ff7f0e"/>
     <use xlink:href="#mb93e84e31e" x="286.64756" y="90.733438" style="fill: #ff7f0e; stroke: #ff7f0e"/>
     <use xlink:href="#mb93e84e31e" x="289.631573" y="91.254097" style="fill: #ff7f0e; stroke: #ff7f0e"/>
     <use xlink:href="#mb93e84e31e" x="292.615523" y="91.804464" style="fill: #ff7f0e; stroke: #ff7f0e"/>
     <use xlink:href="#mb93e84e31e" x="295.599474" y="92.395169" style="fill: #ff7f0e; stroke: #ff7f0e"/>
     <use xlink:href="#mb93e84e31e" x="298.583424" y="93.020273" style="fill: #ff7f0e; stroke: #ff7f0e"/>
     <use xlink:href="#mb93e84e31e" x="301.567374" y="93.680088" style="fill: #ff7f0e; stroke: #ff7f0e"/>
    </g>
   </g>
   <g id="PathCollection_3">
    <defs>
     <path id="md0ffbf9807" d="M 0 0.707107 
C 0.187527 0.707107 0.367398 0.632602 0.5 0.5 
C 0.632602 0.367398 0.707107 0.187527 0.707107 0 
C 0.707107 -0.187527 0.632602 -0.367398 0.5 -0.5 
C 0.367398 -0.632602 0.187527 -0.707107 0 -0.707107 
C -0.187527 -0.707107 -0.367398 -0.632602 -0.5 -0.5 
C -0.632602 -0.367398 -0.707107 -0.187527 -0.707107 0 
C -0.707107 0.187527 -0.632602 0.367398 -0.5 0.5 
C -0.367398 0.632602 -0.187527 0.707107 0 0.707107 
z
" style="stroke: #2ca02c"/>
    </defs>
    <g clip-path="url(#p416459a671)">
     <use xlink:href="#md0ffbf9807" x="80.754545" y="80.756793" style="fill: #2ca02c; stroke: #2ca02c"/>
     <use xlink:href="#md0ffbf9807" x="83.738496" y="80.797758" style="fill: #2ca02c; stroke: #2ca02c"/>
     <use xlink:href="#md0ffbf9807" x="86.722446" y="80.839348" style="fill: #2ca02c; stroke: #2ca02c"/>
     <use xlink:href="#md0ffbf9807" x="89.706396" y="80.881564" style="fill: #2ca02c; stroke: #2ca02c"/>
     <use xlink:href="#md0ffbf9807" x="92.690347" y="80.924405" style="fill: #2ca02c; stroke: #2ca02c"/>
     <use xlink:href="#md0ffbf9807" x="95.674297" y="80.969122" style="fill: #2ca02c; stroke: #2ca02c"/>
     <use xlink:href="#md0ffbf9807" x="98.658247" y="81.014465" style="fill: #2ca02c; stroke: #2ca02c"/>
     <use xlink:href="#md0ffbf9807" x="101.642261" y="81.060746" style="fill: #2ca02c; stroke: #2ca02c"/>
     <use xlink:href="#md0ffbf9807" x="104.626211" y="81.110779" style="fill: #2ca02c; stroke: #2ca02c"/>
     <use xlink:href="#md0ffbf9807" x="107.610161" y="81.157685" style="fill: #2ca02c; stroke: #2ca02c"/>
     <use xlink:href="#md0ffbf9807" x="110.594112" y="81.211158" style="fill: #2ca02c; stroke: #2ca02c"/>
     <use xlink:href="#md0ffbf9807" x="113.578062" y="81.264944" style="fill: #2ca02c; stroke: #2ca02c"/>
     <use xlink:href="#md0ffbf9807" x="116.562012" y="81.319981" style="fill: #2ca02c; stroke: #2ca02c"/>
     <use xlink:href="#md0ffbf9807" x="119.545963" y="81.37533" style="fill: #2ca02c; stroke: #2ca02c"/>
     <use xlink:href="#md0ffbf9807" x="122.529913" y="81.432556" style="fill: #2ca02c; stroke: #2ca02c"/>
     <use xlink:href="#md0ffbf9807" x="125.513863" y="81.488843" style="fill: #2ca02c; stroke: #2ca02c"/>
     <use xlink:href="#md0ffbf9807" x="128.497877" y="81.552636" style="fill: #2ca02c; stroke: #2ca02c"/>
     <use xlink:href="#md0ffbf9807" x="131.481827" y="81.613301" style="fill: #2ca02c; stroke: #2ca02c"/>
     <use xlink:href="#md0ffbf9807" x="134.465778" y="81.678657" style="fill: #2ca02c; stroke: #2ca02c"/>
     <use xlink:href="#md0ffbf9807" x="137.449728" y="81.743075" style="fill: #2ca02c; stroke: #2ca02c"/>
     <use xlink:href="#md0ffbf9807" x="140.433678" y="81.812184" style="fill: #2ca02c; stroke: #2ca02c"/>
     <use xlink:href="#md0ffbf9807" x="143.417628" y="81.88223" style="fill: #2ca02c; stroke: #2ca02c"/>
     <use xlink:href="#md0ffbf9807" x="146.401579" y="81.952277" style="fill: #2ca02c; stroke: #2ca02c"/>
     <use xlink:href="#md0ffbf9807" x="149.385529" y="82.027014" style="fill: #2ca02c; stroke: #2ca02c"/>
     <use xlink:href="#md0ffbf9807" x="152.369479" y="82.10738" style="fill: #2ca02c; stroke: #2ca02c"/>
     <use xlink:href="#md0ffbf9807" x="155.353493" y="82.186496" style="fill: #2ca02c; stroke: #2ca02c"/>
     <use xlink:href="#md0ffbf9807" x="158.337443" y="82.268738" style="fill: #2ca02c; stroke: #2ca02c"/>
     <use xlink:href="#md0ffbf9807" x="161.321394" y="82.352856" style="fill: #2ca02c; stroke: #2ca02c"/>
     <use xlink:href="#md0ffbf9807" x="164.305344" y="82.443229" style="fill: #2ca02c; stroke: #2ca02c"/>
     <use xlink:href="#md0ffbf9807" x="167.289294" y="82.532038" style="fill: #2ca02c; stroke: #2ca02c"/>
     <use xlink:href="#md0ffbf9807" x="170.273244" y="82.627414" style="fill: #2ca02c; stroke: #2ca02c"/>
     <use xlink:href="#md0ffbf9807" x="173.257195" y="82.721539" style="fill: #2ca02c; stroke: #2ca02c"/>
     <use xlink:href="#md0ffbf9807" x="176.241145" y="82.818166" style="fill: #2ca02c; stroke: #2ca02c"/>
     <use xlink:href="#md0ffbf9807" x="179.225095" y="82.923236" style="fill: #2ca02c; stroke: #2ca02c"/>
     <use xlink:href="#md0ffbf9807" x="182.209109" y="83.017049" style="fill: #2ca02c; stroke: #2ca02c"/>
     <use xlink:href="#md0ffbf9807" x="185.193059" y="83.017987" style="fill: #2ca02c; stroke: #2ca02c"/>
     <use xlink:href="#md0ffbf9807" x="188.17701" y="82.896031" style="fill: #2ca02c; stroke: #2ca02c"/>
     <use xlink:href="#md0ffbf9807" x="191.16096" y="82.953882" style="fill: #2ca02c; stroke: #2ca02c"/>
     <use xlink:href="#md0ffbf9807" x="194.14491" y="83.063955" style="fill: #2ca02c; stroke: #2ca02c"/>
     <use xlink:href="#md0ffbf9807" x="197.128861" y="83.168712" style="fill: #2ca02c; stroke: #2ca02c"/>
     <use xlink:href="#md0ffbf9807" x="200.112811" y="83.290356" style="fill: #2ca02c; stroke: #2ca02c"/>
     <use xlink:href="#md0ffbf9807" x="203.096761" y="83.416377" style="fill: #2ca02c; stroke: #2ca02c"/>
     <use xlink:href="#md0ffbf9807" x="206.080711" y="83.548027" style="fill: #2ca02c; stroke: #2ca02c"/>
     <use xlink:href="#md0ffbf9807" x="209.064725" y="83.685619" style="fill: #2ca02c; stroke: #2ca02c"/>
     <use xlink:href="#md0ffbf9807" x="212.048675" y="83.827588" style="fill: #2ca02c; stroke: #2ca02c"/>
     <use xlink:href="#md0ffbf9807" x="215.032626" y="83.975499" style="fill: #2ca02c; stroke: #2ca02c"/>
     <use xlink:href="#md0ffbf9807" x="218.016576" y="84.131854" style="fill: #2ca02c; stroke: #2ca02c"/>
     <use xlink:href="#md0ffbf9807" x="221.000526" y="84.291648" style="fill: #2ca02c; stroke: #2ca02c"/>
     <use xlink:href="#md0ffbf9807" x="223.984477" y="84.460823" style="fill: #2ca02c; stroke: #2ca02c"/>
     <use xlink:href="#md0ffbf9807" x="226.968427" y="84.637503" style="fill: #2ca02c; stroke: #2ca02c"/>
     <use xlink:href="#md0ffbf9807" x="229.952377" y="84.820437" style="fill: #2ca02c; stroke: #2ca02c"/>
     <use xlink:href="#md0ffbf9807" x="232.936327" y="85.01244" style="fill: #2ca02c; stroke: #2ca02c"/>
     <use xlink:href="#md0ffbf9807" x="235.920341" y="85.213511" style="fill: #2ca02c; stroke: #2ca02c"/>
     <use xlink:href="#md0ffbf9807" x="238.904291" y="85.423964" style="fill: #2ca02c; stroke: #2ca02c"/>
     <use xlink:href="#md0ffbf9807" x="241.888242" y="85.644736" style="fill: #2ca02c; stroke: #2ca02c"/>
     <use xlink:href="#md0ffbf9807" x="244.872192" y="85.87614" style="fill: #2ca02c; stroke: #2ca02c"/>
     <use xlink:href="#md0ffbf9807" x="247.856142" y="86.117551" style="fill: #2ca02c; stroke: #2ca02c"/>
     <use xlink:href="#md0ffbf9807" x="250.840093" y="86.371157" style="fill: #2ca02c; stroke: #2ca02c"/>
     <use xlink:href="#md0ffbf9807" x="253.824043" y="86.637585" style="fill: #2ca02c; stroke: #2ca02c"/>
     <use xlink:href="#md0ffbf9807" x="256.807993" y="86.917772" style="fill: #2ca02c; stroke: #2ca02c"/>
     <use xlink:href="#md0ffbf9807" x="259.791943" y="87.214219" style="fill: #2ca02c; stroke: #2ca02c"/>
     <use xlink:href="#md0ffbf9807" x="262.775957" y="87.524738" style="fill: #2ca02c; stroke: #2ca02c"/>
     <use xlink:href="#md0ffbf9807" x="265.759907" y="87.852769" style="fill: #2ca02c; stroke: #2ca02c"/>
     <use xlink:href="#md0ffbf9807" x="268.743858" y="88.197374" style="fill: #2ca02c; stroke: #2ca02c"/>
     <use xlink:href="#md0ffbf9807" x="271.727808" y="88.563242" style="fill: #2ca02c; stroke: #2ca02c"/>
     <use xlink:href="#md0ffbf9807" x="274.711758" y="88.949124" style="fill: #2ca02c; stroke: #2ca02c"/>
     <use xlink:href="#md0ffbf9807" x="277.695709" y="89.358772" style="fill: #2ca02c; stroke: #2ca02c"/>
     <use xlink:href="#md0ffbf9807" x="280.679659" y="89.789997" style="fill: #2ca02c; stroke: #2ca02c"/>
     <use xlink:href="#md0ffbf9807" x="283.663609" y="90.248115" style="fill: #2ca02c; stroke: #2ca02c"/>
     <use xlink:href="#md0ffbf9807" x="286.64756" y="90.733438" style="fill: #2ca02c; stroke: #2ca02c"/>
     <use xlink:href="#md0ffbf9807" x="289.631573" y="91.254097" style="fill: #2ca02c; stroke: #2ca02c"/>
     <use xlink:href="#md0ffbf9807" x="292.615523" y="91.804464" style="fill: #2ca02c; stroke: #2ca02c"/>
     <use xlink:href="#md0ffbf9807" x="295.599474" y="92.395169" style="fill: #2ca02c; stroke: #2ca02c"/>
     <use xlink:href="#md0ffbf9807" x="298.583424" y="93.020273" style="fill: #2ca02c; stroke: #2ca02c"/>
     <use xlink:href="#md0ffbf9807" x="301.567374" y="93.680088" style="fill: #2ca02c; stroke: #2ca02c"/>
    </g>
   </g>
   <g id="matplotlib.axis_1">
    <g id="xtick_1">
     <g id="line2d_1">
      <defs>
       <path id="m9bb7a82114" d="M 0 0 
L 0 3.5 
" style="stroke: #000000; stroke-width: 0.8"/>
      </defs>
      <g>
       <use xlink:href="#m9bb7a82114" x="119.124978" y="448.56" style="stroke: #000000; stroke-width: 0.8"/>
      </g>
     </g>
     <g id="text_1">
      <text style="font: 10px 'sans-serif'; text-anchor: middle" x="119.124978" y="463.158437" transform="rotate(-0, 119.124978, 463.158437)">−0.05</text>
     </g>
    </g>
    <g id="xtick_2">
     <g id="line2d_2">
      <g>
       <use xlink:href="#m9bb7a82114" x="182.469073" y="448.56" style="stroke: #000000; stroke-width: 0.8"/>
      </g>
     </g>
     <g id="text_2">
      <text style="font: 10px 'sans-serif'; text-anchor: middle" x="182.469073" y="463.158437" transform="rotate(-0, 182.469073, 463.158437)">−0.04</text>
     </g>
    </g>
    <g id="xtick_3">
     <g id="line2d_3">
      <g>
       <use xlink:href="#m9bb7a82114" x="245.813169" y="448.56" style="stroke: #000000; stroke-width: 0.8"/>
      </g>
     </g>
     <g id="text_3">
      <text style="font: 10px 'sans-serif'; text-anchor: middle" x="245.813169" y="463.158437" transform="rotate(-0, 245.813169, 463.158437)">−0.03</text>
     </g>
    </g>
    <g id="xtick_4">
     <g id="line2d_4">
      <g>
       <use xlink:href="#m9bb7a82114" x="309.157264" y="448.56" style="stroke: #000000; stroke-width: 0.8"/>
      </g>
     </g>
     <g id="text_4">
      <text style="font: 10px 'sans-serif'; text-anchor: middle" x="309.157264" y="463.158437" transform="rotate(-0, 309.157264, 463.158437)">−0.02</text>
     </g>
    </g>
    <g id="xtick_5">
     <g id="line2d_5">
      <g>
       <use xlink:href="#m9bb7a82114" x="372.501359" y="448.56" style="stroke: #000000; stroke-width: 0.8"/>
      </g>
     </g>
     <g id="text_5">
      <text style="font: 10px 'sans-serif'; text-anchor: middle" x="372.501359" y="463.158437" transform="rotate(-0, 372.501359, 463.158437)">−0.01</text>
     </g>
    </g>
    <g id="xtick_6">
     <g id="line2d_6">
      <g>
       <use xlink:href="#m9bb7a82114" x="435.845455" y="448.56" style="stroke: #000000; stroke-width: 0.8"/>
      </g>
     </g>
     <g id="text_6">
      <text style="font: 10px 'sans-serif'; text-anchor: middle" x="435.845455" y="463.158437" transform="rotate(-0, 435.845455, 463.158437)">0.00</text>
     </g>
    </g>
    <g id="text_7">
     <text style="font: 10px 'sans-serif'; text-anchor: middle" x="258.3" y="476.836563" transform="rotate(-0, 258.3, 476.836563)">mu [eV]</text>
    </g>
   </g>
   <g id="matplotlib.axis_2">
    <g id="ytick_1">
     <g id="line2d_7">
      <defs>
       <path id="mfd90a16487" d="M 0 0 
L -3.5 0 
" style="stroke: #000000; stroke-width: 0.8"/>
      </defs>
      <g>
       <use xlink:href="#mfd90a16487" x="63" y="430.92" style="stroke: #000000; stroke-width: 0.8"/>
      </g>
     </g>
     <g id="text_8">
      <!-- $\mathdefault{0.0}$ -->
      <g transform="translate(40 434.719219)">
       <text>
        <tspan style="font: 10px 'DejaVu Sans'" x="0 6.362305 9.541016" y="-0.578125">0.0</tspan>
       </text>
      </g>
     </g>
    </g>
    <g id="ytick_2">
     <g id="line2d_8">
      <g>
       <use xlink:href="#mfd90a16487" x="63" y="347.630296" style="stroke: #000000; stroke-width: 0.8"/>
      </g>
     </g>
     <g id="text_9">
      <!-- $\mathdefault{0.5}$ -->
      <g transform="translate(40 351.429514)">
       <text>
        <tspan style="font: 10px 'DejaVu Sans'" x="0 6.362305 9.541016" y="-0.578125">0.5</tspan>
       </text>
      </g>
     </g>
    </g>
    <g id="ytick_3">
     <g id="line2d_9">
      <g>
       <use xlink:href="#mfd90a16487" x="63" y="264.340591" style="stroke: #000000; stroke-width: 0.8"/>
      </g>
     </g>
     <g id="text_10">
      <!-- $\mathdefault{1.0}$ -->
      <g transform="translate(40 268.13981)">
       <text>
        <tspan style="font: 10px 'DejaVu Sans'" x="0 6.362305 9.541016" y="-0.578125">1.0</tspan>
       </text>
      </g>
     </g>
    </g>
    <g id="ytick_4">
     <g id="line2d_10">
      <g>
       <use xlink:href="#mfd90a16487" x="63" y="181.050887" style="stroke: #000000; stroke-width: 0.8"/>
      </g>
     </g>
     <g id="text_11">
      <!-- $\mathdefault{1.5}$ -->
      <g transform="translate(40 184.850106)">
       <text>
        <tspan style="font: 10px 'DejaVu Sans'" x="0 6.362305 9.541016" y="-0.703125">1.5</tspan>
       </text>
      </g>
     </g>
    </g>
    <g id="ytick_5">
     <g id="line2d_11">
      <g>
       <use xlink:href="#mfd90a16487" x="63" y="97.761183" style="stroke: #000000; stroke-width: 0.8"/>
      </g>
     </g>
     <g id="text_12">
      <!-- $\mathdefault{2.0}$ -->
      <g transform="translate(40 101.560401)">
       <text>
        <tspan style="font: 10px 'DejaVu Sans'" x="0 6.362305 9.541016" y="-0.578125">2.0</tspan>
       </text>
      </g>
     </g>
    </g>
    <g id="text_13">
     <text style="font: 10px 'sans-serif'; text-anchor: middle" x="33.920312" y="254.52" transform="rotate(-90, 33.920312, 254.52)">SHC1 [/Ohm m]</text>
    </g>
    <g id="text_14">
     <!-- $\times\mathdefault{10^{5}}\mathdefault{}$ -->
     <g transform="translate(63 57.48)">
      <text>
       <tspan style="font: 10px 'DejaVu Sans'" x="0 8.378906 14.741211" y="-0.06406250000000036">×10</tspan>
       <tspan style="font: 7px 'DejaVu Sans'" x="21.199219" y="-3.8921875000000004">5</tspan>
      </text>
     </g>
    </g>
   </g>
   <g id="line2d_12">
    <path d="M 80.754545 78.12 
L 123.871647 78.736417 
L 157.477624 79.429564 
L 184.425813 80.199188 
L 206.618439 81.049133 
L 225.006614 81.968329 
L 240.541453 82.958328 
L 253.857028 84.019488 
L 265.587416 85.1716 
L 275.732617 86.383084 
L 284.926705 87.703446 
L 292.852642 89.057273 
L 300.144505 90.524083 
L 306.802293 92.093216 
L 312.826006 93.745783 
L 318.215644 95.453162 
L 323.288244 97.29902 
L 327.726769 99.141975 
L 331.848257 101.079853 
L 335.652707 103.097097 
L 339.457157 105.372742 
L 342.94457 107.725734 
L 346.114945 110.124782 
L 349.28532 112.813474 
L 352.138658 115.521968 
L 354.991995 118.549659 
L 357.528295 121.552251 
L 360.064595 124.895465 
L 362.600896 128.635004 
L 364.820158 132.285421 
L 367.039421 136.346849 
L 369.258683 140.886927 
L 371.477946 145.9888 
L 373.380171 150.886734 
L 375.282396 156.353695 
L 377.184621 162.489439 
L 379.086846 169.419111 
L 380.989071 177.302464 
L 382.574259 184.748804 
L 384.159447 193.15748 
L 385.744634 202.732702 
L 387.329822 213.748563 
L 388.915009 226.587095 
L 390.183159 238.537855 
L 391.451309 252.432541 
L 392.719459 268.921819 
L 393.98761 289.106504 
L 394.938722 307.904847 
L 395.889835 331.952044 
L 396.52391 353.339514 
L 397.157985 385.580929 
L 397.475022 430.92 
L 397.475022 430.92 
L 435.845455 430.92 
L 435.845455 430.92 
" clip-path="url(#p416459a671)" style="fill: none; stroke: #1f77b4; stroke-width: 1.5; stroke-linecap: square"/>
   </g>
   <g id="patch_3">
    <path d="M 63 448.56 
L 63 60.48 
" style="fill: none; stroke: #000000; stroke-width: 0.8; stroke-linejoin: miter; stroke-linecap: square"/>
   </g>
   <g id="patch_4">
    <path d="M 453.6 448.56 
L 453.6 60.48 
" style="fill: none; stroke: #000000; stroke-width: 0.8; stroke-linejoin: miter; stroke-linecap: square"/>
   </g>
   <g id="patch_5">
    <path d="M 63 448.56 
L 453.6 448.56 
" style="fill: none; stroke: #000000; stroke-width: 0.8; stroke-linejoin: miter; stroke-linecap: square"/>
   </g>
   <g id="patch_6">
    <path d="M 63 60.48 
L 453.6 60.48 
" style="fill: none; stroke: #000000; stroke-width: 0.8; stroke-linejoin: miter; stroke-linecap: square"/>
   </g>
   <g id="text_15">
    <text style="font: 12px 'sans-serif'; text-anchor: middle" x="258.3" y="54.48" transform="rotate(-0, 258.3, 54.48)">compare</text>
   </g>
   <g id="legend_1">
    <g id="patch_7">
     <path d="M 375.1125 127.1925 
L 446.6 127.1925 
Q 448.6 127.1925 448.6 125.1925 
L 448.6 67.48 
Q 448.6 65.48 446.6 65.48 
L 375.1125 65.48 
Q 373.1125 65.48 373.1125 67.48 
L 373.1125 125.1925 
Q 373.1125 127.1925 375.1125 127.1925 
z
" style="fill: #ffffff; opacity: 0.8; stroke: #cccccc; stroke-linejoin: miter"/>
    </g>
    <g id="PathCollection_4">
     <g>
      <use xlink:href="#m9b4dace0df" x="387.1125" y="74.453438" style="fill: #1f77b4; stroke: #1f77b4"/>
     </g>
    </g>
    <g id="text_16">
     <text style="font: 10px 'sans-serif'; text-anchor: start" x="405.1125" y="77.078438" transform="rotate(-0, 405.1125, 77.078438)"> xyz</text>
    </g>
    <g id="PathCollection_5">
     <g>
      <use xlink:href="#mb93e84e31e" x="387.1125" y="89.131563" style="fill: #ff7f0e; stroke: #ff7f0e"/>
     </g>
    </g>
    <g id="text_17">
     <text style="font: 10px 'sans-serif'; text-anchor: start" x="405.1125" y="91.756563" transform="rotate(-0, 405.1125, 91.756563)"> yzx</text>
    </g>
    <g id="PathCollection_6">
     <g>
      <use xlink:href="#md0ffbf9807" x="387.1125" y="103.809688" style="fill: #2ca02c; stroke: #2ca02c"/>
     </g>
    </g>
    <g id="text_18">
     <text style="font: 10px 'sans-serif'; text-anchor: start" x="405.1125" y="106.434688" transform="rotate(-0, 405.1125, 106.434688)"> zxy</text>
    </g>
    <g id="line2d_13">
     <path d="M 377.1125 117.612813 
L 387.1125 117.612813 
L 397.1125 117.612813 
" style="fill: none; stroke: #1f77b4; stroke-width: 1.5; stroke-linecap: square"/>
    </g>
    <g id="text_19">
     <text style="font: 10px 'sans-serif'; text-anchor: start" x="405.1125" y="121.112813" transform="rotate(-0, 405.1125, 121.112813)">analytic</text>
    </g>
   </g>
  </g>
  <g id="text_20">
   <text style="font: 10px 'sans-serif'; text-anchor: start" x="378" y="10.08" transform="rotate(-0, 378, 10.08)">Gamma = 0.10 [meV]</text>
  </g>
 </g>
 <defs>
  <clipPath id="p416459a671">
   <rect x="63" y="60.48" width="390.6" height="388.08"/>
  </clipPath>
 </defs>
</svg>
