<?xml version="1.0" encoding="utf-8" standalone="no"?>
<!DOCTYPE svg PUBLIC "-//W3C//DTD SVG 1.1//EN"
  "http://www.w3.org/Graphics/SVG/1.1/DTD/svg11.dtd">
<svg xmlns:xlink="http://www.w3.org/1999/xlink" width="720pt" height="720pt" viewBox="0 0 720 720" xmlns="http://www.w3.org/2000/svg" version="1.1">
 <metadata>
  <rdf:RDF xmlns:dc="http://purl.org/dc/elements/1.1/" xmlns:cc="http://creativecommons.org/ns#" xmlns:rdf="http://www.w3.org/1999/02/22-rdf-syntax-ns#">
   <cc:Work>
    <dc:type rdf:resource="http://purl.org/dc/dcmitype/StillImage"/>
    <dc:date>2022-04-24T17:12:06.895994</dc:date>
    <dc:format>image/svg+xml</dc:format>
    <dc:creator>
     <cc:Agent>
      <dc:title>Matplotlib v3.5.1, https://matplotlib.org/</dc:title>
     </cc:Agent>
    </dc:creator>
   </cc:Work>
  </rdf:RDF>
 </metadata>
 <defs>
  <style type="text/css">*{stroke-linejoin: round; stroke-linecap: butt}</style>
 </defs>
 <g id="figure_1">
  <g id="patch_1">
   <path d="M 0 720 
L 720 720 
L 720 0 
L 0 0 
z
" style="fill: #ffffff"/>
  </g>
  <g id="axes_1">
   <g id="patch_2">
    <path d="M 90 640.8 
L 648 640.8 
L 648 86.4 
L 90 86.4 
z
" style="fill: #ffffff"/>
   </g>
   <g id="PathCollection_1">
    <defs>
     <path id="mcc9e79bad8" d="M 0 0.707107 
C 0.187527 0.707107 0.367398 0.632602 0.5 0.5 
C 0.632602 0.367398 0.707107 0.187527 0.707107 0 
C 0.707107 -0.187527 0.632602 -0.367398 0.5 -0.5 
C 0.367398 -0.632602 0.187527 -0.707107 0 -0.707107 
C -0.187527 -0.707107 -0.367398 -0.632602 -0.5 -0.5 
C -0.632602 -0.367398 -0.707107 -0.187527 -0.707107 0 
C -0.707107 0.187527 -0.632602 0.367398 -0.5 0.5 
C -0.367398 0.632602 -0.187527 0.707107 0 0.707107 
z
" style="stroke: #1f77b4"/>
    </defs>
    <g clip-path="url(#p95fee4a253)">
     <use xlink:href="#mcc9e79bad8" x="115.363636" y="111.6" style="fill: #1f77b4; stroke: #1f77b4"/>
     <use xlink:href="#mcc9e79bad8" x="119.626423" y="111.657033" style="fill: #1f77b4; stroke: #1f77b4"/>
     <use xlink:href="#mcc9e79bad8" x="123.889209" y="111.717995" style="fill: #1f77b4; stroke: #1f77b4"/>
     <use xlink:href="#mcc9e79bad8" x="128.151995" y="111.781978" style="fill: #1f77b4; stroke: #1f77b4"/>
     <use xlink:href="#mcc9e79bad8" x="132.414781" y="111.839389" style="fill: #1f77b4; stroke: #1f77b4"/>
     <use xlink:href="#mcc9e79bad8" x="136.677567" y="111.904657" style="fill: #1f77b4; stroke: #1f77b4"/>
     <use xlink:href="#mcc9e79bad8" x="140.940353" y="111.962219" style="fill: #1f77b4; stroke: #1f77b4"/>
     <use xlink:href="#mcc9e79bad8" x="145.20323" y="112.035343" style="fill: #1f77b4; stroke: #1f77b4"/>
     <use xlink:href="#mcc9e79bad8" x="149.466016" y="112.109373" style="fill: #1f77b4; stroke: #1f77b4"/>
     <use xlink:href="#mcc9e79bad8" x="153.728802" y="112.178493" style="fill: #1f77b4; stroke: #1f77b4"/>
     <use xlink:href="#mcc9e79bad8" x="157.991588" y="112.254563" style="fill: #1f77b4; stroke: #1f77b4"/>
    </g>
   </g>
   <g id="PathCollection_2">
    <defs>
     <path id="m06eb148a68" d="M 0 0.707107 
C 0.187527 0.707107 0.367398 0.632602 0.5 0.5 
C 0.632602 0.367398 0.707107 0.187527 0.707107 0 
C 0.707107 -0.187527 0.632602 -0.367398 0.5 -0.5 
C 0.367398 -0.632602 0.187527 -0.707107 0 -0.707107 
C -0.187527 -0.707107 -0.367398 -0.632602 -0.5 -0.5 
C -0.632602 -0.367398 -0.707107 -0.187527 -0.707107 0 
C -0.707107 0.187527 -0.632602 0.367398 -0.5 0.5 
C -0.367398 0.632602 -0.187527 0.707107 0 0.707107 
z
" style="stroke: #ff7f0e"/>
    </defs>
    <g clip-path="url(#p95fee4a253)">
     <use xlink:href="#m06eb148a68" x="115.363636" y="111.6" style="fill: #ff7f0e; stroke: #ff7f0e"/>
     <use xlink:href="#m06eb148a68" x="119.626423" y="111.657033" style="fill: #ff7f0e; stroke: #ff7f0e"/>
     <use xlink:href="#m06eb148a68" x="123.889209" y="111.717995" style="fill: #ff7f0e; stroke: #ff7f0e"/>
     <use xlink:href="#m06eb148a68" x="128.151995" y="111.781978" style="fill: #ff7f0e; stroke: #ff7f0e"/>
     <use xlink:href="#m06eb148a68" x="132.414781" y="111.839389" style="fill: #ff7f0e; stroke: #ff7f0e"/>
     <use xlink:href="#m06eb148a68" x="136.677567" y="111.904657" style="fill: #ff7f0e; stroke: #ff7f0e"/>
     <use xlink:href="#m06eb148a68" x="140.940353" y="111.962219" style="fill: #ff7f0e; stroke: #ff7f0e"/>
     <use xlink:href="#m06eb148a68" x="145.20323" y="112.035343" style="fill: #ff7f0e; stroke: #ff7f0e"/>
     <use xlink:href="#m06eb148a68" x="149.466016" y="112.109373" style="fill: #ff7f0e; stroke: #ff7f0e"/>
     <use xlink:href="#m06eb148a68" x="153.728802" y="112.178493" style="fill: #ff7f0e; stroke: #ff7f0e"/>
     <use xlink:href="#m06eb148a68" x="157.991588" y="112.254563" style="fill: #ff7f0e; stroke: #ff7f0e"/>
    </g>
   </g>
   <g id="PathCollection_3">
    <defs>
     <path id="mc51246820e" d="M 0 0.707107 
C 0.187527 0.707107 0.367398 0.632602 0.5 0.5 
C 0.632602 0.367398 0.707107 0.187527 0.707107 0 
C 0.707107 -0.187527 0.632602 -0.367398 0.5 -0.5 
C 0.367398 -0.632602 0.187527 -0.707107 0 -0.707107 
C -0.187527 -0.707107 -0.367398 -0.632602 -0.5 -0.5 
C -0.632602 -0.367398 -0.707107 -0.187527 -0.707107 0 
C -0.707107 0.187527 -0.632602 0.367398 -0.5 0.5 
C -0.367398 0.632602 -0.187527 0.707107 0 0.707107 
z
" style="stroke: #2ca02c"/>
    </defs>
    <g clip-path="url(#p95fee4a253)">
     <use xlink:href="#mc51246820e" x="115.363636" y="111.6" style="fill: #2ca02c; stroke: #2ca02c"/>
     <use xlink:href="#mc51246820e" x="119.626423" y="111.657033" style="fill: #2ca02c; stroke: #2ca02c"/>
     <use xlink:href="#mc51246820e" x="123.889209" y="111.717995" style="fill: #2ca02c; stroke: #2ca02c"/>
     <use xlink:href="#mc51246820e" x="128.151995" y="111.781978" style="fill: #2ca02c; stroke: #2ca02c"/>
     <use xlink:href="#mc51246820e" x="132.414781" y="111.839389" style="fill: #2ca02c; stroke: #2ca02c"/>
     <use xlink:href="#mc51246820e" x="136.677567" y="111.904657" style="fill: #2ca02c; stroke: #2ca02c"/>
     <use xlink:href="#mc51246820e" x="140.940353" y="111.962219" style="fill: #2ca02c; stroke: #2ca02c"/>
     <use xlink:href="#mc51246820e" x="145.20323" y="112.035343" style="fill: #2ca02c; stroke: #2ca02c"/>
     <use xlink:href="#mc51246820e" x="149.466016" y="112.109373" style="fill: #2ca02c; stroke: #2ca02c"/>
     <use xlink:href="#mc51246820e" x="153.728802" y="112.178493" style="fill: #2ca02c; stroke: #2ca02c"/>
     <use xlink:href="#mc51246820e" x="157.991588" y="112.254563" style="fill: #2ca02c; stroke: #2ca02c"/>
    </g>
   </g>
   <g id="matplotlib.axis_1">
    <g id="xtick_1">
     <g id="line2d_1">
      <defs>
       <path id="m5767938d88" d="M 0 0 
L 0 3.5 
" style="stroke: #000000; stroke-width: 0.8"/>
      </defs>
      <g>
       <use xlink:href="#m5767938d88" x="170.17854" y="640.8" style="stroke: #000000; stroke-width: 0.8"/>
      </g>
     </g>
     <g id="text_1">
      <text style="font: 10px 'sans-serif'; text-anchor: middle" x="170.17854" y="655.398438" transform="rotate(-0, 170.17854, 655.398438)">−0.05</text>
     </g>
    </g>
    <g id="xtick_2">
     <g id="line2d_2">
      <g>
       <use xlink:href="#m5767938d88" x="260.670105" y="640.8" style="stroke: #000000; stroke-width: 0.8"/>
      </g>
     </g>
     <g id="text_2">
      <text style="font: 10px 'sans-serif'; text-anchor: middle" x="260.670105" y="655.398438" transform="rotate(-0, 260.670105, 655.398438)">−0.04</text>
     </g>
    </g>
    <g id="xtick_3">
     <g id="line2d_3">
      <g>
       <use xlink:href="#m5767938d88" x="351.161669" y="640.8" style="stroke: #000000; stroke-width: 0.8"/>
      </g>
     </g>
     <g id="text_3">
      <text style="font: 10px 'sans-serif'; text-anchor: middle" x="351.161669" y="655.398438" transform="rotate(-0, 351.161669, 655.398438)">−0.03</text>
     </g>
    </g>
    <g id="xtick_4">
     <g id="line2d_4">
      <g>
       <use xlink:href="#m5767938d88" x="441.653234" y="640.8" style="stroke: #000000; stroke-width: 0.8"/>
      </g>
     </g>
     <g id="text_4">
      <text style="font: 10px 'sans-serif'; text-anchor: middle" x="441.653234" y="655.398438" transform="rotate(-0, 441.653234, 655.398438)">−0.02</text>
     </g>
    </g>
    <g id="xtick_5">
     <g id="line2d_5">
      <g>
       <use xlink:href="#m5767938d88" x="532.144799" y="640.8" style="stroke: #000000; stroke-width: 0.8"/>
      </g>
     </g>
     <g id="text_5">
      <text style="font: 10px 'sans-serif'; text-anchor: middle" x="532.144799" y="655.398438" transform="rotate(-0, 532.144799, 655.398438)">−0.01</text>
     </g>
    </g>
    <g id="xtick_6">
     <g id="line2d_6">
      <g>
       <use xlink:href="#m5767938d88" x="622.636364" y="640.8" style="stroke: #000000; stroke-width: 0.8"/>
      </g>
     </g>
     <g id="text_6">
      <text style="font: 10px 'sans-serif'; text-anchor: middle" x="622.636364" y="655.398438" transform="rotate(-0, 622.636364, 655.398438)">0.00</text>
     </g>
    </g>
    <g id="text_7">
     <text style="font: 10px 'sans-serif'; text-anchor: middle" x="369" y="669.076563" transform="rotate(-0, 369, 669.076563)">mu</text>
    </g>
   </g>
   <g id="matplotlib.axis_2">
    <g id="ytick_1">
     <g id="line2d_7">
      <defs>
       <path id="m8efa6ab033" d="M 0 0 
L -3.5 0 
" style="stroke: #000000; stroke-width: 0.8"/>
      </defs>
      <g>
       <use xlink:href="#m8efa6ab033" x="90" y="615.599987" style="stroke: #000000; stroke-width: 0.8"/>
      </g>
     </g>
     <g id="text_8">
      <text style="font: 10px 'sans-serif'; text-anchor: end" x="83" y="619.399206" transform="rotate(-0, 83, 619.399206)">0</text>
     </g>
    </g>
    <g id="ytick_2">
     <g id="line2d_8">
      <g>
       <use xlink:href="#m8efa6ab033" x="90" y="540.059005" style="stroke: #000000; stroke-width: 0.8"/>
      </g>
     </g>
     <g id="text_9">
      <text style="font: 10px 'sans-serif'; text-anchor: end" x="83" y="543.858224" transform="rotate(-0, 83, 543.858224)">1</text>
     </g>
    </g>
    <g id="ytick_3">
     <g id="line2d_9">
      <g>
       <use xlink:href="#m8efa6ab033" x="90" y="464.518024" style="stroke: #000000; stroke-width: 0.8"/>
      </g>
     </g>
     <g id="text_10">
      <text style="font: 10px 'sans-serif'; text-anchor: end" x="83" y="468.317242" transform="rotate(-0, 83, 468.317242)">2</text>
     </g>
    </g>
    <g id="ytick_4">
     <g id="line2d_10">
      <g>
       <use xlink:href="#m8efa6ab033" x="90" y="388.977042" style="stroke: #000000; stroke-width: 0.8"/>
      </g>
     </g>
     <g id="text_11">
      <text style="font: 10px 'sans-serif'; text-anchor: end" x="83" y="392.776261" transform="rotate(-0, 83, 392.776261)">3</text>
     </g>
    </g>
    <g id="ytick_5">
     <g id="line2d_11">
      <g>
       <use xlink:href="#m8efa6ab033" x="90" y="313.43606" style="stroke: #000000; stroke-width: 0.8"/>
      </g>
     </g>
     <g id="text_12">
      <text style="font: 10px 'sans-serif'; text-anchor: end" x="83" y="317.235279" transform="rotate(-0, 83, 317.235279)">4</text>
     </g>
    </g>
    <g id="ytick_6">
     <g id="line2d_12">
      <g>
       <use xlink:href="#m8efa6ab033" x="90" y="237.895079" style="stroke: #000000; stroke-width: 0.8"/>
      </g>
     </g>
     <g id="text_13">
      <text style="font: 10px 'sans-serif'; text-anchor: end" x="83" y="241.694297" transform="rotate(-0, 83, 241.694297)">5</text>
     </g>
    </g>
    <g id="ytick_7">
     <g id="line2d_13">
      <g>
       <use xlink:href="#m8efa6ab033" x="90" y="162.354097" style="stroke: #000000; stroke-width: 0.8"/>
      </g>
     </g>
     <g id="text_14">
      <text style="font: 10px 'sans-serif'; text-anchor: end" x="83" y="166.153316" transform="rotate(-0, 83, 166.153316)">6</text>
     </g>
    </g>
    <g id="ytick_8">
     <g id="line2d_14">
      <g>
       <use xlink:href="#m8efa6ab033" x="90" y="86.813115" style="stroke: #000000; stroke-width: 0.8"/>
      </g>
     </g>
     <g id="text_15">
      <text style="font: 10px 'sans-serif'; text-anchor: end" x="83" y="90.612334" transform="rotate(-0, 83, 90.612334)">7</text>
     </g>
    </g>
    <g id="text_16">
     <text style="font: 10px 'sans-serif'; text-anchor: middle" x="70.557812" y="363.6" transform="rotate(-90, 70.557812, 363.6)">SHC1</text>
    </g>
    <g id="text_17">
     <text style="font: 10px 'sans-serif'; text-anchor: start" x="90" y="83.4" transform="rotate(-0, 90, 83.4)">1e−6</text>
    </g>
   </g>
   <g id="line2d_15">
    <path d="M 115.363636 615.6 
L 622.636364 615.599987 
L 622.636364 615.599987 
" clip-path="url(#p95fee4a253)" style="fill: none; stroke: #1f77b4; stroke-width: 1.5; stroke-linecap: square"/>
   </g>
   <g id="patch_3">
    <path d="M 90 640.8 
L 90 86.4 
" style="fill: none; stroke: #000000; stroke-width: 0.8; stroke-linejoin: miter; stroke-linecap: square"/>
   </g>
   <g id="patch_4">
    <path d="M 648 640.8 
L 648 86.4 
" style="fill: none; stroke: #000000; stroke-width: 0.8; stroke-linejoin: miter; stroke-linecap: square"/>
   </g>
   <g id="patch_5">
    <path d="M 90 640.8 
L 648 640.8 
" style="fill: none; stroke: #000000; stroke-width: 0.8; stroke-linejoin: miter; stroke-linecap: square"/>
   </g>
   <g id="patch_6">
    <path d="M 90 86.4 
L 648 86.4 
" style="fill: none; stroke: #000000; stroke-width: 0.8; stroke-linejoin: miter; stroke-linecap: square"/>
   </g>
   <g id="text_18">
    <text style="font: 12px 'sans-serif'; text-anchor: middle" x="369" y="80.4" transform="rotate(-0, 369, 80.4)">fitting</text>
   </g>
   <g id="legend_1">
    <g id="patch_7">
     <path d="M 588.735937 138.434375 
L 641 138.434375 
Q 643 138.434375 643 136.434375 
L 643 93.4 
Q 643 91.4 641 91.4 
L 588.735937 91.4 
Q 586.735937 91.4 586.735937 93.4 
L 586.735937 136.434375 
Q 586.735937 138.434375 588.735937 138.434375 
z
" style="fill: #ffffff; opacity: 0.8; stroke: #cccccc; stroke-linejoin: miter"/>
    </g>
    <g id="PathCollection_4">
     <g>
      <use xlink:href="#mcc9e79bad8" x="600.735937" y="100.373437" style="fill: #1f77b4; stroke: #1f77b4"/>
     </g>
    </g>
    <g id="text_19">
     <text style="font: 10px 'sans-serif'; text-anchor: start" x="618.735937" y="102.998437" transform="rotate(-0, 618.735937, 102.998437)"> xyz</text>
    </g>
    <g id="PathCollection_5">
     <g>
      <use xlink:href="#m06eb148a68" x="600.735937" y="115.051562" style="fill: #ff7f0e; stroke: #ff7f0e"/>
     </g>
    </g>
    <g id="text_20">
     <text style="font: 10px 'sans-serif'; text-anchor: start" x="618.735937" y="117.676562" transform="rotate(-0, 618.735937, 117.676562)"> yzx</text>
    </g>
    <g id="PathCollection_6">
     <g>
      <use xlink:href="#mc51246820e" x="600.735937" y="129.729687" style="fill: #2ca02c; stroke: #2ca02c"/>
     </g>
    </g>
    <g id="text_21">
     <text style="font: 10px 'sans-serif'; text-anchor: start" x="618.735937" y="132.354687" transform="rotate(-0, 618.735937, 132.354687)"> zxy</text>
    </g>
   </g>
  </g>
  <g id="text_22">
   <text style="font: 10px 'sans-serif'; text-anchor: start" x="540" y="14.4" transform="rotate(-0, 540, 14.4)">Gamma = 0.000010 [eV]</text>
  </g>
 </g>
 <defs>
  <clipPath id="p95fee4a253">
   <rect x="90" y="86.4" width="558" height="554.4"/>
  </clipPath>
 </defs>
</svg>
