<?xml version="1.0" encoding="utf-8" standalone="no"?>
<!DOCTYPE svg PUBLIC "-//W3C//DTD SVG 1.1//EN"
  "http://www.w3.org/Graphics/SVG/1.1/DTD/svg11.dtd">
<svg xmlns:xlink="http://www.w3.org/1999/xlink" width="1080pt" height="504pt" viewBox="0 0 1080 504" xmlns="http://www.w3.org/2000/svg" version="1.1">
 <metadata>
  <rdf:RDF xmlns:dc="http://purl.org/dc/elements/1.1/" xmlns:cc="http://creativecommons.org/ns#" xmlns:rdf="http://www.w3.org/1999/02/22-rdf-syntax-ns#">
   <cc:Work>
    <dc:type rdf:resource="http://purl.org/dc/dcmitype/StillImage"/>
    <dc:date>2022-06-26T16:15:51.128192</dc:date>
    <dc:format>image/svg+xml</dc:format>
    <dc:creator>
     <cc:Agent>
      <dc:title>Matplotlib v3.5.2, https://matplotlib.org/</dc:title>
     </cc:Agent>
    </dc:creator>
   </cc:Work>
  </rdf:RDF>
 </metadata>
 <defs>
  <style type="text/css">*{stroke-linejoin: round; stroke-linecap: butt}</style>
 </defs>
 <g id="figure_1">
  <g id="patch_1">
   <path d="M 0 504 
L 1080 504 
L 1080 0 
L 0 0 
z
" style="fill: #ffffff"/>
  </g>
  <g id="axes_1">
   <g id="patch_2">
    <path d="M 135 448.56 
L 381.176471 448.56 
L 381.176471 60.48 
L 135 60.48 
z
" style="fill: #ffffff"/>
   </g>
   <g id="matplotlib.axis_1">
    <g id="xtick_1">
     <g id="line2d_1">
      <defs>
       <path id="m7105a1f692" d="M 0 0 
L 0 3.5 
" style="stroke: #000000; stroke-width: 0.8"/>
      </defs>
      <g>
       <use xlink:href="#m7105a1f692" x="135" y="448.56" style="stroke: #000000; stroke-width: 0.8"/>
      </g>
     </g>
     <g id="text_1">
      <text style="font: 10px 'sans-serif'; text-anchor: middle" x="135" y="463.158437" transform="rotate(-0, 135, 463.158437)">−0.08</text>
     </g>
    </g>
    <g id="xtick_2">
     <g id="line2d_2">
      <g>
       <use xlink:href="#m7105a1f692" x="165.772059" y="448.56" style="stroke: #000000; stroke-width: 0.8"/>
      </g>
     </g>
     <g id="text_2">
      <text style="font: 10px 'sans-serif'; text-anchor: middle" x="165.772059" y="463.158437" transform="rotate(-0, 165.772059, 463.158437)">−0.06</text>
     </g>
    </g>
    <g id="xtick_3">
     <g id="line2d_3">
      <g>
       <use xlink:href="#m7105a1f692" x="196.544118" y="448.56" style="stroke: #000000; stroke-width: 0.8"/>
      </g>
     </g>
     <g id="text_3">
      <text style="font: 10px 'sans-serif'; text-anchor: middle" x="196.544118" y="463.158437" transform="rotate(-0, 196.544118, 463.158437)">−0.04</text>
     </g>
    </g>
    <g id="xtick_4">
     <g id="line2d_4">
      <g>
       <use xlink:href="#m7105a1f692" x="227.316176" y="448.56" style="stroke: #000000; stroke-width: 0.8"/>
      </g>
     </g>
     <g id="text_4">
      <text style="font: 10px 'sans-serif'; text-anchor: middle" x="227.316176" y="463.158437" transform="rotate(-0, 227.316176, 463.158437)">−0.02</text>
     </g>
    </g>
    <g id="xtick_5">
     <g id="line2d_5">
      <g>
       <use xlink:href="#m7105a1f692" x="258.088235" y="448.56" style="stroke: #000000; stroke-width: 0.8"/>
      </g>
     </g>
     <g id="text_5">
      <text style="font: 10px 'sans-serif'; text-anchor: middle" x="258.088235" y="463.158437" transform="rotate(-0, 258.088235, 463.158437)">0.00</text>
     </g>
    </g>
    <g id="xtick_6">
     <g id="line2d_6">
      <g>
       <use xlink:href="#m7105a1f692" x="288.860294" y="448.56" style="stroke: #000000; stroke-width: 0.8"/>
      </g>
     </g>
     <g id="text_6">
      <text style="font: 10px 'sans-serif'; text-anchor: middle" x="288.860294" y="463.158437" transform="rotate(-0, 288.860294, 463.158437)">0.02</text>
     </g>
    </g>
    <g id="xtick_7">
     <g id="line2d_7">
      <g>
       <use xlink:href="#m7105a1f692" x="319.632353" y="448.56" style="stroke: #000000; stroke-width: 0.8"/>
      </g>
     </g>
     <g id="text_7">
      <text style="font: 10px 'sans-serif'; text-anchor: middle" x="319.632353" y="463.158437" transform="rotate(-0, 319.632353, 463.158437)">0.04</text>
     </g>
    </g>
    <g id="xtick_8">
     <g id="line2d_8">
      <g>
       <use xlink:href="#m7105a1f692" x="350.404412" y="448.56" style="stroke: #000000; stroke-width: 0.8"/>
      </g>
     </g>
     <g id="text_8">
      <text style="font: 10px 'sans-serif'; text-anchor: middle" x="350.404412" y="463.158437" transform="rotate(-0, 350.404412, 463.158437)">0.06</text>
     </g>
    </g>
    <g id="xtick_9">
     <g id="line2d_9">
      <g>
       <use xlink:href="#m7105a1f692" x="381.176471" y="448.56" style="stroke: #000000; stroke-width: 0.8"/>
      </g>
     </g>
     <g id="text_9">
      <text style="font: 10px 'sans-serif'; text-anchor: middle" x="381.176471" y="463.158437" transform="rotate(-0, 381.176471, 463.158437)">0.08</text>
     </g>
    </g>
    <g id="text_10">
     <text style="font: 10px 'sans-serif'; text-anchor: middle" x="258.088235" y="476.836563" transform="rotate(-0, 258.088235, 476.836563)">mu [eV]</text>
    </g>
   </g>
   <g id="matplotlib.axis_2">
    <g id="ytick_1">
     <g id="line2d_10">
      <defs>
       <path id="mec25bef0bd" d="M 0 0 
L -3.5 0 
" style="stroke: #000000; stroke-width: 0.8"/>
      </defs>
      <g>
       <use xlink:href="#mec25bef0bd" x="135" y="426.11122" style="stroke: #000000; stroke-width: 0.8"/>
      </g>
     </g>
     <g id="text_11">
      <!-- $\mathdefault{−4}$ -->
      <g transform="translate(113.2 429.910439)">
       <text>
        <tspan style="font: 10px 'DejaVu Sans'" x="0 8.378906" y="-0.703125">−4</tspan>
       </text>
      </g>
     </g>
    </g>
    <g id="ytick_2">
     <g id="line2d_11">
      <g>
       <use xlink:href="#mec25bef0bd" x="135" y="340.31561" style="stroke: #000000; stroke-width: 0.8"/>
      </g>
     </g>
     <g id="text_12">
      <!-- $\mathdefault{−2}$ -->
      <g transform="translate(113.2 344.114829)">
       <text>
        <tspan style="font: 10px 'DejaVu Sans'" x="0 8.378906" y="-0.578125">−2</tspan>
       </text>
      </g>
     </g>
    </g>
    <g id="ytick_3">
     <g id="line2d_12">
      <g>
       <use xlink:href="#mec25bef0bd" x="135" y="254.52" style="stroke: #000000; stroke-width: 0.8"/>
      </g>
     </g>
     <g id="text_13">
      <!-- $\mathdefault{0}$ -->
      <g transform="translate(121.6 258.319219)">
       <text>
        <tspan style="font: 10px 'DejaVu Sans'" x="0" y="-0.578125">0</tspan>
       </text>
      </g>
     </g>
    </g>
    <g id="ytick_4">
     <g id="line2d_13">
      <g>
       <use xlink:href="#mec25bef0bd" x="135" y="168.72439" style="stroke: #000000; stroke-width: 0.8"/>
      </g>
     </g>
     <g id="text_14">
      <!-- $\mathdefault{2}$ -->
      <g transform="translate(121.6 172.523609)">
       <text>
        <tspan style="font: 10px 'DejaVu Sans'" x="0" y="-0.578125">2</tspan>
       </text>
      </g>
     </g>
    </g>
    <g id="ytick_5">
     <g id="line2d_14">
      <g>
       <use xlink:href="#mec25bef0bd" x="135" y="82.92878" style="stroke: #000000; stroke-width: 0.8"/>
      </g>
     </g>
     <g id="text_15">
      <!-- $\mathdefault{4}$ -->
      <g transform="translate(121.6 86.727999)">
       <text>
        <tspan style="font: 10px 'DejaVu Sans'" x="0" y="-0.703125">4</tspan>
       </text>
      </g>
     </g>
    </g>
    <g id="text_16">
     <text style="font: 10px 'sans-serif'; text-anchor: middle" x="107.120312" y="254.52" transform="rotate(-90, 107.120312, 254.52)">spin conductivity [/Ohm m]</text>
    </g>
    <g id="text_17">
     <!-- $\times\mathdefault{10^{6}}\mathdefault{}$ -->
     <g transform="translate(135 57.48)">
      <text>
       <tspan style="font: 10px 'DejaVu Sans'" x="0 8.378906 14.741211" y="-0.9765625">×10</tspan>
       <tspan style="font: 7px 'DejaVu Sans'" x="21.199219" y="-4.8046875">6</tspan>
      </text>
     </g>
    </g>
   </g>
   <g id="line2d_15">
    <path d="M 135 331.461504 
L 141.509104 327.409483 
L 145.925447 324.777892 
L 153.250112 320.626829 
L 154.942787 319.747482 
L 157.404859 318.388996 
L 160.513226 316.751304 
L 177.609242 308.227887 
L 190.165811 302.2087 
L 193.474221 300.442603 
L 196.228665 298.63688 
L 199.152376 296.511675 
L 202.322294 295.039122 
L 209.031441 292.238921 
L 215.094295 289.969061 
L 216.125288 289.861743 
L 217.802575 289.832648 
L 219.295206 289.539639 
L 221.110984 289.037741 
L 223.7731 288.146756 
L 229.605134 285.972466 
L 239.868899 281.886291 
L 246.501107 279.076987 
L 253.487237 276.006391 
L 258.180563 273.769895 
L 262.242983 271.639701 
L 266.690101 269.03899 
L 270.183166 266.602392 
L 272.445195 264.700908 
L 273.630068 263.494116 
L 275.030371 261.834408 
L 275.861321 260.56665 
L 277.123133 258.714569 
L 277.677099 258.345442 
L 278.754256 257.997441 
L 279.816025 257.83327 
L 282.462753 257.611403 
L 289.202676 257.40647 
L 303.328817 257.279282 
L 336.505243 257.191074 
L 381.176471 257.139865 
L 381.176471 257.139865 
" clip-path="url(#pbe0c4c7228)" style="fill: none; stroke: #1f77b4; stroke-width: 1.5; stroke-linecap: square"/>
   </g>
   <g id="line2d_16">
    <path d="M 135 254.52 
L 143.771133 260.218138 
L 158.728223 269.592683 
L 178.440191 281.495506 
L 192.3509 290.237004 
L 195.597759 292.682606 
L 197.075002 294.109684 
L 198.121383 295.01659 
L 199.629402 295.898766 
L 205.246005 298.558652 
L 213.617051 302.151582 
L 215.525158 302.738539 
L 216.294555 302.734636 
L 218.171885 302.607192 
L 222.095813 303.368081 
L 225.635043 304.259541 
L 230.374532 305.671344 
L 236.25273 307.627699 
L 240.946056 309.35028 
L 253.779608 314.423325 
L 258.934573 316.760372 
L 263.858718 319.302923 
L 267.813422 321.628744 
L 270.090839 323.180176 
L 272.414419 325.062828 
L 274.491793 327.015737 
L 276.215244 329.711041 
L 277.015417 330.887383 
L 277.677099 331.344073 
L 278.584989 331.63027 
L 279.800637 331.785632 
L 282.70896 331.915868 
L 289.310392 331.903499 
L 308.26835 331.527673 
L 346.430473 330.795289 
L 381.176471 330.291903 
L 381.176471 330.291903 
" clip-path="url(#pbe0c4c7228)" style="fill: none; stroke: #d62728; stroke-width: 1.5; stroke-linecap: square"/>
   </g>
   <g id="line2d_17">
    <path d="M 135 331.461504 
L 144.17122 331.774422 
L 164.360214 333.185 
L 167.807116 333.570359 
L 185.241666 335.680106 
L 190.581286 336.494633 
L 198.059831 337.584098 
L 216.71003 338.057144 
L 234.529279 336.573616 
L 250.00956 335.901517 
L 273.414636 335.160969 
L 274.691836 335.062544 
L 276.09214 335.154677 
L 280.062232 335.089616 
L 290.60298 334.748609 
L 330.473166 333.757967 
L 381.176471 332.911768 
L 381.176471 332.911768 
" clip-path="url(#pbe0c4c7228)" style="fill: none; stroke: #2ca02c; stroke-width: 1.5; stroke-linecap: square"/>
   </g>
   <g id="patch_3">
    <path d="M 135 448.56 
L 135 60.48 
" style="fill: none; stroke: #000000; stroke-width: 0.8; stroke-linejoin: miter; stroke-linecap: square"/>
   </g>
   <g id="patch_4">
    <path d="M 381.176471 448.56 
L 381.176471 60.48 
" style="fill: none; stroke: #000000; stroke-width: 0.8; stroke-linejoin: miter; stroke-linecap: square"/>
   </g>
   <g id="patch_5">
    <path d="M 135 448.56 
L 381.176471 448.56 
" style="fill: none; stroke: #000000; stroke-width: 0.8; stroke-linejoin: miter; stroke-linecap: square"/>
   </g>
   <g id="patch_6">
    <path d="M 135 60.48 
L 381.176471 60.48 
" style="fill: none; stroke: #000000; stroke-width: 0.8; stroke-linejoin: miter; stroke-linecap: square"/>
   </g>
   <g id="text_18">
    <text style="font: 12px 'sans-serif'; text-anchor: middle" x="258.088235" y="54.48" transform="rotate(-0, 258.088235, 54.48)"> xyz</text>
   </g>
   <g id="legend_1">
    <g id="patch_7">
     <path d="M 314.962408 112.514375 
L 374.176471 112.514375 
Q 376.176471 112.514375 376.176471 110.514375 
L 376.176471 67.48 
Q 376.176471 65.48 374.176471 65.48 
L 314.962408 65.48 
Q 312.962408 65.48 312.962408 67.48 
L 312.962408 110.514375 
Q 312.962408 112.514375 314.962408 112.514375 
z
" style="fill: #ffffff; opacity: 0.8; stroke: #cccccc; stroke-linejoin: miter"/>
    </g>
    <g id="line2d_18">
     <path d="M 316.962408 73.578438 
L 326.962408 73.578438 
L 336.962408 73.578438 
" style="fill: none; stroke: #1f77b4; stroke-width: 1.5; stroke-linecap: square"/>
    </g>
    <g id="text_19">
     <text style="font: 10px 'sans-serif'; text-anchor: start" x="344.962408" y="77.078438" transform="rotate(-0, 344.962408, 77.078438)">SHC1</text>
    </g>
    <g id="line2d_19">
     <path d="M 316.962408 88.256563 
L 326.962408 88.256563 
L 336.962408 88.256563 
" style="fill: none; stroke: #d62728; stroke-width: 1.5; stroke-linecap: square"/>
    </g>
    <g id="text_20">
     <text style="font: 10px 'sans-serif'; text-anchor: start" x="344.962408" y="91.756563" transform="rotate(-0, 344.962408, 91.756563)">SHC2</text>
    </g>
    <g id="line2d_20">
     <path d="M 316.962408 102.934687 
L 326.962408 102.934687 
L 336.962408 102.934687 
" style="fill: none; stroke: #2ca02c; stroke-width: 1.5; stroke-linecap: square"/>
    </g>
    <g id="text_21">
     <text style="font: 10px 'sans-serif'; text-anchor: start" x="344.962408" y="106.434687" transform="rotate(-0, 344.962408, 106.434687)">total</text>
    </g>
   </g>
  </g>
  <g id="axes_2">
   <g id="patch_8">
    <path d="M 430.411765 448.56 
L 676.588235 448.56 
L 676.588235 60.48 
L 430.411765 60.48 
z
" style="fill: #ffffff"/>
   </g>
   <g id="matplotlib.axis_3">
    <g id="xtick_10">
     <g id="line2d_21">
      <g>
       <use xlink:href="#m7105a1f692" x="430.411765" y="448.56" style="stroke: #000000; stroke-width: 0.8"/>
      </g>
     </g>
     <g id="text_22">
      <text style="font: 10px 'sans-serif'; text-anchor: middle" x="430.411765" y="463.158437" transform="rotate(-0, 430.411765, 463.158437)">−0.08</text>
     </g>
    </g>
    <g id="xtick_11">
     <g id="line2d_22">
      <g>
       <use xlink:href="#m7105a1f692" x="461.183824" y="448.56" style="stroke: #000000; stroke-width: 0.8"/>
      </g>
     </g>
     <g id="text_23">
      <text style="font: 10px 'sans-serif'; text-anchor: middle" x="461.183824" y="463.158437" transform="rotate(-0, 461.183824, 463.158437)">−0.06</text>
     </g>
    </g>
    <g id="xtick_12">
     <g id="line2d_23">
      <g>
       <use xlink:href="#m7105a1f692" x="491.955882" y="448.56" style="stroke: #000000; stroke-width: 0.8"/>
      </g>
     </g>
     <g id="text_24">
      <text style="font: 10px 'sans-serif'; text-anchor: middle" x="491.955882" y="463.158437" transform="rotate(-0, 491.955882, 463.158437)">−0.04</text>
     </g>
    </g>
    <g id="xtick_13">
     <g id="line2d_24">
      <g>
       <use xlink:href="#m7105a1f692" x="522.727941" y="448.56" style="stroke: #000000; stroke-width: 0.8"/>
      </g>
     </g>
     <g id="text_25">
      <text style="font: 10px 'sans-serif'; text-anchor: middle" x="522.727941" y="463.158437" transform="rotate(-0, 522.727941, 463.158437)">−0.02</text>
     </g>
    </g>
    <g id="xtick_14">
     <g id="line2d_25">
      <g>
       <use xlink:href="#m7105a1f692" x="553.5" y="448.56" style="stroke: #000000; stroke-width: 0.8"/>
      </g>
     </g>
     <g id="text_26">
      <text style="font: 10px 'sans-serif'; text-anchor: middle" x="553.5" y="463.158437" transform="rotate(-0, 553.5, 463.158437)">0.00</text>
     </g>
    </g>
    <g id="xtick_15">
     <g id="line2d_26">
      <g>
       <use xlink:href="#m7105a1f692" x="584.272059" y="448.56" style="stroke: #000000; stroke-width: 0.8"/>
      </g>
     </g>
     <g id="text_27">
      <text style="font: 10px 'sans-serif'; text-anchor: middle" x="584.272059" y="463.158437" transform="rotate(-0, 584.272059, 463.158437)">0.02</text>
     </g>
    </g>
    <g id="xtick_16">
     <g id="line2d_27">
      <g>
       <use xlink:href="#m7105a1f692" x="615.044118" y="448.56" style="stroke: #000000; stroke-width: 0.8"/>
      </g>
     </g>
     <g id="text_28">
      <text style="font: 10px 'sans-serif'; text-anchor: middle" x="615.044118" y="463.158437" transform="rotate(-0, 615.044118, 463.158437)">0.04</text>
     </g>
    </g>
    <g id="xtick_17">
     <g id="line2d_28">
      <g>
       <use xlink:href="#m7105a1f692" x="645.816176" y="448.56" style="stroke: #000000; stroke-width: 0.8"/>
      </g>
     </g>
     <g id="text_29">
      <text style="font: 10px 'sans-serif'; text-anchor: middle" x="645.816176" y="463.158437" transform="rotate(-0, 645.816176, 463.158437)">0.06</text>
     </g>
    </g>
    <g id="xtick_18">
     <g id="line2d_29">
      <g>
       <use xlink:href="#m7105a1f692" x="676.588235" y="448.56" style="stroke: #000000; stroke-width: 0.8"/>
      </g>
     </g>
     <g id="text_30">
      <text style="font: 10px 'sans-serif'; text-anchor: middle" x="676.588235" y="463.158437" transform="rotate(-0, 676.588235, 463.158437)">0.08</text>
     </g>
    </g>
    <g id="text_31">
     <text style="font: 10px 'sans-serif'; text-anchor: middle" x="553.5" y="476.836563" transform="rotate(-0, 553.5, 476.836563)">mu [eV]</text>
    </g>
   </g>
   <g id="matplotlib.axis_4">
    <g id="ytick_6">
     <g id="line2d_30">
      <g>
       <use xlink:href="#mec25bef0bd" x="430.411765" y="426.11122" style="stroke: #000000; stroke-width: 0.8"/>
      </g>
     </g>
     <g id="text_32">
      <!-- $\mathdefault{−4}$ -->
      <g transform="translate(408.611765 429.910439)">
       <text>
        <tspan style="font: 10px 'DejaVu Sans'" x="0 8.378906" y="-0.703125">−4</tspan>
       </text>
      </g>
     </g>
    </g>
    <g id="ytick_7">
     <g id="line2d_31">
      <g>
       <use xlink:href="#mec25bef0bd" x="430.411765" y="340.31561" style="stroke: #000000; stroke-width: 0.8"/>
      </g>
     </g>
     <g id="text_33">
      <!-- $\mathdefault{−2}$ -->
      <g transform="translate(408.611765 344.114829)">
       <text>
        <tspan style="font: 10px 'DejaVu Sans'" x="0 8.378906" y="-0.578125">−2</tspan>
       </text>
      </g>
     </g>
    </g>
    <g id="ytick_8">
     <g id="line2d_32">
      <g>
       <use xlink:href="#mec25bef0bd" x="430.411765" y="254.52" style="stroke: #000000; stroke-width: 0.8"/>
      </g>
     </g>
     <g id="text_34">
      <!-- $\mathdefault{0}$ -->
      <g transform="translate(417.011765 258.319219)">
       <text>
        <tspan style="font: 10px 'DejaVu Sans'" x="0" y="-0.578125">0</tspan>
       </text>
      </g>
     </g>
    </g>
    <g id="ytick_9">
     <g id="line2d_33">
      <g>
       <use xlink:href="#mec25bef0bd" x="430.411765" y="168.72439" style="stroke: #000000; stroke-width: 0.8"/>
      </g>
     </g>
     <g id="text_35">
      <!-- $\mathdefault{2}$ -->
      <g transform="translate(417.011765 172.523609)">
       <text>
        <tspan style="font: 10px 'DejaVu Sans'" x="0" y="-0.578125">2</tspan>
       </text>
      </g>
     </g>
    </g>
    <g id="ytick_10">
     <g id="line2d_34">
      <g>
       <use xlink:href="#mec25bef0bd" x="430.411765" y="82.92878" style="stroke: #000000; stroke-width: 0.8"/>
      </g>
     </g>
     <g id="text_36">
      <!-- $\mathdefault{4}$ -->
      <g transform="translate(417.011765 86.727999)">
       <text>
        <tspan style="font: 10px 'DejaVu Sans'" x="0" y="-0.703125">4</tspan>
       </text>
      </g>
     </g>
    </g>
    <g id="text_37">
     <!-- $\times\mathdefault{10^{6}}\mathdefault{}$ -->
     <g transform="translate(430.411765 57.48)">
      <text>
       <tspan style="font: 10px 'DejaVu Sans'" x="0 8.378906 14.741211" y="-0.9765625">×10</tspan>
       <tspan style="font: 7px 'DejaVu Sans'" x="21.199219" y="-4.8046875">6</tspan>
      </text>
     </g>
    </g>
   </g>
   <g id="line2d_35">
    <path d="M 430.411765 317.725064 
L 441.814238 317.346299 
L 443.445361 317.297473 
L 445.261139 317.286789 
L 454.186152 316.902328 
L 455.540292 316.80795 
L 457.048311 316.615555 
L 458.771762 316.556704 
L 460.66448 316.40876 
L 462.649526 316.464077 
L 463.618967 316.399867 
L 465.342418 316.15845 
L 466.958153 315.982641 
L 468.543112 315.743561 
L 470.312727 315.549894 
L 471.051348 315.369053 
L 476.160149 313.881297 
L 478.622221 312.938013 
L 481.684424 311.209917 
L 483.146279 310.003903 
L 484.838954 308.063163 
L 486.14693 306.140241 
L 487.608786 303.196068 
L 489.086029 298.888184 
L 490.609436 291.969545 
L 491.671205 284.206486 
L 492.348275 277.252204 
L 493.28694 267.685444 
L 493.810131 264.854295 
L 494.56414 262.803158 
L 495.271986 261.651788 
L 496.841557 260.252514 
L 498.765052 259.559217 
L 499.9807 259.378749 
L 501.981134 259.467999 
L 503.504541 259.517609 
L 505.812734 259.861996 
L 507.674676 260.801445 
L 509.028816 262.026879 
L 510.136749 264.182433 
L 510.690715 266.320249 
L 511.090802 268.893843 
L 511.583216 273.782352 
L 512.845028 286.795074 
L 513.475934 291.413833 
L 513.829857 293.148993 
L 515.322489 299.741516 
L 516.922836 304.126178 
L 518.600123 307.196565 
L 520.185082 309.347472 
L 521.677713 310.848507 
L 523.662759 312.260828 
L 524.986123 312.967195 
L 528.940827 314.631234 
L 535.388379 316.125893 
L 537.281098 316.373618 
L 539.019936 316.658913 
L 541.897484 316.850083 
L 544.451884 316.810943 
L 546.20611 317.104256 
L 547.960337 317.121603 
L 549.945383 317.26321 
L 552.022757 317.420727 
L 554.7772 317.623792 
L 580.228874 318.20085 
L 582.152368 318.039567 
L 583.398792 317.974052 
L 595.386008 318.167925 
L 597.92502 318.221252 
L 600.571748 318.268377 
L 606.634601 318.282191 
L 608.588871 318.339509 
L 621.391648 318.403496 
L 623.607513 318.481779 
L 626.946699 318.452711 
L 629.670367 318.439073 
L 633.363476 318.454631 
L 636.133307 318.434485 
L 644.612069 318.416037 
L 646.766383 318.495912 
L 652.967728 318.431663 
L 656.937819 318.347774 
L 659.538383 318.195326 
L 662.323603 318.042978 
L 665.047271 318.131698 
L 667.83249 318.127266 
L 669.202018 318.233264 
L 670.771589 318.039484 
L 672.57198 318.179009 
L 674.957112 318.179907 
L 676.588235 318.207825 
L 676.588235 318.207825 
" clip-path="url(#p16d2c83780)" style="fill: none; stroke: #1f77b4; stroke-width: 1.5; stroke-linecap: square"/>
   </g>
   <g id="line2d_36">
    <path d="M 430.411765 254.52 
L 436.274575 259.924133 
L 438.56738 262.280753 
L 443.276093 267.413224 
L 449.385111 274.450771 
L 452.416537 278.464986 
L 458.894866 287.962546 
L 463.880562 295.84368 
L 466.204143 300.101447 
L 469.928028 307.38739 
L 471.94385 311.779909 
L 474.082775 316.893984 
L 476.852607 324.102076 
L 479.514722 331.889584 
L 481.222785 337.426078 
L 483.654082 346.465221 
L 485.131325 352.811976 
L 486.516241 359.565539 
L 487.962709 367.699275 
L 489.870815 380.133031 
L 490.6556 386.249637 
L 491.732757 398.068686 
L 493.410044 418.08867 
L 493.794743 420.113387 
L 494.594916 422.478609 
L 495.225822 423.624478 
L 496.949273 424.977389 
L 498.641948 425.669488 
L 500.088415 425.922224 
L 504.166223 425.807284 
L 505.181828 425.605086 
L 506.351312 425.245723 
L 507.659288 424.58063 
L 509.028816 423.358997 
L 510.075197 421.395763 
L 510.813819 418.062982 
L 511.090802 415.994765 
L 511.567828 410.698921 
L 513.599038 385.174304 
L 516.692017 364.867558 
L 518.954046 353.286899 
L 520.569781 346.263067 
L 522.293232 339.66236 
L 523.985906 333.858607 
L 525.663193 328.63635 
L 527.278928 324.038007 
L 529.094707 319.240284 
L 532.172297 311.782481 
L 535.465319 304.669664 
L 538.942997 297.896911 
L 541.297353 293.769999 
L 545.68292 287.015131 
L 550.206978 280.322022 
L 553.192241 276.32439 
L 557.008453 271.535566 
L 561.763331 266.077162 
L 566.087345 261.33395 
L 569.549635 257.911797 
L 578.166889 249.993449 
L 581.61379 247.242086 
L 585.353063 244.506159 
L 588.67686 242.077613 
L 594.585834 238.011883 
L 597.801916 236.074152 
L 600.002394 234.575463 
L 604.711107 231.454559 
L 607.450163 229.724197 
L 611.020168 227.353665 
L 618.82186 222.843637 
L 622.776564 220.832495 
L 628.131572 218.288721 
L 636.441066 214.124461 
L 645.012156 210.157966 
L 652.644581 206.87568 
L 668.648052 200.511727 
L 676.588235 197.938368 
L 676.588235 197.938368 
" clip-path="url(#p16d2c83780)" style="fill: none; stroke: #d62728; stroke-width: 1.5; stroke-linecap: square"/>
   </g>
   <g id="line2d_37">
    <path d="M 430.411765 317.725064 
L 436.766989 323.417279 
L 443.229929 330.126871 
L 446.015149 333.243181 
L 449.892913 337.618698 
L 451.708692 339.949883 
L 454.216928 343.447286 
L 455.832663 345.620726 
L 457.125251 347.373624 
L 459.741203 351.176774 
L 462.634138 355.637821 
L 466.050264 361.346686 
L 470.959021 370.468748 
L 473.498033 375.6602 
L 476.867995 383.26493 
L 480.422612 392.277866 
L 483.469426 400.872522 
L 485.669904 407.679263 
L 487.670337 414.408753 
L 489.347624 419.809736 
L 490.840256 424.008477 
L 492.625258 429.585634 
L 493.256164 430.340223 
L 494.04095 430.555816 
L 495.441254 430.776342 
L 497.19548 430.67905 
L 502.273505 430.868867 
L 507.074546 430.841535 
L 510.152137 430.807009 
L 510.813819 430.48215 
L 511.198517 430.268047 
L 511.613992 429.696687 
L 512.368002 427.855921 
L 512.82964 426.869616 
L 512.968132 426.332114 
L 513.645202 422.608988 
L 515.199385 419.199511 
L 519.154089 405.849351 
L 521.385342 399.100704 
L 524.462933 390.529073 
L 527.186601 383.713152 
L 529.479406 378.515865 
L 531.695271 373.755973 
L 535.2345 366.730391 
L 537.635021 362.299128 
L 542.513002 354.133919 
L 544.374944 351.281862 
L 546.390766 348.496046 
L 548.144992 345.890935 
L 552.74599 339.888935 
L 560.824666 330.45866 
L 565.964242 324.925837 
L 569.534247 321.488339 
L 577.320551 314.398259 
L 581.121375 311.24858 
L 584.629829 308.542957 
L 587.153453 306.743454 
L 592.723892 302.908943 
L 594.53967 301.684198 
L 602.218259 296.81087 
L 606.480722 294.117649 
L 608.327276 292.929033 
L 611.666462 290.708486 
L 619.375826 286.388962 
L 621.576304 285.288666 
L 623.761393 284.342411 
L 631.486145 280.400963 
L 633.578907 279.414442 
L 645.396855 273.952002 
L 646.889486 273.300692 
L 651.905959 271.078474 
L 654.75273 269.862967 
L 661.538817 266.831361 
L 666.124427 265.017147 
L 667.786326 264.392661 
L 669.278958 264.029605 
L 670.940857 263.391301 
L 672.633531 262.904277 
L 674.44931 262.312251 
L 676.526683 261.647273 
L 676.588235 261.626193 
L 676.588235 261.626193 
" clip-path="url(#p16d2c83780)" style="fill: none; stroke: #2ca02c; stroke-width: 1.5; stroke-linecap: square"/>
   </g>
   <g id="patch_9">
    <path d="M 430.411765 448.56 
L 430.411765 60.48 
" style="fill: none; stroke: #000000; stroke-width: 0.8; stroke-linejoin: miter; stroke-linecap: square"/>
   </g>
   <g id="patch_10">
    <path d="M 676.588235 448.56 
L 676.588235 60.48 
" style="fill: none; stroke: #000000; stroke-width: 0.8; stroke-linejoin: miter; stroke-linecap: square"/>
   </g>
   <g id="patch_11">
    <path d="M 430.411765 448.56 
L 676.588235 448.56 
" style="fill: none; stroke: #000000; stroke-width: 0.8; stroke-linejoin: miter; stroke-linecap: square"/>
   </g>
   <g id="patch_12">
    <path d="M 430.411765 60.48 
L 676.588235 60.48 
" style="fill: none; stroke: #000000; stroke-width: 0.8; stroke-linejoin: miter; stroke-linecap: square"/>
   </g>
   <g id="text_38">
    <text style="font: 12px 'sans-serif'; text-anchor: middle" x="553.5" y="54.48" transform="rotate(-0, 553.5, 54.48)"> yzx</text>
   </g>
   <g id="legend_2">
    <g id="patch_13">
     <path d="M 610.374173 112.514375 
L 669.588235 112.514375 
Q 671.588235 112.514375 671.588235 110.514375 
L 671.588235 67.48 
Q 671.588235 65.48 669.588235 65.48 
L 610.374173 65.48 
Q 608.374173 65.48 608.374173 67.48 
L 608.374173 110.514375 
Q 608.374173 112.514375 610.374173 112.514375 
z
" style="fill: #ffffff; opacity: 0.8; stroke: #cccccc; stroke-linejoin: miter"/>
    </g>
    <g id="line2d_38">
     <path d="M 612.374173 73.578438 
L 622.374173 73.578438 
L 632.374173 73.578438 
" style="fill: none; stroke: #1f77b4; stroke-width: 1.5; stroke-linecap: square"/>
    </g>
    <g id="text_39">
     <text style="font: 10px 'sans-serif'; text-anchor: start" x="640.374173" y="77.078438" transform="rotate(-0, 640.374173, 77.078438)">SHC1</text>
    </g>
    <g id="line2d_39">
     <path d="M 612.374173 88.256563 
L 622.374173 88.256563 
L 632.374173 88.256563 
" style="fill: none; stroke: #d62728; stroke-width: 1.5; stroke-linecap: square"/>
    </g>
    <g id="text_40">
     <text style="font: 10px 'sans-serif'; text-anchor: start" x="640.374173" y="91.756563" transform="rotate(-0, 640.374173, 91.756563)">SHC2</text>
    </g>
    <g id="line2d_40">
     <path d="M 612.374173 102.934687 
L 622.374173 102.934687 
L 632.374173 102.934687 
" style="fill: none; stroke: #2ca02c; stroke-width: 1.5; stroke-linecap: square"/>
    </g>
    <g id="text_41">
     <text style="font: 10px 'sans-serif'; text-anchor: start" x="640.374173" y="106.434687" transform="rotate(-0, 640.374173, 106.434687)">total</text>
    </g>
   </g>
  </g>
  <g id="axes_3">
   <g id="patch_14">
    <path d="M 725.823529 448.56 
L 972 448.56 
L 972 60.48 
L 725.823529 60.48 
z
" style="fill: #ffffff"/>
   </g>
   <g id="matplotlib.axis_5">
    <g id="xtick_19">
     <g id="line2d_41">
      <g>
       <use xlink:href="#m7105a1f692" x="725.823529" y="448.56" style="stroke: #000000; stroke-width: 0.8"/>
      </g>
     </g>
     <g id="text_42">
      <text style="font: 10px 'sans-serif'; text-anchor: middle" x="725.823529" y="463.158437" transform="rotate(-0, 725.823529, 463.158437)">−0.08</text>
     </g>
    </g>
    <g id="xtick_20">
     <g id="line2d_42">
      <g>
       <use xlink:href="#m7105a1f692" x="756.595588" y="448.56" style="stroke: #000000; stroke-width: 0.8"/>
      </g>
     </g>
     <g id="text_43">
      <text style="font: 10px 'sans-serif'; text-anchor: middle" x="756.595588" y="463.158437" transform="rotate(-0, 756.595588, 463.158437)">−0.06</text>
     </g>
    </g>
    <g id="xtick_21">
     <g id="line2d_43">
      <g>
       <use xlink:href="#m7105a1f692" x="787.367647" y="448.56" style="stroke: #000000; stroke-width: 0.8"/>
      </g>
     </g>
     <g id="text_44">
      <text style="font: 10px 'sans-serif'; text-anchor: middle" x="787.367647" y="463.158437" transform="rotate(-0, 787.367647, 463.158437)">−0.04</text>
     </g>
    </g>
    <g id="xtick_22">
     <g id="line2d_44">
      <g>
       <use xlink:href="#m7105a1f692" x="818.139706" y="448.56" style="stroke: #000000; stroke-width: 0.8"/>
      </g>
     </g>
     <g id="text_45">
      <text style="font: 10px 'sans-serif'; text-anchor: middle" x="818.139706" y="463.158437" transform="rotate(-0, 818.139706, 463.158437)">−0.02</text>
     </g>
    </g>
    <g id="xtick_23">
     <g id="line2d_45">
      <g>
       <use xlink:href="#m7105a1f692" x="848.911765" y="448.56" style="stroke: #000000; stroke-width: 0.8"/>
      </g>
     </g>
     <g id="text_46">
      <text style="font: 10px 'sans-serif'; text-anchor: middle" x="848.911765" y="463.158437" transform="rotate(-0, 848.911765, 463.158437)">0.00</text>
     </g>
    </g>
    <g id="xtick_24">
     <g id="line2d_46">
      <g>
       <use xlink:href="#m7105a1f692" x="879.683824" y="448.56" style="stroke: #000000; stroke-width: 0.8"/>
      </g>
     </g>
     <g id="text_47">
      <text style="font: 10px 'sans-serif'; text-anchor: middle" x="879.683824" y="463.158437" transform="rotate(-0, 879.683824, 463.158437)">0.02</text>
     </g>
    </g>
    <g id="xtick_25">
     <g id="line2d_47">
      <g>
       <use xlink:href="#m7105a1f692" x="910.455882" y="448.56" style="stroke: #000000; stroke-width: 0.8"/>
      </g>
     </g>
     <g id="text_48">
      <text style="font: 10px 'sans-serif'; text-anchor: middle" x="910.455882" y="463.158437" transform="rotate(-0, 910.455882, 463.158437)">0.04</text>
     </g>
    </g>
    <g id="xtick_26">
     <g id="line2d_48">
      <g>
       <use xlink:href="#m7105a1f692" x="941.227941" y="448.56" style="stroke: #000000; stroke-width: 0.8"/>
      </g>
     </g>
     <g id="text_49">
      <text style="font: 10px 'sans-serif'; text-anchor: middle" x="941.227941" y="463.158437" transform="rotate(-0, 941.227941, 463.158437)">0.06</text>
     </g>
    </g>
    <g id="xtick_27">
     <g id="line2d_49">
      <g>
       <use xlink:href="#m7105a1f692" x="972" y="448.56" style="stroke: #000000; stroke-width: 0.8"/>
      </g>
     </g>
     <g id="text_50">
      <text style="font: 10px 'sans-serif'; text-anchor: middle" x="972" y="463.158437" transform="rotate(-0, 972, 463.158437)">0.08</text>
     </g>
    </g>
    <g id="text_51">
     <text style="font: 10px 'sans-serif'; text-anchor: middle" x="848.911765" y="476.836563" transform="rotate(-0, 848.911765, 476.836563)">mu [eV]</text>
    </g>
   </g>
   <g id="matplotlib.axis_6">
    <g id="ytick_11">
     <g id="line2d_50">
      <g>
       <use xlink:href="#mec25bef0bd" x="725.823529" y="426.11122" style="stroke: #000000; stroke-width: 0.8"/>
      </g>
     </g>
     <g id="text_52">
      <!-- $\mathdefault{−4}$ -->
      <g transform="translate(704.023529 429.910439)">
       <text>
        <tspan style="font: 10px 'DejaVu Sans'" x="0 8.378906" y="-0.703125">−4</tspan>
       </text>
      </g>
     </g>
    </g>
    <g id="ytick_12">
     <g id="line2d_51">
      <g>
       <use xlink:href="#mec25bef0bd" x="725.823529" y="340.31561" style="stroke: #000000; stroke-width: 0.8"/>
      </g>
     </g>
     <g id="text_53">
      <!-- $\mathdefault{−2}$ -->
      <g transform="translate(704.023529 344.114829)">
       <text>
        <tspan style="font: 10px 'DejaVu Sans'" x="0 8.378906" y="-0.578125">−2</tspan>
       </text>
      </g>
     </g>
    </g>
    <g id="ytick_13">
     <g id="line2d_52">
      <g>
       <use xlink:href="#mec25bef0bd" x="725.823529" y="254.52" style="stroke: #000000; stroke-width: 0.8"/>
      </g>
     </g>
     <g id="text_54">
      <!-- $\mathdefault{0}$ -->
      <g transform="translate(712.423529 258.319219)">
       <text>
        <tspan style="font: 10px 'DejaVu Sans'" x="0" y="-0.578125">0</tspan>
       </text>
      </g>
     </g>
    </g>
    <g id="ytick_14">
     <g id="line2d_53">
      <g>
       <use xlink:href="#mec25bef0bd" x="725.823529" y="168.72439" style="stroke: #000000; stroke-width: 0.8"/>
      </g>
     </g>
     <g id="text_55">
      <!-- $\mathdefault{2}$ -->
      <g transform="translate(712.423529 172.523609)">
       <text>
        <tspan style="font: 10px 'DejaVu Sans'" x="0" y="-0.578125">2</tspan>
       </text>
      </g>
     </g>
    </g>
    <g id="ytick_15">
     <g id="line2d_54">
      <g>
       <use xlink:href="#mec25bef0bd" x="725.823529" y="82.92878" style="stroke: #000000; stroke-width: 0.8"/>
      </g>
     </g>
     <g id="text_56">
      <!-- $\mathdefault{4}$ -->
      <g transform="translate(712.423529 86.727999)">
       <text>
        <tspan style="font: 10px 'DejaVu Sans'" x="0" y="-0.703125">4</tspan>
       </text>
      </g>
     </g>
    </g>
    <g id="text_57">
     <!-- $\times\mathdefault{10^{6}}\mathdefault{}$ -->
     <g transform="translate(725.823529 57.48)">
      <text>
       <tspan style="font: 10px 'DejaVu Sans'" x="0 8.378906 14.741211" y="-0.9765625">×10</tspan>
       <tspan style="font: 7px 'DejaVu Sans'" x="21.199219" y="-4.8046875">6</tspan>
      </text>
     </g>
    </g>
   </g>
   <g id="line2d_55">
    <path d="M 725.823529 317.122624 
L 729.178103 317.14012 
L 735.456388 317.013366 
L 737.533762 316.922059 
L 738.903289 316.885967 
L 742.103984 316.893101 
L 743.365796 316.785671 
L 744.796875 316.64588 
L 747.058904 316.631258 
L 754.491286 316.171728 
L 755.922365 316.060227 
L 757.338057 316.13239 
L 758.630645 316.18159 
L 763.570178 315.59047 
L 768.786694 314.553957 
L 770.140834 314.114117 
L 773.895494 312.745576 
L 777.634767 310.701749 
L 778.496492 309.963292 
L 780.343047 307.816297 
L 781.512531 306.09974 
L 783.051326 302.941357 
L 784.482406 298.828088 
L 786.021201 291.875835 
L 787.067582 284.241713 
L 787.790816 276.798538 
L 788.667929 267.798897 
L 789.221895 264.742199 
L 789.975905 262.704234 
L 790.683751 261.555645 
L 792.253322 260.162699 
L 794.176816 259.471445 
L 795.377077 259.292241 
L 797.392898 259.391816 
L 798.931694 259.445686 
L 801.209111 259.788191 
L 802.347819 260.290113 
L 803.071053 260.725719 
L 804.440581 261.969727 
L 805.548513 264.114974 
L 806.10248 266.267648 
L 806.517954 268.966484 
L 806.994981 273.722809 
L 808.149077 285.78273 
L 808.856923 291.056126 
L 809.25701 293.097003 
L 810.734254 299.682376 
L 812.365377 304.150889 
L 813.965724 307.17177 
L 815.596847 309.383417 
L 817.027926 310.814916 
L 819.1053 312.203798 
L 821.013406 313.206657 
L 822.813797 313.978339 
L 827.291691 315.369061 
L 831.384886 316.172147 
L 833.031397 316.427359 
L 834.600969 316.618656 
L 837.89399 316.801119 
L 840.325287 316.890947 
L 844.526198 317.255496 
L 846.418916 317.33158 
L 848.311635 317.54004 
L 850.127413 317.520215 
L 851.327673 317.581485 
L 855.051558 317.786361 
L 862.206956 318.015576 
L 864.992175 318.097321 
L 866.423255 318.150674 
L 868.177482 318.133101 
L 871.024253 318.204477 
L 877.056331 318.117143 
L 879.564567 318.020401 
L 882.134355 318.118495 
L 883.626986 318.109661 
L 884.842635 318.149162 
L 886.319878 318.255773 
L 888.735787 318.173179 
L 895.814245 318.294209 
L 897.029893 318.352705 
L 898.691792 318.258272 
L 901.33852 318.357518 
L 907.262882 318.308058 
L 911.956208 318.384373 
L 913.587331 318.42888 
L 920.619625 318.391502 
L 922.081481 318.409818 
L 924.081915 318.431546 
L 928.159722 318.468257 
L 929.575414 318.476313 
L 931.40658 318.432833 
L 936.06913 318.474965 
L 952.53424 318.331283 
L 954.580837 318.159616 
L 956.96597 317.948616 
L 965.367792 318.046319 
L 966.198742 318.035667 
L 967.860641 318.204773 
L 970.830516 318.130392 
L 972 318.1475 
L 972 318.1475 
" clip-path="url(#p174ae8a6e6)" style="fill: none; stroke: #1f77b4; stroke-width: 1.5; stroke-linecap: square"/>
   </g>
   <g id="line2d_56">
    <path d="M 725.823529 254.52 
L 729.50125 257.944439 
L 735.502552 263.999972 
L 739.641911 268.514132 
L 744.673772 274.233451 
L 747.735974 278.181959 
L 753.937319 286.934947 
L 759.784741 296.114885 
L 763.416298 302.898905 
L 766.03225 308.259706 
L 769.002125 315.112726 
L 772.295147 323.666227 
L 775.28041 332.390342 
L 777.650155 340.359996 
L 779.11201 345.970895 
L 780.512314 351.992368 
L 781.943394 358.967249 
L 783.389861 367.101641 
L 785.251804 379.214788 
L 786.067365 385.547848 
L 787.15991 397.570828 
L 788.821809 417.397206 
L 789.206507 419.41955 
L 790.006681 421.782588 
L 790.637587 422.927122 
L 792.34565 424.267647 
L 794.053713 424.962578 
L 795.50018 425.211555 
L 799.577988 425.08598 
L 800.593593 424.881458 
L 801.763077 424.519458 
L 803.071053 423.851328 
L 804.440581 422.626694 
L 805.486962 420.662305 
L 806.225583 417.329785 
L 806.502566 415.25963 
L 806.979593 409.96188 
L 809.010803 384.451446 
L 812.119169 364.097798 
L 814.36581 352.636849 
L 815.981545 345.643475 
L 817.735772 338.943981 
L 819.459223 333.031093 
L 820.90569 328.564473 
L 822.813797 323.115959 
L 826.16837 314.455525 
L 829.076693 307.788468 
L 833.123725 299.593584 
L 835.370366 295.40579 
L 838.401793 290.371669 
L 843.772188 282.073281 
L 847.634565 276.637359 
L 852.158623 270.866337 
L 856.744233 265.534881 
L 862.93019 258.960213 
L 866.83873 255.263914 
L 874.978957 247.912276 
L 876.179217 247.053505 
L 879.487627 244.583952 
L 882.349786 242.351302 
L 891.213247 235.760936 
L 899.53813 230.109007 
L 903.385118 227.622069 
L 907.185942 225.280994 
L 914.510608 221.164315 
L 916.818801 219.867836 
L 919.83484 218.334714 
L 925.035968 215.656664 
L 932.052874 212.272271 
L 937.053959 210.167541 
L 946.717593 206.20112 
L 951.887946 203.981888 
L 953.81144 203.269665 
L 957.750756 202.022939 
L 965.167749 199.322945 
L 972 197.284191 
L 972 197.284191 
" clip-path="url(#p174ae8a6e6)" style="fill: none; stroke: #d62728; stroke-width: 1.5; stroke-linecap: square"/>
   </g>
   <g id="line2d_57">
    <path d="M 725.823529 317.122624 
L 732.13259 323.135608 
L 738.364711 329.45017 
L 743.211916 334.814272 
L 744.796875 336.511004 
L 751.1521 344.790737 
L 755.368399 350.681242 
L 757.676592 354.311615 
L 764.385739 365.732884 
L 767.478718 371.834116 
L 771.325706 380.285215 
L 775.034203 389.247057 
L 776.080584 392.107461 
L 779.019683 400.484721 
L 780.820073 406.050031 
L 783.466801 414.887791 
L 784.759389 418.981397 
L 786.236633 423.17097 
L 787.990859 428.720445 
L 788.775645 429.59365 
L 789.529654 429.775309 
L 790.776079 429.992072 
L 792.622633 429.887333 
L 797.792985 430.074136 
L 802.594026 430.050214 
L 805.548513 430.016804 
L 806.179419 429.715208 
L 806.564118 429.525878 
L 806.948817 429.041564 
L 807.533559 427.755116 
L 808.302957 425.933898 
L 808.379897 425.517241 
L 809.056967 421.750341 
L 810.595762 418.494606 
L 814.119603 406.660966 
L 816.797107 398.51931 
L 819.843922 389.898266 
L 823.167719 381.746498 
L 825.906775 375.620048 
L 828.984366 369.214865 
L 835.401142 357.525615 
L 840.294511 349.737007 
L 844.033784 344.407014 
L 848.188531 338.922287 
L 852.866469 333.177371 
L 856.867336 328.740252 
L 864.653641 320.821924 
L 866.623299 319.078638 
L 868.823776 317.046934 
L 876.025338 310.809041 
L 878.841333 308.62443 
L 881.472673 306.571035 
L 883.780866 304.841207 
L 884.858023 304.098457 
L 886.273714 303.17168 
L 888.997382 300.991101 
L 893.059802 298.203392 
L 897.522308 295.260365 
L 898.814896 294.349878 
L 902.538781 291.97964 
L 905.677923 289.961351 
L 907.909176 288.683932 
L 910.001938 287.484549 
L 911.848492 286.454844 
L 922.420016 280.92847 
L 924.389674 279.888914 
L 934.1918 275.291233 
L 947.240784 269.877082 
L 950.626133 268.391817 
L 954.842433 266.577494 
L 957.704592 265.487245 
L 964.275248 263.269014 
L 964.998481 262.95358 
L 966.275682 262.505339 
L 968.01452 262.099787 
L 970.261161 261.437515 
L 972 260.911691 
L 972 260.911691 
" clip-path="url(#p174ae8a6e6)" style="fill: none; stroke: #2ca02c; stroke-width: 1.5; stroke-linecap: square"/>
   </g>
   <g id="patch_15">
    <path d="M 725.823529 448.56 
L 725.823529 60.48 
" style="fill: none; stroke: #000000; stroke-width: 0.8; stroke-linejoin: miter; stroke-linecap: square"/>
   </g>
   <g id="patch_16">
    <path d="M 972 448.56 
L 972 60.48 
" style="fill: none; stroke: #000000; stroke-width: 0.8; stroke-linejoin: miter; stroke-linecap: square"/>
   </g>
   <g id="patch_17">
    <path d="M 725.823529 448.56 
L 972 448.56 
" style="fill: none; stroke: #000000; stroke-width: 0.8; stroke-linejoin: miter; stroke-linecap: square"/>
   </g>
   <g id="patch_18">
    <path d="M 725.823529 60.48 
L 972 60.48 
" style="fill: none; stroke: #000000; stroke-width: 0.8; stroke-linejoin: miter; stroke-linecap: square"/>
   </g>
   <g id="text_58">
    <text style="font: 12px 'sans-serif'; text-anchor: middle" x="848.911765" y="54.48" transform="rotate(-0, 848.911765, 54.48)"> zxy</text>
   </g>
   <g id="legend_3">
    <g id="patch_19">
     <path d="M 905.785938 112.514375 
L 965 112.514375 
Q 967 112.514375 967 110.514375 
L 967 67.48 
Q 967 65.48 965 65.48 
L 905.785938 65.48 
Q 903.785938 65.48 903.785938 67.48 
L 903.785938 110.514375 
Q 903.785938 112.514375 905.785938 112.514375 
z
" style="fill: #ffffff; opacity: 0.8; stroke: #cccccc; stroke-linejoin: miter"/>
    </g>
    <g id="line2d_58">
     <path d="M 907.785938 73.578438 
L 917.785938 73.578438 
L 927.785938 73.578438 
" style="fill: none; stroke: #1f77b4; stroke-width: 1.5; stroke-linecap: square"/>
    </g>
    <g id="text_59">
     <text style="font: 10px 'sans-serif'; text-anchor: start" x="935.785938" y="77.078438" transform="rotate(-0, 935.785938, 77.078438)">SHC1</text>
    </g>
    <g id="line2d_59">
     <path d="M 907.785938 88.256563 
L 917.785938 88.256563 
L 927.785938 88.256563 
" style="fill: none; stroke: #d62728; stroke-width: 1.5; stroke-linecap: square"/>
    </g>
    <g id="text_60">
     <text style="font: 10px 'sans-serif'; text-anchor: start" x="935.785938" y="91.756563" transform="rotate(-0, 935.785938, 91.756563)">SHC2</text>
    </g>
    <g id="line2d_60">
     <path d="M 907.785938 102.934687 
L 917.785938 102.934687 
L 927.785938 102.934687 
" style="fill: none; stroke: #2ca02c; stroke-width: 1.5; stroke-linecap: square"/>
    </g>
    <g id="text_61">
     <text style="font: 10px 'sans-serif'; text-anchor: start" x="935.785938" y="106.434687" transform="rotate(-0, 935.785938, 106.434687)">total</text>
    </g>
   </g>
  </g>
 </g>
 <defs>
  <clipPath id="pbe0c4c7228">
   <rect x="135" y="60.48" width="246.176471" height="388.08"/>
  </clipPath>
  <clipPath id="p16d2c83780">
   <rect x="430.411765" y="60.48" width="246.176471" height="388.08"/>
  </clipPath>
  <clipPath id="p174ae8a6e6">
   <rect x="725.823529" y="60.48" width="246.176471" height="388.08"/>
  </clipPath>
 </defs>
</svg>
