<?xml version="1.0" encoding="utf-8" standalone="no"?>
<!DOCTYPE svg PUBLIC "-//W3C//DTD SVG 1.1//EN"
  "http://www.w3.org/Graphics/SVG/1.1/DTD/svg11.dtd">
<svg xmlns:xlink="http://www.w3.org/1999/xlink" width="1080pt" height="504pt" viewBox="0 0 1080 504" xmlns="http://www.w3.org/2000/svg" version="1.1">
 <metadata>
  <rdf:RDF xmlns:dc="http://purl.org/dc/elements/1.1/" xmlns:cc="http://creativecommons.org/ns#" xmlns:rdf="http://www.w3.org/1999/02/22-rdf-syntax-ns#">
   <cc:Work>
    <dc:type rdf:resource="http://purl.org/dc/dcmitype/StillImage"/>
    <dc:date>2022-06-25T18:29:20.223984</dc:date>
    <dc:format>image/svg+xml</dc:format>
    <dc:creator>
     <cc:Agent>
      <dc:title>Matplotlib v3.5.2, https://matplotlib.org/</dc:title>
     </cc:Agent>
    </dc:creator>
   </cc:Work>
  </rdf:RDF>
 </metadata>
 <defs>
  <style type="text/css">*{stroke-linejoin: round; stroke-linecap: butt}</style>
 </defs>
 <g id="figure_1">
  <g id="patch_1">
   <path d="M 0 504 
L 1080 504 
L 1080 0 
L 0 0 
z
" style="fill: #ffffff"/>
  </g>
  <g id="axes_1">
   <g id="patch_2">
    <path d="M 135 448.56 
L 381.176471 448.56 
L 381.176471 60.48 
L 135 60.48 
z
" style="fill: #ffffff"/>
   </g>
   <g id="matplotlib.axis_1">
    <g id="xtick_1">
     <g id="line2d_1">
      <defs>
       <path id="m9299a920f6" d="M 0 0 
L 0 3.5 
" style="stroke: #000000; stroke-width: 0.8"/>
      </defs>
      <g>
       <use xlink:href="#m9299a920f6" x="135" y="448.56" style="stroke: #000000; stroke-width: 0.8"/>
      </g>
     </g>
     <g id="text_1">
      <text style="font: 10px 'sans-serif'; text-anchor: middle" x="135" y="463.158437" transform="rotate(-0, 135, 463.158437)">−0.08</text>
     </g>
    </g>
    <g id="xtick_2">
     <g id="line2d_2">
      <g>
       <use xlink:href="#m9299a920f6" x="165.772059" y="448.56" style="stroke: #000000; stroke-width: 0.8"/>
      </g>
     </g>
     <g id="text_2">
      <text style="font: 10px 'sans-serif'; text-anchor: middle" x="165.772059" y="463.158437" transform="rotate(-0, 165.772059, 463.158437)">−0.06</text>
     </g>
    </g>
    <g id="xtick_3">
     <g id="line2d_3">
      <g>
       <use xlink:href="#m9299a920f6" x="196.544118" y="448.56" style="stroke: #000000; stroke-width: 0.8"/>
      </g>
     </g>
     <g id="text_3">
      <text style="font: 10px 'sans-serif'; text-anchor: middle" x="196.544118" y="463.158437" transform="rotate(-0, 196.544118, 463.158437)">−0.04</text>
     </g>
    </g>
    <g id="xtick_4">
     <g id="line2d_4">
      <g>
       <use xlink:href="#m9299a920f6" x="227.316176" y="448.56" style="stroke: #000000; stroke-width: 0.8"/>
      </g>
     </g>
     <g id="text_4">
      <text style="font: 10px 'sans-serif'; text-anchor: middle" x="227.316176" y="463.158437" transform="rotate(-0, 227.316176, 463.158437)">−0.02</text>
     </g>
    </g>
    <g id="xtick_5">
     <g id="line2d_5">
      <g>
       <use xlink:href="#m9299a920f6" x="258.088235" y="448.56" style="stroke: #000000; stroke-width: 0.8"/>
      </g>
     </g>
     <g id="text_5">
      <text style="font: 10px 'sans-serif'; text-anchor: middle" x="258.088235" y="463.158437" transform="rotate(-0, 258.088235, 463.158437)">0.00</text>
     </g>
    </g>
    <g id="xtick_6">
     <g id="line2d_6">
      <g>
       <use xlink:href="#m9299a920f6" x="288.860294" y="448.56" style="stroke: #000000; stroke-width: 0.8"/>
      </g>
     </g>
     <g id="text_6">
      <text style="font: 10px 'sans-serif'; text-anchor: middle" x="288.860294" y="463.158437" transform="rotate(-0, 288.860294, 463.158437)">0.02</text>
     </g>
    </g>
    <g id="xtick_7">
     <g id="line2d_7">
      <g>
       <use xlink:href="#m9299a920f6" x="319.632353" y="448.56" style="stroke: #000000; stroke-width: 0.8"/>
      </g>
     </g>
     <g id="text_7">
      <text style="font: 10px 'sans-serif'; text-anchor: middle" x="319.632353" y="463.158437" transform="rotate(-0, 319.632353, 463.158437)">0.04</text>
     </g>
    </g>
    <g id="xtick_8">
     <g id="line2d_8">
      <g>
       <use xlink:href="#m9299a920f6" x="350.404412" y="448.56" style="stroke: #000000; stroke-width: 0.8"/>
      </g>
     </g>
     <g id="text_8">
      <text style="font: 10px 'sans-serif'; text-anchor: middle" x="350.404412" y="463.158437" transform="rotate(-0, 350.404412, 463.158437)">0.06</text>
     </g>
    </g>
    <g id="xtick_9">
     <g id="line2d_9">
      <g>
       <use xlink:href="#m9299a920f6" x="381.176471" y="448.56" style="stroke: #000000; stroke-width: 0.8"/>
      </g>
     </g>
     <g id="text_9">
      <text style="font: 10px 'sans-serif'; text-anchor: middle" x="381.176471" y="463.158437" transform="rotate(-0, 381.176471, 463.158437)">0.08</text>
     </g>
    </g>
    <g id="text_10">
     <text style="font: 10px 'sans-serif'; text-anchor: middle" x="258.088235" y="476.836563" transform="rotate(-0, 258.088235, 476.836563)">mu [eV]</text>
    </g>
   </g>
   <g id="matplotlib.axis_2">
    <g id="ytick_1">
     <g id="line2d_10">
      <defs>
       <path id="m6e25e6ee8c" d="M 0 0 
L -3.5 0 
" style="stroke: #000000; stroke-width: 0.8"/>
      </defs>
      <g>
       <use xlink:href="#m6e25e6ee8c" x="135" y="425.962442" style="stroke: #000000; stroke-width: 0.8"/>
      </g>
     </g>
     <g id="text_11">
      <!-- $\mathdefault{−4}$ -->
      <g transform="translate(113.2 429.76166)">
       <text>
        <tspan style="font: 10px 'DejaVu Sans'" x="0 8.378906" y="-0.703125">−4</tspan>
       </text>
      </g>
     </g>
    </g>
    <g id="ytick_2">
     <g id="line2d_11">
      <g>
       <use xlink:href="#m6e25e6ee8c" x="135" y="340.241221" style="stroke: #000000; stroke-width: 0.8"/>
      </g>
     </g>
     <g id="text_12">
      <!-- $\mathdefault{−2}$ -->
      <g transform="translate(113.2 344.04044)">
       <text>
        <tspan style="font: 10px 'DejaVu Sans'" x="0 8.378906" y="-0.578125">−2</tspan>
       </text>
      </g>
     </g>
    </g>
    <g id="ytick_3">
     <g id="line2d_12">
      <g>
       <use xlink:href="#m6e25e6ee8c" x="135" y="254.52" style="stroke: #000000; stroke-width: 0.8"/>
      </g>
     </g>
     <g id="text_13">
      <!-- $\mathdefault{0}$ -->
      <g transform="translate(121.6 258.319219)">
       <text>
        <tspan style="font: 10px 'DejaVu Sans'" x="0" y="-0.578125">0</tspan>
       </text>
      </g>
     </g>
    </g>
    <g id="ytick_4">
     <g id="line2d_13">
      <g>
       <use xlink:href="#m6e25e6ee8c" x="135" y="168.798779" style="stroke: #000000; stroke-width: 0.8"/>
      </g>
     </g>
     <g id="text_14">
      <!-- $\mathdefault{2}$ -->
      <g transform="translate(121.6 172.597998)">
       <text>
        <tspan style="font: 10px 'DejaVu Sans'" x="0" y="-0.578125">2</tspan>
       </text>
      </g>
     </g>
    </g>
    <g id="ytick_5">
     <g id="line2d_14">
      <g>
       <use xlink:href="#m6e25e6ee8c" x="135" y="83.077558" style="stroke: #000000; stroke-width: 0.8"/>
      </g>
     </g>
     <g id="text_15">
      <!-- $\mathdefault{4}$ -->
      <g transform="translate(121.6 86.876777)">
       <text>
        <tspan style="font: 10px 'DejaVu Sans'" x="0" y="-0.703125">4</tspan>
       </text>
      </g>
     </g>
    </g>
    <g id="text_16">
     <text style="font: 10px 'sans-serif'; text-anchor: middle" x="107.120312" y="254.52" transform="rotate(-90, 107.120312, 254.52)">spin conductivity [/Ohm m]</text>
    </g>
    <g id="text_17">
     <!-- $\times\mathdefault{10^{6}}\mathdefault{}$ -->
     <g transform="translate(135 57.48)">
      <text>
       <tspan style="font: 10px 'DejaVu Sans'" x="0 8.378906 14.741211" y="-0.9765625">×10</tspan>
       <tspan style="font: 7px 'DejaVu Sans'" x="21.199219" y="-4.8046875">6</tspan>
      </text>
     </g>
    </g>
   </g>
   <g id="line2d_15">
    <path d="M 135 331.429799 
L 141.01669 327.70258 
L 148.095148 323.573599 
L 155.112054 319.676411 
L 161.805814 316.105113 
L 165.037284 314.441581 
L 174.947126 309.49812 
L 184.980071 304.728407 
L 189.334862 302.626323 
L 193.566549 300.392451 
L 196.090173 298.764365 
L 198.998496 296.596624 
L 201.952983 295.213984 
L 210.385581 291.690786 
L 215.001967 289.988029 
L 215.894468 289.848087 
L 218.6643 289.678876 
L 221.341804 288.959293 
L 225.404223 287.5528 
L 239.807347 281.92623 
L 253.087151 276.196069 
L 258.134399 273.781289 
L 262.93544 271.260516 
L 267.290231 268.638957 
L 270.690969 266.227831 
L 273.260757 263.871732 
L 275.168863 261.649628 
L 277.338564 258.553934 
L 278.077186 258.183156 
L 279.108179 257.965021 
L 281.662579 257.67097 
L 285.540343 257.50048 
L 293.188156 257.363911 
L 309.530162 257.260835 
L 358.356136 257.170841 
L 381.176471 257.143768 
L 381.176471 257.143768 
" clip-path="url(#pd0e85a0825)" style="fill: none; stroke: #1f77b4; stroke-width: 1.5; stroke-linecap: square"/>
   </g>
   <g id="line2d_16">
    <path d="M 135 276.640098 
L 145.048333 283.285671 
L 153.881018 288.911621 
L 160.205467 292.799392 
L 171.207853 299.266242 
L 175.762687 301.951592 
L 182.979637 306.183151 
L 186.980505 308.601186 
L 191.458399 311.563908 
L 194.674481 313.906834 
L 196.028621 315.058749 
L 198.275262 317.119147 
L 199.629402 317.897201 
L 205.276781 320.567304 
L 212.863042 323.856068 
L 215.171235 324.674851 
L 216.079124 324.769692 
L 218.556584 324.699282 
L 223.711549 325.708138 
L 226.758363 326.495802 
L 233.113588 328.467043 
L 239.684244 330.796264 
L 247.516712 333.756505 
L 253.948876 336.409773 
L 259.904014 339.177246 
L 264.489624 341.569579 
L 267.397947 343.28259 
L 270.413986 345.33377 
L 271.783513 346.450735 
L 274.630285 348.968076 
L 275.56895 350.568147 
L 276.261408 351.72944 
L 277.015417 352.824302 
L 277.661711 353.26235 
L 279.231283 353.686936 
L 282.478141 353.867128 
L 290.803023 353.833871 
L 313.823401 353.360541 
L 344.306935 352.788607 
L 381.176471 352.253155 
L 381.176471 352.253155 
" clip-path="url(#pd0e85a0825)" style="fill: none; stroke: #d62728; stroke-width: 1.5; stroke-linecap: square"/>
   </g>
   <g id="line2d_17">
    <path d="M 135 353.549897 
L 139.785653 353.820551 
L 149.910926 354.461071 
L 160.851761 355.299754 
L 163.913964 355.531848 
L 169.438239 355.983276 
L 175.51648 356.50149 
L 188.134601 358.040172 
L 198.829229 359.620965 
L 212.509119 360.035682 
L 217.617919 360.002165 
L 218.74124 359.872858 
L 221.649563 359.609202 
L 232.359578 358.623645 
L 239.176441 358.276521 
L 256.995691 357.611909 
L 272.906834 357.131874 
L 274.661061 356.838632 
L 275.307355 357.119983 
L 276.338347 357.112575 
L 279.32361 357.106031 
L 283.401418 356.934978 
L 311.884519 356.139168 
L 340.306068 355.527702 
L 379.868495 354.894053 
L 381.176471 354.876924 
L 381.176471 354.876924 
" clip-path="url(#pd0e85a0825)" style="fill: none; stroke: #2ca02c; stroke-width: 1.5; stroke-linecap: square"/>
   </g>
   <g id="patch_3">
    <path d="M 135 448.56 
L 135 60.48 
" style="fill: none; stroke: #000000; stroke-width: 0.8; stroke-linejoin: miter; stroke-linecap: square"/>
   </g>
   <g id="patch_4">
    <path d="M 381.176471 448.56 
L 381.176471 60.48 
" style="fill: none; stroke: #000000; stroke-width: 0.8; stroke-linejoin: miter; stroke-linecap: square"/>
   </g>
   <g id="patch_5">
    <path d="M 135 448.56 
L 381.176471 448.56 
" style="fill: none; stroke: #000000; stroke-width: 0.8; stroke-linejoin: miter; stroke-linecap: square"/>
   </g>
   <g id="patch_6">
    <path d="M 135 60.48 
L 381.176471 60.48 
" style="fill: none; stroke: #000000; stroke-width: 0.8; stroke-linejoin: miter; stroke-linecap: square"/>
   </g>
   <g id="text_18">
    <text style="font: 12px 'sans-serif'; text-anchor: middle" x="258.088235" y="54.48" transform="rotate(-0, 258.088235, 54.48)"> xyz</text>
   </g>
   <g id="legend_1">
    <g id="patch_7">
     <path d="M 314.962408 112.514375 
L 374.176471 112.514375 
Q 376.176471 112.514375 376.176471 110.514375 
L 376.176471 67.48 
Q 376.176471 65.48 374.176471 65.48 
L 314.962408 65.48 
Q 312.962408 65.48 312.962408 67.48 
L 312.962408 110.514375 
Q 312.962408 112.514375 314.962408 112.514375 
z
" style="fill: #ffffff; opacity: 0.8; stroke: #cccccc; stroke-linejoin: miter"/>
    </g>
    <g id="line2d_18">
     <path d="M 316.962408 73.578438 
L 326.962408 73.578438 
L 336.962408 73.578438 
" style="fill: none; stroke: #1f77b4; stroke-width: 1.5; stroke-linecap: square"/>
    </g>
    <g id="text_19">
     <text style="font: 10px 'sans-serif'; text-anchor: start" x="344.962408" y="77.078438" transform="rotate(-0, 344.962408, 77.078438)">SHC1</text>
    </g>
    <g id="line2d_19">
     <path d="M 316.962408 88.256563 
L 326.962408 88.256563 
L 336.962408 88.256563 
" style="fill: none; stroke: #d62728; stroke-width: 1.5; stroke-linecap: square"/>
    </g>
    <g id="text_20">
     <text style="font: 10px 'sans-serif'; text-anchor: start" x="344.962408" y="91.756563" transform="rotate(-0, 344.962408, 91.756563)">SHC2</text>
    </g>
    <g id="line2d_20">
     <path d="M 316.962408 102.934687 
L 326.962408 102.934687 
L 336.962408 102.934687 
" style="fill: none; stroke: #2ca02c; stroke-width: 1.5; stroke-linecap: square"/>
    </g>
    <g id="text_21">
     <text style="font: 10px 'sans-serif'; text-anchor: start" x="344.962408" y="106.434687" transform="rotate(-0, 344.962408, 106.434687)">total</text>
    </g>
   </g>
  </g>
  <g id="axes_2">
   <g id="patch_8">
    <path d="M 430.411765 448.56 
L 676.588235 448.56 
L 676.588235 60.48 
L 430.411765 60.48 
z
" style="fill: #ffffff"/>
   </g>
   <g id="matplotlib.axis_3">
    <g id="xtick_10">
     <g id="line2d_21">
      <g>
       <use xlink:href="#m9299a920f6" x="430.411765" y="448.56" style="stroke: #000000; stroke-width: 0.8"/>
      </g>
     </g>
     <g id="text_22">
      <text style="font: 10px 'sans-serif'; text-anchor: middle" x="430.411765" y="463.158437" transform="rotate(-0, 430.411765, 463.158437)">−0.08</text>
     </g>
    </g>
    <g id="xtick_11">
     <g id="line2d_22">
      <g>
       <use xlink:href="#m9299a920f6" x="461.183824" y="448.56" style="stroke: #000000; stroke-width: 0.8"/>
      </g>
     </g>
     <g id="text_23">
      <text style="font: 10px 'sans-serif'; text-anchor: middle" x="461.183824" y="463.158437" transform="rotate(-0, 461.183824, 463.158437)">−0.06</text>
     </g>
    </g>
    <g id="xtick_12">
     <g id="line2d_23">
      <g>
       <use xlink:href="#m9299a920f6" x="491.955882" y="448.56" style="stroke: #000000; stroke-width: 0.8"/>
      </g>
     </g>
     <g id="text_24">
      <text style="font: 10px 'sans-serif'; text-anchor: middle" x="491.955882" y="463.158437" transform="rotate(-0, 491.955882, 463.158437)">−0.04</text>
     </g>
    </g>
    <g id="xtick_13">
     <g id="line2d_24">
      <g>
       <use xlink:href="#m9299a920f6" x="522.727941" y="448.56" style="stroke: #000000; stroke-width: 0.8"/>
      </g>
     </g>
     <g id="text_25">
      <text style="font: 10px 'sans-serif'; text-anchor: middle" x="522.727941" y="463.158437" transform="rotate(-0, 522.727941, 463.158437)">−0.02</text>
     </g>
    </g>
    <g id="xtick_14">
     <g id="line2d_25">
      <g>
       <use xlink:href="#m9299a920f6" x="553.5" y="448.56" style="stroke: #000000; stroke-width: 0.8"/>
      </g>
     </g>
     <g id="text_26">
      <text style="font: 10px 'sans-serif'; text-anchor: middle" x="553.5" y="463.158437" transform="rotate(-0, 553.5, 463.158437)">0.00</text>
     </g>
    </g>
    <g id="xtick_15">
     <g id="line2d_26">
      <g>
       <use xlink:href="#m9299a920f6" x="584.272059" y="448.56" style="stroke: #000000; stroke-width: 0.8"/>
      </g>
     </g>
     <g id="text_27">
      <text style="font: 10px 'sans-serif'; text-anchor: middle" x="584.272059" y="463.158437" transform="rotate(-0, 584.272059, 463.158437)">0.02</text>
     </g>
    </g>
    <g id="xtick_16">
     <g id="line2d_27">
      <g>
       <use xlink:href="#m9299a920f6" x="615.044118" y="448.56" style="stroke: #000000; stroke-width: 0.8"/>
      </g>
     </g>
     <g id="text_28">
      <text style="font: 10px 'sans-serif'; text-anchor: middle" x="615.044118" y="463.158437" transform="rotate(-0, 615.044118, 463.158437)">0.04</text>
     </g>
    </g>
    <g id="xtick_17">
     <g id="line2d_28">
      <g>
       <use xlink:href="#m9299a920f6" x="645.816176" y="448.56" style="stroke: #000000; stroke-width: 0.8"/>
      </g>
     </g>
     <g id="text_29">
      <text style="font: 10px 'sans-serif'; text-anchor: middle" x="645.816176" y="463.158437" transform="rotate(-0, 645.816176, 463.158437)">0.06</text>
     </g>
    </g>
    <g id="xtick_18">
     <g id="line2d_29">
      <g>
       <use xlink:href="#m9299a920f6" x="676.588235" y="448.56" style="stroke: #000000; stroke-width: 0.8"/>
      </g>
     </g>
     <g id="text_30">
      <text style="font: 10px 'sans-serif'; text-anchor: middle" x="676.588235" y="463.158437" transform="rotate(-0, 676.588235, 463.158437)">0.08</text>
     </g>
    </g>
    <g id="text_31">
     <text style="font: 10px 'sans-serif'; text-anchor: middle" x="553.5" y="476.836563" transform="rotate(-0, 553.5, 476.836563)">mu [eV]</text>
    </g>
   </g>
   <g id="matplotlib.axis_4">
    <g id="ytick_6">
     <g id="line2d_30">
      <g>
       <use xlink:href="#m6e25e6ee8c" x="430.411765" y="425.962442" style="stroke: #000000; stroke-width: 0.8"/>
      </g>
     </g>
     <g id="text_32">
      <!-- $\mathdefault{−4}$ -->
      <g transform="translate(408.611765 429.76166)">
       <text>
        <tspan style="font: 10px 'DejaVu Sans'" x="0 8.378906" y="-0.703125">−4</tspan>
       </text>
      </g>
     </g>
    </g>
    <g id="ytick_7">
     <g id="line2d_31">
      <g>
       <use xlink:href="#m6e25e6ee8c" x="430.411765" y="340.241221" style="stroke: #000000; stroke-width: 0.8"/>
      </g>
     </g>
     <g id="text_33">
      <!-- $\mathdefault{−2}$ -->
      <g transform="translate(408.611765 344.04044)">
       <text>
        <tspan style="font: 10px 'DejaVu Sans'" x="0 8.378906" y="-0.578125">−2</tspan>
       </text>
      </g>
     </g>
    </g>
    <g id="ytick_8">
     <g id="line2d_32">
      <g>
       <use xlink:href="#m6e25e6ee8c" x="430.411765" y="254.52" style="stroke: #000000; stroke-width: 0.8"/>
      </g>
     </g>
     <g id="text_34">
      <!-- $\mathdefault{0}$ -->
      <g transform="translate(417.011765 258.319219)">
       <text>
        <tspan style="font: 10px 'DejaVu Sans'" x="0" y="-0.578125">0</tspan>
       </text>
      </g>
     </g>
    </g>
    <g id="ytick_9">
     <g id="line2d_33">
      <g>
       <use xlink:href="#m6e25e6ee8c" x="430.411765" y="168.798779" style="stroke: #000000; stroke-width: 0.8"/>
      </g>
     </g>
     <g id="text_35">
      <!-- $\mathdefault{2}$ -->
      <g transform="translate(417.011765 172.597998)">
       <text>
        <tspan style="font: 10px 'DejaVu Sans'" x="0" y="-0.578125">2</tspan>
       </text>
      </g>
     </g>
    </g>
    <g id="ytick_10">
     <g id="line2d_34">
      <g>
       <use xlink:href="#m6e25e6ee8c" x="430.411765" y="83.077558" style="stroke: #000000; stroke-width: 0.8"/>
      </g>
     </g>
     <g id="text_36">
      <!-- $\mathdefault{4}$ -->
      <g transform="translate(417.011765 86.876777)">
       <text>
        <tspan style="font: 10px 'DejaVu Sans'" x="0" y="-0.703125">4</tspan>
       </text>
      </g>
     </g>
    </g>
    <g id="text_37">
     <!-- $\times\mathdefault{10^{6}}\mathdefault{}$ -->
     <g transform="translate(430.411765 57.48)">
      <text>
       <tspan style="font: 10px 'DejaVu Sans'" x="0 8.378906 14.741211" y="-0.9765625">×10</tspan>
       <tspan style="font: 7px 'DejaVu Sans'" x="21.199219" y="-4.8046875">6</tspan>
      </text>
     </g>
    </g>
   </g>
   <g id="line2d_35">
    <path d="M 430.411765 317.670101 
L 441.845014 317.288483 
L 443.445361 317.24278 
L 445.261139 317.232643 
L 454.232316 316.848772 
L 455.540292 316.754334 
L 457.048311 316.561861 
L 458.771762 316.502881 
L 460.66448 316.355281 
L 462.649526 316.410446 
L 463.618967 316.346329 
L 465.32703 316.107819 
L 466.958153 315.929484 
L 468.543112 315.690524 
L 470.312727 315.49715 
L 471.051348 315.316413 
L 476.190925 313.819572 
L 478.622221 312.887528 
L 481.699812 311.14957 
L 483.146279 309.955879 
L 484.838954 308.016714 
L 486.14693 306.095489 
L 487.608786 303.15394 
L 489.086029 298.849788 
L 490.609436 291.937099 
L 491.671205 284.180775 
L 492.348275 277.232522 
L 493.28694 267.674052 
L 493.810131 264.845358 
L 494.56414 262.795981 
L 495.271986 261.645599 
L 496.841557 260.247534 
L 498.780439 259.551194 
L 499.9807 259.374574 
L 501.981134 259.463726 
L 503.504541 259.513272 
L 505.812734 259.857375 
L 507.674676 260.796055 
L 509.028816 262.020396 
L 510.136749 264.174062 
L 510.690715 266.310017 
L 511.090802 268.881373 
L 511.583216 273.765631 
L 512.845028 286.767097 
L 513.475934 291.381881 
L 513.829857 293.115554 
L 515.322489 299.702289 
L 516.922836 304.083196 
L 518.600123 307.150954 
L 520.185082 309.300012 
L 521.677713 310.799614 
L 523.662759 312.210788 
L 524.986123 312.916535 
L 528.940827 314.579135 
L 535.388379 316.072477 
L 537.281098 316.319972 
L 539.019936 316.605037 
L 541.897484 316.796047 
L 544.451884 316.756945 
L 546.20611 317.050001 
L 547.960337 317.067342 
L 549.945383 317.2088 
L 552.022757 317.366176 
L 554.7772 317.56907 
L 580.228874 318.14563 
L 582.152368 317.984486 
L 583.398792 317.919028 
L 595.386008 318.112731 
L 597.92502 318.166012 
L 600.571748 318.213096 
L 606.634601 318.226897 
L 608.588871 318.284165 
L 621.391648 318.348095 
L 623.607513 318.42631 
L 626.946699 318.397267 
L 629.670367 318.38364 
L 633.363476 318.399184 
L 636.133307 318.379056 
L 644.612069 318.360623 
L 646.766383 318.440428 
L 652.967728 318.376235 
L 656.937819 318.292418 
L 659.538383 318.140102 
L 662.323603 317.987885 
L 665.047271 318.076529 
L 667.83249 318.072101 
L 669.202018 318.178006 
L 670.771589 317.984394 
L 672.57198 318.123798 
L 674.957112 318.124695 
L 676.588235 318.152589 
L 676.588235 318.152589 
" clip-path="url(#pffff4dabb3)" style="fill: none; stroke: #1f77b4; stroke-width: 1.5; stroke-linecap: square"/>
   </g>
   <g id="line2d_36">
    <path d="M 430.411765 254.674216 
L 436.289963 260.08747 
L 438.551992 262.411434 
L 443.276093 267.5561 
L 449.385111 274.587303 
L 452.416537 278.597509 
L 458.894866 288.086759 
L 463.880562 295.960863 
L 466.188755 300.185783 
L 469.928028 307.49479 
L 471.959238 311.91826 
L 475.252259 319.938451 
L 478.222134 328.055262 
L 481.222785 337.507124 
L 483.654082 346.538407 
L 485.131325 352.8797 
L 486.516241 359.627478 
L 487.962709 367.754189 
L 489.870815 380.177183 
L 490.6556 386.28848 
L 491.732757 398.0973 
L 493.410044 418.099953 
L 493.794743 420.122916 
L 494.594916 422.486084 
L 495.225822 423.630949 
L 496.949273 424.982644 
L 498.641948 425.674106 
L 500.088415 425.926598 
L 504.166223 425.811804 
L 505.181828 425.609764 
L 506.351312 425.250702 
L 507.659288 424.586148 
L 509.028816 423.365554 
L 510.075197 421.404015 
L 510.813819 418.074139 
L 511.090802 416.007722 
L 511.567828 410.716485 
L 513.599038 385.214025 
L 516.692017 364.924827 
L 518.954046 353.354135 
L 520.569781 346.336363 
L 522.293232 339.741382 
L 523.985906 333.942677 
L 525.663193 328.724928 
L 527.278928 324.13053 
L 529.094707 319.336976 
L 532.172297 311.885748 
L 535.465319 304.779071 
L 538.942997 298.012135 
L 541.297353 293.888807 
L 545.68292 287.13986 
L 550.206978 280.452579 
L 553.192241 276.458434 
L 557.008453 271.673771 
L 561.763331 266.220102 
L 566.087345 261.480997 
L 569.565023 258.047467 
L 578.166889 250.150344 
L 581.61379 247.401367 
L 585.353063 244.667813 
L 588.67686 242.241373 
L 594.585834 238.179169 
L 597.801916 236.243119 
L 600.002394 234.745729 
L 604.711107 231.627532 
L 607.450163 229.89867 
L 611.020168 227.530194 
L 618.82186 223.024077 
L 622.776564 221.01468 
L 628.131572 218.473112 
L 636.441066 214.312463 
L 645.012156 210.349408 
L 652.644581 207.069969 
L 668.648052 200.711535 
L 676.588235 198.140408 
L 676.588235 198.140408 
" clip-path="url(#pffff4dabb3)" style="fill: none; stroke: #d62728; stroke-width: 1.5; stroke-linecap: square"/>
   </g>
   <g id="line2d_37">
    <path d="M 430.411765 317.824317 
L 436.766989 323.511077 
L 443.229929 330.21508 
L 446.030537 333.346239 
L 449.908301 337.718787 
L 451.708692 340.029265 
L 454.216928 343.523458 
L 455.832663 345.695323 
L 457.125251 347.446448 
L 459.756591 351.26898 
L 462.634138 355.703315 
L 466.050264 361.407098 
L 470.959021 370.521641 
L 473.498033 375.708362 
L 476.883382 383.344056 
L 480.422612 392.311424 
L 483.469426 400.898592 
L 485.669904 407.699433 
L 487.670337 414.423239 
L 489.347624 419.81956 
L 490.840256 424.014612 
L 492.625258 429.586971 
L 493.256164 430.340907 
L 494.04095 430.556309 
L 495.441254 430.776599 
L 497.19548 430.679365 
L 502.273505 430.869002 
L 507.074546 430.841681 
L 510.152137 430.807109 
L 510.813819 430.482536 
L 511.198517 430.268622 
L 511.613992 429.697761 
L 512.368002 427.858617 
L 512.82964 426.87319 
L 512.968132 426.336161 
L 513.645202 422.616297 
L 515.199385 419.209699 
L 519.154089 405.871083 
L 521.385342 399.12815 
L 524.462933 390.56402 
L 527.186601 383.754017 
L 529.479406 378.561176 
L 531.695271 373.805488 
L 535.2345 366.785989 
L 537.635021 362.358518 
L 542.513002 354.200441 
L 544.374944 351.350875 
L 546.390766 348.567475 
L 548.144992 345.964641 
L 552.74599 339.967843 
L 560.824666 330.545774 
L 565.964242 325.017757 
L 569.534247 321.583267 
L 577.335939 314.485971 
L 581.121375 311.352359 
L 584.645217 308.637271 
L 587.153453 306.851139 
L 592.723892 303.019952 
L 594.53967 301.796269 
L 602.218259 296.927166 
L 606.480722 294.236281 
L 608.327276 293.048695 
L 611.666462 290.830073 
L 619.375826 286.514295 
L 621.576304 285.414953 
L 623.761393 284.469519 
L 631.486145 280.531487 
L 633.594295 279.538557 
L 645.396855 274.088118 
L 646.889486 273.437374 
L 651.905959 271.217082 
L 654.75273 270.002629 
L 661.538817 266.973651 
L 666.124427 265.16101 
L 667.786326 264.537066 
L 669.278958 264.174325 
L 670.940857 263.536574 
L 672.633531 263.049972 
L 674.44931 262.45846 
L 676.526683 261.794059 
L 676.588235 261.772997 
L 676.588235 261.772997 
" clip-path="url(#pffff4dabb3)" style="fill: none; stroke: #2ca02c; stroke-width: 1.5; stroke-linecap: square"/>
   </g>
   <g id="patch_9">
    <path d="M 430.411765 448.56 
L 430.411765 60.48 
" style="fill: none; stroke: #000000; stroke-width: 0.8; stroke-linejoin: miter; stroke-linecap: square"/>
   </g>
   <g id="patch_10">
    <path d="M 676.588235 448.56 
L 676.588235 60.48 
" style="fill: none; stroke: #000000; stroke-width: 0.8; stroke-linejoin: miter; stroke-linecap: square"/>
   </g>
   <g id="patch_11">
    <path d="M 430.411765 448.56 
L 676.588235 448.56 
" style="fill: none; stroke: #000000; stroke-width: 0.8; stroke-linejoin: miter; stroke-linecap: square"/>
   </g>
   <g id="patch_12">
    <path d="M 430.411765 60.48 
L 676.588235 60.48 
" style="fill: none; stroke: #000000; stroke-width: 0.8; stroke-linejoin: miter; stroke-linecap: square"/>
   </g>
   <g id="text_38">
    <text style="font: 12px 'sans-serif'; text-anchor: middle" x="553.5" y="54.48" transform="rotate(-0, 553.5, 54.48)"> yzx</text>
   </g>
   <g id="legend_2">
    <g id="patch_13">
     <path d="M 610.374173 112.514375 
L 669.588235 112.514375 
Q 671.588235 112.514375 671.588235 110.514375 
L 671.588235 67.48 
Q 671.588235 65.48 669.588235 65.48 
L 610.374173 65.48 
Q 608.374173 65.48 608.374173 67.48 
L 608.374173 110.514375 
Q 608.374173 112.514375 610.374173 112.514375 
z
" style="fill: #ffffff; opacity: 0.8; stroke: #cccccc; stroke-linejoin: miter"/>
    </g>
    <g id="line2d_38">
     <path d="M 612.374173 73.578438 
L 622.374173 73.578438 
L 632.374173 73.578438 
" style="fill: none; stroke: #1f77b4; stroke-width: 1.5; stroke-linecap: square"/>
    </g>
    <g id="text_39">
     <text style="font: 10px 'sans-serif'; text-anchor: start" x="640.374173" y="77.078438" transform="rotate(-0, 640.374173, 77.078438)">SHC1</text>
    </g>
    <g id="line2d_39">
     <path d="M 612.374173 88.256563 
L 622.374173 88.256563 
L 632.374173 88.256563 
" style="fill: none; stroke: #d62728; stroke-width: 1.5; stroke-linecap: square"/>
    </g>
    <g id="text_40">
     <text style="font: 10px 'sans-serif'; text-anchor: start" x="640.374173" y="91.756563" transform="rotate(-0, 640.374173, 91.756563)">SHC2</text>
    </g>
    <g id="line2d_40">
     <path d="M 612.374173 102.934687 
L 622.374173 102.934687 
L 632.374173 102.934687 
" style="fill: none; stroke: #2ca02c; stroke-width: 1.5; stroke-linecap: square"/>
    </g>
    <g id="text_41">
     <text style="font: 10px 'sans-serif'; text-anchor: start" x="640.374173" y="106.434687" transform="rotate(-0, 640.374173, 106.434687)">total</text>
    </g>
   </g>
  </g>
  <g id="axes_3">
   <g id="patch_14">
    <path d="M 725.823529 448.56 
L 972 448.56 
L 972 60.48 
L 725.823529 60.48 
z
" style="fill: #ffffff"/>
   </g>
   <g id="matplotlib.axis_5">
    <g id="xtick_19">
     <g id="line2d_41">
      <g>
       <use xlink:href="#m9299a920f6" x="725.823529" y="448.56" style="stroke: #000000; stroke-width: 0.8"/>
      </g>
     </g>
     <g id="text_42">
      <text style="font: 10px 'sans-serif'; text-anchor: middle" x="725.823529" y="463.158437" transform="rotate(-0, 725.823529, 463.158437)">−0.08</text>
     </g>
    </g>
    <g id="xtick_20">
     <g id="line2d_42">
      <g>
       <use xlink:href="#m9299a920f6" x="756.595588" y="448.56" style="stroke: #000000; stroke-width: 0.8"/>
      </g>
     </g>
     <g id="text_43">
      <text style="font: 10px 'sans-serif'; text-anchor: middle" x="756.595588" y="463.158437" transform="rotate(-0, 756.595588, 463.158437)">−0.06</text>
     </g>
    </g>
    <g id="xtick_21">
     <g id="line2d_43">
      <g>
       <use xlink:href="#m9299a920f6" x="787.367647" y="448.56" style="stroke: #000000; stroke-width: 0.8"/>
      </g>
     </g>
     <g id="text_44">
      <text style="font: 10px 'sans-serif'; text-anchor: middle" x="787.367647" y="463.158437" transform="rotate(-0, 787.367647, 463.158437)">−0.04</text>
     </g>
    </g>
    <g id="xtick_22">
     <g id="line2d_44">
      <g>
       <use xlink:href="#m9299a920f6" x="818.139706" y="448.56" style="stroke: #000000; stroke-width: 0.8"/>
      </g>
     </g>
     <g id="text_45">
      <text style="font: 10px 'sans-serif'; text-anchor: middle" x="818.139706" y="463.158437" transform="rotate(-0, 818.139706, 463.158437)">−0.02</text>
     </g>
    </g>
    <g id="xtick_23">
     <g id="line2d_45">
      <g>
       <use xlink:href="#m9299a920f6" x="848.911765" y="448.56" style="stroke: #000000; stroke-width: 0.8"/>
      </g>
     </g>
     <g id="text_46">
      <text style="font: 10px 'sans-serif'; text-anchor: middle" x="848.911765" y="463.158437" transform="rotate(-0, 848.911765, 463.158437)">0.00</text>
     </g>
    </g>
    <g id="xtick_24">
     <g id="line2d_46">
      <g>
       <use xlink:href="#m9299a920f6" x="879.683824" y="448.56" style="stroke: #000000; stroke-width: 0.8"/>
      </g>
     </g>
     <g id="text_47">
      <text style="font: 10px 'sans-serif'; text-anchor: middle" x="879.683824" y="463.158437" transform="rotate(-0, 879.683824, 463.158437)">0.02</text>
     </g>
    </g>
    <g id="xtick_25">
     <g id="line2d_47">
      <g>
       <use xlink:href="#m9299a920f6" x="910.455882" y="448.56" style="stroke: #000000; stroke-width: 0.8"/>
      </g>
     </g>
     <g id="text_48">
      <text style="font: 10px 'sans-serif'; text-anchor: middle" x="910.455882" y="463.158437" transform="rotate(-0, 910.455882, 463.158437)">0.04</text>
     </g>
    </g>
    <g id="xtick_26">
     <g id="line2d_48">
      <g>
       <use xlink:href="#m9299a920f6" x="941.227941" y="448.56" style="stroke: #000000; stroke-width: 0.8"/>
      </g>
     </g>
     <g id="text_49">
      <text style="font: 10px 'sans-serif'; text-anchor: middle" x="941.227941" y="463.158437" transform="rotate(-0, 941.227941, 463.158437)">0.06</text>
     </g>
    </g>
    <g id="xtick_27">
     <g id="line2d_49">
      <g>
       <use xlink:href="#m9299a920f6" x="972" y="448.56" style="stroke: #000000; stroke-width: 0.8"/>
      </g>
     </g>
     <g id="text_50">
      <text style="font: 10px 'sans-serif'; text-anchor: middle" x="972" y="463.158437" transform="rotate(-0, 972, 463.158437)">0.08</text>
     </g>
    </g>
    <g id="text_51">
     <text style="font: 10px 'sans-serif'; text-anchor: middle" x="848.911765" y="476.836563" transform="rotate(-0, 848.911765, 476.836563)">mu [eV]</text>
    </g>
   </g>
   <g id="matplotlib.axis_6">
    <g id="ytick_11">
     <g id="line2d_50">
      <g>
       <use xlink:href="#m6e25e6ee8c" x="725.823529" y="425.962442" style="stroke: #000000; stroke-width: 0.8"/>
      </g>
     </g>
     <g id="text_52">
      <!-- $\mathdefault{−4}$ -->
      <g transform="translate(704.023529 429.76166)">
       <text>
        <tspan style="font: 10px 'DejaVu Sans'" x="0 8.378906" y="-0.703125">−4</tspan>
       </text>
      </g>
     </g>
    </g>
    <g id="ytick_12">
     <g id="line2d_51">
      <g>
       <use xlink:href="#m6e25e6ee8c" x="725.823529" y="340.241221" style="stroke: #000000; stroke-width: 0.8"/>
      </g>
     </g>
     <g id="text_53">
      <!-- $\mathdefault{−2}$ -->
      <g transform="translate(704.023529 344.04044)">
       <text>
        <tspan style="font: 10px 'DejaVu Sans'" x="0 8.378906" y="-0.578125">−2</tspan>
       </text>
      </g>
     </g>
    </g>
    <g id="ytick_13">
     <g id="line2d_52">
      <g>
       <use xlink:href="#m6e25e6ee8c" x="725.823529" y="254.52" style="stroke: #000000; stroke-width: 0.8"/>
      </g>
     </g>
     <g id="text_54">
      <!-- $\mathdefault{0}$ -->
      <g transform="translate(712.423529 258.319219)">
       <text>
        <tspan style="font: 10px 'DejaVu Sans'" x="0" y="-0.578125">0</tspan>
       </text>
      </g>
     </g>
    </g>
    <g id="ytick_14">
     <g id="line2d_53">
      <g>
       <use xlink:href="#m6e25e6ee8c" x="725.823529" y="168.798779" style="stroke: #000000; stroke-width: 0.8"/>
      </g>
     </g>
     <g id="text_55">
      <!-- $\mathdefault{2}$ -->
      <g transform="translate(712.423529 172.597998)">
       <text>
        <tspan style="font: 10px 'DejaVu Sans'" x="0" y="-0.578125">2</tspan>
       </text>
      </g>
     </g>
    </g>
    <g id="ytick_15">
     <g id="line2d_54">
      <g>
       <use xlink:href="#m6e25e6ee8c" x="725.823529" y="83.077558" style="stroke: #000000; stroke-width: 0.8"/>
      </g>
     </g>
     <g id="text_56">
      <!-- $\mathdefault{4}$ -->
      <g transform="translate(712.423529 86.876777)">
       <text>
        <tspan style="font: 10px 'DejaVu Sans'" x="0" y="-0.703125">4</tspan>
       </text>
      </g>
     </g>
    </g>
    <g id="text_57">
     <!-- $\times\mathdefault{10^{6}}\mathdefault{}$ -->
     <g transform="translate(725.823529 57.48)">
      <text>
       <tspan style="font: 10px 'DejaVu Sans'" x="0 8.378906 14.741211" y="-0.9765625">×10</tspan>
       <tspan style="font: 7px 'DejaVu Sans'" x="21.199219" y="-4.8046875">6</tspan>
      </text>
     </g>
    </g>
   </g>
   <g id="line2d_55">
    <path d="M 725.823529 317.06956 
L 729.162715 317.086118 
L 735.59488 316.960018 
L 737.518374 316.869705 
L 738.903289 316.831451 
L 742.05782 316.835995 
L 743.365796 316.726989 
L 744.781487 316.588377 
L 747.012741 316.579147 
L 754.522062 316.112795 
L 755.922365 316.005527 
L 757.338057 316.077297 
L 758.630645 316.126298 
L 763.585566 315.533426 
L 768.725142 314.515022 
L 770.186998 314.047417 
L 773.833942 312.725472 
L 777.634767 310.652468 
L 778.496492 309.914184 
L 780.343047 307.770058 
L 781.512531 306.054664 
L 783.051326 302.898986 
L 784.482406 298.789115 
L 786.021201 291.843335 
L 787.067582 284.215648 
L 787.790816 276.77882 
L 788.667929 267.787085 
L 789.221895 264.733114 
L 789.975905 262.696929 
L 790.683751 261.549355 
L 792.253322 260.157909 
L 794.176816 259.466571 
L 795.377077 259.287514 
L 797.392898 259.386896 
L 798.947082 259.442512 
L 801.209111 259.783167 
L 802.347819 260.284872 
L 803.071053 260.720384 
L 804.440581 261.963135 
L 805.548513 264.106492 
L 806.10248 266.257315 
L 806.517954 268.953846 
L 806.994981 273.706121 
L 808.149077 285.755645 
L 808.856923 291.024529 
L 809.25701 293.063668 
L 810.734254 299.642678 
L 812.365377 304.107897 
L 813.965724 307.126039 
L 815.596847 309.335612 
L 817.027926 310.76575 
L 819.1053 312.153689 
L 821.013406 313.155558 
L 822.813797 313.926547 
L 827.291691 315.31582 
L 831.384886 316.118335 
L 833.031397 316.373364 
L 834.600969 316.564809 
L 837.909378 316.746828 
L 840.325287 316.836527 
L 844.526198 317.200965 
L 846.418916 317.27696 
L 848.311635 317.485217 
L 850.127413 317.465438 
L 851.327673 317.526689 
L 855.051558 317.731382 
L 862.191568 317.960529 
L 864.992175 318.042053 
L 866.423255 318.09538 
L 868.177482 318.077821 
L 871.024253 318.14914 
L 877.071719 318.060617 
L 879.564567 317.965233 
L 882.149743 318.064282 
L 883.626986 318.05442 
L 884.842635 318.093888 
L 886.335266 318.199175 
L 888.735787 318.117888 
L 895.814245 318.238818 
L 897.029893 318.297265 
L 898.691792 318.202914 
L 901.33852 318.302077 
L 907.262882 318.252663 
L 911.956208 318.328915 
L 913.587331 318.373385 
L 920.619625 318.336043 
L 922.081481 318.354344 
L 924.081915 318.376054 
L 928.159722 318.412736 
L 929.575414 318.420785 
L 931.40658 318.377344 
L 936.06913 318.419441 
L 952.53424 318.27589 
L 954.580837 318.104373 
L 956.96597 317.893556 
L 965.367792 317.991177 
L 966.198742 317.980535 
L 967.860641 318.149495 
L 970.830516 318.075179 
L 972 318.092272 
L 972 318.092272 
" clip-path="url(#p99262cabe9)" style="fill: none; stroke: #1f77b4; stroke-width: 1.5; stroke-linecap: square"/>
   </g>
   <g id="line2d_56">
    <path d="M 725.823529 254.153351 
L 729.50125 257.575578 
L 735.51794 263.641122 
L 739.595747 268.086746 
L 744.673772 273.852344 
L 747.735974 277.800436 
L 753.968095 286.595851 
L 759.800129 295.74843 
L 763.431686 302.524246 
L 766.03225 307.847978 
L 768.986737 314.65619 
L 772.310535 323.28421 
L 775.295798 332.005877 
L 777.650155 339.918876 
L 779.11201 345.524921 
L 780.512314 351.541125 
L 781.943394 358.51 
L 783.389861 366.637597 
L 785.251804 378.740336 
L 786.067365 385.067965 
L 787.15991 397.080377 
L 788.821809 416.889388 
L 789.206507 418.909972 
L 790.006681 421.271037 
L 790.637587 422.414719 
L 792.361038 423.762146 
L 794.053713 424.449333 
L 795.50018 424.698222 
L 799.577988 424.573251 
L 800.593593 424.36907 
L 801.763077 424.0075 
L 803.071053 423.340208 
L 804.440581 422.116765 
L 805.486962 420.154143 
L 806.225583 416.824678 
L 806.502566 414.756381 
L 806.979593 409.463335 
L 809.010803 383.975568 
L 812.119169 363.639752 
L 814.36581 352.188827 
L 815.981545 345.201621 
L 817.735772 338.507909 
L 819.459223 332.6001 
L 820.90569 328.137137 
L 822.813797 322.693072 
L 826.16837 314.040396 
L 829.076693 307.378949 
L 833.123725 299.190888 
L 835.370366 295.006837 
L 838.401793 289.97728 
L 843.772188 281.686147 
L 847.634565 276.255093 
L 852.158623 270.489105 
L 856.744233 265.162369 
L 862.93019 258.593424 
L 866.83873 254.900327 
L 874.978957 247.555051 
L 876.179217 246.697025 
L 879.503015 244.216841 
L 882.349786 241.998891 
L 891.213247 235.414232 
L 899.553518 229.756721 
L 903.385118 227.282413 
L 907.185942 224.943365 
L 914.525996 220.822441 
L 916.834189 219.526435 
L 919.83484 218.0031 
L 925.035968 215.327369 
L 932.052874 211.945907 
L 937.053959 209.843 
L 946.717593 205.880014 
L 951.887946 203.662704 
L 953.81144 202.951099 
L 957.750756 201.705452 
L 965.167749 199.007797 
L 972 196.970809 
L 972 196.970809 
" clip-path="url(#p99262cabe9)" style="fill: none; stroke: #d62728; stroke-width: 1.5; stroke-linecap: square"/>
   </g>
   <g id="line2d_57">
    <path d="M 725.823529 316.70291 
L 732.20953 322.783385 
L 738.349323 329.002251 
L 743.18114 334.344984 
L 744.781487 336.053448 
L 751.413695 344.706168 
L 755.399175 350.28455 
L 757.676592 353.866128 
L 764.416515 365.330739 
L 767.494106 371.399427 
L 771.341094 379.847444 
L 775.018815 388.725503 
L 776.080584 391.621366 
L 779.019683 399.990802 
L 780.820073 405.551769 
L 783.466801 414.381837 
L 784.759389 418.471927 
L 786.236633 422.658298 
L 787.990859 428.202432 
L 788.775645 429.074974 
L 789.529654 429.256558 
L 790.776079 429.473387 
L 792.622633 429.369624 
L 797.823761 429.555585 
L 802.594026 429.533484 
L 805.548513 429.500383 
L 806.179419 429.199206 
L 806.564118 429.010168 
L 806.948817 428.526423 
L 807.533559 427.241298 
L 808.302957 425.421909 
L 808.379897 425.005638 
L 809.056967 421.242232 
L 810.595762 417.988925 
L 814.119603 406.165985 
L 816.797107 398.03122 
L 819.843922 389.41772 
L 823.167719 381.272584 
L 825.922163 375.118176 
L 828.984366 368.7519 
L 835.385754 357.097748 
L 840.294511 349.290876 
L 844.033784 343.96574 
L 848.188531 338.485852 
L 852.866469 332.746015 
L 856.867336 328.312827 
L 864.653641 320.401398 
L 866.623299 318.659597 
L 868.823776 316.629663 
L 876.025338 310.397167 
L 878.841333 308.214451 
L 881.472673 306.162835 
L 883.780866 304.434508 
L 884.858023 303.692401 
L 886.273714 302.766428 
L 888.997382 300.58774 
L 893.059802 297.802449 
L 897.522308 294.861973 
L 898.814896 293.952275 
L 902.538781 291.584093 
L 905.677923 289.567554 
L 907.924564 288.283341 
L 910.001938 287.092899 
L 911.848492 286.064086 
L 922.420016 280.542504 
L 924.405062 279.496445 
L 934.1918 274.910156 
L 947.256172 269.493395 
L 950.626133 268.016722 
L 954.842433 266.203972 
L 957.704592 265.114668 
L 964.290636 262.894105 
L 964.998481 262.583199 
L 966.275682 262.135347 
L 968.01452 261.730147 
L 970.261161 261.068449 
L 972 260.543081 
L 972 260.543081 
" clip-path="url(#p99262cabe9)" style="fill: none; stroke: #2ca02c; stroke-width: 1.5; stroke-linecap: square"/>
   </g>
   <g id="patch_15">
    <path d="M 725.823529 448.56 
L 725.823529 60.48 
" style="fill: none; stroke: #000000; stroke-width: 0.8; stroke-linejoin: miter; stroke-linecap: square"/>
   </g>
   <g id="patch_16">
    <path d="M 972 448.56 
L 972 60.48 
" style="fill: none; stroke: #000000; stroke-width: 0.8; stroke-linejoin: miter; stroke-linecap: square"/>
   </g>
   <g id="patch_17">
    <path d="M 725.823529 448.56 
L 972 448.56 
" style="fill: none; stroke: #000000; stroke-width: 0.8; stroke-linejoin: miter; stroke-linecap: square"/>
   </g>
   <g id="patch_18">
    <path d="M 725.823529 60.48 
L 972 60.48 
" style="fill: none; stroke: #000000; stroke-width: 0.8; stroke-linejoin: miter; stroke-linecap: square"/>
   </g>
   <g id="text_58">
    <text style="font: 12px 'sans-serif'; text-anchor: middle" x="848.911765" y="54.48" transform="rotate(-0, 848.911765, 54.48)"> zxy</text>
   </g>
   <g id="legend_3">
    <g id="patch_19">
     <path d="M 905.785938 112.514375 
L 965 112.514375 
Q 967 112.514375 967 110.514375 
L 967 67.48 
Q 967 65.48 965 65.48 
L 905.785938 65.48 
Q 903.785938 65.48 903.785938 67.48 
L 903.785938 110.514375 
Q 903.785938 112.514375 905.785938 112.514375 
z
" style="fill: #ffffff; opacity: 0.8; stroke: #cccccc; stroke-linejoin: miter"/>
    </g>
    <g id="line2d_58">
     <path d="M 907.785938 73.578438 
L 917.785938 73.578438 
L 927.785938 73.578438 
" style="fill: none; stroke: #1f77b4; stroke-width: 1.5; stroke-linecap: square"/>
    </g>
    <g id="text_59">
     <text style="font: 10px 'sans-serif'; text-anchor: start" x="935.785938" y="77.078438" transform="rotate(-0, 935.785938, 77.078438)">SHC1</text>
    </g>
    <g id="line2d_59">
     <path d="M 907.785938 88.256563 
L 917.785938 88.256563 
L 927.785938 88.256563 
" style="fill: none; stroke: #d62728; stroke-width: 1.5; stroke-linecap: square"/>
    </g>
    <g id="text_60">
     <text style="font: 10px 'sans-serif'; text-anchor: start" x="935.785938" y="91.756563" transform="rotate(-0, 935.785938, 91.756563)">SHC2</text>
    </g>
    <g id="line2d_60">
     <path d="M 907.785938 102.934687 
L 917.785938 102.934687 
L 927.785938 102.934687 
" style="fill: none; stroke: #2ca02c; stroke-width: 1.5; stroke-linecap: square"/>
    </g>
    <g id="text_61">
     <text style="font: 10px 'sans-serif'; text-anchor: start" x="935.785938" y="106.434687" transform="rotate(-0, 935.785938, 106.434687)">total</text>
    </g>
   </g>
  </g>
 </g>
 <defs>
  <clipPath id="pd0e85a0825">
   <rect x="135" y="60.48" width="246.176471" height="388.08"/>
  </clipPath>
  <clipPath id="pffff4dabb3">
   <rect x="430.411765" y="60.48" width="246.176471" height="388.08"/>
  </clipPath>
  <clipPath id="p99262cabe9">
   <rect x="725.823529" y="60.48" width="246.176471" height="388.08"/>
  </clipPath>
 </defs>
</svg>
