<?xml version="1.0" encoding="utf-8" standalone="no"?>
<!DOCTYPE svg PUBLIC "-//W3C//DTD SVG 1.1//EN"
  "http://www.w3.org/Graphics/SVG/1.1/DTD/svg11.dtd">
<svg xmlns:xlink="http://www.w3.org/1999/xlink" width="1080pt" height="504pt" viewBox="0 0 1080 504" xmlns="http://www.w3.org/2000/svg" version="1.1">
 <metadata>
  <rdf:RDF xmlns:dc="http://purl.org/dc/elements/1.1/" xmlns:cc="http://creativecommons.org/ns#" xmlns:rdf="http://www.w3.org/1999/02/22-rdf-syntax-ns#">
   <cc:Work>
    <dc:type rdf:resource="http://purl.org/dc/dcmitype/StillImage"/>
    <dc:date>2022-06-26T16:15:53.951027</dc:date>
    <dc:format>image/svg+xml</dc:format>
    <dc:creator>
     <cc:Agent>
      <dc:title>Matplotlib v3.5.2, https://matplotlib.org/</dc:title>
     </cc:Agent>
    </dc:creator>
   </cc:Work>
  </rdf:RDF>
 </metadata>
 <defs>
  <style type="text/css">*{stroke-linejoin: round; stroke-linecap: butt}</style>
 </defs>
 <g id="figure_1">
  <g id="patch_1">
   <path d="M 0 504 
L 1080 504 
L 1080 0 
L 0 0 
z
" style="fill: #ffffff"/>
  </g>
  <g id="axes_1">
   <g id="patch_2">
    <path d="M 135 448.56 
L 381.176471 448.56 
L 381.176471 60.48 
L 135 60.48 
z
" style="fill: #ffffff"/>
   </g>
   <g id="matplotlib.axis_1">
    <g id="xtick_1">
     <g id="line2d_1">
      <defs>
       <path id="m6fa6bd64c7" d="M 0 0 
L 0 3.5 
" style="stroke: #000000; stroke-width: 0.8"/>
      </defs>
      <g>
       <use xlink:href="#m6fa6bd64c7" x="135" y="448.56" style="stroke: #000000; stroke-width: 0.8"/>
      </g>
     </g>
     <g id="text_1">
      <text style="font: 10px 'sans-serif'; text-anchor: middle" x="135" y="463.158437" transform="rotate(-0, 135, 463.158437)">−0.08</text>
     </g>
    </g>
    <g id="xtick_2">
     <g id="line2d_2">
      <g>
       <use xlink:href="#m6fa6bd64c7" x="165.772059" y="448.56" style="stroke: #000000; stroke-width: 0.8"/>
      </g>
     </g>
     <g id="text_2">
      <text style="font: 10px 'sans-serif'; text-anchor: middle" x="165.772059" y="463.158437" transform="rotate(-0, 165.772059, 463.158437)">−0.06</text>
     </g>
    </g>
    <g id="xtick_3">
     <g id="line2d_3">
      <g>
       <use xlink:href="#m6fa6bd64c7" x="196.544118" y="448.56" style="stroke: #000000; stroke-width: 0.8"/>
      </g>
     </g>
     <g id="text_3">
      <text style="font: 10px 'sans-serif'; text-anchor: middle" x="196.544118" y="463.158437" transform="rotate(-0, 196.544118, 463.158437)">−0.04</text>
     </g>
    </g>
    <g id="xtick_4">
     <g id="line2d_4">
      <g>
       <use xlink:href="#m6fa6bd64c7" x="227.316176" y="448.56" style="stroke: #000000; stroke-width: 0.8"/>
      </g>
     </g>
     <g id="text_4">
      <text style="font: 10px 'sans-serif'; text-anchor: middle" x="227.316176" y="463.158437" transform="rotate(-0, 227.316176, 463.158437)">−0.02</text>
     </g>
    </g>
    <g id="xtick_5">
     <g id="line2d_5">
      <g>
       <use xlink:href="#m6fa6bd64c7" x="258.088235" y="448.56" style="stroke: #000000; stroke-width: 0.8"/>
      </g>
     </g>
     <g id="text_5">
      <text style="font: 10px 'sans-serif'; text-anchor: middle" x="258.088235" y="463.158437" transform="rotate(-0, 258.088235, 463.158437)">0.00</text>
     </g>
    </g>
    <g id="xtick_6">
     <g id="line2d_6">
      <g>
       <use xlink:href="#m6fa6bd64c7" x="288.860294" y="448.56" style="stroke: #000000; stroke-width: 0.8"/>
      </g>
     </g>
     <g id="text_6">
      <text style="font: 10px 'sans-serif'; text-anchor: middle" x="288.860294" y="463.158437" transform="rotate(-0, 288.860294, 463.158437)">0.02</text>
     </g>
    </g>
    <g id="xtick_7">
     <g id="line2d_7">
      <g>
       <use xlink:href="#m6fa6bd64c7" x="319.632353" y="448.56" style="stroke: #000000; stroke-width: 0.8"/>
      </g>
     </g>
     <g id="text_7">
      <text style="font: 10px 'sans-serif'; text-anchor: middle" x="319.632353" y="463.158437" transform="rotate(-0, 319.632353, 463.158437)">0.04</text>
     </g>
    </g>
    <g id="xtick_8">
     <g id="line2d_8">
      <g>
       <use xlink:href="#m6fa6bd64c7" x="350.404412" y="448.56" style="stroke: #000000; stroke-width: 0.8"/>
      </g>
     </g>
     <g id="text_8">
      <text style="font: 10px 'sans-serif'; text-anchor: middle" x="350.404412" y="463.158437" transform="rotate(-0, 350.404412, 463.158437)">0.06</text>
     </g>
    </g>
    <g id="xtick_9">
     <g id="line2d_9">
      <g>
       <use xlink:href="#m6fa6bd64c7" x="381.176471" y="448.56" style="stroke: #000000; stroke-width: 0.8"/>
      </g>
     </g>
     <g id="text_9">
      <text style="font: 10px 'sans-serif'; text-anchor: middle" x="381.176471" y="463.158437" transform="rotate(-0, 381.176471, 463.158437)">0.08</text>
     </g>
    </g>
    <g id="text_10">
     <text style="font: 10px 'sans-serif'; text-anchor: middle" x="258.088235" y="476.836563" transform="rotate(-0, 258.088235, 476.836563)">mu [eV]</text>
    </g>
   </g>
   <g id="matplotlib.axis_2">
    <g id="ytick_1">
     <g id="line2d_10">
      <defs>
       <path id="m094403d080" d="M 0 0 
L -3.5 0 
" style="stroke: #000000; stroke-width: 0.8"/>
      </defs>
      <g>
       <use xlink:href="#m094403d080" x="135" y="397.298418" style="stroke: #000000; stroke-width: 0.8"/>
      </g>
     </g>
     <g id="text_11">
      <!-- $\mathdefault{−4}$ -->
      <g transform="translate(113.2 401.097637)">
       <text>
        <tspan style="font: 10px 'DejaVu Sans'" x="0 8.378906" y="-0.703125">−4</tspan>
       </text>
      </g>
     </g>
    </g>
    <g id="ytick_2">
     <g id="line2d_11">
      <g>
       <use xlink:href="#m094403d080" x="135" y="325.909209" style="stroke: #000000; stroke-width: 0.8"/>
      </g>
     </g>
     <g id="text_12">
      <!-- $\mathdefault{−2}$ -->
      <g transform="translate(113.2 329.708428)">
       <text>
        <tspan style="font: 10px 'DejaVu Sans'" x="0 8.378906" y="-0.578125">−2</tspan>
       </text>
      </g>
     </g>
    </g>
    <g id="ytick_3">
     <g id="line2d_12">
      <g>
       <use xlink:href="#m094403d080" x="135" y="254.52" style="stroke: #000000; stroke-width: 0.8"/>
      </g>
     </g>
     <g id="text_13">
      <!-- $\mathdefault{0}$ -->
      <g transform="translate(121.6 258.319219)">
       <text>
        <tspan style="font: 10px 'DejaVu Sans'" x="0" y="-0.578125">0</tspan>
       </text>
      </g>
     </g>
    </g>
    <g id="ytick_4">
     <g id="line2d_13">
      <g>
       <use xlink:href="#m094403d080" x="135" y="183.130791" style="stroke: #000000; stroke-width: 0.8"/>
      </g>
     </g>
     <g id="text_14">
      <!-- $\mathdefault{2}$ -->
      <g transform="translate(121.6 186.93001)">
       <text>
        <tspan style="font: 10px 'DejaVu Sans'" x="0" y="-0.578125">2</tspan>
       </text>
      </g>
     </g>
    </g>
    <g id="ytick_5">
     <g id="line2d_14">
      <g>
       <use xlink:href="#m094403d080" x="135" y="111.741582" style="stroke: #000000; stroke-width: 0.8"/>
      </g>
     </g>
     <g id="text_15">
      <!-- $\mathdefault{4}$ -->
      <g transform="translate(121.6 115.5408)">
       <text>
        <tspan style="font: 10px 'DejaVu Sans'" x="0" y="-0.703125">4</tspan>
       </text>
      </g>
     </g>
    </g>
    <g id="text_16">
     <text style="font: 10px 'sans-serif'; text-anchor: middle" x="107.120312" y="254.52" transform="rotate(-90, 107.120312, 254.52)">spin conductivity [/Ohm m]</text>
    </g>
    <g id="text_17">
     <!-- $\times\mathdefault{10^{3}}\mathdefault{}$ -->
     <g transform="translate(135 57.48)">
      <text>
       <tspan style="font: 10px 'DejaVu Sans'" x="0 8.378906 14.741211" y="-0.9765625">×10</tspan>
       <tspan style="font: 7px 'DejaVu Sans'" x="21.199219" y="-4.8046875">3</tspan>
      </text>
     </g>
    </g>
   </g>
   <g id="line2d_15">
    <path d="M 135 316.617404 
L 137.969875 318.600377 
L 139.170135 319.323631 
L 152.465327 327.02991 
L 154.711968 328.28693 
L 156.389255 329.190114 
L 157.835722 329.806197 
L 159.020594 330.403376 
L 162.005857 331.925456 
L 164.760301 333.191359 
L 167.330089 334.330723 
L 168.499573 334.909749 
L 169.622894 335.363593 
L 171.346345 335.980446 
L 174.300832 337.182941 
L 176.03967 337.766351 
L 179.563512 339.134836 
L 181.487006 339.726468 
L 186.457315 341.144444 
L 189.750336 341.926366 
L 193.474221 342.557602 
L 195.628534 342.721124 
L 197.275045 342.728691 
L 198.321426 342.702153 
L 199.983325 342.864391 
L 202.537725 343.064831 
L 205.723032 343.279868 
L 211.585842 343.379951 
L 213.509336 343.331458 
L 219.510637 343.432687 
L 222.111201 343.098085 
L 226.681423 342.184176 
L 231.297809 340.667635 
L 235.637212 338.934573 
L 237.853077 337.761324 
L 240.192046 336.431734 
L 242.315584 335.142268 
L 247.30128 331.383032 
L 249.209386 329.769731 
L 251.840726 327.329428 
L 255.826206 322.926411 
L 258.965349 318.880838 
L 262.350698 313.554889 
L 264.843547 308.992471 
L 266.39773 305.802544 
L 267.52105 303.218207 
L 269.152173 299.107038 
L 270.521701 295.179961 
L 271.845065 290.847584 
L 273.245369 285.410706 
L 274.768776 278.087798 
L 275.707441 272.18778 
L 277.107745 262.932841 
L 277.584772 261.399819 
L 278.354169 260.139633 
L 279.262058 259.255957 
L 281.124001 258.375349 
L 283.062883 257.876922 
L 285.678835 257.475019 
L 290.464488 257.074655 
L 299.804976 256.699405 
L 311.176673 256.489394 
L 318.101252 256.412195 
L 338.951928 256.259613 
L 353.493543 256.194961 
L 376.944784 256.109896 
L 381.176471 256.103213 
L 381.176471 256.103213 
" clip-path="url(#pce65446dc7)" style="fill: none; stroke: #1f77b4; stroke-width: 1.5; stroke-linecap: square"/>
   </g>
   <g id="line2d_16">
    <path d="M 135 254.52 
L 146.571741 260.440204 
L 152.850025 263.592377 
L 155.312098 265.06328 
L 158.805163 267.01932 
L 161.75965 268.706076 
L 172.592769 275.64929 
L 176.685964 278.352132 
L 179.702003 280.411844 
L 188.165377 286.516621 
L 193.458833 290.694222 
L 195.967069 292.870525 
L 198.936944 295.633649 
L 207.200275 302.191811 
L 213.216965 307.153062 
L 215.971408 309.347665 
L 218.956671 311.421903 
L 222.972927 314.907873 
L 226.958407 318.556699 
L 230.128325 321.694078 
L 234.175356 325.980025 
L 238.499371 330.864045 
L 240.7614 333.695463 
L 248.609256 344.124714 
L 251.594519 348.410766 
L 255.133748 354.069342 
L 257.918968 358.917645 
L 260.642635 364.12208 
L 263.889494 371.049322 
L 266.705489 377.781514 
L 269.352217 385.112693 
L 270.614029 389.13066 
L 271.922005 393.809832 
L 274.368689 403.651836 
L 276.061364 415.414377 
L 276.984641 421.869936 
L 277.415504 423.461904 
L 277.938695 424.703002 
L 278.308005 425.235736 
L 279.246671 426.12402 
L 281.200941 426.973564 
L 283.078271 427.436204 
L 285.324912 427.751918 
L 291.033842 428.149181 
L 298.112301 428.359406 
L 313.30021 428.464057 
L 325.826004 428.461014 
L 340.275292 428.42017 
L 381.176471 428.140764 
L 381.176471 428.140764 
" clip-path="url(#pce65446dc7)" style="fill: none; stroke: #d62728; stroke-width: 1.5; stroke-linecap: square"/>
   </g>
   <g id="line2d_17">
    <path d="M 135 316.617404 
L 143.832685 326.575235 
L 151.695929 335.101546 
L 153.86563 337.415025 
L 156.49697 340.495549 
L 157.681843 341.642854 
L 159.312966 343.332665 
L 174.962514 360.086938 
L 176.393593 361.561132 
L 182.379507 367.750491 
L 184.949295 370.351204 
L 193.474221 378.744298 
L 200.860438 385.565264 
L 214.632656 397.128962 
L 222.311245 402.874227 
L 236.591265 412.606681 
L 241.207651 415.608895 
L 242.638731 416.525596 
L 251.702235 421.533622 
L 253.9181 422.713388 
L 255.34918 423.409436 
L 258.672978 425.064303 
L 261.119662 426.149003 
L 264.120313 427.424992 
L 267.582602 428.660233 
L 271.952781 429.868439 
L 272.968386 430.007117 
L 274.430241 429.527807 
L 275.399682 430.24527 
L 277.384728 430.816944 
L 281.647191 430.80094 
L 309.006971 430.466808 
L 331.765754 430.250794 
L 346.368921 430.065503 
L 363.157178 429.918059 
L 374.975126 429.814528 
L 381.176471 429.723977 
L 381.176471 429.723977 
" clip-path="url(#pce65446dc7)" style="fill: none; stroke: #2ca02c; stroke-width: 1.5; stroke-linecap: square"/>
   </g>
   <g id="patch_3">
    <path d="M 135 448.56 
L 135 60.48 
" style="fill: none; stroke: #000000; stroke-width: 0.8; stroke-linejoin: miter; stroke-linecap: square"/>
   </g>
   <g id="patch_4">
    <path d="M 381.176471 448.56 
L 381.176471 60.48 
" style="fill: none; stroke: #000000; stroke-width: 0.8; stroke-linejoin: miter; stroke-linecap: square"/>
   </g>
   <g id="patch_5">
    <path d="M 135 448.56 
L 381.176471 448.56 
" style="fill: none; stroke: #000000; stroke-width: 0.8; stroke-linejoin: miter; stroke-linecap: square"/>
   </g>
   <g id="patch_6">
    <path d="M 135 60.48 
L 381.176471 60.48 
" style="fill: none; stroke: #000000; stroke-width: 0.8; stroke-linejoin: miter; stroke-linecap: square"/>
   </g>
   <g id="text_18">
    <text style="font: 12px 'sans-serif'; text-anchor: middle" x="258.088235" y="54.48" transform="rotate(-0, 258.088235, 54.48)"> xyz</text>
   </g>
   <g id="legend_1">
    <g id="patch_7">
     <path d="M 314.962408 112.514375 
L 374.176471 112.514375 
Q 376.176471 112.514375 376.176471 110.514375 
L 376.176471 67.48 
Q 376.176471 65.48 374.176471 65.48 
L 314.962408 65.48 
Q 312.962408 65.48 312.962408 67.48 
L 312.962408 110.514375 
Q 312.962408 112.514375 314.962408 112.514375 
z
" style="fill: #ffffff; opacity: 0.8; stroke: #cccccc; stroke-linejoin: miter"/>
    </g>
    <g id="line2d_18">
     <path d="M 316.962408 73.578438 
L 326.962408 73.578438 
L 336.962408 73.578438 
" style="fill: none; stroke: #1f77b4; stroke-width: 1.5; stroke-linecap: square"/>
    </g>
    <g id="text_19">
     <text style="font: 10px 'sans-serif'; text-anchor: start" x="344.962408" y="77.078438" transform="rotate(-0, 344.962408, 77.078438)">SHC1</text>
    </g>
    <g id="line2d_19">
     <path d="M 316.962408 88.256563 
L 326.962408 88.256563 
L 336.962408 88.256563 
" style="fill: none; stroke: #d62728; stroke-width: 1.5; stroke-linecap: square"/>
    </g>
    <g id="text_20">
     <text style="font: 10px 'sans-serif'; text-anchor: start" x="344.962408" y="91.756563" transform="rotate(-0, 344.962408, 91.756563)">SHC2</text>
    </g>
    <g id="line2d_20">
     <path d="M 316.962408 102.934687 
L 326.962408 102.934687 
L 336.962408 102.934687 
" style="fill: none; stroke: #2ca02c; stroke-width: 1.5; stroke-linecap: square"/>
    </g>
    <g id="text_21">
     <text style="font: 10px 'sans-serif'; text-anchor: start" x="344.962408" y="106.434687" transform="rotate(-0, 344.962408, 106.434687)">total</text>
    </g>
   </g>
  </g>
  <g id="axes_2">
   <g id="patch_8">
    <path d="M 430.411765 448.56 
L 676.588235 448.56 
L 676.588235 60.48 
L 430.411765 60.48 
z
" style="fill: #ffffff"/>
   </g>
   <g id="matplotlib.axis_3">
    <g id="xtick_10">
     <g id="line2d_21">
      <g>
       <use xlink:href="#m6fa6bd64c7" x="430.411765" y="448.56" style="stroke: #000000; stroke-width: 0.8"/>
      </g>
     </g>
     <g id="text_22">
      <text style="font: 10px 'sans-serif'; text-anchor: middle" x="430.411765" y="463.158437" transform="rotate(-0, 430.411765, 463.158437)">−0.08</text>
     </g>
    </g>
    <g id="xtick_11">
     <g id="line2d_22">
      <g>
       <use xlink:href="#m6fa6bd64c7" x="461.183824" y="448.56" style="stroke: #000000; stroke-width: 0.8"/>
      </g>
     </g>
     <g id="text_23">
      <text style="font: 10px 'sans-serif'; text-anchor: middle" x="461.183824" y="463.158437" transform="rotate(-0, 461.183824, 463.158437)">−0.06</text>
     </g>
    </g>
    <g id="xtick_12">
     <g id="line2d_23">
      <g>
       <use xlink:href="#m6fa6bd64c7" x="491.955882" y="448.56" style="stroke: #000000; stroke-width: 0.8"/>
      </g>
     </g>
     <g id="text_24">
      <text style="font: 10px 'sans-serif'; text-anchor: middle" x="491.955882" y="463.158437" transform="rotate(-0, 491.955882, 463.158437)">−0.04</text>
     </g>
    </g>
    <g id="xtick_13">
     <g id="line2d_24">
      <g>
       <use xlink:href="#m6fa6bd64c7" x="522.727941" y="448.56" style="stroke: #000000; stroke-width: 0.8"/>
      </g>
     </g>
     <g id="text_25">
      <text style="font: 10px 'sans-serif'; text-anchor: middle" x="522.727941" y="463.158437" transform="rotate(-0, 522.727941, 463.158437)">−0.02</text>
     </g>
    </g>
    <g id="xtick_14">
     <g id="line2d_25">
      <g>
       <use xlink:href="#m6fa6bd64c7" x="553.5" y="448.56" style="stroke: #000000; stroke-width: 0.8"/>
      </g>
     </g>
     <g id="text_26">
      <text style="font: 10px 'sans-serif'; text-anchor: middle" x="553.5" y="463.158437" transform="rotate(-0, 553.5, 463.158437)">0.00</text>
     </g>
    </g>
    <g id="xtick_15">
     <g id="line2d_26">
      <g>
       <use xlink:href="#m6fa6bd64c7" x="584.272059" y="448.56" style="stroke: #000000; stroke-width: 0.8"/>
      </g>
     </g>
     <g id="text_27">
      <text style="font: 10px 'sans-serif'; text-anchor: middle" x="584.272059" y="463.158437" transform="rotate(-0, 584.272059, 463.158437)">0.02</text>
     </g>
    </g>
    <g id="xtick_16">
     <g id="line2d_27">
      <g>
       <use xlink:href="#m6fa6bd64c7" x="615.044118" y="448.56" style="stroke: #000000; stroke-width: 0.8"/>
      </g>
     </g>
     <g id="text_28">
      <text style="font: 10px 'sans-serif'; text-anchor: middle" x="615.044118" y="463.158437" transform="rotate(-0, 615.044118, 463.158437)">0.04</text>
     </g>
    </g>
    <g id="xtick_17">
     <g id="line2d_28">
      <g>
       <use xlink:href="#m6fa6bd64c7" x="645.816176" y="448.56" style="stroke: #000000; stroke-width: 0.8"/>
      </g>
     </g>
     <g id="text_29">
      <text style="font: 10px 'sans-serif'; text-anchor: middle" x="645.816176" y="463.158437" transform="rotate(-0, 645.816176, 463.158437)">0.06</text>
     </g>
    </g>
    <g id="xtick_18">
     <g id="line2d_29">
      <g>
       <use xlink:href="#m6fa6bd64c7" x="676.588235" y="448.56" style="stroke: #000000; stroke-width: 0.8"/>
      </g>
     </g>
     <g id="text_30">
      <text style="font: 10px 'sans-serif'; text-anchor: middle" x="676.588235" y="463.158437" transform="rotate(-0, 676.588235, 463.158437)">0.08</text>
     </g>
    </g>
    <g id="text_31">
     <text style="font: 10px 'sans-serif'; text-anchor: middle" x="553.5" y="476.836563" transform="rotate(-0, 553.5, 476.836563)">mu [eV]</text>
    </g>
   </g>
   <g id="matplotlib.axis_4">
    <g id="ytick_6">
     <g id="line2d_30">
      <g>
       <use xlink:href="#m094403d080" x="430.411765" y="397.298418" style="stroke: #000000; stroke-width: 0.8"/>
      </g>
     </g>
     <g id="text_32">
      <!-- $\mathdefault{−4}$ -->
      <g transform="translate(408.611765 401.097637)">
       <text>
        <tspan style="font: 10px 'DejaVu Sans'" x="0 8.378906" y="-0.703125">−4</tspan>
       </text>
      </g>
     </g>
    </g>
    <g id="ytick_7">
     <g id="line2d_31">
      <g>
       <use xlink:href="#m094403d080" x="430.411765" y="325.909209" style="stroke: #000000; stroke-width: 0.8"/>
      </g>
     </g>
     <g id="text_33">
      <!-- $\mathdefault{−2}$ -->
      <g transform="translate(408.611765 329.708428)">
       <text>
        <tspan style="font: 10px 'DejaVu Sans'" x="0 8.378906" y="-0.578125">−2</tspan>
       </text>
      </g>
     </g>
    </g>
    <g id="ytick_8">
     <g id="line2d_32">
      <g>
       <use xlink:href="#m094403d080" x="430.411765" y="254.52" style="stroke: #000000; stroke-width: 0.8"/>
      </g>
     </g>
     <g id="text_34">
      <!-- $\mathdefault{0}$ -->
      <g transform="translate(417.011765 258.319219)">
       <text>
        <tspan style="font: 10px 'DejaVu Sans'" x="0" y="-0.578125">0</tspan>
       </text>
      </g>
     </g>
    </g>
    <g id="ytick_9">
     <g id="line2d_33">
      <g>
       <use xlink:href="#m094403d080" x="430.411765" y="183.130791" style="stroke: #000000; stroke-width: 0.8"/>
      </g>
     </g>
     <g id="text_35">
      <!-- $\mathdefault{2}$ -->
      <g transform="translate(417.011765 186.93001)">
       <text>
        <tspan style="font: 10px 'DejaVu Sans'" x="0" y="-0.578125">2</tspan>
       </text>
      </g>
     </g>
    </g>
    <g id="ytick_10">
     <g id="line2d_34">
      <g>
       <use xlink:href="#m094403d080" x="430.411765" y="111.741582" style="stroke: #000000; stroke-width: 0.8"/>
      </g>
     </g>
     <g id="text_36">
      <!-- $\mathdefault{4}$ -->
      <g transform="translate(417.011765 115.5408)">
       <text>
        <tspan style="font: 10px 'DejaVu Sans'" x="0" y="-0.703125">4</tspan>
       </text>
      </g>
     </g>
    </g>
    <g id="text_37">
     <!-- $\times\mathdefault{10^{3}}\mathdefault{}$ -->
     <g transform="translate(430.411765 57.48)">
      <text>
       <tspan style="font: 10px 'DejaVu Sans'" x="0 8.378906 14.741211" y="-0.9765625">×10</tspan>
       <tspan style="font: 7px 'DejaVu Sans'" x="21.199219" y="-4.8046875">3</tspan>
      </text>
     </g>
    </g>
   </g>
   <g id="line2d_35">
    <path d="M 430.411765 255.821666 
L 432.612242 255.62149 
L 437.228628 255.644788 
L 439.598373 255.509974 
L 441.183332 255.576609 
L 442.99911 255.615725 
L 445.045708 255.462038 
L 447.400065 255.421401 
L 451.339381 255.486803 
L 452.539641 255.405303 
L 454.032272 255.207604 
L 456.094258 255.236489 
L 458.556331 255.212983 
L 461.833965 255.207723 
L 463.495863 255.142922 
L 465.157762 255.154182 
L 467.80449 255.069229 
L 474.821397 255.035762 
L 476.667951 254.970424 
L 478.868428 254.988704 
L 483.223219 254.936552 
L 509.259635 254.827587 
L 518.723226 254.571421 
L 522.508663 254.522509 
L 578.45926 254.282268 
L 676.588235 254.307054 
L 676.588235 254.307054 
" clip-path="url(#pa868227d59)" style="fill: none; stroke: #1f77b4; stroke-width: 1.5; stroke-linecap: square"/>
   </g>
   <g id="line2d_36">
    <path d="M 430.411765 254.52 
L 436.305351 254.724901 
L 438.044189 254.704604 
L 440.613977 254.750857 
L 446.107477 254.901847 
L 461.649309 255.093003 
L 467.80449 255.278833 
L 476.791055 255.180799 
L 479.145412 255.164956 
L 484.34654 255.16908 
L 500.934753 255.092068 
L 513.229727 255.354648 
L 518.692451 255.5588 
L 535.403767 255.895283 
L 554.530993 256.249409 
L 563.886868 256.395978 
L 611.774178 256.763424 
L 630.439765 256.730632 
L 654.091048 256.791684 
L 668.124861 256.765074 
L 676.588235 256.860325 
L 676.588235 256.860325 
" clip-path="url(#pa868227d59)" style="fill: none; stroke: #d62728; stroke-width: 1.5; stroke-linecap: square"/>
   </g>
   <g id="line2d_37">
    <path d="M 430.411765 255.821666 
L 432.566078 255.662202 
L 437.397895 255.827928 
L 439.198286 255.706518 
L 440.629365 255.781409 
L 442.952946 255.893199 
L 444.95338 255.793078 
L 446.815323 255.831018 
L 450.200672 255.806921 
L 452.24727 255.81003 
L 453.970721 255.553391 
L 456.094258 255.670212 
L 459.741203 255.727221 
L 466.342635 255.816799 
L 475.144544 255.765465 
L 481.792139 255.596973 
L 492.209784 255.448892 
L 498.503456 255.475024 
L 508.705669 255.55222 
L 517.153655 255.587076 
L 524.062846 255.695723 
L 526.14022 255.690764 
L 529.756389 255.712262 
L 533.911136 255.80966 
L 551.745773 255.973223 
L 553.823147 256.026602 
L 557.223885 256.089731 
L 568.657134 256.218081 
L 576.489602 256.259723 
L 588.245998 256.340679 
L 590.400311 256.352324 
L 594.185747 256.400941 
L 598.00196 256.518422 
L 599.617695 256.487332 
L 604.772659 256.471517 
L 611.235599 256.518273 
L 634.225201 256.498807 
L 648.505221 256.530986 
L 652.583029 256.541093 
L 658.538167 256.540682 
L 662.200499 256.551465 
L 667.324688 256.520282 
L 676.588235 256.647379 
L 676.588235 256.647379 
" clip-path="url(#pa868227d59)" style="fill: none; stroke: #2ca02c; stroke-width: 1.5; stroke-linecap: square"/>
   </g>
   <g id="patch_9">
    <path d="M 430.411765 448.56 
L 430.411765 60.48 
" style="fill: none; stroke: #000000; stroke-width: 0.8; stroke-linejoin: miter; stroke-linecap: square"/>
   </g>
   <g id="patch_10">
    <path d="M 676.588235 448.56 
L 676.588235 60.48 
" style="fill: none; stroke: #000000; stroke-width: 0.8; stroke-linejoin: miter; stroke-linecap: square"/>
   </g>
   <g id="patch_11">
    <path d="M 430.411765 448.56 
L 676.588235 448.56 
" style="fill: none; stroke: #000000; stroke-width: 0.8; stroke-linejoin: miter; stroke-linecap: square"/>
   </g>
   <g id="patch_12">
    <path d="M 430.411765 60.48 
L 676.588235 60.48 
" style="fill: none; stroke: #000000; stroke-width: 0.8; stroke-linejoin: miter; stroke-linecap: square"/>
   </g>
   <g id="text_38">
    <text style="font: 12px 'sans-serif'; text-anchor: middle" x="553.5" y="54.48" transform="rotate(-0, 553.5, 54.48)"> yzx</text>
   </g>
   <g id="legend_2">
    <g id="patch_13">
     <path d="M 610.374173 112.514375 
L 669.588235 112.514375 
Q 671.588235 112.514375 671.588235 110.514375 
L 671.588235 67.48 
Q 671.588235 65.48 669.588235 65.48 
L 610.374173 65.48 
Q 608.374173 65.48 608.374173 67.48 
L 608.374173 110.514375 
Q 608.374173 112.514375 610.374173 112.514375 
z
" style="fill: #ffffff; opacity: 0.8; stroke: #cccccc; stroke-linejoin: miter"/>
    </g>
    <g id="line2d_38">
     <path d="M 612.374173 73.578438 
L 622.374173 73.578438 
L 632.374173 73.578438 
" style="fill: none; stroke: #1f77b4; stroke-width: 1.5; stroke-linecap: square"/>
    </g>
    <g id="text_39">
     <text style="font: 10px 'sans-serif'; text-anchor: start" x="640.374173" y="77.078438" transform="rotate(-0, 640.374173, 77.078438)">SHC1</text>
    </g>
    <g id="line2d_39">
     <path d="M 612.374173 88.256563 
L 622.374173 88.256563 
L 632.374173 88.256563 
" style="fill: none; stroke: #d62728; stroke-width: 1.5; stroke-linecap: square"/>
    </g>
    <g id="text_40">
     <text style="font: 10px 'sans-serif'; text-anchor: start" x="640.374173" y="91.756563" transform="rotate(-0, 640.374173, 91.756563)">SHC2</text>
    </g>
    <g id="line2d_40">
     <path d="M 612.374173 102.934687 
L 622.374173 102.934687 
L 632.374173 102.934687 
" style="fill: none; stroke: #2ca02c; stroke-width: 1.5; stroke-linecap: square"/>
    </g>
    <g id="text_41">
     <text style="font: 10px 'sans-serif'; text-anchor: start" x="640.374173" y="106.434687" transform="rotate(-0, 640.374173, 106.434687)">total</text>
    </g>
   </g>
  </g>
  <g id="axes_3">
   <g id="patch_14">
    <path d="M 725.823529 448.56 
L 972 448.56 
L 972 60.48 
L 725.823529 60.48 
z
" style="fill: #ffffff"/>
   </g>
   <g id="matplotlib.axis_5">
    <g id="xtick_19">
     <g id="line2d_41">
      <g>
       <use xlink:href="#m6fa6bd64c7" x="725.823529" y="448.56" style="stroke: #000000; stroke-width: 0.8"/>
      </g>
     </g>
     <g id="text_42">
      <text style="font: 10px 'sans-serif'; text-anchor: middle" x="725.823529" y="463.158437" transform="rotate(-0, 725.823529, 463.158437)">−0.08</text>
     </g>
    </g>
    <g id="xtick_20">
     <g id="line2d_42">
      <g>
       <use xlink:href="#m6fa6bd64c7" x="756.595588" y="448.56" style="stroke: #000000; stroke-width: 0.8"/>
      </g>
     </g>
     <g id="text_43">
      <text style="font: 10px 'sans-serif'; text-anchor: middle" x="756.595588" y="463.158437" transform="rotate(-0, 756.595588, 463.158437)">−0.06</text>
     </g>
    </g>
    <g id="xtick_21">
     <g id="line2d_43">
      <g>
       <use xlink:href="#m6fa6bd64c7" x="787.367647" y="448.56" style="stroke: #000000; stroke-width: 0.8"/>
      </g>
     </g>
     <g id="text_44">
      <text style="font: 10px 'sans-serif'; text-anchor: middle" x="787.367647" y="463.158437" transform="rotate(-0, 787.367647, 463.158437)">−0.04</text>
     </g>
    </g>
    <g id="xtick_22">
     <g id="line2d_44">
      <g>
       <use xlink:href="#m6fa6bd64c7" x="818.139706" y="448.56" style="stroke: #000000; stroke-width: 0.8"/>
      </g>
     </g>
     <g id="text_45">
      <text style="font: 10px 'sans-serif'; text-anchor: middle" x="818.139706" y="463.158437" transform="rotate(-0, 818.139706, 463.158437)">−0.02</text>
     </g>
    </g>
    <g id="xtick_23">
     <g id="line2d_45">
      <g>
       <use xlink:href="#m6fa6bd64c7" x="848.911765" y="448.56" style="stroke: #000000; stroke-width: 0.8"/>
      </g>
     </g>
     <g id="text_46">
      <text style="font: 10px 'sans-serif'; text-anchor: middle" x="848.911765" y="463.158437" transform="rotate(-0, 848.911765, 463.158437)">0.00</text>
     </g>
    </g>
    <g id="xtick_24">
     <g id="line2d_46">
      <g>
       <use xlink:href="#m6fa6bd64c7" x="879.683824" y="448.56" style="stroke: #000000; stroke-width: 0.8"/>
      </g>
     </g>
     <g id="text_47">
      <text style="font: 10px 'sans-serif'; text-anchor: middle" x="879.683824" y="463.158437" transform="rotate(-0, 879.683824, 463.158437)">0.02</text>
     </g>
    </g>
    <g id="xtick_25">
     <g id="line2d_47">
      <g>
       <use xlink:href="#m6fa6bd64c7" x="910.455882" y="448.56" style="stroke: #000000; stroke-width: 0.8"/>
      </g>
     </g>
     <g id="text_48">
      <text style="font: 10px 'sans-serif'; text-anchor: middle" x="910.455882" y="463.158437" transform="rotate(-0, 910.455882, 463.158437)">0.04</text>
     </g>
    </g>
    <g id="xtick_26">
     <g id="line2d_48">
      <g>
       <use xlink:href="#m6fa6bd64c7" x="941.227941" y="448.56" style="stroke: #000000; stroke-width: 0.8"/>
      </g>
     </g>
     <g id="text_49">
      <text style="font: 10px 'sans-serif'; text-anchor: middle" x="941.227941" y="463.158437" transform="rotate(-0, 941.227941, 463.158437)">0.06</text>
     </g>
    </g>
    <g id="xtick_27">
     <g id="line2d_49">
      <g>
       <use xlink:href="#m6fa6bd64c7" x="972" y="448.56" style="stroke: #000000; stroke-width: 0.8"/>
      </g>
     </g>
     <g id="text_50">
      <text style="font: 10px 'sans-serif'; text-anchor: middle" x="972" y="463.158437" transform="rotate(-0, 972, 463.158437)">0.08</text>
     </g>
    </g>
    <g id="text_51">
     <text style="font: 10px 'sans-serif'; text-anchor: middle" x="848.911765" y="476.836563" transform="rotate(-0, 848.911765, 476.836563)">mu [eV]</text>
    </g>
   </g>
   <g id="matplotlib.axis_6">
    <g id="ytick_11">
     <g id="line2d_50">
      <g>
       <use xlink:href="#m094403d080" x="725.823529" y="397.298418" style="stroke: #000000; stroke-width: 0.8"/>
      </g>
     </g>
     <g id="text_52">
      <!-- $\mathdefault{−4}$ -->
      <g transform="translate(704.023529 401.097637)">
       <text>
        <tspan style="font: 10px 'DejaVu Sans'" x="0 8.378906" y="-0.703125">−4</tspan>
       </text>
      </g>
     </g>
    </g>
    <g id="ytick_12">
     <g id="line2d_51">
      <g>
       <use xlink:href="#m094403d080" x="725.823529" y="325.909209" style="stroke: #000000; stroke-width: 0.8"/>
      </g>
     </g>
     <g id="text_53">
      <!-- $\mathdefault{−2}$ -->
      <g transform="translate(704.023529 329.708428)">
       <text>
        <tspan style="font: 10px 'DejaVu Sans'" x="0 8.378906" y="-0.578125">−2</tspan>
       </text>
      </g>
     </g>
    </g>
    <g id="ytick_13">
     <g id="line2d_52">
      <g>
       <use xlink:href="#m094403d080" x="725.823529" y="254.52" style="stroke: #000000; stroke-width: 0.8"/>
      </g>
     </g>
     <g id="text_54">
      <!-- $\mathdefault{0}$ -->
      <g transform="translate(712.423529 258.319219)">
       <text>
        <tspan style="font: 10px 'DejaVu Sans'" x="0" y="-0.578125">0</tspan>
       </text>
      </g>
     </g>
    </g>
    <g id="ytick_14">
     <g id="line2d_53">
      <g>
       <use xlink:href="#m094403d080" x="725.823529" y="183.130791" style="stroke: #000000; stroke-width: 0.8"/>
      </g>
     </g>
     <g id="text_55">
      <!-- $\mathdefault{2}$ -->
      <g transform="translate(712.423529 186.93001)">
       <text>
        <tspan style="font: 10px 'DejaVu Sans'" x="0" y="-0.578125">2</tspan>
       </text>
      </g>
     </g>
    </g>
    <g id="ytick_15">
     <g id="line2d_54">
      <g>
       <use xlink:href="#m094403d080" x="725.823529" y="111.741582" style="stroke: #000000; stroke-width: 0.8"/>
      </g>
     </g>
     <g id="text_56">
      <!-- $\mathdefault{4}$ -->
      <g transform="translate(712.423529 115.5408)">
       <text>
        <tspan style="font: 10px 'DejaVu Sans'" x="0" y="-0.703125">4</tspan>
       </text>
      </g>
     </g>
    </g>
    <g id="text_57">
     <!-- $\times\mathdefault{10^{3}}\mathdefault{}$ -->
     <g transform="translate(725.823529 57.48)">
      <text>
       <tspan style="font: 10px 'DejaVu Sans'" x="0 8.378906 14.741211" y="-0.9765625">×10</tspan>
       <tspan style="font: 7px 'DejaVu Sans'" x="21.199219" y="-4.8046875">3</tspan>
      </text>
     </g>
    </g>
   </g>
   <g id="line2d_55">
    <path d="M 725.823529 246.010078 
L 729.101163 245.742049 
L 732.978928 245.295853 
L 735.317896 245.075655 
L 738.59553 244.734151 
L 743.827434 244.375231 
L 744.858427 244.322198 
L 747.659035 243.974403 
L 751.644514 243.696656 
L 754.291242 243.576077 
L 756.245512 243.454749 
L 760.184828 243.165311 
L 764.093368 242.992584 
L 772.772174 242.958341 
L 777.83481 243.306251 
L 779.235114 243.576453 
L 781.266324 244.125129 
L 783.359085 245.11973 
L 784.620897 246.04795 
L 786.098141 247.713463 
L 787.098358 249.556643 
L 787.821592 251.439259 
L 788.744869 253.743146 
L 789.237283 254.376875 
L 790.068233 254.878363 
L 790.945346 255.135847 
L 792.745737 255.394583 
L 795.346301 255.428232 
L 802.994113 254.706125 
L 804.779116 254.14718 
L 805.717781 253.567686 
L 806.194807 253.012297 
L 806.564118 252.330018 
L 807.041145 251.05231 
L 808.072138 248.236272 
L 808.903087 246.592707 
L 809.980244 245.212616 
L 810.811193 244.329569 
L 812.657748 243.01132 
L 814.211931 242.24617 
L 816.99715 241.287768 
L 819.982413 240.73165 
L 823.61397 240.197377 
L 830.90786 239.474985 
L 849.311851 238.639592 
L 852.158623 238.583596 
L 856.590353 238.473239 
L 865.715409 238.273395 
L 868.054378 238.280665 
L 874.917405 238.26347 
L 891.828765 238.255609 
L 897.245325 238.22558 
L 899.138043 238.235468 
L 902.231022 238.19884 
L 907.232106 238.214304 
L 919.650184 238.178139 
L 932.729944 238.155246 
L 937.654089 238.156149 
L 945.825092 238.154458 
L 968.722366 238.246662 
L 972 238.285146 
L 972 238.285146 
" clip-path="url(#pb8ea15843c)" style="fill: none; stroke: #1f77b4; stroke-width: 1.5; stroke-linecap: square"/>
   </g>
   <g id="line2d_56">
    <path d="M 725.823529 254.52 
L 730.409139 253.936073 
L 733.902205 253.512291 
L 737.626089 252.956122 
L 745.643213 251.383649 
L 749.72102 250.377661 
L 756.999522 248.218777 
L 760.985002 246.828607 
L 764.616559 245.344802 
L 768.571263 243.376034 
L 772.264371 241.322091 
L 775.757437 238.977035 
L 777.973302 237.197843 
L 779.589037 235.694402 
L 780.743133 234.457783 
L 782.097273 232.827623 
L 783.528353 230.833214 
L 785.359519 227.893698 
L 786.098141 226.432167 
L 787.175298 223.454656 
L 788.837197 218.507839 
L 789.391163 217.890833 
L 790.145173 217.411834 
L 790.791467 217.19975 
L 793.207375 216.909164 
L 795.238585 216.870046 
L 800.639756 217.24105 
L 802.932561 217.577912 
L 804.779116 218.151683 
L 805.610065 218.671383 
L 806.287135 219.541661 
L 806.794938 220.752639 
L 807.718215 223.963517 
L 808.980027 227.928042 
L 812.149945 233.352633 
L 814.581242 236.589061 
L 816.227753 238.438648 
L 818.151247 240.352948 
L 821.321165 243.041813 
L 825.12199 245.800166 
L 828.645831 248.04849 
L 831.538766 249.684321 
L 835.924332 251.941784 
L 841.602487 254.472576 
L 847.573013 256.78883 
L 853.343495 258.821254 
L 858.113761 260.296807 
L 866.777178 262.623809 
L 876.071502 264.739594 
L 880.734051 265.65563 
L 891.782602 267.906814 
L 895.337219 268.527256 
L 903.031195 269.843437 
L 908.170771 270.625552 
L 917.003456 271.852544 
L 923.989587 272.767421 
L 935.592103 274.200222 
L 943.409184 274.993153 
L 948.517984 275.529277 
L 953.857604 276.043648 
L 958.258558 276.422298 
L 972 277.609216 
L 972 277.609216 
" clip-path="url(#pb8ea15843c)" style="fill: none; stroke: #d62728; stroke-width: 1.5; stroke-linecap: square"/>
   </g>
   <g id="line2d_57">
    <path d="M 725.823529 246.010078 
L 728.701077 245.464247 
L 730.978494 244.815503 
L 732.994315 244.387491 
L 735.087077 243.95847 
L 742.611786 241.810791 
L 743.458123 241.666324 
L 744.796875 241.381152 
L 747.936018 240.298621 
L 750.936669 239.273283 
L 759.969397 235.871465 
L 767.001691 232.595448 
L 773.449244 229.036681 
L 776.157523 227.308408 
L 780.327659 224.239981 
L 783.574517 221.500557 
L 785.020984 220.398015 
L 786.55978 219.233198 
L 788.113963 218.058614 
L 788.929524 217.88652 
L 794.284532 217.798902 
L 805.625453 217.815053 
L 807.241188 218.221352 
L 808.503 219.181627 
L 809.087743 219.953228 
L 810.765029 220.915465 
L 814.827449 224.380096 
L 816.32008 225.494791 
L 821.721252 229.274511 
L 825.860611 231.671101 
L 829.507556 233.613993 
L 837.21692 237.106493 
L 842.910463 239.384298 
L 847.619177 240.952965 
L 853.651254 242.918811 
L 857.698286 244.080358 
L 861.099023 244.992869 
L 871.685935 247.547903 
L 877.933444 248.818809 
L 880.118533 249.299887 
L 885.735136 250.371281 
L 887.181604 250.673052 
L 894.629373 252.158023 
L 904.523827 253.7709 
L 910.494352 254.680916 
L 915.356945 255.250823 
L 921.71217 256.14873 
L 930.067828 257.197984 
L 933.576282 257.633656 
L 943.563063 258.639967 
L 946.67143 258.954379 
L 951.610962 259.521512 
L 972 261.374362 
L 972 261.374362 
" clip-path="url(#pb8ea15843c)" style="fill: none; stroke: #2ca02c; stroke-width: 1.5; stroke-linecap: square"/>
   </g>
   <g id="patch_15">
    <path d="M 725.823529 448.56 
L 725.823529 60.48 
" style="fill: none; stroke: #000000; stroke-width: 0.8; stroke-linejoin: miter; stroke-linecap: square"/>
   </g>
   <g id="patch_16">
    <path d="M 972 448.56 
L 972 60.48 
" style="fill: none; stroke: #000000; stroke-width: 0.8; stroke-linejoin: miter; stroke-linecap: square"/>
   </g>
   <g id="patch_17">
    <path d="M 725.823529 448.56 
L 972 448.56 
" style="fill: none; stroke: #000000; stroke-width: 0.8; stroke-linejoin: miter; stroke-linecap: square"/>
   </g>
   <g id="patch_18">
    <path d="M 725.823529 60.48 
L 972 60.48 
" style="fill: none; stroke: #000000; stroke-width: 0.8; stroke-linejoin: miter; stroke-linecap: square"/>
   </g>
   <g id="text_58">
    <text style="font: 12px 'sans-serif'; text-anchor: middle" x="848.911765" y="54.48" transform="rotate(-0, 848.911765, 54.48)"> zxy</text>
   </g>
   <g id="legend_3">
    <g id="patch_19">
     <path d="M 905.785938 112.514375 
L 965 112.514375 
Q 967 112.514375 967 110.514375 
L 967 67.48 
Q 967 65.48 965 65.48 
L 905.785938 65.48 
Q 903.785938 65.48 903.785938 67.48 
L 903.785938 110.514375 
Q 903.785938 112.514375 905.785938 112.514375 
z
" style="fill: #ffffff; opacity: 0.8; stroke: #cccccc; stroke-linejoin: miter"/>
    </g>
    <g id="line2d_58">
     <path d="M 907.785938 73.578438 
L 917.785938 73.578438 
L 927.785938 73.578438 
" style="fill: none; stroke: #1f77b4; stroke-width: 1.5; stroke-linecap: square"/>
    </g>
    <g id="text_59">
     <text style="font: 10px 'sans-serif'; text-anchor: start" x="935.785938" y="77.078438" transform="rotate(-0, 935.785938, 77.078438)">SHC1</text>
    </g>
    <g id="line2d_59">
     <path d="M 907.785938 88.256563 
L 917.785938 88.256563 
L 927.785938 88.256563 
" style="fill: none; stroke: #d62728; stroke-width: 1.5; stroke-linecap: square"/>
    </g>
    <g id="text_60">
     <text style="font: 10px 'sans-serif'; text-anchor: start" x="935.785938" y="91.756563" transform="rotate(-0, 935.785938, 91.756563)">SHC2</text>
    </g>
    <g id="line2d_60">
     <path d="M 907.785938 102.934687 
L 917.785938 102.934687 
L 927.785938 102.934687 
" style="fill: none; stroke: #2ca02c; stroke-width: 1.5; stroke-linecap: square"/>
    </g>
    <g id="text_61">
     <text style="font: 10px 'sans-serif'; text-anchor: start" x="935.785938" y="106.434687" transform="rotate(-0, 935.785938, 106.434687)">total</text>
    </g>
   </g>
  </g>
 </g>
 <defs>
  <clipPath id="pce65446dc7">
   <rect x="135" y="60.48" width="246.176471" height="388.08"/>
  </clipPath>
  <clipPath id="pa868227d59">
   <rect x="430.411765" y="60.48" width="246.176471" height="388.08"/>
  </clipPath>
  <clipPath id="pb8ea15843c">
   <rect x="725.823529" y="60.48" width="246.176471" height="388.08"/>
  </clipPath>
 </defs>
</svg>
